<svg xmlns="http://www.w3.org/2000/svg" id="sprotty_mux2_8" class="sprotty-graph sprotty-block-diagram blockdiagram" style="font-family:&quot;Helvetica Neue&quot;, Helvetica, Arial, sans-serif;line-height:18px;perspective-origin:0px 0px;transform-origin:0px 0px;z-index:0;" version="1.1" viewBox="9.5 12 175.06828125 103.87680053710938"><g transform="scale(1) translate(0,0)"><g id="sprotty_ArchitectureBlockImpl$work.mux2_8(struct)" transform="translate(12, 12)" class="architecture"><g class="sprotty-block" style="fill:rgb(245, 245, 245);stroke:rgb(48, 48, 48);stroke-dasharray:0px;"><rect x="0" y="0" rx="1" ry="1" width="168.23999999999998" height="103.87680053710938"/><path d="M14.64 16L12.40 16L11.44 12.27Q11.36 11.97 11.25 11.51Q11.14 11.06 11.02 10.56Q10.90 10.06 10.80 9.65Q10.70 9.23 10.66 9.01L10.66 9.01L10.59 9.01Q10.54 9.23 10.45 9.65Q10.35 10.06 10.24 10.57Q10.13 11.07 10.01 11.53Q9.89 11.98 9.81 12.29L9.81 12.29L8.80 16L6.59 16L4.16 7.31L6.19 7.31L7.26 11.46Q7.38 11.89 7.48 12.41Q7.58 12.93 7.66 13.42Q7.73 13.90 7.78 14.21L7.78 14.21L7.84 14.21Q7.87 13.92 7.96 13.42Q8.05 12.93 8.14 12.46Q8.24 11.98 8.30 11.74L8.30 11.74L9.55 7.31L11.76 7.31L12.96 11.74Q13.02 12.03 13.13 12.50Q13.23 12.96 13.31 13.43Q13.39 13.90 13.41 14.19L13.41 14.19L13.47 14.19Q13.50 13.94 13.58 13.46Q13.66 12.98 13.78 12.43Q13.89 11.89 14.02 11.46L14.02 11.46L15.10 7.31L17.10 7.31L14.64 16ZM26.32 11.65L26.32 11.65Q26.32 13.81 25.20 14.98Q24.08 16.16 22.16 16.16L22.16 16.16Q20.98 16.16 20.05 15.63Q19.12 15.10 18.59 14.10Q18.06 13.09 18.06 11.65L18.06 11.65Q18.06 9.49 19.18 8.33Q20.29 7.17 22.21 7.17L22.21 7.17Q23.41 7.17 24.34 7.69Q25.26 8.21 25.79 9.21Q26.32 10.21 26.32 11.65ZM20.13 11.65L20.13 11.65Q20.13 13.02 20.62 13.78Q21.10 14.53 22.19 14.53L22.19 14.53Q23.28 14.53 23.77 13.78Q24.26 13.02 24.26 11.65L24.26 11.65Q24.26 10.27 23.77 9.54Q23.28 8.80 22.18 8.80L22.18 8.80Q21.10 8.80 20.62 9.54Q20.13 10.27 20.13 11.65ZM32.94 7.17L32.94 7.17Q33.15 7.17 33.40 7.18Q33.65 7.20 33.82 7.25L33.82 7.25L33.65 9.12Q33.49 9.09 33.26 9.06Q33.04 9.04 32.86 9.04L32.86 9.04Q32.22 9.04 31.66 9.30Q31.10 9.57 30.76 10.12Q30.42 10.67 30.42 11.50L30.42 11.50L30.42 16L28.40 16L28.40 7.33L29.95 7.33L30.24 8.83L30.34 8.83Q30.72 8.14 31.39 7.66Q32.06 7.17 32.94 7.17ZM35.42 3.84L37.42 3.84L37.42 9.62Q37.42 10.03 37.39 10.50Q37.36 10.96 37.33 11.38L37.33 11.38L37.38 11.38Q37.57 11.09 37.86 10.72Q38.14 10.35 38.40 10.06L38.40 10.06L40.96 7.33L43.25 7.33L39.78 11.07L43.47 16L41.12 16L38.43 12.29L37.42 13.12L37.42 16L35.42 16L35.42 3.84ZM44.54 14.98L44.54 14.98Q44.54 14.30 44.90 14.02Q45.25 13.74 45.76 13.74L45.76 13.74Q46.26 13.74 46.62 14.02Q46.99 14.30 46.99 14.98L46.99 14.98Q46.99 15.63 46.62 15.92Q46.26 16.21 45.76 16.21L45.76 16.21Q45.25 16.21 44.90 15.92Q44.54 15.63 44.54 14.98ZM59.23 7.17L59.23 7.17Q60.70 7.17 61.45 7.92Q62.19 8.67 62.19 10.35L62.19 10.35L62.19 16L60.18 16L60.18 10.74Q60.18 8.80 58.70 8.80L58.70 8.80Q57.65 8.80 57.20 9.49Q56.75 10.18 56.75 11.49L56.75 11.49L56.75 16L54.74 16L54.74 10.74Q54.74 8.80 53.25 8.80L53.25 8.80Q52.14 8.80 51.73 9.57Q51.31 10.34 51.31 11.76L51.31 11.76L51.31 16L49.30 16L49.30 7.33L50.85 7.33L51.14 8.46L51.25 8.46Q51.63 7.79 52.33 7.48Q53.02 7.17 53.78 7.17L53.78 7.17Q54.75 7.17 55.42 7.50Q56.08 7.82 56.43 8.51L56.43 8.51L56.59 8.51Q56.99 7.81 57.71 7.49Q58.43 7.17 59.23 7.17ZM70.40 7.33L72.42 7.33L72.42 16L70.83 16L70.56 14.88L70.46 14.88Q70.03 15.55 69.30 15.86Q68.58 16.16 67.76 16.16L67.76 16.16Q66.30 16.16 65.48 15.41Q64.66 14.66 64.66 12.99L64.66 12.99L64.66 7.33L66.67 7.33L66.67 12.59Q66.67 14.53 68.27 14.53L68.27 14.53Q69.49 14.53 69.94 13.77Q70.40 13.01 70.40 11.57L70.40 11.57L70.40 7.33ZM73.86 16L76.86 11.57L74 7.33L76.29 7.33L78.18 10.27L80.06 7.33L82.35 7.33L79.46 11.57L82.50 16L80.21 16L78.18 12.85L76.14 16L73.86 16ZM91.17 14.26L91.17 16L83.34 16L83.34 14.51L86.26 11.57Q87.12 10.69 87.67 10.06Q88.22 9.44 88.49 8.89Q88.75 8.34 88.75 7.70L88.75 7.70Q88.75 6.91 88.30 6.52Q87.86 6.13 87.12 6.13L87.12 6.13Q86.40 6.13 85.78 6.42Q85.15 6.72 84.48 7.26L84.48 7.26L83.38 5.94Q84.08 5.33 84.98 4.87Q85.87 4.42 87.23 4.42L87.23 4.42Q88.34 4.42 89.14 4.81Q89.94 5.20 90.36 5.89Q90.78 6.58 90.78 7.49L90.78 7.49Q90.78 8.42 90.42 9.19Q90.05 9.97 89.35 10.74Q88.66 11.52 87.70 12.42L87.70 12.42L85.89 14.16L85.89 14.26L91.17 14.26ZM98.61 17.44L98.61 18.50L91.78 18.50L91.78 17.44L98.61 17.44ZM103.15 4.43L103.15 4.43Q104.14 4.43 104.95 4.74Q105.76 5.04 106.23 5.65Q106.70 6.26 106.70 7.17L106.70 7.17Q106.70 8.21 106.10 8.86Q105.49 9.52 104.61 9.97L104.61 9.97Q105.26 10.29 105.82 10.71Q106.38 11.14 106.73 11.70Q107.07 12.27 107.07 13.04L107.07 13.04Q107.07 14 106.58 14.70Q106.08 15.39 105.21 15.78Q104.34 16.16 103.17 16.16L103.17 16.16Q101.26 16.16 100.24 15.34Q99.22 14.53 99.22 13.10L99.22 13.10Q99.22 12.32 99.53 11.74Q99.84 11.15 100.35 10.74Q100.86 10.32 101.47 10.03L101.47 10.03Q100.69 9.55 100.14 8.87Q99.58 8.19 99.58 7.15L99.58 7.15Q99.58 6.26 100.07 5.65Q100.56 5.04 101.37 4.74Q102.18 4.43 103.15 4.43ZM103.14 5.95L103.14 5.95Q102.43 5.95 101.98 6.30Q101.52 6.66 101.52 7.30L101.52 7.30Q101.52 8 102.01 8.41Q102.50 8.82 103.17 9.14L103.17 9.14Q103.82 8.85 104.30 8.43Q104.77 8.02 104.77 7.30L104.77 7.30Q104.77 6.66 104.31 6.30Q103.86 5.95 103.14 5.95ZM101.14 13.01L101.14 13.01Q101.14 13.71 101.63 14.17Q102.13 14.62 103.14 14.62L103.14 14.62Q104.13 14.62 104.64 14.18Q105.15 13.73 105.15 13.01L105.15 13.01Q105.15 12.29 104.57 11.82Q103.98 11.34 103.22 10.98L103.22 10.98L102.99 10.86Q102.13 11.25 101.63 11.76Q101.14 12.27 101.14 13.01ZM108.37 11.62L108.37 11.62Q108.37 9.66 108.94 7.85Q109.50 6.03 110.72 4.58L110.72 4.58L112.43 4.58Q111.33 6.08 110.77 7.89Q110.21 9.70 110.21 11.60L110.21 11.60Q110.21 13.46 110.77 15.25Q111.33 17.04 112.42 18.53L112.42 18.53L110.72 18.53Q109.50 17.12 108.94 15.34Q108.37 13.55 108.37 11.62ZM120.11 13.49L120.11 13.49Q120.11 14.80 119.18 15.48Q118.24 16.16 116.50 16.16L116.50 16.16Q115.58 16.16 114.94 16.03Q114.29 15.90 113.68 15.63L113.68 15.63L113.68 13.92Q114.32 14.22 115.10 14.43Q115.87 14.64 116.56 14.64L116.56 14.64Q117.39 14.64 117.76 14.38Q118.13 14.13 118.13 13.70L118.13 13.70Q118.13 13.44 117.98 13.24Q117.84 13.04 117.42 12.80Q116.99 12.56 116.16 12.21L116.16 12.21Q115.33 11.89 114.78 11.54Q114.22 11.20 113.94 10.74Q113.66 10.27 113.66 9.54L113.66 9.54Q113.66 8.37 114.58 7.77Q115.50 7.17 117.04 7.17L117.04 7.17Q117.84 7.17 118.55 7.33Q119.26 7.49 119.98 7.81L119.98 7.81L119.34 9.30Q118.74 9.04 118.16 8.86Q117.58 8.69 116.98 8.69L116.98 8.69Q115.65 8.69 115.65 9.44L115.65 9.44Q115.65 9.71 115.82 9.90Q115.98 10.10 116.41 10.31Q116.83 10.53 117.62 10.83L117.62 10.83Q118.38 11.14 118.94 11.46Q119.50 11.79 119.81 12.27Q120.11 12.75 120.11 13.49ZM125.41 14.54L125.41 14.54Q125.78 14.54 126.14 14.47Q126.50 14.40 126.80 14.30L126.80 14.30L126.80 15.81Q126.48 15.95 125.97 16.06Q125.46 16.16 124.90 16.16L124.90 16.16Q124.16 16.16 123.55 15.91Q122.94 15.66 122.59 15.06Q122.24 14.45 122.24 13.36L122.24 13.36L122.24 8.85L121.07 8.85L121.07 7.97L122.35 7.26L122.99 5.42L124.26 5.42L124.26 7.33L126.72 7.33L126.72 8.85L124.26 8.85L124.26 13.34Q124.26 13.95 124.58 14.25Q124.90 14.54 125.41 14.54ZM133.09 7.17L133.09 7.17Q133.30 7.17 133.54 7.18Q133.79 7.20 133.97 7.25L133.97 7.25L133.79 9.12Q133.63 9.09 133.41 9.06Q133.18 9.04 133.01 9.04L133.01 9.04Q132.37 9.04 131.81 9.30Q131.25 9.57 130.90 10.12Q130.56 10.67 130.56 11.50L130.56 11.50L130.56 16L128.54 16L128.54 7.33L130.10 7.33L130.38 8.83L130.48 8.83Q130.86 8.14 131.54 7.66Q132.21 7.17 133.09 7.17ZM141.25 7.33L143.26 7.33L143.26 16L141.68 16L141.41 14.88L141.31 14.88Q140.88 15.55 140.15 15.86Q139.42 16.16 138.61 16.16L138.61 16.16Q137.15 16.16 136.33 15.41Q135.50 14.66 135.50 12.99L135.50 12.99L135.50 7.33L137.52 7.33L137.52 12.59Q137.52 14.53 139.12 14.53L139.12 14.53Q140.34 14.53 140.79 13.77Q141.25 13.01 141.25 11.57L141.25 11.57L141.25 7.33ZM149.34 16.16L149.34 16.16Q147.47 16.16 146.40 15.09Q145.33 14.02 145.33 11.71L145.33 11.71Q145.33 10.11 145.86 9.11Q146.40 8.11 147.34 7.64Q148.29 7.17 149.50 7.17L149.50 7.17Q150.32 7.17 150.96 7.33Q151.60 7.49 152.05 7.71L152.05 7.71L151.46 9.30Q150.96 9.10 150.46 8.97Q149.97 8.83 149.50 8.83L149.50 8.83Q147.39 8.83 147.39 11.70L147.39 11.70Q147.39 13.09 147.93 13.79Q148.46 14.50 149.47 14.50L149.47 14.50Q150.19 14.50 150.75 14.32Q151.31 14.14 151.82 13.84L151.82 13.84L151.82 15.58Q151.33 15.87 150.76 16.02Q150.19 16.16 149.34 16.16ZM157.22 14.54L157.22 14.54Q157.58 14.54 157.94 14.47Q158.30 14.40 158.61 14.30L158.61 14.30L158.61 15.81Q158.29 15.95 157.78 16.06Q157.26 16.16 156.70 16.16L156.70 16.16Q155.97 16.16 155.36 15.91Q154.75 15.66 154.40 15.06Q154.05 14.45 154.05 13.36L154.05 13.36L154.05 8.85L152.88 8.85L152.88 7.97L154.16 7.26L154.80 5.42L156.06 5.42L156.06 7.33L158.53 7.33L158.53 8.85L156.06 8.85L156.06 13.34Q156.06 13.95 156.38 14.25Q156.70 14.54 157.22 14.54ZM163.60 11.62L163.60 11.62Q163.60 13.55 163.03 15.34Q162.46 17.12 161.25 18.53L161.25 18.53L159.55 18.53Q160.64 17.04 161.21 15.25Q161.78 13.46 161.78 11.60L161.78 11.60Q161.78 9.70 161.21 7.89Q160.64 6.08 159.54 4.58L159.54 4.58L161.25 4.58Q162.46 6.03 163.03 7.85Q163.60 9.66 163.60 11.62Z" class="sprotty-block-name" style="fill:rgb(48, 48, 48);stroke:rgba(0, 0, 0, 0);"/><line x1="0" y1="20" x2="168.23999999999998" y2="20"/></g><g id="sprotty_ArchitectureBlockImpl$work.mux2_8(struct)/GPortImpl$s" transform="translate(0, 86.17940044403076)" class="triangle"><path d="M 0,0 L 5,2.5 L 0,5 Z" transform="translate(-1.67, -2.5)" class="sprotty-port" style="fill:rgb(48, 48, 48);stroke:rgb(48, 48, 48);"/><g class="port sprotty-label" id="sprotty_ArchitectureBlockImpl$work.mux2_8(struct)/GPortImpl$s/label" transform="translate(3, -5.697400093078613) translate(0, -0.13300000131130219)" style="cursor:default;fill:rgb(48, 48, 48);font-family:Arial, Helvetica, sans-serif;text-anchor:middle;"><path d="M2.93 0.13L2.93 0.13Q2.18 0.13 1.64 0.01Q1.10-0.11 0.69-0.32L0.69-0.32L0.69-1.38Q1.12-1.17 1.72-0.99Q2.33-0.81 2.95-0.81L2.95-0.81Q3.84-0.81 4.24-1.10Q4.64-1.38 4.64-1.86L4.64-1.86Q4.64-2.13 4.50-2.34Q4.35-2.55 3.97-2.77Q3.59-2.98 2.89-3.25L2.89-3.25Q2.19-3.51 1.70-3.78Q1.21-4.04 0.94-4.42Q0.68-4.79 0.68-5.37L0.68-5.37Q0.68-6.28 1.42-6.77Q2.15-7.26 3.35-7.26L3.35-7.26Q4.00-7.26 4.57-7.14Q5.13-7.01 5.63-6.78L5.63-6.78L5.23-5.85Q4.77-6.04 4.28-6.17Q3.79-6.30 3.27-6.30L3.27-6.30Q2.55-6.30 2.17-6.07Q1.80-5.84 1.80-5.44L1.80-5.44Q1.80-5.15 1.97-4.94Q2.14-4.73 2.55-4.54Q2.95-4.35 3.63-4.08L3.63-4.08Q4.31-3.83 4.79-3.56Q5.27-3.29 5.52-2.91Q5.77-2.54 5.77-1.97L5.77-1.97Q5.77-0.93 5.00-0.40Q4.23 0.13 2.93 0.13Z" transform="translate(4, 9.3948)"/><rect x="0" y="0.133" width="14.3707" height="11.3948" class="clickable" style="cursor:pointer;fill:rgba(0, 0, 0, 0);fill-opacity:0;stroke-width:0px;"/></g></g><g id="sprotty_ArchitectureBlockImpl$work.mux2_8(struct)/GPortImpl$d1" transform="translate(0, 63.36150026321411)" class="triangle"><path d="M 0,0 L 5,2.5 L 0,5 Z" transform="translate(-1.67, -2.5)" class="sprotty-port" style="fill:rgb(48, 48, 48);stroke:rgb(48, 48, 48);"/><g class="port sprotty-label" id="sprotty_ArchitectureBlockImpl$work.mux2_8(struct)/GPortImpl$d1/label" transform="translate(3, -7.120500087738037) translate(0, -0.13300000131130219)" style="cursor:default;fill:rgb(48, 48, 48);font-family:Arial, Helvetica, sans-serif;text-anchor:middle;"><path d="M3.66 0.13L3.66 0.13Q2.33 0.13 1.53-0.79Q0.73-1.72 0.73-3.55L0.73-3.55Q0.73-5.39 1.54-6.32Q2.34-7.26 3.67-7.26L3.67-7.26Q4.50-7.26 5.02-6.96Q5.55-6.65 5.88-6.21L5.88-6.21L5.96-6.21Q5.95-6.38 5.91-6.72Q5.88-7.06 5.88-7.26L5.88-7.26L5.88-10.11L7.05-10.11L7.05 0L6.10 0L5.93-0.96L5.88-0.96Q5.56-0.51 5.03-0.19Q4.50 0.13 3.66 0.13ZM3.84-0.84L3.84-0.84Q4.97-0.84 5.43-1.46Q5.89-2.07 5.89-3.33L5.89-3.33L5.89-3.54Q5.89-4.87 5.45-5.58Q5.01-6.29 3.83-6.29L3.83-6.29Q2.89-6.29 2.41-5.54Q1.94-4.79 1.94-3.52L1.94-3.52Q1.94-2.25 2.41-1.54Q2.89-0.84 3.84-0.84ZM12.90 0L11.76 0L11.76-6.64Q11.76-7.21 11.77-7.55Q11.78-7.90 11.81-8.27L11.81-8.27Q11.60-8.07 11.42-7.92Q11.25-7.77 10.99-7.54L10.99-7.54L9.98-6.72L9.36-7.50L11.93-9.50L12.90-9.50L12.90 0Z" transform="translate(4, 12.241)"/><rect x="0" y="0.133" width="23.787100000000002" height="14.241" class="clickable" style="cursor:pointer;fill:rgba(0, 0, 0, 0);fill-opacity:0;stroke-width:0px;"/></g></g><g id="sprotty_ArchitectureBlockImpl$work.mux2_8(struct)/GPortImpl$d0" transform="translate(0, 39.12050008773804)" class="triangle"><path d="M 0,0 L 5,2.5 L 0,5 Z" transform="translate(-1.67, -2.5)" class="sprotty-port" style="fill:rgb(48, 48, 48);stroke:rgb(48, 48, 48);"/><g class="port sprotty-label" id="sprotty_ArchitectureBlockImpl$work.mux2_8(struct)/GPortImpl$d0/label" transform="translate(3, -7.120500087738037) translate(0, -0.13300000131130219)" style="cursor:default;fill:rgb(48, 48, 48);font-family:Arial, Helvetica, sans-serif;text-anchor:middle;"><path d="M3.66 0.13L3.66 0.13Q2.33 0.13 1.53-0.79Q0.73-1.72 0.73-3.55L0.73-3.55Q0.73-5.39 1.54-6.32Q2.34-7.26 3.67-7.26L3.67-7.26Q4.50-7.26 5.02-6.96Q5.55-6.65 5.88-6.21L5.88-6.21L5.96-6.21Q5.95-6.38 5.91-6.72Q5.88-7.06 5.88-7.26L5.88-7.26L5.88-10.11L7.05-10.11L7.05 0L6.10 0L5.93-0.96L5.88-0.96Q5.56-0.51 5.03-0.19Q4.50 0.13 3.66 0.13ZM3.84-0.84L3.84-0.84Q4.97-0.84 5.43-1.46Q5.89-2.07 5.89-3.33L5.89-3.33L5.89-3.54Q5.89-4.87 5.45-5.58Q5.01-6.29 3.83-6.29L3.83-6.29Q2.89-6.29 2.41-5.54Q1.94-4.79 1.94-3.52L1.94-3.52Q1.94-2.25 2.41-1.54Q2.89-0.84 3.84-0.84ZM11.97 0.13L11.97 0.13Q10.36 0.13 9.60-1.16Q8.83-2.46 8.83-4.76L8.83-4.76Q8.83-6.30 9.14-7.39Q9.46-8.49 10.15-9.06Q10.84-9.64 11.97-9.64L11.97-9.64Q13.57-9.64 14.35-8.36Q15.14-7.08 15.14-4.76L15.14-4.76Q15.14-3.23 14.82-2.13Q14.50-1.04 13.81-0.45Q13.11 0.13 11.97 0.13ZM11.97-0.86L11.97-0.86Q13.03-0.86 13.49-1.83Q13.95-2.79 13.95-4.76L13.95-4.76Q13.95-6.70 13.49-7.67Q13.03-8.65 11.97-8.65L11.97-8.65Q10.89-8.65 10.45-7.67Q10.00-6.70 10.00-4.76L10.00-4.76Q10.00-2.81 10.45-1.84Q10.89-0.86 11.97-0.86Z" transform="translate(4, 12.241)"/><rect x="0" y="0.133" width="23.787100000000002" height="14.241" class="clickable" style="cursor:pointer;fill:rgba(0, 0, 0, 0);fill-opacity:0;stroke-width:0px;"/></g></g><g id="sprotty_ArchitectureBlockImpl$work.mux2_8(struct)/GPortImpl$y" transform="translate(168.23828125, 61.93840026855469)" class="triangle"><path d="M 0,0 L 5,2.5 L 0,5 Z" transform="translate(-1.67, -2.5)" class="sprotty-port" style="fill:rgb(48, 48, 48);stroke:rgb(48, 48, 48);"/><g class="port sprotty-label" id="sprotty_ArchitectureBlockImpl$work.mux2_8(struct)/GPortImpl$y/label" transform="translate(-17.782999992370605, -7.160400390625) translate(0, -3.191999912261963)" style="cursor:default;fill:rgb(48, 48, 48);font-family:Arial, Helvetica, sans-serif;text-anchor:middle;"><path d="M1.12 3.19L1.12 3.19Q0.80 3.19 0.56 3.16Q0.32 3.13 0.15 3.09L0.15 3.09L0.15 2.15Q0.29 2.18 0.50 2.21Q0.70 2.23 0.93 2.23L0.93 2.23Q1.54 2.23 1.92 1.89Q2.29 1.54 2.51 0.97L2.51 0.97L2.89 0.03L0.01-7.13L1.26-7.13L2.81-3.07Q3.01-2.54 3.17-2.05Q3.33-1.57 3.40-1.13L3.40-1.13L3.46-1.13Q3.54-1.46 3.70-2.00Q3.87-2.54 4.07-3.09L4.07-3.09L5.52-7.13L6.78-7.13L3.71 0.98Q3.34 2.00 2.75 2.59Q2.15 3.19 1.12 3.19Z" transform="translate(4, 12.320800000000002)"/><rect x="0" y="3.192" width="14.783000000000001" height="14.320800000000002" class="clickable" style="cursor:pointer;fill:rgba(0, 0, 0, 0);fill-opacity:0;stroke-width:0px;"/></g></g></g></g></svg>