<svg xmlns="http://www.w3.org/2000/svg" id="sprotty_mux2_8" class="sprotty-graph sprotty-block-diagram blockdiagram" style="font-family:&quot;Helvetica Neue&quot;, Helvetica, Arial, sans-serif;line-height:18px;perspective-origin:0px 0px;transform-origin:0px 0px;z-index:0;" version="1.1" viewBox="9.5 12 273.9274578857422 277.75360107421875"><g transform="scale(1) translate(0,0)"><g id="sprotty_ArchitectureBlockImpl$work.mux2_8(struct)" transform="translate(12, 12)" class="architecture"><g class="sprotty-block" style="fill:rgb(245, 245, 245);stroke:rgb(48, 48, 48);stroke-dasharray:0px;"><rect x="0" y="0" rx="1" ry="1" width="267.0974578857422" height="277.75360107421875"/><path d="M64.07 16L61.83 16L60.87 12.27Q60.79 11.97 60.68 11.51Q60.56 11.06 60.44 10.56Q60.32 10.06 60.23 9.65Q60.13 9.23 60.08 9.01L60.08 9.01L60.02 9.01Q59.97 9.23 59.88 9.65Q59.78 10.06 59.67 10.57Q59.56 11.07 59.44 11.53Q59.32 11.98 59.24 12.29L59.24 12.29L58.23 16L56.02 16L53.59 7.31L55.62 7.31L56.69 11.46Q56.80 11.89 56.91 12.41Q57.01 12.93 57.08 13.42Q57.16 13.90 57.20 14.21L57.20 14.21L57.27 14.21Q57.30 13.92 57.39 13.42Q57.48 12.93 57.57 12.46Q57.67 11.98 57.73 11.74L57.73 11.74L58.98 7.31L61.19 7.31L62.39 11.74Q62.45 12.03 62.56 12.50Q62.66 12.96 62.74 13.43Q62.82 13.90 62.84 14.19L62.84 14.19L62.90 14.19Q62.93 13.94 63.01 13.46Q63.09 12.98 63.20 12.43Q63.32 11.89 63.44 11.46L63.44 11.46L64.53 7.31L66.53 7.31L64.07 16ZM75.75 11.65L75.75 11.65Q75.75 13.81 74.63 14.98Q73.51 16.16 71.59 16.16L71.59 16.16Q70.40 16.16 69.48 15.63Q68.55 15.10 68.02 14.10Q67.49 13.09 67.49 11.65L67.49 11.65Q67.49 9.49 68.60 8.33Q69.72 7.17 71.64 7.17L71.64 7.17Q72.84 7.17 73.76 7.69Q74.69 8.21 75.22 9.21Q75.75 10.21 75.75 11.65ZM69.56 11.65L69.56 11.65Q69.56 13.02 70.04 13.78Q70.53 14.53 71.62 14.53L71.62 14.53Q72.71 14.53 73.20 13.78Q73.68 13.02 73.68 11.65L73.68 11.65Q73.68 10.27 73.20 9.54Q72.71 8.80 71.60 8.80L71.60 8.80Q70.53 8.80 70.04 9.54Q69.56 10.27 69.56 11.65ZM82.37 7.17L82.37 7.17Q82.58 7.17 82.83 7.18Q83.08 7.20 83.25 7.25L83.25 7.25L83.08 9.12Q82.92 9.09 82.69 9.06Q82.47 9.04 82.29 9.04L82.29 9.04Q81.65 9.04 81.09 9.30Q80.53 9.57 80.19 10.12Q79.84 10.67 79.84 11.50L79.84 11.50L79.84 16L77.83 16L77.83 7.33L79.38 7.33L79.67 8.83L79.76 8.83Q80.15 8.14 80.82 7.66Q81.49 7.17 82.37 7.17ZM84.85 3.84L86.85 3.84L86.85 9.62Q86.85 10.03 86.82 10.50Q86.79 10.96 86.76 11.38L86.76 11.38L86.80 11.38Q87.00 11.09 87.28 10.72Q87.57 10.35 87.83 10.06L87.83 10.06L90.39 7.33L92.68 7.33L89.20 11.07L92.90 16L90.55 16L87.86 12.29L86.85 13.12L86.85 16L84.85 16L84.85 3.84ZM93.97 14.98L93.97 14.98Q93.97 14.30 94.32 14.02Q94.68 13.74 95.19 13.74L95.19 13.74Q95.68 13.74 96.05 14.02Q96.42 14.30 96.42 14.98L96.42 14.98Q96.42 15.63 96.05 15.92Q95.68 16.21 95.19 16.21L95.19 16.21Q94.68 16.21 94.32 15.92Q93.97 15.63 93.97 14.98ZM108.66 7.17L108.66 7.17Q110.13 7.17 110.88 7.92Q111.62 8.67 111.62 10.35L111.62 10.35L111.62 16L109.60 16L109.60 10.74Q109.60 8.80 108.13 8.80L108.13 8.80Q107.08 8.80 106.63 9.49Q106.18 10.18 106.18 11.49L106.18 11.49L106.18 16L104.16 16L104.16 10.74Q104.16 8.80 102.68 8.80L102.68 8.80Q101.57 8.80 101.16 9.57Q100.74 10.34 100.74 11.76L100.74 11.76L100.74 16L98.72 16L98.72 7.33L100.28 7.33L100.56 8.46L100.68 8.46Q101.06 7.79 101.76 7.48Q102.45 7.17 103.20 7.17L103.20 7.17Q104.18 7.17 104.84 7.50Q105.51 7.82 105.86 8.51L105.86 8.51L106.02 8.51Q106.42 7.81 107.14 7.49Q107.86 7.17 108.66 7.17ZM119.83 7.33L121.84 7.33L121.84 16L120.26 16L119.99 14.88L119.89 14.88Q119.46 15.55 118.73 15.86Q118.00 16.16 117.19 16.16L117.19 16.16Q115.73 16.16 114.91 15.41Q114.08 14.66 114.08 12.99L114.08 12.99L114.08 7.33L116.10 7.33L116.10 12.59Q116.10 14.53 117.70 14.53L117.70 14.53Q118.92 14.53 119.37 13.77Q119.83 13.01 119.83 11.57L119.83 11.57L119.83 7.33ZM123.28 16L126.29 11.57L123.43 7.33L125.72 7.33L127.60 10.27L129.49 7.33L131.78 7.33L128.88 11.57L131.92 16L129.64 16L127.60 12.85L125.57 16L123.28 16ZM140.60 14.26L140.60 16L132.77 16L132.77 14.51L135.68 11.57Q136.55 10.69 137.10 10.06Q137.65 9.44 137.92 8.89Q138.18 8.34 138.18 7.70L138.18 7.70Q138.18 6.91 137.73 6.52Q137.28 6.13 136.55 6.13L136.55 6.13Q135.83 6.13 135.20 6.42Q134.58 6.72 133.91 7.26L133.91 7.26L132.80 5.94Q133.51 5.33 134.40 4.87Q135.30 4.42 136.66 4.42L136.66 4.42Q137.76 4.42 138.56 4.81Q139.36 5.20 139.79 5.89Q140.21 6.58 140.21 7.49L140.21 7.49Q140.21 8.42 139.84 9.19Q139.48 9.97 138.78 10.74Q138.08 11.52 137.12 12.42L137.12 12.42L135.32 14.16L135.32 14.26L140.60 14.26ZM148.04 17.44L148.04 18.50L141.20 18.50L141.20 17.44L148.04 17.44ZM152.58 4.43L152.58 4.43Q153.57 4.43 154.38 4.74Q155.19 5.04 155.66 5.65Q156.13 6.26 156.13 7.17L156.13 7.17Q156.13 8.21 155.52 8.86Q154.92 9.52 154.04 9.97L154.04 9.97Q154.69 10.29 155.25 10.71Q155.81 11.14 156.16 11.70Q156.50 12.27 156.50 13.04L156.50 13.04Q156.50 14 156.00 14.70Q155.51 15.39 154.64 15.78Q153.76 16.16 152.60 16.16L152.60 16.16Q150.69 16.16 149.67 15.34Q148.64 14.53 148.64 13.10L148.64 13.10Q148.64 12.32 148.96 11.74Q149.27 11.15 149.78 10.74Q150.29 10.32 150.90 10.03L150.90 10.03Q150.12 9.55 149.56 8.87Q149.01 8.19 149.01 7.15L149.01 7.15Q149.01 6.26 149.50 5.65Q149.99 5.04 150.80 4.74Q151.60 4.43 152.58 4.43ZM152.56 5.95L152.56 5.95Q151.86 5.95 151.40 6.30Q150.95 6.66 150.95 7.30L150.95 7.30Q150.95 8 151.44 8.41Q151.92 8.82 152.60 9.14L152.60 9.14Q153.25 8.85 153.72 8.43Q154.20 8.02 154.20 7.30L154.20 7.30Q154.20 6.66 153.74 6.30Q153.28 5.95 152.56 5.95ZM150.56 13.01L150.56 13.01Q150.56 13.71 151.06 14.17Q151.56 14.62 152.56 14.62L152.56 14.62Q153.56 14.62 154.07 14.18Q154.58 13.73 154.58 13.01L154.58 13.01Q154.58 12.29 154.00 11.82Q153.41 11.34 152.64 10.98L152.64 10.98L152.42 10.86Q151.56 11.25 151.06 11.76Q150.56 12.27 150.56 13.01ZM157.80 11.62L157.80 11.62Q157.80 9.66 158.36 7.85Q158.93 6.03 160.15 4.58L160.15 4.58L161.86 4.58Q160.76 6.08 160.20 7.89Q159.64 9.70 159.64 11.60L159.64 11.60Q159.64 13.46 160.20 15.25Q160.76 17.04 161.84 18.53L161.84 18.53L160.15 18.53Q158.93 17.12 158.36 15.34Q157.80 13.55 157.80 11.62ZM169.54 13.49L169.54 13.49Q169.54 14.80 168.60 15.48Q167.67 16.16 165.92 16.16L165.92 16.16Q165.01 16.16 164.36 16.03Q163.72 15.90 163.11 15.63L163.11 15.63L163.11 13.92Q163.75 14.22 164.52 14.43Q165.30 14.64 165.99 14.64L165.99 14.64Q166.82 14.64 167.19 14.38Q167.56 14.13 167.56 13.70L167.56 13.70Q167.56 13.44 167.41 13.24Q167.27 13.04 166.84 12.80Q166.42 12.56 165.59 12.21L165.59 12.21Q164.76 11.89 164.20 11.54Q163.65 11.20 163.37 10.74Q163.09 10.27 163.09 9.54L163.09 9.54Q163.09 8.37 164.01 7.77Q164.93 7.17 166.47 7.17L166.47 7.17Q167.27 7.17 167.98 7.33Q168.69 7.49 169.41 7.81L169.41 7.81L168.77 9.30Q168.16 9.04 167.59 8.86Q167.01 8.69 166.40 8.69L166.40 8.69Q165.08 8.69 165.08 9.44L165.08 9.44Q165.08 9.71 165.24 9.90Q165.41 10.10 165.84 10.31Q166.26 10.53 167.04 10.83L167.04 10.83Q167.81 11.14 168.37 11.46Q168.93 11.79 169.24 12.27Q169.54 12.75 169.54 13.49ZM174.84 14.54L174.84 14.54Q175.20 14.54 175.56 14.47Q175.92 14.40 176.23 14.30L176.23 14.30L176.23 15.81Q175.91 15.95 175.40 16.06Q174.88 16.16 174.32 16.16L174.32 16.16Q173.59 16.16 172.98 15.91Q172.37 15.66 172.02 15.06Q171.67 14.45 171.67 13.36L171.67 13.36L171.67 8.85L170.50 8.85L170.50 7.97L171.78 7.26L172.42 5.42L173.68 5.42L173.68 7.33L176.15 7.33L176.15 8.85L173.68 8.85L173.68 13.34Q173.68 13.95 174.00 14.25Q174.32 14.54 174.84 14.54ZM182.52 7.17L182.52 7.17Q182.72 7.17 182.97 7.18Q183.22 7.20 183.40 7.25L183.40 7.25L183.22 9.12Q183.06 9.09 182.84 9.06Q182.61 9.04 182.44 9.04L182.44 9.04Q181.80 9.04 181.24 9.30Q180.68 9.57 180.33 10.12Q179.99 10.67 179.99 11.50L179.99 11.50L179.99 16L177.97 16L177.97 7.33L179.52 7.33L179.81 8.83L179.91 8.83Q180.29 8.14 180.96 7.66Q181.64 7.17 182.52 7.17ZM190.68 7.33L192.69 7.33L192.69 16L191.11 16L190.84 14.88L190.74 14.88Q190.31 15.55 189.58 15.86Q188.85 16.16 188.04 16.16L188.04 16.16Q186.58 16.16 185.76 15.41Q184.93 14.66 184.93 12.99L184.93 12.99L184.93 7.33L186.95 7.33L186.95 12.59Q186.95 14.53 188.55 14.53L188.55 14.53Q189.76 14.53 190.22 13.77Q190.68 13.01 190.68 11.57L190.68 11.57L190.68 7.33ZM198.77 16.16L198.77 16.16Q196.90 16.16 195.83 15.09Q194.76 14.02 194.76 11.71L194.76 11.71Q194.76 10.11 195.29 9.11Q195.83 8.11 196.77 7.64Q197.72 7.17 198.93 7.17L198.93 7.17Q199.75 7.17 200.39 7.33Q201.03 7.49 201.48 7.71L201.48 7.71L200.88 9.30Q200.39 9.10 199.89 8.97Q199.40 8.83 198.93 8.83L198.93 8.83Q196.82 8.83 196.82 11.70L196.82 11.70Q196.82 13.09 197.36 13.79Q197.89 14.50 198.90 14.50L198.90 14.50Q199.62 14.50 200.18 14.32Q200.74 14.14 201.25 13.84L201.25 13.84L201.25 15.58Q200.76 15.87 200.19 16.02Q199.62 16.16 198.77 16.16ZM206.64 14.54L206.64 14.54Q207.01 14.54 207.37 14.47Q207.73 14.40 208.04 14.30L208.04 14.30L208.04 15.81Q207.72 15.95 207.20 16.06Q206.69 16.16 206.13 16.16L206.13 16.16Q205.40 16.16 204.79 15.91Q204.18 15.66 203.83 15.06Q203.48 14.45 203.48 13.36L203.48 13.36L203.48 8.85L202.31 8.85L202.31 7.97L203.59 7.26L204.23 5.42L205.49 5.42L205.49 7.33L207.96 7.33L207.96 8.85L205.49 8.85L205.49 13.34Q205.49 13.95 205.81 14.25Q206.13 14.54 206.64 14.54ZM213.03 11.62L213.03 11.62Q213.03 13.55 212.46 15.34Q211.89 17.12 210.68 18.53L210.68 18.53L208.98 18.53Q210.07 17.04 210.64 15.25Q211.20 13.46 211.20 11.60L211.20 11.60Q211.20 9.70 210.64 7.89Q210.07 6.08 208.96 4.58L208.96 4.58L210.68 4.58Q211.89 6.03 212.46 7.85Q213.03 9.66 213.03 11.62Z" class="sprotty-block-name" style="fill:rgb(48, 48, 48);stroke:rgba(0, 0, 0, 0);"/><line x1="0" y1="20" x2="267.0974578857422" y2="20"/></g><g id="sprotty_ArchitectureBlockImpl$work.mux2_8(struct)/GPortImpl$d0_to_ArchitectureBlockImpl$work.mux2_8(struct)/InstantiationBlockImpl$lsbmux/BPortImpl$d0" class="sprotty-edge thick edge" style="fill:none;stroke:rgb(112, 112, 112);stroke-linejoin:round;stroke-width:3px;"><path d="M 0 71.12050008773804 L 69.78709983825684 71.12050008773804 C 70.78709983825684 71.12050008773804 71.78709983825684 72.12050008773804 71.78709983825684 73.12050008773804 L 71.78709983825684 195.9973006248474 C 71.78709983825684 196.9973006248474 72.78709983825684 197.9973006248474 73.78709983825684 197.9973006248474 L 84.49510955810547 197.9973006248474 "/></g><g id="sprotty_ArchitectureBlockImpl$work.mux2_8(struct)/GPortImpl$d0_to_ArchitectureBlockImpl$work.mux2_8(struct)/InstantiationBlockImpl$msbmux/BPortImpl$d0" class="sprotty-edge thick edge" style="fill:none;stroke:rgb(112, 112, 112);stroke-linejoin:round;stroke-width:3px;"><path d="M 0 71.12050008773804 L 69.78709983825684 71.12050008773804 C 70.78709983825684 71.12050008773804 71.78709983825684 72.12050008773804 71.78709983825684 73.12050008773804 L 71.78709983825684 73.12050008773804 C 71.78709983825684 73.62050008773804 72.78709983825684 74.12050008773804 73.78709983825684 74.12050008773804 L 81.78710174560547 74.12050008773804 "/><circle r="3" id="sprotty_ArchitectureBlockImpl$work.mux2_8(struct)/GPortImpl$d0_to_ArchitectureBlockImpl$work.mux2_8(struct)/InstantiationBlockImpl$msbmux/BPortImpl$d0/junction0" transform="translate(71.78709983825684, 74.12050008773804)" class="sprotty-junction thick" style="fill:rgb(112, 112, 112);stroke:none;"/></g><g id="sprotty_ArchitectureBlockImpl$work.mux2_8(struct)/GPortImpl$d1_to_ArchitectureBlockImpl$work.mux2_8(struct)/InstantiationBlockImpl$lsbmux/BPortImpl$d1" class="sprotty-edge thick edge" style="fill:none;stroke:rgb(112, 112, 112);stroke-linejoin:round;stroke-width:3px;"><path d="M 0 98.36150026321411 L 59.787099838256836 98.36150026321411 C 60.787099838256836 98.36150026321411 61.787099838256836 99.36150026321411 61.787099838256836 100.36150026321411 L 61.787099838256836 220.2383008003235 C 61.787099838256836 221.2383008003235 62.787099838256836 222.2383008003235 63.787099838256836 222.2383008003235 L 84.49510955810547 222.2383008003235 "/><circle r="3" id="sprotty_ArchitectureBlockImpl$work.mux2_8(struct)/GPortImpl$d1_to_ArchitectureBlockImpl$work.mux2_8(struct)/InstantiationBlockImpl$lsbmux/BPortImpl$d1/junction0" transform="translate(61.787099838256836, 98.36150026321411)" class="sprotty-junction thick" style="fill:rgb(112, 112, 112);stroke:none;"/></g><g id="sprotty_ArchitectureBlockImpl$work.mux2_8(struct)/GPortImpl$d1_to_ArchitectureBlockImpl$work.mux2_8(struct)/InstantiationBlockImpl$msbmux/BPortImpl$d1" class="sprotty-edge thick edge" style="fill:none;stroke:rgb(112, 112, 112);stroke-linejoin:round;stroke-width:3px;"><path d="M 0 98.36150026321411 L 81.78710174560547 98.36150026321411 "/></g><g id="sprotty_ArchitectureBlockImpl$work.mux2_8(struct)/GPortImpl$s_to_ArchitectureBlockImpl$work.mux2_8(struct)/InstantiationBlockImpl$lsbmux/BPortImpl$s" class="sprotty-edge edge" style="fill:none;stroke:rgb(112, 112, 112);stroke-linejoin:round;"><path d="M 0 125.60250043869019 L 49.787099838256836 125.60250043869019 C 50.787099838256836 125.60250043869019 51.787099838256836 126.60250043869019 51.787099838256836 127.60250043869019 L 51.787099838256836 243.05620098114014 C 51.787099838256836 244.05620098114014 52.787099838256836 245.05620098114014 53.787099838256836 245.05620098114014 L 84.49510955810547 245.05620098114014 "/><circle r="2" id="sprotty_ArchitectureBlockImpl$work.mux2_8(struct)/GPortImpl$s_to_ArchitectureBlockImpl$work.mux2_8(struct)/InstantiationBlockImpl$lsbmux/BPortImpl$s/junction0" transform="translate(51.787099838256836, 125.60250043869019)" class="sprotty-junction junction" style="fill:rgb(112, 112, 112);stroke:none;"/></g><g id="sprotty_ArchitectureBlockImpl$work.mux2_8(struct)/GPortImpl$s_to_ArchitectureBlockImpl$work.mux2_8(struct)/InstantiationBlockImpl$msbmux/BPortImpl$s" class="sprotty-edge edge" style="fill:none;stroke:rgb(112, 112, 112);stroke-linejoin:round;"><path d="M 0 125.60250043869019 L 49.787099838256836 125.60250043869019 C 50.787099838256836 125.60250043869019 51.787099838256836 124.60250043869019 51.787099838256836 123.60250043869019 L 51.787099838256836 123.17940044403076 C 51.787099838256836 122.17940044403076 52.787099838256836 121.17940044403076 53.787099838256836 121.17940044403076 L 81.78710174560547 121.17940044403076 "/></g><g id="sprotty_ArchitectureBlockImpl$work.mux2_8(struct)/InstantiationBlockImpl$lsbmux/BPortImpl$y_to_ArchitectureBlockImpl$work.mux2_8(struct)/GPortImpl$y" class="sprotty-edge thick edge" style="fill:none;stroke:rgb(112, 112, 112);stroke-linejoin:round;stroke-width:3px;"><path d="M 206.19042205810547 220.81520080566406 L 222.314453125 220.81520080566406 C 223.314453125 220.81520080566406 224.314453125 219.81520080566406 224.314453125 218.81520080566406 L 224.314453125 98.93840026855469 C 224.314453125 97.93840026855469 225.314453125 96.93840026855469 226.314453125 96.93840026855469 L 267.0974578857422 96.93840026855469 "/><circle r="3" id="sprotty_ArchitectureBlockImpl$work.mux2_8(struct)/InstantiationBlockImpl$lsbmux/BPortImpl$y_to_ArchitectureBlockImpl$work.mux2_8(struct)/GPortImpl$y/junction0" transform="translate(224.314453125, 96.93840026855469)" class="sprotty-junction thick" style="fill:rgb(112, 112, 112);stroke:none;"/></g><g id="sprotty_ArchitectureBlockImpl$work.mux2_8(struct)/InstantiationBlockImpl$msbmux/BPortImpl$y_to_ArchitectureBlockImpl$work.mux2_8(struct)/GPortImpl$y" class="sprotty-edge thick edge" style="fill:none;stroke:rgb(112, 112, 112);stroke-linejoin:round;stroke-width:3px;"><path d="M 214.31444549560547 96.93840026855469 L 267.0974578857422 96.93840026855469 "/></g><g id="sprotty_ArchitectureBlockImpl$work.mux2_8(struct)/InstantiationBlockImpl$msbmux" transform="translate(81.78710174560547, 35)" class="instantiation"><g class="sprotty-block" style="fill:rgb(245, 245, 245);stroke:rgb(48, 48, 48);stroke-dasharray:0px;"><rect x="0" y="0" rx="1" ry="1" width="132.52800000000002" height="103.87680053710938"/><path d="M15.23 7.17L15.23 7.17Q16.70 7.17 17.45 7.92Q18.19 8.67 18.19 10.35L18.19 10.35L18.19 16L16.18 16L16.18 10.74Q16.18 8.80 14.70 8.80L14.70 8.80Q13.65 8.80 13.20 9.49Q12.75 10.18 12.75 11.49L12.75 11.49L12.75 16L10.74 16L10.74 10.74Q10.74 8.80 9.25 8.80L9.25 8.80Q8.14 8.80 7.73 9.57Q7.31 10.34 7.31 11.76L7.31 11.76L7.31 16L5.30 16L5.30 7.33L6.85 7.33L7.14 8.46L7.25 8.46Q7.63 7.79 8.33 7.48Q9.02 7.17 9.78 7.17L9.78 7.17Q10.75 7.17 11.42 7.50Q12.08 7.82 12.43 8.51L12.43 8.51L12.59 8.51Q12.99 7.81 13.71 7.49Q14.43 7.17 15.23 7.17ZM26.62 13.49L26.62 13.49Q26.62 14.80 25.69 15.48Q24.75 16.16 23.01 16.16L23.01 16.16Q22.10 16.16 21.45 16.03Q20.80 15.90 20.19 15.63L20.19 15.63L20.19 13.92Q20.83 14.22 21.61 14.43Q22.38 14.64 23.07 14.64L23.07 14.64Q23.90 14.64 24.27 14.38Q24.64 14.13 24.64 13.70L24.64 13.70Q24.64 13.44 24.50 13.24Q24.35 13.04 23.93 12.80Q23.50 12.56 22.67 12.21L22.67 12.21Q21.84 11.89 21.29 11.54Q20.74 11.20 20.46 10.74Q20.18 10.27 20.18 9.54L20.18 9.54Q20.18 8.37 21.10 7.77Q22.02 7.17 23.55 7.17L23.55 7.17Q24.35 7.17 25.06 7.33Q25.78 7.49 26.50 7.81L26.50 7.81L25.86 9.30Q25.25 9.04 24.67 8.86Q24.10 8.69 23.49 8.69L23.49 8.69Q22.16 8.69 22.16 9.44L22.16 9.44Q22.16 9.71 22.33 9.90Q22.50 10.10 22.92 10.31Q23.34 10.53 24.13 10.83L24.13 10.83Q24.90 11.14 25.46 11.46Q26.02 11.79 26.32 12.27Q26.62 12.75 26.62 13.49ZM28.56 3.84L30.58 3.84L30.58 6.72Q30.58 7.23 30.54 7.71Q30.51 8.19 30.48 8.46L30.48 8.46L30.58 8.46Q30.93 7.92 31.54 7.54Q32.14 7.17 33.12 7.17L33.12 7.17Q34.62 7.17 35.56 8.30Q36.50 9.44 36.50 11.65L36.50 11.65Q36.50 13.89 35.55 15.02Q34.61 16.16 33.07 16.16L33.07 16.16Q32.10 16.16 31.51 15.81Q30.93 15.46 30.58 14.99L30.58 14.99L30.43 14.99L30.06 16L28.56 16L28.56 3.84ZM32.54 8.80L32.54 8.80Q31.46 8.80 31.02 9.46Q30.59 10.11 30.58 11.47L30.58 11.47L30.58 11.65Q30.58 13.04 31.00 13.78Q31.42 14.51 32.58 14.51L32.58 14.51Q33.47 14.51 33.95 13.77Q34.43 13.02 34.43 11.63L34.43 11.63Q34.43 10.21 33.94 9.50Q33.46 8.80 32.54 8.80ZM48.51 7.17L48.51 7.17Q49.98 7.17 50.73 7.92Q51.47 8.67 51.47 10.35L51.47 10.35L51.47 16L49.46 16L49.46 10.74Q49.46 8.80 47.98 8.80L47.98 8.80Q46.93 8.80 46.48 9.49Q46.03 10.18 46.03 11.49L46.03 11.49L46.03 16L44.02 16L44.02 10.74Q44.02 8.80 42.53 8.80L42.53 8.80Q41.42 8.80 41.01 9.57Q40.59 10.34 40.59 11.76L40.59 11.76L40.59 16L38.58 16L38.58 7.33L40.13 7.33L40.42 8.46L40.53 8.46Q40.91 7.79 41.61 7.48Q42.30 7.17 43.06 7.17L43.06 7.17Q44.03 7.17 44.70 7.50Q45.36 7.82 45.71 8.51L45.71 8.51L45.87 8.51Q46.27 7.81 46.99 7.49Q47.71 7.17 48.51 7.17ZM59.68 7.33L61.70 7.33L61.70 16L60.11 16L59.84 14.88L59.74 14.88Q59.31 15.55 58.58 15.86Q57.86 16.16 57.04 16.16L57.04 16.16Q55.58 16.16 54.76 15.41Q53.94 14.66 53.94 12.99L53.94 12.99L53.94 7.33L55.95 7.33L55.95 12.59Q55.95 14.53 57.55 14.53L57.55 14.53Q58.77 14.53 59.22 13.77Q59.68 13.01 59.68 11.57L59.68 11.57L59.68 7.33ZM63.14 16L66.14 11.57L63.28 7.33L65.57 7.33L67.46 10.27L69.34 7.33L71.63 7.33L68.74 11.57L71.78 16L69.49 16L67.46 12.85L65.42 16L63.14 16ZM77.10 8.38L77.10 8.38Q77.10 7.70 77.46 7.42Q77.81 7.14 78.32 7.14L78.32 7.14Q78.82 7.14 79.18 7.42Q79.55 7.70 79.55 8.38L79.55 8.38Q79.55 9.04 79.18 9.33Q78.82 9.62 78.32 9.62L78.32 9.62Q77.81 9.62 77.46 9.33Q77.10 9.04 77.10 8.38ZM77.10 14.98L77.10 14.98Q77.10 14.30 77.46 14.02Q77.81 13.74 78.32 13.74L78.32 13.74Q78.82 13.74 79.18 14.02Q79.55 14.30 79.55 14.98L79.55 14.98Q79.55 15.63 79.18 15.92Q78.82 16.21 78.32 16.21L78.32 16.21Q77.81 16.21 77.46 15.92Q77.10 15.63 77.10 14.98ZM95.95 7.17L95.95 7.17Q97.42 7.17 98.17 7.92Q98.91 8.67 98.91 10.35L98.91 10.35L98.91 16L96.90 16L96.90 10.74Q96.90 8.80 95.42 8.80L95.42 8.80Q94.37 8.80 93.92 9.49Q93.47 10.18 93.47 11.49L93.47 11.49L93.47 16L91.46 16L91.46 10.74Q91.46 8.80 89.97 8.80L89.97 8.80Q88.86 8.80 88.45 9.57Q88.03 10.34 88.03 11.76L88.03 11.76L88.03 16L86.02 16L86.02 7.33L87.57 7.33L87.86 8.46L87.97 8.46Q88.35 7.79 89.05 7.48Q89.74 7.17 90.50 7.17L90.50 7.17Q91.47 7.17 92.14 7.50Q92.80 7.82 93.15 8.51L93.15 8.51L93.31 8.51Q93.71 7.81 94.43 7.49Q95.15 7.17 95.95 7.17ZM107.12 7.33L109.14 7.33L109.14 16L107.55 16L107.28 14.88L107.18 14.88Q106.75 15.55 106.02 15.86Q105.30 16.16 104.48 16.16L104.48 16.16Q103.02 16.16 102.20 15.41Q101.38 14.66 101.38 12.99L101.38 12.99L101.38 7.33L103.39 7.33L103.39 12.59Q103.39 14.53 104.99 14.53L104.99 14.53Q106.21 14.53 106.66 13.77Q107.12 13.01 107.12 11.57L107.12 11.57L107.12 7.33ZM110.58 16L113.58 11.57L110.72 7.33L113.01 7.33L114.90 10.27L116.78 7.33L119.07 7.33L116.18 11.57L119.22 16L116.93 16L114.90 12.85L112.86 16L110.58 16ZM127.89 14.26L127.89 16L120.06 16L120.06 14.51L122.98 11.57Q123.84 10.69 124.39 10.06Q124.94 9.44 125.21 8.89Q125.47 8.34 125.47 7.70L125.47 7.70Q125.47 6.91 125.02 6.52Q124.58 6.13 123.84 6.13L123.84 6.13Q123.12 6.13 122.50 6.42Q121.87 6.72 121.20 7.26L121.20 7.26L120.10 5.94Q120.80 5.33 121.70 4.87Q122.59 4.42 123.95 4.42L123.95 4.42Q125.06 4.42 125.86 4.81Q126.66 5.20 127.08 5.89Q127.50 6.58 127.50 7.49L127.50 7.49Q127.50 8.42 127.14 9.19Q126.77 9.97 126.07 10.74Q125.38 11.52 124.42 12.42L124.42 12.42L122.61 14.16L122.61 14.26L127.89 14.26Z" class="sprotty-block-name" style="fill:rgb(48, 48, 48);stroke:rgba(0, 0, 0, 0);"/><line x1="0" y1="20" x2="132.52800000000002" y2="20"/></g><g id="sprotty_ArchitectureBlockImpl$work.mux2_8(struct)/InstantiationBlockImpl$msbmux/BPortImpl$s" transform="translate(0, 86.17940044403076)" class="triangle"><path d="M 0,0 L 5,2.5 L 0,5 Z" transform="translate(-1.67, -2.5)" class="sprotty-port" style="fill:rgb(48, 48, 48);stroke:rgb(48, 48, 48);"/><g class="port sprotty-label" id="sprotty_ArchitectureBlockImpl$work.mux2_8(struct)/InstantiationBlockImpl$msbmux/BPortImpl$s/label" transform="translate(3, -5.697400093078613) translate(0, -0.13300000131130219)" style="cursor:default;fill:rgb(48, 48, 48);font-family:Arial, Helvetica, sans-serif;text-anchor:middle;"><path d="M2.93 0.13L2.93 0.13Q2.18 0.13 1.64 0.01Q1.10-0.11 0.69-0.32L0.69-0.32L0.69-1.38Q1.12-1.17 1.72-0.99Q2.33-0.81 2.95-0.81L2.95-0.81Q3.84-0.81 4.24-1.10Q4.64-1.38 4.64-1.86L4.64-1.86Q4.64-2.13 4.50-2.34Q4.35-2.55 3.97-2.77Q3.59-2.98 2.89-3.25L2.89-3.25Q2.19-3.51 1.70-3.78Q1.21-4.04 0.94-4.42Q0.68-4.79 0.68-5.37L0.68-5.37Q0.68-6.28 1.42-6.77Q2.15-7.26 3.35-7.26L3.35-7.26Q4.00-7.26 4.57-7.14Q5.13-7.01 5.63-6.78L5.63-6.78L5.23-5.85Q4.77-6.04 4.28-6.17Q3.79-6.30 3.27-6.30L3.27-6.30Q2.55-6.30 2.17-6.07Q1.80-5.84 1.80-5.44L1.80-5.44Q1.80-5.15 1.97-4.94Q2.14-4.73 2.55-4.54Q2.95-4.35 3.63-4.08L3.63-4.08Q4.31-3.83 4.79-3.56Q5.27-3.29 5.52-2.91Q5.77-2.54 5.77-1.97L5.77-1.97Q5.77-0.93 5.00-0.40Q4.23 0.13 2.93 0.13Z" transform="translate(4, 9.3948)"/><rect x="0" y="0.133" width="14.3707" height="11.3948" class="clickable" style="cursor:pointer;fill:rgba(0, 0, 0, 0);fill-opacity:0;stroke-width:0px;"/></g></g><g id="sprotty_ArchitectureBlockImpl$work.mux2_8(struct)/InstantiationBlockImpl$msbmux/BPortImpl$d1" transform="translate(0, 63.36150026321411)" class="triangle"><path d="M 0,0 L 5,2.5 L 0,5 Z" transform="translate(-1.67, -2.5)" class="sprotty-port" style="fill:rgb(48, 48, 48);stroke:rgb(48, 48, 48);"/><g class="port sprotty-label" id="sprotty_ArchitectureBlockImpl$work.mux2_8(struct)/InstantiationBlockImpl$msbmux/BPortImpl$d1/label" transform="translate(3, -7.120500087738037) translate(0, -0.13300000131130219)" style="cursor:default;fill:rgb(48, 48, 48);font-family:Arial, Helvetica, sans-serif;text-anchor:middle;"><path d="M3.66 0.13L3.66 0.13Q2.33 0.13 1.53-0.79Q0.73-1.72 0.73-3.55L0.73-3.55Q0.73-5.39 1.54-6.32Q2.34-7.26 3.67-7.26L3.67-7.26Q4.50-7.26 5.02-6.96Q5.55-6.65 5.88-6.21L5.88-6.21L5.96-6.21Q5.95-6.38 5.91-6.72Q5.88-7.06 5.88-7.26L5.88-7.26L5.88-10.11L7.05-10.11L7.05 0L6.10 0L5.93-0.96L5.88-0.96Q5.56-0.51 5.03-0.19Q4.50 0.13 3.66 0.13ZM3.84-0.84L3.84-0.84Q4.97-0.84 5.43-1.46Q5.89-2.07 5.89-3.33L5.89-3.33L5.89-3.54Q5.89-4.87 5.45-5.58Q5.01-6.29 3.83-6.29L3.83-6.29Q2.89-6.29 2.41-5.54Q1.94-4.79 1.94-3.52L1.94-3.52Q1.94-2.25 2.41-1.54Q2.89-0.84 3.84-0.84ZM12.90 0L11.76 0L11.76-6.64Q11.76-7.21 11.77-7.55Q11.78-7.90 11.81-8.27L11.81-8.27Q11.60-8.07 11.42-7.92Q11.25-7.77 10.99-7.54L10.99-7.54L9.98-6.72L9.36-7.50L11.93-9.50L12.90-9.50L12.90 0Z" transform="translate(4, 12.241)"/><rect x="0" y="0.133" width="23.787100000000002" height="14.241" class="clickable" style="cursor:pointer;fill:rgba(0, 0, 0, 0);fill-opacity:0;stroke-width:0px;"/></g></g><g id="sprotty_ArchitectureBlockImpl$work.mux2_8(struct)/InstantiationBlockImpl$msbmux/BPortImpl$d0" transform="translate(0, 39.12050008773804)" class="triangle"><path d="M 0,0 L 5,2.5 L 0,5 Z" transform="translate(-1.67, -2.5)" class="sprotty-port" style="fill:rgb(48, 48, 48);stroke:rgb(48, 48, 48);"/><g class="port sprotty-label" id="sprotty_ArchitectureBlockImpl$work.mux2_8(struct)/InstantiationBlockImpl$msbmux/BPortImpl$d0/label" transform="translate(3, -7.120500087738037) translate(0, -0.13300000131130219)" style="cursor:default;fill:rgb(48, 48, 48);font-family:Arial, Helvetica, sans-serif;text-anchor:middle;"><path d="M3.66 0.13L3.66 0.13Q2.33 0.13 1.53-0.79Q0.73-1.72 0.73-3.55L0.73-3.55Q0.73-5.39 1.54-6.32Q2.34-7.26 3.67-7.26L3.67-7.26Q4.50-7.26 5.02-6.96Q5.55-6.65 5.88-6.21L5.88-6.21L5.96-6.21Q5.95-6.38 5.91-6.72Q5.88-7.06 5.88-7.26L5.88-7.26L5.88-10.11L7.05-10.11L7.05 0L6.10 0L5.93-0.96L5.88-0.96Q5.56-0.51 5.03-0.19Q4.50 0.13 3.66 0.13ZM3.84-0.84L3.84-0.84Q4.97-0.84 5.43-1.46Q5.89-2.07 5.89-3.33L5.89-3.33L5.89-3.54Q5.89-4.87 5.45-5.58Q5.01-6.29 3.83-6.29L3.83-6.29Q2.89-6.29 2.41-5.54Q1.94-4.79 1.94-3.52L1.94-3.52Q1.94-2.25 2.41-1.54Q2.89-0.84 3.84-0.84ZM11.97 0.13L11.97 0.13Q10.36 0.13 9.60-1.16Q8.83-2.46 8.83-4.76L8.83-4.76Q8.83-6.30 9.14-7.39Q9.46-8.49 10.15-9.06Q10.84-9.64 11.97-9.64L11.97-9.64Q13.57-9.64 14.35-8.36Q15.14-7.08 15.14-4.76L15.14-4.76Q15.14-3.23 14.82-2.13Q14.50-1.04 13.81-0.45Q13.11 0.13 11.97 0.13ZM11.97-0.86L11.97-0.86Q13.03-0.86 13.49-1.83Q13.95-2.79 13.95-4.76L13.95-4.76Q13.95-6.70 13.49-7.67Q13.03-8.65 11.97-8.65L11.97-8.65Q10.89-8.65 10.45-7.67Q10.00-6.70 10.00-4.76L10.00-4.76Q10.00-2.81 10.45-1.84Q10.89-0.86 11.97-0.86Z" transform="translate(4, 12.241)"/><rect x="0" y="0.133" width="23.787100000000002" height="14.241" class="clickable" style="cursor:pointer;fill:rgba(0, 0, 0, 0);fill-opacity:0;stroke-width:0px;"/></g></g><g id="sprotty_ArchitectureBlockImpl$work.mux2_8(struct)/InstantiationBlockImpl$msbmux/BPortImpl$y" transform="translate(132.52734375, 61.93840026855469)" class="triangle"><path d="M 0,0 L 5,2.5 L 0,5 Z" transform="translate(-1.67, -2.5)" class="sprotty-port" style="fill:rgb(48, 48, 48);stroke:rgb(48, 48, 48);"/><g class="port sprotty-label" id="sprotty_ArchitectureBlockImpl$work.mux2_8(struct)/InstantiationBlockImpl$msbmux/BPortImpl$y/label" transform="translate(-17.782999992370605, -7.160400390625) translate(0, -3.191999912261963)" style="cursor:default;fill:rgb(48, 48, 48);font-family:Arial, Helvetica, sans-serif;text-anchor:middle;"><path d="M1.12 3.19L1.12 3.19Q0.80 3.19 0.56 3.16Q0.32 3.13 0.15 3.09L0.15 3.09L0.15 2.15Q0.29 2.18 0.50 2.21Q0.70 2.23 0.93 2.23L0.93 2.23Q1.54 2.23 1.92 1.89Q2.29 1.54 2.51 0.97L2.51 0.97L2.89 0.03L0.01-7.13L1.26-7.13L2.81-3.07Q3.01-2.54 3.17-2.05Q3.33-1.57 3.40-1.13L3.40-1.13L3.46-1.13Q3.54-1.46 3.70-2.00Q3.87-2.54 4.07-3.09L4.07-3.09L5.52-7.13L6.78-7.13L3.71 0.98Q3.34 2.00 2.75 2.59Q2.15 3.19 1.12 3.19Z" transform="translate(4, 12.320800000000002)"/><rect x="0" y="3.192" width="14.783000000000001" height="14.320800000000002" class="clickable" style="cursor:pointer;fill:rgba(0, 0, 0, 0);fill-opacity:0;stroke-width:0px;"/></g></g></g><g id="sprotty_ArchitectureBlockImpl$work.mux2_8(struct)/InstantiationBlockImpl$lsbmux" transform="translate(84.49510955810547, 158.87680053710938)" class="instantiation"><g class="sprotty-block" style="fill:rgb(245, 245, 245);stroke:rgb(48, 48, 48);stroke-dasharray:0px;"><rect x="0" y="0" rx="1" ry="1" width="121.69599999999998" height="103.87680053710938"/><path d="M7.31 3.84L7.31 16L5.30 16L5.30 3.84L7.31 3.84ZM15.79 13.49L15.79 13.49Q15.79 14.80 14.86 15.48Q13.92 16.16 12.18 16.16L12.18 16.16Q11.26 16.16 10.62 16.03Q9.97 15.90 9.36 15.63L9.36 15.63L9.36 13.92Q10 14.22 10.78 14.43Q11.55 14.64 12.24 14.64L12.24 14.64Q13.07 14.64 13.44 14.38Q13.81 14.13 13.81 13.70L13.81 13.70Q13.81 13.44 13.66 13.24Q13.52 13.04 13.10 12.80Q12.67 12.56 11.84 12.21L11.84 12.21Q11.01 11.89 10.46 11.54Q9.90 11.20 9.62 10.74Q9.34 10.27 9.34 9.54L9.34 9.54Q9.34 8.37 10.26 7.77Q11.18 7.17 12.72 7.17L12.72 7.17Q13.52 7.17 14.23 7.33Q14.94 7.49 15.66 7.81L15.66 7.81L15.02 9.30Q14.42 9.04 13.84 8.86Q13.26 8.69 12.66 8.69L12.66 8.69Q11.33 8.69 11.33 9.44L11.33 9.44Q11.33 9.71 11.50 9.90Q11.66 10.10 12.09 10.31Q12.51 10.53 13.30 10.83L13.30 10.83Q14.06 11.14 14.62 11.46Q15.18 11.79 15.49 12.27Q15.79 12.75 15.79 13.49ZM17.73 3.84L19.74 3.84L19.74 6.72Q19.74 7.23 19.71 7.71Q19.68 8.19 19.65 8.46L19.65 8.46L19.74 8.46Q20.10 7.92 20.70 7.54Q21.31 7.17 22.29 7.17L22.29 7.17Q23.79 7.17 24.73 8.30Q25.66 9.44 25.66 11.65L25.66 11.65Q25.66 13.89 24.72 15.02Q23.78 16.16 22.24 16.16L22.24 16.16Q21.26 16.16 20.68 15.81Q20.10 15.46 19.74 14.99L19.74 14.99L19.60 14.99L19.23 16L17.73 16L17.73 3.84ZM21.71 8.80L21.71 8.80Q20.62 8.80 20.19 9.46Q19.76 10.11 19.74 11.47L19.74 11.47L19.74 11.65Q19.74 13.04 20.17 13.78Q20.59 14.51 21.74 14.51L21.74 14.51Q22.64 14.51 23.12 13.77Q23.60 13.02 23.60 11.63L23.60 11.63Q23.60 10.21 23.11 9.50Q22.62 8.80 21.71 8.80ZM37.68 7.17L37.68 7.17Q39.15 7.17 39.90 7.92Q40.64 8.67 40.64 10.35L40.64 10.35L40.64 16L38.62 16L38.62 10.74Q38.62 8.80 37.15 8.80L37.15 8.80Q36.10 8.80 35.65 9.49Q35.20 10.18 35.20 11.49L35.20 11.49L35.20 16L33.18 16L33.18 10.74Q33.18 8.80 31.70 8.80L31.70 8.80Q30.59 8.80 30.18 9.57Q29.76 10.34 29.76 11.76L29.76 11.76L29.76 16L27.74 16L27.74 7.33L29.30 7.33L29.58 8.46L29.70 8.46Q30.08 7.79 30.78 7.48Q31.47 7.17 32.22 7.17L32.22 7.17Q33.20 7.17 33.86 7.50Q34.53 7.82 34.88 8.51L34.88 8.51L35.04 8.51Q35.44 7.81 36.16 7.49Q36.88 7.17 37.68 7.17ZM48.85 7.33L50.86 7.33L50.86 16L49.28 16L49.01 14.88L48.91 14.88Q48.48 15.55 47.75 15.86Q47.02 16.16 46.21 16.16L46.21 16.16Q44.75 16.16 43.93 15.41Q43.10 14.66 43.10 12.99L43.10 12.99L43.10 7.33L45.12 7.33L45.12 12.59Q45.12 14.53 46.72 14.53L46.72 14.53Q47.94 14.53 48.39 13.77Q48.85 13.01 48.85 11.57L48.85 11.57L48.85 7.33ZM52.30 16L55.31 11.57L52.45 7.33L54.74 7.33L56.62 10.27L58.51 7.33L60.80 7.33L57.90 11.57L60.94 16L58.66 16L56.62 12.85L54.59 16L52.30 16ZM66.27 8.38L66.27 8.38Q66.27 7.70 66.62 7.42Q66.98 7.14 67.49 7.14L67.49 7.14Q67.98 7.14 68.35 7.42Q68.72 7.70 68.72 8.38L68.72 8.38Q68.72 9.04 68.35 9.33Q67.98 9.62 67.49 9.62L67.49 9.62Q66.98 9.62 66.62 9.33Q66.27 9.04 66.27 8.38ZM66.27 14.98L66.27 14.98Q66.27 14.30 66.62 14.02Q66.98 13.74 67.49 13.74L67.49 13.74Q67.98 13.74 68.35 14.02Q68.72 14.30 68.72 14.98L68.72 14.98Q68.72 15.63 68.35 15.92Q67.98 16.21 67.49 16.21L67.49 16.21Q66.98 16.21 66.62 15.92Q66.27 15.63 66.27 14.98ZM85.12 7.17L85.12 7.17Q86.59 7.17 87.34 7.92Q88.08 8.67 88.08 10.35L88.08 10.35L88.08 16L86.06 16L86.06 10.74Q86.06 8.80 84.59 8.80L84.59 8.80Q83.54 8.80 83.09 9.49Q82.64 10.18 82.64 11.49L82.64 11.49L82.64 16L80.62 16L80.62 10.74Q80.62 8.80 79.14 8.80L79.14 8.80Q78.03 8.80 77.62 9.57Q77.20 10.34 77.20 11.76L77.20 11.76L77.20 16L75.18 16L75.18 7.33L76.74 7.33L77.02 8.46L77.14 8.46Q77.52 7.79 78.22 7.48Q78.91 7.17 79.66 7.17L79.66 7.17Q80.64 7.17 81.30 7.50Q81.97 7.82 82.32 8.51L82.32 8.51L82.48 8.51Q82.88 7.81 83.60 7.49Q84.32 7.17 85.12 7.17ZM96.29 7.33L98.30 7.33L98.30 16L96.72 16L96.45 14.88L96.35 14.88Q95.92 15.55 95.19 15.86Q94.46 16.16 93.65 16.16L93.65 16.16Q92.19 16.16 91.37 15.41Q90.54 14.66 90.54 12.99L90.54 12.99L90.54 7.33L92.56 7.33L92.56 12.59Q92.56 14.53 94.16 14.53L94.16 14.53Q95.38 14.53 95.83 13.77Q96.29 13.01 96.29 11.57L96.29 11.57L96.29 7.33ZM99.74 16L102.75 11.57L99.89 7.33L102.18 7.33L104.06 10.27L105.95 7.33L108.24 7.33L105.34 11.57L108.38 16L106.10 16L104.06 12.85L102.03 16L99.74 16ZM117.06 14.26L117.06 16L109.23 16L109.23 14.51L112.14 11.57Q113.01 10.69 113.56 10.06Q114.11 9.44 114.38 8.89Q114.64 8.34 114.64 7.70L114.64 7.70Q114.64 6.91 114.19 6.52Q113.74 6.13 113.01 6.13L113.01 6.13Q112.29 6.13 111.66 6.42Q111.04 6.72 110.37 7.26L110.37 7.26L109.26 5.94Q109.97 5.33 110.86 4.87Q111.76 4.42 113.12 4.42L113.12 4.42Q114.22 4.42 115.02 4.81Q115.82 5.20 116.25 5.89Q116.67 6.58 116.67 7.49L116.67 7.49Q116.67 8.42 116.30 9.19Q115.94 9.97 115.24 10.74Q114.54 11.52 113.58 12.42L113.58 12.42L111.78 14.16L111.78 14.26L117.06 14.26Z" class="sprotty-block-name" style="fill:rgb(48, 48, 48);stroke:rgba(0, 0, 0, 0);"/><line x1="0" y1="20" x2="121.69599999999998" y2="20"/></g><g id="sprotty_ArchitectureBlockImpl$work.mux2_8(struct)/InstantiationBlockImpl$lsbmux/BPortImpl$s" transform="translate(0, 86.17940044403076)" class="triangle"><path d="M 0,0 L 5,2.5 L 0,5 Z" transform="translate(-1.67, -2.5)" class="sprotty-port" style="fill:rgb(48, 48, 48);stroke:rgb(48, 48, 48);"/><g class="port sprotty-label" id="sprotty_ArchitectureBlockImpl$work.mux2_8(struct)/InstantiationBlockImpl$lsbmux/BPortImpl$s/label" transform="translate(3, -5.697400093078613) translate(0, -0.13300000131130219)" style="cursor:default;fill:rgb(48, 48, 48);font-family:Arial, Helvetica, sans-serif;text-anchor:middle;"><path d="M2.93 0.13L2.93 0.13Q2.18 0.13 1.64 0.01Q1.10-0.11 0.69-0.32L0.69-0.32L0.69-1.38Q1.12-1.17 1.72-0.99Q2.33-0.81 2.95-0.81L2.95-0.81Q3.84-0.81 4.24-1.10Q4.64-1.38 4.64-1.86L4.64-1.86Q4.64-2.13 4.50-2.34Q4.35-2.55 3.97-2.77Q3.59-2.98 2.89-3.25L2.89-3.25Q2.19-3.51 1.70-3.78Q1.21-4.04 0.94-4.42Q0.68-4.79 0.68-5.37L0.68-5.37Q0.68-6.28 1.42-6.77Q2.15-7.26 3.35-7.26L3.35-7.26Q4.00-7.26 4.57-7.14Q5.13-7.01 5.63-6.78L5.63-6.78L5.23-5.85Q4.77-6.04 4.28-6.17Q3.79-6.30 3.27-6.30L3.27-6.30Q2.55-6.30 2.17-6.07Q1.80-5.84 1.80-5.44L1.80-5.44Q1.80-5.15 1.97-4.94Q2.14-4.73 2.55-4.54Q2.95-4.35 3.63-4.08L3.63-4.08Q4.31-3.83 4.79-3.56Q5.27-3.29 5.52-2.91Q5.77-2.54 5.77-1.97L5.77-1.97Q5.77-0.93 5.00-0.40Q4.23 0.13 2.93 0.13Z" transform="translate(4, 9.3948)"/><rect x="0" y="0.133" width="14.3707" height="11.3948" class="clickable" style="cursor:pointer;fill:rgba(0, 0, 0, 0);fill-opacity:0;stroke-width:0px;"/></g></g><g id="sprotty_ArchitectureBlockImpl$work.mux2_8(struct)/InstantiationBlockImpl$lsbmux/BPortImpl$d1" transform="translate(0, 63.36150026321411)" class="triangle"><path d="M 0,0 L 5,2.5 L 0,5 Z" transform="translate(-1.67, -2.5)" class="sprotty-port" style="fill:rgb(48, 48, 48);stroke:rgb(48, 48, 48);"/><g class="port sprotty-label" id="sprotty_ArchitectureBlockImpl$work.mux2_8(struct)/InstantiationBlockImpl$lsbmux/BPortImpl$d1/label" transform="translate(3, -7.120500087738037) translate(0, -0.13300000131130219)" style="cursor:default;fill:rgb(48, 48, 48);font-family:Arial, Helvetica, sans-serif;text-anchor:middle;"><path d="M3.66 0.13L3.66 0.13Q2.33 0.13 1.53-0.79Q0.73-1.72 0.73-3.55L0.73-3.55Q0.73-5.39 1.54-6.32Q2.34-7.26 3.67-7.26L3.67-7.26Q4.50-7.26 5.02-6.96Q5.55-6.65 5.88-6.21L5.88-6.21L5.96-6.21Q5.95-6.38 5.91-6.72Q5.88-7.06 5.88-7.26L5.88-7.26L5.88-10.11L7.05-10.11L7.05 0L6.10 0L5.93-0.96L5.88-0.96Q5.56-0.51 5.03-0.19Q4.50 0.13 3.66 0.13ZM3.84-0.84L3.84-0.84Q4.97-0.84 5.43-1.46Q5.89-2.07 5.89-3.33L5.89-3.33L5.89-3.54Q5.89-4.87 5.45-5.58Q5.01-6.29 3.83-6.29L3.83-6.29Q2.89-6.29 2.41-5.54Q1.94-4.79 1.94-3.52L1.94-3.52Q1.94-2.25 2.41-1.54Q2.89-0.84 3.84-0.84ZM12.90 0L11.76 0L11.76-6.64Q11.76-7.21 11.77-7.55Q11.78-7.90 11.81-8.27L11.81-8.27Q11.60-8.07 11.42-7.92Q11.25-7.77 10.99-7.54L10.99-7.54L9.98-6.72L9.36-7.50L11.93-9.50L12.90-9.50L12.90 0Z" transform="translate(4, 12.241)"/><rect x="0" y="0.133" width="23.787100000000002" height="14.241" class="clickable" style="cursor:pointer;fill:rgba(0, 0, 0, 0);fill-opacity:0;stroke-width:0px;"/></g></g><g id="sprotty_ArchitectureBlockImpl$work.mux2_8(struct)/InstantiationBlockImpl$lsbmux/BPortImpl$d0" transform="translate(0, 39.12050008773804)" class="triangle"><path d="M 0,0 L 5,2.5 L 0,5 Z" transform="translate(-1.67, -2.5)" class="sprotty-port" style="fill:rgb(48, 48, 48);stroke:rgb(48, 48, 48);"/><g class="port sprotty-label" id="sprotty_ArchitectureBlockImpl$work.mux2_8(struct)/InstantiationBlockImpl$lsbmux/BPortImpl$d0/label" transform="translate(3, -7.120500087738037) translate(0, -0.13300000131130219)" style="cursor:default;fill:rgb(48, 48, 48);font-family:Arial, Helvetica, sans-serif;text-anchor:middle;"><path d="M3.66 0.13L3.66 0.13Q2.33 0.13 1.53-0.79Q0.73-1.72 0.73-3.55L0.73-3.55Q0.73-5.39 1.54-6.32Q2.34-7.26 3.67-7.26L3.67-7.26Q4.50-7.26 5.02-6.96Q5.55-6.65 5.88-6.21L5.88-6.21L5.96-6.21Q5.95-6.38 5.91-6.72Q5.88-7.06 5.88-7.26L5.88-7.26L5.88-10.11L7.05-10.11L7.05 0L6.10 0L5.93-0.96L5.88-0.96Q5.56-0.51 5.03-0.19Q4.50 0.13 3.66 0.13ZM3.84-0.84L3.84-0.84Q4.97-0.84 5.43-1.46Q5.89-2.07 5.89-3.33L5.89-3.33L5.89-3.54Q5.89-4.87 5.45-5.58Q5.01-6.29 3.83-6.29L3.83-6.29Q2.89-6.29 2.41-5.54Q1.94-4.79 1.94-3.52L1.94-3.52Q1.94-2.25 2.41-1.54Q2.89-0.84 3.84-0.84ZM11.97 0.13L11.97 0.13Q10.36 0.13 9.60-1.16Q8.83-2.46 8.83-4.76L8.83-4.76Q8.83-6.30 9.14-7.39Q9.46-8.49 10.15-9.06Q10.84-9.64 11.97-9.64L11.97-9.64Q13.57-9.64 14.35-8.36Q15.14-7.08 15.14-4.76L15.14-4.76Q15.14-3.23 14.82-2.13Q14.50-1.04 13.81-0.45Q13.11 0.13 11.97 0.13ZM11.97-0.86L11.97-0.86Q13.03-0.86 13.49-1.83Q13.95-2.79 13.95-4.76L13.95-4.76Q13.95-6.70 13.49-7.67Q13.03-8.65 11.97-8.65L11.97-8.65Q10.89-8.65 10.45-7.67Q10.00-6.70 10.00-4.76L10.00-4.76Q10.00-2.81 10.45-1.84Q10.89-0.86 11.97-0.86Z" transform="translate(4, 12.241)"/><rect x="0" y="0.133" width="23.787100000000002" height="14.241" class="clickable" style="cursor:pointer;fill:rgba(0, 0, 0, 0);fill-opacity:0;stroke-width:0px;"/></g></g><g id="sprotty_ArchitectureBlockImpl$work.mux2_8(struct)/InstantiationBlockImpl$lsbmux/BPortImpl$y" transform="translate(121.6953125, 61.93840026855469)" class="triangle"><path d="M 0,0 L 5,2.5 L 0,5 Z" transform="translate(-1.67, -2.5)" class="sprotty-port" style="fill:rgb(48, 48, 48);stroke:rgb(48, 48, 48);"/><g class="port sprotty-label" id="sprotty_ArchitectureBlockImpl$work.mux2_8(struct)/InstantiationBlockImpl$lsbmux/BPortImpl$y/label" transform="translate(-17.782999992370605, -7.160400390625) translate(0, -3.191999912261963)" style="cursor:default;fill:rgb(48, 48, 48);font-family:Arial, Helvetica, sans-serif;text-anchor:middle;"><path d="M1.12 3.19L1.12 3.19Q0.80 3.19 0.56 3.16Q0.32 3.13 0.15 3.09L0.15 3.09L0.15 2.15Q0.29 2.18 0.50 2.21Q0.70 2.23 0.93 2.23L0.93 2.23Q1.54 2.23 1.92 1.89Q2.29 1.54 2.51 0.97L2.51 0.97L2.89 0.03L0.01-7.13L1.26-7.13L2.81-3.07Q3.01-2.54 3.17-2.05Q3.33-1.57 3.40-1.13L3.40-1.13L3.46-1.13Q3.54-1.46 3.70-2.00Q3.87-2.54 4.07-3.09L4.07-3.09L5.52-7.13L6.78-7.13L3.71 0.98Q3.34 2.00 2.75 2.59Q2.15 3.19 1.12 3.19Z" transform="translate(4, 12.320800000000002)"/><rect x="0" y="3.192" width="14.783000000000001" height="14.320800000000002" class="clickable" style="cursor:pointer;fill:rgba(0, 0, 0, 0);fill-opacity:0;stroke-width:0px;"/></g></g></g><g id="sprotty_ArchitectureBlockImpl$work.mux2_8(struct)/GPortImpl$s" transform="translate(0, 125.60250043869019)" class="triangle"><path d="M 0,0 L 5,2.5 L 0,5 Z" transform="translate(-1.67, -2.5)" class="sprotty-port" style="fill:rgb(48, 48, 48);stroke:rgb(48, 48, 48);"/><g class="port sprotty-label" id="sprotty_ArchitectureBlockImpl$work.mux2_8(struct)/GPortImpl$s/label" transform="translate(3, 3) translate(0, -0.13300000131130219)" style="cursor:default;fill:rgb(48, 48, 48);font-family:Arial, Helvetica, sans-serif;text-anchor:middle;"><path d="M2.93 0.13L2.93 0.13Q2.18 0.13 1.64 0.01Q1.10-0.11 0.69-0.32L0.69-0.32L0.69-1.38Q1.12-1.17 1.72-0.99Q2.33-0.81 2.95-0.81L2.95-0.81Q3.84-0.81 4.24-1.10Q4.64-1.38 4.64-1.86L4.64-1.86Q4.64-2.13 4.50-2.34Q4.35-2.55 3.97-2.77Q3.59-2.98 2.89-3.25L2.89-3.25Q2.19-3.51 1.70-3.78Q1.21-4.04 0.94-4.42Q0.68-4.79 0.68-5.37L0.68-5.37Q0.68-6.28 1.42-6.77Q2.15-7.26 3.35-7.26L3.35-7.26Q4.00-7.26 4.57-7.14Q5.13-7.01 5.63-6.78L5.63-6.78L5.23-5.85Q4.77-6.04 4.28-6.17Q3.79-6.30 3.27-6.30L3.27-6.30Q2.55-6.30 2.17-6.07Q1.80-5.84 1.80-5.44L1.80-5.44Q1.80-5.15 1.97-4.94Q2.14-4.73 2.55-4.54Q2.95-4.35 3.63-4.08L3.63-4.08Q4.31-3.83 4.79-3.56Q5.27-3.29 5.52-2.91Q5.77-2.54 5.77-1.97L5.77-1.97Q5.77-0.93 5.00-0.40Q4.23 0.13 2.93 0.13Z" transform="translate(4, 9.3948)"/><rect x="0" y="0.133" width="14.3707" height="11.3948" class="clickable" style="cursor:pointer;fill:rgba(0, 0, 0, 0);fill-opacity:0;stroke-width:0px;"/></g></g><g id="sprotty_ArchitectureBlockImpl$work.mux2_8(struct)/GPortImpl$d1" transform="translate(0, 98.36150026321411)" class="triangle"><path d="M 0,0 L 5,2.5 L 0,5 Z" transform="translate(-1.67, -2.5)" class="sprotty-port" style="fill:rgb(48, 48, 48);stroke:rgb(48, 48, 48);"/><g class="port sprotty-label" id="sprotty_ArchitectureBlockImpl$work.mux2_8(struct)/GPortImpl$d1/label" transform="translate(3, 3) translate(0, -0.13300000131130219)" style="cursor:default;fill:rgb(48, 48, 48);font-family:Arial, Helvetica, sans-serif;text-anchor:middle;"><path d="M3.66 0.13L3.66 0.13Q2.33 0.13 1.53-0.79Q0.73-1.72 0.73-3.55L0.73-3.55Q0.73-5.39 1.54-6.32Q2.34-7.26 3.67-7.26L3.67-7.26Q4.50-7.26 5.02-6.96Q5.55-6.65 5.88-6.21L5.88-6.21L5.96-6.21Q5.95-6.38 5.91-6.72Q5.88-7.06 5.88-7.26L5.88-7.26L5.88-10.11L7.05-10.11L7.05 0L6.10 0L5.93-0.96L5.88-0.96Q5.56-0.51 5.03-0.19Q4.50 0.13 3.66 0.13ZM3.84-0.84L3.84-0.84Q4.97-0.84 5.43-1.46Q5.89-2.07 5.89-3.33L5.89-3.33L5.89-3.54Q5.89-4.87 5.45-5.58Q5.01-6.29 3.83-6.29L3.83-6.29Q2.89-6.29 2.41-5.54Q1.94-4.79 1.94-3.52L1.94-3.52Q1.94-2.25 2.41-1.54Q2.89-0.84 3.84-0.84ZM12.90 0L11.76 0L11.76-6.64Q11.76-7.21 11.77-7.55Q11.78-7.90 11.81-8.27L11.81-8.27Q11.60-8.07 11.42-7.92Q11.25-7.77 10.99-7.54L10.99-7.54L9.98-6.72L9.36-7.50L11.93-9.50L12.90-9.50L12.90 0Z" transform="translate(4, 12.241)"/><rect x="0" y="0.133" width="23.787100000000002" height="14.241" class="clickable" style="cursor:pointer;fill:rgba(0, 0, 0, 0);fill-opacity:0;stroke-width:0px;"/></g></g><g id="sprotty_ArchitectureBlockImpl$work.mux2_8(struct)/GPortImpl$d0" transform="translate(0, 71.12050008773804)" class="triangle"><path d="M 0,0 L 5,2.5 L 0,5 Z" transform="translate(-1.67, -2.5)" class="sprotty-port" style="fill:rgb(48, 48, 48);stroke:rgb(48, 48, 48);"/><g class="port sprotty-label" id="sprotty_ArchitectureBlockImpl$work.mux2_8(struct)/GPortImpl$d0/label" transform="translate(3, 3) translate(0, -0.13300000131130219)" style="cursor:default;fill:rgb(48, 48, 48);font-family:Arial, Helvetica, sans-serif;text-anchor:middle;"><path d="M3.66 0.13L3.66 0.13Q2.33 0.13 1.53-0.79Q0.73-1.72 0.73-3.55L0.73-3.55Q0.73-5.39 1.54-6.32Q2.34-7.26 3.67-7.26L3.67-7.26Q4.50-7.26 5.02-6.96Q5.55-6.65 5.88-6.21L5.88-6.21L5.96-6.21Q5.95-6.38 5.91-6.72Q5.88-7.06 5.88-7.26L5.88-7.26L5.88-10.11L7.05-10.11L7.05 0L6.10 0L5.93-0.96L5.88-0.96Q5.56-0.51 5.03-0.19Q4.50 0.13 3.66 0.13ZM3.84-0.84L3.84-0.84Q4.97-0.84 5.43-1.46Q5.89-2.07 5.89-3.33L5.89-3.33L5.89-3.54Q5.89-4.87 5.45-5.58Q5.01-6.29 3.83-6.29L3.83-6.29Q2.89-6.29 2.41-5.54Q1.94-4.79 1.94-3.52L1.94-3.52Q1.94-2.25 2.41-1.54Q2.89-0.84 3.84-0.84ZM11.97 0.13L11.97 0.13Q10.36 0.13 9.60-1.16Q8.83-2.46 8.83-4.76L8.83-4.76Q8.83-6.30 9.14-7.39Q9.46-8.49 10.15-9.06Q10.84-9.64 11.97-9.64L11.97-9.64Q13.57-9.64 14.35-8.36Q15.14-7.08 15.14-4.76L15.14-4.76Q15.14-3.23 14.82-2.13Q14.50-1.04 13.81-0.45Q13.11 0.13 11.97 0.13ZM11.97-0.86L11.97-0.86Q13.03-0.86 13.49-1.83Q13.95-2.79 13.95-4.76L13.95-4.76Q13.95-6.70 13.49-7.67Q13.03-8.65 11.97-8.65L11.97-8.65Q10.89-8.65 10.45-7.67Q10.00-6.70 10.00-4.76L10.00-4.76Q10.00-2.81 10.45-1.84Q10.89-0.86 11.97-0.86Z" transform="translate(4, 12.241)"/><rect x="0" y="0.133" width="23.787100000000002" height="14.241" class="clickable" style="cursor:pointer;fill:rgba(0, 0, 0, 0);fill-opacity:0;stroke-width:0px;"/></g></g><g id="sprotty_ArchitectureBlockImpl$work.mux2_8(struct)/GPortImpl$y" transform="translate(267.0974578857422, 96.93840026855469)" class="triangle"><path d="M 0,0 L 5,2.5 L 0,5 Z" transform="translate(-1.67, -2.5)" class="sprotty-port" style="fill:rgb(48, 48, 48);stroke:rgb(48, 48, 48);"/><g class="port sprotty-label" id="sprotty_ArchitectureBlockImpl$work.mux2_8(struct)/GPortImpl$y/label" transform="translate(-17.782999992370605, 3) translate(0, -3.191999912261963)" style="cursor:default;fill:rgb(48, 48, 48);font-family:Arial, Helvetica, sans-serif;text-anchor:middle;"><path d="M1.12 3.19L1.12 3.19Q0.80 3.19 0.56 3.16Q0.32 3.13 0.15 3.09L0.15 3.09L0.15 2.15Q0.29 2.18 0.50 2.21Q0.70 2.23 0.93 2.23L0.93 2.23Q1.54 2.23 1.92 1.89Q2.29 1.54 2.51 0.97L2.51 0.97L2.89 0.03L0.01-7.13L1.26-7.13L2.81-3.07Q3.01-2.54 3.17-2.05Q3.33-1.57 3.40-1.13L3.40-1.13L3.46-1.13Q3.54-1.46 3.70-2.00Q3.87-2.54 4.07-3.09L4.07-3.09L5.52-7.13L6.78-7.13L3.71 0.98Q3.34 2.00 2.75 2.59Q2.15 3.19 1.12 3.19Z" transform="translate(4, 12.320800000000002)"/><rect x="0" y="3.192" width="14.783000000000001" height="14.320800000000002" class="clickable" style="cursor:pointer;fill:rgba(0, 0, 0, 0);fill-opacity:0;stroke-width:0px;"/></g></g></g></g></svg>