<svg xmlns="http://www.w3.org/2000/svg" id="sprotty_mux2_tb" class="sprotty-graph sprotty-block-diagram blockdiagram" style="font-family:&quot;Helvetica Neue&quot;, Helvetica, Arial, sans-serif;line-height:18px;perspective-origin:0px 0px;transform-origin:0px 0px;z-index:0;" version="1.1" viewBox="9.5 12 241.1189404296875 153.87680053710938"><g transform="scale(1) translate(0,0)"><g id="sprotty_ArchitectureBlockImpl$work.mux2_tb(RTL)" transform="translate(12, 12)" class="architecture"><g class="sprotty-block" style="fill:rgb(245, 245, 245);stroke:rgb(48, 48, 48);stroke-dasharray:0px;"><rect x="0" y="0" rx="1" ry="1" width="234.2889404296875" height="153.87680053710938"/><path d="M52.93 16L50.69 16L49.73 12.27Q49.65 11.97 49.54 11.51Q49.42 11.06 49.30 10.56Q49.18 10.06 49.09 9.65Q48.99 9.23 48.94 9.01L48.94 9.01L48.88 9.01Q48.83 9.23 48.74 9.65Q48.64 10.06 48.53 10.57Q48.42 11.07 48.30 11.53Q48.18 11.98 48.10 12.29L48.10 12.29L47.09 16L44.88 16L42.45 7.31L44.48 7.31L45.55 11.46Q45.66 11.89 45.77 12.41Q45.87 12.93 45.94 13.42Q46.02 13.90 46.06 14.21L46.06 14.21L46.13 14.21Q46.16 13.92 46.25 13.42Q46.34 12.93 46.43 12.46Q46.53 11.98 46.59 11.74L46.59 11.74L47.84 7.31L50.05 7.31L51.25 11.74Q51.31 12.03 51.42 12.50Q51.52 12.96 51.60 13.43Q51.68 13.90 51.70 14.19L51.70 14.19L51.76 14.19Q51.79 13.94 51.87 13.46Q51.95 12.98 52.06 12.43Q52.18 11.89 52.30 11.46L52.30 11.46L53.39 7.31L55.39 7.31L52.93 16ZM64.61 11.65L64.61 11.65Q64.61 13.81 63.49 14.98Q62.37 16.16 60.45 16.16L60.45 16.16Q59.26 16.16 58.34 15.63Q57.41 15.10 56.88 14.10Q56.35 13.09 56.35 11.65L56.35 11.65Q56.35 9.49 57.46 8.33Q58.58 7.17 60.50 7.17L60.50 7.17Q61.70 7.17 62.62 7.69Q63.55 8.21 64.08 9.21Q64.61 10.21 64.61 11.65ZM58.42 11.65L58.42 11.65Q58.42 13.02 58.90 13.78Q59.39 14.53 60.48 14.53L60.48 14.53Q61.57 14.53 62.06 13.78Q62.54 13.02 62.54 11.65L62.54 11.65Q62.54 10.27 62.06 9.54Q61.57 8.80 60.46 8.80L60.46 8.80Q59.39 8.80 58.90 9.54Q58.42 10.27 58.42 11.65ZM71.23 7.17L71.23 7.17Q71.44 7.17 71.69 7.18Q71.94 7.20 72.11 7.25L72.11 7.25L71.94 9.12Q71.78 9.09 71.55 9.06Q71.33 9.04 71.15 9.04L71.15 9.04Q70.51 9.04 69.95 9.30Q69.39 9.57 69.05 10.12Q68.70 10.67 68.70 11.50L68.70 11.50L68.70 16L66.69 16L66.69 7.33L68.24 7.33L68.53 8.83L68.62 8.83Q69.01 8.14 69.68 7.66Q70.35 7.17 71.23 7.17ZM73.71 3.84L75.71 3.84L75.71 9.62Q75.71 10.03 75.68 10.50Q75.65 10.96 75.62 11.38L75.62 11.38L75.66 11.38Q75.86 11.09 76.14 10.72Q76.43 10.35 76.69 10.06L76.69 10.06L79.25 7.33L81.54 7.33L78.06 11.07L81.76 16L79.41 16L76.72 12.29L75.71 13.12L75.71 16L73.71 16L73.71 3.84ZM82.83 14.98L82.83 14.98Q82.83 14.30 83.18 14.02Q83.54 13.74 84.05 13.74L84.05 13.74Q84.54 13.74 84.91 14.02Q85.28 14.30 85.28 14.98L85.28 14.98Q85.28 15.63 84.91 15.92Q84.54 16.21 84.05 16.21L84.05 16.21Q83.54 16.21 83.18 15.92Q82.83 15.63 82.83 14.98ZM97.52 7.17L97.52 7.17Q98.99 7.17 99.74 7.92Q100.48 8.67 100.48 10.35L100.48 10.35L100.48 16L98.46 16L98.46 10.74Q98.46 8.80 96.99 8.80L96.99 8.80Q95.94 8.80 95.49 9.49Q95.04 10.18 95.04 11.49L95.04 11.49L95.04 16L93.02 16L93.02 10.74Q93.02 8.80 91.54 8.80L91.54 8.80Q90.43 8.80 90.02 9.57Q89.60 10.34 89.60 11.76L89.60 11.76L89.60 16L87.58 16L87.58 7.33L89.14 7.33L89.42 8.46L89.54 8.46Q89.92 7.79 90.62 7.48Q91.31 7.17 92.06 7.17L92.06 7.17Q93.04 7.17 93.70 7.50Q94.37 7.82 94.72 8.51L94.72 8.51L94.88 8.51Q95.28 7.81 96.00 7.49Q96.72 7.17 97.52 7.17ZM108.69 7.33L110.70 7.33L110.70 16L109.12 16L108.85 14.88L108.75 14.88Q108.32 15.55 107.59 15.86Q106.86 16.16 106.05 16.16L106.05 16.16Q104.59 16.16 103.77 15.41Q102.94 14.66 102.94 12.99L102.94 12.99L102.94 7.33L104.96 7.33L104.96 12.59Q104.96 14.53 106.56 14.53L106.56 14.53Q107.78 14.53 108.23 13.77Q108.69 13.01 108.69 11.57L108.69 11.57L108.69 7.33ZM112.14 16L115.15 11.57L112.29 7.33L114.58 7.33L116.46 10.27L118.35 7.33L120.64 7.33L117.74 11.57L120.78 16L118.50 16L116.46 12.85L114.43 16L112.14 16ZM129.46 14.26L129.46 16L121.63 16L121.63 14.51L124.54 11.57Q125.41 10.69 125.96 10.06Q126.51 9.44 126.78 8.89Q127.04 8.34 127.04 7.70L127.04 7.70Q127.04 6.91 126.59 6.52Q126.14 6.13 125.41 6.13L125.41 6.13Q124.69 6.13 124.06 6.42Q123.44 6.72 122.77 7.26L122.77 7.26L121.66 5.94Q122.37 5.33 123.26 4.87Q124.16 4.42 125.52 4.42L125.52 4.42Q126.62 4.42 127.42 4.81Q128.22 5.20 128.65 5.89Q129.07 6.58 129.07 7.49L129.07 7.49Q129.07 8.42 128.70 9.19Q128.34 9.97 127.64 10.74Q126.94 11.52 125.98 12.42L125.98 12.42L124.18 14.16L124.18 14.26L129.46 14.26ZM136.90 17.44L136.90 18.50L130.06 18.50L130.06 17.44L136.90 17.44ZM141.52 14.54L141.52 14.54Q141.89 14.54 142.25 14.47Q142.61 14.40 142.91 14.30L142.91 14.30L142.91 15.81Q142.59 15.95 142.08 16.06Q141.57 16.16 141.01 16.16L141.01 16.16Q140.27 16.16 139.66 15.91Q139.06 15.66 138.70 15.06Q138.35 14.45 138.35 13.36L138.35 13.36L138.35 8.85L137.18 8.85L137.18 7.97L138.46 7.26L139.10 5.42L140.37 5.42L140.37 7.33L142.83 7.33L142.83 8.85L140.37 8.85L140.37 13.34Q140.37 13.95 140.69 14.25Q141.01 14.54 141.52 14.54ZM144.66 3.84L146.67 3.84L146.67 6.72Q146.67 7.23 146.64 7.71Q146.61 8.19 146.58 8.46L146.58 8.46L146.67 8.46Q147.02 7.92 147.63 7.54Q148.24 7.17 149.22 7.17L149.22 7.17Q150.72 7.17 151.66 8.30Q152.59 9.44 152.59 11.65L152.59 11.65Q152.59 13.89 151.65 15.02Q150.70 16.16 149.17 16.16L149.17 16.16Q148.19 16.16 147.61 15.81Q147.02 15.46 146.67 14.99L146.67 14.99L146.53 14.99L146.16 16L144.66 16L144.66 3.84ZM148.64 8.80L148.64 8.80Q147.55 8.80 147.12 9.46Q146.69 10.11 146.67 11.47L146.67 11.47L146.67 11.65Q146.67 13.04 147.10 13.78Q147.52 14.51 148.67 14.51L148.67 14.51Q149.57 14.51 150.05 13.77Q150.53 13.02 150.53 11.63L150.53 11.63Q150.53 10.21 150.04 9.50Q149.55 8.80 148.64 8.80ZM154.02 11.62L154.02 11.62Q154.02 9.66 154.58 7.85Q155.15 6.03 156.37 4.58L156.37 4.58L158.08 4.58Q156.98 6.08 156.42 7.89Q155.86 9.70 155.86 11.60L155.86 11.60Q155.86 13.46 156.42 15.25Q156.98 17.04 158.06 18.53L158.06 18.53L156.37 18.53Q155.15 17.12 154.58 15.34Q154.02 13.55 154.02 11.62ZM160.05 4.58L163.30 4.58Q165.55 4.58 166.63 5.41Q167.71 6.24 167.71 7.94L167.71 7.94Q167.71 8.77 167.40 9.36Q167.09 9.95 166.59 10.34Q166.10 10.74 165.52 10.98L165.52 10.98L168.80 16L166.50 16L163.76 11.49L162.10 11.49L162.10 16L160.05 16L160.05 4.58ZM163.17 6.29L163.17 6.29L162.10 6.29L162.10 9.81L163.23 9.81Q164.50 9.81 165.06 9.35Q165.63 8.90 165.63 8L165.63 8Q165.63 7.07 165.03 6.68Q164.43 6.29 163.17 6.29ZM174.48 6.30L174.48 16L172.43 16L172.43 6.30L169.15 6.30L169.15 4.58L177.76 4.58L177.76 6.30L174.48 6.30ZM186.32 16L179.50 16L179.50 4.58L181.55 4.58L181.55 14.27L186.32 14.27L186.32 16ZM191.36 11.62L191.36 11.62Q191.36 13.55 190.79 15.34Q190.22 17.12 189.01 18.53L189.01 18.53L187.31 18.53Q188.40 17.04 188.97 15.25Q189.54 13.46 189.54 11.60L189.54 11.60Q189.54 9.70 188.97 7.89Q188.40 6.08 187.30 4.58L187.30 4.58L189.01 4.58Q190.22 6.03 190.79 7.85Q191.36 9.66 191.36 11.62Z" class="sprotty-block-name" style="fill:rgb(48, 48, 48);stroke:rgba(0, 0, 0, 0);"/><line x1="0" y1="20" x2="234.2889404296875" y2="20"/></g><g id="sprotty_ArchitectureBlockImpl$work.mux2_tb(RTL)/ProcessBlockImpl$stimulus/GPortImpl$d0_to_ArchitectureBlockImpl$work.mux2_tb(RTL)/InstantiationBlockImpl$DTU/BPortImpl$d0" class="sprotty-edge thick edge" style="fill:none;stroke:rgb(112, 112, 112);stroke-linejoin:round;stroke-width:3px;"><path d="M 92.3280029296875 74.12050008773804 L 122.3280029296875 74.12050008773804 "/></g><g id="sprotty_ArchitectureBlockImpl$work.mux2_tb(RTL)/ProcessBlockImpl$stimulus/GPortImpl$d1_to_ArchitectureBlockImpl$work.mux2_tb(RTL)/InstantiationBlockImpl$DTU/BPortImpl$d1" class="sprotty-edge thick edge" style="fill:none;stroke:rgb(112, 112, 112);stroke-linejoin:round;stroke-width:3px;"><path d="M 92.3280029296875 84.12050008773804 L 110.3280029296875 84.12050008773804 C 111.3280029296875 84.12050008773804 112.3280029296875 85.12050008773804 112.3280029296875 86.12050008773804 L 112.3280029296875 96.36150026321411 C 112.3280029296875 97.36150026321411 113.3280029296875 98.36150026321411 114.3280029296875 98.36150026321411 L 122.3280029296875 98.36150026321411 "/></g><g id="sprotty_ArchitectureBlockImpl$work.mux2_tb(RTL)/ProcessBlockImpl$stimulus/GPortImpl$s_to_ArchitectureBlockImpl$work.mux2_tb(RTL)/InstantiationBlockImpl$DTU/BPortImpl$s" class="sprotty-edge edge" style="fill:none;stroke:rgb(112, 112, 112);stroke-linejoin:round;"><path d="M 92.3280029296875 94.12050008773804 L 100.3280029296875 94.12050008773804 C 101.3280029296875 94.12050008773804 102.3280029296875 95.12050008773804 102.3280029296875 96.12050008773804 L 102.3280029296875 119.17940044403076 C 102.3280029296875 120.17940044403076 103.3280029296875 121.17940044403076 104.3280029296875 121.17940044403076 L 122.3280029296875 121.17940044403076 "/></g><g id="sprotty_ArchitectureBlockImpl$work.mux2_tb(RTL)/ProcessBlockImpl$stimulus" transform="translate(15, 64.12050008773804)" class="statement"><rect x="0" y="0" rx="10" ry="5" width="77.3280029296875" height="40" class="sprotty-node" style="fill:rgb(245, 245, 245);stroke:rgb(112, 112, 112);"/><g id="sprotty_ArchitectureBlockImpl$work.mux2_tb(RTL)/ProcessBlockImpl$stimulus/label" transform="translate(5, 13.83984375) translate(0, -0.15984344482421875)" class="sprotty-label process" style="cursor:default;fill:rgb(48, 48, 48);font-family:Arial, Helvetica, sans-serif;text-anchor:middle;"><path d="M7.20-2.51L7.20-2.51Q7.20-1.20 6.26-0.52Q5.33 0.16 3.58 0.16L3.58 0.16Q2.67 0.16 2.02 0.03Q1.38-0.10 0.77-0.37L0.77-0.37L0.77-2.08Q1.41-1.78 2.18-1.57Q2.96-1.36 3.65-1.36L3.65-1.36Q4.48-1.36 4.85-1.62Q5.22-1.87 5.22-2.30L5.22-2.30Q5.22-2.56 5.07-2.76Q4.93-2.96 4.50-3.20Q4.08-3.44 3.25-3.79L3.25-3.79Q2.42-4.11 1.86-4.46Q1.31-4.80 1.03-5.26Q0.75-5.73 0.75-6.46L0.75-6.46Q0.75-7.63 1.67-8.23Q2.59-8.83 4.13-8.83L4.13-8.83Q4.93-8.83 5.64-8.67Q6.35-8.51 7.07-8.19L7.07-8.19L6.43-6.70Q5.82-6.96 5.25-7.14Q4.67-7.31 4.06-7.31L4.06-7.31Q2.74-7.31 2.74-6.56L2.74-6.56Q2.74-6.29 2.90-6.10Q3.07-5.90 3.50-5.69Q3.92-5.47 4.70-5.17L4.70-5.17Q5.47-4.86 6.03-4.54Q6.59-4.21 6.90-3.73Q7.20-3.25 7.20-2.51ZM12.50-1.46L12.50-1.46Q12.86-1.46 13.22-1.53Q13.58-1.60 13.89-1.70L13.89-1.70L13.89-0.19Q13.57-0.05 13.06 0.06Q12.54 0.16 11.98 0.16L11.98 0.16Q11.25 0.16 10.64-0.09Q10.03-0.34 9.68-0.94Q9.33-1.55 9.33-2.64L9.33-2.64L9.33-7.15L8.16-7.15L8.16-8.03L9.44-8.74L10.08-10.58L11.34-10.58L11.34-8.67L13.81-8.67L13.81-7.15L11.34-7.15L11.34-2.66Q11.34-2.05 11.66-1.75Q11.98-1.46 12.50-1.46ZM16.64-12.02L16.64-12.02Q17.10-12.02 17.43-11.78Q17.76-11.55 17.76-10.96L17.76-10.96Q17.76-10.37 17.43-10.13Q17.10-9.89 16.64-9.89L16.64-9.89Q16.18-9.89 15.85-10.13Q15.52-10.37 15.52-10.96L15.52-10.96Q15.52-11.55 15.85-11.78Q16.18-12.02 16.64-12.02ZM15.63-8.67L17.65-8.67L17.65 0L15.63 0L15.63-8.67ZM30.16-8.83L30.16-8.83Q31.63-8.83 32.38-8.08Q33.12-7.33 33.12-5.65L33.12-5.65L33.12 0L31.10 0L31.10-5.26Q31.10-7.20 29.63-7.20L29.63-7.20Q28.58-7.20 28.13-6.51Q27.68-5.82 27.68-4.51L27.68-4.51L27.68 0L25.66 0L25.66-5.26Q25.66-7.20 24.18-7.20L24.18-7.20Q23.07-7.20 22.66-6.43Q22.24-5.66 22.24-4.24L22.24-4.24L22.24 0L20.22 0L20.22-8.67L21.78-8.67L22.06-7.54L22.18-7.54Q22.56-8.21 23.26-8.52Q23.95-8.83 24.70-8.83L24.70-8.83Q25.68-8.83 26.34-8.50Q27.01-8.18 27.36-7.49L27.36-7.49L27.52-7.49Q27.92-8.19 28.64-8.51Q29.36-8.83 30.16-8.83ZM41.33-8.67L43.34-8.67L43.34 0L41.76 0L41.49-1.12L41.39-1.12Q40.96-0.45 40.23-0.14Q39.50 0.16 38.69 0.16L38.69 0.16Q37.23 0.16 36.41-0.59Q35.58-1.34 35.58-3.01L35.58-3.01L35.58-8.67L37.60-8.67L37.60-3.41Q37.60-1.47 39.20-1.47L39.20-1.47Q40.42-1.47 40.87-2.23Q41.33-2.99 41.33-4.43L41.33-4.43L41.33-8.67ZM47.94-12.16L47.94 0L45.92 0L45.92-12.16L47.94-12.16ZM56.19-8.67L58.21-8.67L58.21 0L56.62 0L56.35-1.12L56.26-1.12Q55.82-0.45 55.10-0.14Q54.37 0.16 53.55 0.16L53.55 0.16Q52.10 0.16 51.27-0.59Q50.45-1.34 50.45-3.01L50.45-3.01L50.45-8.67L52.46-8.67L52.46-3.41Q52.46-1.47 54.06-1.47L54.06-1.47Q55.28-1.47 55.74-2.23Q56.19-2.99 56.19-4.43L56.19-4.43L56.19-8.67ZM66.69-2.51L66.69-2.51Q66.69-1.20 65.75-0.52Q64.82 0.16 63.07 0.16L63.07 0.16Q62.16 0.16 61.51 0.03Q60.86-0.10 60.26-0.37L60.26-0.37L60.26-2.08Q60.90-1.78 61.67-1.57Q62.45-1.36 63.14-1.36L63.14-1.36Q63.97-1.36 64.34-1.62Q64.70-1.87 64.70-2.30L64.70-2.30Q64.70-2.56 64.56-2.76Q64.42-2.96 63.99-3.20Q63.57-3.44 62.74-3.79L62.74-3.79Q61.90-4.11 61.35-4.46Q60.80-4.80 60.52-5.26Q60.24-5.73 60.24-6.46L60.24-6.46Q60.24-7.63 61.16-8.23Q62.08-8.83 63.62-8.83L63.62-8.83Q64.42-8.83 65.13-8.67Q65.84-8.51 66.56-8.19L66.56-8.19L65.92-6.70Q65.31-6.96 64.74-7.14Q64.16-7.31 63.55-7.31L63.55-7.31Q62.22-7.31 62.22-6.56L62.22-6.56Q62.22-6.29 62.39-6.10Q62.56-5.90 62.98-5.69Q63.41-5.47 64.19-5.17L64.19-5.17Q64.96-4.86 65.52-4.54Q66.08-4.21 66.38-3.73Q66.69-3.25 66.69-2.51Z" transform="translate(0, 12.32)"/><rect x="0" y="0.16" width="67.328" height="12.32" class="clickable" style="cursor:pointer;fill:rgba(0, 0, 0, 0);fill-opacity:0;stroke-width:0px;"/></g><g id="sprotty_ArchitectureBlockImpl$work.mux2_tb(RTL)/ProcessBlockImpl$stimulus/GPortImpl$d0" transform="translate(77.3280029296875, 10)" class="sprotty-hidden hidden" style="display:block;height:0px;width:0px;"/><g id="sprotty_ArchitectureBlockImpl$work.mux2_tb(RTL)/ProcessBlockImpl$stimulus/GPortImpl$d1" transform="translate(77.3280029296875, 20)" class="sprotty-hidden hidden" style="display:block;height:0px;width:0px;"/><g id="sprotty_ArchitectureBlockImpl$work.mux2_tb(RTL)/ProcessBlockImpl$stimulus/GPortImpl$s" transform="translate(77.3280029296875, 30)" class="sprotty-hidden hidden" style="display:block;height:0px;width:0px;"/></g><g id="sprotty_ArchitectureBlockImpl$work.mux2_tb(RTL)/InstantiationBlockImpl$DTU" transform="translate(122.3280029296875, 35)" class="instantiation"><g class="sprotty-block" style="fill:rgb(245, 245, 245);stroke:rgb(48, 48, 48);stroke-dasharray:0px;"><rect x="0" y="0" rx="1" ry="1" width="96.9609375" height="103.87680053710938"/><path d="M14.83 10.18L14.83 10.18Q14.83 13.07 13.22 14.54Q11.60 16 8.70 16L8.70 16L5.49 16L5.49 4.58L9.04 4.58Q10.80 4.58 12.10 5.22Q13.41 5.86 14.12 7.10Q14.83 8.34 14.83 10.18ZM12.69 10.24L12.69 10.24Q12.69 8.19 11.75 7.23Q10.82 6.27 9.04 6.27L9.04 6.27L7.54 6.27L7.54 14.29L8.77 14.29Q12.69 14.29 12.69 10.24ZM20.88 6.30L20.88 16L18.83 16L18.83 6.30L15.55 6.30L15.55 4.58L24.16 4.58L24.16 6.30L20.88 6.30ZM32.93 4.58L34.96 4.58L34.96 11.97Q34.96 13.15 34.46 14.10Q33.95 15.06 32.93 15.61Q31.90 16.16 30.34 16.16L30.34 16.16Q28.11 16.16 26.96 15Q25.81 13.84 25.81 11.94L25.81 11.94L25.81 4.58L27.86 4.58L27.86 11.73Q27.86 13.14 28.50 13.78Q29.14 14.42 30.40 14.42L30.40 14.42Q31.73 14.42 32.33 13.72Q32.93 13.02 32.93 11.71L32.93 11.71L32.93 4.58ZM41.54 8.38L41.54 8.38Q41.54 7.70 41.89 7.42Q42.24 7.14 42.75 7.14L42.75 7.14Q43.25 7.14 43.62 7.42Q43.98 7.70 43.98 8.38L43.98 8.38Q43.98 9.04 43.62 9.33Q43.25 9.62 42.75 9.62L42.75 9.62Q42.24 9.62 41.89 9.33Q41.54 9.04 41.54 8.38ZM41.54 14.98L41.54 14.98Q41.54 14.30 41.89 14.02Q42.24 13.74 42.75 13.74L42.75 13.74Q43.25 13.74 43.62 14.02Q43.98 14.30 43.98 14.98L43.98 14.98Q43.98 15.63 43.62 15.92Q43.25 16.21 42.75 16.21L42.75 16.21Q42.24 16.21 41.89 15.92Q41.54 15.63 41.54 14.98ZM60.38 7.17L60.38 7.17Q61.86 7.17 62.60 7.92Q63.34 8.67 63.34 10.35L63.34 10.35L63.34 16L61.33 16L61.33 10.74Q61.33 8.80 59.86 8.80L59.86 8.80Q58.80 8.80 58.35 9.49Q57.90 10.18 57.90 11.49L57.90 11.49L57.90 16L55.89 16L55.89 10.74Q55.89 8.80 54.40 8.80L54.40 8.80Q53.30 8.80 52.88 9.57Q52.46 10.34 52.46 11.76L52.46 11.76L52.46 16L50.45 16L50.45 7.33L52.00 7.33L52.29 8.46L52.40 8.46Q52.78 7.79 53.48 7.48Q54.18 7.17 54.93 7.17L54.93 7.17Q55.90 7.17 56.57 7.50Q57.23 7.82 57.58 8.51L57.58 8.51L57.74 8.51Q58.14 7.81 58.86 7.49Q59.58 7.17 60.38 7.17ZM71.55 7.33L73.57 7.33L73.57 16L71.98 16L71.71 14.88L71.62 14.88Q71.18 15.55 70.46 15.86Q69.73 16.16 68.91 16.16L68.91 16.16Q67.46 16.16 66.63 15.41Q65.81 14.66 65.81 12.99L65.81 12.99L65.81 7.33L67.82 7.33L67.82 12.59Q67.82 14.53 69.42 14.53L69.42 14.53Q70.64 14.53 71.10 13.77Q71.55 13.01 71.55 11.57L71.55 11.57L71.55 7.33ZM75.01 16L78.02 11.57L75.15 7.33L77.44 7.33L79.33 10.27L81.22 7.33L83.50 7.33L80.61 11.57L83.65 16L81.36 16L79.33 12.85L77.30 16L75.01 16ZM92.32 14.26L92.32 16L84.50 16L84.50 14.51L87.41 11.57Q88.27 10.69 88.82 10.06Q89.38 9.44 89.64 8.89Q89.90 8.34 89.90 7.70L89.90 7.70Q89.90 6.91 89.46 6.52Q89.01 6.13 88.27 6.13L88.27 6.13Q87.55 6.13 86.93 6.42Q86.30 6.72 85.63 7.26L85.63 7.26L84.53 5.94Q85.23 5.33 86.13 4.87Q87.02 4.42 88.38 4.42L88.38 4.42Q89.49 4.42 90.29 4.81Q91.09 5.20 91.51 5.89Q91.94 6.58 91.94 7.49L91.94 7.49Q91.94 8.42 91.57 9.19Q91.20 9.97 90.50 10.74Q89.81 11.52 88.85 12.42L88.85 12.42L87.04 14.16L87.04 14.26L92.32 14.26Z" class="sprotty-block-name" style="fill:rgb(48, 48, 48);stroke:rgba(0, 0, 0, 0);"/><line x1="0" y1="20" x2="96.9609375" y2="20"/></g><g id="sprotty_ArchitectureBlockImpl$work.mux2_tb(RTL)/InstantiationBlockImpl$DTU/BPortImpl$s" transform="translate(0, 86.17940044403076)" class="triangle"><path d="M 0,0 L 5,2.5 L 0,5 Z" transform="translate(-1.67, -2.5)" class="sprotty-port" style="fill:rgb(48, 48, 48);stroke:rgb(48, 48, 48);"/><g class="port sprotty-label" id="sprotty_ArchitectureBlockImpl$work.mux2_tb(RTL)/InstantiationBlockImpl$DTU/BPortImpl$s/label" transform="translate(3, -5.697400093078613) translate(0, -0.13300000131130219)" style="cursor:default;fill:rgb(48, 48, 48);font-family:Arial, Helvetica, sans-serif;text-anchor:middle;"><path d="M2.93 0.13L2.93 0.13Q2.18 0.13 1.64 0.01Q1.10-0.11 0.69-0.32L0.69-0.32L0.69-1.38Q1.12-1.17 1.72-0.99Q2.33-0.81 2.95-0.81L2.95-0.81Q3.84-0.81 4.24-1.10Q4.64-1.38 4.64-1.86L4.64-1.86Q4.64-2.13 4.50-2.34Q4.35-2.55 3.97-2.77Q3.59-2.98 2.89-3.25L2.89-3.25Q2.19-3.51 1.70-3.78Q1.21-4.04 0.94-4.42Q0.68-4.79 0.68-5.37L0.68-5.37Q0.68-6.28 1.42-6.77Q2.15-7.26 3.35-7.26L3.35-7.26Q4.00-7.26 4.57-7.14Q5.13-7.01 5.63-6.78L5.63-6.78L5.23-5.85Q4.77-6.04 4.28-6.17Q3.79-6.30 3.27-6.30L3.27-6.30Q2.55-6.30 2.17-6.07Q1.80-5.84 1.80-5.44L1.80-5.44Q1.80-5.15 1.97-4.94Q2.14-4.73 2.55-4.54Q2.95-4.35 3.63-4.08L3.63-4.08Q4.31-3.83 4.79-3.56Q5.27-3.29 5.52-2.91Q5.77-2.54 5.77-1.97L5.77-1.97Q5.77-0.93 5.00-0.40Q4.23 0.13 2.93 0.13Z" transform="translate(4, 9.3948)"/><rect x="0" y="0.133" width="14.3707" height="11.3948" class="clickable" style="cursor:pointer;fill:rgba(0, 0, 0, 0);fill-opacity:0;stroke-width:0px;"/></g></g><g id="sprotty_ArchitectureBlockImpl$work.mux2_tb(RTL)/InstantiationBlockImpl$DTU/BPortImpl$d1" transform="translate(0, 63.36150026321411)" class="triangle"><path d="M 0,0 L 5,2.5 L 0,5 Z" transform="translate(-1.67, -2.5)" class="sprotty-port" style="fill:rgb(48, 48, 48);stroke:rgb(48, 48, 48);"/><g class="port sprotty-label" id="sprotty_ArchitectureBlockImpl$work.mux2_tb(RTL)/InstantiationBlockImpl$DTU/BPortImpl$d1/label" transform="translate(3, -7.120500087738037) translate(0, -0.13300000131130219)" style="cursor:default;fill:rgb(48, 48, 48);font-family:Arial, Helvetica, sans-serif;text-anchor:middle;"><path d="M3.66 0.13L3.66 0.13Q2.33 0.13 1.53-0.79Q0.73-1.72 0.73-3.55L0.73-3.55Q0.73-5.39 1.54-6.32Q2.34-7.26 3.67-7.26L3.67-7.26Q4.50-7.26 5.02-6.96Q5.55-6.65 5.88-6.21L5.88-6.21L5.96-6.21Q5.95-6.38 5.91-6.72Q5.88-7.06 5.88-7.26L5.88-7.26L5.88-10.11L7.05-10.11L7.05 0L6.10 0L5.93-0.96L5.88-0.96Q5.56-0.51 5.03-0.19Q4.50 0.13 3.66 0.13ZM3.84-0.84L3.84-0.84Q4.97-0.84 5.43-1.46Q5.89-2.07 5.89-3.33L5.89-3.33L5.89-3.54Q5.89-4.87 5.45-5.58Q5.01-6.29 3.83-6.29L3.83-6.29Q2.89-6.29 2.41-5.54Q1.94-4.79 1.94-3.52L1.94-3.52Q1.94-2.25 2.41-1.54Q2.89-0.84 3.84-0.84ZM12.90 0L11.76 0L11.76-6.64Q11.76-7.21 11.77-7.55Q11.78-7.90 11.81-8.27L11.81-8.27Q11.60-8.07 11.42-7.92Q11.25-7.77 10.99-7.54L10.99-7.54L9.98-6.72L9.36-7.50L11.93-9.50L12.90-9.50L12.90 0Z" transform="translate(4, 12.241)"/><rect x="0" y="0.133" width="23.787100000000002" height="14.241" class="clickable" style="cursor:pointer;fill:rgba(0, 0, 0, 0);fill-opacity:0;stroke-width:0px;"/></g></g><g id="sprotty_ArchitectureBlockImpl$work.mux2_tb(RTL)/InstantiationBlockImpl$DTU/BPortImpl$d0" transform="translate(0, 39.12050008773804)" class="triangle"><path d="M 0,0 L 5,2.5 L 0,5 Z" transform="translate(-1.67, -2.5)" class="sprotty-port" style="fill:rgb(48, 48, 48);stroke:rgb(48, 48, 48);"/><g class="port sprotty-label" id="sprotty_ArchitectureBlockImpl$work.mux2_tb(RTL)/InstantiationBlockImpl$DTU/BPortImpl$d0/label" transform="translate(3, -7.120500087738037) translate(0, -0.13300000131130219)" style="cursor:default;fill:rgb(48, 48, 48);font-family:Arial, Helvetica, sans-serif;text-anchor:middle;"><path d="M3.66 0.13L3.66 0.13Q2.33 0.13 1.53-0.79Q0.73-1.72 0.73-3.55L0.73-3.55Q0.73-5.39 1.54-6.32Q2.34-7.26 3.67-7.26L3.67-7.26Q4.50-7.26 5.02-6.96Q5.55-6.65 5.88-6.21L5.88-6.21L5.96-6.21Q5.95-6.38 5.91-6.72Q5.88-7.06 5.88-7.26L5.88-7.26L5.88-10.11L7.05-10.11L7.05 0L6.10 0L5.93-0.96L5.88-0.96Q5.56-0.51 5.03-0.19Q4.50 0.13 3.66 0.13ZM3.84-0.84L3.84-0.84Q4.97-0.84 5.43-1.46Q5.89-2.07 5.89-3.33L5.89-3.33L5.89-3.54Q5.89-4.87 5.45-5.58Q5.01-6.29 3.83-6.29L3.83-6.29Q2.89-6.29 2.41-5.54Q1.94-4.79 1.94-3.52L1.94-3.52Q1.94-2.25 2.41-1.54Q2.89-0.84 3.84-0.84ZM11.97 0.13L11.97 0.13Q10.36 0.13 9.60-1.16Q8.83-2.46 8.83-4.76L8.83-4.76Q8.83-6.30 9.14-7.39Q9.46-8.49 10.15-9.06Q10.84-9.64 11.97-9.64L11.97-9.64Q13.57-9.64 14.35-8.36Q15.14-7.08 15.14-4.76L15.14-4.76Q15.14-3.23 14.82-2.13Q14.50-1.04 13.81-0.45Q13.11 0.13 11.97 0.13ZM11.97-0.86L11.97-0.86Q13.03-0.86 13.49-1.83Q13.95-2.79 13.95-4.76L13.95-4.76Q13.95-6.70 13.49-7.67Q13.03-8.65 11.97-8.65L11.97-8.65Q10.89-8.65 10.45-7.67Q10.00-6.70 10.00-4.76L10.00-4.76Q10.00-2.81 10.45-1.84Q10.89-0.86 11.97-0.86Z" transform="translate(4, 12.241)"/><rect x="0" y="0.133" width="23.787100000000002" height="14.241" class="clickable" style="cursor:pointer;fill:rgba(0, 0, 0, 0);fill-opacity:0;stroke-width:0px;"/></g></g><g id="sprotty_ArchitectureBlockImpl$work.mux2_tb(RTL)/InstantiationBlockImpl$DTU/BPortImpl$y" transform="translate(96.9609375, 61.93840026855469)" class="triangle"><path d="M 0,0 L 5,2.5 L 0,5 Z" transform="translate(-1.67, -2.5)" class="sprotty-port" style="fill:rgb(48, 48, 48);stroke:rgb(48, 48, 48);"/><g class="port sprotty-label" id="sprotty_ArchitectureBlockImpl$work.mux2_tb(RTL)/InstantiationBlockImpl$DTU/BPortImpl$y/label" transform="translate(-17.782999992370605, -7.160400390625) translate(0, -3.191999912261963)" style="cursor:default;fill:rgb(48, 48, 48);font-family:Arial, Helvetica, sans-serif;text-anchor:middle;"><path d="M1.12 3.19L1.12 3.19Q0.80 3.19 0.56 3.16Q0.32 3.13 0.15 3.09L0.15 3.09L0.15 2.15Q0.29 2.18 0.50 2.21Q0.70 2.23 0.93 2.23L0.93 2.23Q1.54 2.23 1.92 1.89Q2.29 1.54 2.51 0.97L2.51 0.97L2.89 0.03L0.01-7.13L1.26-7.13L2.81-3.07Q3.01-2.54 3.17-2.05Q3.33-1.57 3.40-1.13L3.40-1.13L3.46-1.13Q3.54-1.46 3.70-2.00Q3.87-2.54 4.07-3.09L4.07-3.09L5.52-7.13L6.78-7.13L3.71 0.98Q3.34 2.00 2.75 2.59Q2.15 3.19 1.12 3.19Z" transform="translate(4, 12.320800000000002)"/><rect x="0" y="3.192" width="14.783000000000001" height="14.320800000000002" class="clickable" style="cursor:pointer;fill:rgba(0, 0, 0, 0);fill-opacity:0;stroke-width:0px;"/></g></g></g></g></g></svg>