<svg xmlns="http://www.w3.org/2000/svg" id="sprotty_mux_2_8_tb" class="sprotty-graph sprotty-block-diagram blockdiagram" style="font-family:&quot;Helvetica Neue&quot;, Helvetica, Arial, sans-serif;line-height:18px;perspective-origin:0px 0px;transform-origin:0px 0px;z-index:0;" version="1.1" viewBox="9.5 12 257.5173779296875 153.87680053710938"><g transform="scale(1) translate(0,0)"><g id="sprotty_ArchitectureBlockImpl$work.mux_2_8_tb(RTL)" transform="translate(12, 12)" class="architecture"><g class="sprotty-block" style="fill:rgb(245, 245, 245);stroke:rgb(48, 48, 48);stroke-dasharray:0px;"><rect x="0" y="0" rx="1" ry="1" width="250.6873779296875" height="153.87680053710938"/><path d="M49.78 16L47.54 16L46.58 12.27Q46.50 11.97 46.39 11.51Q46.28 11.06 46.16 10.56Q46.04 10.06 45.94 9.65Q45.85 9.23 45.80 9.01L45.80 9.01L45.74 9.01Q45.69 9.23 45.59 9.65Q45.50 10.06 45.38 10.57Q45.27 11.07 45.15 11.53Q45.03 11.98 44.95 12.29L44.95 12.29L43.94 16L41.74 16L39.30 7.31L41.34 7.31L42.41 11.46Q42.52 11.89 42.62 12.41Q42.73 12.93 42.80 13.42Q42.87 13.90 42.92 14.21L42.92 14.21L42.98 14.21Q43.02 13.92 43.10 13.42Q43.19 12.93 43.29 12.46Q43.38 11.98 43.45 11.74L43.45 11.74L44.70 7.31L46.90 7.31L48.10 11.74Q48.17 12.03 48.27 12.50Q48.38 12.96 48.46 13.43Q48.54 13.90 48.55 14.19L48.55 14.19L48.62 14.19Q48.65 13.94 48.73 13.46Q48.81 12.98 48.92 12.43Q49.03 11.89 49.16 11.46L49.16 11.46L50.25 7.31L52.25 7.31L49.78 16ZM61.46 11.65L61.46 11.65Q61.46 13.81 60.34 14.98Q59.22 16.16 57.30 16.16L57.30 16.16Q56.12 16.16 55.19 15.63Q54.26 15.10 53.74 14.10Q53.21 13.09 53.21 11.65L53.21 11.65Q53.21 9.49 54.32 8.33Q55.43 7.17 57.35 7.17L57.35 7.17Q58.55 7.17 59.48 7.69Q60.41 8.21 60.94 9.21Q61.46 10.21 61.46 11.65ZM55.27 11.65L55.27 11.65Q55.27 13.02 55.76 13.78Q56.25 14.53 57.34 14.53L57.34 14.53Q58.42 14.53 58.91 13.78Q59.40 13.02 59.40 11.65L59.40 11.65Q59.40 10.27 58.91 9.54Q58.42 8.80 57.32 8.80L57.32 8.80Q56.25 8.80 55.76 9.54Q55.27 10.27 55.27 11.65ZM68.09 7.17L68.09 7.17Q68.30 7.17 68.54 7.18Q68.79 7.20 68.97 7.25L68.97 7.25L68.79 9.12Q68.63 9.09 68.41 9.06Q68.18 9.04 68.01 9.04L68.01 9.04Q67.37 9.04 66.81 9.30Q66.25 9.57 65.90 10.12Q65.56 10.67 65.56 11.50L65.56 11.50L65.56 16L63.54 16L63.54 7.33L65.10 7.33L65.38 8.83L65.48 8.83Q65.86 8.14 66.54 7.66Q67.21 7.17 68.09 7.17ZM70.57 3.84L72.57 3.84L72.57 9.62Q72.57 10.03 72.54 10.50Q72.50 10.96 72.47 11.38L72.47 11.38L72.52 11.38Q72.71 11.09 73.00 10.72Q73.29 10.35 73.54 10.06L73.54 10.06L76.10 7.33L78.39 7.33L74.92 11.07L78.62 16L76.26 16L73.58 12.29L72.57 13.12L72.57 16L70.57 16L70.57 3.84ZM79.69 14.98L79.69 14.98Q79.69 14.30 80.04 14.02Q80.39 13.74 80.90 13.74L80.90 13.74Q81.40 13.74 81.77 14.02Q82.14 14.30 82.14 14.98L82.14 14.98Q82.14 15.63 81.77 15.92Q81.40 16.21 80.90 16.21L80.90 16.21Q80.39 16.21 80.04 15.92Q79.69 15.63 79.69 14.98ZM94.38 7.17L94.38 7.17Q95.85 7.17 96.59 7.92Q97.34 8.67 97.34 10.35L97.34 10.35L97.34 16L95.32 16L95.32 10.74Q95.32 8.80 93.85 8.80L93.85 8.80Q92.79 8.80 92.34 9.49Q91.90 10.18 91.90 11.49L91.90 11.49L91.90 16L89.88 16L89.88 10.74Q89.88 8.80 88.39 8.80L88.39 8.80Q87.29 8.80 86.87 9.57Q86.46 10.34 86.46 11.76L86.46 11.76L86.46 16L84.44 16L84.44 7.33L85.99 7.33L86.28 8.46L86.39 8.46Q86.78 7.79 87.47 7.48Q88.17 7.17 88.92 7.17L88.92 7.17Q89.90 7.17 90.56 7.50Q91.22 7.82 91.58 8.51L91.58 8.51L91.74 8.51Q92.14 7.81 92.86 7.49Q93.58 7.17 94.38 7.17ZM105.54 7.33L107.56 7.33L107.56 16L105.98 16L105.70 14.88L105.61 14.88Q105.18 15.55 104.45 15.86Q103.72 16.16 102.90 16.16L102.90 16.16Q101.45 16.16 100.62 15.41Q99.80 14.66 99.80 12.99L99.80 12.99L99.80 7.33L101.82 7.33L101.82 12.59Q101.82 14.53 103.42 14.53L103.42 14.53Q104.63 14.53 105.09 13.77Q105.54 13.01 105.54 11.57L105.54 11.57L105.54 7.33ZM109.00 16L112.01 11.57L109.14 7.33L111.43 7.33L113.32 10.27L115.21 7.33L117.50 7.33L114.60 11.57L117.64 16L115.35 16L113.32 12.85L111.29 16L109.00 16ZM124.60 17.44L124.60 18.50L117.77 18.50L117.77 17.44L124.60 17.44ZM133.08 14.26L133.08 16L125.26 16L125.26 14.51L128.17 11.57Q129.03 10.69 129.58 10.06Q130.14 9.44 130.40 8.89Q130.66 8.34 130.66 7.70L130.66 7.70Q130.66 6.91 130.22 6.52Q129.77 6.13 129.03 6.13L129.03 6.13Q128.31 6.13 127.69 6.42Q127.06 6.72 126.39 7.26L126.39 7.26L125.29 5.94Q125.99 5.33 126.89 4.87Q127.78 4.42 129.14 4.42L129.14 4.42Q130.25 4.42 131.05 4.81Q131.85 5.20 132.27 5.89Q132.70 6.58 132.70 7.49L132.70 7.49Q132.70 8.42 132.33 9.19Q131.96 9.97 131.26 10.74Q130.57 11.52 129.61 12.42L129.61 12.42L127.80 14.16L127.80 14.26L133.08 14.26ZM140.52 17.44L140.52 18.50L133.69 18.50L133.69 17.44L140.52 17.44ZM145.06 4.43L145.06 4.43Q146.06 4.43 146.86 4.74Q147.67 5.04 148.14 5.65Q148.62 6.26 148.62 7.17L148.62 7.17Q148.62 8.21 148.01 8.86Q147.40 9.52 146.52 9.97L146.52 9.97Q147.18 10.29 147.74 10.71Q148.30 11.14 148.64 11.70Q148.98 12.27 148.98 13.04L148.98 13.04Q148.98 14 148.49 14.70Q147.99 15.39 147.12 15.78Q146.25 16.16 145.08 16.16L145.08 16.16Q143.18 16.16 142.15 15.34Q141.13 14.53 141.13 13.10L141.13 13.10Q141.13 12.32 141.44 11.74Q141.75 11.15 142.26 10.74Q142.78 10.32 143.38 10.03L143.38 10.03Q142.60 9.55 142.05 8.87Q141.50 8.19 141.50 7.15L141.50 7.15Q141.50 6.26 141.98 5.65Q142.47 5.04 143.28 4.74Q144.09 4.43 145.06 4.43ZM145.05 5.95L145.05 5.95Q144.34 5.95 143.89 6.30Q143.43 6.66 143.43 7.30L143.43 7.30Q143.43 8 143.92 8.41Q144.41 8.82 145.08 9.14L145.08 9.14Q145.74 8.85 146.21 8.43Q146.68 8.02 146.68 7.30L146.68 7.30Q146.68 6.66 146.22 6.30Q145.77 5.95 145.05 5.95ZM143.05 13.01L143.05 13.01Q143.05 13.71 143.54 14.17Q144.04 14.62 145.05 14.62L145.05 14.62Q146.04 14.62 146.55 14.18Q147.06 13.73 147.06 13.01L147.06 13.01Q147.06 12.29 146.48 11.82Q145.90 11.34 145.13 10.98L145.13 10.98L144.90 10.86Q144.04 11.25 143.54 11.76Q143.05 12.27 143.05 13.01ZM156.44 17.44L156.44 18.50L149.61 18.50L149.61 17.44L156.44 17.44ZM161.06 14.54L161.06 14.54Q161.43 14.54 161.79 14.47Q162.15 14.40 162.46 14.30L162.46 14.30L162.46 15.81Q162.14 15.95 161.62 16.06Q161.11 16.16 160.55 16.16L160.55 16.16Q159.82 16.16 159.21 15.91Q158.60 15.66 158.25 15.06Q157.90 14.45 157.90 13.36L157.90 13.36L157.90 8.85L156.73 8.85L156.73 7.97L158.01 7.26L158.65 5.42L159.91 5.42L159.91 7.33L162.38 7.33L162.38 8.85L159.91 8.85L159.91 13.34Q159.91 13.95 160.23 14.25Q160.55 14.54 161.06 14.54ZM164.20 3.84L166.22 3.84L166.22 6.72Q166.22 7.23 166.18 7.71Q166.15 8.19 166.12 8.46L166.12 8.46L166.22 8.46Q166.57 7.92 167.18 7.54Q167.78 7.17 168.76 7.17L168.76 7.17Q170.26 7.17 171.20 8.30Q172.14 9.44 172.14 11.65L172.14 11.65Q172.14 13.89 171.19 15.02Q170.25 16.16 168.71 16.16L168.71 16.16Q167.74 16.16 167.15 15.81Q166.57 15.46 166.22 14.99L166.22 14.99L166.07 14.99L165.70 16L164.20 16L164.20 3.84ZM168.18 8.80L168.18 8.80Q167.10 8.80 166.66 9.46Q166.23 10.11 166.22 11.47L166.22 11.47L166.22 11.65Q166.22 13.04 166.64 13.78Q167.06 14.51 168.22 14.51L168.22 14.51Q169.11 14.51 169.59 13.77Q170.07 13.02 170.07 11.63L170.07 11.63Q170.07 10.21 169.58 9.50Q169.10 8.80 168.18 8.80ZM173.56 11.62L173.56 11.62Q173.56 9.66 174.13 7.85Q174.70 6.03 175.91 4.58L175.91 4.58L177.62 4.58Q176.52 6.08 175.96 7.89Q175.40 9.70 175.40 11.60L175.40 11.60Q175.40 13.46 175.96 15.25Q176.52 17.04 177.61 18.53L177.61 18.53L175.91 18.53Q174.70 17.12 174.13 15.34Q173.56 13.55 173.56 11.62ZM179.59 4.58L182.84 4.58Q185.10 4.58 186.18 5.41Q187.26 6.24 187.26 7.94L187.26 7.94Q187.26 8.77 186.94 9.36Q186.63 9.95 186.14 10.34Q185.64 10.74 185.06 10.98L185.06 10.98L188.34 16L186.04 16L183.30 11.49L181.64 11.49L181.64 16L179.59 16L179.59 4.58ZM182.71 6.29L182.71 6.29L181.64 6.29L181.64 9.81L182.78 9.81Q184.04 9.81 184.61 9.35Q185.18 8.90 185.18 8L185.18 8Q185.18 7.07 184.58 6.68Q183.98 6.29 182.71 6.29ZM194.02 6.30L194.02 16L191.98 16L191.98 6.30L188.70 6.30L188.70 4.58L197.30 4.58L197.30 6.30L194.02 6.30ZM205.86 16L199.05 16L199.05 4.58L201.10 4.58L201.10 14.27L205.86 14.27L205.86 16ZM210.90 11.62L210.90 11.62Q210.90 13.55 210.34 15.34Q209.77 17.12 208.55 18.53L208.55 18.53L206.86 18.53Q207.94 17.04 208.51 15.25Q209.08 13.46 209.08 11.60L209.08 11.60Q209.08 9.70 208.51 7.89Q207.94 6.08 206.84 4.58L206.84 4.58L208.55 4.58Q209.77 6.03 210.34 7.85Q210.90 9.66 210.90 11.62Z" class="sprotty-block-name" style="fill:rgb(48, 48, 48);stroke:rgba(0, 0, 0, 0);"/><line x1="0" y1="20" x2="250.6873779296875" y2="20"/></g><g id="sprotty_ArchitectureBlockImpl$work.mux_2_8_tb(RTL)/ProcessBlockImpl$stimulus/GPortImpl$d0_to_ArchitectureBlockImpl$work.mux_2_8_tb(RTL)/InstantiationBlockImpl$DUT/BPortImpl$d0" class="sprotty-edge thick edge" style="fill:none;stroke:rgb(112, 112, 112);stroke-linejoin:round;stroke-width:3px;"><path d="M 92.3280029296875 74.12050008773804 L 122.3280029296875 74.12050008773804 "/></g><g id="sprotty_ArchitectureBlockImpl$work.mux_2_8_tb(RTL)/ProcessBlockImpl$stimulus/GPortImpl$d1_to_ArchitectureBlockImpl$work.mux_2_8_tb(RTL)/InstantiationBlockImpl$DUT/BPortImpl$d1" class="sprotty-edge thick edge" style="fill:none;stroke:rgb(112, 112, 112);stroke-linejoin:round;stroke-width:3px;"><path d="M 92.3280029296875 84.12050008773804 L 110.3280029296875 84.12050008773804 C 111.3280029296875 84.12050008773804 112.3280029296875 85.12050008773804 112.3280029296875 86.12050008773804 L 112.3280029296875 96.36150026321411 C 112.3280029296875 97.36150026321411 113.3280029296875 98.36150026321411 114.3280029296875 98.36150026321411 L 122.3280029296875 98.36150026321411 "/></g><g id="sprotty_ArchitectureBlockImpl$work.mux_2_8_tb(RTL)/ProcessBlockImpl$stimulus/GPortImpl$s_to_ArchitectureBlockImpl$work.mux_2_8_tb(RTL)/InstantiationBlockImpl$DUT/BPortImpl$s" class="sprotty-edge edge" style="fill:none;stroke:rgb(112, 112, 112);stroke-linejoin:round;"><path d="M 92.3280029296875 94.12050008773804 L 100.3280029296875 94.12050008773804 C 101.3280029296875 94.12050008773804 102.3280029296875 95.12050008773804 102.3280029296875 96.12050008773804 L 102.3280029296875 119.17940044403076 C 102.3280029296875 120.17940044403076 103.3280029296875 121.17940044403076 104.3280029296875 121.17940044403076 L 122.3280029296875 121.17940044403076 "/></g><g id="sprotty_ArchitectureBlockImpl$work.mux_2_8_tb(RTL)/ProcessBlockImpl$stimulus" transform="translate(15, 64.12050008773804)" class="statement"><rect x="0" y="0" rx="10" ry="5" width="77.3280029296875" height="40" class="sprotty-node" style="fill:rgb(245, 245, 245);stroke:rgb(112, 112, 112);"/><g id="sprotty_ArchitectureBlockImpl$work.mux_2_8_tb(RTL)/ProcessBlockImpl$stimulus/label" transform="translate(5, 13.83984375) translate(0, -0.15984344482421875)" class="sprotty-label process" style="cursor:default;fill:rgb(48, 48, 48);font-family:Arial, Helvetica, sans-serif;text-anchor:middle;"><path d="M7.20-2.51L7.20-2.51Q7.20-1.20 6.26-0.52Q5.33 0.16 3.58 0.16L3.58 0.16Q2.67 0.16 2.02 0.03Q1.38-0.10 0.77-0.37L0.77-0.37L0.77-2.08Q1.41-1.78 2.18-1.57Q2.96-1.36 3.65-1.36L3.65-1.36Q4.48-1.36 4.85-1.62Q5.22-1.87 5.22-2.30L5.22-2.30Q5.22-2.56 5.07-2.76Q4.93-2.96 4.50-3.20Q4.08-3.44 3.25-3.79L3.25-3.79Q2.42-4.11 1.86-4.46Q1.31-4.80 1.03-5.26Q0.75-5.73 0.75-6.46L0.75-6.46Q0.75-7.63 1.67-8.23Q2.59-8.83 4.13-8.83L4.13-8.83Q4.93-8.83 5.64-8.67Q6.35-8.51 7.07-8.19L7.07-8.19L6.43-6.70Q5.82-6.96 5.25-7.14Q4.67-7.31 4.06-7.31L4.06-7.31Q2.74-7.31 2.74-6.56L2.74-6.56Q2.74-6.29 2.90-6.10Q3.07-5.90 3.50-5.69Q3.92-5.47 4.70-5.17L4.70-5.17Q5.47-4.86 6.03-4.54Q6.59-4.21 6.90-3.73Q7.20-3.25 7.20-2.51ZM12.50-1.46L12.50-1.46Q12.86-1.46 13.22-1.53Q13.58-1.60 13.89-1.70L13.89-1.70L13.89-0.19Q13.57-0.05 13.06 0.06Q12.54 0.16 11.98 0.16L11.98 0.16Q11.25 0.16 10.64-0.09Q10.03-0.34 9.68-0.94Q9.33-1.55 9.33-2.64L9.33-2.64L9.33-7.15L8.16-7.15L8.16-8.03L9.44-8.74L10.08-10.58L11.34-10.58L11.34-8.67L13.81-8.67L13.81-7.15L11.34-7.15L11.34-2.66Q11.34-2.05 11.66-1.75Q11.98-1.46 12.50-1.46ZM16.64-12.02L16.64-12.02Q17.10-12.02 17.43-11.78Q17.76-11.55 17.76-10.96L17.76-10.96Q17.76-10.37 17.43-10.13Q17.10-9.89 16.64-9.89L16.64-9.89Q16.18-9.89 15.85-10.13Q15.52-10.37 15.52-10.96L15.52-10.96Q15.52-11.55 15.85-11.78Q16.18-12.02 16.64-12.02ZM15.63-8.67L17.65-8.67L17.65 0L15.63 0L15.63-8.67ZM30.16-8.83L30.16-8.83Q31.63-8.83 32.38-8.08Q33.12-7.33 33.12-5.65L33.12-5.65L33.12 0L31.10 0L31.10-5.26Q31.10-7.20 29.63-7.20L29.63-7.20Q28.58-7.20 28.13-6.51Q27.68-5.82 27.68-4.51L27.68-4.51L27.68 0L25.66 0L25.66-5.26Q25.66-7.20 24.18-7.20L24.18-7.20Q23.07-7.20 22.66-6.43Q22.24-5.66 22.24-4.24L22.24-4.24L22.24 0L20.22 0L20.22-8.67L21.78-8.67L22.06-7.54L22.18-7.54Q22.56-8.21 23.26-8.52Q23.95-8.83 24.70-8.83L24.70-8.83Q25.68-8.83 26.34-8.50Q27.01-8.18 27.36-7.49L27.36-7.49L27.52-7.49Q27.92-8.19 28.64-8.51Q29.36-8.83 30.16-8.83ZM41.33-8.67L43.34-8.67L43.34 0L41.76 0L41.49-1.12L41.39-1.12Q40.96-0.45 40.23-0.14Q39.50 0.16 38.69 0.16L38.69 0.16Q37.23 0.16 36.41-0.59Q35.58-1.34 35.58-3.01L35.58-3.01L35.58-8.67L37.60-8.67L37.60-3.41Q37.60-1.47 39.20-1.47L39.20-1.47Q40.42-1.47 40.87-2.23Q41.33-2.99 41.33-4.43L41.33-4.43L41.33-8.67ZM47.94-12.16L47.94 0L45.92 0L45.92-12.16L47.94-12.16ZM56.19-8.67L58.21-8.67L58.21 0L56.62 0L56.35-1.12L56.26-1.12Q55.82-0.45 55.10-0.14Q54.37 0.16 53.55 0.16L53.55 0.16Q52.10 0.16 51.27-0.59Q50.45-1.34 50.45-3.01L50.45-3.01L50.45-8.67L52.46-8.67L52.46-3.41Q52.46-1.47 54.06-1.47L54.06-1.47Q55.28-1.47 55.74-2.23Q56.19-2.99 56.19-4.43L56.19-4.43L56.19-8.67ZM66.69-2.51L66.69-2.51Q66.69-1.20 65.75-0.52Q64.82 0.16 63.07 0.16L63.07 0.16Q62.16 0.16 61.51 0.03Q60.86-0.10 60.26-0.37L60.26-0.37L60.26-2.08Q60.90-1.78 61.67-1.57Q62.45-1.36 63.14-1.36L63.14-1.36Q63.97-1.36 64.34-1.62Q64.70-1.87 64.70-2.30L64.70-2.30Q64.70-2.56 64.56-2.76Q64.42-2.96 63.99-3.20Q63.57-3.44 62.74-3.79L62.74-3.79Q61.90-4.11 61.35-4.46Q60.80-4.80 60.52-5.26Q60.24-5.73 60.24-6.46L60.24-6.46Q60.24-7.63 61.16-8.23Q62.08-8.83 63.62-8.83L63.62-8.83Q64.42-8.83 65.13-8.67Q65.84-8.51 66.56-8.19L66.56-8.19L65.92-6.70Q65.31-6.96 64.74-7.14Q64.16-7.31 63.55-7.31L63.55-7.31Q62.22-7.31 62.22-6.56L62.22-6.56Q62.22-6.29 62.39-6.10Q62.56-5.90 62.98-5.69Q63.41-5.47 64.19-5.17L64.19-5.17Q64.96-4.86 65.52-4.54Q66.08-4.21 66.38-3.73Q66.69-3.25 66.69-2.51Z" transform="translate(0, 12.32)"/><rect x="0" y="0.16" width="67.328" height="12.32" class="clickable" style="cursor:pointer;fill:rgba(0, 0, 0, 0);fill-opacity:0;stroke-width:0px;"/></g><g id="sprotty_ArchitectureBlockImpl$work.mux_2_8_tb(RTL)/ProcessBlockImpl$stimulus/GPortImpl$d0" transform="translate(77.3280029296875, 10)" class="sprotty-hidden hidden" style="display:block;height:0px;width:0px;"/><g id="sprotty_ArchitectureBlockImpl$work.mux_2_8_tb(RTL)/ProcessBlockImpl$stimulus/GPortImpl$d1" transform="translate(77.3280029296875, 20)" class="sprotty-hidden hidden" style="display:block;height:0px;width:0px;"/><g id="sprotty_ArchitectureBlockImpl$work.mux_2_8_tb(RTL)/ProcessBlockImpl$stimulus/GPortImpl$s" transform="translate(77.3280029296875, 30)" class="sprotty-hidden hidden" style="display:block;height:0px;width:0px;"/></g><g id="sprotty_ArchitectureBlockImpl$work.mux_2_8_tb(RTL)/InstantiationBlockImpl$DUT" transform="translate(122.3280029296875, 35)" class="instantiation"><g class="sprotty-block" style="fill:rgb(245, 245, 245);stroke:rgb(48, 48, 48);stroke-dasharray:0px;"><rect x="0" y="0" rx="1" ry="1" width="113.35999999999999" height="103.87680053710938"/><path d="M14.83 10.18L14.83 10.18Q14.83 13.07 13.22 14.54Q11.60 16 8.70 16L8.70 16L5.49 16L5.49 4.58L9.04 4.58Q10.80 4.58 12.10 5.22Q13.41 5.86 14.12 7.10Q14.83 8.34 14.83 10.18ZM12.69 10.24L12.69 10.24Q12.69 8.19 11.75 7.23Q10.82 6.27 9.04 6.27L9.04 6.27L7.54 6.27L7.54 14.29L8.77 14.29Q12.69 14.29 12.69 10.24ZM24.29 4.58L26.32 4.58L26.32 11.97Q26.32 13.15 25.82 14.10Q25.31 15.06 24.29 15.61Q23.26 16.16 21.70 16.16L21.70 16.16Q19.47 16.16 18.32 15Q17.17 13.84 17.17 11.94L17.17 11.94L17.17 4.58L19.22 4.58L19.22 11.73Q19.22 13.14 19.86 13.78Q20.50 14.42 21.76 14.42L21.76 14.42Q23.09 14.42 23.69 13.72Q24.29 13.02 24.29 11.71L24.29 11.71L24.29 4.58ZM33.31 6.30L33.31 16L31.26 16L31.26 6.30L27.98 6.30L27.98 4.58L36.59 4.58L36.59 6.30L33.31 6.30ZM42.02 8.38L42.02 8.38Q42.02 7.70 42.37 7.42Q42.72 7.14 43.23 7.14L43.23 7.14Q43.73 7.14 44.10 7.42Q44.46 7.70 44.46 8.38L44.46 8.38Q44.46 9.04 44.10 9.33Q43.73 9.62 43.23 9.62L43.23 9.62Q42.72 9.62 42.37 9.33Q42.02 9.04 42.02 8.38ZM42.02 14.98L42.02 14.98Q42.02 14.30 42.37 14.02Q42.72 13.74 43.23 13.74L43.23 13.74Q43.73 13.74 44.10 14.02Q44.46 14.30 44.46 14.98L44.46 14.98Q44.46 15.63 44.10 15.92Q43.73 16.21 43.23 16.21L43.23 16.21Q42.72 16.21 42.37 15.92Q42.02 15.63 42.02 14.98ZM60.86 7.17L60.86 7.17Q62.34 7.17 63.08 7.92Q63.82 8.67 63.82 10.35L63.82 10.35L63.82 16L61.81 16L61.81 10.74Q61.81 8.80 60.34 8.80L60.34 8.80Q59.28 8.80 58.83 9.49Q58.38 10.18 58.38 11.49L58.38 11.49L58.38 16L56.37 16L56.37 10.74Q56.37 8.80 54.88 8.80L54.88 8.80Q53.78 8.80 53.36 9.57Q52.94 10.34 52.94 11.76L52.94 11.76L52.94 16L50.93 16L50.93 7.33L52.48 7.33L52.77 8.46L52.88 8.46Q53.26 7.79 53.96 7.48Q54.66 7.17 55.41 7.17L55.41 7.17Q56.38 7.17 57.05 7.50Q57.71 7.82 58.06 8.51L58.06 8.51L58.22 8.51Q58.62 7.81 59.34 7.49Q60.06 7.17 60.86 7.17ZM72.03 7.33L74.05 7.33L74.05 16L72.46 16L72.19 14.88L72.10 14.88Q71.66 15.55 70.94 15.86Q70.21 16.16 69.39 16.16L69.39 16.16Q67.94 16.16 67.11 15.41Q66.29 14.66 66.29 12.99L66.29 12.99L66.29 7.33L68.30 7.33L68.30 12.59Q68.30 14.53 69.90 14.53L69.90 14.53Q71.12 14.53 71.58 13.77Q72.03 13.01 72.03 11.57L72.03 11.57L72.03 7.33ZM75.49 16L78.50 11.57L75.63 7.33L77.92 7.33L79.81 10.27L81.70 7.33L83.98 7.33L81.09 11.57L84.13 16L81.84 16L79.81 12.85L77.78 16L75.49 16ZM92.80 14.26L92.80 16L84.98 16L84.98 14.51L87.89 11.57Q88.75 10.69 89.30 10.06Q89.86 9.44 90.12 8.89Q90.38 8.34 90.38 7.70L90.38 7.70Q90.38 6.91 89.94 6.52Q89.49 6.13 88.75 6.13L88.75 6.13Q88.03 6.13 87.41 6.42Q86.78 6.72 86.11 7.26L86.11 7.26L85.01 5.94Q85.71 5.33 86.61 4.87Q87.50 4.42 88.86 4.42L88.86 4.42Q89.97 4.42 90.77 4.81Q91.57 5.20 91.99 5.89Q92.42 6.58 92.42 7.49L92.42 7.49Q92.42 8.42 92.05 9.19Q91.68 9.97 90.98 10.74Q90.29 11.52 89.33 12.42L89.33 12.42L87.52 14.16L87.52 14.26L92.80 14.26ZM100.24 17.44L100.24 18.50L93.41 18.50L93.41 17.44L100.24 17.44ZM104.78 4.43L104.78 4.43Q105.78 4.43 106.58 4.74Q107.39 5.04 107.86 5.65Q108.34 6.26 108.34 7.17L108.34 7.17Q108.34 8.21 107.73 8.86Q107.12 9.52 106.24 9.97L106.24 9.97Q106.90 10.29 107.46 10.71Q108.02 11.14 108.36 11.70Q108.70 12.27 108.70 13.04L108.70 13.04Q108.70 14 108.21 14.70Q107.71 15.39 106.84 15.78Q105.97 16.16 104.80 16.16L104.80 16.16Q102.90 16.16 101.87 15.34Q100.85 14.53 100.85 13.10L100.85 13.10Q100.85 12.32 101.16 11.74Q101.47 11.15 101.98 10.74Q102.50 10.32 103.10 10.03L103.10 10.03Q102.32 9.55 101.77 8.87Q101.22 8.19 101.22 7.15L101.22 7.15Q101.22 6.26 101.70 5.65Q102.19 5.04 103.00 4.74Q103.81 4.43 104.78 4.43ZM104.77 5.95L104.77 5.95Q104.06 5.95 103.61 6.30Q103.15 6.66 103.15 7.30L103.15 7.30Q103.15 8 103.64 8.41Q104.13 8.82 104.80 9.14L104.80 9.14Q105.46 8.85 105.93 8.43Q106.40 8.02 106.40 7.30L106.40 7.30Q106.40 6.66 105.94 6.30Q105.49 5.95 104.77 5.95ZM102.77 13.01L102.77 13.01Q102.77 13.71 103.26 14.17Q103.76 14.62 104.77 14.62L104.77 14.62Q105.76 14.62 106.27 14.18Q106.78 13.73 106.78 13.01L106.78 13.01Q106.78 12.29 106.20 11.82Q105.62 11.34 104.85 10.98L104.85 10.98L104.62 10.86Q103.76 11.25 103.26 11.76Q102.77 12.27 102.77 13.01Z" class="sprotty-block-name" style="fill:rgb(48, 48, 48);stroke:rgba(0, 0, 0, 0);"/><line x1="0" y1="20" x2="113.35999999999999" y2="20"/></g><g id="sprotty_ArchitectureBlockImpl$work.mux_2_8_tb(RTL)/InstantiationBlockImpl$DUT/BPortImpl$s" transform="translate(0, 86.17940044403076)" class="triangle"><path d="M 0,0 L 5,2.5 L 0,5 Z" transform="translate(-1.67, -2.5)" class="sprotty-port" style="fill:rgb(48, 48, 48);stroke:rgb(48, 48, 48);"/><g class="port sprotty-label" id="sprotty_ArchitectureBlockImpl$work.mux_2_8_tb(RTL)/InstantiationBlockImpl$DUT/BPortImpl$s/label" transform="translate(3, -5.697400093078613) translate(0, -0.13300000131130219)" style="cursor:default;fill:rgb(48, 48, 48);font-family:Arial, Helvetica, sans-serif;text-anchor:middle;"><path d="M2.93 0.13L2.93 0.13Q2.18 0.13 1.64 0.01Q1.10-0.11 0.69-0.32L0.69-0.32L0.69-1.38Q1.12-1.17 1.72-0.99Q2.33-0.81 2.95-0.81L2.95-0.81Q3.84-0.81 4.24-1.10Q4.64-1.38 4.64-1.86L4.64-1.86Q4.64-2.13 4.50-2.34Q4.35-2.55 3.97-2.77Q3.59-2.98 2.89-3.25L2.89-3.25Q2.19-3.51 1.70-3.78Q1.21-4.04 0.94-4.42Q0.68-4.79 0.68-5.37L0.68-5.37Q0.68-6.28 1.42-6.77Q2.15-7.26 3.35-7.26L3.35-7.26Q4.00-7.26 4.57-7.14Q5.13-7.01 5.63-6.78L5.63-6.78L5.23-5.85Q4.77-6.04 4.28-6.17Q3.79-6.30 3.27-6.30L3.27-6.30Q2.55-6.30 2.17-6.07Q1.80-5.84 1.80-5.44L1.80-5.44Q1.80-5.15 1.97-4.94Q2.14-4.73 2.55-4.54Q2.95-4.35 3.63-4.08L3.63-4.08Q4.31-3.83 4.79-3.56Q5.27-3.29 5.52-2.91Q5.77-2.54 5.77-1.97L5.77-1.97Q5.77-0.93 5.00-0.40Q4.23 0.13 2.93 0.13Z" transform="translate(4, 9.3948)"/><rect x="0" y="0.133" width="14.3707" height="11.3948" class="clickable" style="cursor:pointer;fill:rgba(0, 0, 0, 0);fill-opacity:0;stroke-width:0px;"/></g></g><g id="sprotty_ArchitectureBlockImpl$work.mux_2_8_tb(RTL)/InstantiationBlockImpl$DUT/BPortImpl$d1" transform="translate(0, 63.36150026321411)" class="triangle"><path d="M 0,0 L 5,2.5 L 0,5 Z" transform="translate(-1.67, -2.5)" class="sprotty-port" style="fill:rgb(48, 48, 48);stroke:rgb(48, 48, 48);"/><g class="port sprotty-label" id="sprotty_ArchitectureBlockImpl$work.mux_2_8_tb(RTL)/InstantiationBlockImpl$DUT/BPortImpl$d1/label" transform="translate(3, -7.120500087738037) translate(0, -0.13300000131130219)" style="cursor:default;fill:rgb(48, 48, 48);font-family:Arial, Helvetica, sans-serif;text-anchor:middle;"><path d="M3.66 0.13L3.66 0.13Q2.33 0.13 1.53-0.79Q0.73-1.72 0.73-3.55L0.73-3.55Q0.73-5.39 1.54-6.32Q2.34-7.26 3.67-7.26L3.67-7.26Q4.50-7.26 5.02-6.96Q5.55-6.65 5.88-6.21L5.88-6.21L5.96-6.21Q5.95-6.38 5.91-6.72Q5.88-7.06 5.88-7.26L5.88-7.26L5.88-10.11L7.05-10.11L7.05 0L6.10 0L5.93-0.96L5.88-0.96Q5.56-0.51 5.03-0.19Q4.50 0.13 3.66 0.13ZM3.84-0.84L3.84-0.84Q4.97-0.84 5.43-1.46Q5.89-2.07 5.89-3.33L5.89-3.33L5.89-3.54Q5.89-4.87 5.45-5.58Q5.01-6.29 3.83-6.29L3.83-6.29Q2.89-6.29 2.41-5.54Q1.94-4.79 1.94-3.52L1.94-3.52Q1.94-2.25 2.41-1.54Q2.89-0.84 3.84-0.84ZM12.90 0L11.76 0L11.76-6.64Q11.76-7.21 11.77-7.55Q11.78-7.90 11.81-8.27L11.81-8.27Q11.60-8.07 11.42-7.92Q11.25-7.77 10.99-7.54L10.99-7.54L9.98-6.72L9.36-7.50L11.93-9.50L12.90-9.50L12.90 0Z" transform="translate(4, 12.241)"/><rect x="0" y="0.133" width="23.787100000000002" height="14.241" class="clickable" style="cursor:pointer;fill:rgba(0, 0, 0, 0);fill-opacity:0;stroke-width:0px;"/></g></g><g id="sprotty_ArchitectureBlockImpl$work.mux_2_8_tb(RTL)/InstantiationBlockImpl$DUT/BPortImpl$d0" transform="translate(0, 39.12050008773804)" class="triangle"><path d="M 0,0 L 5,2.5 L 0,5 Z" transform="translate(-1.67, -2.5)" class="sprotty-port" style="fill:rgb(48, 48, 48);stroke:rgb(48, 48, 48);"/><g class="port sprotty-label" id="sprotty_ArchitectureBlockImpl$work.mux_2_8_tb(RTL)/InstantiationBlockImpl$DUT/BPortImpl$d0/label" transform="translate(3, -7.120500087738037) translate(0, -0.13300000131130219)" style="cursor:default;fill:rgb(48, 48, 48);font-family:Arial, Helvetica, sans-serif;text-anchor:middle;"><path d="M3.66 0.13L3.66 0.13Q2.33 0.13 1.53-0.79Q0.73-1.72 0.73-3.55L0.73-3.55Q0.73-5.39 1.54-6.32Q2.34-7.26 3.67-7.26L3.67-7.26Q4.50-7.26 5.02-6.96Q5.55-6.65 5.88-6.21L5.88-6.21L5.96-6.21Q5.95-6.38 5.91-6.72Q5.88-7.06 5.88-7.26L5.88-7.26L5.88-10.11L7.05-10.11L7.05 0L6.10 0L5.93-0.96L5.88-0.96Q5.56-0.51 5.03-0.19Q4.50 0.13 3.66 0.13ZM3.84-0.84L3.84-0.84Q4.97-0.84 5.43-1.46Q5.89-2.07 5.89-3.33L5.89-3.33L5.89-3.54Q5.89-4.87 5.45-5.58Q5.01-6.29 3.83-6.29L3.83-6.29Q2.89-6.29 2.41-5.54Q1.94-4.79 1.94-3.52L1.94-3.52Q1.94-2.25 2.41-1.54Q2.89-0.84 3.84-0.84ZM11.97 0.13L11.97 0.13Q10.36 0.13 9.60-1.16Q8.83-2.46 8.83-4.76L8.83-4.76Q8.83-6.30 9.14-7.39Q9.46-8.49 10.15-9.06Q10.84-9.64 11.97-9.64L11.97-9.64Q13.57-9.64 14.35-8.36Q15.14-7.08 15.14-4.76L15.14-4.76Q15.14-3.23 14.82-2.13Q14.50-1.04 13.81-0.45Q13.11 0.13 11.97 0.13ZM11.97-0.86L11.97-0.86Q13.03-0.86 13.49-1.83Q13.95-2.79 13.95-4.76L13.95-4.76Q13.95-6.70 13.49-7.67Q13.03-8.65 11.97-8.65L11.97-8.65Q10.89-8.65 10.45-7.67Q10.00-6.70 10.00-4.76L10.00-4.76Q10.00-2.81 10.45-1.84Q10.89-0.86 11.97-0.86Z" transform="translate(4, 12.241)"/><rect x="0" y="0.133" width="23.787100000000002" height="14.241" class="clickable" style="cursor:pointer;fill:rgba(0, 0, 0, 0);fill-opacity:0;stroke-width:0px;"/></g></g><g id="sprotty_ArchitectureBlockImpl$work.mux_2_8_tb(RTL)/InstantiationBlockImpl$DUT/BPortImpl$y" transform="translate(113.359375, 61.93840026855469)" class="triangle"><path d="M 0,0 L 5,2.5 L 0,5 Z" transform="translate(-1.67, -2.5)" class="sprotty-port" style="fill:rgb(48, 48, 48);stroke:rgb(48, 48, 48);"/><g class="port sprotty-label" id="sprotty_ArchitectureBlockImpl$work.mux_2_8_tb(RTL)/InstantiationBlockImpl$DUT/BPortImpl$y/label" transform="translate(-17.782999992370605, -7.160400390625) translate(0, -3.191999912261963)" style="cursor:default;fill:rgb(48, 48, 48);font-family:Arial, Helvetica, sans-serif;text-anchor:middle;"><path d="M1.12 3.19L1.12 3.19Q0.80 3.19 0.56 3.16Q0.32 3.13 0.15 3.09L0.15 3.09L0.15 2.15Q0.29 2.18 0.50 2.21Q0.70 2.23 0.93 2.23L0.93 2.23Q1.54 2.23 1.92 1.89Q2.29 1.54 2.51 0.97L2.51 0.97L2.89 0.03L0.01-7.13L1.26-7.13L2.81-3.07Q3.01-2.54 3.17-2.05Q3.33-1.57 3.40-1.13L3.40-1.13L3.46-1.13Q3.54-1.46 3.70-2.00Q3.87-2.54 4.07-3.09L4.07-3.09L5.52-7.13L6.78-7.13L3.71 0.98Q3.34 2.00 2.75 2.59Q2.15 3.19 1.12 3.19Z" transform="translate(4, 12.320800000000002)"/><rect x="0" y="3.192" width="14.783000000000001" height="14.320800000000002" class="clickable" style="cursor:pointer;fill:rgba(0, 0, 0, 0);fill-opacity:0;stroke-width:0px;"/></g></g></g></g></g></svg>