<svg xmlns="http://www.w3.org/2000/svg" id="sprotty_inv" class="sprotty-graph sprotty-block-diagram blockdiagram" style="font-family:&quot;Helvetica Neue&quot;, Helvetica, Arial, sans-serif;line-height:18px;perspective-origin:0px 0px;transform-origin:0px 0px;z-index:0;" version="1.1" viewBox="9.5 12 136.4315625 77.32080078125"><g transform="scale(1) translate(0,0)"><g id="sprotty_ArchitectureBlockImpl$work.inv(synth)" transform="translate(12, 12)" class="architecture"><g class="sprotty-block" style="fill:rgb(245, 245, 245);stroke:rgb(48, 48, 48);stroke-dasharray:0px;"><rect x="0" y="0" rx="1" ry="1" width="129.6015625" height="77.32080078125"/><path d="M14.64 16L12.40 16L11.44 12.27Q11.36 11.97 11.25 11.51Q11.14 11.06 11.02 10.56Q10.90 10.06 10.80 9.65Q10.70 9.23 10.66 9.01L10.66 9.01L10.59 9.01Q10.54 9.23 10.45 9.65Q10.35 10.06 10.24 10.57Q10.13 11.07 10.01 11.53Q9.89 11.98 9.81 12.29L9.81 12.29L8.80 16L6.59 16L4.16 7.31L6.19 7.31L7.26 11.46Q7.38 11.89 7.48 12.41Q7.58 12.93 7.66 13.42Q7.73 13.90 7.78 14.21L7.78 14.21L7.84 14.21Q7.87 13.92 7.96 13.42Q8.05 12.93 8.14 12.46Q8.24 11.98 8.30 11.74L8.30 11.74L9.55 7.31L11.76 7.31L12.96 11.74Q13.02 12.03 13.13 12.50Q13.23 12.96 13.31 13.43Q13.39 13.90 13.41 14.19L13.41 14.19L13.47 14.19Q13.50 13.94 13.58 13.46Q13.66 12.98 13.78 12.43Q13.89 11.89 14.02 11.46L14.02 11.46L15.10 7.31L17.10 7.31L14.64 16ZM26.32 11.65L26.32 11.65Q26.32 13.81 25.20 14.98Q24.08 16.16 22.16 16.16L22.16 16.16Q20.98 16.16 20.05 15.63Q19.12 15.10 18.59 14.10Q18.06 13.09 18.06 11.65L18.06 11.65Q18.06 9.49 19.18 8.33Q20.29 7.17 22.21 7.17L22.21 7.17Q23.41 7.17 24.34 7.69Q25.26 8.21 25.79 9.21Q26.32 10.21 26.32 11.65ZM20.13 11.65L20.13 11.65Q20.13 13.02 20.62 13.78Q21.10 14.53 22.19 14.53L22.19 14.53Q23.28 14.53 23.77 13.78Q24.26 13.02 24.26 11.65L24.26 11.65Q24.26 10.27 23.77 9.54Q23.28 8.80 22.18 8.80L22.18 8.80Q21.10 8.80 20.62 9.54Q20.13 10.27 20.13 11.65ZM32.94 7.17L32.94 7.17Q33.15 7.17 33.40 7.18Q33.65 7.20 33.82 7.25L33.82 7.25L33.65 9.12Q33.49 9.09 33.26 9.06Q33.04 9.04 32.86 9.04L32.86 9.04Q32.22 9.04 31.66 9.30Q31.10 9.57 30.76 10.12Q30.42 10.67 30.42 11.50L30.42 11.50L30.42 16L28.40 16L28.40 7.33L29.95 7.33L30.24 8.83L30.34 8.83Q30.72 8.14 31.39 7.66Q32.06 7.17 32.94 7.17ZM35.42 3.84L37.42 3.84L37.42 9.62Q37.42 10.03 37.39 10.50Q37.36 10.96 37.33 11.38L37.33 11.38L37.38 11.38Q37.57 11.09 37.86 10.72Q38.14 10.35 38.40 10.06L38.40 10.06L40.96 7.33L43.25 7.33L39.78 11.07L43.47 16L41.12 16L38.43 12.29L37.42 13.12L37.42 16L35.42 16L35.42 3.84ZM44.54 14.98L44.54 14.98Q44.54 14.30 44.90 14.02Q45.25 13.74 45.76 13.74L45.76 13.74Q46.26 13.74 46.62 14.02Q46.99 14.30 46.99 14.98L46.99 14.98Q46.99 15.63 46.62 15.92Q46.26 16.21 45.76 16.21L45.76 16.21Q45.25 16.21 44.90 15.92Q44.54 15.63 44.54 14.98ZM50.30 3.98L50.30 3.98Q50.77 3.98 51.10 4.22Q51.42 4.45 51.42 5.04L51.42 5.04Q51.42 5.63 51.10 5.87Q50.77 6.11 50.30 6.11L50.30 6.11Q49.84 6.11 49.51 5.87Q49.18 5.63 49.18 5.04L49.18 5.04Q49.18 4.45 49.51 4.22Q49.84 3.98 50.30 3.98ZM49.30 7.33L51.31 7.33L51.31 16L49.30 16L49.30 7.33ZM58.53 7.17L58.53 7.17Q59.98 7.17 60.81 7.92Q61.63 8.67 61.63 10.35L61.63 10.35L61.63 16L59.62 16L59.62 10.75Q59.62 8.80 58.02 8.80L58.02 8.80Q56.80 8.80 56.35 9.57Q55.90 10.34 55.90 11.76L55.90 11.76L55.90 16L53.89 16L53.89 7.33L55.44 7.33L55.73 8.46L55.84 8.46Q56.26 7.79 56.98 7.48Q57.71 7.17 58.53 7.17ZM68.30 16L66.16 16L62.86 7.33L64.99 7.33L66.72 12.34Q66.88 12.80 67.02 13.36Q67.15 13.92 67.18 14.30L67.18 14.30L67.25 14.30Q67.30 13.90 67.44 13.35Q67.58 12.80 67.74 12.34L67.74 12.34L69.47 7.33L71.60 7.33L68.30 16ZM72.24 11.62L72.24 11.62Q72.24 9.66 72.81 7.85Q73.38 6.03 74.59 4.58L74.59 4.58L76.30 4.58Q75.20 6.08 74.64 7.89Q74.08 9.70 74.08 11.60L74.08 11.60Q74.08 13.46 74.64 15.25Q75.20 17.04 76.29 18.53L76.29 18.53L74.59 18.53Q73.38 17.12 72.81 15.34Q72.24 13.55 72.24 11.62ZM83.98 13.49L83.98 13.49Q83.98 14.80 83.05 15.48Q82.11 16.16 80.37 16.16L80.37 16.16Q79.46 16.16 78.81 16.03Q78.16 15.90 77.55 15.63L77.55 15.63L77.55 13.92Q78.19 14.22 78.97 14.43Q79.74 14.64 80.43 14.64L80.43 14.64Q81.26 14.64 81.63 14.38Q82.00 14.13 82.00 13.70L82.00 13.70Q82.00 13.44 81.86 13.24Q81.71 13.04 81.29 12.80Q80.86 12.56 80.03 12.21L80.03 12.21Q79.20 11.89 78.65 11.54Q78.10 11.20 77.82 10.74Q77.54 10.27 77.54 9.54L77.54 9.54Q77.54 8.37 78.46 7.77Q79.38 7.17 80.91 7.17L80.91 7.17Q81.71 7.17 82.42 7.33Q83.14 7.49 83.86 7.81L83.86 7.81L83.22 9.30Q82.61 9.04 82.03 8.86Q81.46 8.69 80.85 8.69L80.85 8.69Q79.52 8.69 79.52 9.44L79.52 9.44Q79.52 9.71 79.69 9.90Q79.86 10.10 80.28 10.31Q80.70 10.53 81.49 10.83L81.49 10.83Q82.26 11.14 82.82 11.46Q83.38 11.79 83.68 12.27Q83.98 12.75 83.98 13.49ZM88.10 15.97L84.62 7.33L86.82 7.33L88.54 12.22Q88.72 12.69 88.83 13.14Q88.94 13.58 88.99 14.05L88.99 14.05L89.06 14.05Q89.12 13.65 89.25 13.17Q89.38 12.69 89.54 12.22L89.54 12.22L91.20 7.33L93.38 7.33L89.68 17.15Q89.18 18.45 88.33 19.14Q87.47 19.84 86.22 19.84L86.22 19.84Q85.82 19.84 85.54 19.80Q85.25 19.76 85.02 19.71L85.02 19.71L85.02 18.11Q85.20 18.14 85.45 18.18Q85.70 18.21 85.97 18.21L85.97 18.21Q86.72 18.21 87.16 17.77Q87.60 17.33 87.84 16.67L87.84 16.67L88.10 15.97ZM99.31 7.17L99.31 7.17Q100.77 7.17 101.59 7.92Q102.42 8.67 102.42 10.35L102.42 10.35L102.42 16L100.40 16L100.40 10.75Q100.40 8.80 98.80 8.80L98.80 8.80Q97.58 8.80 97.14 9.57Q96.69 10.34 96.69 11.76L96.69 11.76L96.69 16L94.67 16L94.67 7.33L96.22 7.33L96.51 8.46L96.62 8.46Q97.04 7.79 97.77 7.48Q98.50 7.17 99.31 7.17ZM108.30 14.54L108.30 14.54Q108.67 14.54 109.03 14.47Q109.39 14.40 109.70 14.30L109.70 14.30L109.70 15.81Q109.38 15.95 108.86 16.06Q108.35 16.16 107.79 16.16L107.79 16.16Q107.06 16.16 106.45 15.91Q105.84 15.66 105.49 15.06Q105.14 14.45 105.14 13.36L105.14 13.36L105.14 8.85L103.97 8.85L103.97 7.97L105.25 7.26L105.89 5.42L107.15 5.42L107.15 7.33L109.62 7.33L109.62 8.85L107.15 8.85L107.15 13.34Q107.15 13.95 107.47 14.25Q107.79 14.54 108.30 14.54ZM111.44 3.84L113.46 3.84L113.46 6.74Q113.46 7.25 113.42 7.74Q113.38 8.22 113.34 8.46L113.34 8.46L113.47 8.46Q113.89 7.81 114.56 7.49Q115.23 7.17 116.05 7.17L116.05 7.17Q117.52 7.17 118.35 7.92Q119.18 8.67 119.18 10.35L119.18 10.35L119.18 16L117.17 16L117.17 10.75Q117.17 8.80 115.57 8.80L115.57 8.80Q114.35 8.80 113.90 9.57Q113.46 10.34 113.46 11.76L113.46 11.76L113.46 16L111.44 16L111.44 3.84ZM124.96 11.62L124.96 11.62Q124.96 13.55 124.39 15.34Q123.82 17.12 122.61 18.53L122.61 18.53L120.91 18.53Q122.00 17.04 122.57 15.25Q123.14 13.46 123.14 11.60L123.14 11.60Q123.14 9.70 122.57 7.89Q122.00 6.08 120.90 4.58L120.90 4.58L122.61 4.58Q123.82 6.03 124.39 7.85Q124.96 9.66 124.96 11.62Z" class="sprotty-block-name" style="fill:rgb(48, 48, 48);stroke:rgba(0, 0, 0, 0);"/><line x1="0" y1="20" x2="129.6015625" y2="20"/></g><g id="sprotty_ArchitectureBlockImpl$work.inv(synth)/GPortImpl$a_to_ArchitectureBlockImpl$work.inv(synth)/AssignmentBlockImpl$null2/GPortImpl$a" class="sprotty-edge thick edge" style="fill:none;stroke:rgb(112, 112, 112);stroke-linejoin:round;stroke-width:3px;"><path d="M 0 45 L 33.461299896240234 45 "/></g><g id="sprotty_ArchitectureBlockImpl$work.inv(synth)/AssignmentBlockImpl$null2/GPortImpl$y_to_ArchitectureBlockImpl$work.inv(synth)/GPortImpl$y" class="sprotty-edge thick edge" style="fill:none;stroke:rgb(112, 112, 112);stroke-linejoin:round;stroke-width:3px;"><path d="M 51.091779708862305 45 L 129.6015625 45 "/></g><g id="sprotty_ArchitectureBlockImpl$work.inv(synth)/AssignmentBlockImpl$null2" transform="translate(33.461299896240234, 35)" class="statement"><rect x="0" y="0" rx="10" ry="5" width="17.63047981262207" height="20" class="sprotty-node" style="fill:rgb(245, 245, 245);stroke:rgb(112, 112, 112);"/><g id="sprotty_ArchitectureBlockImpl$work.inv(synth)/AssignmentBlockImpl$null2/label" transform="translate(5, 8.28515625) translate(0, 0.700526237487793)" class="sprotty-label statement" style="cursor:default;fill:rgb(48, 48, 48);font-family:Arial, Helvetica, sans-serif;text-anchor:middle;"><path d="M3.50-1.39L3.50-0.70L0.31-2.11L0.31-2.53L3.50-4.13L3.50-3.44L1.17-2.35L3.50-1.39ZM7.30-2.68L4.14-2.68L4.14-3.30L7.30-3.30L7.30-2.68ZM7.30-1.39L4.14-1.39L4.14-2.01L7.30-2.01L7.30-1.39Z" transform="translate(0, 3.42838)"/><rect x="0" y="-0.7003499999999999" width="7.6304799999999995" height="3.42838" class="clickable" style="cursor:pointer;fill:rgba(0, 0, 0, 0);fill-opacity:0;stroke-width:0px;"/></g><g id="sprotty_ArchitectureBlockImpl$work.inv(synth)/AssignmentBlockImpl$null2/GPortImpl$a" transform="translate(0, 10)" class="sprotty-hidden hidden" style="display:block;height:0px;width:0px;"/><g id="sprotty_ArchitectureBlockImpl$work.inv(synth)/AssignmentBlockImpl$null2/GPortImpl$y" transform="translate(17.63047981262207, 10)" class="sprotty-hidden hidden" style="display:block;height:0px;width:0px;"/></g><g id="sprotty_ArchitectureBlockImpl$work.inv(synth)/GPortImpl$a" transform="translate(0, 45)" class="triangle"><path d="M 0,0 L 5,2.5 L 0,5 Z" transform="translate(-1.67, -2.5)" class="sprotty-port" style="fill:rgb(48, 48, 48);stroke:rgb(48, 48, 48);"/><g class="port sprotty-label" id="sprotty_ArchitectureBlockImpl$work.inv(synth)/GPortImpl$a/label" transform="translate(3, 3) translate(0, -0.13300000131130219)" style="cursor:default;fill:rgb(48, 48, 48);font-family:Arial, Helvetica, sans-serif;text-anchor:middle;"><path d="M2.86 0.13L2.86 0.13Q1.89 0.13 1.25-0.38Q0.61-0.89 0.61-1.98L0.61-1.98Q0.61-3.05 1.45-3.62Q2.29-4.20 4.03-4.26L4.03-4.26L5.24-4.30L5.24-4.72Q5.24-5.61 4.85-5.96Q4.47-6.30 3.76-6.30L3.76-6.30Q3.21-6.30 2.70-6.14Q2.19-5.97 1.76-5.76L1.76-5.76L1.40-6.64Q1.86-6.89 2.50-7.07Q3.14-7.25 3.83-7.25L3.83-7.25Q5.13-7.25 5.76-6.68Q6.38-6.10 6.38-4.85L6.38-4.85L6.38 0L5.53 0L5.31-1.01L5.25-1.01Q4.79-0.43 4.28-0.15Q3.76 0.13 2.86 0.13ZM3.13-0.81L3.13-0.81Q4.03-0.81 4.63-1.31Q5.23-1.81 5.23-2.85L5.23-2.85L5.23-3.48L4.18-3.44Q2.85-3.39 2.33-3.02Q1.82-2.65 1.82-1.97L1.82-1.97Q1.82-1.37 2.19-1.09Q2.55-0.81 3.13-0.81Z" transform="translate(4, 9.3815)"/><rect x="0" y="0.133" width="15.461300000000001" height="11.3815" class="clickable" style="cursor:pointer;fill:rgba(0, 0, 0, 0);fill-opacity:0;stroke-width:0px;"/></g></g><g id="sprotty_ArchitectureBlockImpl$work.inv(synth)/GPortImpl$y" transform="translate(129.6015625, 45)" class="triangle"><path d="M 0,0 L 5,2.5 L 0,5 Z" transform="translate(-1.67, -2.5)" class="sprotty-port" style="fill:rgb(48, 48, 48);stroke:rgb(48, 48, 48);"/><g class="port sprotty-label" id="sprotty_ArchitectureBlockImpl$work.inv(synth)/GPortImpl$y/label" transform="translate(-17.782999992370605, 3) translate(0, -3.191999912261963)" style="cursor:default;fill:rgb(48, 48, 48);font-family:Arial, Helvetica, sans-serif;text-anchor:middle;"><path d="M1.12 3.19L1.12 3.19Q0.80 3.19 0.56 3.16Q0.32 3.13 0.15 3.09L0.15 3.09L0.15 2.15Q0.29 2.18 0.50 2.21Q0.70 2.23 0.93 2.23L0.93 2.23Q1.54 2.23 1.92 1.89Q2.29 1.54 2.51 0.97L2.51 0.97L2.89 0.03L0.01-7.13L1.26-7.13L2.81-3.07Q3.01-2.54 3.17-2.05Q3.33-1.57 3.40-1.13L3.40-1.13L3.46-1.13Q3.54-1.46 3.70-2.00Q3.87-2.54 4.07-3.09L4.07-3.09L5.52-7.13L6.78-7.13L3.71 0.98Q3.34 2.00 2.75 2.59Q2.15 3.19 1.12 3.19Z" transform="translate(4, 12.320800000000002)"/><rect x="0" y="3.192" width="14.783000000000001" height="14.320800000000002" class="clickable" style="cursor:pointer;fill:rgba(0, 0, 0, 0);fill-opacity:0;stroke-width:0px;"/></g></g></g></g></svg>