<svg xmlns="http://www.w3.org/2000/svg" id="sprotty_inv_tv" class="sprotty-graph sprotty-block-diagram blockdiagram" style="font-family:&quot;Helvetica Neue&quot;, Helvetica, Arial, sans-serif;line-height:18px;perspective-origin:0px 0px;transform-origin:0px 0px;z-index:0;" version="1.1" viewBox="9.5 12 211.3884716796875 108.32080078125"><g transform="scale(1) translate(0,0)"><g id="sprotty_ArchitectureBlockImpl$work.inv_tv(RTL)" transform="translate(12, 12)" class="architecture"><g class="sprotty-block" style="fill:rgb(245, 245, 245);stroke:rgb(48, 48, 48);stroke-dasharray:0px;"><rect x="0" y="0" rx="1" ry="1" width="204.5584716796875" height="108.32080078125"/><path d="M48.81 16L46.57 16L45.61 12.27Q45.53 11.97 45.42 11.51Q45.30 11.06 45.18 10.56Q45.06 10.06 44.97 9.65Q44.87 9.23 44.82 9.01L44.82 9.01L44.76 9.01Q44.71 9.23 44.62 9.65Q44.52 10.06 44.41 10.57Q44.30 11.07 44.18 11.53Q44.06 11.98 43.98 12.29L43.98 12.29L42.97 16L40.76 16L38.33 7.31L40.36 7.31L41.43 11.46Q41.54 11.89 41.65 12.41Q41.75 12.93 41.82 13.42Q41.90 13.90 41.94 14.21L41.94 14.21L42.01 14.21Q42.04 13.92 42.13 13.42Q42.22 12.93 42.31 12.46Q42.41 11.98 42.47 11.74L42.47 11.74L43.72 7.31L45.93 7.31L47.13 11.74Q47.19 12.03 47.30 12.50Q47.40 12.96 47.48 13.43Q47.56 13.90 47.58 14.19L47.58 14.19L47.64 14.19Q47.67 13.94 47.75 13.46Q47.83 12.98 47.94 12.43Q48.06 11.89 48.18 11.46L48.18 11.46L49.27 7.31L51.27 7.31L48.81 16ZM60.49 11.65L60.49 11.65Q60.49 13.81 59.37 14.98Q58.25 16.16 56.33 16.16L56.33 16.16Q55.14 16.16 54.22 15.63Q53.29 15.10 52.76 14.10Q52.23 13.09 52.23 11.65L52.23 11.65Q52.23 9.49 53.34 8.33Q54.46 7.17 56.38 7.17L56.38 7.17Q57.58 7.17 58.50 7.69Q59.43 8.21 59.96 9.21Q60.49 10.21 60.49 11.65ZM54.30 11.65L54.30 11.65Q54.30 13.02 54.78 13.78Q55.27 14.53 56.36 14.53L56.36 14.53Q57.45 14.53 57.94 13.78Q58.42 13.02 58.42 11.65L58.42 11.65Q58.42 10.27 57.94 9.54Q57.45 8.80 56.34 8.80L56.34 8.80Q55.27 8.80 54.78 9.54Q54.30 10.27 54.30 11.65ZM67.11 7.17L67.11 7.17Q67.32 7.17 67.57 7.18Q67.82 7.20 67.99 7.25L67.99 7.25L67.82 9.12Q67.66 9.09 67.43 9.06Q67.21 9.04 67.03 9.04L67.03 9.04Q66.39 9.04 65.83 9.30Q65.27 9.57 64.93 10.12Q64.58 10.67 64.58 11.50L64.58 11.50L64.58 16L62.57 16L62.57 7.33L64.12 7.33L64.41 8.83L64.50 8.83Q64.89 8.14 65.56 7.66Q66.23 7.17 67.11 7.17ZM69.59 3.84L71.59 3.84L71.59 9.62Q71.59 10.03 71.56 10.50Q71.53 10.96 71.50 11.38L71.50 11.38L71.54 11.38Q71.74 11.09 72.02 10.72Q72.31 10.35 72.57 10.06L72.57 10.06L75.13 7.33L77.42 7.33L73.94 11.07L77.64 16L75.29 16L72.60 12.29L71.59 13.12L71.59 16L69.59 16L69.59 3.84ZM78.71 14.98L78.71 14.98Q78.71 14.30 79.06 14.02Q79.42 13.74 79.93 13.74L79.93 13.74Q80.42 13.74 80.79 14.02Q81.16 14.30 81.16 14.98L81.16 14.98Q81.16 15.63 80.79 15.92Q80.42 16.21 79.93 16.21L79.93 16.21Q79.42 16.21 79.06 15.92Q78.71 15.63 78.71 14.98ZM84.47 3.98L84.47 3.98Q84.94 3.98 85.26 4.22Q85.59 4.45 85.59 5.04L85.59 5.04Q85.59 5.63 85.26 5.87Q84.94 6.11 84.47 6.11L84.47 6.11Q84.01 6.11 83.68 5.87Q83.35 5.63 83.35 5.04L83.35 5.04Q83.35 4.45 83.68 4.22Q84.01 3.98 84.47 3.98ZM83.46 7.33L85.48 7.33L85.48 16L83.46 16L83.46 7.33ZM92.70 7.17L92.70 7.17Q94.15 7.17 94.98 7.92Q95.80 8.67 95.80 10.35L95.80 10.35L95.80 16L93.78 16L93.78 10.75Q93.78 8.80 92.18 8.80L92.18 8.80Q90.97 8.80 90.52 9.57Q90.07 10.34 90.07 11.76L90.07 11.76L90.07 16L88.06 16L88.06 7.33L89.61 7.33L89.90 8.46L90.01 8.46Q90.42 7.79 91.15 7.48Q91.88 7.17 92.70 7.17ZM102.47 16L100.33 16L97.03 7.33L99.16 7.33L100.89 12.34Q101.05 12.80 101.18 13.36Q101.32 13.92 101.35 14.30L101.35 14.30L101.42 14.30Q101.46 13.90 101.61 13.35Q101.75 12.80 101.91 12.34L101.91 12.34L103.64 7.33L105.77 7.33L102.47 16ZM112.57 17.44L112.57 18.50L105.74 18.50L105.74 17.44L112.57 17.44ZM117.19 14.54L117.19 14.54Q117.56 14.54 117.92 14.47Q118.28 14.40 118.58 14.30L118.58 14.30L118.58 15.81Q118.26 15.95 117.75 16.06Q117.24 16.16 116.68 16.16L116.68 16.16Q115.94 16.16 115.34 15.91Q114.73 15.66 114.38 15.06Q114.02 14.45 114.02 13.36L114.02 13.36L114.02 8.85L112.86 8.85L112.86 7.97L114.14 7.26L114.78 5.42L116.04 5.42L116.04 7.33L118.50 7.33L118.50 8.85L116.04 8.85L116.04 13.34Q116.04 13.95 116.36 14.25Q116.68 14.54 117.19 14.54ZM124.47 16L122.33 16L119.03 7.33L121.16 7.33L122.89 12.34Q123.05 12.80 123.18 13.36Q123.32 13.92 123.35 14.30L123.35 14.30L123.42 14.30Q123.46 13.90 123.61 13.35Q123.75 12.80 123.91 12.34L123.91 12.34L125.64 7.33L127.77 7.33L124.47 16ZM128.41 11.62L128.41 11.62Q128.41 9.66 128.98 7.85Q129.54 6.03 130.76 4.58L130.76 4.58L132.47 4.58Q131.37 6.08 130.81 7.89Q130.25 9.70 130.25 11.60L130.25 11.60Q130.25 13.46 130.81 15.25Q131.37 17.04 132.46 18.53L132.46 18.53L130.76 18.53Q129.54 17.12 128.98 15.34Q128.41 13.55 128.41 11.62ZM134.44 4.58L137.69 4.58Q139.94 4.58 141.02 5.41Q142.10 6.24 142.10 7.94L142.10 7.94Q142.10 8.77 141.79 9.36Q141.48 9.95 140.98 10.34Q140.49 10.74 139.91 10.98L139.91 10.98L143.19 16L140.89 16L138.15 11.49L136.49 11.49L136.49 16L134.44 16L134.44 4.58ZM137.56 6.29L137.56 6.29L136.49 6.29L136.49 9.81L137.62 9.81Q138.89 9.81 139.46 9.35Q140.02 8.90 140.02 8L140.02 8Q140.02 7.07 139.42 6.68Q138.82 6.29 137.56 6.29ZM148.87 6.30L148.87 16L146.82 16L146.82 6.30L143.54 6.30L143.54 4.58L152.15 4.58L152.15 6.30L148.87 6.30ZM160.71 16L153.90 16L153.90 4.58L155.94 4.58L155.94 14.27L160.71 14.27L160.71 16ZM165.75 11.62L165.75 11.62Q165.75 13.55 165.18 15.34Q164.62 17.12 163.40 18.53L163.40 18.53L161.70 18.53Q162.79 17.04 163.36 15.25Q163.93 13.46 163.93 11.60L163.93 11.60Q163.93 9.70 163.36 7.89Q162.79 6.08 161.69 4.58L161.69 4.58L163.40 4.58Q164.62 6.03 165.18 7.85Q165.75 9.66 165.75 11.62Z" class="sprotty-block-name" style="fill:rgb(48, 48, 48);stroke:rgba(0, 0, 0, 0);"/><line x1="0" y1="20" x2="204.5584716796875" y2="20"/></g><g id="sprotty_ArchitectureBlockImpl$work.inv_tv(RTL)/ProcessBlockImpl$stimulus/GPortImpl$a_to_ArchitectureBlockImpl$work.inv_tv(RTL)/InstantiationBlockImpl$DUT/BPortImpl$a" class="sprotty-edge thick edge" style="fill:none;stroke:rgb(112, 112, 112);stroke-linejoin:round;stroke-width:3px;"><path d="M 92.3280029296875 74.160400390625 L 112.3280029296875 74.160400390625 "/></g><g id="sprotty_ArchitectureBlockImpl$work.inv_tv(RTL)/InstantiationBlockImpl$DUT" transform="translate(112.3280029296875, 35)" class="instantiation"><g class="sprotty-block" style="fill:rgb(245, 245, 245);stroke:rgb(48, 48, 48);stroke-dasharray:0px;"><rect x="0" y="0" rx="1" ry="1" width="77.23199999999999" height="58.32080078125"/><path d="M14.83 10.18L14.83 10.18Q14.83 13.07 13.22 14.54Q11.60 16 8.70 16L8.70 16L5.49 16L5.49 4.58L9.04 4.58Q10.80 4.58 12.10 5.22Q13.41 5.86 14.12 7.10Q14.83 8.34 14.83 10.18ZM12.69 10.24L12.69 10.24Q12.69 8.19 11.75 7.23Q10.82 6.27 9.04 6.27L9.04 6.27L7.54 6.27L7.54 14.29L8.77 14.29Q12.69 14.29 12.69 10.24ZM24.29 4.58L26.32 4.58L26.32 11.97Q26.32 13.15 25.82 14.10Q25.31 15.06 24.29 15.61Q23.26 16.16 21.70 16.16L21.70 16.16Q19.47 16.16 18.32 15Q17.17 13.84 17.17 11.94L17.17 11.94L17.17 4.58L19.22 4.58L19.22 11.73Q19.22 13.14 19.86 13.78Q20.50 14.42 21.76 14.42L21.76 14.42Q23.09 14.42 23.69 13.72Q24.29 13.02 24.29 11.71L24.29 11.71L24.29 4.58ZM33.31 6.30L33.31 16L31.26 16L31.26 6.30L27.98 6.30L27.98 4.58L36.59 4.58L36.59 6.30L33.31 6.30ZM42.02 8.38L42.02 8.38Q42.02 7.70 42.37 7.42Q42.72 7.14 43.23 7.14L43.23 7.14Q43.73 7.14 44.10 7.42Q44.46 7.70 44.46 8.38L44.46 8.38Q44.46 9.04 44.10 9.33Q43.73 9.62 43.23 9.62L43.23 9.62Q42.72 9.62 42.37 9.33Q42.02 9.04 42.02 8.38ZM42.02 14.98L42.02 14.98Q42.02 14.30 42.37 14.02Q42.72 13.74 43.23 13.74L43.23 13.74Q43.73 13.74 44.10 14.02Q44.46 14.30 44.46 14.98L44.46 14.98Q44.46 15.63 44.10 15.92Q43.73 16.21 43.23 16.21L43.23 16.21Q42.72 16.21 42.37 15.92Q42.02 15.63 42.02 14.98ZM51.94 3.98L51.94 3.98Q52.40 3.98 52.73 4.22Q53.06 4.45 53.06 5.04L53.06 5.04Q53.06 5.63 52.73 5.87Q52.40 6.11 51.94 6.11L51.94 6.11Q51.47 6.11 51.14 5.87Q50.82 5.63 50.82 5.04L50.82 5.04Q50.82 4.45 51.14 4.22Q51.47 3.98 51.94 3.98ZM50.93 7.33L52.94 7.33L52.94 16L50.93 16L50.93 7.33ZM60.16 7.17L60.16 7.17Q61.62 7.17 62.44 7.92Q63.26 8.67 63.26 10.35L63.26 10.35L63.26 16L61.25 16L61.25 10.75Q61.25 8.80 59.65 8.80L59.65 8.80Q58.43 8.80 57.98 9.57Q57.54 10.34 57.54 11.76L57.54 11.76L57.54 16L55.52 16L55.52 7.33L57.07 7.33L57.36 8.46L57.47 8.46Q57.89 7.79 58.62 7.48Q59.34 7.17 60.16 7.17ZM69.94 16L67.79 16L64.50 7.33L66.62 7.33L68.35 12.34Q68.51 12.80 68.65 13.36Q68.78 13.92 68.82 14.30L68.82 14.30L68.88 14.30Q68.93 13.90 69.07 13.35Q69.22 12.80 69.38 12.34L69.38 12.34L71.10 7.33L73.23 7.33L69.94 16Z" class="sprotty-block-name" style="fill:rgb(48, 48, 48);stroke:rgba(0, 0, 0, 0);"/><line x1="0" y1="20" x2="77.23199999999999" y2="20"/></g><g id="sprotty_ArchitectureBlockImpl$work.inv_tv(RTL)/InstantiationBlockImpl$DUT/BPortImpl$a" transform="translate(0, 39.160400390625)" class="triangle"><path d="M 0,0 L 5,2.5 L 0,5 Z" transform="translate(-1.67, -2.5)" class="sprotty-port" style="fill:rgb(48, 48, 48);stroke:rgb(48, 48, 48);"/><g class="port sprotty-label" id="sprotty_ArchitectureBlockImpl$work.inv_tv(RTL)/InstantiationBlockImpl$DUT/BPortImpl$a/label" transform="translate(3, -5.6907501220703125) translate(0, -0.13300000131130219)" style="cursor:default;fill:rgb(48, 48, 48);font-family:Arial, Helvetica, sans-serif;text-anchor:middle;"><path d="M2.86 0.13L2.86 0.13Q1.89 0.13 1.25-0.38Q0.61-0.89 0.61-1.98L0.61-1.98Q0.61-3.05 1.45-3.62Q2.29-4.20 4.03-4.26L4.03-4.26L5.24-4.30L5.24-4.72Q5.24-5.61 4.85-5.96Q4.47-6.30 3.76-6.30L3.76-6.30Q3.21-6.30 2.70-6.14Q2.19-5.97 1.76-5.76L1.76-5.76L1.40-6.64Q1.86-6.89 2.50-7.07Q3.14-7.25 3.83-7.25L3.83-7.25Q5.13-7.25 5.76-6.68Q6.38-6.10 6.38-4.85L6.38-4.85L6.38 0L5.53 0L5.31-1.01L5.25-1.01Q4.79-0.43 4.28-0.15Q3.76 0.13 2.86 0.13ZM3.13-0.81L3.13-0.81Q4.03-0.81 4.63-1.31Q5.23-1.81 5.23-2.85L5.23-2.85L5.23-3.48L4.18-3.44Q2.85-3.39 2.33-3.02Q1.82-2.65 1.82-1.97L1.82-1.97Q1.82-1.37 2.19-1.09Q2.55-0.81 3.13-0.81Z" transform="translate(4, 9.3815)"/><rect x="0" y="0.133" width="15.461300000000001" height="11.3815" class="clickable" style="cursor:pointer;fill:rgba(0, 0, 0, 0);fill-opacity:0;stroke-width:0px;"/></g></g><g id="sprotty_ArchitectureBlockImpl$work.inv_tv(RTL)/InstantiationBlockImpl$DUT/BPortImpl$y" transform="translate(77.23046875, 39.160400390625)" class="triangle"><path d="M 0,0 L 5,2.5 L 0,5 Z" transform="translate(-1.67, -2.5)" class="sprotty-port" style="fill:rgb(48, 48, 48);stroke:rgb(48, 48, 48);"/><g class="port sprotty-label" id="sprotty_ArchitectureBlockImpl$work.inv_tv(RTL)/InstantiationBlockImpl$DUT/BPortImpl$y/label" transform="translate(-17.782999992370605, -7.160400390625) translate(0, -3.191999912261963)" style="cursor:default;fill:rgb(48, 48, 48);font-family:Arial, Helvetica, sans-serif;text-anchor:middle;"><path d="M1.12 3.19L1.12 3.19Q0.80 3.19 0.56 3.16Q0.32 3.13 0.15 3.09L0.15 3.09L0.15 2.15Q0.29 2.18 0.50 2.21Q0.70 2.23 0.93 2.23L0.93 2.23Q1.54 2.23 1.92 1.89Q2.29 1.54 2.51 0.97L2.51 0.97L2.89 0.03L0.01-7.13L1.26-7.13L2.81-3.07Q3.01-2.54 3.17-2.05Q3.33-1.57 3.40-1.13L3.40-1.13L3.46-1.13Q3.54-1.46 3.70-2.00Q3.87-2.54 4.07-3.09L4.07-3.09L5.52-7.13L6.78-7.13L3.71 0.98Q3.34 2.00 2.75 2.59Q2.15 3.19 1.12 3.19Z" transform="translate(4, 12.320800000000002)"/><rect x="0" y="3.192" width="14.783000000000001" height="14.320800000000002" class="clickable" style="cursor:pointer;fill:rgba(0, 0, 0, 0);fill-opacity:0;stroke-width:0px;"/></g></g></g><g id="sprotty_ArchitectureBlockImpl$work.inv_tv(RTL)/ProcessBlockImpl$stimulus" transform="translate(15, 63.000244140625)" class="statement"><rect x="0" y="0" rx="10" ry="5" width="77.3280029296875" height="22.3203125" class="sprotty-node" style="fill:rgb(245, 245, 245);stroke:rgb(112, 112, 112);"/><g id="sprotty_ArchitectureBlockImpl$work.inv_tv(RTL)/ProcessBlockImpl$stimulus/label" transform="translate(5, 5) translate(0, -0.15984344482421875)" class="sprotty-label process" style="cursor:default;fill:rgb(48, 48, 48);font-family:Arial, Helvetica, sans-serif;text-anchor:middle;"><path d="M7.20-2.51L7.20-2.51Q7.20-1.20 6.26-0.52Q5.33 0.16 3.58 0.16L3.58 0.16Q2.67 0.16 2.02 0.03Q1.38-0.10 0.77-0.37L0.77-0.37L0.77-2.08Q1.41-1.78 2.18-1.57Q2.96-1.36 3.65-1.36L3.65-1.36Q4.48-1.36 4.85-1.62Q5.22-1.87 5.22-2.30L5.22-2.30Q5.22-2.56 5.07-2.76Q4.93-2.96 4.50-3.20Q4.08-3.44 3.25-3.79L3.25-3.79Q2.42-4.11 1.86-4.46Q1.31-4.80 1.03-5.26Q0.75-5.73 0.75-6.46L0.75-6.46Q0.75-7.63 1.67-8.23Q2.59-8.83 4.13-8.83L4.13-8.83Q4.93-8.83 5.64-8.67Q6.35-8.51 7.07-8.19L7.07-8.19L6.43-6.70Q5.82-6.96 5.25-7.14Q4.67-7.31 4.06-7.31L4.06-7.31Q2.74-7.31 2.74-6.56L2.74-6.56Q2.74-6.29 2.90-6.10Q3.07-5.90 3.50-5.69Q3.92-5.47 4.70-5.17L4.70-5.17Q5.47-4.86 6.03-4.54Q6.59-4.21 6.90-3.73Q7.20-3.25 7.20-2.51ZM12.50-1.46L12.50-1.46Q12.86-1.46 13.22-1.53Q13.58-1.60 13.89-1.70L13.89-1.70L13.89-0.19Q13.57-0.05 13.06 0.06Q12.54 0.16 11.98 0.16L11.98 0.16Q11.25 0.16 10.64-0.09Q10.03-0.34 9.68-0.94Q9.33-1.55 9.33-2.64L9.33-2.64L9.33-7.15L8.16-7.15L8.16-8.03L9.44-8.74L10.08-10.58L11.34-10.58L11.34-8.67L13.81-8.67L13.81-7.15L11.34-7.15L11.34-2.66Q11.34-2.05 11.66-1.75Q11.98-1.46 12.50-1.46ZM16.64-12.02L16.64-12.02Q17.10-12.02 17.43-11.78Q17.76-11.55 17.76-10.96L17.76-10.96Q17.76-10.37 17.43-10.13Q17.10-9.89 16.64-9.89L16.64-9.89Q16.18-9.89 15.85-10.13Q15.52-10.37 15.52-10.96L15.52-10.96Q15.52-11.55 15.85-11.78Q16.18-12.02 16.64-12.02ZM15.63-8.67L17.65-8.67L17.65 0L15.63 0L15.63-8.67ZM30.16-8.83L30.16-8.83Q31.63-8.83 32.38-8.08Q33.12-7.33 33.12-5.65L33.12-5.65L33.12 0L31.10 0L31.10-5.26Q31.10-7.20 29.63-7.20L29.63-7.20Q28.58-7.20 28.13-6.51Q27.68-5.82 27.68-4.51L27.68-4.51L27.68 0L25.66 0L25.66-5.26Q25.66-7.20 24.18-7.20L24.18-7.20Q23.07-7.20 22.66-6.43Q22.24-5.66 22.24-4.24L22.24-4.24L22.24 0L20.22 0L20.22-8.67L21.78-8.67L22.06-7.54L22.18-7.54Q22.56-8.21 23.26-8.52Q23.95-8.83 24.70-8.83L24.70-8.83Q25.68-8.83 26.34-8.50Q27.01-8.18 27.36-7.49L27.36-7.49L27.52-7.49Q27.92-8.19 28.64-8.51Q29.36-8.83 30.16-8.83ZM41.33-8.67L43.34-8.67L43.34 0L41.76 0L41.49-1.12L41.39-1.12Q40.96-0.45 40.23-0.14Q39.50 0.16 38.69 0.16L38.69 0.16Q37.23 0.16 36.41-0.59Q35.58-1.34 35.58-3.01L35.58-3.01L35.58-8.67L37.60-8.67L37.60-3.41Q37.60-1.47 39.20-1.47L39.20-1.47Q40.42-1.47 40.87-2.23Q41.33-2.99 41.33-4.43L41.33-4.43L41.33-8.67ZM47.94-12.16L47.94 0L45.92 0L45.92-12.16L47.94-12.16ZM56.19-8.67L58.21-8.67L58.21 0L56.62 0L56.35-1.12L56.26-1.12Q55.82-0.45 55.10-0.14Q54.37 0.16 53.55 0.16L53.55 0.16Q52.10 0.16 51.27-0.59Q50.45-1.34 50.45-3.01L50.45-3.01L50.45-8.67L52.46-8.67L52.46-3.41Q52.46-1.47 54.06-1.47L54.06-1.47Q55.28-1.47 55.74-2.23Q56.19-2.99 56.19-4.43L56.19-4.43L56.19-8.67ZM66.69-2.51L66.69-2.51Q66.69-1.20 65.75-0.52Q64.82 0.16 63.07 0.16L63.07 0.16Q62.16 0.16 61.51 0.03Q60.86-0.10 60.26-0.37L60.26-0.37L60.26-2.08Q60.90-1.78 61.67-1.57Q62.45-1.36 63.14-1.36L63.14-1.36Q63.97-1.36 64.34-1.62Q64.70-1.87 64.70-2.30L64.70-2.30Q64.70-2.56 64.56-2.76Q64.42-2.96 63.99-3.20Q63.57-3.44 62.74-3.79L62.74-3.79Q61.90-4.11 61.35-4.46Q60.80-4.80 60.52-5.26Q60.24-5.73 60.24-6.46L60.24-6.46Q60.24-7.63 61.16-8.23Q62.08-8.83 63.62-8.83L63.62-8.83Q64.42-8.83 65.13-8.67Q65.84-8.51 66.56-8.19L66.56-8.19L65.92-6.70Q65.31-6.96 64.74-7.14Q64.16-7.31 63.55-7.31L63.55-7.31Q62.22-7.31 62.22-6.56L62.22-6.56Q62.22-6.29 62.39-6.10Q62.56-5.90 62.98-5.69Q63.41-5.47 64.19-5.17L64.19-5.17Q64.96-4.86 65.52-4.54Q66.08-4.21 66.38-3.73Q66.69-3.25 66.69-2.51Z" transform="translate(0, 12.32)"/><rect x="0" y="0.16" width="67.328" height="12.32" class="clickable" style="cursor:pointer;fill:rgba(0, 0, 0, 0);fill-opacity:0;stroke-width:0px;"/></g><g id="sprotty_ArchitectureBlockImpl$work.inv_tv(RTL)/ProcessBlockImpl$stimulus/GPortImpl$a" transform="translate(77.3280029296875, 11.16015625)" class="sprotty-hidden hidden" style="display:block;height:0px;width:0px;"/></g></g></g></svg>