<svg xmlns="http://www.w3.org/2000/svg" id="sprotty_fulladder_tb" class="sprotty-graph sprotty-block-diagram blockdiagram" style="font-family:&quot;Helvetica Neue&quot;, Helvetica, Arial, sans-serif;line-height:18px;perspective-origin:0px 0px;transform-origin:0px 0px;z-index:0;" version="1.1" viewBox="9.5 12 258.9431591796875 153.5576000213623"><g transform="scale(1) translate(0,0)"><g id="sprotty_ArchitectureBlockImpl$work.fulladder_tb(RTL)" transform="translate(12, 12)" class="architecture"><g class="sprotty-block" style="fill:rgb(245, 245, 245);stroke:rgb(48, 48, 48);stroke-dasharray:0px;"><rect x="0" y="0" rx="1" ry="1" width="252.1131591796875" height="153.5576000213623"/><path d="M48.17 16L45.93 16L44.97 12.27Q44.89 11.97 44.78 11.51Q44.66 11.06 44.54 10.56Q44.42 10.06 44.33 9.65Q44.23 9.23 44.18 9.01L44.18 9.01L44.12 9.01Q44.07 9.23 43.98 9.65Q43.88 10.06 43.77 10.57Q43.66 11.07 43.54 11.53Q43.42 11.98 43.34 12.29L43.34 12.29L42.33 16L40.12 16L37.69 7.31L39.72 7.31L40.79 11.46Q40.90 11.89 41.01 12.41Q41.11 12.93 41.18 13.42Q41.26 13.90 41.30 14.21L41.30 14.21L41.37 14.21Q41.40 13.92 41.49 13.42Q41.58 12.93 41.67 12.46Q41.77 11.98 41.83 11.74L41.83 11.74L43.08 7.31L45.29 7.31L46.49 11.74Q46.55 12.03 46.66 12.50Q46.76 12.96 46.84 13.43Q46.92 13.90 46.94 14.19L46.94 14.19L47.00 14.19Q47.03 13.94 47.11 13.46Q47.19 12.98 47.30 12.43Q47.42 11.89 47.54 11.46L47.54 11.46L48.63 7.31L50.63 7.31L48.17 16ZM59.85 11.65L59.85 11.65Q59.85 13.81 58.73 14.98Q57.61 16.16 55.69 16.16L55.69 16.16Q54.50 16.16 53.58 15.63Q52.65 15.10 52.12 14.10Q51.59 13.09 51.59 11.65L51.59 11.65Q51.59 9.49 52.70 8.33Q53.82 7.17 55.74 7.17L55.74 7.17Q56.94 7.17 57.86 7.69Q58.79 8.21 59.32 9.21Q59.85 10.21 59.85 11.65ZM53.66 11.65L53.66 11.65Q53.66 13.02 54.14 13.78Q54.63 14.53 55.72 14.53L55.72 14.53Q56.81 14.53 57.30 13.78Q57.78 13.02 57.78 11.65L57.78 11.65Q57.78 10.27 57.30 9.54Q56.81 8.80 55.70 8.80L55.70 8.80Q54.63 8.80 54.14 9.54Q53.66 10.27 53.66 11.65ZM66.47 7.17L66.47 7.17Q66.68 7.17 66.93 7.18Q67.18 7.20 67.35 7.25L67.35 7.25L67.18 9.12Q67.02 9.09 66.79 9.06Q66.57 9.04 66.39 9.04L66.39 9.04Q65.75 9.04 65.19 9.30Q64.63 9.57 64.29 10.12Q63.94 10.67 63.94 11.50L63.94 11.50L63.94 16L61.93 16L61.93 7.33L63.48 7.33L63.77 8.83L63.86 8.83Q64.25 8.14 64.92 7.66Q65.59 7.17 66.47 7.17ZM68.95 3.84L70.95 3.84L70.95 9.62Q70.95 10.03 70.92 10.50Q70.89 10.96 70.86 11.38L70.86 11.38L70.90 11.38Q71.10 11.09 71.38 10.72Q71.67 10.35 71.93 10.06L71.93 10.06L74.49 7.33L76.78 7.33L73.30 11.07L77.00 16L74.65 16L71.96 12.29L70.95 13.12L70.95 16L68.95 16L68.95 3.84ZM78.07 14.98L78.07 14.98Q78.07 14.30 78.42 14.02Q78.78 13.74 79.29 13.74L79.29 13.74Q79.78 13.74 80.15 14.02Q80.52 14.30 80.52 14.98L80.52 14.98Q80.52 15.63 80.15 15.92Q79.78 16.21 79.29 16.21L79.29 16.21Q78.78 16.21 78.42 15.92Q78.07 15.63 78.07 14.98ZM87.32 7.33L87.32 8.85L85.22 8.85L85.22 16L83.21 16L83.21 8.85L81.82 8.85L81.82 7.89L83.21 7.31L83.21 6.72Q83.21 5.06 84.00 4.41Q84.79 3.76 86.17 3.76L86.17 3.76Q86.79 3.76 87.31 3.86Q87.83 3.97 88.17 4.10L88.17 4.10L87.66 5.60Q87.38 5.52 87.06 5.45Q86.73 5.38 86.34 5.38L86.34 5.38Q85.77 5.38 85.50 5.74Q85.22 6.10 85.22 6.77L85.22 6.77L85.22 7.33L87.32 7.33ZM94.44 7.33L96.46 7.33L96.46 16L94.87 16L94.60 14.88L94.50 14.88Q94.07 15.55 93.34 15.86Q92.62 16.16 91.80 16.16L91.80 16.16Q90.34 16.16 89.52 15.41Q88.70 14.66 88.70 12.99L88.70 12.99L88.70 7.33L90.71 7.33L90.71 12.59Q90.71 14.53 92.31 14.53L92.31 14.53Q93.53 14.53 93.98 13.77Q94.44 13.01 94.44 11.57L94.44 11.57L94.44 7.33ZM101.05 3.84L101.05 16L99.03 16L99.03 3.84L101.05 3.84ZM105.64 3.84L105.64 16L103.62 16L103.62 3.84L105.64 3.84ZM111.67 7.17L111.67 7.17Q113.35 7.17 114.22 7.90Q115.10 8.64 115.10 10.18L115.10 10.18L115.10 16L113.67 16L113.27 14.80L113.21 14.80Q112.65 15.50 112.02 15.83Q111.40 16.16 110.33 16.16L110.33 16.16Q109.16 16.16 108.39 15.50Q107.62 14.85 107.62 13.47L107.62 13.47Q107.62 12.13 108.61 11.46Q109.59 10.78 111.59 10.70L111.59 10.70L113.10 10.66L113.10 10.22Q113.10 9.41 112.70 9.05Q112.30 8.69 111.58 8.69L111.58 8.69Q110.92 8.69 110.32 8.88Q109.72 9.07 109.13 9.33L109.13 9.33L108.49 7.92Q109.13 7.58 109.95 7.38Q110.78 7.17 111.67 7.17ZM113.10 12.64L113.10 11.90L112.04 11.94Q110.71 11.98 110.20 12.39Q109.69 12.80 109.69 13.49L109.69 13.49Q109.69 14.11 110.05 14.38Q110.41 14.64 111.00 14.64L111.00 14.64Q111.88 14.64 112.49 14.14Q113.10 13.63 113.10 12.64L113.10 12.64ZM120.49 16.16L120.49 16.16Q118.97 16.16 118.04 15.02Q117.11 13.89 117.11 11.68L117.11 11.68Q117.11 9.44 118.06 8.30Q119.00 7.17 120.54 7.17L120.54 7.17Q121.50 7.17 122.11 7.54Q122.73 7.90 123.10 8.43L123.10 8.43L123.19 8.43Q123.14 8.21 123.10 7.74Q123.05 7.28 123.05 6.88L123.05 6.88L123.05 3.84L125.06 3.84L125.06 16L123.50 16L123.13 14.86L123.05 14.86Q122.68 15.41 122.07 15.78Q121.46 16.16 120.49 16.16ZM121.10 14.53L121.10 14.53Q122.22 14.53 122.67 13.89Q123.13 13.25 123.14 11.95L123.14 11.95L123.14 11.70Q123.14 10.30 122.70 9.56Q122.26 8.82 121.06 8.82L121.06 8.82Q120.14 8.82 119.65 9.58Q119.16 10.34 119.16 11.71L119.16 11.71Q119.16 13.09 119.66 13.81Q120.15 14.53 121.10 14.53ZM130.50 16.16L130.50 16.16Q128.98 16.16 128.06 15.02Q127.13 13.89 127.13 11.68L127.13 11.68Q127.13 9.44 128.07 8.30Q129.02 7.17 130.55 7.17L130.55 7.17Q131.51 7.17 132.13 7.54Q132.74 7.90 133.11 8.43L133.11 8.43L133.21 8.43Q133.16 8.21 133.11 7.74Q133.06 7.28 133.06 6.88L133.06 6.88L133.06 3.84L135.08 3.84L135.08 16L133.51 16L133.14 14.86L133.06 14.86Q132.70 15.41 132.09 15.78Q131.48 16.16 130.50 16.16ZM131.11 14.53L131.11 14.53Q132.23 14.53 132.69 13.89Q133.14 13.25 133.16 11.95L133.16 11.95L133.16 11.70Q133.16 10.30 132.72 9.56Q132.28 8.82 131.08 8.82L131.08 8.82Q130.15 8.82 129.66 9.58Q129.18 10.34 129.18 11.71L129.18 11.71Q129.18 13.09 129.67 13.81Q130.17 14.53 131.11 14.53ZM141.14 7.17L141.14 7.17Q142.89 7.17 143.90 8.21Q144.92 9.25 144.92 11.10L144.92 11.10L144.92 12.13L139.19 12.13Q139.22 13.31 139.85 13.96Q140.47 14.61 141.58 14.61L141.58 14.61Q142.41 14.61 143.08 14.44Q143.75 14.27 144.46 13.95L144.46 13.95L144.46 15.57Q143.82 15.87 143.13 16.02Q142.44 16.16 141.48 16.16L141.48 16.16Q140.22 16.16 139.23 15.67Q138.25 15.18 137.70 14.19Q137.14 13.20 137.14 11.73L137.14 11.73Q137.14 9.50 138.25 8.34Q139.35 7.17 141.14 7.17ZM141.14 8.66L141.14 8.66Q140.33 8.66 139.82 9.18Q139.32 9.70 139.24 10.72L139.24 10.72L142.97 10.72Q142.95 9.82 142.51 9.24Q142.07 8.66 141.14 8.66ZM151.50 7.17L151.50 7.17Q151.70 7.17 151.95 7.18Q152.20 7.20 152.38 7.25L152.38 7.25L152.20 9.12Q152.04 9.09 151.82 9.06Q151.59 9.04 151.42 9.04L151.42 9.04Q150.78 9.04 150.22 9.30Q149.66 9.57 149.31 10.12Q148.97 10.67 148.97 11.50L148.97 11.50L148.97 16L146.95 16L146.95 7.33L148.50 7.33L148.79 8.83L148.89 8.83Q149.27 8.14 149.94 7.66Q150.62 7.17 151.50 7.17ZM159.48 17.44L159.48 18.50L152.65 18.50L152.65 17.44L159.48 17.44ZM164.10 14.54L164.10 14.54Q164.47 14.54 164.83 14.47Q165.19 14.40 165.50 14.30L165.50 14.30L165.50 15.81Q165.18 15.95 164.66 16.06Q164.15 16.16 163.59 16.16L163.59 16.16Q162.86 16.16 162.25 15.91Q161.64 15.66 161.29 15.06Q160.94 14.45 160.94 13.36L160.94 13.36L160.94 8.85L159.77 8.85L159.77 7.97L161.05 7.26L161.69 5.42L162.95 5.42L162.95 7.33L165.42 7.33L165.42 8.85L162.95 8.85L162.95 13.34Q162.95 13.95 163.27 14.25Q163.59 14.54 164.10 14.54ZM167.24 3.84L169.26 3.84L169.26 6.72Q169.26 7.23 169.22 7.71Q169.19 8.19 169.16 8.46L169.16 8.46L169.26 8.46Q169.61 7.92 170.22 7.54Q170.82 7.17 171.80 7.17L171.80 7.17Q173.30 7.17 174.24 8.30Q175.18 9.44 175.18 11.65L175.18 11.65Q175.18 13.89 174.23 15.02Q173.29 16.16 171.75 16.16L171.75 16.16Q170.78 16.16 170.19 15.81Q169.61 15.46 169.26 14.99L169.26 14.99L169.11 14.99L168.74 16L167.24 16L167.24 3.84ZM171.22 8.80L171.22 8.80Q170.14 8.80 169.70 9.46Q169.27 10.11 169.26 11.47L169.26 11.47L169.26 11.65Q169.26 13.04 169.68 13.78Q170.10 14.51 171.26 14.51L171.26 14.51Q172.15 14.51 172.63 13.77Q173.11 13.02 173.11 11.63L173.11 11.63Q173.11 10.21 172.62 9.50Q172.14 8.80 171.22 8.80ZM176.60 11.62L176.60 11.62Q176.60 9.66 177.17 7.85Q177.74 6.03 178.95 4.58L178.95 4.58L180.66 4.58Q179.56 6.08 179.00 7.89Q178.44 9.70 178.44 11.60L178.44 11.60Q178.44 13.46 179.00 15.25Q179.56 17.04 180.65 18.53L180.65 18.53L178.95 18.53Q177.74 17.12 177.17 15.34Q176.60 13.55 176.60 11.62ZM182.63 4.58L185.88 4.58Q188.14 4.58 189.22 5.41Q190.30 6.24 190.30 7.94L190.30 7.94Q190.30 8.77 189.98 9.36Q189.67 9.95 189.18 10.34Q188.68 10.74 188.10 10.98L188.10 10.98L191.38 16L189.08 16L186.34 11.49L184.68 11.49L184.68 16L182.63 16L182.63 4.58ZM185.75 6.29L185.75 6.29L184.68 6.29L184.68 9.81L185.82 9.81Q187.08 9.81 187.65 9.35Q188.22 8.90 188.22 8L188.22 8Q188.22 7.07 187.62 6.68Q187.02 6.29 185.75 6.29ZM197.06 6.30L197.06 16L195.02 16L195.02 6.30L191.74 6.30L191.74 4.58L200.34 4.58L200.34 6.30L197.06 6.30ZM208.90 16L202.09 16L202.09 4.58L204.14 4.58L204.14 14.27L208.90 14.27L208.90 16ZM213.94 11.62L213.94 11.62Q213.94 13.55 213.38 15.34Q212.81 17.12 211.59 18.53L211.59 18.53L209.90 18.53Q210.98 17.04 211.55 15.25Q212.12 13.46 212.12 11.60L212.12 11.60Q212.12 9.70 211.55 7.89Q210.98 6.08 209.88 4.58L209.88 4.58L211.59 4.58Q212.81 6.03 213.38 7.85Q213.94 9.66 213.94 11.62Z" class="sprotty-block-name" style="fill:rgb(48, 48, 48);stroke:rgba(0, 0, 0, 0);"/><line x1="0" y1="20" x2="252.1131591796875" y2="20"/></g><g id="sprotty_ArchitectureBlockImpl$work.fulladder_tb(RTL)/ProcessBlockImpl$stimulus/GPortImpl$vector_inputs_to_ArchitectureBlockImpl$work.fulladder_tb(RTL)/InstantiationBlockImpl$DUT/BPortImpl$a" class="sprotty-edge thick edge" style="fill:none;stroke:rgb(112, 112, 112);stroke-linejoin:round;stroke-width:3px;"><path d="M 92.3280029296875 72.69075012207031 L 112.3280029296875 72.69075012207031 "/></g><g id="sprotty_ArchitectureBlockImpl$work.fulladder_tb(RTL)/ProcessBlockImpl$stimulus/GPortImpl$vector_inputs_to_ArchitectureBlockImpl$work.fulladder_tb(RTL)/InstantiationBlockImpl$DUT/BPortImpl$b" class="sprotty-edge thick edge" style="fill:none;stroke:rgb(112, 112, 112);stroke-linejoin:round;stroke-width:3px;"><path d="M 92.3280029296875 72.69075012207031 L 100.3280029296875 72.69075012207031 C 101.3280029296875 72.69075012207031 102.3280029296875 73.69075012207031 102.3280029296875 74.69075012207031 L 102.3280029296875 93.50200033187866 C 102.3280029296875 94.50200033187866 103.3280029296875 95.50200033187866 104.3280029296875 95.50200033187866 L 112.3280029296875 95.50200033187866 "/><circle r="3" id="sprotty_ArchitectureBlockImpl$work.fulladder_tb(RTL)/ProcessBlockImpl$stimulus/GPortImpl$vector_inputs_to_ArchitectureBlockImpl$work.fulladder_tb(RTL)/InstantiationBlockImpl$DUT/BPortImpl$b/junction0" transform="translate(102.3280029296875, 72.69075012207031)" class="sprotty-junction thick" style="fill:rgb(112, 112, 112);stroke:none;"/><circle r="3" id="sprotty_ArchitectureBlockImpl$work.fulladder_tb(RTL)/ProcessBlockImpl$stimulus/GPortImpl$vector_inputs_to_ArchitectureBlockImpl$work.fulladder_tb(RTL)/InstantiationBlockImpl$DUT/BPortImpl$b/junction1" transform="translate(102.3280029296875, 95.50200033187866)" class="sprotty-junction thick" style="fill:rgb(112, 112, 112);stroke:none;"/></g><g id="sprotty_ArchitectureBlockImpl$work.fulladder_tb(RTL)/ProcessBlockImpl$stimulus/GPortImpl$vector_inputs_to_ArchitectureBlockImpl$work.fulladder_tb(RTL)/InstantiationBlockImpl$DUT/BPortImpl$cin" class="sprotty-edge thick edge" style="fill:none;stroke:rgb(112, 112, 112);stroke-linejoin:round;stroke-width:3px;"><path d="M 92.3280029296875 72.69075012207031 L 100.3280029296875 72.69075012207031 C 101.3280029296875 72.69075012207031 102.3280029296875 73.69075012207031 102.3280029296875 74.69075012207031 L 102.3280029296875 117.5900502204895 C 102.3280029296875 118.5900502204895 103.3280029296875 119.5900502204895 104.3280029296875 119.5900502204895 L 112.3280029296875 119.5900502204895 "/></g><g id="sprotty_ArchitectureBlockImpl$work.fulladder_tb(RTL)/ProcessBlockImpl$stimulus" transform="translate(15, 61.53059387207031)" class="statement"><rect x="0" y="0" rx="10" ry="5" width="77.3280029296875" height="22.3203125" class="sprotty-node" style="fill:rgb(245, 245, 245);stroke:rgb(112, 112, 112);"/><g id="sprotty_ArchitectureBlockImpl$work.fulladder_tb(RTL)/ProcessBlockImpl$stimulus/label" transform="translate(5, 5) translate(0, -0.15984344482421875)" class="sprotty-label process" style="cursor:default;fill:rgb(48, 48, 48);font-family:Arial, Helvetica, sans-serif;text-anchor:middle;"><path d="M7.20-2.51L7.20-2.51Q7.20-1.20 6.26-0.52Q5.33 0.16 3.58 0.16L3.58 0.16Q2.67 0.16 2.02 0.03Q1.38-0.10 0.77-0.37L0.77-0.37L0.77-2.08Q1.41-1.78 2.18-1.57Q2.96-1.36 3.65-1.36L3.65-1.36Q4.48-1.36 4.85-1.62Q5.22-1.87 5.22-2.30L5.22-2.30Q5.22-2.56 5.07-2.76Q4.93-2.96 4.50-3.20Q4.08-3.44 3.25-3.79L3.25-3.79Q2.42-4.11 1.86-4.46Q1.31-4.80 1.03-5.26Q0.75-5.73 0.75-6.46L0.75-6.46Q0.75-7.63 1.67-8.23Q2.59-8.83 4.13-8.83L4.13-8.83Q4.93-8.83 5.64-8.67Q6.35-8.51 7.07-8.19L7.07-8.19L6.43-6.70Q5.82-6.96 5.25-7.14Q4.67-7.31 4.06-7.31L4.06-7.31Q2.74-7.31 2.74-6.56L2.74-6.56Q2.74-6.29 2.90-6.10Q3.07-5.90 3.50-5.69Q3.92-5.47 4.70-5.17L4.70-5.17Q5.47-4.86 6.03-4.54Q6.59-4.21 6.90-3.73Q7.20-3.25 7.20-2.51ZM12.50-1.46L12.50-1.46Q12.86-1.46 13.22-1.53Q13.58-1.60 13.89-1.70L13.89-1.70L13.89-0.19Q13.57-0.05 13.06 0.06Q12.54 0.16 11.98 0.16L11.98 0.16Q11.25 0.16 10.64-0.09Q10.03-0.34 9.68-0.94Q9.33-1.55 9.33-2.64L9.33-2.64L9.33-7.15L8.16-7.15L8.16-8.03L9.44-8.74L10.08-10.58L11.34-10.58L11.34-8.67L13.81-8.67L13.81-7.15L11.34-7.15L11.34-2.66Q11.34-2.05 11.66-1.75Q11.98-1.46 12.50-1.46ZM16.64-12.02L16.64-12.02Q17.10-12.02 17.43-11.78Q17.76-11.55 17.76-10.96L17.76-10.96Q17.76-10.37 17.43-10.13Q17.10-9.89 16.64-9.89L16.64-9.89Q16.18-9.89 15.85-10.13Q15.52-10.37 15.52-10.96L15.52-10.96Q15.52-11.55 15.85-11.78Q16.18-12.02 16.64-12.02ZM15.63-8.67L17.65-8.67L17.65 0L15.63 0L15.63-8.67ZM30.16-8.83L30.16-8.83Q31.63-8.83 32.38-8.08Q33.12-7.33 33.12-5.65L33.12-5.65L33.12 0L31.10 0L31.10-5.26Q31.10-7.20 29.63-7.20L29.63-7.20Q28.58-7.20 28.13-6.51Q27.68-5.82 27.68-4.51L27.68-4.51L27.68 0L25.66 0L25.66-5.26Q25.66-7.20 24.18-7.20L24.18-7.20Q23.07-7.20 22.66-6.43Q22.24-5.66 22.24-4.24L22.24-4.24L22.24 0L20.22 0L20.22-8.67L21.78-8.67L22.06-7.54L22.18-7.54Q22.56-8.21 23.26-8.52Q23.95-8.83 24.70-8.83L24.70-8.83Q25.68-8.83 26.34-8.50Q27.01-8.18 27.36-7.49L27.36-7.49L27.52-7.49Q27.92-8.19 28.64-8.51Q29.36-8.83 30.16-8.83ZM41.33-8.67L43.34-8.67L43.34 0L41.76 0L41.49-1.12L41.39-1.12Q40.96-0.45 40.23-0.14Q39.50 0.16 38.69 0.16L38.69 0.16Q37.23 0.16 36.41-0.59Q35.58-1.34 35.58-3.01L35.58-3.01L35.58-8.67L37.60-8.67L37.60-3.41Q37.60-1.47 39.20-1.47L39.20-1.47Q40.42-1.47 40.87-2.23Q41.33-2.99 41.33-4.43L41.33-4.43L41.33-8.67ZM47.94-12.16L47.94 0L45.92 0L45.92-12.16L47.94-12.16ZM56.19-8.67L58.21-8.67L58.21 0L56.62 0L56.35-1.12L56.26-1.12Q55.82-0.45 55.10-0.14Q54.37 0.16 53.55 0.16L53.55 0.16Q52.10 0.16 51.27-0.59Q50.45-1.34 50.45-3.01L50.45-3.01L50.45-8.67L52.46-8.67L52.46-3.41Q52.46-1.47 54.06-1.47L54.06-1.47Q55.28-1.47 55.74-2.23Q56.19-2.99 56.19-4.43L56.19-4.43L56.19-8.67ZM66.69-2.51L66.69-2.51Q66.69-1.20 65.75-0.52Q64.82 0.16 63.07 0.16L63.07 0.16Q62.16 0.16 61.51 0.03Q60.86-0.10 60.26-0.37L60.26-0.37L60.26-2.08Q60.90-1.78 61.67-1.57Q62.45-1.36 63.14-1.36L63.14-1.36Q63.97-1.36 64.34-1.62Q64.70-1.87 64.70-2.30L64.70-2.30Q64.70-2.56 64.56-2.76Q64.42-2.96 63.99-3.20Q63.57-3.44 62.74-3.79L62.74-3.79Q61.90-4.11 61.35-4.46Q60.80-4.80 60.52-5.26Q60.24-5.73 60.24-6.46L60.24-6.46Q60.24-7.63 61.16-8.23Q62.08-8.83 63.62-8.83L63.62-8.83Q64.42-8.83 65.13-8.67Q65.84-8.51 66.56-8.19L66.56-8.19L65.92-6.70Q65.31-6.96 64.74-7.14Q64.16-7.31 63.55-7.31L63.55-7.31Q62.22-7.31 62.22-6.56L62.22-6.56Q62.22-6.29 62.39-6.10Q62.56-5.90 62.98-5.69Q63.41-5.47 64.19-5.17L64.19-5.17Q64.96-4.86 65.52-4.54Q66.08-4.21 66.38-3.73Q66.69-3.25 66.69-2.51Z" transform="translate(0, 12.32)"/><rect x="0" y="0.16" width="67.328" height="12.32" class="clickable" style="cursor:pointer;fill:rgba(0, 0, 0, 0);fill-opacity:0;stroke-width:0px;"/></g><g id="sprotty_ArchitectureBlockImpl$work.fulladder_tb(RTL)/ProcessBlockImpl$stimulus/GPortImpl$vector_inputs" transform="translate(77.3280029296875, 11.16015625)" class="sprotty-hidden hidden" style="display:block;height:0px;width:0px;"/></g><g id="sprotty_ArchitectureBlockImpl$work.fulladder_tb(RTL)/InstantiationBlockImpl$DUT" transform="translate(112.3280029296875, 35)" class="instantiation"><g class="sprotty-block" style="fill:rgb(245, 245, 245);stroke:rgb(48, 48, 48);stroke-dasharray:0px;"><rect x="0" y="0" rx="1" ry="1" width="124.78515625" height="103.5576000213623"/><path d="M14.83 10.18L14.83 10.18Q14.83 13.07 13.22 14.54Q11.60 16 8.70 16L8.70 16L5.49 16L5.49 4.58L9.04 4.58Q10.80 4.58 12.10 5.22Q13.41 5.86 14.12 7.10Q14.83 8.34 14.83 10.18ZM12.69 10.24L12.69 10.24Q12.69 8.19 11.75 7.23Q10.82 6.27 9.04 6.27L9.04 6.27L7.54 6.27L7.54 14.29L8.77 14.29Q12.69 14.29 12.69 10.24ZM24.29 4.58L26.32 4.58L26.32 11.97Q26.32 13.15 25.82 14.10Q25.31 15.06 24.29 15.61Q23.26 16.16 21.70 16.16L21.70 16.16Q19.47 16.16 18.32 15Q17.17 13.84 17.17 11.94L17.17 11.94L17.17 4.58L19.22 4.58L19.22 11.73Q19.22 13.14 19.86 13.78Q20.50 14.42 21.76 14.42L21.76 14.42Q23.09 14.42 23.69 13.72Q24.29 13.02 24.29 11.71L24.29 11.71L24.29 4.58ZM33.31 6.30L33.31 16L31.26 16L31.26 6.30L27.98 6.30L27.98 4.58L36.59 4.58L36.59 6.30L33.31 6.30ZM42.02 8.38L42.02 8.38Q42.02 7.70 42.37 7.42Q42.72 7.14 43.23 7.14L43.23 7.14Q43.73 7.14 44.10 7.42Q44.46 7.70 44.46 8.38L44.46 8.38Q44.46 9.04 44.10 9.33Q43.73 9.62 43.23 9.62L43.23 9.62Q42.72 9.62 42.37 9.33Q42.02 9.04 42.02 8.38ZM42.02 14.98L42.02 14.98Q42.02 14.30 42.37 14.02Q42.72 13.74 43.23 13.74L43.23 13.74Q43.73 13.74 44.10 14.02Q44.46 14.30 44.46 14.98L44.46 14.98Q44.46 15.63 44.10 15.92Q43.73 16.21 43.23 16.21L43.23 16.21Q42.72 16.21 42.37 15.92Q42.02 15.63 42.02 14.98ZM55.42 7.33L55.42 8.85L53.33 8.85L53.33 16L51.31 16L51.31 8.85L49.92 8.85L49.92 7.89L51.31 7.31L51.31 6.72Q51.31 5.06 52.10 4.41Q52.90 3.76 54.27 3.76L54.27 3.76Q54.90 3.76 55.42 3.86Q55.94 3.97 56.27 4.10L56.27 4.10L55.76 5.60Q55.49 5.52 55.16 5.45Q54.83 5.38 54.45 5.38L54.45 5.38Q53.87 5.38 53.60 5.74Q53.33 6.10 53.33 6.77L53.33 6.77L53.33 7.33L55.42 7.33ZM62.54 7.33L64.56 7.33L64.56 16L62.98 16L62.70 14.88L62.61 14.88Q62.18 15.55 61.45 15.86Q60.72 16.16 59.90 16.16L59.90 16.16Q58.45 16.16 57.62 15.41Q56.80 14.66 56.80 12.99L56.80 12.99L56.80 7.33L58.82 7.33L58.82 12.59Q58.82 14.53 60.42 14.53L60.42 14.53Q61.63 14.53 62.09 13.77Q62.54 13.01 62.54 11.57L62.54 11.57L62.54 7.33ZM69.15 3.84L69.15 16L67.14 16L67.14 3.84L69.15 3.84ZM73.74 3.84L73.74 16L71.73 16L71.73 3.84L73.74 3.84ZM79.78 7.17L79.78 7.17Q81.46 7.17 82.33 7.90Q83.20 8.64 83.20 10.18L83.20 10.18L83.20 16L81.78 16L81.38 14.80L81.31 14.80Q80.75 15.50 80.13 15.83Q79.50 16.16 78.43 16.16L78.43 16.16Q77.26 16.16 76.50 15.50Q75.73 14.85 75.73 13.47L75.73 13.47Q75.73 12.13 76.71 11.46Q77.70 10.78 79.70 10.70L79.70 10.70L81.20 10.66L81.20 10.22Q81.20 9.41 80.80 9.05Q80.40 8.69 79.68 8.69L79.68 8.69Q79.02 8.69 78.42 8.88Q77.82 9.07 77.23 9.33L77.23 9.33L76.59 7.92Q77.23 7.58 78.06 7.38Q78.88 7.17 79.78 7.17ZM81.20 12.64L81.20 11.90L80.14 11.94Q78.82 11.98 78.30 12.39Q77.79 12.80 77.79 13.49L77.79 13.49Q77.79 14.11 78.15 14.38Q78.51 14.64 79.10 14.64L79.10 14.64Q79.98 14.64 80.59 14.14Q81.20 13.63 81.20 12.64L81.20 12.64ZM88.59 16.16L88.59 16.16Q87.07 16.16 86.14 15.02Q85.22 13.89 85.22 11.68L85.22 11.68Q85.22 9.44 86.16 8.30Q87.10 7.17 88.64 7.17L88.64 7.17Q89.60 7.17 90.22 7.54Q90.83 7.90 91.20 8.43L91.20 8.43L91.30 8.43Q91.25 8.21 91.20 7.74Q91.15 7.28 91.15 6.88L91.15 6.88L91.15 3.84L93.17 3.84L93.17 16L91.60 16L91.23 14.86L91.15 14.86Q90.78 15.41 90.18 15.78Q89.57 16.16 88.59 16.16ZM89.20 14.53L89.20 14.53Q90.32 14.53 90.78 13.89Q91.23 13.25 91.25 11.95L91.25 11.95L91.25 11.70Q91.25 10.30 90.81 9.56Q90.37 8.82 89.17 8.82L89.17 8.82Q88.24 8.82 87.75 9.58Q87.26 10.34 87.26 11.71L87.26 11.71Q87.26 13.09 87.76 13.81Q88.26 14.53 89.20 14.53ZM98.61 16.16L98.61 16.16Q97.09 16.16 96.16 15.02Q95.23 13.89 95.23 11.68L95.23 11.68Q95.23 9.44 96.18 8.30Q97.12 7.17 98.66 7.17L98.66 7.17Q99.62 7.17 100.23 7.54Q100.85 7.90 101.22 8.43L101.22 8.43L101.31 8.43Q101.26 8.21 101.22 7.74Q101.17 7.28 101.17 6.88L101.17 6.88L101.17 3.84L103.18 3.84L103.18 16L101.62 16L101.25 14.86L101.17 14.86Q100.80 15.41 100.19 15.78Q99.58 16.16 98.61 16.16ZM99.22 14.53L99.22 14.53Q100.34 14.53 100.79 13.89Q101.25 13.25 101.26 11.95L101.26 11.95L101.26 11.70Q101.26 10.30 100.82 9.56Q100.38 8.82 99.18 8.82L99.18 8.82Q98.26 8.82 97.77 9.58Q97.28 10.34 97.28 11.71L97.28 11.71Q97.28 13.09 97.78 13.81Q98.27 14.53 99.22 14.53ZM109.25 7.17L109.25 7.17Q110.99 7.17 112.01 8.21Q113.02 9.25 113.02 11.10L113.02 11.10L113.02 12.13L107.30 12.13Q107.33 13.31 107.95 13.96Q108.58 14.61 109.68 14.61L109.68 14.61Q110.51 14.61 111.18 14.44Q111.86 14.27 112.56 13.95L112.56 13.95L112.56 15.57Q111.92 15.87 111.23 16.02Q110.54 16.16 109.58 16.16L109.58 16.16Q108.32 16.16 107.34 15.67Q106.35 15.18 105.80 14.19Q105.25 13.20 105.25 11.73L105.25 11.73Q105.25 9.50 106.35 8.34Q107.46 7.17 109.25 7.17ZM109.25 8.66L109.25 8.66Q108.43 8.66 107.93 9.18Q107.42 9.70 107.34 10.72L107.34 10.72L111.07 10.72Q111.06 9.82 110.62 9.24Q110.18 8.66 109.25 8.66ZM119.60 7.17L119.60 7.17Q119.81 7.17 120.06 7.18Q120.30 7.20 120.48 7.25L120.48 7.25L120.30 9.12Q120.14 9.09 119.92 9.06Q119.70 9.04 119.52 9.04L119.52 9.04Q118.88 9.04 118.32 9.30Q117.76 9.57 117.42 10.12Q117.07 10.67 117.07 11.50L117.07 11.50L117.07 16L115.06 16L115.06 7.33L116.61 7.33L116.90 8.83L116.99 8.83Q117.38 8.14 118.05 7.66Q118.72 7.17 119.60 7.17Z" class="sprotty-block-name" style="fill:rgb(48, 48, 48);stroke:rgba(0, 0, 0, 0);"/><line x1="0" y1="20" x2="124.78515625" y2="20"/></g><g id="sprotty_ArchitectureBlockImpl$work.fulladder_tb(RTL)/InstantiationBlockImpl$DUT/BPortImpl$cin" transform="translate(0, 84.5900502204895)" class="triangle"><path d="M 0,0 L 5,2.5 L 0,5 Z" transform="translate(-1.67, -2.5)" class="sprotty-port" style="fill:rgb(48, 48, 48);stroke:rgb(48, 48, 48);"/><g class="port sprotty-label" id="sprotty_ArchitectureBlockImpl$work.fulladder_tb(RTL)/InstantiationBlockImpl$DUT/BPortImpl$cin/label" transform="translate(3, -6.967549800872803) translate(0, -0.13300000131130219)" style="cursor:default;fill:rgb(48, 48, 48);font-family:Arial, Helvetica, sans-serif;text-anchor:middle;"><path d="M3.99 0.13L3.99 0.13Q3.05 0.13 2.31-0.25Q1.57-0.64 1.15-1.45Q0.73-2.26 0.73-3.52L0.73-3.52Q0.73-4.84 1.17-5.67Q1.61-6.49 2.36-6.88Q3.11-7.26 4.07-7.26L4.07-7.26Q4.62-7.26 5.12-7.15Q5.63-7.04 5.95-6.88L5.95-6.88L5.59-5.91Q5.27-6.02 4.84-6.13Q4.42-6.24 4.04-6.24L4.04-6.24Q1.94-6.24 1.94-3.54L1.94-3.54Q1.94-2.25 2.45-1.56Q2.97-0.88 3.98-0.88L3.98-0.88Q4.56-0.88 5.01-1.00Q5.45-1.12 5.83-1.29L5.83-1.29L5.83-0.25Q5.47-0.07 5.03 0.03Q4.60 0.13 3.99 0.13ZM8.11-8.31L8.11-8.31Q7.82-8.31 7.62-8.50Q7.42-8.68 7.42-9.06L7.42-9.06Q7.42-9.44 7.62-9.62Q7.82-9.80 8.11-9.80L8.11-9.80Q8.38-9.80 8.59-9.62Q8.79-9.44 8.79-9.06L8.79-9.06Q8.79-8.68 8.59-8.50Q8.38-8.31 8.11-8.31ZM8.68 0L7.51 0L7.51-7.13L8.68-7.13L8.68 0ZM12.12 0L10.95 0L10.95-7.13L11.89-7.13L12.06-6.16L12.13-6.16Q12.48-6.72 13.09-6.99Q13.70-7.26 14.38-7.26L14.38-7.26Q15.65-7.26 16.31-6.64Q16.96-6.02 16.96-4.64L16.96-4.64L16.96 0L15.80 0L15.80-4.56Q15.80-6.28 14.20-6.28L14.20-6.28Q13.02-6.28 12.57-5.61Q12.12-4.95 12.12-3.70L12.12-3.70L12.12 0Z" transform="translate(4, 11.935100000000002)"/><rect x="0" y="0.133" width="26.0348" height="13.935100000000002" class="clickable" style="cursor:pointer;fill:rgba(0, 0, 0, 0);fill-opacity:0;stroke-width:0px;"/></g></g><g id="sprotty_ArchitectureBlockImpl$work.fulladder_tb(RTL)/InstantiationBlockImpl$DUT/BPortImpl$b" transform="translate(0, 60.50200033187866)" class="triangle"><path d="M 0,0 L 5,2.5 L 0,5 Z" transform="translate(-1.67, -2.5)" class="sprotty-port" style="fill:rgb(48, 48, 48);stroke:rgb(48, 48, 48);"/><g class="port sprotty-label" id="sprotty_ArchitectureBlockImpl$work.fulladder_tb(RTL)/InstantiationBlockImpl$DUT/BPortImpl$b/label" transform="translate(3, -7.120500087738037) translate(0, -0.13300000131130219)" style="cursor:default;fill:rgb(48, 48, 48);font-family:Arial, Helvetica, sans-serif;text-anchor:middle;"><path d="M4.51 0.13L4.51 0.13Q3.67 0.13 3.14-0.17Q2.61-0.48 2.30-0.90L2.30-0.90L2.21-0.90L1.97 0L1.13 0L1.13-10.11L2.30-10.11L2.30-7.65Q2.30-7.20 2.28-6.80Q2.26-6.41 2.23-6.18L2.23-6.18L2.30-6.18Q2.61-6.64 3.14-6.94Q3.67-7.25 4.51-7.25L4.51-7.25Q5.84-7.25 6.64-6.32Q7.45-5.40 7.45-3.56L7.45-3.56Q7.45-1.73 6.64-0.80Q5.83 0.13 4.51 0.13ZM4.34-0.84L4.34-0.84Q5.29-0.84 5.77-1.54Q6.24-2.25 6.24-3.58L6.24-3.58Q6.24-6.28 4.31-6.28L4.31-6.28Q3.18-6.28 2.74-5.63Q2.30-4.97 2.30-3.60L2.30-3.60L2.30-3.55Q2.30-2.23 2.73-1.54Q3.17-0.84 4.34-0.84Z" transform="translate(4, 12.241)"/><rect x="0" y="0.133" width="16.1795" height="14.241" class="clickable" style="cursor:pointer;fill:rgba(0, 0, 0, 0);fill-opacity:0;stroke-width:0px;"/></g></g><g id="sprotty_ArchitectureBlockImpl$work.fulladder_tb(RTL)/InstantiationBlockImpl$DUT/BPortImpl$a" transform="translate(0, 37.69075012207031)" class="triangle"><path d="M 0,0 L 5,2.5 L 0,5 Z" transform="translate(-1.67, -2.5)" class="sprotty-port" style="fill:rgb(48, 48, 48);stroke:rgb(48, 48, 48);"/><g class="port sprotty-label" id="sprotty_ArchitectureBlockImpl$work.fulladder_tb(RTL)/InstantiationBlockImpl$DUT/BPortImpl$a/label" transform="translate(3, -5.6907501220703125) translate(0, -0.13300000131130219)" style="cursor:default;fill:rgb(48, 48, 48);font-family:Arial, Helvetica, sans-serif;text-anchor:middle;"><path d="M2.86 0.13L2.86 0.13Q1.89 0.13 1.25-0.38Q0.61-0.89 0.61-1.98L0.61-1.98Q0.61-3.05 1.45-3.62Q2.29-4.20 4.03-4.26L4.03-4.26L5.24-4.30L5.24-4.72Q5.24-5.61 4.85-5.96Q4.47-6.30 3.76-6.30L3.76-6.30Q3.21-6.30 2.70-6.14Q2.19-5.97 1.76-5.76L1.76-5.76L1.40-6.64Q1.86-6.89 2.50-7.07Q3.14-7.25 3.83-7.25L3.83-7.25Q5.13-7.25 5.76-6.68Q6.38-6.10 6.38-4.85L6.38-4.85L6.38 0L5.53 0L5.31-1.01L5.25-1.01Q4.79-0.43 4.28-0.15Q3.76 0.13 2.86 0.13ZM3.13-0.81L3.13-0.81Q4.03-0.81 4.63-1.31Q5.23-1.81 5.23-2.85L5.23-2.85L5.23-3.48L4.18-3.44Q2.85-3.39 2.33-3.02Q1.82-2.65 1.82-1.97L1.82-1.97Q1.82-1.37 2.19-1.09Q2.55-0.81 3.13-0.81Z" transform="translate(4, 9.3815)"/><rect x="0" y="0.133" width="15.461300000000001" height="11.3815" class="clickable" style="cursor:pointer;fill:rgba(0, 0, 0, 0);fill-opacity:0;stroke-width:0px;"/></g></g><g id="sprotty_ArchitectureBlockImpl$work.fulladder_tb(RTL)/InstantiationBlockImpl$DUT/BPortImpl$s" transform="translate(124.78515625, 37.69740009307861)" class="triangle"><path d="M 0,0 L 5,2.5 L 0,5 Z" transform="translate(-1.67, -2.5)" class="sprotty-port" style="fill:rgb(48, 48, 48);stroke:rgb(48, 48, 48);"/><g class="port sprotty-label" id="sprotty_ArchitectureBlockImpl$work.fulladder_tb(RTL)/InstantiationBlockImpl$DUT/BPortImpl$s/label" transform="translate(-17.370699882507324, -5.697400093078613) translate(0, -0.13300000131130219)" style="cursor:default;fill:rgb(48, 48, 48);font-family:Arial, Helvetica, sans-serif;text-anchor:middle;"><path d="M2.93 0.13L2.93 0.13Q2.18 0.13 1.64 0.01Q1.10-0.11 0.69-0.32L0.69-0.32L0.69-1.38Q1.12-1.17 1.72-0.99Q2.33-0.81 2.95-0.81L2.95-0.81Q3.84-0.81 4.24-1.10Q4.64-1.38 4.64-1.86L4.64-1.86Q4.64-2.13 4.50-2.34Q4.35-2.55 3.97-2.77Q3.59-2.98 2.89-3.25L2.89-3.25Q2.19-3.51 1.70-3.78Q1.21-4.04 0.94-4.42Q0.68-4.79 0.68-5.37L0.68-5.37Q0.68-6.28 1.42-6.77Q2.15-7.26 3.35-7.26L3.35-7.26Q4.00-7.26 4.57-7.14Q5.13-7.01 5.63-6.78L5.63-6.78L5.23-5.85Q4.77-6.04 4.28-6.17Q3.79-6.30 3.27-6.30L3.27-6.30Q2.55-6.30 2.17-6.07Q1.80-5.84 1.80-5.44L1.80-5.44Q1.80-5.15 1.97-4.94Q2.14-4.73 2.55-4.54Q2.95-4.35 3.63-4.08L3.63-4.08Q4.31-3.83 4.79-3.56Q5.27-3.29 5.52-2.91Q5.77-2.54 5.77-1.97L5.77-1.97Q5.77-0.93 5.00-0.40Q4.23 0.13 2.93 0.13Z" transform="translate(4, 9.3948)"/><rect x="0" y="0.133" width="14.3707" height="11.3948" class="clickable" style="cursor:pointer;fill:rgba(0, 0, 0, 0);fill-opacity:0;stroke-width:0px;"/></g></g><g id="sprotty_ArchitectureBlockImpl$work.fulladder_tb(RTL)/InstantiationBlockImpl$DUT/BPortImpl$cout" transform="translate(124.78515625, 85.1087498664856)" class="triangle"><path d="M 0,0 L 5,2.5 L 0,5 Z" transform="translate(-1.67, -2.5)" class="sprotty-port" style="fill:rgb(48, 48, 48);stroke:rgb(48, 48, 48);"/><g class="port sprotty-label" id="sprotty_ArchitectureBlockImpl$work.fulladder_tb(RTL)/InstantiationBlockImpl$DUT/BPortImpl$cout/label" transform="translate(-38.45119857788086, -6.448850154876709) translate(0, -0.13300000131130219)" style="cursor:default;fill:rgb(48, 48, 48);font-family:Arial, Helvetica, sans-serif;text-anchor:middle;"><path d="M3.99 0.13L3.99 0.13Q3.05 0.13 2.31-0.25Q1.57-0.64 1.15-1.45Q0.73-2.26 0.73-3.52L0.73-3.52Q0.73-4.84 1.17-5.67Q1.61-6.49 2.36-6.88Q3.11-7.26 4.07-7.26L4.07-7.26Q4.62-7.26 5.12-7.15Q5.63-7.04 5.95-6.88L5.95-6.88L5.59-5.91Q5.27-6.02 4.84-6.13Q4.42-6.24 4.04-6.24L4.04-6.24Q1.94-6.24 1.94-3.54L1.94-3.54Q1.94-2.25 2.45-1.56Q2.97-0.88 3.98-0.88L3.98-0.88Q4.56-0.88 5.01-1.00Q5.45-1.12 5.83-1.29L5.83-1.29L5.83-0.25Q5.47-0.07 5.03 0.03Q4.60 0.13 3.99 0.13ZM10.39 0.13L10.39 0.13Q9.44 0.13 8.70-0.30Q7.97-0.73 7.54-1.56Q7.12-2.39 7.12-3.58L7.12-3.58Q7.12-5.35 8.01-6.30Q8.90-7.26 10.43-7.26L10.43-7.26Q11.40-7.26 12.14-6.83Q12.87-6.40 13.29-5.58Q13.71-4.76 13.71-3.58L13.71-3.58Q13.71-1.81 12.81-0.84Q11.92 0.13 10.39 0.13ZM10.41-0.84L10.41-0.84Q11.49-0.84 12.00-1.58Q12.50-2.31 12.50-3.58L12.50-3.58Q12.50-4.84 12.00-5.56Q11.49-6.28 10.40-6.28L10.40-6.28Q9.31-6.28 8.82-5.56Q8.33-4.84 8.33-3.58L8.33-3.58Q8.33-2.31 8.82-1.58Q9.32-0.84 10.41-0.84ZM18.07 0.13L18.07 0.13Q16.78 0.13 16.13-0.49Q15.48-1.10 15.48-2.46L15.48-2.46L15.48-7.13L16.66-7.13L16.66-2.54Q16.66-0.84 18.25-0.84L18.25-0.84Q19.43-0.84 19.89-1.50Q20.35-2.17 20.35-3.42L20.35-3.42L20.35-7.13L21.52-7.13L21.52 0L20.56 0L20.39-0.94L20.34-0.94Q19.99-0.39 19.38-0.13Q18.77 0.13 18.07 0.13ZM25.96 0.13L25.96 0.13Q25.40 0.13 24.93-0.06Q24.46-0.25 24.17-0.73Q23.87-1.21 23.87-2.07L23.87-2.07L23.87-6.22L22.86-6.22L22.86-6.78L23.89-7.25L24.35-8.76L25.04-8.76L25.04-7.13L27.11-7.13L27.11-6.22L25.04-6.22L25.04-2.10Q25.04-1.45 25.36-1.14Q25.67-0.82 26.16-0.82L26.16-0.82Q26.43-0.82 26.71-0.87Q26.99-0.92 27.16-0.97L27.16-0.97L27.16-0.08Q26.97 0.01 26.63 0.07Q26.28 0.13 25.96 0.13Z" transform="translate(4, 10.8977)"/><rect x="0" y="0.133" width="35.4512" height="12.8977" class="clickable" style="cursor:pointer;fill:rgba(0, 0, 0, 0);fill-opacity:0;stroke-width:0px;"/></g></g></g></g></g></svg>