<svg xmlns="http://www.w3.org/2000/svg" id="sprotty_fulladder" class="sprotty-graph sprotty-block-diagram blockdiagram" style="font-family:&quot;Helvetica Neue&quot;, Helvetica, Arial, sans-serif;line-height:18px;perspective-origin:0px 0px;transform-origin:0px 0px;z-index:0;" version="1.1" viewBox="9.5 12 183.98234375 103.5576000213623"><g transform="scale(1) translate(0,0)"><g id="sprotty_ArchitectureBlockImpl$work.fulladder(synth)" transform="translate(12, 12)" class="architecture"><g class="sprotty-block" style="fill:rgb(245, 245, 245);stroke:rgb(48, 48, 48);stroke-dasharray:0px;"><rect x="0" y="0" rx="1" ry="1" width="177.15234375" height="103.5576000213623"/><path d="M14.64 16L12.40 16L11.44 12.27Q11.36 11.97 11.25 11.51Q11.14 11.06 11.02 10.56Q10.90 10.06 10.80 9.65Q10.70 9.23 10.66 9.01L10.66 9.01L10.59 9.01Q10.54 9.23 10.45 9.65Q10.35 10.06 10.24 10.57Q10.13 11.07 10.01 11.53Q9.89 11.98 9.81 12.29L9.81 12.29L8.80 16L6.59 16L4.16 7.31L6.19 7.31L7.26 11.46Q7.38 11.89 7.48 12.41Q7.58 12.93 7.66 13.42Q7.73 13.90 7.78 14.21L7.78 14.21L7.84 14.21Q7.87 13.92 7.96 13.42Q8.05 12.93 8.14 12.46Q8.24 11.98 8.30 11.74L8.30 11.74L9.55 7.31L11.76 7.31L12.96 11.74Q13.02 12.03 13.13 12.50Q13.23 12.96 13.31 13.43Q13.39 13.90 13.41 14.19L13.41 14.19L13.47 14.19Q13.50 13.94 13.58 13.46Q13.66 12.98 13.78 12.43Q13.89 11.89 14.02 11.46L14.02 11.46L15.10 7.31L17.10 7.31L14.64 16ZM26.32 11.65L26.32 11.65Q26.32 13.81 25.20 14.98Q24.08 16.16 22.16 16.16L22.16 16.16Q20.98 16.16 20.05 15.63Q19.12 15.10 18.59 14.10Q18.06 13.09 18.06 11.65L18.06 11.65Q18.06 9.49 19.18 8.33Q20.29 7.17 22.21 7.17L22.21 7.17Q23.41 7.17 24.34 7.69Q25.26 8.21 25.79 9.21Q26.32 10.21 26.32 11.65ZM20.13 11.65L20.13 11.65Q20.13 13.02 20.62 13.78Q21.10 14.53 22.19 14.53L22.19 14.53Q23.28 14.53 23.77 13.78Q24.26 13.02 24.26 11.65L24.26 11.65Q24.26 10.27 23.77 9.54Q23.28 8.80 22.18 8.80L22.18 8.80Q21.10 8.80 20.62 9.54Q20.13 10.27 20.13 11.65ZM32.94 7.17L32.94 7.17Q33.15 7.17 33.40 7.18Q33.65 7.20 33.82 7.25L33.82 7.25L33.65 9.12Q33.49 9.09 33.26 9.06Q33.04 9.04 32.86 9.04L32.86 9.04Q32.22 9.04 31.66 9.30Q31.10 9.57 30.76 10.12Q30.42 10.67 30.42 11.50L30.42 11.50L30.42 16L28.40 16L28.40 7.33L29.95 7.33L30.24 8.83L30.34 8.83Q30.72 8.14 31.39 7.66Q32.06 7.17 32.94 7.17ZM35.42 3.84L37.42 3.84L37.42 9.62Q37.42 10.03 37.39 10.50Q37.36 10.96 37.33 11.38L37.33 11.38L37.38 11.38Q37.57 11.09 37.86 10.72Q38.14 10.35 38.40 10.06L38.40 10.06L40.96 7.33L43.25 7.33L39.78 11.07L43.47 16L41.12 16L38.43 12.29L37.42 13.12L37.42 16L35.42 16L35.42 3.84ZM44.54 14.98L44.54 14.98Q44.54 14.30 44.90 14.02Q45.25 13.74 45.76 13.74L45.76 13.74Q46.26 13.74 46.62 14.02Q46.99 14.30 46.99 14.98L46.99 14.98Q46.99 15.63 46.62 15.92Q46.26 16.21 45.76 16.21L45.76 16.21Q45.25 16.21 44.90 15.92Q44.54 15.63 44.54 14.98ZM53.79 7.33L53.79 8.85L51.70 8.85L51.70 16L49.68 16L49.68 8.85L48.29 8.85L48.29 7.89L49.68 7.31L49.68 6.72Q49.68 5.06 50.47 4.41Q51.26 3.76 52.64 3.76L52.64 3.76Q53.26 3.76 53.78 3.86Q54.30 3.97 54.64 4.10L54.64 4.10L54.13 5.60Q53.86 5.52 53.53 5.45Q53.20 5.38 52.82 5.38L52.82 5.38Q52.24 5.38 51.97 5.74Q51.70 6.10 51.70 6.77L51.70 6.77L51.70 7.33L53.79 7.33ZM60.91 7.33L62.93 7.33L62.93 16L61.34 16L61.07 14.88L60.98 14.88Q60.54 15.55 59.82 15.86Q59.09 16.16 58.27 16.16L58.27 16.16Q56.82 16.16 55.99 15.41Q55.17 14.66 55.17 12.99L55.17 12.99L55.17 7.33L57.18 7.33L57.18 12.59Q57.18 14.53 58.78 14.53L58.78 14.53Q60.00 14.53 60.46 13.77Q60.91 13.01 60.91 11.57L60.91 11.57L60.91 7.33ZM67.52 3.84L67.52 16L65.50 16L65.50 3.84L67.52 3.84ZM72.11 3.84L72.11 16L70.10 16L70.10 3.84L72.11 3.84ZM78.14 7.17L78.14 7.17Q79.82 7.17 80.70 7.90Q81.57 8.64 81.57 10.18L81.57 10.18L81.57 16L80.14 16L79.74 14.80L79.68 14.80Q79.12 15.50 78.50 15.83Q77.87 16.16 76.80 16.16L76.80 16.16Q75.63 16.16 74.86 15.50Q74.10 14.85 74.10 13.47L74.10 13.47Q74.10 12.13 75.08 11.46Q76.06 10.78 78.06 10.70L78.06 10.70L79.57 10.66L79.57 10.22Q79.57 9.41 79.17 9.05Q78.77 8.69 78.05 8.69L78.05 8.69Q77.39 8.69 76.79 8.88Q76.19 9.07 75.60 9.33L75.60 9.33L74.96 7.92Q75.60 7.58 76.42 7.38Q77.25 7.17 78.14 7.17ZM79.57 12.64L79.57 11.90L78.51 11.94Q77.18 11.98 76.67 12.39Q76.16 12.80 76.16 13.49L76.16 13.49Q76.16 14.11 76.52 14.38Q76.88 14.64 77.47 14.64L77.47 14.64Q78.35 14.64 78.96 14.14Q79.57 13.63 79.57 12.64L79.57 12.64ZM86.96 16.16L86.96 16.16Q85.44 16.16 84.51 15.02Q83.58 13.89 83.58 11.68L83.58 11.68Q83.58 9.44 84.53 8.30Q85.47 7.17 87.01 7.17L87.01 7.17Q87.97 7.17 88.58 7.54Q89.20 7.90 89.57 8.43L89.57 8.43L89.66 8.43Q89.62 8.21 89.57 7.74Q89.52 7.28 89.52 6.88L89.52 6.88L89.52 3.84L91.54 3.84L91.54 16L89.97 16L89.60 14.86L89.52 14.86Q89.15 15.41 88.54 15.78Q87.94 16.16 86.96 16.16ZM87.57 14.53L87.57 14.53Q88.69 14.53 89.14 13.89Q89.60 13.25 89.62 11.95L89.62 11.95L89.62 11.70Q89.62 10.30 89.18 9.56Q88.74 8.82 87.54 8.82L87.54 8.82Q86.61 8.82 86.12 9.58Q85.63 10.34 85.63 11.71L85.63 11.71Q85.63 13.09 86.13 13.81Q86.62 14.53 87.57 14.53ZM96.98 16.16L96.98 16.16Q95.46 16.16 94.53 15.02Q93.60 13.89 93.60 11.68L93.60 11.68Q93.60 9.44 94.54 8.30Q95.49 7.17 97.02 7.17L97.02 7.17Q97.98 7.17 98.60 7.54Q99.22 7.90 99.58 8.43L99.58 8.43L99.68 8.43Q99.63 8.21 99.58 7.74Q99.54 7.28 99.54 6.88L99.54 6.88L99.54 3.84L101.55 3.84L101.55 16L99.98 16L99.62 14.86L99.54 14.86Q99.17 15.41 98.56 15.78Q97.95 16.16 96.98 16.16ZM97.58 14.53L97.58 14.53Q98.70 14.53 99.16 13.89Q99.62 13.25 99.63 11.95L99.63 11.95L99.63 11.70Q99.63 10.30 99.19 9.56Q98.75 8.82 97.55 8.82L97.55 8.82Q96.62 8.82 96.14 9.58Q95.65 10.34 95.65 11.71L95.65 11.71Q95.65 13.09 96.14 13.81Q96.64 14.53 97.58 14.53ZM107.62 7.17L107.62 7.17Q109.36 7.17 110.38 8.21Q111.39 9.25 111.39 11.10L111.39 11.10L111.39 12.13L105.66 12.13Q105.70 13.31 106.32 13.96Q106.94 14.61 108.05 14.61L108.05 14.61Q108.88 14.61 109.55 14.44Q110.22 14.27 110.93 13.95L110.93 13.95L110.93 15.57Q110.29 15.87 109.60 16.02Q108.91 16.16 107.95 16.16L107.95 16.16Q106.69 16.16 105.70 15.67Q104.72 15.18 104.17 14.19Q103.62 13.20 103.62 11.73L103.62 11.73Q103.62 9.50 104.72 8.34Q105.82 7.17 107.62 7.17ZM107.62 8.66L107.62 8.66Q106.80 8.66 106.30 9.18Q105.79 9.70 105.71 10.72L105.71 10.72L109.44 10.72Q109.42 9.82 108.98 9.24Q108.54 8.66 107.62 8.66ZM117.97 7.17L117.97 7.17Q118.18 7.17 118.42 7.18Q118.67 7.20 118.85 7.25L118.85 7.25L118.67 9.12Q118.51 9.09 118.29 9.06Q118.06 9.04 117.89 9.04L117.89 9.04Q117.25 9.04 116.69 9.30Q116.13 9.57 115.78 10.12Q115.44 10.67 115.44 11.50L115.44 11.50L115.44 16L113.42 16L113.42 7.33L114.98 7.33L115.26 8.83L115.36 8.83Q115.74 8.14 116.42 7.66Q117.09 7.17 117.97 7.17ZM119.79 11.62L119.79 11.62Q119.79 9.66 120.36 7.85Q120.93 6.03 122.14 4.58L122.14 4.58L123.86 4.58Q122.75 6.08 122.19 7.89Q121.63 9.70 121.63 11.60L121.63 11.60Q121.63 13.46 122.19 15.25Q122.75 17.04 123.84 18.53L123.84 18.53L122.14 18.53Q120.93 17.12 120.36 15.34Q119.79 13.55 119.79 11.62ZM131.54 13.49L131.54 13.49Q131.54 14.80 130.60 15.48Q129.66 16.16 127.92 16.16L127.92 16.16Q127.01 16.16 126.36 16.03Q125.71 15.90 125.10 15.63L125.10 15.63L125.10 13.92Q125.74 14.22 126.52 14.43Q127.30 14.64 127.98 14.64L127.98 14.64Q128.82 14.64 129.18 14.38Q129.55 14.13 129.55 13.70L129.55 13.70Q129.55 13.44 129.41 13.24Q129.26 13.04 128.84 12.80Q128.42 12.56 127.58 12.21L127.58 12.21Q126.75 11.89 126.20 11.54Q125.65 11.20 125.37 10.74Q125.09 10.27 125.09 9.54L125.09 9.54Q125.09 8.37 126.01 7.77Q126.93 7.17 128.46 7.17L128.46 7.17Q129.26 7.17 129.98 7.33Q130.69 7.49 131.41 7.81L131.41 7.81L130.77 9.30Q130.16 9.04 129.58 8.86Q129.01 8.69 128.40 8.69L128.40 8.69Q127.07 8.69 127.07 9.44L127.07 9.44Q127.07 9.71 127.24 9.90Q127.41 10.10 127.83 10.31Q128.26 10.53 129.04 10.83L129.04 10.83Q129.81 11.14 130.37 11.46Q130.93 11.79 131.23 12.27Q131.54 12.75 131.54 13.49ZM135.65 15.97L132.18 7.33L134.37 7.33L136.10 12.22Q136.27 12.69 136.38 13.14Q136.50 13.58 136.54 14.05L136.54 14.05L136.61 14.05Q136.67 13.65 136.80 13.17Q136.93 12.69 137.09 12.22L137.09 12.22L138.75 7.33L140.93 7.33L137.23 17.15Q136.74 18.45 135.88 19.14Q135.02 19.84 133.78 19.84L133.78 19.84Q133.38 19.84 133.09 19.80Q132.80 19.76 132.58 19.71L132.58 19.71L132.58 18.11Q132.75 18.14 133.00 18.18Q133.25 18.21 133.52 18.21L133.52 18.21Q134.27 18.21 134.71 17.77Q135.15 17.33 135.39 16.67L135.39 16.67L135.65 15.97ZM146.86 7.17L146.86 7.17Q148.32 7.17 149.14 7.92Q149.97 8.67 149.97 10.35L149.97 10.35L149.97 16L147.95 16L147.95 10.75Q147.95 8.80 146.35 8.80L146.35 8.80Q145.14 8.80 144.69 9.57Q144.24 10.34 144.24 11.76L144.24 11.76L144.24 16L142.22 16L142.22 7.33L143.78 7.33L144.06 8.46L144.18 8.46Q144.59 7.79 145.32 7.48Q146.05 7.17 146.86 7.17ZM155.86 14.54L155.86 14.54Q156.22 14.54 156.58 14.47Q156.94 14.40 157.25 14.30L157.25 14.30L157.25 15.81Q156.93 15.95 156.42 16.06Q155.90 16.16 155.34 16.16L155.34 16.16Q154.61 16.16 154.00 15.91Q153.39 15.66 153.04 15.06Q152.69 14.45 152.69 13.36L152.69 13.36L152.69 8.85L151.52 8.85L151.52 7.97L152.80 7.26L153.44 5.42L154.70 5.42L154.70 7.33L157.17 7.33L157.17 8.85L154.70 8.85L154.70 13.34Q154.70 13.95 155.02 14.25Q155.34 14.54 155.86 14.54ZM158.99 3.84L161.01 3.84L161.01 6.74Q161.01 7.25 160.97 7.74Q160.93 8.22 160.90 8.46L160.90 8.46L161.02 8.46Q161.44 7.81 162.11 7.49Q162.78 7.17 163.60 7.17L163.60 7.17Q165.07 7.17 165.90 7.92Q166.74 8.67 166.74 10.35L166.74 10.35L166.74 16L164.72 16L164.72 10.75Q164.72 8.80 163.12 8.80L163.12 8.80Q161.90 8.80 161.46 9.57Q161.01 10.34 161.01 11.76L161.01 11.76L161.01 16L158.99 16L158.99 3.84ZM172.51 11.62L172.51 11.62Q172.51 13.55 171.94 15.34Q171.38 17.12 170.16 18.53L170.16 18.53L168.46 18.53Q169.55 17.04 170.12 15.25Q170.69 13.46 170.69 11.60L170.69 11.60Q170.69 9.70 170.12 7.89Q169.55 6.08 168.45 4.58L168.45 4.58L170.16 4.58Q171.38 6.03 171.94 7.85Q172.51 9.66 172.51 11.62Z" class="sprotty-block-name" style="fill:rgb(48, 48, 48);stroke:rgba(0, 0, 0, 0);"/><line x1="0" y1="20" x2="177.15234375" y2="20"/></g><g id="sprotty_ArchitectureBlockImpl$work.fulladder(synth)/GPortImpl$cin" transform="translate(0, 84.5900502204895)" class="triangle"><path d="M 0,0 L 5,2.5 L 0,5 Z" transform="translate(-1.67, -2.5)" class="sprotty-port" style="fill:rgb(48, 48, 48);stroke:rgb(48, 48, 48);"/><g class="port sprotty-label" id="sprotty_ArchitectureBlockImpl$work.fulladder(synth)/GPortImpl$cin/label" transform="translate(3, -6.967549800872803) translate(0, -0.13300000131130219)" style="cursor:default;fill:rgb(48, 48, 48);font-family:Arial, Helvetica, sans-serif;text-anchor:middle;"><path d="M3.99 0.13L3.99 0.13Q3.05 0.13 2.31-0.25Q1.57-0.64 1.15-1.45Q0.73-2.26 0.73-3.52L0.73-3.52Q0.73-4.84 1.17-5.67Q1.61-6.49 2.36-6.88Q3.11-7.26 4.07-7.26L4.07-7.26Q4.62-7.26 5.12-7.15Q5.63-7.04 5.95-6.88L5.95-6.88L5.59-5.91Q5.27-6.02 4.84-6.13Q4.42-6.24 4.04-6.24L4.04-6.24Q1.94-6.24 1.94-3.54L1.94-3.54Q1.94-2.25 2.45-1.56Q2.97-0.88 3.98-0.88L3.98-0.88Q4.56-0.88 5.01-1.00Q5.45-1.12 5.83-1.29L5.83-1.29L5.83-0.25Q5.47-0.07 5.03 0.03Q4.60 0.13 3.99 0.13ZM8.11-8.31L8.11-8.31Q7.82-8.31 7.62-8.50Q7.42-8.68 7.42-9.06L7.42-9.06Q7.42-9.44 7.62-9.62Q7.82-9.80 8.11-9.80L8.11-9.80Q8.38-9.80 8.59-9.62Q8.79-9.44 8.79-9.06L8.79-9.06Q8.79-8.68 8.59-8.50Q8.38-8.31 8.11-8.31ZM8.68 0L7.51 0L7.51-7.13L8.68-7.13L8.68 0ZM12.12 0L10.95 0L10.95-7.13L11.89-7.13L12.06-6.16L12.13-6.16Q12.48-6.72 13.09-6.99Q13.70-7.26 14.38-7.26L14.38-7.26Q15.65-7.26 16.31-6.64Q16.96-6.02 16.96-4.64L16.96-4.64L16.96 0L15.80 0L15.80-4.56Q15.80-6.28 14.20-6.28L14.20-6.28Q13.02-6.28 12.57-5.61Q12.12-4.95 12.12-3.70L12.12-3.70L12.12 0Z" transform="translate(4, 11.935100000000002)"/><rect x="0" y="0.133" width="26.0348" height="13.935100000000002" class="clickable" style="cursor:pointer;fill:rgba(0, 0, 0, 0);fill-opacity:0;stroke-width:0px;"/></g></g><g id="sprotty_ArchitectureBlockImpl$work.fulladder(synth)/GPortImpl$b" transform="translate(0, 60.50200033187866)" class="triangle"><path d="M 0,0 L 5,2.5 L 0,5 Z" transform="translate(-1.67, -2.5)" class="sprotty-port" style="fill:rgb(48, 48, 48);stroke:rgb(48, 48, 48);"/><g class="port sprotty-label" id="sprotty_ArchitectureBlockImpl$work.fulladder(synth)/GPortImpl$b/label" transform="translate(3, -7.120500087738037) translate(0, -0.13300000131130219)" style="cursor:default;fill:rgb(48, 48, 48);font-family:Arial, Helvetica, sans-serif;text-anchor:middle;"><path d="M4.51 0.13L4.51 0.13Q3.67 0.13 3.14-0.17Q2.61-0.48 2.30-0.90L2.30-0.90L2.21-0.90L1.97 0L1.13 0L1.13-10.11L2.30-10.11L2.30-7.65Q2.30-7.20 2.28-6.80Q2.26-6.41 2.23-6.18L2.23-6.18L2.30-6.18Q2.61-6.64 3.14-6.94Q3.67-7.25 4.51-7.25L4.51-7.25Q5.84-7.25 6.64-6.32Q7.45-5.40 7.45-3.56L7.45-3.56Q7.45-1.73 6.64-0.80Q5.83 0.13 4.51 0.13ZM4.34-0.84L4.34-0.84Q5.29-0.84 5.77-1.54Q6.24-2.25 6.24-3.58L6.24-3.58Q6.24-6.28 4.31-6.28L4.31-6.28Q3.18-6.28 2.74-5.63Q2.30-4.97 2.30-3.60L2.30-3.60L2.30-3.55Q2.30-2.23 2.73-1.54Q3.17-0.84 4.34-0.84Z" transform="translate(4, 12.241)"/><rect x="0" y="0.133" width="16.1795" height="14.241" class="clickable" style="cursor:pointer;fill:rgba(0, 0, 0, 0);fill-opacity:0;stroke-width:0px;"/></g></g><g id="sprotty_ArchitectureBlockImpl$work.fulladder(synth)/GPortImpl$a" transform="translate(0, 37.69075012207031)" class="triangle"><path d="M 0,0 L 5,2.5 L 0,5 Z" transform="translate(-1.67, -2.5)" class="sprotty-port" style="fill:rgb(48, 48, 48);stroke:rgb(48, 48, 48);"/><g class="port sprotty-label" id="sprotty_ArchitectureBlockImpl$work.fulladder(synth)/GPortImpl$a/label" transform="translate(3, -5.6907501220703125) translate(0, -0.13300000131130219)" style="cursor:default;fill:rgb(48, 48, 48);font-family:Arial, Helvetica, sans-serif;text-anchor:middle;"><path d="M2.86 0.13L2.86 0.13Q1.89 0.13 1.25-0.38Q0.61-0.89 0.61-1.98L0.61-1.98Q0.61-3.05 1.45-3.62Q2.29-4.20 4.03-4.26L4.03-4.26L5.24-4.30L5.24-4.72Q5.24-5.61 4.85-5.96Q4.47-6.30 3.76-6.30L3.76-6.30Q3.21-6.30 2.70-6.14Q2.19-5.97 1.76-5.76L1.76-5.76L1.40-6.64Q1.86-6.89 2.50-7.07Q3.14-7.25 3.83-7.25L3.83-7.25Q5.13-7.25 5.76-6.68Q6.38-6.10 6.38-4.85L6.38-4.85L6.38 0L5.53 0L5.31-1.01L5.25-1.01Q4.79-0.43 4.28-0.15Q3.76 0.13 2.86 0.13ZM3.13-0.81L3.13-0.81Q4.03-0.81 4.63-1.31Q5.23-1.81 5.23-2.85L5.23-2.85L5.23-3.48L4.18-3.44Q2.85-3.39 2.33-3.02Q1.82-2.65 1.82-1.97L1.82-1.97Q1.82-1.37 2.19-1.09Q2.55-0.81 3.13-0.81Z" transform="translate(4, 9.3815)"/><rect x="0" y="0.133" width="15.461300000000001" height="11.3815" class="clickable" style="cursor:pointer;fill:rgba(0, 0, 0, 0);fill-opacity:0;stroke-width:0px;"/></g></g><g id="sprotty_ArchitectureBlockImpl$work.fulladder(synth)/GPortImpl$s" transform="translate(177.15234375, 37.69740009307861)" class="triangle"><path d="M 0,0 L 5,2.5 L 0,5 Z" transform="translate(-1.67, -2.5)" class="sprotty-port" style="fill:rgb(48, 48, 48);stroke:rgb(48, 48, 48);"/><g class="port sprotty-label" id="sprotty_ArchitectureBlockImpl$work.fulladder(synth)/GPortImpl$s/label" transform="translate(-17.370699882507324, -5.697400093078613) translate(0, -0.13300000131130219)" style="cursor:default;fill:rgb(48, 48, 48);font-family:Arial, Helvetica, sans-serif;text-anchor:middle;"><path d="M2.93 0.13L2.93 0.13Q2.18 0.13 1.64 0.01Q1.10-0.11 0.69-0.32L0.69-0.32L0.69-1.38Q1.12-1.17 1.72-0.99Q2.33-0.81 2.95-0.81L2.95-0.81Q3.84-0.81 4.24-1.10Q4.64-1.38 4.64-1.86L4.64-1.86Q4.64-2.13 4.50-2.34Q4.35-2.55 3.97-2.77Q3.59-2.98 2.89-3.25L2.89-3.25Q2.19-3.51 1.70-3.78Q1.21-4.04 0.94-4.42Q0.68-4.79 0.68-5.37L0.68-5.37Q0.68-6.28 1.42-6.77Q2.15-7.26 3.35-7.26L3.35-7.26Q4.00-7.26 4.57-7.14Q5.13-7.01 5.63-6.78L5.63-6.78L5.23-5.85Q4.77-6.04 4.28-6.17Q3.79-6.30 3.27-6.30L3.27-6.30Q2.55-6.30 2.17-6.07Q1.80-5.84 1.80-5.44L1.80-5.44Q1.80-5.15 1.97-4.94Q2.14-4.73 2.55-4.54Q2.95-4.35 3.63-4.08L3.63-4.08Q4.31-3.83 4.79-3.56Q5.27-3.29 5.52-2.91Q5.77-2.54 5.77-1.97L5.77-1.97Q5.77-0.93 5.00-0.40Q4.23 0.13 2.93 0.13Z" transform="translate(4, 9.3948)"/><rect x="0" y="0.133" width="14.3707" height="11.3948" class="clickable" style="cursor:pointer;fill:rgba(0, 0, 0, 0);fill-opacity:0;stroke-width:0px;"/></g></g><g id="sprotty_ArchitectureBlockImpl$work.fulladder(synth)/GPortImpl$cout" transform="translate(177.15234375, 85.1087498664856)" class="triangle"><path d="M 0,0 L 5,2.5 L 0,5 Z" transform="translate(-1.67, -2.5)" class="sprotty-port" style="fill:rgb(48, 48, 48);stroke:rgb(48, 48, 48);"/><g class="port sprotty-label" id="sprotty_ArchitectureBlockImpl$work.fulladder(synth)/GPortImpl$cout/label" transform="translate(-38.45119857788086, -6.448850154876709) translate(0, -0.13300000131130219)" style="cursor:default;fill:rgb(48, 48, 48);font-family:Arial, Helvetica, sans-serif;text-anchor:middle;"><path d="M3.99 0.13L3.99 0.13Q3.05 0.13 2.31-0.25Q1.57-0.64 1.15-1.45Q0.73-2.26 0.73-3.52L0.73-3.52Q0.73-4.84 1.17-5.67Q1.61-6.49 2.36-6.88Q3.11-7.26 4.07-7.26L4.07-7.26Q4.62-7.26 5.12-7.15Q5.63-7.04 5.95-6.88L5.95-6.88L5.59-5.91Q5.27-6.02 4.84-6.13Q4.42-6.24 4.04-6.24L4.04-6.24Q1.94-6.24 1.94-3.54L1.94-3.54Q1.94-2.25 2.45-1.56Q2.97-0.88 3.98-0.88L3.98-0.88Q4.56-0.88 5.01-1.00Q5.45-1.12 5.83-1.29L5.83-1.29L5.83-0.25Q5.47-0.07 5.03 0.03Q4.60 0.13 3.99 0.13ZM10.39 0.13L10.39 0.13Q9.44 0.13 8.70-0.30Q7.97-0.73 7.54-1.56Q7.12-2.39 7.12-3.58L7.12-3.58Q7.12-5.35 8.01-6.30Q8.90-7.26 10.43-7.26L10.43-7.26Q11.40-7.26 12.14-6.83Q12.87-6.40 13.29-5.58Q13.71-4.76 13.71-3.58L13.71-3.58Q13.71-1.81 12.81-0.84Q11.92 0.13 10.39 0.13ZM10.41-0.84L10.41-0.84Q11.49-0.84 12.00-1.58Q12.50-2.31 12.50-3.58L12.50-3.58Q12.50-4.84 12.00-5.56Q11.49-6.28 10.40-6.28L10.40-6.28Q9.31-6.28 8.82-5.56Q8.33-4.84 8.33-3.58L8.33-3.58Q8.33-2.31 8.82-1.58Q9.32-0.84 10.41-0.84ZM18.07 0.13L18.07 0.13Q16.78 0.13 16.13-0.49Q15.48-1.10 15.48-2.46L15.48-2.46L15.48-7.13L16.66-7.13L16.66-2.54Q16.66-0.84 18.25-0.84L18.25-0.84Q19.43-0.84 19.89-1.50Q20.35-2.17 20.35-3.42L20.35-3.42L20.35-7.13L21.52-7.13L21.52 0L20.56 0L20.39-0.94L20.34-0.94Q19.99-0.39 19.38-0.13Q18.77 0.13 18.07 0.13ZM25.96 0.13L25.96 0.13Q25.40 0.13 24.93-0.06Q24.46-0.25 24.17-0.73Q23.87-1.21 23.87-2.07L23.87-2.07L23.87-6.22L22.86-6.22L22.86-6.78L23.89-7.25L24.35-8.76L25.04-8.76L25.04-7.13L27.11-7.13L27.11-6.22L25.04-6.22L25.04-2.10Q25.04-1.45 25.36-1.14Q25.67-0.82 26.16-0.82L26.16-0.82Q26.43-0.82 26.71-0.87Q26.99-0.92 27.16-0.97L27.16-0.97L27.16-0.08Q26.97 0.01 26.63 0.07Q26.28 0.13 25.96 0.13Z" transform="translate(4, 10.8977)"/><rect x="0" y="0.133" width="35.4512" height="12.8977" class="clickable" style="cursor:pointer;fill:rgba(0, 0, 0, 0);fill-opacity:0;stroke-width:0px;"/></g></g></g></g></svg>