<svg xmlns="http://www.w3.org/2000/svg" id="sprotty_fulladder" class="sprotty-graph sprotty-block-diagram blockdiagram" style="font-family:&quot;Helvetica Neue&quot;, Helvetica, Arial, sans-serif;line-height:18px;perspective-origin:0px 0px;transform-origin:0px 0px;z-index:0;" version="1.1" viewBox="9.5 12 199.5769482421875 165.17609977722168"><g transform="scale(1) translate(0,0)"><g id="sprotty_ArchitectureBlockImpl$work.fulladder(synth)" transform="translate(12, 12)" class="architecture"><g class="sprotty-block" style="fill:rgb(245, 245, 245);stroke:rgb(48, 48, 48);stroke-dasharray:0px;"><rect x="0" y="0" rx="1" ry="1" width="192.7469482421875" height="165.17609977722168"/><path d="M22.44 16L20.20 16L19.24 12.27Q19.16 11.97 19.05 11.51Q18.93 11.06 18.81 10.56Q18.69 10.06 18.60 9.65Q18.50 9.23 18.45 9.01L18.45 9.01L18.39 9.01Q18.34 9.23 18.25 9.65Q18.15 10.06 18.04 10.57Q17.93 11.07 17.81 11.53Q17.69 11.98 17.61 12.29L17.61 12.29L16.60 16L14.39 16L11.96 7.31L13.99 7.31L15.06 11.46Q15.17 11.89 15.28 12.41Q15.38 12.93 15.45 13.42Q15.53 13.90 15.57 14.21L15.57 14.21L15.64 14.21Q15.67 13.92 15.76 13.42Q15.85 12.93 15.94 12.46Q16.04 11.98 16.10 11.74L16.10 11.74L17.35 7.31L19.56 7.31L20.76 11.74Q20.82 12.03 20.93 12.50Q21.03 12.96 21.11 13.43Q21.19 13.90 21.21 14.19L21.21 14.19L21.27 14.19Q21.30 13.94 21.38 13.46Q21.46 12.98 21.57 12.43Q21.69 11.89 21.81 11.46L21.81 11.46L22.90 7.31L24.90 7.31L22.44 16ZM34.12 11.65L34.12 11.65Q34.12 13.81 33.00 14.98Q31.88 16.16 29.96 16.16L29.96 16.16Q28.77 16.16 27.85 15.63Q26.92 15.10 26.39 14.10Q25.86 13.09 25.86 11.65L25.86 11.65Q25.86 9.49 26.97 8.33Q28.09 7.17 30.01 7.17L30.01 7.17Q31.21 7.17 32.13 7.69Q33.06 8.21 33.59 9.21Q34.12 10.21 34.12 11.65ZM27.93 11.65L27.93 11.65Q27.93 13.02 28.41 13.78Q28.90 14.53 29.99 14.53L29.99 14.53Q31.08 14.53 31.57 13.78Q32.05 13.02 32.05 11.65L32.05 11.65Q32.05 10.27 31.57 9.54Q31.08 8.80 29.97 8.80L29.97 8.80Q28.90 8.80 28.41 9.54Q27.93 10.27 27.93 11.65ZM40.74 7.17L40.74 7.17Q40.95 7.17 41.20 7.18Q41.45 7.20 41.62 7.25L41.62 7.25L41.45 9.12Q41.29 9.09 41.06 9.06Q40.84 9.04 40.66 9.04L40.66 9.04Q40.02 9.04 39.46 9.30Q38.90 9.57 38.56 10.12Q38.21 10.67 38.21 11.50L38.21 11.50L38.21 16L36.20 16L36.20 7.33L37.75 7.33L38.04 8.83L38.13 8.83Q38.52 8.14 39.19 7.66Q39.86 7.17 40.74 7.17ZM43.22 3.84L45.22 3.84L45.22 9.62Q45.22 10.03 45.19 10.50Q45.16 10.96 45.13 11.38L45.13 11.38L45.17 11.38Q45.37 11.09 45.65 10.72Q45.94 10.35 46.20 10.06L46.20 10.06L48.76 7.33L51.05 7.33L47.57 11.07L51.27 16L48.92 16L46.23 12.29L45.22 13.12L45.22 16L43.22 16L43.22 3.84ZM52.34 14.98L52.34 14.98Q52.34 14.30 52.69 14.02Q53.05 13.74 53.56 13.74L53.56 13.74Q54.05 13.74 54.42 14.02Q54.79 14.30 54.79 14.98L54.79 14.98Q54.79 15.63 54.42 15.92Q54.05 16.21 53.56 16.21L53.56 16.21Q53.05 16.21 52.69 15.92Q52.34 15.63 52.34 14.98ZM61.59 7.33L61.59 8.85L59.49 8.85L59.49 16L57.48 16L57.48 8.85L56.09 8.85L56.09 7.89L57.48 7.31L57.48 6.72Q57.48 5.06 58.27 4.41Q59.06 3.76 60.44 3.76L60.44 3.76Q61.06 3.76 61.58 3.86Q62.10 3.97 62.44 4.10L62.44 4.10L61.93 5.60Q61.65 5.52 61.33 5.45Q61.00 5.38 60.61 5.38L60.61 5.38Q60.04 5.38 59.77 5.74Q59.49 6.10 59.49 6.77L59.49 6.77L59.49 7.33L61.59 7.33ZM68.71 7.33L70.73 7.33L70.73 16L69.14 16L68.87 14.88L68.77 14.88Q68.34 15.55 67.61 15.86Q66.89 16.16 66.07 16.16L66.07 16.16Q64.61 16.16 63.79 15.41Q62.97 14.66 62.97 12.99L62.97 12.99L62.97 7.33L64.98 7.33L64.98 12.59Q64.98 14.53 66.58 14.53L66.58 14.53Q67.80 14.53 68.25 13.77Q68.71 13.01 68.71 11.57L68.71 11.57L68.71 7.33ZM75.32 3.84L75.32 16L73.30 16L73.30 3.84L75.32 3.84ZM79.91 3.84L79.91 16L77.89 16L77.89 3.84L79.91 3.84ZM85.94 7.17L85.94 7.17Q87.62 7.17 88.49 7.90Q89.37 8.64 89.37 10.18L89.37 10.18L89.37 16L87.94 16L87.54 14.80L87.48 14.80Q86.92 15.50 86.29 15.83Q85.67 16.16 84.60 16.16L84.60 16.16Q83.43 16.16 82.66 15.50Q81.89 14.85 81.89 13.47L81.89 13.47Q81.89 12.13 82.88 11.46Q83.86 10.78 85.86 10.70L85.86 10.70L87.37 10.66L87.37 10.22Q87.37 9.41 86.97 9.05Q86.57 8.69 85.85 8.69L85.85 8.69Q85.19 8.69 84.59 8.88Q83.99 9.07 83.40 9.33L83.40 9.33L82.76 7.92Q83.40 7.58 84.22 7.38Q85.05 7.17 85.94 7.17ZM87.37 12.64L87.37 11.90L86.31 11.94Q84.98 11.98 84.47 12.39Q83.96 12.80 83.96 13.49L83.96 13.49Q83.96 14.11 84.32 14.38Q84.68 14.64 85.27 14.64L85.27 14.64Q86.15 14.64 86.76 14.14Q87.37 13.63 87.37 12.64L87.37 12.64ZM94.76 16.16L94.76 16.16Q93.24 16.16 92.31 15.02Q91.38 13.89 91.38 11.68L91.38 11.68Q91.38 9.44 92.33 8.30Q93.27 7.17 94.81 7.17L94.81 7.17Q95.77 7.17 96.38 7.54Q97.00 7.90 97.37 8.43L97.37 8.43L97.46 8.43Q97.41 8.21 97.37 7.74Q97.32 7.28 97.32 6.88L97.32 6.88L97.32 3.84L99.33 3.84L99.33 16L97.77 16L97.40 14.86L97.32 14.86Q96.95 15.41 96.34 15.78Q95.73 16.16 94.76 16.16ZM95.37 14.53L95.37 14.53Q96.49 14.53 96.94 13.89Q97.40 13.25 97.41 11.95L97.41 11.95L97.41 11.70Q97.41 10.30 96.97 9.56Q96.53 8.82 95.33 8.82L95.33 8.82Q94.41 8.82 93.92 9.58Q93.43 10.34 93.43 11.71L93.43 11.71Q93.43 13.09 93.93 13.81Q94.42 14.53 95.37 14.53ZM104.77 16.16L104.77 16.16Q103.25 16.16 102.33 15.02Q101.40 13.89 101.40 11.68L101.40 11.68Q101.40 9.44 102.34 8.30Q103.29 7.17 104.82 7.17L104.82 7.17Q105.78 7.17 106.40 7.54Q107.01 7.90 107.38 8.43L107.38 8.43L107.48 8.43Q107.43 8.21 107.38 7.74Q107.33 7.28 107.33 6.88L107.33 6.88L107.33 3.84L109.35 3.84L109.35 16L107.78 16L107.41 14.86L107.33 14.86Q106.97 15.41 106.36 15.78Q105.75 16.16 104.77 16.16ZM105.38 14.53L105.38 14.53Q106.50 14.53 106.96 13.89Q107.41 13.25 107.43 11.95L107.43 11.95L107.43 11.70Q107.43 10.30 106.99 9.56Q106.55 8.82 105.35 8.82L105.35 8.82Q104.42 8.82 103.93 9.58Q103.45 10.34 103.45 11.71L103.45 11.71Q103.45 13.09 103.94 13.81Q104.44 14.53 105.38 14.53ZM115.41 7.17L115.41 7.17Q117.16 7.17 118.17 8.21Q119.19 9.25 119.19 11.10L119.19 11.10L119.19 12.13L113.46 12.13Q113.49 13.31 114.12 13.96Q114.74 14.61 115.85 14.61L115.85 14.61Q116.68 14.61 117.35 14.44Q118.02 14.27 118.73 13.95L118.73 13.95L118.73 15.57Q118.09 15.87 117.40 16.02Q116.71 16.16 115.75 16.16L115.75 16.16Q114.49 16.16 113.50 15.67Q112.52 15.18 111.97 14.19Q111.41 13.20 111.41 11.73L111.41 11.73Q111.41 9.50 112.52 8.34Q113.62 7.17 115.41 7.17ZM115.41 8.66L115.41 8.66Q114.60 8.66 114.09 9.18Q113.59 9.70 113.51 10.72L113.51 10.72L117.24 10.72Q117.22 9.82 116.78 9.24Q116.34 8.66 115.41 8.66ZM125.77 7.17L125.77 7.17Q125.97 7.17 126.22 7.18Q126.47 7.20 126.65 7.25L126.65 7.25L126.47 9.12Q126.31 9.09 126.09 9.06Q125.86 9.04 125.69 9.04L125.69 9.04Q125.05 9.04 124.49 9.30Q123.93 9.57 123.58 10.12Q123.24 10.67 123.24 11.50L123.24 11.50L123.24 16L121.22 16L121.22 7.33L122.77 7.33L123.06 8.83L123.16 8.83Q123.54 8.14 124.21 7.66Q124.89 7.17 125.77 7.17ZM127.59 11.62L127.59 11.62Q127.59 9.66 128.16 7.85Q128.73 6.03 129.94 4.58L129.94 4.58L131.65 4.58Q130.55 6.08 129.99 7.89Q129.43 9.70 129.43 11.60L129.43 11.60Q129.43 13.46 129.99 15.25Q130.55 17.04 131.64 18.53L131.64 18.53L129.94 18.53Q128.73 17.12 128.16 15.34Q127.59 13.55 127.59 11.62ZM139.33 13.49L139.33 13.49Q139.33 14.80 138.40 15.48Q137.46 16.16 135.72 16.16L135.72 16.16Q134.81 16.16 134.16 16.03Q133.51 15.90 132.90 15.63L132.90 15.63L132.90 13.92Q133.54 14.22 134.32 14.43Q135.09 14.64 135.78 14.64L135.78 14.64Q136.61 14.64 136.98 14.38Q137.35 14.13 137.35 13.70L137.35 13.70Q137.35 13.44 137.21 13.24Q137.06 13.04 136.64 12.80Q136.21 12.56 135.38 12.21L135.38 12.21Q134.55 11.89 134.00 11.54Q133.45 11.20 133.17 10.74Q132.89 10.27 132.89 9.54L132.89 9.54Q132.89 8.37 133.81 7.77Q134.73 7.17 136.26 7.17L136.26 7.17Q137.06 7.17 137.77 7.33Q138.49 7.49 139.21 7.81L139.21 7.81L138.57 9.30Q137.96 9.04 137.38 8.86Q136.81 8.69 136.20 8.69L136.20 8.69Q134.87 8.69 134.87 9.44L134.87 9.44Q134.87 9.71 135.04 9.90Q135.21 10.10 135.63 10.31Q136.05 10.53 136.84 10.83L136.84 10.83Q137.61 11.14 138.17 11.46Q138.73 11.79 139.03 12.27Q139.33 12.75 139.33 13.49ZM143.45 15.97L139.97 7.33L142.17 7.33L143.89 12.22Q144.07 12.69 144.18 13.14Q144.29 13.58 144.34 14.05L144.34 14.05L144.41 14.05Q144.47 13.65 144.60 13.17Q144.73 12.69 144.89 12.22L144.89 12.22L146.55 7.33L148.73 7.33L145.03 17.15Q144.53 18.45 143.68 19.14Q142.82 19.84 141.57 19.84L141.57 19.84Q141.17 19.84 140.89 19.80Q140.60 19.76 140.37 19.71L140.37 19.71L140.37 18.11Q140.55 18.14 140.80 18.18Q141.05 18.21 141.32 18.21L141.32 18.21Q142.07 18.21 142.51 17.77Q142.95 17.33 143.19 16.67L143.19 16.67L143.45 15.97ZM154.66 7.17L154.66 7.17Q156.12 7.17 156.94 7.92Q157.77 8.67 157.77 10.35L157.77 10.35L157.77 16L155.75 16L155.75 10.75Q155.75 8.80 154.15 8.80L154.15 8.80Q152.93 8.80 152.49 9.57Q152.04 10.34 152.04 11.76L152.04 11.76L152.04 16L150.02 16L150.02 7.33L151.57 7.33L151.86 8.46L151.97 8.46Q152.39 7.79 153.12 7.48Q153.85 7.17 154.66 7.17ZM163.65 14.54L163.65 14.54Q164.02 14.54 164.38 14.47Q164.74 14.40 165.05 14.30L165.05 14.30L165.05 15.81Q164.73 15.95 164.21 16.06Q163.70 16.16 163.14 16.16L163.14 16.16Q162.41 16.16 161.80 15.91Q161.19 15.66 160.84 15.06Q160.49 14.45 160.49 13.36L160.49 13.36L160.49 8.85L159.32 8.85L159.32 7.97L160.60 7.26L161.24 5.42L162.50 5.42L162.50 7.33L164.97 7.33L164.97 8.85L162.50 8.85L162.50 13.34Q162.50 13.95 162.82 14.25Q163.14 14.54 163.65 14.54ZM166.79 3.84L168.81 3.84L168.81 6.74Q168.81 7.25 168.77 7.74Q168.73 8.22 168.69 8.46L168.69 8.46L168.82 8.46Q169.24 7.81 169.91 7.49Q170.58 7.17 171.40 7.17L171.40 7.17Q172.87 7.17 173.70 7.92Q174.53 8.67 174.53 10.35L174.53 10.35L174.53 16L172.52 16L172.52 10.75Q172.52 8.80 170.92 8.80L170.92 8.80Q169.70 8.80 169.25 9.57Q168.81 10.34 168.81 11.76L168.81 11.76L168.81 16L166.79 16L166.79 3.84ZM180.31 11.62L180.31 11.62Q180.31 13.55 179.74 15.34Q179.17 17.12 177.96 18.53L177.96 18.53L176.26 18.53Q177.35 17.04 177.92 15.25Q178.49 13.46 178.49 11.60L178.49 11.60Q178.49 9.70 177.92 7.89Q177.35 6.08 176.25 4.58L176.25 4.58L177.96 4.58Q179.17 6.03 179.74 7.85Q180.31 9.66 180.31 11.62Z" class="sprotty-block-name" style="fill:rgb(48, 48, 48);stroke:rgba(0, 0, 0, 0);"/><line x1="0" y1="20" x2="192.7469482421875" y2="20"/></g><g id="sprotty_ArchitectureBlockImpl$work.fulladder(synth)/GPortImpl$a_to_ArchitectureBlockImpl$work.fulladder(synth)/AssignmentBlockImpl$null8/GPortImpl$a" class="sprotty-edge edge" style="fill:none;stroke:rgb(112, 112, 112);stroke-linejoin:round;"><path d="M 0 62.935099601745605 L 74.03479766845703 62.935099601745605 "/></g><g id="sprotty_ArchitectureBlockImpl$work.fulladder(synth)/GPortImpl$a_to_ArchitectureBlockImpl$work.fulladder(synth)/AssignmentBlockImpl$null7/GPortImpl$a" class="sprotty-edge edge" style="fill:none;stroke:rgb(112, 112, 112);stroke-linejoin:round;"><path d="M 0 62.935099601745605 L 62.034799575805664 62.935099601745605 C 63.034799575805664 62.935099601745605 64.03479957580566 63.935099601745605 64.03479957580566 64.9350996017456 L 64.03479957580566 120.9350996017456 C 64.03479957580566 121.9350996017456 65.03479957580566 122.9350996017456 66.03479957580566 122.9350996017456 L 74.03479766845703 122.9350996017456 "/><circle r="2" id="sprotty_ArchitectureBlockImpl$work.fulladder(synth)/GPortImpl$a_to_ArchitectureBlockImpl$work.fulladder(synth)/AssignmentBlockImpl$null7/GPortImpl$a/junction0" transform="translate(64.03479957580566, 62.935099601745605)" class="sprotty-junction junction" style="fill:rgb(112, 112, 112);stroke:none;"/></g><g id="sprotty_ArchitectureBlockImpl$work.fulladder(synth)/GPortImpl$b_to_ArchitectureBlockImpl$work.fulladder(synth)/AssignmentBlockImpl$null8/GPortImpl$b" class="sprotty-edge edge" style="fill:none;stroke:rgb(112, 112, 112);stroke-linejoin:round;"><path d="M 0 132.9350996017456 L 52.034799575805664 132.9350996017456 C 53.034799575805664 132.9350996017456 54.034799575805664 131.9350996017456 54.034799575805664 130.9350996017456 L 54.034799575805664 74.9350996017456 C 54.034799575805664 73.9350996017456 55.034799575805664 72.9350996017456 56.034799575805664 72.9350996017456 L 74.03479766845703 72.9350996017456 "/><circle r="2" id="sprotty_ArchitectureBlockImpl$work.fulladder(synth)/GPortImpl$b_to_ArchitectureBlockImpl$work.fulladder(synth)/AssignmentBlockImpl$null8/GPortImpl$b/junction0" transform="translate(54.034799575805664, 132.9350996017456)" class="sprotty-junction junction" style="fill:rgb(112, 112, 112);stroke:none;"/></g><g id="sprotty_ArchitectureBlockImpl$work.fulladder(synth)/GPortImpl$b_to_ArchitectureBlockImpl$work.fulladder(synth)/AssignmentBlockImpl$null7/GPortImpl$b" class="sprotty-edge edge" style="fill:none;stroke:rgb(112, 112, 112);stroke-linejoin:round;"><path d="M 0 132.9350996017456 L 74.03479766845703 132.9350996017456 "/></g><g id="sprotty_ArchitectureBlockImpl$work.fulladder(synth)/GPortImpl$cin_to_ArchitectureBlockImpl$work.fulladder(synth)/AssignmentBlockImpl$null6/GPortImpl$cin" class="sprotty-edge edge" style="fill:none;stroke:rgb(112, 112, 112);stroke-linejoin:round;"><path d="M 0 36 L 109.66527557373047 36 C 110.66527557373047 36 111.66527557373047 37 111.66527557373047 38 L 111.66527557373047 55.935099601745605 C 111.66527557373047 56.935099601745605 112.66527557373047 57.935099601745605 113.66527557373047 57.935099601745605 L 121.66527557373047 57.935099601745605 "/><circle r="2" id="sprotty_ArchitectureBlockImpl$work.fulladder(synth)/GPortImpl$cin_to_ArchitectureBlockImpl$work.fulladder(synth)/AssignmentBlockImpl$null6/GPortImpl$cin/junction0" transform="translate(111.66527557373047, 57.935099601745605)" class="sprotty-junction junction" style="fill:rgb(112, 112, 112);stroke:none;"/></g><g id="sprotty_ArchitectureBlockImpl$work.fulladder(synth)/GPortImpl$cin_to_ArchitectureBlockImpl$work.fulladder(synth)/AssignmentBlockImpl$null5/GPortImpl$cin" class="sprotty-edge edge" style="fill:none;stroke:rgb(112, 112, 112);stroke-linejoin:round;"><path d="M 0 36 L 109.66527557373047 36 C 110.66527557373047 36 111.66527557373047 37 111.66527557373047 38 L 111.66527557373047 105.9350996017456 C 111.66527557373047 106.9350996017456 112.66527557373047 107.9350996017456 113.66527557373047 107.9350996017456 L 121.66527557373047 107.9350996017456 "/></g><g id="sprotty_ArchitectureBlockImpl$work.fulladder(synth)/AssignmentBlockImpl$null8/GPortImpl$p_to_ArchitectureBlockImpl$work.fulladder(synth)/AssignmentBlockImpl$null6/GPortImpl$p" class="sprotty-edge edge" style="fill:none;stroke:rgb(112, 112, 112);stroke-linejoin:round;"><path d="M 91.6652774810791 67.9350996017456 L 121.66527557373047 67.9350996017456 "/></g><g id="sprotty_ArchitectureBlockImpl$work.fulladder(synth)/AssignmentBlockImpl$null8/GPortImpl$p_to_ArchitectureBlockImpl$work.fulladder(synth)/AssignmentBlockImpl$null5/GPortImpl$p" class="sprotty-edge edge" style="fill:none;stroke:rgb(112, 112, 112);stroke-linejoin:round;"><path d="M 91.6652774810791 67.9350996017456 L 99.66527557373047 67.9350996017456 C 100.66527557373047 67.9350996017456 101.66527557373047 68.9350996017456 101.66527557373047 69.9350996017456 L 101.66527557373047 115.9350996017456 C 101.66527557373047 116.9350996017456 102.66527557373047 117.9350996017456 103.66527557373047 117.9350996017456 L 121.66527557373047 117.9350996017456 "/><circle r="2" id="sprotty_ArchitectureBlockImpl$work.fulladder(synth)/AssignmentBlockImpl$null8/GPortImpl$p_to_ArchitectureBlockImpl$work.fulladder(synth)/AssignmentBlockImpl$null5/GPortImpl$p/junction0" transform="translate(101.66527557373047, 67.9350996017456)" class="sprotty-junction junction" style="fill:rgb(112, 112, 112);stroke:none;"/></g><g id="sprotty_ArchitectureBlockImpl$work.fulladder(synth)/AssignmentBlockImpl$null7/GPortImpl$g_to_ArchitectureBlockImpl$work.fulladder(synth)/AssignmentBlockImpl$null5/GPortImpl$g" class="sprotty-edge edge" style="fill:none;stroke:rgb(112, 112, 112);stroke-linejoin:round;"><path d="M 91.6652774810791 127.9350996017456 L 121.66527557373047 127.9350996017456 "/></g><g id="sprotty_ArchitectureBlockImpl$work.fulladder(synth)/AssignmentBlockImpl$null6/GPortImpl$s_to_ArchitectureBlockImpl$work.fulladder(synth)/GPortImpl$s" class="sprotty-edge edge" style="fill:none;stroke:rgb(112, 112, 112);stroke-linejoin:round;"><path d="M 139.29575538635254 62.935099601745605 L 192.7469482421875 62.935099601745605 "/></g><g id="sprotty_ArchitectureBlockImpl$work.fulladder(synth)/AssignmentBlockImpl$null5/GPortImpl$cout_to_ArchitectureBlockImpl$work.fulladder(synth)/GPortImpl$cout" class="sprotty-edge edge" style="fill:none;stroke:rgb(112, 112, 112);stroke-linejoin:round;"><path d="M 139.29575538635254 117.9350996017456 L 192.7469482421875 117.9350996017456 "/></g><g id="sprotty_ArchitectureBlockImpl$work.fulladder(synth)/AssignmentBlockImpl$null5" transform="translate(121.66527557373047, 97.9350996017456)" class="statement"><rect x="0" y="0" rx="10" ry="5" width="17.63047981262207" height="40" class="sprotty-node" style="fill:rgb(245, 245, 245);stroke:rgb(112, 112, 112);"/><g id="sprotty_ArchitectureBlockImpl$work.fulladder(synth)/AssignmentBlockImpl$null5/label" transform="translate(5, 18.28515625) translate(0, 0.700526237487793)" class="sprotty-label statement" style="cursor:default;fill:rgb(48, 48, 48);font-family:Arial, Helvetica, sans-serif;text-anchor:middle;"><path d="M3.50-1.39L3.50-0.70L0.31-2.11L0.31-2.53L3.50-4.13L3.50-3.44L1.17-2.35L3.50-1.39ZM7.30-2.68L4.14-2.68L4.14-3.30L7.30-3.30L7.30-2.68ZM7.30-1.39L4.14-1.39L4.14-2.01L7.30-2.01L7.30-1.39Z" transform="translate(0, 3.42838)"/><rect x="0" y="-0.7003499999999999" width="7.6304799999999995" height="3.42838" class="clickable" style="cursor:pointer;fill:rgba(0, 0, 0, 0);fill-opacity:0;stroke-width:0px;"/></g><g id="sprotty_ArchitectureBlockImpl$work.fulladder(synth)/AssignmentBlockImpl$null5/GPortImpl$g" transform="translate(0, 30)" class="sprotty-hidden hidden" style="display:block;height:0px;width:0px;"/><g id="sprotty_ArchitectureBlockImpl$work.fulladder(synth)/AssignmentBlockImpl$null5/GPortImpl$p" transform="translate(0, 20)" class="sprotty-hidden hidden" style="display:block;height:0px;width:0px;"/><g id="sprotty_ArchitectureBlockImpl$work.fulladder(synth)/AssignmentBlockImpl$null5/GPortImpl$cin" transform="translate(0, 10)" class="sprotty-hidden hidden" style="display:block;height:0px;width:0px;"/><g id="sprotty_ArchitectureBlockImpl$work.fulladder(synth)/AssignmentBlockImpl$null5/GPortImpl$cout" transform="translate(17.63047981262207, 20)" class="sprotty-hidden hidden" style="display:block;height:0px;width:0px;"/></g><g id="sprotty_ArchitectureBlockImpl$work.fulladder(synth)/AssignmentBlockImpl$null6" transform="translate(121.66527557373047, 47.935099601745605)" class="statement"><rect x="0" y="0" rx="10" ry="5" width="17.63047981262207" height="30" class="sprotty-node" style="fill:rgb(245, 245, 245);stroke:rgb(112, 112, 112);"/><g id="sprotty_ArchitectureBlockImpl$work.fulladder(synth)/AssignmentBlockImpl$null6/label" transform="translate(5, 13.28515625) translate(0, 0.700526237487793)" class="sprotty-label statement" style="cursor:default;fill:rgb(48, 48, 48);font-family:Arial, Helvetica, sans-serif;text-anchor:middle;"><path d="M3.50-1.39L3.50-0.70L0.31-2.11L0.31-2.53L3.50-4.13L3.50-3.44L1.17-2.35L3.50-1.39ZM7.30-2.68L4.14-2.68L4.14-3.30L7.30-3.30L7.30-2.68ZM7.30-1.39L4.14-1.39L4.14-2.01L7.30-2.01L7.30-1.39Z" transform="translate(0, 3.42838)"/><rect x="0" y="-0.7003499999999999" width="7.6304799999999995" height="3.42838" class="clickable" style="cursor:pointer;fill:rgba(0, 0, 0, 0);fill-opacity:0;stroke-width:0px;"/></g><g id="sprotty_ArchitectureBlockImpl$work.fulladder(synth)/AssignmentBlockImpl$null6/GPortImpl$p" transform="translate(0, 20)" class="sprotty-hidden hidden" style="display:block;height:0px;width:0px;"/><g id="sprotty_ArchitectureBlockImpl$work.fulladder(synth)/AssignmentBlockImpl$null6/GPortImpl$cin" transform="translate(0, 10)" class="sprotty-hidden hidden" style="display:block;height:0px;width:0px;"/><g id="sprotty_ArchitectureBlockImpl$work.fulladder(synth)/AssignmentBlockImpl$null6/GPortImpl$s" transform="translate(17.63047981262207, 15)" class="sprotty-hidden hidden" style="display:block;height:0px;width:0px;"/></g><g id="sprotty_ArchitectureBlockImpl$work.fulladder(synth)/AssignmentBlockImpl$null7" transform="translate(74.03479766845703, 112.9350996017456)" class="statement"><rect x="0" y="0" rx="10" ry="5" width="17.63047981262207" height="30" class="sprotty-node" style="fill:rgb(245, 245, 245);stroke:rgb(112, 112, 112);"/><g id="sprotty_ArchitectureBlockImpl$work.fulladder(synth)/AssignmentBlockImpl$null7/label" transform="translate(5, 13.28515625) translate(0, 0.700526237487793)" class="sprotty-label statement" style="cursor:default;fill:rgb(48, 48, 48);font-family:Arial, Helvetica, sans-serif;text-anchor:middle;"><path d="M3.50-1.39L3.50-0.70L0.31-2.11L0.31-2.53L3.50-4.13L3.50-3.44L1.17-2.35L3.50-1.39ZM7.30-2.68L4.14-2.68L4.14-3.30L7.30-3.30L7.30-2.68ZM7.30-1.39L4.14-1.39L4.14-2.01L7.30-2.01L7.30-1.39Z" transform="translate(0, 3.42838)"/><rect x="0" y="-0.7003499999999999" width="7.6304799999999995" height="3.42838" class="clickable" style="cursor:pointer;fill:rgba(0, 0, 0, 0);fill-opacity:0;stroke-width:0px;"/></g><g id="sprotty_ArchitectureBlockImpl$work.fulladder(synth)/AssignmentBlockImpl$null7/GPortImpl$b" transform="translate(0, 20)" class="sprotty-hidden hidden" style="display:block;height:0px;width:0px;"/><g id="sprotty_ArchitectureBlockImpl$work.fulladder(synth)/AssignmentBlockImpl$null7/GPortImpl$a" transform="translate(0, 10)" class="sprotty-hidden hidden" style="display:block;height:0px;width:0px;"/><g id="sprotty_ArchitectureBlockImpl$work.fulladder(synth)/AssignmentBlockImpl$null7/GPortImpl$g" transform="translate(17.63047981262207, 15)" class="sprotty-hidden hidden" style="display:block;height:0px;width:0px;"/></g><g id="sprotty_ArchitectureBlockImpl$work.fulladder(synth)/AssignmentBlockImpl$null8" transform="translate(74.03479766845703, 52.935099601745605)" class="statement"><rect x="0" y="0" rx="10" ry="5" width="17.63047981262207" height="30" class="sprotty-node" style="fill:rgb(245, 245, 245);stroke:rgb(112, 112, 112);"/><g id="sprotty_ArchitectureBlockImpl$work.fulladder(synth)/AssignmentBlockImpl$null8/label" transform="translate(5, 13.28515625) translate(0, 0.700526237487793)" class="sprotty-label statement" style="cursor:default;fill:rgb(48, 48, 48);font-family:Arial, Helvetica, sans-serif;text-anchor:middle;"><path d="M3.50-1.39L3.50-0.70L0.31-2.11L0.31-2.53L3.50-4.13L3.50-3.44L1.17-2.35L3.50-1.39ZM7.30-2.68L4.14-2.68L4.14-3.30L7.30-3.30L7.30-2.68ZM7.30-1.39L4.14-1.39L4.14-2.01L7.30-2.01L7.30-1.39Z" transform="translate(0, 3.42838)"/><rect x="0" y="-0.7003499999999999" width="7.6304799999999995" height="3.42838" class="clickable" style="cursor:pointer;fill:rgba(0, 0, 0, 0);fill-opacity:0;stroke-width:0px;"/></g><g id="sprotty_ArchitectureBlockImpl$work.fulladder(synth)/AssignmentBlockImpl$null8/GPortImpl$b" transform="translate(0, 20)" class="sprotty-hidden hidden" style="display:block;height:0px;width:0px;"/><g id="sprotty_ArchitectureBlockImpl$work.fulladder(synth)/AssignmentBlockImpl$null8/GPortImpl$a" transform="translate(0, 10)" class="sprotty-hidden hidden" style="display:block;height:0px;width:0px;"/><g id="sprotty_ArchitectureBlockImpl$work.fulladder(synth)/AssignmentBlockImpl$null8/GPortImpl$p" transform="translate(17.63047981262207, 15)" class="sprotty-hidden hidden" style="display:block;height:0px;width:0px;"/></g><g id="sprotty_ArchitectureBlockImpl$work.fulladder(synth)/GPortImpl$cin" transform="translate(0, 36)" class="triangle"><path d="M 0,0 L 5,2.5 L 0,5 Z" transform="translate(-1.67, -2.5)" class="sprotty-port" style="fill:rgb(48, 48, 48);stroke:rgb(48, 48, 48);"/><g class="port sprotty-label" id="sprotty_ArchitectureBlockImpl$work.fulladder(synth)/GPortImpl$cin/label" transform="translate(3, 3) translate(0, -0.13300000131130219)" style="cursor:default;fill:rgb(48, 48, 48);font-family:Arial, Helvetica, sans-serif;text-anchor:middle;"><path d="M3.99 0.13L3.99 0.13Q3.05 0.13 2.31-0.25Q1.57-0.64 1.15-1.45Q0.73-2.26 0.73-3.52L0.73-3.52Q0.73-4.84 1.17-5.67Q1.61-6.49 2.36-6.88Q3.11-7.26 4.07-7.26L4.07-7.26Q4.62-7.26 5.12-7.15Q5.63-7.04 5.95-6.88L5.95-6.88L5.59-5.91Q5.27-6.02 4.84-6.13Q4.42-6.24 4.04-6.24L4.04-6.24Q1.94-6.24 1.94-3.54L1.94-3.54Q1.94-2.25 2.45-1.56Q2.97-0.88 3.98-0.88L3.98-0.88Q4.56-0.88 5.01-1.00Q5.45-1.12 5.83-1.29L5.83-1.29L5.83-0.25Q5.47-0.07 5.03 0.03Q4.60 0.13 3.99 0.13ZM8.11-8.31L8.11-8.31Q7.82-8.31 7.62-8.50Q7.42-8.68 7.42-9.06L7.42-9.06Q7.42-9.44 7.62-9.62Q7.82-9.80 8.11-9.80L8.11-9.80Q8.38-9.80 8.59-9.62Q8.79-9.44 8.79-9.06L8.79-9.06Q8.79-8.68 8.59-8.50Q8.38-8.31 8.11-8.31ZM8.68 0L7.51 0L7.51-7.13L8.68-7.13L8.68 0ZM12.12 0L10.95 0L10.95-7.13L11.89-7.13L12.06-6.16L12.13-6.16Q12.48-6.72 13.09-6.99Q13.70-7.26 14.38-7.26L14.38-7.26Q15.65-7.26 16.31-6.64Q16.96-6.02 16.96-4.64L16.96-4.64L16.96 0L15.80 0L15.80-4.56Q15.80-6.28 14.20-6.28L14.20-6.28Q13.02-6.28 12.57-5.61Q12.12-4.95 12.12-3.70L12.12-3.70L12.12 0Z" transform="translate(4, 11.935100000000002)"/><rect x="0" y="0.133" width="26.0348" height="13.935100000000002" class="clickable" style="cursor:pointer;fill:rgba(0, 0, 0, 0);fill-opacity:0;stroke-width:0px;"/></g></g><g id="sprotty_ArchitectureBlockImpl$work.fulladder(synth)/GPortImpl$b" transform="translate(0, 132.9350996017456)" class="triangle"><path d="M 0,0 L 5,2.5 L 0,5 Z" transform="translate(-1.67, -2.5)" class="sprotty-port" style="fill:rgb(48, 48, 48);stroke:rgb(48, 48, 48);"/><g class="port sprotty-label" id="sprotty_ArchitectureBlockImpl$work.fulladder(synth)/GPortImpl$b/label" transform="translate(3, 3) translate(0, -0.13300000131130219)" style="cursor:default;fill:rgb(48, 48, 48);font-family:Arial, Helvetica, sans-serif;text-anchor:middle;"><path d="M4.51 0.13L4.51 0.13Q3.67 0.13 3.14-0.17Q2.61-0.48 2.30-0.90L2.30-0.90L2.21-0.90L1.97 0L1.13 0L1.13-10.11L2.30-10.11L2.30-7.65Q2.30-7.20 2.28-6.80Q2.26-6.41 2.23-6.18L2.23-6.18L2.30-6.18Q2.61-6.64 3.14-6.94Q3.67-7.25 4.51-7.25L4.51-7.25Q5.84-7.25 6.64-6.32Q7.45-5.40 7.45-3.56L7.45-3.56Q7.45-1.73 6.64-0.80Q5.83 0.13 4.51 0.13ZM4.34-0.84L4.34-0.84Q5.29-0.84 5.77-1.54Q6.24-2.25 6.24-3.58L6.24-3.58Q6.24-6.28 4.31-6.28L4.31-6.28Q3.18-6.28 2.74-5.63Q2.30-4.97 2.30-3.60L2.30-3.60L2.30-3.55Q2.30-2.23 2.73-1.54Q3.17-0.84 4.34-0.84Z" transform="translate(4, 12.241)"/><rect x="0" y="0.133" width="16.1795" height="14.241" class="clickable" style="cursor:pointer;fill:rgba(0, 0, 0, 0);fill-opacity:0;stroke-width:0px;"/></g></g><g id="sprotty_ArchitectureBlockImpl$work.fulladder(synth)/GPortImpl$a" transform="translate(0, 62.935099601745605)" class="triangle"><path d="M 0,0 L 5,2.5 L 0,5 Z" transform="translate(-1.67, -2.5)" class="sprotty-port" style="fill:rgb(48, 48, 48);stroke:rgb(48, 48, 48);"/><g class="port sprotty-label" id="sprotty_ArchitectureBlockImpl$work.fulladder(synth)/GPortImpl$a/label" transform="translate(3, 3) translate(0, -0.13300000131130219)" style="cursor:default;fill:rgb(48, 48, 48);font-family:Arial, Helvetica, sans-serif;text-anchor:middle;"><path d="M2.86 0.13L2.86 0.13Q1.89 0.13 1.25-0.38Q0.61-0.89 0.61-1.98L0.61-1.98Q0.61-3.05 1.45-3.62Q2.29-4.20 4.03-4.26L4.03-4.26L5.24-4.30L5.24-4.72Q5.24-5.61 4.85-5.96Q4.47-6.30 3.76-6.30L3.76-6.30Q3.21-6.30 2.70-6.14Q2.19-5.97 1.76-5.76L1.76-5.76L1.40-6.64Q1.86-6.89 2.50-7.07Q3.14-7.25 3.83-7.25L3.83-7.25Q5.13-7.25 5.76-6.68Q6.38-6.10 6.38-4.85L6.38-4.85L6.38 0L5.53 0L5.31-1.01L5.25-1.01Q4.79-0.43 4.28-0.15Q3.76 0.13 2.86 0.13ZM3.13-0.81L3.13-0.81Q4.03-0.81 4.63-1.31Q5.23-1.81 5.23-2.85L5.23-2.85L5.23-3.48L4.18-3.44Q2.85-3.39 2.33-3.02Q1.82-2.65 1.82-1.97L1.82-1.97Q1.82-1.37 2.19-1.09Q2.55-0.81 3.13-0.81Z" transform="translate(4, 9.3815)"/><rect x="0" y="0.133" width="15.461300000000001" height="11.3815" class="clickable" style="cursor:pointer;fill:rgba(0, 0, 0, 0);fill-opacity:0;stroke-width:0px;"/></g></g><g id="sprotty_ArchitectureBlockImpl$work.fulladder(synth)/GPortImpl$s" transform="translate(192.7469482421875, 62.935099601745605)" class="triangle"><path d="M 0,0 L 5,2.5 L 0,5 Z" transform="translate(-1.67, -2.5)" class="sprotty-port" style="fill:rgb(48, 48, 48);stroke:rgb(48, 48, 48);"/><g class="port sprotty-label" id="sprotty_ArchitectureBlockImpl$work.fulladder(synth)/GPortImpl$s/label" transform="translate(-17.370699882507324, 3) translate(0, -0.13300000131130219)" style="cursor:default;fill:rgb(48, 48, 48);font-family:Arial, Helvetica, sans-serif;text-anchor:middle;"><path d="M2.93 0.13L2.93 0.13Q2.18 0.13 1.64 0.01Q1.10-0.11 0.69-0.32L0.69-0.32L0.69-1.38Q1.12-1.17 1.72-0.99Q2.33-0.81 2.95-0.81L2.95-0.81Q3.84-0.81 4.24-1.10Q4.64-1.38 4.64-1.86L4.64-1.86Q4.64-2.13 4.50-2.34Q4.35-2.55 3.97-2.77Q3.59-2.98 2.89-3.25L2.89-3.25Q2.19-3.51 1.70-3.78Q1.21-4.04 0.94-4.42Q0.68-4.79 0.68-5.37L0.68-5.37Q0.68-6.28 1.42-6.77Q2.15-7.26 3.35-7.26L3.35-7.26Q4.00-7.26 4.57-7.14Q5.13-7.01 5.63-6.78L5.63-6.78L5.23-5.85Q4.77-6.04 4.28-6.17Q3.79-6.30 3.27-6.30L3.27-6.30Q2.55-6.30 2.17-6.07Q1.80-5.84 1.80-5.44L1.80-5.44Q1.80-5.15 1.97-4.94Q2.14-4.73 2.55-4.54Q2.95-4.35 3.63-4.08L3.63-4.08Q4.31-3.83 4.79-3.56Q5.27-3.29 5.52-2.91Q5.77-2.54 5.77-1.97L5.77-1.97Q5.77-0.93 5.00-0.40Q4.23 0.13 2.93 0.13Z" transform="translate(4, 9.3948)"/><rect x="0" y="0.133" width="14.3707" height="11.3948" class="clickable" style="cursor:pointer;fill:rgba(0, 0, 0, 0);fill-opacity:0;stroke-width:0px;"/></g></g><g id="sprotty_ArchitectureBlockImpl$work.fulladder(synth)/GPortImpl$cout" transform="translate(192.7469482421875, 117.9350996017456)" class="triangle"><path d="M 0,0 L 5,2.5 L 0,5 Z" transform="translate(-1.67, -2.5)" class="sprotty-port" style="fill:rgb(48, 48, 48);stroke:rgb(48, 48, 48);"/><g class="port sprotty-label" id="sprotty_ArchitectureBlockImpl$work.fulladder(synth)/GPortImpl$cout/label" transform="translate(-38.45119857788086, 3) translate(0, -0.13300000131130219)" style="cursor:default;fill:rgb(48, 48, 48);font-family:Arial, Helvetica, sans-serif;text-anchor:middle;"><path d="M3.99 0.13L3.99 0.13Q3.05 0.13 2.31-0.25Q1.57-0.64 1.15-1.45Q0.73-2.26 0.73-3.52L0.73-3.52Q0.73-4.84 1.17-5.67Q1.61-6.49 2.36-6.88Q3.11-7.26 4.07-7.26L4.07-7.26Q4.62-7.26 5.12-7.15Q5.63-7.04 5.95-6.88L5.95-6.88L5.59-5.91Q5.27-6.02 4.84-6.13Q4.42-6.24 4.04-6.24L4.04-6.24Q1.94-6.24 1.94-3.54L1.94-3.54Q1.94-2.25 2.45-1.56Q2.97-0.88 3.98-0.88L3.98-0.88Q4.56-0.88 5.01-1.00Q5.45-1.12 5.83-1.29L5.83-1.29L5.83-0.25Q5.47-0.07 5.03 0.03Q4.60 0.13 3.99 0.13ZM10.39 0.13L10.39 0.13Q9.44 0.13 8.70-0.30Q7.97-0.73 7.54-1.56Q7.12-2.39 7.12-3.58L7.12-3.58Q7.12-5.35 8.01-6.30Q8.90-7.26 10.43-7.26L10.43-7.26Q11.40-7.26 12.14-6.83Q12.87-6.40 13.29-5.58Q13.71-4.76 13.71-3.58L13.71-3.58Q13.71-1.81 12.81-0.84Q11.92 0.13 10.39 0.13ZM10.41-0.84L10.41-0.84Q11.49-0.84 12.00-1.58Q12.50-2.31 12.50-3.58L12.50-3.58Q12.50-4.84 12.00-5.56Q11.49-6.28 10.40-6.28L10.40-6.28Q9.31-6.28 8.82-5.56Q8.33-4.84 8.33-3.58L8.33-3.58Q8.33-2.31 8.82-1.58Q9.32-0.84 10.41-0.84ZM18.07 0.13L18.07 0.13Q16.78 0.13 16.13-0.49Q15.48-1.10 15.48-2.46L15.48-2.46L15.48-7.13L16.66-7.13L16.66-2.54Q16.66-0.84 18.25-0.84L18.25-0.84Q19.43-0.84 19.89-1.50Q20.35-2.17 20.35-3.42L20.35-3.42L20.35-7.13L21.52-7.13L21.52 0L20.56 0L20.39-0.94L20.34-0.94Q19.99-0.39 19.38-0.13Q18.77 0.13 18.07 0.13ZM25.96 0.13L25.96 0.13Q25.40 0.13 24.93-0.06Q24.46-0.25 24.17-0.73Q23.87-1.21 23.87-2.07L23.87-2.07L23.87-6.22L22.86-6.22L22.86-6.78L23.89-7.25L24.35-8.76L25.04-8.76L25.04-7.13L27.11-7.13L27.11-6.22L25.04-6.22L25.04-2.10Q25.04-1.45 25.36-1.14Q25.67-0.82 26.16-0.82L26.16-0.82Q26.43-0.82 26.71-0.87Q26.99-0.92 27.16-0.97L27.16-0.97L27.16-0.08Q26.97 0.01 26.63 0.07Q26.28 0.13 25.96 0.13Z" transform="translate(4, 10.8977)"/><rect x="0" y="0.133" width="35.4512" height="12.8977" class="clickable" style="cursor:pointer;fill:rgba(0, 0, 0, 0);fill-opacity:0;stroke-width:0px;"/></g></g></g></g></svg>