<svg xmlns="http://www.w3.org/2000/svg" id="sprotty_decoder" class="sprotty-graph sprotty-block-diagram blockdiagram" style="font-family:&quot;Helvetica Neue&quot;, Helvetica, Arial, sans-serif;line-height:18px;perspective-origin:0px 0px;transform-origin:0px 0px;z-index:0;" version="1.1" viewBox="9.5 12 176.31828125 58.32080078125"><g transform="scale(1) translate(0,0)"><g id="sprotty_ArchitectureBlockImpl$work.decoder(synth)" transform="translate(12, 12)" class="architecture"><g class="sprotty-block" style="fill:rgb(245, 245, 245);stroke:rgb(48, 48, 48);stroke-dasharray:0px;"><rect x="0" y="0" rx="1" ry="1" width="169.48828125" height="58.32080078125"/><path d="M14.64 16L12.40 16L11.44 12.27Q11.36 11.97 11.25 11.51Q11.14 11.06 11.02 10.56Q10.90 10.06 10.80 9.65Q10.70 9.23 10.66 9.01L10.66 9.01L10.59 9.01Q10.54 9.23 10.45 9.65Q10.35 10.06 10.24 10.57Q10.13 11.07 10.01 11.53Q9.89 11.98 9.81 12.29L9.81 12.29L8.80 16L6.59 16L4.16 7.31L6.19 7.31L7.26 11.46Q7.38 11.89 7.48 12.41Q7.58 12.93 7.66 13.42Q7.73 13.90 7.78 14.21L7.78 14.21L7.84 14.21Q7.87 13.92 7.96 13.42Q8.05 12.93 8.14 12.46Q8.24 11.98 8.30 11.74L8.30 11.74L9.55 7.31L11.76 7.31L12.96 11.74Q13.02 12.03 13.13 12.50Q13.23 12.96 13.31 13.43Q13.39 13.90 13.41 14.19L13.41 14.19L13.47 14.19Q13.50 13.94 13.58 13.46Q13.66 12.98 13.78 12.43Q13.89 11.89 14.02 11.46L14.02 11.46L15.10 7.31L17.10 7.31L14.64 16ZM26.32 11.65L26.32 11.65Q26.32 13.81 25.20 14.98Q24.08 16.16 22.16 16.16L22.16 16.16Q20.98 16.16 20.05 15.63Q19.12 15.10 18.59 14.10Q18.06 13.09 18.06 11.65L18.06 11.65Q18.06 9.49 19.18 8.33Q20.29 7.17 22.21 7.17L22.21 7.17Q23.41 7.17 24.34 7.69Q25.26 8.21 25.79 9.21Q26.32 10.21 26.32 11.65ZM20.13 11.65L20.13 11.65Q20.13 13.02 20.62 13.78Q21.10 14.53 22.19 14.53L22.19 14.53Q23.28 14.53 23.77 13.78Q24.26 13.02 24.26 11.65L24.26 11.65Q24.26 10.27 23.77 9.54Q23.28 8.80 22.18 8.80L22.18 8.80Q21.10 8.80 20.62 9.54Q20.13 10.27 20.13 11.65ZM32.94 7.17L32.94 7.17Q33.15 7.17 33.40 7.18Q33.65 7.20 33.82 7.25L33.82 7.25L33.65 9.12Q33.49 9.09 33.26 9.06Q33.04 9.04 32.86 9.04L32.86 9.04Q32.22 9.04 31.66 9.30Q31.10 9.57 30.76 10.12Q30.42 10.67 30.42 11.50L30.42 11.50L30.42 16L28.40 16L28.40 7.33L29.95 7.33L30.24 8.83L30.34 8.83Q30.72 8.14 31.39 7.66Q32.06 7.17 32.94 7.17ZM35.42 3.84L37.42 3.84L37.42 9.62Q37.42 10.03 37.39 10.50Q37.36 10.96 37.33 11.38L37.33 11.38L37.38 11.38Q37.57 11.09 37.86 10.72Q38.14 10.35 38.40 10.06L38.40 10.06L40.96 7.33L43.25 7.33L39.78 11.07L43.47 16L41.12 16L38.43 12.29L37.42 13.12L37.42 16L35.42 16L35.42 3.84ZM44.54 14.98L44.54 14.98Q44.54 14.30 44.90 14.02Q45.25 13.74 45.76 13.74L45.76 13.74Q46.26 13.74 46.62 14.02Q46.99 14.30 46.99 14.98L46.99 14.98Q46.99 15.63 46.62 15.92Q46.26 16.21 45.76 16.21L45.76 16.21Q45.25 16.21 44.90 15.92Q44.54 15.63 44.54 14.98ZM52.16 16.16L52.16 16.16Q50.64 16.16 49.71 15.02Q48.78 13.89 48.78 11.68L48.78 11.68Q48.78 9.44 49.73 8.30Q50.67 7.17 52.21 7.17L52.21 7.17Q53.17 7.17 53.78 7.54Q54.40 7.90 54.77 8.43L54.77 8.43L54.86 8.43Q54.82 8.21 54.77 7.74Q54.72 7.28 54.72 6.88L54.72 6.88L54.72 3.84L56.74 3.84L56.74 16L55.17 16L54.80 14.86L54.72 14.86Q54.35 15.41 53.74 15.78Q53.14 16.16 52.16 16.16ZM52.77 14.53L52.77 14.53Q53.89 14.53 54.34 13.89Q54.80 13.25 54.82 11.95L54.82 11.95L54.82 11.70Q54.82 10.30 54.38 9.56Q53.94 8.82 52.74 8.82L52.74 8.82Q51.81 8.82 51.32 9.58Q50.83 10.34 50.83 11.71L50.83 11.71Q50.83 13.09 51.33 13.81Q51.82 14.53 52.77 14.53ZM62.80 7.17L62.80 7.17Q64.54 7.17 65.56 8.21Q66.58 9.25 66.58 11.10L66.58 11.10L66.58 12.13L60.85 12.13Q60.88 13.31 61.50 13.96Q62.13 14.61 63.23 14.61L63.23 14.61Q64.06 14.61 64.74 14.44Q65.41 14.27 66.11 13.95L66.11 13.95L66.11 15.57Q65.47 15.87 64.78 16.02Q64.10 16.16 63.14 16.16L63.14 16.16Q61.87 16.16 60.89 15.67Q59.90 15.18 59.35 14.19Q58.80 13.20 58.80 11.73L58.80 11.73Q58.80 9.50 59.90 8.34Q61.01 7.17 62.80 7.17ZM62.80 8.66L62.80 8.66Q61.98 8.66 61.48 9.18Q60.98 9.70 60.90 10.72L60.90 10.72L64.62 10.72Q64.61 9.82 64.17 9.24Q63.73 8.66 62.80 8.66ZM72.11 16.16L72.11 16.16Q70.24 16.16 69.17 15.09Q68.10 14.02 68.10 11.71L68.10 11.71Q68.10 10.11 68.63 9.11Q69.17 8.11 70.11 7.64Q71.06 7.17 72.27 7.17L72.27 7.17Q73.09 7.17 73.73 7.33Q74.37 7.49 74.82 7.71L74.82 7.71L74.22 9.30Q73.73 9.10 73.23 8.97Q72.74 8.83 72.27 8.83L72.27 8.83Q70.16 8.83 70.16 11.70L70.16 11.70Q70.16 13.09 70.70 13.79Q71.23 14.50 72.24 14.50L72.24 14.50Q72.96 14.50 73.52 14.32Q74.08 14.14 74.59 13.84L74.59 13.84L74.59 15.58Q74.10 15.87 73.53 16.02Q72.96 16.16 72.11 16.16ZM84.37 11.65L84.37 11.65Q84.37 13.81 83.25 14.98Q82.13 16.16 80.21 16.16L80.21 16.16Q79.02 16.16 78.10 15.63Q77.17 15.10 76.64 14.10Q76.11 13.09 76.11 11.65L76.11 11.65Q76.11 9.49 77.22 8.33Q78.34 7.17 80.26 7.17L80.26 7.17Q81.46 7.17 82.38 7.69Q83.31 8.21 83.84 9.21Q84.37 10.21 84.37 11.65ZM78.18 11.65L78.18 11.65Q78.18 13.02 78.66 13.78Q79.15 14.53 80.24 14.53L80.24 14.53Q81.33 14.53 81.82 13.78Q82.30 13.02 82.30 11.65L82.30 11.65Q82.30 10.27 81.82 9.54Q81.33 8.80 80.22 8.80L80.22 8.80Q79.15 8.80 78.66 9.54Q78.18 10.27 78.18 11.65ZM89.31 16.16L89.31 16.16Q87.79 16.16 86.86 15.02Q85.94 13.89 85.94 11.68L85.94 11.68Q85.94 9.44 86.88 8.30Q87.82 7.17 89.36 7.17L89.36 7.17Q90.32 7.17 90.94 7.54Q91.55 7.90 91.92 8.43L91.92 8.43L92.02 8.43Q91.97 8.21 91.92 7.74Q91.87 7.28 91.87 6.88L91.87 6.88L91.87 3.84L93.89 3.84L93.89 16L92.32 16L91.95 14.86L91.87 14.86Q91.50 15.41 90.90 15.78Q90.29 16.16 89.31 16.16ZM89.92 14.53L89.92 14.53Q91.04 14.53 91.50 13.89Q91.95 13.25 91.97 11.95L91.97 11.95L91.97 11.70Q91.97 10.30 91.53 9.56Q91.09 8.82 89.89 8.82L89.89 8.82Q88.96 8.82 88.47 9.58Q87.98 10.34 87.98 11.71L87.98 11.71Q87.98 13.09 88.48 13.81Q88.98 14.53 89.92 14.53ZM99.95 7.17L99.95 7.17Q101.70 7.17 102.71 8.21Q103.73 9.25 103.73 11.10L103.73 11.10L103.73 12.13L98.00 12.13Q98.03 13.31 98.66 13.96Q99.28 14.61 100.38 14.61L100.38 14.61Q101.22 14.61 101.89 14.44Q102.56 14.27 103.26 13.95L103.26 13.95L103.26 15.57Q102.62 15.87 101.94 16.02Q101.25 16.16 100.29 16.16L100.29 16.16Q99.02 16.16 98.04 15.67Q97.06 15.18 96.50 14.19Q95.95 13.20 95.95 11.73L95.95 11.73Q95.95 9.50 97.06 8.34Q98.16 7.17 99.95 7.17ZM99.95 8.66L99.95 8.66Q99.14 8.66 98.63 9.18Q98.13 9.70 98.05 10.72L98.05 10.72L101.78 10.72Q101.76 9.82 101.32 9.24Q100.88 8.66 99.95 8.66ZM110.30 7.17L110.30 7.17Q110.51 7.17 110.76 7.18Q111.01 7.20 111.18 7.25L111.18 7.25L111.01 9.12Q110.85 9.09 110.62 9.06Q110.40 9.04 110.22 9.04L110.22 9.04Q109.58 9.04 109.02 9.30Q108.46 9.57 108.12 10.12Q107.78 10.67 107.78 11.50L107.78 11.50L107.78 16L105.76 16L105.76 7.33L107.31 7.33L107.60 8.83L107.70 8.83Q108.08 8.14 108.75 7.66Q109.42 7.17 110.30 7.17ZM112.13 11.62L112.13 11.62Q112.13 9.66 112.70 7.85Q113.26 6.03 114.48 4.58L114.48 4.58L116.19 4.58Q115.09 6.08 114.53 7.89Q113.97 9.70 113.97 11.60L113.97 11.60Q113.97 13.46 114.53 15.25Q115.09 17.04 116.18 18.53L116.18 18.53L114.48 18.53Q113.26 17.12 112.70 15.34Q112.13 13.55 112.13 11.62ZM123.87 13.49L123.87 13.49Q123.87 14.80 122.94 15.48Q122.00 16.16 120.26 16.16L120.26 16.16Q119.34 16.16 118.70 16.03Q118.05 15.90 117.44 15.63L117.44 15.63L117.44 13.92Q118.08 14.22 118.86 14.43Q119.63 14.64 120.32 14.64L120.32 14.64Q121.15 14.64 121.52 14.38Q121.89 14.13 121.89 13.70L121.89 13.70Q121.89 13.44 121.74 13.24Q121.60 13.04 121.18 12.80Q120.75 12.56 119.92 12.21L119.92 12.21Q119.09 11.89 118.54 11.54Q117.98 11.20 117.70 10.74Q117.42 10.27 117.42 9.54L117.42 9.54Q117.42 8.37 118.34 7.77Q119.26 7.17 120.80 7.17L120.80 7.17Q121.60 7.17 122.31 7.33Q123.02 7.49 123.74 7.81L123.74 7.81L123.10 9.30Q122.50 9.04 121.92 8.86Q121.34 8.69 120.74 8.69L120.74 8.69Q119.41 8.69 119.41 9.44L119.41 9.44Q119.41 9.71 119.58 9.90Q119.74 10.10 120.17 10.31Q120.59 10.53 121.38 10.83L121.38 10.83Q122.14 11.14 122.70 11.46Q123.26 11.79 123.57 12.27Q123.87 12.75 123.87 13.49ZM127.98 15.97L124.51 7.33L126.70 7.33L128.43 12.22Q128.61 12.69 128.72 13.14Q128.83 13.58 128.88 14.05L128.88 14.05L128.94 14.05Q129.01 13.65 129.14 13.17Q129.26 12.69 129.42 12.22L129.42 12.22L131.09 7.33L133.26 7.33L129.57 17.15Q129.07 18.45 128.22 19.14Q127.36 19.84 126.11 19.84L126.11 19.84Q125.71 19.84 125.42 19.80Q125.14 19.76 124.91 19.71L124.91 19.71L124.91 18.11Q125.09 18.14 125.34 18.18Q125.58 18.21 125.86 18.21L125.86 18.21Q126.61 18.21 127.05 17.77Q127.49 17.33 127.73 16.67L127.73 16.67L127.98 15.97ZM139.20 7.17L139.20 7.17Q140.66 7.17 141.48 7.92Q142.30 8.67 142.30 10.35L142.30 10.35L142.30 16L140.29 16L140.29 10.75Q140.29 8.80 138.69 8.80L138.69 8.80Q137.47 8.80 137.02 9.57Q136.58 10.34 136.58 11.76L136.58 11.76L136.58 16L134.56 16L134.56 7.33L136.11 7.33L136.40 8.46L136.51 8.46Q136.93 7.79 137.66 7.48Q138.38 7.17 139.20 7.17ZM148.19 14.54L148.19 14.54Q148.56 14.54 148.92 14.47Q149.28 14.40 149.58 14.30L149.58 14.30L149.58 15.81Q149.26 15.95 148.75 16.06Q148.24 16.16 147.68 16.16L147.68 16.16Q146.94 16.16 146.34 15.91Q145.73 15.66 145.38 15.06Q145.02 14.45 145.02 13.36L145.02 13.36L145.02 8.85L143.86 8.85L143.86 7.97L145.14 7.26L145.78 5.42L147.04 5.42L147.04 7.33L149.50 7.33L149.50 8.85L147.04 8.85L147.04 13.34Q147.04 13.95 147.36 14.25Q147.68 14.54 148.19 14.54ZM151.33 3.84L153.34 3.84L153.34 6.74Q153.34 7.25 153.30 7.74Q153.26 8.22 153.23 8.46L153.23 8.46L153.36 8.46Q153.78 7.81 154.45 7.49Q155.12 7.17 155.94 7.17L155.94 7.17Q157.41 7.17 158.24 7.92Q159.07 8.67 159.07 10.35L159.07 10.35L159.07 16L157.06 16L157.06 10.75Q157.06 8.80 155.46 8.80L155.46 8.80Q154.24 8.80 153.79 9.57Q153.34 10.34 153.34 11.76L153.34 11.76L153.34 16L151.33 16L151.33 3.84ZM164.85 11.62L164.85 11.62Q164.85 13.55 164.28 15.34Q163.71 17.12 162.50 18.53L162.50 18.53L160.80 18.53Q161.89 17.04 162.46 15.25Q163.02 13.46 163.02 11.60L163.02 11.60Q163.02 9.70 162.46 7.89Q161.89 6.08 160.78 4.58L160.78 4.58L162.50 4.58Q163.71 6.03 164.28 7.85Q164.85 9.66 164.85 11.62Z" class="sprotty-block-name" style="fill:rgb(48, 48, 48);stroke:rgba(0, 0, 0, 0);"/><line x1="0" y1="20" x2="169.48828125" y2="20"/></g><g id="sprotty_ArchitectureBlockImpl$work.decoder(synth)/GPortImpl$a" transform="translate(0, 39.160400390625)" class="triangle"><path d="M 0,0 L 5,2.5 L 0,5 Z" transform="translate(-1.67, -2.5)" class="sprotty-port" style="fill:rgb(48, 48, 48);stroke:rgb(48, 48, 48);"/><g class="port sprotty-label" id="sprotty_ArchitectureBlockImpl$work.decoder(synth)/GPortImpl$a/label" transform="translate(3, -5.6907501220703125) translate(0, -0.13300000131130219)" style="cursor:default;fill:rgb(48, 48, 48);font-family:Arial, Helvetica, sans-serif;text-anchor:middle;"><path d="M2.86 0.13L2.86 0.13Q1.89 0.13 1.25-0.38Q0.61-0.89 0.61-1.98L0.61-1.98Q0.61-3.05 1.45-3.62Q2.29-4.20 4.03-4.26L4.03-4.26L5.24-4.30L5.24-4.72Q5.24-5.61 4.85-5.96Q4.47-6.30 3.76-6.30L3.76-6.30Q3.21-6.30 2.70-6.14Q2.19-5.97 1.76-5.76L1.76-5.76L1.40-6.64Q1.86-6.89 2.50-7.07Q3.14-7.25 3.83-7.25L3.83-7.25Q5.13-7.25 5.76-6.68Q6.38-6.10 6.38-4.85L6.38-4.85L6.38 0L5.53 0L5.31-1.01L5.25-1.01Q4.79-0.43 4.28-0.15Q3.76 0.13 2.86 0.13ZM3.13-0.81L3.13-0.81Q4.03-0.81 4.63-1.31Q5.23-1.81 5.23-2.85L5.23-2.85L5.23-3.48L4.18-3.44Q2.85-3.39 2.33-3.02Q1.82-2.65 1.82-1.97L1.82-1.97Q1.82-1.37 2.19-1.09Q2.55-0.81 3.13-0.81Z" transform="translate(4, 9.3815)"/><rect x="0" y="0.133" width="15.461300000000001" height="11.3815" class="clickable" style="cursor:pointer;fill:rgba(0, 0, 0, 0);fill-opacity:0;stroke-width:0px;"/></g></g><g id="sprotty_ArchitectureBlockImpl$work.decoder(synth)/GPortImpl$y" transform="translate(169.48828125, 39.160400390625)" class="triangle"><path d="M 0,0 L 5,2.5 L 0,5 Z" transform="translate(-1.67, -2.5)" class="sprotty-port" style="fill:rgb(48, 48, 48);stroke:rgb(48, 48, 48);"/><g class="port sprotty-label" id="sprotty_ArchitectureBlockImpl$work.decoder(synth)/GPortImpl$y/label" transform="translate(-17.782999992370605, -7.160400390625) translate(0, -3.191999912261963)" style="cursor:default;fill:rgb(48, 48, 48);font-family:Arial, Helvetica, sans-serif;text-anchor:middle;"><path d="M1.12 3.19L1.12 3.19Q0.80 3.19 0.56 3.16Q0.32 3.13 0.15 3.09L0.15 3.09L0.15 2.15Q0.29 2.18 0.50 2.21Q0.70 2.23 0.93 2.23L0.93 2.23Q1.54 2.23 1.92 1.89Q2.29 1.54 2.51 0.97L2.51 0.97L2.89 0.03L0.01-7.13L1.26-7.13L2.81-3.07Q3.01-2.54 3.17-2.05Q3.33-1.57 3.40-1.13L3.40-1.13L3.46-1.13Q3.54-1.46 3.70-2.00Q3.87-2.54 4.07-3.09L4.07-3.09L5.52-7.13L6.78-7.13L3.71 0.98Q3.34 2.00 2.75 2.59Q2.15 3.19 1.12 3.19Z" transform="translate(4, 12.320800000000002)"/><rect x="0" y="3.192" width="14.783000000000001" height="14.320800000000002" class="clickable" style="cursor:pointer;fill:rgba(0, 0, 0, 0);fill-opacity:0;stroke-width:0px;"/></g></g></g></g></svg>