<svg xmlns="http://www.w3.org/2000/svg" id="sprotty_gates" class="sprotty-graph sprotty-block-diagram blockdiagram" style="font-family:&quot;Helvetica Neue&quot;, Helvetica, Arial, sans-serif;line-height:18px;perspective-origin:0px 0px;transform-origin:0px 0px;z-index:0;" version="1.1" viewBox="9.5 12 155.8846875 284.82119941711426"><g transform="scale(1) translate(0,0)"><g id="sprotty_ArchitectureBlockImpl$work.gates(synth)" transform="translate(12, 12)" class="architecture"><g class="sprotty-block" style="fill:rgb(245, 245, 245);stroke:rgb(48, 48, 48);stroke-dasharray:0px;"><rect x="0" y="0" rx="1" ry="1" width="149.056" height="284.82119941711426"/><path d="M14.64 16L12.40 16L11.44 12.27Q11.36 11.97 11.25 11.51Q11.14 11.06 11.02 10.56Q10.90 10.06 10.80 9.65Q10.70 9.23 10.66 9.01L10.66 9.01L10.59 9.01Q10.54 9.23 10.45 9.65Q10.35 10.06 10.24 10.57Q10.13 11.07 10.01 11.53Q9.89 11.98 9.81 12.29L9.81 12.29L8.80 16L6.59 16L4.16 7.31L6.19 7.31L7.26 11.46Q7.38 11.89 7.48 12.41Q7.58 12.93 7.66 13.42Q7.73 13.90 7.78 14.21L7.78 14.21L7.84 14.21Q7.87 13.92 7.96 13.42Q8.05 12.93 8.14 12.46Q8.24 11.98 8.30 11.74L8.30 11.74L9.55 7.31L11.76 7.31L12.96 11.74Q13.02 12.03 13.13 12.50Q13.23 12.96 13.31 13.43Q13.39 13.90 13.41 14.19L13.41 14.19L13.47 14.19Q13.50 13.94 13.58 13.46Q13.66 12.98 13.78 12.43Q13.89 11.89 14.02 11.46L14.02 11.46L15.10 7.31L17.10 7.31L14.64 16ZM26.32 11.65L26.32 11.65Q26.32 13.81 25.20 14.98Q24.08 16.16 22.16 16.16L22.16 16.16Q20.98 16.16 20.05 15.63Q19.12 15.10 18.59 14.10Q18.06 13.09 18.06 11.65L18.06 11.65Q18.06 9.49 19.18 8.33Q20.29 7.17 22.21 7.17L22.21 7.17Q23.41 7.17 24.34 7.69Q25.26 8.21 25.79 9.21Q26.32 10.21 26.32 11.65ZM20.13 11.65L20.13 11.65Q20.13 13.02 20.62 13.78Q21.10 14.53 22.19 14.53L22.19 14.53Q23.28 14.53 23.77 13.78Q24.26 13.02 24.26 11.65L24.26 11.65Q24.26 10.27 23.77 9.54Q23.28 8.80 22.18 8.80L22.18 8.80Q21.10 8.80 20.62 9.54Q20.13 10.27 20.13 11.65ZM32.94 7.17L32.94 7.17Q33.15 7.17 33.40 7.18Q33.65 7.20 33.82 7.25L33.82 7.25L33.65 9.12Q33.49 9.09 33.26 9.06Q33.04 9.04 32.86 9.04L32.86 9.04Q32.22 9.04 31.66 9.30Q31.10 9.57 30.76 10.12Q30.42 10.67 30.42 11.50L30.42 11.50L30.42 16L28.40 16L28.40 7.33L29.95 7.33L30.24 8.83L30.34 8.83Q30.72 8.14 31.39 7.66Q32.06 7.17 32.94 7.17ZM35.42 3.84L37.42 3.84L37.42 9.62Q37.42 10.03 37.39 10.50Q37.36 10.96 37.33 11.38L37.33 11.38L37.38 11.38Q37.57 11.09 37.86 10.72Q38.14 10.35 38.40 10.06L38.40 10.06L40.96 7.33L43.25 7.33L39.78 11.07L43.47 16L41.12 16L38.43 12.29L37.42 13.12L37.42 16L35.42 16L35.42 3.84ZM44.54 14.98L44.54 14.98Q44.54 14.30 44.90 14.02Q45.25 13.74 45.76 13.74L45.76 13.74Q46.26 13.74 46.62 14.02Q46.99 14.30 46.99 14.98L46.99 14.98Q46.99 15.63 46.62 15.92Q46.26 16.21 45.76 16.21L45.76 16.21Q45.25 16.21 44.90 15.92Q44.54 15.63 44.54 14.98ZM52.21 7.17L52.21 7.17Q53.86 7.17 54.78 8.45L54.78 8.45L54.86 8.45L55.06 7.33L56.74 7.33L56.74 16.06Q56.74 17.92 55.69 18.88Q54.64 19.84 52.56 19.84L52.56 19.84Q51.63 19.84 50.85 19.72Q50.06 19.60 49.36 19.31L49.36 19.31L49.36 17.65Q50.85 18.32 52.69 18.32L52.69 18.32Q53.68 18.32 54.20 17.77Q54.72 17.22 54.72 16.16L54.72 16.16L54.72 15.94Q54.72 15.70 54.74 15.38Q54.75 15.06 54.78 14.86L54.78 14.86L54.72 14.86Q54.27 15.54 53.62 15.85Q52.98 16.16 52.16 16.16L52.16 16.16Q50.58 16.16 49.68 14.98Q48.78 13.79 48.78 11.68L48.78 11.68Q48.78 9.57 49.69 8.37Q50.59 7.17 52.21 7.17ZM52.74 8.82L52.74 8.82Q50.85 8.82 50.85 11.71L50.85 11.71Q50.85 14.56 52.77 14.56L52.77 14.56Q53.82 14.56 54.33 13.98Q54.83 13.39 54.83 12L54.83 12L54.83 11.70Q54.83 10.16 54.33 9.49Q53.82 8.82 52.74 8.82ZM62.77 7.17L62.77 7.17Q64.45 7.17 65.32 7.90Q66.19 8.64 66.19 10.18L66.19 10.18L66.19 16L64.77 16L64.37 14.80L64.30 14.80Q63.74 15.50 63.12 15.83Q62.50 16.16 61.42 16.16L61.42 16.16Q60.26 16.16 59.49 15.50Q58.72 14.85 58.72 13.47L58.72 13.47Q58.72 12.13 59.70 11.46Q60.69 10.78 62.69 10.70L62.69 10.70L64.19 10.66L64.19 10.22Q64.19 9.41 63.79 9.05Q63.39 8.69 62.67 8.69L62.67 8.69Q62.02 8.69 61.42 8.88Q60.82 9.07 60.22 9.33L60.22 9.33L59.58 7.92Q60.22 7.58 61.05 7.38Q61.87 7.17 62.77 7.17ZM64.19 12.64L64.19 11.90L63.14 11.94Q61.81 11.98 61.30 12.39Q60.78 12.80 60.78 13.49L60.78 13.49Q60.78 14.11 61.14 14.38Q61.50 14.64 62.10 14.64L62.10 14.64Q62.98 14.64 63.58 14.14Q64.19 13.63 64.19 12.64L64.19 12.64ZM72.08 14.54L72.08 14.54Q72.45 14.54 72.81 14.47Q73.17 14.40 73.47 14.30L73.47 14.30L73.47 15.81Q73.15 15.95 72.64 16.06Q72.13 16.16 71.57 16.16L71.57 16.16Q70.83 16.16 70.22 15.91Q69.62 15.66 69.26 15.06Q68.91 14.45 68.91 13.36L68.91 13.36L68.91 8.85L67.74 8.85L67.74 7.97L69.02 7.26L69.66 5.42L70.93 5.42L70.93 7.33L73.39 7.33L73.39 8.85L70.93 8.85L70.93 13.34Q70.93 13.95 71.25 14.25Q71.57 14.54 72.08 14.54ZM78.70 7.17L78.70 7.17Q80.45 7.17 81.46 8.21Q82.48 9.25 82.48 11.10L82.48 11.10L82.48 12.13L76.75 12.13Q76.78 13.31 77.41 13.96Q78.03 14.61 79.14 14.61L79.14 14.61Q79.97 14.61 80.64 14.44Q81.31 14.27 82.02 13.95L82.02 13.95L82.02 15.57Q81.38 15.87 80.69 16.02Q80.00 16.16 79.04 16.16L79.04 16.16Q77.78 16.16 76.79 15.67Q75.81 15.18 75.26 14.19Q74.70 13.20 74.70 11.73L74.70 11.73Q74.70 9.50 75.81 8.34Q76.91 7.17 78.70 7.17ZM78.70 8.66L78.70 8.66Q77.89 8.66 77.38 9.18Q76.88 9.70 76.80 10.72L76.80 10.72L80.53 10.72Q80.51 9.82 80.07 9.24Q79.63 8.66 78.70 8.66ZM90.42 13.49L90.42 13.49Q90.42 14.80 89.48 15.48Q88.54 16.16 86.80 16.16L86.80 16.16Q85.89 16.16 85.24 16.03Q84.59 15.90 83.98 15.63L83.98 15.63L83.98 13.92Q84.62 14.22 85.40 14.43Q86.18 14.64 86.86 14.64L86.86 14.64Q87.70 14.64 88.06 14.38Q88.43 14.13 88.43 13.70L88.43 13.70Q88.43 13.44 88.29 13.24Q88.14 13.04 87.72 12.80Q87.30 12.56 86.46 12.21L86.46 12.21Q85.63 11.89 85.08 11.54Q84.53 11.20 84.25 10.74Q83.97 10.27 83.97 9.54L83.97 9.54Q83.97 8.37 84.89 7.77Q85.81 7.17 87.34 7.17L87.34 7.17Q88.14 7.17 88.86 7.33Q89.57 7.49 90.29 7.81L90.29 7.81L89.65 9.30Q89.04 9.04 88.46 8.86Q87.89 8.69 87.28 8.69L87.28 8.69Q85.95 8.69 85.95 9.44L85.95 9.44Q85.95 9.71 86.12 9.90Q86.29 10.10 86.71 10.31Q87.14 10.53 87.92 10.83L87.92 10.83Q88.69 11.14 89.25 11.46Q89.81 11.79 90.11 12.27Q90.42 12.75 90.42 13.49ZM91.70 11.62L91.70 11.62Q91.70 9.66 92.26 7.85Q92.83 6.03 94.05 4.58L94.05 4.58L95.76 4.58Q94.66 6.08 94.10 7.89Q93.54 9.70 93.54 11.60L93.54 11.60Q93.54 13.46 94.10 15.25Q94.66 17.04 95.74 18.53L95.74 18.53L94.05 18.53Q92.83 17.12 92.26 15.34Q91.70 13.55 91.70 11.62ZM103.44 13.49L103.44 13.49Q103.44 14.80 102.50 15.48Q101.57 16.16 99.82 16.16L99.82 16.16Q98.91 16.16 98.26 16.03Q97.62 15.90 97.01 15.63L97.01 15.63L97.01 13.92Q97.65 14.22 98.42 14.43Q99.20 14.64 99.89 14.64L99.89 14.64Q100.72 14.64 101.09 14.38Q101.46 14.13 101.46 13.70L101.46 13.70Q101.46 13.44 101.31 13.24Q101.17 13.04 100.74 12.80Q100.32 12.56 99.49 12.21L99.49 12.21Q98.66 11.89 98.10 11.54Q97.55 11.20 97.27 10.74Q96.99 10.27 96.99 9.54L96.99 9.54Q96.99 8.37 97.91 7.77Q98.83 7.17 100.37 7.17L100.37 7.17Q101.17 7.17 101.88 7.33Q102.59 7.49 103.31 7.81L103.31 7.81L102.67 9.30Q102.06 9.04 101.49 8.86Q100.91 8.69 100.30 8.69L100.30 8.69Q98.98 8.69 98.98 9.44L98.98 9.44Q98.98 9.71 99.14 9.90Q99.31 10.10 99.74 10.31Q100.16 10.53 100.94 10.83L100.94 10.83Q101.71 11.14 102.27 11.46Q102.83 11.79 103.14 12.27Q103.44 12.75 103.44 13.49ZM107.55 15.97L104.08 7.33L106.27 7.33L108.00 12.22Q108.18 12.69 108.29 13.14Q108.40 13.58 108.45 14.05L108.45 14.05L108.51 14.05Q108.58 13.65 108.70 13.17Q108.83 12.69 108.99 12.22L108.99 12.22L110.66 7.33L112.83 7.33L109.14 17.15Q108.64 18.45 107.78 19.14Q106.93 19.84 105.68 19.84L105.68 19.84Q105.28 19.84 104.99 19.80Q104.70 19.76 104.48 19.71L104.48 19.71L104.48 18.11Q104.66 18.14 104.90 18.18Q105.15 18.21 105.42 18.21L105.42 18.21Q106.18 18.21 106.62 17.77Q107.06 17.33 107.30 16.67L107.30 16.67L107.55 15.97ZM118.77 7.17L118.77 7.17Q120.22 7.17 121.05 7.92Q121.87 8.67 121.87 10.35L121.87 10.35L121.87 16L119.86 16L119.86 10.75Q119.86 8.80 118.26 8.80L118.26 8.80Q117.04 8.80 116.59 9.57Q116.14 10.34 116.14 11.76L116.14 11.76L116.14 16L114.13 16L114.13 7.33L115.68 7.33L115.97 8.46L116.08 8.46Q116.50 7.79 117.22 7.48Q117.95 7.17 118.77 7.17ZM127.76 14.54L127.76 14.54Q128.13 14.54 128.49 14.47Q128.85 14.40 129.15 14.30L129.15 14.30L129.15 15.81Q128.83 15.95 128.32 16.06Q127.81 16.16 127.25 16.16L127.25 16.16Q126.51 16.16 125.90 15.91Q125.30 15.66 124.94 15.06Q124.59 14.45 124.59 13.36L124.59 13.36L124.59 8.85L123.42 8.85L123.42 7.97L124.70 7.26L125.34 5.42L126.61 5.42L126.61 7.33L129.07 7.33L129.07 8.85L126.61 8.85L126.61 13.34Q126.61 13.95 126.93 14.25Q127.25 14.54 127.76 14.54ZM130.90 3.84L132.91 3.84L132.91 6.74Q132.91 7.25 132.87 7.74Q132.83 8.22 132.80 8.46L132.80 8.46L132.93 8.46Q133.34 7.81 134.02 7.49Q134.69 7.17 135.50 7.17L135.50 7.17Q136.98 7.17 137.81 7.92Q138.64 8.67 138.64 10.35L138.64 10.35L138.64 16L136.62 16L136.62 10.75Q136.62 8.80 135.02 8.80L135.02 8.80Q133.81 8.80 133.36 9.57Q132.91 10.34 132.91 11.76L132.91 11.76L132.91 16L130.90 16L130.90 3.84ZM144.42 11.62L144.42 11.62Q144.42 13.55 143.85 15.34Q143.28 17.12 142.06 18.53L142.06 18.53L140.37 18.53Q141.46 17.04 142.02 15.25Q142.59 13.46 142.59 11.60L142.59 11.60Q142.59 9.70 142.02 7.89Q141.46 6.08 140.35 4.58L140.35 4.58L142.06 4.58Q143.28 6.03 143.85 7.85Q144.42 9.66 144.42 11.62Z" class="sprotty-block-name" style="fill:rgb(48, 48, 48);stroke:rgba(0, 0, 0, 0);"/><line x1="0" y1="20" x2="149.056" y2="20"/></g><g id="sprotty_ArchitectureBlockImpl$work.gates(synth)/GPortImpl$a_to_ArchitectureBlockImpl$work.gates(synth)/AssignmentBlockImpl$null11/GPortImpl$a" class="sprotty-edge thick edge" style="fill:none;stroke:rgb(112, 112, 112);stroke-linejoin:round;stroke-width:3px;"><path d="M 0 45 L 52.179500579833984 45 C 53.179500579833984 45 54.179500579833984 46 54.179500579833984 47 L 54.179500579833984 143 C 54.179500579833984 144 55.179500579833984 145 56.179500579833984 145 L 64.17950057983398 145 "/><circle r="3" id="sprotty_ArchitectureBlockImpl$work.gates(synth)/GPortImpl$a_to_ArchitectureBlockImpl$work.gates(synth)/AssignmentBlockImpl$null11/GPortImpl$a/junction0" transform="translate(54.179500579833984, 45)" class="sprotty-junction thick" style="fill:rgb(112, 112, 112);stroke:none;"/><circle r="3" id="sprotty_ArchitectureBlockImpl$work.gates(synth)/GPortImpl$a_to_ArchitectureBlockImpl$work.gates(synth)/AssignmentBlockImpl$null11/GPortImpl$a/junction1" transform="translate(54.179500579833984, 145)" class="sprotty-junction thick" style="fill:rgb(112, 112, 112);stroke:none;"/></g><g id="sprotty_ArchitectureBlockImpl$work.gates(synth)/GPortImpl$a_to_ArchitectureBlockImpl$work.gates(synth)/AssignmentBlockImpl$null10/GPortImpl$a" class="sprotty-edge thick edge" style="fill:none;stroke:rgb(112, 112, 112);stroke-linejoin:round;stroke-width:3px;"><path d="M 0 45 L 52.179500579833984 45 C 53.179500579833984 45 54.179500579833984 46 54.179500579833984 47 L 54.179500579833984 193 C 54.179500579833984 194 55.179500579833984 195 56.179500579833984 195 L 64.17950057983398 195 "/><circle r="3" id="sprotty_ArchitectureBlockImpl$work.gates(synth)/GPortImpl$a_to_ArchitectureBlockImpl$work.gates(synth)/AssignmentBlockImpl$null10/GPortImpl$a/junction0" transform="translate(54.179500579833984, 195)" class="sprotty-junction thick" style="fill:rgb(112, 112, 112);stroke:none;"/></g><g id="sprotty_ArchitectureBlockImpl$work.gates(synth)/GPortImpl$a_to_ArchitectureBlockImpl$work.gates(synth)/AssignmentBlockImpl$null9/GPortImpl$a" class="sprotty-edge thick edge" style="fill:none;stroke:rgb(112, 112, 112);stroke-linejoin:round;stroke-width:3px;"><path d="M 0 45 L 52.179500579833984 45 C 53.179500579833984 45 54.179500579833984 46 54.179500579833984 47 L 54.179500579833984 243 C 54.179500579833984 244 55.179500579833984 245 56.179500579833984 245 L 64.17950057983398 245 "/></g><g id="sprotty_ArchitectureBlockImpl$work.gates(synth)/GPortImpl$a_to_ArchitectureBlockImpl$work.gates(synth)/AssignmentBlockImpl$null8/GPortImpl$a" class="sprotty-edge thick edge" style="fill:none;stroke:rgb(112, 112, 112);stroke-linejoin:round;stroke-width:3px;"><path d="M 0 45 L 64.17950057983398 45 "/></g><g id="sprotty_ArchitectureBlockImpl$work.gates(synth)/GPortImpl$a_to_ArchitectureBlockImpl$work.gates(synth)/AssignmentBlockImpl$null7/GPortImpl$a" class="sprotty-edge thick edge" style="fill:none;stroke:rgb(112, 112, 112);stroke-linejoin:round;stroke-width:3px;"><path d="M 0 45 L 52.179500579833984 45 C 53.179500579833984 45 54.179500579833984 46 54.179500579833984 47 L 54.179500579833984 93 C 54.179500579833984 94 55.179500579833984 95 56.179500579833984 95 L 64.17950057983398 95 "/><circle r="3" id="sprotty_ArchitectureBlockImpl$work.gates(synth)/GPortImpl$a_to_ArchitectureBlockImpl$work.gates(synth)/AssignmentBlockImpl$null7/GPortImpl$a/junction0" transform="translate(54.179500579833984, 95)" class="sprotty-junction thick" style="fill:rgb(112, 112, 112);stroke:none;"/></g><g id="sprotty_ArchitectureBlockImpl$work.gates(synth)/GPortImpl$b_to_ArchitectureBlockImpl$work.gates(synth)/AssignmentBlockImpl$null11/GPortImpl$b" class="sprotty-edge thick edge" style="fill:none;stroke:rgb(112, 112, 112);stroke-linejoin:round;stroke-width:3px;"><path d="M 0 105 L 42.179500579833984 105 C 43.179500579833984 105 44.179500579833984 106 44.179500579833984 107 L 44.179500579833984 153 C 44.179500579833984 154 45.179500579833984 155 46.179500579833984 155 L 64.17950057983398 155 "/><circle r="3" id="sprotty_ArchitectureBlockImpl$work.gates(synth)/GPortImpl$b_to_ArchitectureBlockImpl$work.gates(synth)/AssignmentBlockImpl$null11/GPortImpl$b/junction0" transform="translate(44.179500579833984, 105)" class="sprotty-junction thick" style="fill:rgb(112, 112, 112);stroke:none;"/><circle r="3" id="sprotty_ArchitectureBlockImpl$work.gates(synth)/GPortImpl$b_to_ArchitectureBlockImpl$work.gates(synth)/AssignmentBlockImpl$null11/GPortImpl$b/junction1" transform="translate(44.179500579833984, 155)" class="sprotty-junction thick" style="fill:rgb(112, 112, 112);stroke:none;"/></g><g id="sprotty_ArchitectureBlockImpl$work.gates(synth)/GPortImpl$b_to_ArchitectureBlockImpl$work.gates(synth)/AssignmentBlockImpl$null10/GPortImpl$b" class="sprotty-edge thick edge" style="fill:none;stroke:rgb(112, 112, 112);stroke-linejoin:round;stroke-width:3px;"><path d="M 0 105 L 42.179500579833984 105 C 43.179500579833984 105 44.179500579833984 106 44.179500579833984 107 L 44.179500579833984 203 C 44.179500579833984 204 45.179500579833984 205 46.179500579833984 205 L 64.17950057983398 205 "/><circle r="3" id="sprotty_ArchitectureBlockImpl$work.gates(synth)/GPortImpl$b_to_ArchitectureBlockImpl$work.gates(synth)/AssignmentBlockImpl$null10/GPortImpl$b/junction0" transform="translate(44.179500579833984, 205)" class="sprotty-junction thick" style="fill:rgb(112, 112, 112);stroke:none;"/></g><g id="sprotty_ArchitectureBlockImpl$work.gates(synth)/GPortImpl$b_to_ArchitectureBlockImpl$work.gates(synth)/AssignmentBlockImpl$null9/GPortImpl$b" class="sprotty-edge thick edge" style="fill:none;stroke:rgb(112, 112, 112);stroke-linejoin:round;stroke-width:3px;"><path d="M 0 105 L 42.179500579833984 105 C 43.179500579833984 105 44.179500579833984 106 44.179500579833984 107 L 44.179500579833984 253 C 44.179500579833984 254 45.179500579833984 255 46.179500579833984 255 L 64.17950057983398 255 "/></g><g id="sprotty_ArchitectureBlockImpl$work.gates(synth)/GPortImpl$b_to_ArchitectureBlockImpl$work.gates(synth)/AssignmentBlockImpl$null8/GPortImpl$b" class="sprotty-edge thick edge" style="fill:none;stroke:rgb(112, 112, 112);stroke-linejoin:round;stroke-width:3px;"><path d="M 0 105 L 42.179500579833984 105 C 43.179500579833984 105 44.179500579833984 104 44.179500579833984 103 L 44.179500579833984 57 C 44.179500579833984 56 45.179500579833984 55 46.179500579833984 55 L 64.17950057983398 55 "/></g><g id="sprotty_ArchitectureBlockImpl$work.gates(synth)/GPortImpl$b_to_ArchitectureBlockImpl$work.gates(synth)/AssignmentBlockImpl$null7/GPortImpl$b" class="sprotty-edge thick edge" style="fill:none;stroke:rgb(112, 112, 112);stroke-linejoin:round;stroke-width:3px;"><path d="M 0 105 L 64.17950057983398 105 "/></g><g id="sprotty_ArchitectureBlockImpl$work.gates(synth)/AssignmentBlockImpl$null11/GPortImpl$y1_to_ArchitectureBlockImpl$work.gates(synth)/GPortImpl$y1" class="sprotty-edge thick edge" style="fill:none;stroke:rgb(112, 112, 112);stroke-linejoin:round;stroke-width:3px;"><path d="M 81.80998039245605 150 L 149.0546875 150 "/></g><g id="sprotty_ArchitectureBlockImpl$work.gates(synth)/AssignmentBlockImpl$null10/GPortImpl$y2_to_ArchitectureBlockImpl$work.gates(synth)/GPortImpl$y2" class="sprotty-edge thick edge" style="fill:none;stroke:rgb(112, 112, 112);stroke-linejoin:round;stroke-width:3px;"><path d="M 81.80998039245605 200 L 149.0546875 200 "/></g><g id="sprotty_ArchitectureBlockImpl$work.gates(synth)/AssignmentBlockImpl$null9/GPortImpl$y3_to_ArchitectureBlockImpl$work.gates(synth)/GPortImpl$y3" class="sprotty-edge thick edge" style="fill:none;stroke:rgb(112, 112, 112);stroke-linejoin:round;stroke-width:3px;"><path d="M 81.80998039245605 250 L 149.0546875 250 "/></g><g id="sprotty_ArchitectureBlockImpl$work.gates(synth)/AssignmentBlockImpl$null8/GPortImpl$y4_to_ArchitectureBlockImpl$work.gates(synth)/GPortImpl$y4" class="sprotty-edge thick edge" style="fill:none;stroke:rgb(112, 112, 112);stroke-linejoin:round;stroke-width:3px;"><path d="M 81.80998039245605 50 L 149.0546875 50 "/></g><g id="sprotty_ArchitectureBlockImpl$work.gates(synth)/AssignmentBlockImpl$null7/GPortImpl$y5_to_ArchitectureBlockImpl$work.gates(synth)/GPortImpl$y5" class="sprotty-edge thick edge" style="fill:none;stroke:rgb(112, 112, 112);stroke-linejoin:round;stroke-width:3px;"><path d="M 81.80998039245605 100 L 149.0546875 100 "/></g><g id="sprotty_ArchitectureBlockImpl$work.gates(synth)/AssignmentBlockImpl$null7" transform="translate(64.17950057983398, 85)" class="statement"><rect x="0" y="0" rx="10" ry="5" width="17.63047981262207" height="30" class="sprotty-node" style="fill:rgb(245, 245, 245);stroke:rgb(112, 112, 112);"/><g id="sprotty_ArchitectureBlockImpl$work.gates(synth)/AssignmentBlockImpl$null7/label" transform="translate(5, 13.28515625) translate(0, 0.700526237487793)" class="sprotty-label statement" style="cursor:default;fill:rgb(48, 48, 48);font-family:Arial, Helvetica, sans-serif;text-anchor:middle;"><path d="M3.50-1.39L3.50-0.70L0.31-2.11L0.31-2.53L3.50-4.13L3.50-3.44L1.17-2.35L3.50-1.39ZM7.30-2.68L4.14-2.68L4.14-3.30L7.30-3.30L7.30-2.68ZM7.30-1.39L4.14-1.39L4.14-2.01L7.30-2.01L7.30-1.39Z" transform="translate(0, 3.42838)"/><rect x="0" y="-0.7003499999999999" width="7.6304799999999995" height="3.42838" class="clickable" style="cursor:pointer;fill:rgba(0, 0, 0, 0);fill-opacity:0;stroke-width:0px;"/></g><g id="sprotty_ArchitectureBlockImpl$work.gates(synth)/AssignmentBlockImpl$null7/GPortImpl$b" transform="translate(0, 20)" class="sprotty-hidden hidden" style="display:block;height:0px;width:0px;"/><g id="sprotty_ArchitectureBlockImpl$work.gates(synth)/AssignmentBlockImpl$null7/GPortImpl$a" transform="translate(0, 10)" class="sprotty-hidden hidden" style="display:block;height:0px;width:0px;"/><g id="sprotty_ArchitectureBlockImpl$work.gates(synth)/AssignmentBlockImpl$null7/GPortImpl$y5" transform="translate(17.63047981262207, 15)" class="sprotty-hidden hidden" style="display:block;height:0px;width:0px;"/></g><g id="sprotty_ArchitectureBlockImpl$work.gates(synth)/AssignmentBlockImpl$null8" transform="translate(64.17950057983398, 35)" class="statement"><rect x="0" y="0" rx="10" ry="5" width="17.63047981262207" height="30" class="sprotty-node" style="fill:rgb(245, 245, 245);stroke:rgb(112, 112, 112);"/><g id="sprotty_ArchitectureBlockImpl$work.gates(synth)/AssignmentBlockImpl$null8/label" transform="translate(5, 13.28515625) translate(0, 0.700526237487793)" class="sprotty-label statement" style="cursor:default;fill:rgb(48, 48, 48);font-family:Arial, Helvetica, sans-serif;text-anchor:middle;"><path d="M3.50-1.39L3.50-0.70L0.31-2.11L0.31-2.53L3.50-4.13L3.50-3.44L1.17-2.35L3.50-1.39ZM7.30-2.68L4.14-2.68L4.14-3.30L7.30-3.30L7.30-2.68ZM7.30-1.39L4.14-1.39L4.14-2.01L7.30-2.01L7.30-1.39Z" transform="translate(0, 3.42838)"/><rect x="0" y="-0.7003499999999999" width="7.6304799999999995" height="3.42838" class="clickable" style="cursor:pointer;fill:rgba(0, 0, 0, 0);fill-opacity:0;stroke-width:0px;"/></g><g id="sprotty_ArchitectureBlockImpl$work.gates(synth)/AssignmentBlockImpl$null8/GPortImpl$b" transform="translate(0, 20)" class="sprotty-hidden hidden" style="display:block;height:0px;width:0px;"/><g id="sprotty_ArchitectureBlockImpl$work.gates(synth)/AssignmentBlockImpl$null8/GPortImpl$a" transform="translate(0, 10)" class="sprotty-hidden hidden" style="display:block;height:0px;width:0px;"/><g id="sprotty_ArchitectureBlockImpl$work.gates(synth)/AssignmentBlockImpl$null8/GPortImpl$y4" transform="translate(17.63047981262207, 15)" class="sprotty-hidden hidden" style="display:block;height:0px;width:0px;"/></g><g id="sprotty_ArchitectureBlockImpl$work.gates(synth)/AssignmentBlockImpl$null9" transform="translate(64.17950057983398, 235)" class="statement"><rect x="0" y="0" rx="10" ry="5" width="17.63047981262207" height="30" class="sprotty-node" style="fill:rgb(245, 245, 245);stroke:rgb(112, 112, 112);"/><g id="sprotty_ArchitectureBlockImpl$work.gates(synth)/AssignmentBlockImpl$null9/label" transform="translate(5, 13.28515625) translate(0, 0.700526237487793)" class="sprotty-label statement" style="cursor:default;fill:rgb(48, 48, 48);font-family:Arial, Helvetica, sans-serif;text-anchor:middle;"><path d="M3.50-1.39L3.50-0.70L0.31-2.11L0.31-2.53L3.50-4.13L3.50-3.44L1.17-2.35L3.50-1.39ZM7.30-2.68L4.14-2.68L4.14-3.30L7.30-3.30L7.30-2.68ZM7.30-1.39L4.14-1.39L4.14-2.01L7.30-2.01L7.30-1.39Z" transform="translate(0, 3.42838)"/><rect x="0" y="-0.7003499999999999" width="7.6304799999999995" height="3.42838" class="clickable" style="cursor:pointer;fill:rgba(0, 0, 0, 0);fill-opacity:0;stroke-width:0px;"/></g><g id="sprotty_ArchitectureBlockImpl$work.gates(synth)/AssignmentBlockImpl$null9/GPortImpl$b" transform="translate(0, 20)" class="sprotty-hidden hidden" style="display:block;height:0px;width:0px;"/><g id="sprotty_ArchitectureBlockImpl$work.gates(synth)/AssignmentBlockImpl$null9/GPortImpl$a" transform="translate(0, 10)" class="sprotty-hidden hidden" style="display:block;height:0px;width:0px;"/><g id="sprotty_ArchitectureBlockImpl$work.gates(synth)/AssignmentBlockImpl$null9/GPortImpl$y3" transform="translate(17.63047981262207, 15)" class="sprotty-hidden hidden" style="display:block;height:0px;width:0px;"/></g><g id="sprotty_ArchitectureBlockImpl$work.gates(synth)/GPortImpl$b" transform="translate(0, 105)" class="triangle"><path d="M 0,0 L 5,2.5 L 0,5 Z" transform="translate(-1.67, -2.5)" class="sprotty-port" style="fill:rgb(48, 48, 48);stroke:rgb(48, 48, 48);"/><g class="port sprotty-label" id="sprotty_ArchitectureBlockImpl$work.gates(synth)/GPortImpl$b/label" transform="translate(3, 3) translate(0, -0.13300000131130219)" style="cursor:default;fill:rgb(48, 48, 48);font-family:Arial, Helvetica, sans-serif;text-anchor:middle;"><path d="M4.51 0.13L4.51 0.13Q3.67 0.13 3.14-0.17Q2.61-0.48 2.30-0.90L2.30-0.90L2.21-0.90L1.97 0L1.13 0L1.13-10.11L2.30-10.11L2.30-7.65Q2.30-7.20 2.28-6.80Q2.26-6.41 2.23-6.18L2.23-6.18L2.30-6.18Q2.61-6.64 3.14-6.94Q3.67-7.25 4.51-7.25L4.51-7.25Q5.84-7.25 6.64-6.32Q7.45-5.40 7.45-3.56L7.45-3.56Q7.45-1.73 6.64-0.80Q5.83 0.13 4.51 0.13ZM4.34-0.84L4.34-0.84Q5.29-0.84 5.77-1.54Q6.24-2.25 6.24-3.58L6.24-3.58Q6.24-6.28 4.31-6.28L4.31-6.28Q3.18-6.28 2.74-5.63Q2.30-4.97 2.30-3.60L2.30-3.60L2.30-3.55Q2.30-2.23 2.73-1.54Q3.17-0.84 4.34-0.84Z" transform="translate(4, 12.241)"/><rect x="0" y="0.133" width="16.1795" height="14.241" class="clickable" style="cursor:pointer;fill:rgba(0, 0, 0, 0);fill-opacity:0;stroke-width:0px;"/></g></g><g id="sprotty_ArchitectureBlockImpl$work.gates(synth)/GPortImpl$a" transform="translate(0, 45)" class="triangle"><path d="M 0,0 L 5,2.5 L 0,5 Z" transform="translate(-1.67, -2.5)" class="sprotty-port" style="fill:rgb(48, 48, 48);stroke:rgb(48, 48, 48);"/><g class="port sprotty-label" id="sprotty_ArchitectureBlockImpl$work.gates(synth)/GPortImpl$a/label" transform="translate(3, 3) translate(0, -0.13300000131130219)" style="cursor:default;fill:rgb(48, 48, 48);font-family:Arial, Helvetica, sans-serif;text-anchor:middle;"><path d="M2.86 0.13L2.86 0.13Q1.89 0.13 1.25-0.38Q0.61-0.89 0.61-1.98L0.61-1.98Q0.61-3.05 1.45-3.62Q2.29-4.20 4.03-4.26L4.03-4.26L5.24-4.30L5.24-4.72Q5.24-5.61 4.85-5.96Q4.47-6.30 3.76-6.30L3.76-6.30Q3.21-6.30 2.70-6.14Q2.19-5.97 1.76-5.76L1.76-5.76L1.40-6.64Q1.86-6.89 2.50-7.07Q3.14-7.25 3.83-7.25L3.83-7.25Q5.13-7.25 5.76-6.68Q6.38-6.10 6.38-4.85L6.38-4.85L6.38 0L5.53 0L5.31-1.01L5.25-1.01Q4.79-0.43 4.28-0.15Q3.76 0.13 2.86 0.13ZM3.13-0.81L3.13-0.81Q4.03-0.81 4.63-1.31Q5.23-1.81 5.23-2.85L5.23-2.85L5.23-3.48L4.18-3.44Q2.85-3.39 2.33-3.02Q1.82-2.65 1.82-1.97L1.82-1.97Q1.82-1.37 2.19-1.09Q2.55-0.81 3.13-0.81Z" transform="translate(4, 9.3815)"/><rect x="0" y="0.133" width="15.461300000000001" height="11.3815" class="clickable" style="cursor:pointer;fill:rgba(0, 0, 0, 0);fill-opacity:0;stroke-width:0px;"/></g></g><g id="sprotty_ArchitectureBlockImpl$work.gates(synth)/GPortImpl$y1" transform="translate(149.0546875, 150)" class="triangle"><path d="M 0,0 L 5,2.5 L 0,5 Z" transform="translate(-1.67, -2.5)" class="sprotty-port" style="fill:rgb(48, 48, 48);stroke:rgb(48, 48, 48);"/><g class="port sprotty-label" id="sprotty_ArchitectureBlockImpl$work.gates(synth)/GPortImpl$y1/label" transform="translate(-25.390600204467773, 3) translate(0, -3.191999912261963)" style="cursor:default;fill:rgb(48, 48, 48);font-family:Arial, Helvetica, sans-serif;text-anchor:middle;"><path d="M1.12 3.19L1.12 3.19Q0.80 3.19 0.56 3.16Q0.32 3.13 0.15 3.09L0.15 3.09L0.15 2.15Q0.29 2.18 0.50 2.21Q0.70 2.23 0.93 2.23L0.93 2.23Q1.54 2.23 1.92 1.89Q2.29 1.54 2.51 0.97L2.51 0.97L2.89 0.03L0.01-7.13L1.26-7.13L2.81-3.07Q3.01-2.54 3.17-2.05Q3.33-1.57 3.40-1.13L3.40-1.13L3.46-1.13Q3.54-1.46 3.70-2.00Q3.87-2.54 4.07-3.09L4.07-3.09L5.52-7.13L6.78-7.13L3.71 0.98Q3.34 2.00 2.75 2.59Q2.15 3.19 1.12 3.19ZM11.50 0L10.36 0L10.36-6.64Q10.36-7.21 10.37-7.55Q10.39-7.90 10.41-8.27L10.41-8.27Q10.20-8.07 10.03-7.92Q9.86-7.77 9.59-7.54L9.59-7.54L8.58-6.72L7.97-7.50L10.53-9.50L11.50-9.50L11.50 0Z" transform="translate(4, 14.6882)"/><rect x="0" y="3.192" width="22.3906" height="16.688200000000002" class="clickable" style="cursor:pointer;fill:rgba(0, 0, 0, 0);fill-opacity:0;stroke-width:0px;"/></g></g><g id="sprotty_ArchitectureBlockImpl$work.gates(synth)/GPortImpl$y2" transform="translate(149.0546875, 200)" class="triangle"><path d="M 0,0 L 5,2.5 L 0,5 Z" transform="translate(-1.67, -2.5)" class="sprotty-port" style="fill:rgb(48, 48, 48);stroke:rgb(48, 48, 48);"/><g class="port sprotty-label" id="sprotty_ArchitectureBlockImpl$work.gates(synth)/GPortImpl$y2/label" transform="translate(-25.390600204467773, 3) translate(0, -3.191999912261963)" style="cursor:default;fill:rgb(48, 48, 48);font-family:Arial, Helvetica, sans-serif;text-anchor:middle;"><path d="M1.12 3.19L1.12 3.19Q0.80 3.19 0.56 3.16Q0.32 3.13 0.15 3.09L0.15 3.09L0.15 2.15Q0.29 2.18 0.50 2.21Q0.70 2.23 0.93 2.23L0.93 2.23Q1.54 2.23 1.92 1.89Q2.29 1.54 2.51 0.97L2.51 0.97L2.89 0.03L0.01-7.13L1.26-7.13L2.81-3.07Q3.01-2.54 3.17-2.05Q3.33-1.57 3.40-1.13L3.40-1.13L3.46-1.13Q3.54-1.46 3.70-2.00Q3.87-2.54 4.07-3.09L4.07-3.09L5.52-7.13L6.78-7.13L3.71 0.98Q3.34 2.00 2.75 2.59Q2.15 3.19 1.12 3.19ZM13.70 0L7.42 0L7.42-0.97L9.91-3.48Q10.63-4.20 11.12-4.76Q11.61-5.32 11.86-5.86Q12.12-6.40 12.12-7.04L12.12-7.04Q12.12-7.82 11.65-8.23Q11.19-8.63 10.44-8.63L10.44-8.63Q9.75-8.63 9.22-8.39Q8.70-8.15 8.15-7.73L8.15-7.73L7.53-8.51Q8.09-8.98 8.81-9.30Q9.54-9.63 10.44-9.63L10.44-9.63Q11.77-9.63 12.54-8.96Q13.31-8.29 13.31-7.10L13.31-7.10Q13.31-6.36 13.01-5.71Q12.70-5.07 12.16-4.43Q11.61-3.79 10.88-3.07L10.88-3.07L8.90-1.12L8.90-1.06L13.70-1.06L13.70 0Z" transform="translate(4, 14.821200000000001)"/><rect x="0" y="3.192" width="22.3906" height="16.8212" class="clickable" style="cursor:pointer;fill:rgba(0, 0, 0, 0);fill-opacity:0;stroke-width:0px;"/></g></g><g id="sprotty_ArchitectureBlockImpl$work.gates(synth)/GPortImpl$y3" transform="translate(149.0546875, 250)" class="triangle"><path d="M 0,0 L 5,2.5 L 0,5 Z" transform="translate(-1.67, -2.5)" class="sprotty-port" style="fill:rgb(48, 48, 48);stroke:rgb(48, 48, 48);"/><g class="port sprotty-label" id="sprotty_ArchitectureBlockImpl$work.gates(synth)/GPortImpl$y3/label" transform="translate(-25.390600204467773, 3) translate(0, -3.191999912261963)" style="cursor:default;fill:rgb(48, 48, 48);font-family:Arial, Helvetica, sans-serif;text-anchor:middle;"><path d="M1.12 3.19L1.12 3.19Q0.80 3.19 0.56 3.16Q0.32 3.13 0.15 3.09L0.15 3.09L0.15 2.15Q0.29 2.18 0.50 2.21Q0.70 2.23 0.93 2.23L0.93 2.23Q1.54 2.23 1.92 1.89Q2.29 1.54 2.51 0.97L2.51 0.97L2.89 0.03L0.01-7.13L1.26-7.13L2.81-3.07Q3.01-2.54 3.17-2.05Q3.33-1.57 3.40-1.13L3.40-1.13L3.46-1.13Q3.54-1.46 3.70-2.00Q3.87-2.54 4.07-3.09L4.07-3.09L5.52-7.13L6.78-7.13L3.71 0.98Q3.34 2.00 2.75 2.59Q2.15 3.19 1.12 3.19ZM9.99 0.13L9.99 0.13Q9.24 0.13 8.61 0.02Q7.97-0.09 7.38-0.39L7.38-0.39L7.38-1.48Q7.98-1.18 8.67-1.02Q9.36-0.85 10.00-0.85L10.00-0.85Q11.28-0.85 11.84-1.35Q12.41-1.85 12.41-2.73L12.41-2.73Q12.41-3.62 11.71-4.01Q11.01-4.40 9.75-4.40L9.75-4.40L8.83-4.40L8.83-5.40L9.76-5.40Q10.93-5.40 11.54-5.89Q12.14-6.38 12.14-7.20L12.14-7.20Q12.14-7.89 11.68-8.27Q11.21-8.65 10.41-8.65L10.41-8.65Q9.64-8.65 9.10-8.42Q8.55-8.19 8.02-7.85L8.02-7.85L7.43-8.65Q7.94-9.04 8.69-9.34Q9.44-9.63 10.40-9.63L10.40-9.63Q11.89-9.63 12.62-8.96Q13.34-8.30 13.34-7.28L13.34-7.28Q13.34-6.32 12.81-5.75Q12.28-5.19 11.37-5.00L11.37-5.00L11.37-4.95Q12.52-4.81 13.07-4.23Q13.63-3.64 13.63-2.70L13.63-2.70Q13.63-1.88 13.25-1.23Q12.86-0.59 12.06-0.23Q11.25 0.13 9.99 0.13Z" transform="translate(4, 14.821200000000001)"/><rect x="0" y="3.192" width="22.3906" height="16.8212" class="clickable" style="cursor:pointer;fill:rgba(0, 0, 0, 0);fill-opacity:0;stroke-width:0px;"/></g></g><g id="sprotty_ArchitectureBlockImpl$work.gates(synth)/GPortImpl$y4" transform="translate(149.0546875, 50)" class="triangle"><path d="M 0,0 L 5,2.5 L 0,5 Z" transform="translate(-1.67, -2.5)" class="sprotty-port" style="fill:rgb(48, 48, 48);stroke:rgb(48, 48, 48);"/><g class="port sprotty-label" id="sprotty_ArchitectureBlockImpl$work.gates(synth)/GPortImpl$y4/label" transform="translate(-25.390600204467773, 3) translate(0, -3.191999912261963)" style="cursor:default;fill:rgb(48, 48, 48);font-family:Arial, Helvetica, sans-serif;text-anchor:middle;"><path d="M1.12 3.19L1.12 3.19Q0.80 3.19 0.56 3.16Q0.32 3.13 0.15 3.09L0.15 3.09L0.15 2.15Q0.29 2.18 0.50 2.21Q0.70 2.23 0.93 2.23L0.93 2.23Q1.54 2.23 1.92 1.89Q2.29 1.54 2.51 0.97L2.51 0.97L2.89 0.03L0.01-7.13L1.26-7.13L2.81-3.07Q3.01-2.54 3.17-2.05Q3.33-1.57 3.40-1.13L3.40-1.13L3.46-1.13Q3.54-1.46 3.70-2.00Q3.87-2.54 4.07-3.09L4.07-3.09L5.52-7.13L6.78-7.13L3.71 0.98Q3.34 2.00 2.75 2.59Q2.15 3.19 1.12 3.19ZM12.74 0L11.61 0L11.61-2.15L7.06-2.15L7.06-3.15L11.53-9.55L12.74-9.55L12.74-3.21L14.12-3.21L14.12-2.15L12.74-2.15L12.74 0ZM11.05-7.26L8.21-3.21L11.61-3.21L11.61-6.20Q11.61-6.89 11.63-7.37Q11.65-7.86 11.68-8.30L11.68-8.30L11.62-8.30Q11.52-8.05 11.36-7.75Q11.20-7.46 11.05-7.26L11.05-7.26Z" transform="translate(4, 14.7414)"/><rect x="0" y="3.192" width="22.3906" height="16.7414" class="clickable" style="cursor:pointer;fill:rgba(0, 0, 0, 0);fill-opacity:0;stroke-width:0px;"/></g></g><g id="sprotty_ArchitectureBlockImpl$work.gates(synth)/GPortImpl$y5" transform="translate(149.0546875, 100)" class="triangle"><path d="M 0,0 L 5,2.5 L 0,5 Z" transform="translate(-1.67, -2.5)" class="sprotty-port" style="fill:rgb(48, 48, 48);stroke:rgb(48, 48, 48);"/><g class="port sprotty-label" id="sprotty_ArchitectureBlockImpl$work.gates(synth)/GPortImpl$y5/label" transform="translate(-25.390600204467773, 3) translate(0, -3.191999912261963)" style="cursor:default;fill:rgb(48, 48, 48);font-family:Arial, Helvetica, sans-serif;text-anchor:middle;"><path d="M1.12 3.19L1.12 3.19Q0.80 3.19 0.56 3.16Q0.32 3.13 0.15 3.09L0.15 3.09L0.15 2.15Q0.29 2.18 0.50 2.21Q0.70 2.23 0.93 2.23L0.93 2.23Q1.54 2.23 1.92 1.89Q2.29 1.54 2.51 0.97L2.51 0.97L2.89 0.03L0.01-7.13L1.26-7.13L2.81-3.07Q3.01-2.54 3.17-2.05Q3.33-1.57 3.40-1.13L3.40-1.13L3.46-1.13Q3.54-1.46 3.70-2.00Q3.87-2.54 4.07-3.09L4.07-3.09L5.52-7.13L6.78-7.13L3.71 0.98Q3.34 2.00 2.75 2.59Q2.15 3.19 1.12 3.19ZM10.08 0.13L10.08 0.13Q9.35 0.13 8.70 0Q8.06-0.13 7.62-0.39L7.62-0.39L7.62-1.49Q8.10-1.20 8.78-1.03Q9.47-0.86 10.09-0.86L10.09-0.86Q11.15-0.86 11.79-1.36Q12.44-1.86 12.44-2.91L12.44-2.91Q12.44-3.84 11.86-4.34Q11.29-4.84 10.05-4.84L10.05-4.84Q9.68-4.84 9.20-4.77Q8.72-4.71 8.43-4.64L8.43-4.64L7.85-5.01L8.21-9.50L12.97-9.50L12.97-8.43L9.20-8.43L8.98-5.68Q9.20-5.72 9.59-5.77Q9.98-5.83 10.44-5.83L10.44-5.83Q11.90-5.83 12.77-5.09Q13.63-4.36 13.63-3.03L13.63-3.03Q13.63-1.56 12.69-0.71Q11.76 0.13 10.08 0.13Z" transform="translate(4, 14.6882)"/><rect x="0" y="3.192" width="22.3906" height="16.688200000000002" class="clickable" style="cursor:pointer;fill:rgba(0, 0, 0, 0);fill-opacity:0;stroke-width:0px;"/></g></g><g id="sprotty_ArchitectureBlockImpl$work.gates(synth)/AssignmentBlockImpl$null11" transform="translate(64.17950057983398, 135)" class="statement"><rect x="0" y="0" rx="10" ry="5" width="17.63047981262207" height="30" class="sprotty-node" style="fill:rgb(245, 245, 245);stroke:rgb(112, 112, 112);"/><g id="sprotty_ArchitectureBlockImpl$work.gates(synth)/AssignmentBlockImpl$null11/label" transform="translate(5, 13.28515625) translate(0, 0.700526237487793)" class="sprotty-label statement" style="cursor:default;fill:rgb(48, 48, 48);font-family:Arial, Helvetica, sans-serif;text-anchor:middle;"><path d="M3.50-1.39L3.50-0.70L0.31-2.11L0.31-2.53L3.50-4.13L3.50-3.44L1.17-2.35L3.50-1.39ZM7.30-2.68L4.14-2.68L4.14-3.30L7.30-3.30L7.30-2.68ZM7.30-1.39L4.14-1.39L4.14-2.01L7.30-2.01L7.30-1.39Z" transform="translate(0, 3.42838)"/><rect x="0" y="-0.7003499999999999" width="7.6304799999999995" height="3.42838" class="clickable" style="cursor:pointer;fill:rgba(0, 0, 0, 0);fill-opacity:0;stroke-width:0px;"/></g><g id="sprotty_ArchitectureBlockImpl$work.gates(synth)/AssignmentBlockImpl$null11/GPortImpl$b" transform="translate(0, 20)" class="sprotty-hidden hidden" style="display:block;height:0px;width:0px;"/><g id="sprotty_ArchitectureBlockImpl$work.gates(synth)/AssignmentBlockImpl$null11/GPortImpl$a" transform="translate(0, 10)" class="sprotty-hidden hidden" style="display:block;height:0px;width:0px;"/><g id="sprotty_ArchitectureBlockImpl$work.gates(synth)/AssignmentBlockImpl$null11/GPortImpl$y1" transform="translate(17.63047981262207, 15)" class="sprotty-hidden hidden" style="display:block;height:0px;width:0px;"/></g><g id="sprotty_ArchitectureBlockImpl$work.gates(synth)/AssignmentBlockImpl$null10" transform="translate(64.17950057983398, 185)" class="statement"><rect x="0" y="0" rx="10" ry="5" width="17.63047981262207" height="30" class="sprotty-node" style="fill:rgb(245, 245, 245);stroke:rgb(112, 112, 112);"/><g id="sprotty_ArchitectureBlockImpl$work.gates(synth)/AssignmentBlockImpl$null10/label" transform="translate(5, 13.28515625) translate(0, 0.700526237487793)" class="sprotty-label statement" style="cursor:default;fill:rgb(48, 48, 48);font-family:Arial, Helvetica, sans-serif;text-anchor:middle;"><path d="M3.50-1.39L3.50-0.70L0.31-2.11L0.31-2.53L3.50-4.13L3.50-3.44L1.17-2.35L3.50-1.39ZM7.30-2.68L4.14-2.68L4.14-3.30L7.30-3.30L7.30-2.68ZM7.30-1.39L4.14-1.39L4.14-2.01L7.30-2.01L7.30-1.39Z" transform="translate(0, 3.42838)"/><rect x="0" y="-0.7003499999999999" width="7.6304799999999995" height="3.42838" class="clickable" style="cursor:pointer;fill:rgba(0, 0, 0, 0);fill-opacity:0;stroke-width:0px;"/></g><g id="sprotty_ArchitectureBlockImpl$work.gates(synth)/AssignmentBlockImpl$null10/GPortImpl$b" transform="translate(0, 20)" class="sprotty-hidden hidden" style="display:block;height:0px;width:0px;"/><g id="sprotty_ArchitectureBlockImpl$work.gates(synth)/AssignmentBlockImpl$null10/GPortImpl$a" transform="translate(0, 10)" class="sprotty-hidden hidden" style="display:block;height:0px;width:0px;"/><g id="sprotty_ArchitectureBlockImpl$work.gates(synth)/AssignmentBlockImpl$null10/GPortImpl$y2" transform="translate(17.63047981262207, 15)" class="sprotty-hidden hidden" style="display:block;height:0px;width:0px;"/></g></g></g></svg>