<svg xmlns="http://www.w3.org/2000/svg" id="sprotty_gates_tb" class="sprotty-graph sprotty-block-diagram blockdiagram" style="font-family:&quot;Helvetica Neue&quot;, Helvetica, Arial, sans-serif;line-height:18px;perspective-origin:0px 0px;transform-origin:0px 0px;z-index:0;" version="1.1" viewBox="9.5 12 230.8455029296875 217.76019859313965"><g transform="scale(1) translate(0,0)"><g id="sprotty_ArchitectureBlockImpl$work.gates_tb(RTL)" transform="translate(12, 12)" class="architecture"><g class="sprotty-block" style="fill:rgb(245, 245, 245);stroke:rgb(48, 48, 48);stroke-dasharray:0px;"><rect x="0" y="0" rx="1" ry="1" width="224.0155029296875" height="217.76019859313965"/><path d="M48.17 16L45.93 16L44.97 12.27Q44.89 11.97 44.78 11.51Q44.66 11.06 44.54 10.56Q44.42 10.06 44.33 9.65Q44.23 9.23 44.18 9.01L44.18 9.01L44.12 9.01Q44.07 9.23 43.98 9.65Q43.88 10.06 43.77 10.57Q43.66 11.07 43.54 11.53Q43.42 11.98 43.34 12.29L43.34 12.29L42.33 16L40.12 16L37.69 7.31L39.72 7.31L40.79 11.46Q40.90 11.89 41.01 12.41Q41.11 12.93 41.18 13.42Q41.26 13.90 41.30 14.21L41.30 14.21L41.37 14.21Q41.40 13.92 41.49 13.42Q41.58 12.93 41.67 12.46Q41.77 11.98 41.83 11.74L41.83 11.74L43.08 7.31L45.29 7.31L46.49 11.74Q46.55 12.03 46.66 12.50Q46.76 12.96 46.84 13.43Q46.92 13.90 46.94 14.19L46.94 14.19L47.00 14.19Q47.03 13.94 47.11 13.46Q47.19 12.98 47.30 12.43Q47.42 11.89 47.54 11.46L47.54 11.46L48.63 7.31L50.63 7.31L48.17 16ZM59.85 11.65L59.85 11.65Q59.85 13.81 58.73 14.98Q57.61 16.16 55.69 16.16L55.69 16.16Q54.50 16.16 53.58 15.63Q52.65 15.10 52.12 14.10Q51.59 13.09 51.59 11.65L51.59 11.65Q51.59 9.49 52.70 8.33Q53.82 7.17 55.74 7.17L55.74 7.17Q56.94 7.17 57.86 7.69Q58.79 8.21 59.32 9.21Q59.85 10.21 59.85 11.65ZM53.66 11.65L53.66 11.65Q53.66 13.02 54.14 13.78Q54.63 14.53 55.72 14.53L55.72 14.53Q56.81 14.53 57.30 13.78Q57.78 13.02 57.78 11.65L57.78 11.65Q57.78 10.27 57.30 9.54Q56.81 8.80 55.70 8.80L55.70 8.80Q54.63 8.80 54.14 9.54Q53.66 10.27 53.66 11.65ZM66.47 7.17L66.47 7.17Q66.68 7.17 66.93 7.18Q67.18 7.20 67.35 7.25L67.35 7.25L67.18 9.12Q67.02 9.09 66.79 9.06Q66.57 9.04 66.39 9.04L66.39 9.04Q65.75 9.04 65.19 9.30Q64.63 9.57 64.29 10.12Q63.94 10.67 63.94 11.50L63.94 11.50L63.94 16L61.93 16L61.93 7.33L63.48 7.33L63.77 8.83L63.86 8.83Q64.25 8.14 64.92 7.66Q65.59 7.17 66.47 7.17ZM68.95 3.84L70.95 3.84L70.95 9.62Q70.95 10.03 70.92 10.50Q70.89 10.96 70.86 11.38L70.86 11.38L70.90 11.38Q71.10 11.09 71.38 10.72Q71.67 10.35 71.93 10.06L71.93 10.06L74.49 7.33L76.78 7.33L73.30 11.07L77.00 16L74.65 16L71.96 12.29L70.95 13.12L70.95 16L68.95 16L68.95 3.84ZM78.07 14.98L78.07 14.98Q78.07 14.30 78.42 14.02Q78.78 13.74 79.29 13.74L79.29 13.74Q79.78 13.74 80.15 14.02Q80.52 14.30 80.52 14.98L80.52 14.98Q80.52 15.63 80.15 15.92Q79.78 16.21 79.29 16.21L79.29 16.21Q78.78 16.21 78.42 15.92Q78.07 15.63 78.07 14.98ZM85.74 7.17L85.74 7.17Q87.38 7.17 88.31 8.45L88.31 8.45L88.39 8.45L88.58 7.33L90.26 7.33L90.26 16.06Q90.26 17.92 89.22 18.88Q88.17 19.84 86.09 19.84L86.09 19.84Q85.16 19.84 84.38 19.72Q83.59 19.60 82.89 19.31L82.89 19.31L82.89 17.65Q84.38 18.32 86.22 18.32L86.22 18.32Q87.21 18.32 87.73 17.77Q88.25 17.22 88.25 16.16L88.25 16.16L88.25 15.94Q88.25 15.70 88.26 15.38Q88.28 15.06 88.31 14.86L88.31 14.86L88.25 14.86Q87.80 15.54 87.15 15.85Q86.50 16.16 85.69 16.16L85.69 16.16Q84.10 16.16 83.21 14.98Q82.31 13.79 82.31 11.68L82.31 11.68Q82.31 9.57 83.22 8.37Q84.12 7.17 85.74 7.17ZM86.26 8.82L86.26 8.82Q84.38 8.82 84.38 11.71L84.38 11.71Q84.38 14.56 86.30 14.56L86.30 14.56Q87.35 14.56 87.86 13.98Q88.36 13.39 88.36 12L88.36 12L88.36 11.70Q88.36 10.16 87.86 9.49Q87.35 8.82 86.26 8.82ZM96.30 7.17L96.30 7.17Q97.98 7.17 98.85 7.90Q99.72 8.64 99.72 10.18L99.72 10.18L99.72 16L98.30 16L97.90 14.80L97.83 14.80Q97.27 15.50 96.65 15.83Q96.02 16.16 94.95 16.16L94.95 16.16Q93.78 16.16 93.02 15.50Q92.25 14.85 92.25 13.47L92.25 13.47Q92.25 12.13 93.23 11.46Q94.22 10.78 96.22 10.70L96.22 10.70L97.72 10.66L97.72 10.22Q97.72 9.41 97.32 9.05Q96.92 8.69 96.20 8.69L96.20 8.69Q95.54 8.69 94.94 8.88Q94.34 9.07 93.75 9.33L93.75 9.33L93.11 7.92Q93.75 7.58 94.58 7.38Q95.40 7.17 96.30 7.17ZM97.72 12.64L97.72 11.90L96.66 11.94Q95.34 11.98 94.82 12.39Q94.31 12.80 94.31 13.49L94.31 13.49Q94.31 14.11 94.67 14.38Q95.03 14.64 95.62 14.64L95.62 14.64Q96.50 14.64 97.11 14.14Q97.72 13.63 97.72 12.64L97.72 12.64ZM105.61 14.54L105.61 14.54Q105.98 14.54 106.34 14.47Q106.70 14.40 107.00 14.30L107.00 14.30L107.00 15.81Q106.68 15.95 106.17 16.06Q105.66 16.16 105.10 16.16L105.10 16.16Q104.36 16.16 103.75 15.91Q103.14 15.66 102.79 15.06Q102.44 14.45 102.44 13.36L102.44 13.36L102.44 8.85L101.27 8.85L101.27 7.97L102.55 7.26L103.19 5.42L104.46 5.42L104.46 7.33L106.92 7.33L106.92 8.85L104.46 8.85L104.46 13.34Q104.46 13.95 104.78 14.25Q105.10 14.54 105.61 14.54ZM112.23 7.17L112.23 7.17Q113.98 7.17 114.99 8.21Q116.01 9.25 116.01 11.10L116.01 11.10L116.01 12.13L110.28 12.13Q110.31 13.31 110.94 13.96Q111.56 14.61 112.66 14.61L112.66 14.61Q113.50 14.61 114.17 14.44Q114.84 14.27 115.54 13.95L115.54 13.95L115.54 15.57Q114.90 15.87 114.22 16.02Q113.53 16.16 112.57 16.16L112.57 16.16Q111.30 16.16 110.32 15.67Q109.34 15.18 108.78 14.19Q108.23 13.20 108.23 11.73L108.23 11.73Q108.23 9.50 109.34 8.34Q110.44 7.17 112.23 7.17ZM112.23 8.66L112.23 8.66Q111.42 8.66 110.91 9.18Q110.41 9.70 110.33 10.72L110.33 10.72L114.06 10.72Q114.04 9.82 113.60 9.24Q113.16 8.66 112.23 8.66ZM123.94 13.49L123.94 13.49Q123.94 14.80 123.01 15.48Q122.07 16.16 120.33 16.16L120.33 16.16Q119.42 16.16 118.77 16.03Q118.12 15.90 117.51 15.63L117.51 15.63L117.51 13.92Q118.15 14.22 118.93 14.43Q119.70 14.64 120.39 14.64L120.39 14.64Q121.22 14.64 121.59 14.38Q121.96 14.13 121.96 13.70L121.96 13.70Q121.96 13.44 121.82 13.24Q121.67 13.04 121.25 12.80Q120.82 12.56 119.99 12.21L119.99 12.21Q119.16 11.89 118.61 11.54Q118.06 11.20 117.78 10.74Q117.50 10.27 117.50 9.54L117.50 9.54Q117.50 8.37 118.42 7.77Q119.34 7.17 120.87 7.17L120.87 7.17Q121.67 7.17 122.38 7.33Q123.10 7.49 123.82 7.81L123.82 7.81L123.18 9.30Q122.57 9.04 121.99 8.86Q121.42 8.69 120.81 8.69L120.81 8.69Q119.48 8.69 119.48 9.44L119.48 9.44Q119.48 9.71 119.65 9.90Q119.82 10.10 120.24 10.31Q120.66 10.53 121.45 10.83L121.45 10.83Q122.22 11.14 122.78 11.46Q123.34 11.79 123.64 12.27Q123.94 12.75 123.94 13.49ZM131.38 17.44L131.38 18.50L124.55 18.50L124.55 17.44L131.38 17.44ZM136.01 14.54L136.01 14.54Q136.38 14.54 136.74 14.47Q137.10 14.40 137.40 14.30L137.40 14.30L137.40 15.81Q137.08 15.95 136.57 16.06Q136.06 16.16 135.50 16.16L135.50 16.16Q134.76 16.16 134.15 15.91Q133.54 15.66 133.19 15.06Q132.84 14.45 132.84 13.36L132.84 13.36L132.84 8.85L131.67 8.85L131.67 7.97L132.95 7.26L133.59 5.42L134.86 5.42L134.86 7.33L137.32 7.33L137.32 8.85L134.86 8.85L134.86 13.34Q134.86 13.95 135.18 14.25Q135.50 14.54 136.01 14.54ZM139.14 3.84L141.16 3.84L141.16 6.72Q141.16 7.23 141.13 7.71Q141.10 8.19 141.06 8.46L141.06 8.46L141.16 8.46Q141.51 7.92 142.12 7.54Q142.73 7.17 143.70 7.17L143.70 7.17Q145.21 7.17 146.14 8.30Q147.08 9.44 147.08 11.65L147.08 11.65Q147.08 13.89 146.14 15.02Q145.19 16.16 143.66 16.16L143.66 16.16Q142.68 16.16 142.10 15.81Q141.51 15.46 141.16 14.99L141.16 14.99L141.02 14.99L140.65 16L139.14 16L139.14 3.84ZM143.13 8.80L143.13 8.80Q142.04 8.80 141.61 9.46Q141.18 10.11 141.16 11.47L141.16 11.47L141.16 11.65Q141.16 13.04 141.58 13.78Q142.01 14.51 143.16 14.51L143.16 14.51Q144.06 14.51 144.54 13.77Q145.02 13.02 145.02 11.63L145.02 11.63Q145.02 10.21 144.53 9.50Q144.04 8.80 143.13 8.80ZM148.50 11.62L148.50 11.62Q148.50 9.66 149.07 7.85Q149.64 6.03 150.86 4.58L150.86 4.58L152.57 4.58Q151.46 6.08 150.90 7.89Q150.34 9.70 150.34 11.60L150.34 11.60Q150.34 13.46 150.90 15.25Q151.46 17.04 152.55 18.53L152.55 18.53L150.86 18.53Q149.64 17.12 149.07 15.34Q148.50 13.55 148.50 11.62ZM154.54 4.58L157.78 4.58Q160.04 4.58 161.12 5.41Q162.20 6.24 162.20 7.94L162.20 7.94Q162.20 8.77 161.89 9.36Q161.58 9.95 161.08 10.34Q160.58 10.74 160.01 10.98L160.01 10.98L163.29 16L160.98 16L158.25 11.49L156.58 11.49L156.58 16L154.54 16L154.54 4.58ZM157.66 6.29L157.66 6.29L156.58 6.29L156.58 9.81L157.72 9.81Q158.98 9.81 159.55 9.35Q160.12 8.90 160.12 8L160.12 8Q160.12 7.07 159.52 6.68Q158.92 6.29 157.66 6.29ZM168.97 6.30L168.97 16L166.92 16L166.92 6.30L163.64 6.30L163.64 4.58L172.25 4.58L172.25 6.30L168.97 6.30ZM180.81 16L173.99 16L173.99 4.58L176.04 4.58L176.04 14.27L180.81 14.27L180.81 16ZM185.85 11.62L185.85 11.62Q185.85 13.55 185.28 15.34Q184.71 17.12 183.50 18.53L183.50 18.53L181.80 18.53Q182.89 17.04 183.46 15.25Q184.02 13.46 184.02 11.60L184.02 11.60Q184.02 9.70 183.46 7.89Q182.89 6.08 181.78 4.58L181.78 4.58L183.50 4.58Q184.71 6.03 185.28 7.85Q185.85 9.66 185.85 11.62Z" class="sprotty-block-name" style="fill:rgb(48, 48, 48);stroke:rgba(0, 0, 0, 0);"/><line x1="0" y1="20" x2="224.0155029296875" y2="20"/></g><g id="sprotty_ArchitectureBlockImpl$work.gates_tb(RTL)/ProcessBlockImpl$stimulus/GPortImpl$a_to_ArchitectureBlockImpl$work.gates_tb(RTL)/InstantiationBlockImpl$DUT/BPortImpl$a" class="sprotty-edge thick edge" style="fill:none;stroke:rgb(112, 112, 112);stroke-linejoin:round;stroke-width:3px;"><path d="M 92.3280029296875 72.69075012207031 L 112.3280029296875 72.69075012207031 "/></g><g id="sprotty_ArchitectureBlockImpl$work.gates_tb(RTL)/ProcessBlockImpl$stimulus/GPortImpl$b_to_ArchitectureBlockImpl$work.gates_tb(RTL)/InstantiationBlockImpl$DUT/BPortImpl$b" class="sprotty-edge thick edge" style="fill:none;stroke:rgb(112, 112, 112);stroke-linejoin:round;stroke-width:3px;"><path d="M 92.3280029296875 82.69075012207031 L 100.3280029296875 82.69075012207031 C 101.3280029296875 82.69075012207031 102.3280029296875 83.69075012207031 102.3280029296875 84.69075012207031 L 102.3280029296875 181.6396985054016 C 102.3280029296875 182.6396985054016 103.3280029296875 183.6396985054016 104.3280029296875 183.6396985054016 L 112.3280029296875 183.6396985054016 "/></g><g id="sprotty_ArchitectureBlockImpl$work.gates_tb(RTL)/ProcessBlockImpl$stimulus" transform="translate(15, 62.69075012207031)" class="statement"><rect x="0" y="0" rx="10" ry="5" width="77.3280029296875" height="30" class="sprotty-node" style="fill:rgb(245, 245, 245);stroke:rgb(112, 112, 112);"/><g id="sprotty_ArchitectureBlockImpl$work.gates_tb(RTL)/ProcessBlockImpl$stimulus/label" transform="translate(5, 8.83984375) translate(0, -0.15984344482421875)" class="sprotty-label process" style="cursor:default;fill:rgb(48, 48, 48);font-family:Arial, Helvetica, sans-serif;text-anchor:middle;"><path d="M7.20-2.51L7.20-2.51Q7.20-1.20 6.26-0.52Q5.33 0.16 3.58 0.16L3.58 0.16Q2.67 0.16 2.02 0.03Q1.38-0.10 0.77-0.37L0.77-0.37L0.77-2.08Q1.41-1.78 2.18-1.57Q2.96-1.36 3.65-1.36L3.65-1.36Q4.48-1.36 4.85-1.62Q5.22-1.87 5.22-2.30L5.22-2.30Q5.22-2.56 5.07-2.76Q4.93-2.96 4.50-3.20Q4.08-3.44 3.25-3.79L3.25-3.79Q2.42-4.11 1.86-4.46Q1.31-4.80 1.03-5.26Q0.75-5.73 0.75-6.46L0.75-6.46Q0.75-7.63 1.67-8.23Q2.59-8.83 4.13-8.83L4.13-8.83Q4.93-8.83 5.64-8.67Q6.35-8.51 7.07-8.19L7.07-8.19L6.43-6.70Q5.82-6.96 5.25-7.14Q4.67-7.31 4.06-7.31L4.06-7.31Q2.74-7.31 2.74-6.56L2.74-6.56Q2.74-6.29 2.90-6.10Q3.07-5.90 3.50-5.69Q3.92-5.47 4.70-5.17L4.70-5.17Q5.47-4.86 6.03-4.54Q6.59-4.21 6.90-3.73Q7.20-3.25 7.20-2.51ZM12.50-1.46L12.50-1.46Q12.86-1.46 13.22-1.53Q13.58-1.60 13.89-1.70L13.89-1.70L13.89-0.19Q13.57-0.05 13.06 0.06Q12.54 0.16 11.98 0.16L11.98 0.16Q11.25 0.16 10.64-0.09Q10.03-0.34 9.68-0.94Q9.33-1.55 9.33-2.64L9.33-2.64L9.33-7.15L8.16-7.15L8.16-8.03L9.44-8.74L10.08-10.58L11.34-10.58L11.34-8.67L13.81-8.67L13.81-7.15L11.34-7.15L11.34-2.66Q11.34-2.05 11.66-1.75Q11.98-1.46 12.50-1.46ZM16.64-12.02L16.64-12.02Q17.10-12.02 17.43-11.78Q17.76-11.55 17.76-10.96L17.76-10.96Q17.76-10.37 17.43-10.13Q17.10-9.89 16.64-9.89L16.64-9.89Q16.18-9.89 15.85-10.13Q15.52-10.37 15.52-10.96L15.52-10.96Q15.52-11.55 15.85-11.78Q16.18-12.02 16.64-12.02ZM15.63-8.67L17.65-8.67L17.65 0L15.63 0L15.63-8.67ZM30.16-8.83L30.16-8.83Q31.63-8.83 32.38-8.08Q33.12-7.33 33.12-5.65L33.12-5.65L33.12 0L31.10 0L31.10-5.26Q31.10-7.20 29.63-7.20L29.63-7.20Q28.58-7.20 28.13-6.51Q27.68-5.82 27.68-4.51L27.68-4.51L27.68 0L25.66 0L25.66-5.26Q25.66-7.20 24.18-7.20L24.18-7.20Q23.07-7.20 22.66-6.43Q22.24-5.66 22.24-4.24L22.24-4.24L22.24 0L20.22 0L20.22-8.67L21.78-8.67L22.06-7.54L22.18-7.54Q22.56-8.21 23.26-8.52Q23.95-8.83 24.70-8.83L24.70-8.83Q25.68-8.83 26.34-8.50Q27.01-8.18 27.36-7.49L27.36-7.49L27.52-7.49Q27.92-8.19 28.64-8.51Q29.36-8.83 30.16-8.83ZM41.33-8.67L43.34-8.67L43.34 0L41.76 0L41.49-1.12L41.39-1.12Q40.96-0.45 40.23-0.14Q39.50 0.16 38.69 0.16L38.69 0.16Q37.23 0.16 36.41-0.59Q35.58-1.34 35.58-3.01L35.58-3.01L35.58-8.67L37.60-8.67L37.60-3.41Q37.60-1.47 39.20-1.47L39.20-1.47Q40.42-1.47 40.87-2.23Q41.33-2.99 41.33-4.43L41.33-4.43L41.33-8.67ZM47.94-12.16L47.94 0L45.92 0L45.92-12.16L47.94-12.16ZM56.19-8.67L58.21-8.67L58.21 0L56.62 0L56.35-1.12L56.26-1.12Q55.82-0.45 55.10-0.14Q54.37 0.16 53.55 0.16L53.55 0.16Q52.10 0.16 51.27-0.59Q50.45-1.34 50.45-3.01L50.45-3.01L50.45-8.67L52.46-8.67L52.46-3.41Q52.46-1.47 54.06-1.47L54.06-1.47Q55.28-1.47 55.74-2.23Q56.19-2.99 56.19-4.43L56.19-4.43L56.19-8.67ZM66.69-2.51L66.69-2.51Q66.69-1.20 65.75-0.52Q64.82 0.16 63.07 0.16L63.07 0.16Q62.16 0.16 61.51 0.03Q60.86-0.10 60.26-0.37L60.26-0.37L60.26-2.08Q60.90-1.78 61.67-1.57Q62.45-1.36 63.14-1.36L63.14-1.36Q63.97-1.36 64.34-1.62Q64.70-1.87 64.70-2.30L64.70-2.30Q64.70-2.56 64.56-2.76Q64.42-2.96 63.99-3.20Q63.57-3.44 62.74-3.79L62.74-3.79Q61.90-4.11 61.35-4.46Q60.80-4.80 60.52-5.26Q60.24-5.73 60.24-6.46L60.24-6.46Q60.24-7.63 61.16-8.23Q62.08-8.83 63.62-8.83L63.62-8.83Q64.42-8.83 65.13-8.67Q65.84-8.51 66.56-8.19L66.56-8.19L65.92-6.70Q65.31-6.96 64.74-7.14Q64.16-7.31 63.55-7.31L63.55-7.31Q62.22-7.31 62.22-6.56L62.22-6.56Q62.22-6.29 62.39-6.10Q62.56-5.90 62.98-5.69Q63.41-5.47 64.19-5.17L64.19-5.17Q64.96-4.86 65.52-4.54Q66.08-4.21 66.38-3.73Q66.69-3.25 66.69-2.51Z" transform="translate(0, 12.32)"/><rect x="0" y="0.16" width="67.328" height="12.32" class="clickable" style="cursor:pointer;fill:rgba(0, 0, 0, 0);fill-opacity:0;stroke-width:0px;"/></g><g id="sprotty_ArchitectureBlockImpl$work.gates_tb(RTL)/ProcessBlockImpl$stimulus/GPortImpl$a" transform="translate(77.3280029296875, 10)" class="sprotty-hidden hidden" style="display:block;height:0px;width:0px;"/><g id="sprotty_ArchitectureBlockImpl$work.gates_tb(RTL)/ProcessBlockImpl$stimulus/GPortImpl$b" transform="translate(77.3280029296875, 20)" class="sprotty-hidden hidden" style="display:block;height:0px;width:0px;"/></g><g id="sprotty_ArchitectureBlockImpl$work.gates_tb(RTL)/InstantiationBlockImpl$DUT" transform="translate(112.3280029296875, 35)" class="instantiation"><g class="sprotty-block" style="fill:rgb(245, 245, 245);stroke:rgb(48, 48, 48);stroke-dasharray:0px;"><rect x="0" y="0" rx="1" ry="1" width="96.68799999999999" height="167.76019859313965"/><path d="M14.83 10.18L14.83 10.18Q14.83 13.07 13.22 14.54Q11.60 16 8.70 16L8.70 16L5.49 16L5.49 4.58L9.04 4.58Q10.80 4.58 12.10 5.22Q13.41 5.86 14.12 7.10Q14.83 8.34 14.83 10.18ZM12.69 10.24L12.69 10.24Q12.69 8.19 11.75 7.23Q10.82 6.27 9.04 6.27L9.04 6.27L7.54 6.27L7.54 14.29L8.77 14.29Q12.69 14.29 12.69 10.24ZM24.29 4.58L26.32 4.58L26.32 11.97Q26.32 13.15 25.82 14.10Q25.31 15.06 24.29 15.61Q23.26 16.16 21.70 16.16L21.70 16.16Q19.47 16.16 18.32 15Q17.17 13.84 17.17 11.94L17.17 11.94L17.17 4.58L19.22 4.58L19.22 11.73Q19.22 13.14 19.86 13.78Q20.50 14.42 21.76 14.42L21.76 14.42Q23.09 14.42 23.69 13.72Q24.29 13.02 24.29 11.71L24.29 11.71L24.29 4.58ZM33.31 6.30L33.31 16L31.26 16L31.26 6.30L27.98 6.30L27.98 4.58L36.59 4.58L36.59 6.30L33.31 6.30ZM42.02 8.38L42.02 8.38Q42.02 7.70 42.37 7.42Q42.72 7.14 43.23 7.14L43.23 7.14Q43.73 7.14 44.10 7.42Q44.46 7.70 44.46 8.38L44.46 8.38Q44.46 9.04 44.10 9.33Q43.73 9.62 43.23 9.62L43.23 9.62Q42.72 9.62 42.37 9.33Q42.02 9.04 42.02 8.38ZM42.02 14.98L42.02 14.98Q42.02 14.30 42.37 14.02Q42.72 13.74 43.23 13.74L43.23 13.74Q43.73 13.74 44.10 14.02Q44.46 14.30 44.46 14.98L44.46 14.98Q44.46 15.63 44.10 15.92Q43.73 16.21 43.23 16.21L43.23 16.21Q42.72 16.21 42.37 15.92Q42.02 15.63 42.02 14.98ZM53.84 7.17L53.84 7.17Q55.49 7.17 56.42 8.45L56.42 8.45L56.50 8.45L56.69 7.33L58.37 7.33L58.37 16.06Q58.37 17.92 57.32 18.88Q56.27 19.84 54.19 19.84L54.19 19.84Q53.26 19.84 52.48 19.72Q51.70 19.60 50.99 19.31L50.99 19.31L50.99 17.65Q52.48 18.32 54.32 18.32L54.32 18.32Q55.31 18.32 55.83 17.77Q56.35 17.22 56.35 16.16L56.35 16.16L56.35 15.94Q56.35 15.70 56.37 15.38Q56.38 15.06 56.42 14.86L56.42 14.86L56.35 14.86Q55.90 15.54 55.26 15.85Q54.61 16.16 53.79 16.16L53.79 16.16Q52.21 16.16 51.31 14.98Q50.42 13.79 50.42 11.68L50.42 11.68Q50.42 9.57 51.32 8.37Q52.22 7.17 53.84 7.17ZM54.37 8.82L54.37 8.82Q52.48 8.82 52.48 11.71L52.48 11.71Q52.48 14.56 54.40 14.56L54.40 14.56Q55.46 14.56 55.96 13.98Q56.46 13.39 56.46 12L56.46 12L56.46 11.70Q56.46 10.16 55.96 9.49Q55.46 8.82 54.37 8.82ZM64.40 7.17L64.40 7.17Q66.08 7.17 66.95 7.90Q67.82 8.64 67.82 10.18L67.82 10.18L67.82 16L66.40 16L66.00 14.80L65.94 14.80Q65.38 15.50 64.75 15.83Q64.13 16.16 63.06 16.16L63.06 16.16Q61.89 16.16 61.12 15.50Q60.35 14.85 60.35 13.47L60.35 13.47Q60.35 12.13 61.34 11.46Q62.32 10.78 64.32 10.70L64.32 10.70L65.82 10.66L65.82 10.22Q65.82 9.41 65.42 9.05Q65.02 8.69 64.30 8.69L64.30 8.69Q63.65 8.69 63.05 8.88Q62.45 9.07 61.86 9.33L61.86 9.33L61.22 7.92Q61.86 7.58 62.68 7.38Q63.50 7.17 64.40 7.17ZM65.82 12.64L65.82 11.90L64.77 11.94Q63.44 11.98 62.93 12.39Q62.42 12.80 62.42 13.49L62.42 13.49Q62.42 14.11 62.78 14.38Q63.14 14.64 63.73 14.64L63.73 14.64Q64.61 14.64 65.22 14.14Q65.82 13.63 65.82 12.64L65.82 12.64ZM73.71 14.54L73.71 14.54Q74.08 14.54 74.44 14.47Q74.80 14.40 75.10 14.30L75.10 14.30L75.10 15.81Q74.78 15.95 74.27 16.06Q73.76 16.16 73.20 16.16L73.20 16.16Q72.46 16.16 71.86 15.91Q71.25 15.66 70.90 15.06Q70.54 14.45 70.54 13.36L70.54 13.36L70.54 8.85L69.38 8.85L69.38 7.97L70.66 7.26L71.30 5.42L72.56 5.42L72.56 7.33L75.02 7.33L75.02 8.85L72.56 8.85L72.56 13.34Q72.56 13.95 72.88 14.25Q73.20 14.54 73.71 14.54ZM80.34 7.17L80.34 7.17Q82.08 7.17 83.10 8.21Q84.11 9.25 84.11 11.10L84.11 11.10L84.11 12.13L78.38 12.13Q78.42 13.31 79.04 13.96Q79.66 14.61 80.77 14.61L80.77 14.61Q81.60 14.61 82.27 14.44Q82.94 14.27 83.65 13.95L83.65 13.95L83.65 15.57Q83.01 15.87 82.32 16.02Q81.63 16.16 80.67 16.16L80.67 16.16Q79.41 16.16 78.42 15.67Q77.44 15.18 76.89 14.19Q76.34 13.20 76.34 11.73L76.34 11.73Q76.34 9.50 77.44 8.34Q78.54 7.17 80.34 7.17ZM80.34 8.66L80.34 8.66Q79.52 8.66 79.02 9.18Q78.51 9.70 78.43 10.72L78.43 10.72L82.16 10.72Q82.14 9.82 81.70 9.24Q81.26 8.66 80.34 8.66ZM92.05 13.49L92.05 13.49Q92.05 14.80 91.11 15.48Q90.18 16.16 88.43 16.16L88.43 16.16Q87.52 16.16 86.87 16.03Q86.22 15.90 85.62 15.63L85.62 15.63L85.62 13.92Q86.26 14.22 87.03 14.43Q87.81 14.64 88.50 14.64L88.50 14.64Q89.33 14.64 89.70 14.38Q90.06 14.13 90.06 13.70L90.06 13.70Q90.06 13.44 89.92 13.24Q89.78 13.04 89.35 12.80Q88.93 12.56 88.10 12.21L88.10 12.21Q87.26 11.89 86.71 11.54Q86.16 11.20 85.88 10.74Q85.60 10.27 85.60 9.54L85.60 9.54Q85.60 8.37 86.52 7.77Q87.44 7.17 88.98 7.17L88.98 7.17Q89.78 7.17 90.49 7.33Q91.20 7.49 91.92 7.81L91.92 7.81L91.28 9.30Q90.67 9.04 90.10 8.86Q89.52 8.69 88.91 8.69L88.91 8.69Q87.58 8.69 87.58 9.44L87.58 9.44Q87.58 9.71 87.75 9.90Q87.92 10.10 88.34 10.31Q88.77 10.53 89.55 10.83L89.55 10.83Q90.32 11.14 90.88 11.46Q91.44 11.79 91.74 12.27Q92.05 12.75 92.05 13.49Z" class="sprotty-block-name" style="fill:rgb(48, 48, 48);stroke:rgba(0, 0, 0, 0);"/><line x1="0" y1="20" x2="96.68799999999999" y2="20"/></g><g id="sprotty_ArchitectureBlockImpl$work.gates_tb(RTL)/InstantiationBlockImpl$DUT/BPortImpl$b" transform="translate(0, 148.6396985054016)" class="triangle"><path d="M 0,0 L 5,2.5 L 0,5 Z" transform="translate(-1.67, -2.5)" class="sprotty-port" style="fill:rgb(48, 48, 48);stroke:rgb(48, 48, 48);"/><g class="port sprotty-label" id="sprotty_ArchitectureBlockImpl$work.gates_tb(RTL)/InstantiationBlockImpl$DUT/BPortImpl$b/label" transform="translate(3, -7.120500087738037) translate(0, -0.13300000131130219)" style="cursor:default;fill:rgb(48, 48, 48);font-family:Arial, Helvetica, sans-serif;text-anchor:middle;"><path d="M4.51 0.13L4.51 0.13Q3.67 0.13 3.14-0.17Q2.61-0.48 2.30-0.90L2.30-0.90L2.21-0.90L1.97 0L1.13 0L1.13-10.11L2.30-10.11L2.30-7.65Q2.30-7.20 2.28-6.80Q2.26-6.41 2.23-6.18L2.23-6.18L2.30-6.18Q2.61-6.64 3.14-6.94Q3.67-7.25 4.51-7.25L4.51-7.25Q5.84-7.25 6.64-6.32Q7.45-5.40 7.45-3.56L7.45-3.56Q7.45-1.73 6.64-0.80Q5.83 0.13 4.51 0.13ZM4.34-0.84L4.34-0.84Q5.29-0.84 5.77-1.54Q6.24-2.25 6.24-3.58L6.24-3.58Q6.24-6.28 4.31-6.28L4.31-6.28Q3.18-6.28 2.74-5.63Q2.30-4.97 2.30-3.60L2.30-3.60L2.30-3.55Q2.30-2.23 2.73-1.54Q3.17-0.84 4.34-0.84Z" transform="translate(4, 12.241)"/><rect x="0" y="0.133" width="16.1795" height="14.241" class="clickable" style="cursor:pointer;fill:rgba(0, 0, 0, 0);fill-opacity:0;stroke-width:0px;"/></g></g><g id="sprotty_ArchitectureBlockImpl$work.gates_tb(RTL)/InstantiationBlockImpl$DUT/BPortImpl$a" transform="translate(0, 37.69075012207031)" class="triangle"><path d="M 0,0 L 5,2.5 L 0,5 Z" transform="translate(-1.67, -2.5)" class="sprotty-port" style="fill:rgb(48, 48, 48);stroke:rgb(48, 48, 48);"/><g class="port sprotty-label" id="sprotty_ArchitectureBlockImpl$work.gates_tb(RTL)/InstantiationBlockImpl$DUT/BPortImpl$a/label" transform="translate(3, -5.6907501220703125) translate(0, -0.13300000131130219)" style="cursor:default;fill:rgb(48, 48, 48);font-family:Arial, Helvetica, sans-serif;text-anchor:middle;"><path d="M2.86 0.13L2.86 0.13Q1.89 0.13 1.25-0.38Q0.61-0.89 0.61-1.98L0.61-1.98Q0.61-3.05 1.45-3.62Q2.29-4.20 4.03-4.26L4.03-4.26L5.24-4.30L5.24-4.72Q5.24-5.61 4.85-5.96Q4.47-6.30 3.76-6.30L3.76-6.30Q3.21-6.30 2.70-6.14Q2.19-5.97 1.76-5.76L1.76-5.76L1.40-6.64Q1.86-6.89 2.50-7.07Q3.14-7.25 3.83-7.25L3.83-7.25Q5.13-7.25 5.76-6.68Q6.38-6.10 6.38-4.85L6.38-4.85L6.38 0L5.53 0L5.31-1.01L5.25-1.01Q4.79-0.43 4.28-0.15Q3.76 0.13 2.86 0.13ZM3.13-0.81L3.13-0.81Q4.03-0.81 4.63-1.31Q5.23-1.81 5.23-2.85L5.23-2.85L5.23-3.48L4.18-3.44Q2.85-3.39 2.33-3.02Q1.82-2.65 1.82-1.97L1.82-1.97Q1.82-1.37 2.19-1.09Q2.55-0.81 3.13-0.81Z" transform="translate(4, 9.3815)"/><rect x="0" y="0.133" width="15.461300000000001" height="11.3815" class="clickable" style="cursor:pointer;fill:rgba(0, 0, 0, 0);fill-opacity:0;stroke-width:0px;"/></g></g><g id="sprotty_ArchitectureBlockImpl$work.gates_tb(RTL)/InstantiationBlockImpl$DUT/BPortImpl$y1" transform="translate(96.6875, 40.34409999847412)" class="triangle"><path d="M 0,0 L 5,2.5 L 0,5 Z" transform="translate(-1.67, -2.5)" class="sprotty-port" style="fill:rgb(48, 48, 48);stroke:rgb(48, 48, 48);"/><g class="port sprotty-label" id="sprotty_ArchitectureBlockImpl$work.gates_tb(RTL)/InstantiationBlockImpl$DUT/BPortImpl$y1/label" transform="translate(-25.390600204467773, -8.344099998474121) translate(0, -3.191999912261963)" style="cursor:default;fill:rgb(48, 48, 48);font-family:Arial, Helvetica, sans-serif;text-anchor:middle;"><path d="M1.12 3.19L1.12 3.19Q0.80 3.19 0.56 3.16Q0.32 3.13 0.15 3.09L0.15 3.09L0.15 2.15Q0.29 2.18 0.50 2.21Q0.70 2.23 0.93 2.23L0.93 2.23Q1.54 2.23 1.92 1.89Q2.29 1.54 2.51 0.97L2.51 0.97L2.89 0.03L0.01-7.13L1.26-7.13L2.81-3.07Q3.01-2.54 3.17-2.05Q3.33-1.57 3.40-1.13L3.40-1.13L3.46-1.13Q3.54-1.46 3.70-2.00Q3.87-2.54 4.07-3.09L4.07-3.09L5.52-7.13L6.78-7.13L3.71 0.98Q3.34 2.00 2.75 2.59Q2.15 3.19 1.12 3.19ZM11.50 0L10.36 0L10.36-6.64Q10.36-7.21 10.37-7.55Q10.39-7.90 10.41-8.27L10.41-8.27Q10.20-8.07 10.03-7.92Q9.86-7.77 9.59-7.54L9.59-7.54L8.58-6.72L7.97-7.50L10.53-9.50L11.50-9.50L11.50 0Z" transform="translate(4, 14.6882)"/><rect x="0" y="3.192" width="22.3906" height="16.688200000000002" class="clickable" style="cursor:pointer;fill:rgba(0, 0, 0, 0);fill-opacity:0;stroke-width:0px;"/></g></g><g id="sprotty_ArchitectureBlockImpl$work.gates_tb(RTL)/InstantiationBlockImpl$DUT/BPortImpl$y2" transform="translate(96.6875, 67.09879970550537)" class="triangle"><path d="M 0,0 L 5,2.5 L 0,5 Z" transform="translate(-1.67, -2.5)" class="sprotty-port" style="fill:rgb(48, 48, 48);stroke:rgb(48, 48, 48);"/><g class="port sprotty-label" id="sprotty_ArchitectureBlockImpl$work.gates_tb(RTL)/InstantiationBlockImpl$DUT/BPortImpl$y2/label" transform="translate(-25.390600204467773, -8.410599708557129) translate(0, -3.191999912261963)" style="cursor:default;fill:rgb(48, 48, 48);font-family:Arial, Helvetica, sans-serif;text-anchor:middle;"><path d="M1.12 3.19L1.12 3.19Q0.80 3.19 0.56 3.16Q0.32 3.13 0.15 3.09L0.15 3.09L0.15 2.15Q0.29 2.18 0.50 2.21Q0.70 2.23 0.93 2.23L0.93 2.23Q1.54 2.23 1.92 1.89Q2.29 1.54 2.51 0.97L2.51 0.97L2.89 0.03L0.01-7.13L1.26-7.13L2.81-3.07Q3.01-2.54 3.17-2.05Q3.33-1.57 3.40-1.13L3.40-1.13L3.46-1.13Q3.54-1.46 3.70-2.00Q3.87-2.54 4.07-3.09L4.07-3.09L5.52-7.13L6.78-7.13L3.71 0.98Q3.34 2.00 2.75 2.59Q2.15 3.19 1.12 3.19ZM13.70 0L7.42 0L7.42-0.97L9.91-3.48Q10.63-4.20 11.12-4.76Q11.61-5.32 11.86-5.86Q12.12-6.40 12.12-7.04L12.12-7.04Q12.12-7.82 11.65-8.23Q11.19-8.63 10.44-8.63L10.44-8.63Q9.75-8.63 9.22-8.39Q8.70-8.15 8.15-7.73L8.15-7.73L7.53-8.51Q8.09-8.98 8.81-9.30Q9.54-9.63 10.44-9.63L10.44-9.63Q11.77-9.63 12.54-8.96Q13.31-8.29 13.31-7.10L13.31-7.10Q13.31-6.36 13.01-5.71Q12.70-5.07 12.16-4.43Q11.61-3.79 10.88-3.07L10.88-3.07L8.90-1.12L8.90-1.06L13.70-1.06L13.70 0Z" transform="translate(4, 14.821200000000001)"/><rect x="0" y="3.192" width="22.3906" height="16.8212" class="clickable" style="cursor:pointer;fill:rgba(0, 0, 0, 0);fill-opacity:0;stroke-width:0px;"/></g></g><g id="sprotty_ArchitectureBlockImpl$work.gates_tb(RTL)/InstantiationBlockImpl$DUT/BPortImpl$y3" transform="translate(96.6875, 93.91999912261963)" class="triangle"><path d="M 0,0 L 5,2.5 L 0,5 Z" transform="translate(-1.67, -2.5)" class="sprotty-port" style="fill:rgb(48, 48, 48);stroke:rgb(48, 48, 48);"/><g class="port sprotty-label" id="sprotty_ArchitectureBlockImpl$work.gates_tb(RTL)/InstantiationBlockImpl$DUT/BPortImpl$y3/label" transform="translate(-25.390600204467773, -8.410599708557129) translate(0, -3.191999912261963)" style="cursor:default;fill:rgb(48, 48, 48);font-family:Arial, Helvetica, sans-serif;text-anchor:middle;"><path d="M1.12 3.19L1.12 3.19Q0.80 3.19 0.56 3.16Q0.32 3.13 0.15 3.09L0.15 3.09L0.15 2.15Q0.29 2.18 0.50 2.21Q0.70 2.23 0.93 2.23L0.93 2.23Q1.54 2.23 1.92 1.89Q2.29 1.54 2.51 0.97L2.51 0.97L2.89 0.03L0.01-7.13L1.26-7.13L2.81-3.07Q3.01-2.54 3.17-2.05Q3.33-1.57 3.40-1.13L3.40-1.13L3.46-1.13Q3.54-1.46 3.70-2.00Q3.87-2.54 4.07-3.09L4.07-3.09L5.52-7.13L6.78-7.13L3.71 0.98Q3.34 2.00 2.75 2.59Q2.15 3.19 1.12 3.19ZM9.99 0.13L9.99 0.13Q9.24 0.13 8.61 0.02Q7.97-0.09 7.38-0.39L7.38-0.39L7.38-1.48Q7.98-1.18 8.67-1.02Q9.36-0.85 10.00-0.85L10.00-0.85Q11.28-0.85 11.84-1.35Q12.41-1.85 12.41-2.73L12.41-2.73Q12.41-3.62 11.71-4.01Q11.01-4.40 9.75-4.40L9.75-4.40L8.83-4.40L8.83-5.40L9.76-5.40Q10.93-5.40 11.54-5.89Q12.14-6.38 12.14-7.20L12.14-7.20Q12.14-7.89 11.68-8.27Q11.21-8.65 10.41-8.65L10.41-8.65Q9.64-8.65 9.10-8.42Q8.55-8.19 8.02-7.85L8.02-7.85L7.43-8.65Q7.94-9.04 8.69-9.34Q9.44-9.63 10.40-9.63L10.40-9.63Q11.89-9.63 12.62-8.96Q13.34-8.30 13.34-7.28L13.34-7.28Q13.34-6.32 12.81-5.75Q12.28-5.19 11.37-5.00L11.37-5.00L11.37-4.95Q12.52-4.81 13.07-4.23Q13.63-3.64 13.63-2.70L13.63-2.70Q13.63-1.88 13.25-1.23Q12.86-0.59 12.06-0.23Q11.25 0.13 9.99 0.13Z" transform="translate(4, 14.821200000000001)"/><rect x="0" y="3.192" width="22.3906" height="16.8212" class="clickable" style="cursor:pointer;fill:rgba(0, 0, 0, 0);fill-opacity:0;stroke-width:0px;"/></g></g><g id="sprotty_ArchitectureBlockImpl$work.gates_tb(RTL)/InstantiationBlockImpl$DUT/BPortImpl$y4" transform="translate(96.6875, 120.70129871368408)" class="triangle"><path d="M 0,0 L 5,2.5 L 0,5 Z" transform="translate(-1.67, -2.5)" class="sprotty-port" style="fill:rgb(48, 48, 48);stroke:rgb(48, 48, 48);"/><g class="port sprotty-label" id="sprotty_ArchitectureBlockImpl$work.gates_tb(RTL)/InstantiationBlockImpl$DUT/BPortImpl$y4/label" transform="translate(-25.390600204467773, -8.370699882507324) translate(0, -3.191999912261963)" style="cursor:default;fill:rgb(48, 48, 48);font-family:Arial, Helvetica, sans-serif;text-anchor:middle;"><path d="M1.12 3.19L1.12 3.19Q0.80 3.19 0.56 3.16Q0.32 3.13 0.15 3.09L0.15 3.09L0.15 2.15Q0.29 2.18 0.50 2.21Q0.70 2.23 0.93 2.23L0.93 2.23Q1.54 2.23 1.92 1.89Q2.29 1.54 2.51 0.97L2.51 0.97L2.89 0.03L0.01-7.13L1.26-7.13L2.81-3.07Q3.01-2.54 3.17-2.05Q3.33-1.57 3.40-1.13L3.40-1.13L3.46-1.13Q3.54-1.46 3.70-2.00Q3.87-2.54 4.07-3.09L4.07-3.09L5.52-7.13L6.78-7.13L3.71 0.98Q3.34 2.00 2.75 2.59Q2.15 3.19 1.12 3.19ZM12.74 0L11.61 0L11.61-2.15L7.06-2.15L7.06-3.15L11.53-9.55L12.74-9.55L12.74-3.21L14.12-3.21L14.12-2.15L12.74-2.15L12.74 0ZM11.05-7.26L8.21-3.21L11.61-3.21L11.61-6.20Q11.61-6.89 11.63-7.37Q11.65-7.86 11.68-8.30L11.68-8.30L11.62-8.30Q11.52-8.05 11.36-7.75Q11.20-7.46 11.05-7.26L11.05-7.26Z" transform="translate(4, 14.7414)"/><rect x="0" y="3.192" width="22.3906" height="16.7414" class="clickable" style="cursor:pointer;fill:rgba(0, 0, 0, 0);fill-opacity:0;stroke-width:0px;"/></g></g><g id="sprotty_ArchitectureBlockImpl$work.gates_tb(RTL)/InstantiationBlockImpl$DUT/BPortImpl$y5" transform="translate(96.6875, 147.41609859466553)" class="triangle"><path d="M 0,0 L 5,2.5 L 0,5 Z" transform="translate(-1.67, -2.5)" class="sprotty-port" style="fill:rgb(48, 48, 48);stroke:rgb(48, 48, 48);"/><g class="port sprotty-label" id="sprotty_ArchitectureBlockImpl$work.gates_tb(RTL)/InstantiationBlockImpl$DUT/BPortImpl$y5/label" transform="translate(-25.390600204467773, -8.344099998474121) translate(0, -3.191999912261963)" style="cursor:default;fill:rgb(48, 48, 48);font-family:Arial, Helvetica, sans-serif;text-anchor:middle;"><path d="M1.12 3.19L1.12 3.19Q0.80 3.19 0.56 3.16Q0.32 3.13 0.15 3.09L0.15 3.09L0.15 2.15Q0.29 2.18 0.50 2.21Q0.70 2.23 0.93 2.23L0.93 2.23Q1.54 2.23 1.92 1.89Q2.29 1.54 2.51 0.97L2.51 0.97L2.89 0.03L0.01-7.13L1.26-7.13L2.81-3.07Q3.01-2.54 3.17-2.05Q3.33-1.57 3.40-1.13L3.40-1.13L3.46-1.13Q3.54-1.46 3.70-2.00Q3.87-2.54 4.07-3.09L4.07-3.09L5.52-7.13L6.78-7.13L3.71 0.98Q3.34 2.00 2.75 2.59Q2.15 3.19 1.12 3.19ZM10.08 0.13L10.08 0.13Q9.35 0.13 8.70 0Q8.06-0.13 7.62-0.39L7.62-0.39L7.62-1.49Q8.10-1.20 8.78-1.03Q9.47-0.86 10.09-0.86L10.09-0.86Q11.15-0.86 11.79-1.36Q12.44-1.86 12.44-2.91L12.44-2.91Q12.44-3.84 11.86-4.34Q11.29-4.84 10.05-4.84L10.05-4.84Q9.68-4.84 9.20-4.77Q8.72-4.71 8.43-4.64L8.43-4.64L7.85-5.01L8.21-9.50L12.97-9.50L12.97-8.43L9.20-8.43L8.98-5.68Q9.20-5.72 9.59-5.77Q9.98-5.83 10.44-5.83L10.44-5.83Q11.90-5.83 12.77-5.09Q13.63-4.36 13.63-3.03L13.63-3.03Q13.63-1.56 12.69-0.71Q11.76 0.13 10.08 0.13Z" transform="translate(4, 14.6882)"/><rect x="0" y="3.192" width="22.3906" height="16.688200000000002" class="clickable" style="cursor:pointer;fill:rgba(0, 0, 0, 0);fill-opacity:0;stroke-width:0px;"/></g></g></g></g></g></svg>