<svg xmlns="http://www.w3.org/2000/svg" id="sprotty_mux4" class="sprotty-graph sprotty-block-diagram blockdiagram" style="font-family:&quot;Helvetica Neue&quot;, Helvetica, Arial, sans-serif;line-height:18px;perspective-origin:0px 0px;transform-origin:0px 0px;z-index:0;" version="1.1" viewBox="9.5 12 409.8454113769531 290.75360107421875"><g transform="scale(1) translate(0,0)"><g id="sprotty_ArchitectureBlockImpl$work.mux4(struct)" transform="translate(12, 12)" class="architecture"><g class="sprotty-block" style="fill:rgb(245, 245, 245);stroke:rgb(48, 48, 48);stroke-dasharray:0px;"><rect x="0" y="0" rx="1" ry="1" width="403.0154113769531" height="290.75360107421875"/><path d="M139.99 16L137.75 16L136.79 12.27Q136.71 11.97 136.60 11.51Q136.48 11.06 136.36 10.56Q136.24 10.06 136.15 9.65Q136.05 9.23 136.00 9.01L136.00 9.01L135.94 9.01Q135.89 9.23 135.80 9.65Q135.70 10.06 135.59 10.57Q135.48 11.07 135.36 11.53Q135.24 11.98 135.16 12.29L135.16 12.29L134.15 16L131.94 16L129.51 7.31L131.54 7.31L132.61 11.46Q132.72 11.89 132.83 12.41Q132.93 12.93 133.00 13.42Q133.08 13.90 133.12 14.21L133.12 14.21L133.19 14.21Q133.22 13.92 133.31 13.42Q133.40 12.93 133.49 12.46Q133.59 11.98 133.65 11.74L133.65 11.74L134.90 7.31L137.11 7.31L138.31 11.74Q138.37 12.03 138.48 12.50Q138.58 12.96 138.66 13.43Q138.74 13.90 138.76 14.19L138.76 14.19L138.82 14.19Q138.85 13.94 138.93 13.46Q139.01 12.98 139.12 12.43Q139.24 11.89 139.36 11.46L139.36 11.46L140.45 7.31L142.45 7.31L139.99 16ZM151.67 11.65L151.67 11.65Q151.67 13.81 150.55 14.98Q149.43 16.16 147.51 16.16L147.51 16.16Q146.32 16.16 145.40 15.63Q144.47 15.10 143.94 14.10Q143.41 13.09 143.41 11.65L143.41 11.65Q143.41 9.49 144.52 8.33Q145.64 7.17 147.56 7.17L147.56 7.17Q148.76 7.17 149.68 7.69Q150.61 8.21 151.14 9.21Q151.67 10.21 151.67 11.65ZM145.48 11.65L145.48 11.65Q145.48 13.02 145.96 13.78Q146.45 14.53 147.54 14.53L147.54 14.53Q148.63 14.53 149.12 13.78Q149.60 13.02 149.60 11.65L149.60 11.65Q149.60 10.27 149.12 9.54Q148.63 8.80 147.52 8.80L147.52 8.80Q146.45 8.80 145.96 9.54Q145.48 10.27 145.48 11.65ZM158.29 7.17L158.29 7.17Q158.50 7.17 158.75 7.18Q159.00 7.20 159.17 7.25L159.17 7.25L159.00 9.12Q158.84 9.09 158.61 9.06Q158.39 9.04 158.21 9.04L158.21 9.04Q157.57 9.04 157.01 9.30Q156.45 9.57 156.11 10.12Q155.76 10.67 155.76 11.50L155.76 11.50L155.76 16L153.75 16L153.75 7.33L155.30 7.33L155.59 8.83L155.68 8.83Q156.07 8.14 156.74 7.66Q157.41 7.17 158.29 7.17ZM160.77 3.84L162.77 3.84L162.77 9.62Q162.77 10.03 162.74 10.50Q162.71 10.96 162.68 11.38L162.68 11.38L162.72 11.38Q162.92 11.09 163.20 10.72Q163.49 10.35 163.75 10.06L163.75 10.06L166.31 7.33L168.60 7.33L165.12 11.07L168.82 16L166.47 16L163.78 12.29L162.77 13.12L162.77 16L160.77 16L160.77 3.84ZM169.89 14.98L169.89 14.98Q169.89 14.30 170.24 14.02Q170.60 13.74 171.11 13.74L171.11 13.74Q171.60 13.74 171.97 14.02Q172.34 14.30 172.34 14.98L172.34 14.98Q172.34 15.63 171.97 15.92Q171.60 16.21 171.11 16.21L171.11 16.21Q170.60 16.21 170.24 15.92Q169.89 15.63 169.89 14.98ZM184.58 7.17L184.58 7.17Q186.05 7.17 186.80 7.92Q187.54 8.67 187.54 10.35L187.54 10.35L187.54 16L185.52 16L185.52 10.74Q185.52 8.80 184.05 8.80L184.05 8.80Q183.00 8.80 182.55 9.49Q182.10 10.18 182.10 11.49L182.10 11.49L182.10 16L180.08 16L180.08 10.74Q180.08 8.80 178.60 8.80L178.60 8.80Q177.49 8.80 177.08 9.57Q176.66 10.34 176.66 11.76L176.66 11.76L176.66 16L174.64 16L174.64 7.33L176.20 7.33L176.48 8.46L176.60 8.46Q176.98 7.79 177.68 7.48Q178.37 7.17 179.12 7.17L179.12 7.17Q180.10 7.17 180.76 7.50Q181.43 7.82 181.78 8.51L181.78 8.51L181.94 8.51Q182.34 7.81 183.06 7.49Q183.78 7.17 184.58 7.17ZM195.75 7.33L197.76 7.33L197.76 16L196.18 16L195.91 14.88L195.81 14.88Q195.38 15.55 194.65 15.86Q193.92 16.16 193.11 16.16L193.11 16.16Q191.65 16.16 190.83 15.41Q190.00 14.66 190.00 12.99L190.00 12.99L190.00 7.33L192.02 7.33L192.02 12.59Q192.02 14.53 193.62 14.53L193.62 14.53Q194.84 14.53 195.29 13.77Q195.75 13.01 195.75 11.57L195.75 11.57L195.75 7.33ZM199.20 16L202.21 11.57L199.35 7.33L201.64 7.33L203.52 10.27L205.41 7.33L207.70 7.33L204.80 11.57L207.84 16L205.56 16L203.52 12.85L201.49 16L199.20 16ZM216.87 11.90L216.87 13.55L215.38 13.55L215.38 16L213.40 16L213.40 13.55L208.31 13.55L208.31 12.05L213.44 4.54L215.38 4.54L215.38 11.90L216.87 11.90ZM210.15 11.90L213.40 11.90L213.40 9.34Q213.40 8.91 213.41 8.42Q213.43 7.92 213.45 7.50Q213.48 7.07 213.49 6.85L213.49 6.85L213.43 6.85Q213.14 7.52 212.74 8.10L212.74 8.10L210.15 11.90ZM217.80 11.62L217.80 11.62Q217.80 9.66 218.36 7.85Q218.93 6.03 220.15 4.58L220.15 4.58L221.86 4.58Q220.76 6.08 220.20 7.89Q219.64 9.70 219.64 11.60L219.64 11.60Q219.64 13.46 220.20 15.25Q220.76 17.04 221.84 18.53L221.84 18.53L220.15 18.53Q218.93 17.12 218.36 15.34Q217.80 13.55 217.80 11.62ZM229.54 13.49L229.54 13.49Q229.54 14.80 228.60 15.48Q227.67 16.16 225.92 16.16L225.92 16.16Q225.01 16.16 224.36 16.03Q223.72 15.90 223.11 15.63L223.11 15.63L223.11 13.92Q223.75 14.22 224.52 14.43Q225.30 14.64 225.99 14.64L225.99 14.64Q226.82 14.64 227.19 14.38Q227.56 14.13 227.56 13.70L227.56 13.70Q227.56 13.44 227.41 13.24Q227.27 13.04 226.84 12.80Q226.42 12.56 225.59 12.21L225.59 12.21Q224.76 11.89 224.20 11.54Q223.65 11.20 223.37 10.74Q223.09 10.27 223.09 9.54L223.09 9.54Q223.09 8.37 224.01 7.77Q224.93 7.17 226.47 7.17L226.47 7.17Q227.27 7.17 227.98 7.33Q228.69 7.49 229.41 7.81L229.41 7.81L228.77 9.30Q228.16 9.04 227.59 8.86Q227.01 8.69 226.40 8.69L226.40 8.69Q225.08 8.69 225.08 9.44L225.08 9.44Q225.08 9.71 225.24 9.90Q225.41 10.10 225.84 10.31Q226.26 10.53 227.04 10.83L227.04 10.83Q227.81 11.14 228.37 11.46Q228.93 11.79 229.24 12.27Q229.54 12.75 229.54 13.49ZM234.84 14.54L234.84 14.54Q235.20 14.54 235.56 14.47Q235.92 14.40 236.23 14.30L236.23 14.30L236.23 15.81Q235.91 15.95 235.40 16.06Q234.88 16.16 234.32 16.16L234.32 16.16Q233.59 16.16 232.98 15.91Q232.37 15.66 232.02 15.06Q231.67 14.45 231.67 13.36L231.67 13.36L231.67 8.85L230.50 8.85L230.50 7.97L231.78 7.26L232.42 5.42L233.68 5.42L233.68 7.33L236.15 7.33L236.15 8.85L233.68 8.85L233.68 13.34Q233.68 13.95 234.00 14.25Q234.32 14.54 234.84 14.54ZM242.52 7.17L242.52 7.17Q242.72 7.17 242.97 7.18Q243.22 7.20 243.40 7.25L243.40 7.25L243.22 9.12Q243.06 9.09 242.84 9.06Q242.61 9.04 242.44 9.04L242.44 9.04Q241.80 9.04 241.24 9.30Q240.68 9.57 240.33 10.12Q239.99 10.67 239.99 11.50L239.99 11.50L239.99 16L237.97 16L237.97 7.33L239.52 7.33L239.81 8.83L239.91 8.83Q240.29 8.14 240.96 7.66Q241.64 7.17 242.52 7.17ZM250.68 7.33L252.69 7.33L252.69 16L251.11 16L250.84 14.88L250.74 14.88Q250.31 15.55 249.58 15.86Q248.85 16.16 248.04 16.16L248.04 16.16Q246.58 16.16 245.76 15.41Q244.93 14.66 244.93 12.99L244.93 12.99L244.93 7.33L246.95 7.33L246.95 12.59Q246.95 14.53 248.55 14.53L248.55 14.53Q249.76 14.53 250.22 13.77Q250.68 13.01 250.68 11.57L250.68 11.57L250.68 7.33ZM258.77 16.16L258.77 16.16Q256.90 16.16 255.83 15.09Q254.76 14.02 254.76 11.71L254.76 11.71Q254.76 10.11 255.29 9.11Q255.83 8.11 256.77 7.64Q257.72 7.17 258.93 7.17L258.93 7.17Q259.75 7.17 260.39 7.33Q261.03 7.49 261.48 7.71L261.48 7.71L260.88 9.30Q260.39 9.10 259.89 8.97Q259.40 8.83 258.93 8.83L258.93 8.83Q256.82 8.83 256.82 11.70L256.82 11.70Q256.82 13.09 257.36 13.79Q257.89 14.50 258.90 14.50L258.90 14.50Q259.62 14.50 260.18 14.32Q260.74 14.14 261.25 13.84L261.25 13.84L261.25 15.58Q260.76 15.87 260.19 16.02Q259.62 16.16 258.77 16.16ZM266.64 14.54L266.64 14.54Q267.01 14.54 267.37 14.47Q267.73 14.40 268.04 14.30L268.04 14.30L268.04 15.81Q267.72 15.95 267.20 16.06Q266.69 16.16 266.13 16.16L266.13 16.16Q265.40 16.16 264.79 15.91Q264.18 15.66 263.83 15.06Q263.48 14.45 263.48 13.36L263.48 13.36L263.48 8.85L262.31 8.85L262.31 7.97L263.59 7.26L264.23 5.42L265.49 5.42L265.49 7.33L267.96 7.33L267.96 8.85L265.49 8.85L265.49 13.34Q265.49 13.95 265.81 14.25Q266.13 14.54 266.64 14.54ZM273.03 11.62L273.03 11.62Q273.03 13.55 272.46 15.34Q271.89 17.12 270.68 18.53L270.68 18.53L268.98 18.53Q270.07 17.04 270.64 15.25Q271.20 13.46 271.20 11.60L271.20 11.60Q271.20 9.70 270.64 7.89Q270.07 6.08 268.96 4.58L268.96 4.58L270.68 4.58Q271.89 6.03 272.46 7.85Q273.03 9.66 273.03 11.62Z" class="sprotty-block-name" style="fill:rgb(48, 48, 48);stroke:rgba(0, 0, 0, 0);"/><line x1="0" y1="20" x2="403.0154113769531" y2="20"/></g><g id="sprotty_ArchitectureBlockImpl$work.mux4(struct)/GPortImpl$d0_to_ArchitectureBlockImpl$work.mux4(struct)/InstantiationBlockImpl$lowmux/BPortImpl$d0" class="sprotty-edge thick edge" style="fill:none;stroke:rgb(112, 112, 112);stroke-linejoin:round;stroke-width:3px;"><path d="M 0 74.12050008773804 L 73.73046112060547 74.12050008773804 "/></g><g id="sprotty_ArchitectureBlockImpl$work.mux4(struct)/GPortImpl$d1_to_ArchitectureBlockImpl$work.mux4(struct)/InstantiationBlockImpl$lowmux/BPortImpl$d1" class="sprotty-edge thick edge" style="fill:none;stroke:rgb(112, 112, 112);stroke-linejoin:round;stroke-width:3px;"><path d="M 0 101.36150026321411 L 49.787099838256836 101.36150026321411 C 50.787099838256836 101.36150026321411 51.787099838256836 100.36150026321411 51.787099838256836 99.36150026321411 L 51.787099838256836 99.36150026321411 C 51.787099838256836 98.86150026321411 52.787099838256836 98.36150026321411 53.787099838256836 98.36150026321411 L 73.73046112060547 98.36150026321411 "/></g><g id="sprotty_ArchitectureBlockImpl$work.mux4(struct)/GPortImpl$d2_to_ArchitectureBlockImpl$work.mux4(struct)/InstantiationBlockImpl$highmux/BPortImpl$d0" class="sprotty-edge thick edge" style="fill:none;stroke:rgb(112, 112, 112);stroke-linejoin:round;stroke-width:3px;"><path d="M 0 197.9973006248474 L 71.78710174560547 197.9973006248474 "/></g><g id="sprotty_ArchitectureBlockImpl$work.mux4(struct)/GPortImpl$d3_to_ArchitectureBlockImpl$work.mux4(struct)/InstantiationBlockImpl$highmux/BPortImpl$d1" class="sprotty-edge thick edge" style="fill:none;stroke:rgb(112, 112, 112);stroke-linejoin:round;stroke-width:3px;"><path d="M 0 225.2383008003235 L 59.787099838256836 225.2383008003235 C 60.787099838256836 225.2383008003235 61.787099838256836 224.2383008003235 61.787099838256836 223.2383008003235 L 61.787099838256836 223.2383008003235 C 61.787099838256836 222.7383008003235 62.787099838256836 222.2383008003235 63.787099838256836 222.2383008003235 L 71.78710174560547 222.2383008003235 "/></g><g id="sprotty_ArchitectureBlockImpl$work.mux4(struct)/GPortImpl$s_to_ArchitectureBlockImpl$work.mux4(struct)/InstantiationBlockImpl$lowmux/BPortImpl$s" class="sprotty-edge thick edge" style="fill:none;stroke:rgb(112, 112, 112);stroke-linejoin:round;stroke-width:3px;"><path d="M 0 252.47930097579956 L 49.787099838256836 252.47930097579956 C 50.787099838256836 252.47930097579956 51.787099838256836 251.47930097579956 51.787099838256836 250.47930097579956 L 51.787099838256836 123.17940044403076 C 51.787099838256836 122.17940044403076 52.787099838256836 121.17940044403076 53.787099838256836 121.17940044403076 L 73.73046112060547 121.17940044403076 "/><circle r="3" id="sprotty_ArchitectureBlockImpl$work.mux4(struct)/GPortImpl$s_to_ArchitectureBlockImpl$work.mux4(struct)/InstantiationBlockImpl$lowmux/BPortImpl$s/junction0" transform="translate(51.787099838256836, 252.47930097579956)" class="sprotty-junction thick" style="fill:rgb(112, 112, 112);stroke:none;"/></g><g id="sprotty_ArchitectureBlockImpl$work.mux4(struct)/GPortImpl$s_to_ArchitectureBlockImpl$work.mux4(struct)/InstantiationBlockImpl$highmux/BPortImpl$s" class="sprotty-edge thick edge" style="fill:none;stroke:rgb(112, 112, 112);stroke-linejoin:round;stroke-width:3px;"><path d="M 0 252.47930097579956 L 49.787099838256836 252.47930097579956 C 50.787099838256836 252.47930097579956 51.787099838256836 251.47930097579956 51.787099838256836 250.47930097579956 L 51.787099838256836 247.05620098114014 C 51.787099838256836 246.05620098114014 52.787099838256836 245.05620098114014 53.787099838256836 245.05620098114014 L 71.78710174560547 245.05620098114014 "/><circle r="3" id="sprotty_ArchitectureBlockImpl$work.mux4(struct)/GPortImpl$s_to_ArchitectureBlockImpl$work.mux4(struct)/InstantiationBlockImpl$highmux/BPortImpl$s/junction0" transform="translate(51.787099838256836, 245.05620098114014)" class="sprotty-junction thick" style="fill:rgb(112, 112, 112);stroke:none;"/></g><g id="sprotty_ArchitectureBlockImpl$work.mux4(struct)/GPortImpl$s_to_ArchitectureBlockImpl$work.mux4(struct)/InstantiationBlockImpl$finalmux/BPortImpl$s" class="sprotty-edge thick edge" style="fill:none;stroke:rgb(112, 112, 112);stroke-linejoin:round;stroke-width:3px;"><path d="M 0 252.47930097579956 L 49.787099838256836 252.47930097579956 C 50.787099838256836 252.47930097579956 51.787099838256836 253.47930097579956 51.787099838256836 254.47930097579956 L 51.787099838256836 271.75360107421875 C 51.787099838256836 272.75360107421875 52.787099838256836 273.75360107421875 53.787099838256836 273.75360107421875 L 224.185546875 273.75360107421875 C 225.185546875 273.75360107421875 226.185546875 272.75360107421875 226.185546875 271.75360107421875 L 226.185546875 145.9973006248474 C 226.185546875 144.9973006248474 227.185546875 143.9973006248474 228.185546875 143.9973006248474 L 236.185546875 143.9973006248474 "/></g><g id="sprotty_ArchitectureBlockImpl$work.mux4(struct)/InstantiationBlockImpl$finalmux/BPortImpl$y_to_ArchitectureBlockImpl$work.mux4(struct)/GPortImpl$y" class="sprotty-edge thick edge" style="fill:none;stroke:rgb(112, 112, 112);stroke-linejoin:round;stroke-width:3px;"><path d="M 370.232421875 119.75630044937134 L 403.0154113769531 119.75630044937134 "/></g><g id="sprotty_ArchitectureBlockImpl$work.mux4(struct)/InstantiationBlockImpl$finalmux" transform="translate(236.185546875, 57.81790018081665)" class="instantiation"><g class="sprotty-block" style="fill:rgb(245, 245, 245);stroke:rgb(48, 48, 48);stroke-dasharray:0px;"><rect x="0" y="0" rx="1" ry="1" width="134.048" height="103.87680053710938"/><path d="M9.79 7.33L9.79 8.85L7.70 8.85L7.70 16L5.68 16L5.68 8.85L4.29 8.85L4.29 7.89L5.68 7.31L5.68 6.72Q5.68 5.06 6.47 4.41Q7.26 3.76 8.64 3.76L8.64 3.76Q9.26 3.76 9.78 3.86Q10.30 3.97 10.64 4.10L10.64 4.10L10.13 5.60Q9.86 5.52 9.53 5.45Q9.20 5.38 8.82 5.38L8.82 5.38Q8.24 5.38 7.97 5.74Q7.70 6.10 7.70 6.77L7.70 6.77L7.70 7.33L9.79 7.33ZM12.24 3.98L12.24 3.98Q12.70 3.98 13.03 4.22Q13.36 4.45 13.36 5.04L13.36 5.04Q13.36 5.63 13.03 5.87Q12.70 6.11 12.24 6.11L12.24 6.11Q11.78 6.11 11.45 5.87Q11.12 5.63 11.12 5.04L11.12 5.04Q11.12 4.45 11.45 4.22Q11.78 3.98 12.24 3.98ZM11.23 7.33L13.25 7.33L13.25 16L11.23 16L11.23 7.33ZM20.46 7.17L20.46 7.17Q21.92 7.17 22.74 7.92Q23.57 8.67 23.57 10.35L23.57 10.35L23.57 16L21.55 16L21.55 10.75Q21.55 8.80 19.95 8.80L19.95 8.80Q18.74 8.80 18.29 9.57Q17.84 10.34 17.84 11.76L17.84 11.76L17.84 16L15.82 16L15.82 7.33L17.38 7.33L17.66 8.46L17.78 8.46Q18.19 7.79 18.92 7.48Q19.65 7.17 20.46 7.17ZM29.55 7.17L29.55 7.17Q31.23 7.17 32.10 7.90Q32.98 8.64 32.98 10.18L32.98 10.18L32.98 16L31.55 16L31.15 14.80L31.09 14.80Q30.53 15.50 29.90 15.83Q29.28 16.16 28.21 16.16L28.21 16.16Q27.04 16.16 26.27 15.50Q25.50 14.85 25.50 13.47L25.50 13.47Q25.50 12.13 26.49 11.46Q27.47 10.78 29.47 10.70L29.47 10.70L30.98 10.66L30.98 10.22Q30.98 9.41 30.58 9.05Q30.18 8.69 29.46 8.69L29.46 8.69Q28.80 8.69 28.20 8.88Q27.60 9.07 27.01 9.33L27.01 9.33L26.37 7.92Q27.01 7.58 27.83 7.38Q28.66 7.17 29.55 7.17ZM30.98 12.64L30.98 11.90L29.92 11.94Q28.59 11.98 28.08 12.39Q27.57 12.80 27.57 13.49L27.57 13.49Q27.57 14.11 27.93 14.38Q28.29 14.64 28.88 14.64L28.88 14.64Q29.76 14.64 30.37 14.14Q30.98 13.63 30.98 12.64L30.98 12.64ZM37.52 3.84L37.52 16L35.50 16L35.50 3.84L37.52 3.84ZM50.03 7.17L50.03 7.17Q51.50 7.17 52.25 7.92Q52.99 8.67 52.99 10.35L52.99 10.35L52.99 16L50.98 16L50.98 10.74Q50.98 8.80 49.50 8.80L49.50 8.80Q48.45 8.80 48.00 9.49Q47.55 10.18 47.55 11.49L47.55 11.49L47.55 16L45.54 16L45.54 10.74Q45.54 8.80 44.05 8.80L44.05 8.80Q42.94 8.80 42.53 9.57Q42.11 10.34 42.11 11.76L42.11 11.76L42.11 16L40.10 16L40.10 7.33L41.65 7.33L41.94 8.46L42.05 8.46Q42.43 7.79 43.13 7.48Q43.82 7.17 44.58 7.17L44.58 7.17Q45.55 7.17 46.22 7.50Q46.88 7.82 47.23 8.51L47.23 8.51L47.39 8.51Q47.79 7.81 48.51 7.49Q49.23 7.17 50.03 7.17ZM61.20 7.33L63.22 7.33L63.22 16L61.63 16L61.36 14.88L61.26 14.88Q60.83 15.55 60.10 15.86Q59.38 16.16 58.56 16.16L58.56 16.16Q57.10 16.16 56.28 15.41Q55.46 14.66 55.46 12.99L55.46 12.99L55.46 7.33L57.47 7.33L57.47 12.59Q57.47 14.53 59.07 14.53L59.07 14.53Q60.29 14.53 60.74 13.77Q61.20 13.01 61.20 11.57L61.20 11.57L61.20 7.33ZM64.66 16L67.66 11.57L64.80 7.33L67.09 7.33L68.98 10.27L70.86 7.33L73.15 7.33L70.26 11.57L73.30 16L71.01 16L68.98 12.85L66.94 16L64.66 16ZM78.62 8.38L78.62 8.38Q78.62 7.70 78.98 7.42Q79.33 7.14 79.84 7.14L79.84 7.14Q80.34 7.14 80.70 7.42Q81.07 7.70 81.07 8.38L81.07 8.38Q81.07 9.04 80.70 9.33Q80.34 9.62 79.84 9.62L79.84 9.62Q79.33 9.62 78.98 9.33Q78.62 9.04 78.62 8.38ZM78.62 14.98L78.62 14.98Q78.62 14.30 78.98 14.02Q79.33 13.74 79.84 13.74L79.84 13.74Q80.34 13.74 80.70 14.02Q81.07 14.30 81.07 14.98L81.07 14.98Q81.07 15.63 80.70 15.92Q80.34 16.21 79.84 16.21L79.84 16.21Q79.33 16.21 78.98 15.92Q78.62 15.63 78.62 14.98ZM97.47 7.17L97.47 7.17Q98.94 7.17 99.69 7.92Q100.43 8.67 100.43 10.35L100.43 10.35L100.43 16L98.42 16L98.42 10.74Q98.42 8.80 96.94 8.80L96.94 8.80Q95.89 8.80 95.44 9.49Q94.99 10.18 94.99 11.49L94.99 11.49L94.99 16L92.98 16L92.98 10.74Q92.98 8.80 91.49 8.80L91.49 8.80Q90.38 8.80 89.97 9.57Q89.55 10.34 89.55 11.76L89.55 11.76L89.55 16L87.54 16L87.54 7.33L89.09 7.33L89.38 8.46L89.49 8.46Q89.87 7.79 90.57 7.48Q91.26 7.17 92.02 7.17L92.02 7.17Q92.99 7.17 93.66 7.50Q94.32 7.82 94.67 8.51L94.67 8.51L94.83 8.51Q95.23 7.81 95.95 7.49Q96.67 7.17 97.47 7.17ZM108.64 7.33L110.66 7.33L110.66 16L109.07 16L108.80 14.88L108.70 14.88Q108.27 15.55 107.54 15.86Q106.82 16.16 106.00 16.16L106.00 16.16Q104.54 16.16 103.72 15.41Q102.90 14.66 102.90 12.99L102.90 12.99L102.90 7.33L104.91 7.33L104.91 12.59Q104.91 14.53 106.51 14.53L106.51 14.53Q107.73 14.53 108.18 13.77Q108.64 13.01 108.64 11.57L108.64 11.57L108.64 7.33ZM112.10 16L115.10 11.57L112.24 7.33L114.53 7.33L116.42 10.27L118.30 7.33L120.59 7.33L117.70 11.57L120.74 16L118.45 16L116.42 12.85L114.38 16L112.10 16ZM129.41 14.26L129.41 16L121.58 16L121.58 14.51L124.50 11.57Q125.36 10.69 125.91 10.06Q126.46 9.44 126.73 8.89Q126.99 8.34 126.99 7.70L126.99 7.70Q126.99 6.91 126.54 6.52Q126.10 6.13 125.36 6.13L125.36 6.13Q124.64 6.13 124.02 6.42Q123.39 6.72 122.72 7.26L122.72 7.26L121.62 5.94Q122.32 5.33 123.22 4.87Q124.11 4.42 125.47 4.42L125.47 4.42Q126.58 4.42 127.38 4.81Q128.18 5.20 128.60 5.89Q129.02 6.58 129.02 7.49L129.02 7.49Q129.02 8.42 128.66 9.19Q128.29 9.97 127.59 10.74Q126.90 11.52 125.94 12.42L125.94 12.42L124.13 14.16L124.13 14.26L129.41 14.26Z" class="sprotty-block-name" style="fill:rgb(48, 48, 48);stroke:rgba(0, 0, 0, 0);"/><line x1="0" y1="20" x2="134.048" y2="20"/></g><g id="sprotty_ArchitectureBlockImpl$work.mux4(struct)/InstantiationBlockImpl$finalmux/BPortImpl$s" transform="translate(0, 86.17940044403076)" class="triangle"><path d="M 0,0 L 5,2.5 L 0,5 Z" transform="translate(-1.67, -2.5)" class="sprotty-port" style="fill:rgb(48, 48, 48);stroke:rgb(48, 48, 48);"/><g class="port sprotty-label" id="sprotty_ArchitectureBlockImpl$work.mux4(struct)/InstantiationBlockImpl$finalmux/BPortImpl$s/label" transform="translate(3, -5.697400093078613) translate(0, -0.13300000131130219)" style="cursor:default;fill:rgb(48, 48, 48);font-family:Arial, Helvetica, sans-serif;text-anchor:middle;"><path d="M2.93 0.13L2.93 0.13Q2.18 0.13 1.64 0.01Q1.10-0.11 0.69-0.32L0.69-0.32L0.69-1.38Q1.12-1.17 1.72-0.99Q2.33-0.81 2.95-0.81L2.95-0.81Q3.84-0.81 4.24-1.10Q4.64-1.38 4.64-1.86L4.64-1.86Q4.64-2.13 4.50-2.34Q4.35-2.55 3.97-2.77Q3.59-2.98 2.89-3.25L2.89-3.25Q2.19-3.51 1.70-3.78Q1.21-4.04 0.94-4.42Q0.68-4.79 0.68-5.37L0.68-5.37Q0.68-6.28 1.42-6.77Q2.15-7.26 3.35-7.26L3.35-7.26Q4.00-7.26 4.57-7.14Q5.13-7.01 5.63-6.78L5.63-6.78L5.23-5.85Q4.77-6.04 4.28-6.17Q3.79-6.30 3.27-6.30L3.27-6.30Q2.55-6.30 2.17-6.07Q1.80-5.84 1.80-5.44L1.80-5.44Q1.80-5.15 1.97-4.94Q2.14-4.73 2.55-4.54Q2.95-4.35 3.63-4.08L3.63-4.08Q4.31-3.83 4.79-3.56Q5.27-3.29 5.52-2.91Q5.77-2.54 5.77-1.97L5.77-1.97Q5.77-0.93 5.00-0.40Q4.23 0.13 2.93 0.13Z" transform="translate(4, 9.3948)"/><rect x="0" y="0.133" width="14.3707" height="11.3948" class="clickable" style="cursor:pointer;fill:rgba(0, 0, 0, 0);fill-opacity:0;stroke-width:0px;"/></g></g><g id="sprotty_ArchitectureBlockImpl$work.mux4(struct)/InstantiationBlockImpl$finalmux/BPortImpl$y" transform="translate(134.046875, 61.93840026855469)" class="triangle"><path d="M 0,0 L 5,2.5 L 0,5 Z" transform="translate(-1.67, -2.5)" class="sprotty-port" style="fill:rgb(48, 48, 48);stroke:rgb(48, 48, 48);"/><g class="port sprotty-label" id="sprotty_ArchitectureBlockImpl$work.mux4(struct)/InstantiationBlockImpl$finalmux/BPortImpl$y/label" transform="translate(-17.782999992370605, -7.160400390625) translate(0, -3.191999912261963)" style="cursor:default;fill:rgb(48, 48, 48);font-family:Arial, Helvetica, sans-serif;text-anchor:middle;"><path d="M1.12 3.19L1.12 3.19Q0.80 3.19 0.56 3.16Q0.32 3.13 0.15 3.09L0.15 3.09L0.15 2.15Q0.29 2.18 0.50 2.21Q0.70 2.23 0.93 2.23L0.93 2.23Q1.54 2.23 1.92 1.89Q2.29 1.54 2.51 0.97L2.51 0.97L2.89 0.03L0.01-7.13L1.26-7.13L2.81-3.07Q3.01-2.54 3.17-2.05Q3.33-1.57 3.40-1.13L3.40-1.13L3.46-1.13Q3.54-1.46 3.70-2.00Q3.87-2.54 4.07-3.09L4.07-3.09L5.52-7.13L6.78-7.13L3.71 0.98Q3.34 2.00 2.75 2.59Q2.15 3.19 1.12 3.19Z" transform="translate(4, 12.320800000000002)"/><rect x="0" y="3.192" width="14.783000000000001" height="14.320800000000002" class="clickable" style="cursor:pointer;fill:rgba(0, 0, 0, 0);fill-opacity:0;stroke-width:0px;"/></g></g><g id="sprotty_ArchitectureBlockImpl$work.mux4(struct)/InstantiationBlockImpl$finalmux/BPortImpl$d0" transform="translate(0, 39.12050008773804)" class="triangle"><path d="M 0,0 L 5,2.5 L 0,5 Z" transform="translate(-1.67, -2.5)" class="sprotty-port" style="fill:rgb(48, 48, 48);stroke:rgb(48, 48, 48);"/><g class="port sprotty-label" id="sprotty_ArchitectureBlockImpl$work.mux4(struct)/InstantiationBlockImpl$finalmux/BPortImpl$d0/label" transform="translate(3, -7.120500087738037) translate(0, -0.13300000131130219)" style="cursor:default;fill:rgb(48, 48, 48);font-family:Arial, Helvetica, sans-serif;text-anchor:middle;"><path d="M3.66 0.13L3.66 0.13Q2.33 0.13 1.53-0.79Q0.73-1.72 0.73-3.55L0.73-3.55Q0.73-5.39 1.54-6.32Q2.34-7.26 3.67-7.26L3.67-7.26Q4.50-7.26 5.02-6.96Q5.55-6.65 5.88-6.21L5.88-6.21L5.96-6.21Q5.95-6.38 5.91-6.72Q5.88-7.06 5.88-7.26L5.88-7.26L5.88-10.11L7.05-10.11L7.05 0L6.10 0L5.93-0.96L5.88-0.96Q5.56-0.51 5.03-0.19Q4.50 0.13 3.66 0.13ZM3.84-0.84L3.84-0.84Q4.97-0.84 5.43-1.46Q5.89-2.07 5.89-3.33L5.89-3.33L5.89-3.54Q5.89-4.87 5.45-5.58Q5.01-6.29 3.83-6.29L3.83-6.29Q2.89-6.29 2.41-5.54Q1.94-4.79 1.94-3.52L1.94-3.52Q1.94-2.25 2.41-1.54Q2.89-0.84 3.84-0.84ZM11.97 0.13L11.97 0.13Q10.36 0.13 9.60-1.16Q8.83-2.46 8.83-4.76L8.83-4.76Q8.83-6.30 9.14-7.39Q9.46-8.49 10.15-9.06Q10.84-9.64 11.97-9.64L11.97-9.64Q13.57-9.64 14.35-8.36Q15.14-7.08 15.14-4.76L15.14-4.76Q15.14-3.23 14.82-2.13Q14.50-1.04 13.81-0.45Q13.11 0.13 11.97 0.13ZM11.97-0.86L11.97-0.86Q13.03-0.86 13.49-1.83Q13.95-2.79 13.95-4.76L13.95-4.76Q13.95-6.70 13.49-7.67Q13.03-8.65 11.97-8.65L11.97-8.65Q10.89-8.65 10.45-7.67Q10.00-6.70 10.00-4.76L10.00-4.76Q10.00-2.81 10.45-1.84Q10.89-0.86 11.97-0.86Z" transform="translate(4, 12.241)"/><rect x="0" y="0.133" width="23.787100000000002" height="14.241" class="clickable" style="cursor:pointer;fill:rgba(0, 0, 0, 0);fill-opacity:0;stroke-width:0px;"/></g></g><g id="sprotty_ArchitectureBlockImpl$work.mux4(struct)/InstantiationBlockImpl$finalmux/BPortImpl$d1" transform="translate(0, 63.36150026321411)" class="triangle"><path d="M 0,0 L 5,2.5 L 0,5 Z" transform="translate(-1.67, -2.5)" class="sprotty-port" style="fill:rgb(48, 48, 48);stroke:rgb(48, 48, 48);"/><g class="port sprotty-label" id="sprotty_ArchitectureBlockImpl$work.mux4(struct)/InstantiationBlockImpl$finalmux/BPortImpl$d1/label" transform="translate(3, -7.120500087738037) translate(0, -0.13300000131130219)" style="cursor:default;fill:rgb(48, 48, 48);font-family:Arial, Helvetica, sans-serif;text-anchor:middle;"><path d="M3.66 0.13L3.66 0.13Q2.33 0.13 1.53-0.79Q0.73-1.72 0.73-3.55L0.73-3.55Q0.73-5.39 1.54-6.32Q2.34-7.26 3.67-7.26L3.67-7.26Q4.50-7.26 5.02-6.96Q5.55-6.65 5.88-6.21L5.88-6.21L5.96-6.21Q5.95-6.38 5.91-6.72Q5.88-7.06 5.88-7.26L5.88-7.26L5.88-10.11L7.05-10.11L7.05 0L6.10 0L5.93-0.96L5.88-0.96Q5.56-0.51 5.03-0.19Q4.50 0.13 3.66 0.13ZM3.84-0.84L3.84-0.84Q4.97-0.84 5.43-1.46Q5.89-2.07 5.89-3.33L5.89-3.33L5.89-3.54Q5.89-4.87 5.45-5.58Q5.01-6.29 3.83-6.29L3.83-6.29Q2.89-6.29 2.41-5.54Q1.94-4.79 1.94-3.52L1.94-3.52Q1.94-2.25 2.41-1.54Q2.89-0.84 3.84-0.84ZM12.90 0L11.76 0L11.76-6.64Q11.76-7.21 11.77-7.55Q11.78-7.90 11.81-8.27L11.81-8.27Q11.60-8.07 11.42-7.92Q11.25-7.77 10.99-7.54L10.99-7.54L9.98-6.72L9.36-7.50L11.93-9.50L12.90-9.50L12.90 0Z" transform="translate(4, 12.241)"/><rect x="0" y="0.133" width="23.787100000000002" height="14.241" class="clickable" style="cursor:pointer;fill:rgba(0, 0, 0, 0);fill-opacity:0;stroke-width:0px;"/></g></g></g><g id="sprotty_ArchitectureBlockImpl$work.mux4(struct)/InstantiationBlockImpl$highmux" transform="translate(71.78710174560547, 158.87680053710938)" class="instantiation"><g class="sprotty-block" style="fill:rgb(245, 245, 245);stroke:rgb(48, 48, 48);stroke-dasharray:0px;"><rect x="0" y="0" rx="1" ry="1" width="134.39999999999998" height="103.87680053710938"/><path d="M5.30 3.84L7.31 3.84L7.31 6.74Q7.31 7.25 7.27 7.74Q7.23 8.22 7.20 8.46L7.20 8.46L7.33 8.46Q7.74 7.81 8.42 7.49Q9.09 7.17 9.90 7.17L9.90 7.17Q11.38 7.17 12.21 7.92Q13.04 8.67 13.04 10.35L13.04 10.35L13.04 16L11.02 16L11.02 10.75Q11.02 8.80 9.42 8.80L9.42 8.80Q8.21 8.80 7.76 9.57Q7.31 10.34 7.31 11.76L7.31 11.76L7.31 16L5.30 16L5.30 3.84ZM16.58 3.98L16.58 3.98Q17.04 3.98 17.37 4.22Q17.70 4.45 17.70 5.04L17.70 5.04Q17.70 5.63 17.37 5.87Q17.04 6.11 16.58 6.11L16.58 6.11Q16.11 6.11 15.78 5.87Q15.46 5.63 15.46 5.04L15.46 5.04Q15.46 4.45 15.78 4.22Q16.11 3.98 16.58 3.98ZM15.57 7.33L17.58 7.33L17.58 16L15.57 16L15.57 7.33ZM23.07 7.17L23.07 7.17Q24.72 7.17 25.65 8.45L25.65 8.45L25.73 8.45L25.92 7.33L27.60 7.33L27.60 16.06Q27.60 17.92 26.55 18.88Q25.50 19.84 23.42 19.84L23.42 19.84Q22.50 19.84 21.71 19.72Q20.93 19.60 20.22 19.31L20.22 19.31L20.22 17.65Q21.71 18.32 23.55 18.32L23.55 18.32Q24.54 18.32 25.06 17.77Q25.58 17.22 25.58 16.16L25.58 16.16L25.58 15.94Q25.58 15.70 25.60 15.38Q25.62 15.06 25.65 14.86L25.65 14.86L25.58 14.86Q25.14 15.54 24.49 15.85Q23.84 16.16 23.02 16.16L23.02 16.16Q21.44 16.16 20.54 14.98Q19.65 13.79 19.65 11.68L19.65 11.68Q19.65 9.57 20.55 8.37Q21.46 7.17 23.07 7.17ZM23.60 8.82L23.60 8.82Q21.71 8.82 21.71 11.71L21.71 11.71Q21.71 14.56 23.63 14.56L23.63 14.56Q24.69 14.56 25.19 13.98Q25.70 13.39 25.70 12L25.70 12L25.70 11.70Q25.70 10.16 25.19 9.49Q24.69 8.82 23.60 8.82ZM30.18 3.84L32.19 3.84L32.19 6.74Q32.19 7.25 32.15 7.74Q32.11 8.22 32.08 8.46L32.08 8.46L32.21 8.46Q32.62 7.81 33.30 7.49Q33.97 7.17 34.78 7.17L34.78 7.17Q36.26 7.17 37.09 7.92Q37.92 8.67 37.92 10.35L37.92 10.35L37.92 16L35.90 16L35.90 10.75Q35.90 8.80 34.30 8.80L34.30 8.80Q33.09 8.80 32.64 9.57Q32.19 10.34 32.19 11.76L32.19 11.76L32.19 16L30.18 16L30.18 3.84ZM50.38 7.17L50.38 7.17Q51.86 7.17 52.60 7.92Q53.34 8.67 53.34 10.35L53.34 10.35L53.34 16L51.33 16L51.33 10.74Q51.33 8.80 49.86 8.80L49.86 8.80Q48.80 8.80 48.35 9.49Q47.90 10.18 47.90 11.49L47.90 11.49L47.90 16L45.89 16L45.89 10.74Q45.89 8.80 44.40 8.80L44.40 8.80Q43.30 8.80 42.88 9.57Q42.46 10.34 42.46 11.76L42.46 11.76L42.46 16L40.45 16L40.45 7.33L42.00 7.33L42.29 8.46L42.40 8.46Q42.78 7.79 43.48 7.48Q44.18 7.17 44.93 7.17L44.93 7.17Q45.90 7.17 46.57 7.50Q47.23 7.82 47.58 8.51L47.58 8.51L47.74 8.51Q48.14 7.81 48.86 7.49Q49.58 7.17 50.38 7.17ZM61.55 7.33L63.57 7.33L63.57 16L61.98 16L61.71 14.88L61.62 14.88Q61.18 15.55 60.46 15.86Q59.73 16.16 58.91 16.16L58.91 16.16Q57.46 16.16 56.63 15.41Q55.81 14.66 55.81 12.99L55.81 12.99L55.81 7.33L57.82 7.33L57.82 12.59Q57.82 14.53 59.42 14.53L59.42 14.53Q60.64 14.53 61.10 13.77Q61.55 13.01 61.55 11.57L61.55 11.57L61.55 7.33ZM65.01 16L68.02 11.57L65.15 7.33L67.44 7.33L69.33 10.27L71.22 7.33L73.50 7.33L70.61 11.57L73.65 16L71.36 16L69.33 12.85L67.30 16L65.01 16ZM78.98 8.38L78.98 8.38Q78.98 7.70 79.33 7.42Q79.68 7.14 80.19 7.14L80.19 7.14Q80.69 7.14 81.06 7.42Q81.42 7.70 81.42 8.38L81.42 8.38Q81.42 9.04 81.06 9.33Q80.69 9.62 80.19 9.62L80.19 9.62Q79.68 9.62 79.33 9.33Q78.98 9.04 78.98 8.38ZM78.98 14.98L78.98 14.98Q78.98 14.30 79.33 14.02Q79.68 13.74 80.19 13.74L80.19 13.74Q80.69 13.74 81.06 14.02Q81.42 14.30 81.42 14.98L81.42 14.98Q81.42 15.63 81.06 15.92Q80.69 16.21 80.19 16.21L80.19 16.21Q79.68 16.21 79.33 15.92Q78.98 15.63 78.98 14.98ZM97.82 7.17L97.82 7.17Q99.30 7.17 100.04 7.92Q100.78 8.67 100.78 10.35L100.78 10.35L100.78 16L98.77 16L98.77 10.74Q98.77 8.80 97.30 8.80L97.30 8.80Q96.24 8.80 95.79 9.49Q95.34 10.18 95.34 11.49L95.34 11.49L95.34 16L93.33 16L93.33 10.74Q93.33 8.80 91.84 8.80L91.84 8.80Q90.74 8.80 90.32 9.57Q89.90 10.34 89.90 11.76L89.90 11.76L89.90 16L87.89 16L87.89 7.33L89.44 7.33L89.73 8.46L89.84 8.46Q90.22 7.79 90.92 7.48Q91.62 7.17 92.37 7.17L92.37 7.17Q93.34 7.17 94.01 7.50Q94.67 7.82 95.02 8.51L95.02 8.51L95.18 8.51Q95.58 7.81 96.30 7.49Q97.02 7.17 97.82 7.17ZM108.99 7.33L111.01 7.33L111.01 16L109.42 16L109.15 14.88L109.06 14.88Q108.62 15.55 107.90 15.86Q107.17 16.16 106.35 16.16L106.35 16.16Q104.90 16.16 104.07 15.41Q103.25 14.66 103.25 12.99L103.25 12.99L103.25 7.33L105.26 7.33L105.26 12.59Q105.26 14.53 106.86 14.53L106.86 14.53Q108.08 14.53 108.54 13.77Q108.99 13.01 108.99 11.57L108.99 11.57L108.99 7.33ZM112.45 16L115.46 11.57L112.59 7.33L114.88 7.33L116.77 10.27L118.66 7.33L120.94 7.33L118.05 11.57L121.09 16L118.80 16L116.77 12.85L114.74 16L112.45 16ZM129.76 14.26L129.76 16L121.94 16L121.94 14.51L124.85 11.57Q125.71 10.69 126.26 10.06Q126.82 9.44 127.08 8.89Q127.34 8.34 127.34 7.70L127.34 7.70Q127.34 6.91 126.90 6.52Q126.45 6.13 125.71 6.13L125.71 6.13Q124.99 6.13 124.37 6.42Q123.74 6.72 123.07 7.26L123.07 7.26L121.97 5.94Q122.67 5.33 123.57 4.87Q124.46 4.42 125.82 4.42L125.82 4.42Q126.93 4.42 127.73 4.81Q128.53 5.20 128.95 5.89Q129.38 6.58 129.38 7.49L129.38 7.49Q129.38 8.42 129.01 9.19Q128.64 9.97 127.94 10.74Q127.25 11.52 126.29 12.42L126.29 12.42L124.48 14.16L124.48 14.26L129.76 14.26Z" class="sprotty-block-name" style="fill:rgb(48, 48, 48);stroke:rgba(0, 0, 0, 0);"/><line x1="0" y1="20" x2="134.39999999999998" y2="20"/></g><g id="sprotty_ArchitectureBlockImpl$work.mux4(struct)/InstantiationBlockImpl$highmux/BPortImpl$s" transform="translate(0, 86.17940044403076)" class="triangle"><path d="M 0,0 L 5,2.5 L 0,5 Z" transform="translate(-1.67, -2.5)" class="sprotty-port" style="fill:rgb(48, 48, 48);stroke:rgb(48, 48, 48);"/><g class="port sprotty-label" id="sprotty_ArchitectureBlockImpl$work.mux4(struct)/InstantiationBlockImpl$highmux/BPortImpl$s/label" transform="translate(3, -5.697400093078613) translate(0, -0.13300000131130219)" style="cursor:default;fill:rgb(48, 48, 48);font-family:Arial, Helvetica, sans-serif;text-anchor:middle;"><path d="M2.93 0.13L2.93 0.13Q2.18 0.13 1.64 0.01Q1.10-0.11 0.69-0.32L0.69-0.32L0.69-1.38Q1.12-1.17 1.72-0.99Q2.33-0.81 2.95-0.81L2.95-0.81Q3.84-0.81 4.24-1.10Q4.64-1.38 4.64-1.86L4.64-1.86Q4.64-2.13 4.50-2.34Q4.35-2.55 3.97-2.77Q3.59-2.98 2.89-3.25L2.89-3.25Q2.19-3.51 1.70-3.78Q1.21-4.04 0.94-4.42Q0.68-4.79 0.68-5.37L0.68-5.37Q0.68-6.28 1.42-6.77Q2.15-7.26 3.35-7.26L3.35-7.26Q4.00-7.26 4.57-7.14Q5.13-7.01 5.63-6.78L5.63-6.78L5.23-5.85Q4.77-6.04 4.28-6.17Q3.79-6.30 3.27-6.30L3.27-6.30Q2.55-6.30 2.17-6.07Q1.80-5.84 1.80-5.44L1.80-5.44Q1.80-5.15 1.97-4.94Q2.14-4.73 2.55-4.54Q2.95-4.35 3.63-4.08L3.63-4.08Q4.31-3.83 4.79-3.56Q5.27-3.29 5.52-2.91Q5.77-2.54 5.77-1.97L5.77-1.97Q5.77-0.93 5.00-0.40Q4.23 0.13 2.93 0.13Z" transform="translate(4, 9.3948)"/><rect x="0" y="0.133" width="14.3707" height="11.3948" class="clickable" style="cursor:pointer;fill:rgba(0, 0, 0, 0);fill-opacity:0;stroke-width:0px;"/></g></g><g id="sprotty_ArchitectureBlockImpl$work.mux4(struct)/InstantiationBlockImpl$highmux/BPortImpl$d1" transform="translate(0, 63.36150026321411)" class="triangle"><path d="M 0,0 L 5,2.5 L 0,5 Z" transform="translate(-1.67, -2.5)" class="sprotty-port" style="fill:rgb(48, 48, 48);stroke:rgb(48, 48, 48);"/><g class="port sprotty-label" id="sprotty_ArchitectureBlockImpl$work.mux4(struct)/InstantiationBlockImpl$highmux/BPortImpl$d1/label" transform="translate(3, -7.120500087738037) translate(0, -0.13300000131130219)" style="cursor:default;fill:rgb(48, 48, 48);font-family:Arial, Helvetica, sans-serif;text-anchor:middle;"><path d="M3.66 0.13L3.66 0.13Q2.33 0.13 1.53-0.79Q0.73-1.72 0.73-3.55L0.73-3.55Q0.73-5.39 1.54-6.32Q2.34-7.26 3.67-7.26L3.67-7.26Q4.50-7.26 5.02-6.96Q5.55-6.65 5.88-6.21L5.88-6.21L5.96-6.21Q5.95-6.38 5.91-6.72Q5.88-7.06 5.88-7.26L5.88-7.26L5.88-10.11L7.05-10.11L7.05 0L6.10 0L5.93-0.96L5.88-0.96Q5.56-0.51 5.03-0.19Q4.50 0.13 3.66 0.13ZM3.84-0.84L3.84-0.84Q4.97-0.84 5.43-1.46Q5.89-2.07 5.89-3.33L5.89-3.33L5.89-3.54Q5.89-4.87 5.45-5.58Q5.01-6.29 3.83-6.29L3.83-6.29Q2.89-6.29 2.41-5.54Q1.94-4.79 1.94-3.52L1.94-3.52Q1.94-2.25 2.41-1.54Q2.89-0.84 3.84-0.84ZM12.90 0L11.76 0L11.76-6.64Q11.76-7.21 11.77-7.55Q11.78-7.90 11.81-8.27L11.81-8.27Q11.60-8.07 11.42-7.92Q11.25-7.77 10.99-7.54L10.99-7.54L9.98-6.72L9.36-7.50L11.93-9.50L12.90-9.50L12.90 0Z" transform="translate(4, 12.241)"/><rect x="0" y="0.133" width="23.787100000000002" height="14.241" class="clickable" style="cursor:pointer;fill:rgba(0, 0, 0, 0);fill-opacity:0;stroke-width:0px;"/></g></g><g id="sprotty_ArchitectureBlockImpl$work.mux4(struct)/InstantiationBlockImpl$highmux/BPortImpl$d0" transform="translate(0, 39.12050008773804)" class="triangle"><path d="M 0,0 L 5,2.5 L 0,5 Z" transform="translate(-1.67, -2.5)" class="sprotty-port" style="fill:rgb(48, 48, 48);stroke:rgb(48, 48, 48);"/><g class="port sprotty-label" id="sprotty_ArchitectureBlockImpl$work.mux4(struct)/InstantiationBlockImpl$highmux/BPortImpl$d0/label" transform="translate(3, -7.120500087738037) translate(0, -0.13300000131130219)" style="cursor:default;fill:rgb(48, 48, 48);font-family:Arial, Helvetica, sans-serif;text-anchor:middle;"><path d="M3.66 0.13L3.66 0.13Q2.33 0.13 1.53-0.79Q0.73-1.72 0.73-3.55L0.73-3.55Q0.73-5.39 1.54-6.32Q2.34-7.26 3.67-7.26L3.67-7.26Q4.50-7.26 5.02-6.96Q5.55-6.65 5.88-6.21L5.88-6.21L5.96-6.21Q5.95-6.38 5.91-6.72Q5.88-7.06 5.88-7.26L5.88-7.26L5.88-10.11L7.05-10.11L7.05 0L6.10 0L5.93-0.96L5.88-0.96Q5.56-0.51 5.03-0.19Q4.50 0.13 3.66 0.13ZM3.84-0.84L3.84-0.84Q4.97-0.84 5.43-1.46Q5.89-2.07 5.89-3.33L5.89-3.33L5.89-3.54Q5.89-4.87 5.45-5.58Q5.01-6.29 3.83-6.29L3.83-6.29Q2.89-6.29 2.41-5.54Q1.94-4.79 1.94-3.52L1.94-3.52Q1.94-2.25 2.41-1.54Q2.89-0.84 3.84-0.84ZM11.97 0.13L11.97 0.13Q10.36 0.13 9.60-1.16Q8.83-2.46 8.83-4.76L8.83-4.76Q8.83-6.30 9.14-7.39Q9.46-8.49 10.15-9.06Q10.84-9.64 11.97-9.64L11.97-9.64Q13.57-9.64 14.35-8.36Q15.14-7.08 15.14-4.76L15.14-4.76Q15.14-3.23 14.82-2.13Q14.50-1.04 13.81-0.45Q13.11 0.13 11.97 0.13ZM11.97-0.86L11.97-0.86Q13.03-0.86 13.49-1.83Q13.95-2.79 13.95-4.76L13.95-4.76Q13.95-6.70 13.49-7.67Q13.03-8.65 11.97-8.65L11.97-8.65Q10.89-8.65 10.45-7.67Q10.00-6.70 10.00-4.76L10.00-4.76Q10.00-2.81 10.45-1.84Q10.89-0.86 11.97-0.86Z" transform="translate(4, 12.241)"/><rect x="0" y="0.133" width="23.787100000000002" height="14.241" class="clickable" style="cursor:pointer;fill:rgba(0, 0, 0, 0);fill-opacity:0;stroke-width:0px;"/></g></g><g id="sprotty_ArchitectureBlockImpl$work.mux4(struct)/InstantiationBlockImpl$highmux/BPortImpl$y" transform="translate(134.3984375, 61.93840026855469)" class="triangle"><path d="M 0,0 L 5,2.5 L 0,5 Z" transform="translate(-1.67, -2.5)" class="sprotty-port" style="fill:rgb(48, 48, 48);stroke:rgb(48, 48, 48);"/><g class="port sprotty-label" id="sprotty_ArchitectureBlockImpl$work.mux4(struct)/InstantiationBlockImpl$highmux/BPortImpl$y/label" transform="translate(-17.782999992370605, -7.160400390625) translate(0, -3.191999912261963)" style="cursor:default;fill:rgb(48, 48, 48);font-family:Arial, Helvetica, sans-serif;text-anchor:middle;"><path d="M1.12 3.19L1.12 3.19Q0.80 3.19 0.56 3.16Q0.32 3.13 0.15 3.09L0.15 3.09L0.15 2.15Q0.29 2.18 0.50 2.21Q0.70 2.23 0.93 2.23L0.93 2.23Q1.54 2.23 1.92 1.89Q2.29 1.54 2.51 0.97L2.51 0.97L2.89 0.03L0.01-7.13L1.26-7.13L2.81-3.07Q3.01-2.54 3.17-2.05Q3.33-1.57 3.40-1.13L3.40-1.13L3.46-1.13Q3.54-1.46 3.70-2.00Q3.87-2.54 4.07-3.09L4.07-3.09L5.52-7.13L6.78-7.13L3.71 0.98Q3.34 2.00 2.75 2.59Q2.15 3.19 1.12 3.19Z" transform="translate(4, 12.320800000000002)"/><rect x="0" y="3.192" width="14.783000000000001" height="14.320800000000002" class="clickable" style="cursor:pointer;fill:rgba(0, 0, 0, 0);fill-opacity:0;stroke-width:0px;"/></g></g></g><g id="sprotty_ArchitectureBlockImpl$work.mux4(struct)/InstantiationBlockImpl$lowmux" transform="translate(73.73046112060547, 35)" class="instantiation"><g class="sprotty-block" style="fill:rgb(245, 245, 245);stroke:rgb(48, 48, 48);stroke-dasharray:0px;"><rect x="0" y="0" rx="1" ry="1" width="126.625" height="103.87680053710938"/><path d="M7.31 3.84L7.31 16L5.30 16L5.30 3.84L7.31 3.84ZM17.63 11.65L17.63 11.65Q17.63 13.81 16.51 14.98Q15.39 16.16 13.47 16.16L13.47 16.16Q12.29 16.16 11.36 15.63Q10.43 15.10 9.90 14.10Q9.38 13.09 9.38 11.65L9.38 11.65Q9.38 9.49 10.49 8.33Q11.60 7.17 13.52 7.17L13.52 7.17Q14.72 7.17 15.65 7.69Q16.58 8.21 17.10 9.21Q17.63 10.21 17.63 11.65ZM11.44 11.65L11.44 11.65Q11.44 13.02 11.93 13.78Q12.42 14.53 13.50 14.53L13.50 14.53Q14.59 14.53 15.08 13.78Q15.57 13.02 15.57 11.65L15.57 11.65Q15.57 10.27 15.08 9.54Q14.59 8.80 13.49 8.80L13.49 8.80Q12.42 8.80 11.93 9.54Q11.44 10.27 11.44 11.65ZM28.74 16L26.50 16L25.54 12.27Q25.46 11.97 25.34 11.51Q25.23 11.06 25.11 10.56Q24.99 10.06 24.90 9.65Q24.80 9.23 24.75 9.01L24.75 9.01L24.69 9.01Q24.64 9.23 24.54 9.65Q24.45 10.06 24.34 10.57Q24.22 11.07 24.10 11.53Q23.98 11.98 23.90 12.29L23.90 12.29L22.90 16L20.69 16L18.26 7.31L20.29 7.31L21.36 11.46Q21.47 11.89 21.58 12.41Q21.68 12.93 21.75 13.42Q21.82 13.90 21.87 14.21L21.87 14.21L21.94 14.21Q21.97 13.92 22.06 13.42Q22.14 12.93 22.24 12.46Q22.34 11.98 22.40 11.74L22.40 11.74L23.65 7.31L25.86 7.31L27.06 11.74Q27.12 12.03 27.22 12.50Q27.33 12.96 27.41 13.43Q27.49 13.90 27.50 14.19L27.50 14.19L27.57 14.19Q27.60 13.94 27.68 13.46Q27.76 12.98 27.87 12.43Q27.98 11.89 28.11 11.46L28.11 11.46L29.20 7.31L31.20 7.31L28.74 16ZM42.61 7.17L42.61 7.17Q44.08 7.17 44.82 7.92Q45.57 8.67 45.57 10.35L45.57 10.35L45.57 16L43.55 16L43.55 10.74Q43.55 8.80 42.08 8.80L42.08 8.80Q41.02 8.80 40.58 9.49Q40.13 10.18 40.13 11.49L40.13 11.49L40.13 16L38.11 16L38.11 10.74Q38.11 8.80 36.62 8.80L36.62 8.80Q35.52 8.80 35.10 9.57Q34.69 10.34 34.69 11.76L34.69 11.76L34.69 16L32.67 16L32.67 7.33L34.22 7.33L34.51 8.46L34.62 8.46Q35.01 7.79 35.70 7.48Q36.40 7.17 37.15 7.17L37.15 7.17Q38.13 7.17 38.79 7.50Q39.46 7.82 39.81 8.51L39.81 8.51L39.97 8.51Q40.37 7.81 41.09 7.49Q41.81 7.17 42.61 7.17ZM53.78 7.33L55.79 7.33L55.79 16L54.21 16L53.94 14.88L53.84 14.88Q53.41 15.55 52.68 15.86Q51.95 16.16 51.14 16.16L51.14 16.16Q49.68 16.16 48.86 15.41Q48.03 14.66 48.03 12.99L48.03 12.99L48.03 7.33L50.05 7.33L50.05 12.59Q50.05 14.53 51.65 14.53L51.65 14.53Q52.86 14.53 53.32 13.77Q53.78 13.01 53.78 11.57L53.78 11.57L53.78 7.33ZM57.23 16L60.24 11.57L57.38 7.33L59.66 7.33L61.55 10.27L63.44 7.33L65.73 7.33L62.83 11.57L65.87 16L63.58 16L61.55 12.85L59.52 16L57.23 16ZM71.20 8.38L71.20 8.38Q71.20 7.70 71.55 7.42Q71.90 7.14 72.42 7.14L72.42 7.14Q72.91 7.14 73.28 7.42Q73.65 7.70 73.65 8.38L73.65 8.38Q73.65 9.04 73.28 9.33Q72.91 9.62 72.42 9.62L72.42 9.62Q71.90 9.62 71.55 9.33Q71.20 9.04 71.20 8.38ZM71.20 14.98L71.20 14.98Q71.20 14.30 71.55 14.02Q71.90 13.74 72.42 13.74L72.42 13.74Q72.91 13.74 73.28 14.02Q73.65 14.30 73.65 14.98L73.65 14.98Q73.65 15.63 73.28 15.92Q72.91 16.21 72.42 16.21L72.42 16.21Q71.90 16.21 71.55 15.92Q71.20 15.63 71.20 14.98ZM90.05 7.17L90.05 7.17Q91.52 7.17 92.26 7.92Q93.01 8.67 93.01 10.35L93.01 10.35L93.01 16L90.99 16L90.99 10.74Q90.99 8.80 89.52 8.80L89.52 8.80Q88.46 8.80 88.02 9.49Q87.57 10.18 87.57 11.49L87.57 11.49L87.57 16L85.55 16L85.55 10.74Q85.55 8.80 84.06 8.80L84.06 8.80Q82.96 8.80 82.54 9.57Q82.13 10.34 82.13 11.76L82.13 11.76L82.13 16L80.11 16L80.11 7.33L81.66 7.33L81.95 8.46L82.06 8.46Q82.45 7.79 83.14 7.48Q83.84 7.17 84.59 7.17L84.59 7.17Q85.57 7.17 86.23 7.50Q86.90 7.82 87.25 8.51L87.25 8.51L87.41 8.51Q87.81 7.81 88.53 7.49Q89.25 7.17 90.05 7.17ZM101.22 7.33L103.23 7.33L103.23 16L101.65 16L101.38 14.88L101.28 14.88Q100.85 15.55 100.12 15.86Q99.39 16.16 98.58 16.16L98.58 16.16Q97.12 16.16 96.30 15.41Q95.47 14.66 95.47 12.99L95.47 12.99L95.47 7.33L97.49 7.33L97.49 12.59Q97.49 14.53 99.09 14.53L99.09 14.53Q100.30 14.53 100.76 13.77Q101.22 13.01 101.22 11.57L101.22 11.57L101.22 7.33ZM104.67 16L107.68 11.57L104.82 7.33L107.10 7.33L108.99 10.27L110.88 7.33L113.17 7.33L110.27 11.57L113.31 16L111.02 16L108.99 12.85L106.96 16L104.67 16ZM121.98 14.26L121.98 16L114.16 16L114.16 14.51L117.07 11.57Q117.94 10.69 118.49 10.06Q119.04 9.44 119.30 8.89Q119.57 8.34 119.57 7.70L119.57 7.70Q119.57 6.91 119.12 6.52Q118.67 6.13 117.94 6.13L117.94 6.13Q117.22 6.13 116.59 6.42Q115.97 6.72 115.30 7.26L115.30 7.26L114.19 5.94Q114.90 5.33 115.79 4.87Q116.69 4.42 118.05 4.42L118.05 4.42Q119.15 4.42 119.95 4.81Q120.75 5.20 121.18 5.89Q121.60 6.58 121.60 7.49L121.60 7.49Q121.60 8.42 121.23 9.19Q120.86 9.97 120.17 10.74Q119.47 11.52 118.51 12.42L118.51 12.42L116.70 14.16L116.70 14.26L121.98 14.26Z" class="sprotty-block-name" style="fill:rgb(48, 48, 48);stroke:rgba(0, 0, 0, 0);"/><line x1="0" y1="20" x2="126.625" y2="20"/></g><g id="sprotty_ArchitectureBlockImpl$work.mux4(struct)/InstantiationBlockImpl$lowmux/BPortImpl$s" transform="translate(0, 86.17940044403076)" class="triangle"><path d="M 0,0 L 5,2.5 L 0,5 Z" transform="translate(-1.67, -2.5)" class="sprotty-port" style="fill:rgb(48, 48, 48);stroke:rgb(48, 48, 48);"/><g class="port sprotty-label" id="sprotty_ArchitectureBlockImpl$work.mux4(struct)/InstantiationBlockImpl$lowmux/BPortImpl$s/label" transform="translate(3, -5.697400093078613) translate(0, -0.13300000131130219)" style="cursor:default;fill:rgb(48, 48, 48);font-family:Arial, Helvetica, sans-serif;text-anchor:middle;"><path d="M2.93 0.13L2.93 0.13Q2.18 0.13 1.64 0.01Q1.10-0.11 0.69-0.32L0.69-0.32L0.69-1.38Q1.12-1.17 1.72-0.99Q2.33-0.81 2.95-0.81L2.95-0.81Q3.84-0.81 4.24-1.10Q4.64-1.38 4.64-1.86L4.64-1.86Q4.64-2.13 4.50-2.34Q4.35-2.55 3.97-2.77Q3.59-2.98 2.89-3.25L2.89-3.25Q2.19-3.51 1.70-3.78Q1.21-4.04 0.94-4.42Q0.68-4.79 0.68-5.37L0.68-5.37Q0.68-6.28 1.42-6.77Q2.15-7.26 3.35-7.26L3.35-7.26Q4.00-7.26 4.57-7.14Q5.13-7.01 5.63-6.78L5.63-6.78L5.23-5.85Q4.77-6.04 4.28-6.17Q3.79-6.30 3.27-6.30L3.27-6.30Q2.55-6.30 2.17-6.07Q1.80-5.84 1.80-5.44L1.80-5.44Q1.80-5.15 1.97-4.94Q2.14-4.73 2.55-4.54Q2.95-4.35 3.63-4.08L3.63-4.08Q4.31-3.83 4.79-3.56Q5.27-3.29 5.52-2.91Q5.77-2.54 5.77-1.97L5.77-1.97Q5.77-0.93 5.00-0.40Q4.23 0.13 2.93 0.13Z" transform="translate(4, 9.3948)"/><rect x="0" y="0.133" width="14.3707" height="11.3948" class="clickable" style="cursor:pointer;fill:rgba(0, 0, 0, 0);fill-opacity:0;stroke-width:0px;"/></g></g><g id="sprotty_ArchitectureBlockImpl$work.mux4(struct)/InstantiationBlockImpl$lowmux/BPortImpl$d1" transform="translate(0, 63.36150026321411)" class="triangle"><path d="M 0,0 L 5,2.5 L 0,5 Z" transform="translate(-1.67, -2.5)" class="sprotty-port" style="fill:rgb(48, 48, 48);stroke:rgb(48, 48, 48);"/><g class="port sprotty-label" id="sprotty_ArchitectureBlockImpl$work.mux4(struct)/InstantiationBlockImpl$lowmux/BPortImpl$d1/label" transform="translate(3, -7.120500087738037) translate(0, -0.13300000131130219)" style="cursor:default;fill:rgb(48, 48, 48);font-family:Arial, Helvetica, sans-serif;text-anchor:middle;"><path d="M3.66 0.13L3.66 0.13Q2.33 0.13 1.53-0.79Q0.73-1.72 0.73-3.55L0.73-3.55Q0.73-5.39 1.54-6.32Q2.34-7.26 3.67-7.26L3.67-7.26Q4.50-7.26 5.02-6.96Q5.55-6.65 5.88-6.21L5.88-6.21L5.96-6.21Q5.95-6.38 5.91-6.72Q5.88-7.06 5.88-7.26L5.88-7.26L5.88-10.11L7.05-10.11L7.05 0L6.10 0L5.93-0.96L5.88-0.96Q5.56-0.51 5.03-0.19Q4.50 0.13 3.66 0.13ZM3.84-0.84L3.84-0.84Q4.97-0.84 5.43-1.46Q5.89-2.07 5.89-3.33L5.89-3.33L5.89-3.54Q5.89-4.87 5.45-5.58Q5.01-6.29 3.83-6.29L3.83-6.29Q2.89-6.29 2.41-5.54Q1.94-4.79 1.94-3.52L1.94-3.52Q1.94-2.25 2.41-1.54Q2.89-0.84 3.84-0.84ZM12.90 0L11.76 0L11.76-6.64Q11.76-7.21 11.77-7.55Q11.78-7.90 11.81-8.27L11.81-8.27Q11.60-8.07 11.42-7.92Q11.25-7.77 10.99-7.54L10.99-7.54L9.98-6.72L9.36-7.50L11.93-9.50L12.90-9.50L12.90 0Z" transform="translate(4, 12.241)"/><rect x="0" y="0.133" width="23.787100000000002" height="14.241" class="clickable" style="cursor:pointer;fill:rgba(0, 0, 0, 0);fill-opacity:0;stroke-width:0px;"/></g></g><g id="sprotty_ArchitectureBlockImpl$work.mux4(struct)/InstantiationBlockImpl$lowmux/BPortImpl$d0" transform="translate(0, 39.12050008773804)" class="triangle"><path d="M 0,0 L 5,2.5 L 0,5 Z" transform="translate(-1.67, -2.5)" class="sprotty-port" style="fill:rgb(48, 48, 48);stroke:rgb(48, 48, 48);"/><g class="port sprotty-label" id="sprotty_ArchitectureBlockImpl$work.mux4(struct)/InstantiationBlockImpl$lowmux/BPortImpl$d0/label" transform="translate(3, -7.120500087738037) translate(0, -0.13300000131130219)" style="cursor:default;fill:rgb(48, 48, 48);font-family:Arial, Helvetica, sans-serif;text-anchor:middle;"><path d="M3.66 0.13L3.66 0.13Q2.33 0.13 1.53-0.79Q0.73-1.72 0.73-3.55L0.73-3.55Q0.73-5.39 1.54-6.32Q2.34-7.26 3.67-7.26L3.67-7.26Q4.50-7.26 5.02-6.96Q5.55-6.65 5.88-6.21L5.88-6.21L5.96-6.21Q5.95-6.38 5.91-6.72Q5.88-7.06 5.88-7.26L5.88-7.26L5.88-10.11L7.05-10.11L7.05 0L6.10 0L5.93-0.96L5.88-0.96Q5.56-0.51 5.03-0.19Q4.50 0.13 3.66 0.13ZM3.84-0.84L3.84-0.84Q4.97-0.84 5.43-1.46Q5.89-2.07 5.89-3.33L5.89-3.33L5.89-3.54Q5.89-4.87 5.45-5.58Q5.01-6.29 3.83-6.29L3.83-6.29Q2.89-6.29 2.41-5.54Q1.94-4.79 1.94-3.52L1.94-3.52Q1.94-2.25 2.41-1.54Q2.89-0.84 3.84-0.84ZM11.97 0.13L11.97 0.13Q10.36 0.13 9.60-1.16Q8.83-2.46 8.83-4.76L8.83-4.76Q8.83-6.30 9.14-7.39Q9.46-8.49 10.15-9.06Q10.84-9.64 11.97-9.64L11.97-9.64Q13.57-9.64 14.35-8.36Q15.14-7.08 15.14-4.76L15.14-4.76Q15.14-3.23 14.82-2.13Q14.50-1.04 13.81-0.45Q13.11 0.13 11.97 0.13ZM11.97-0.86L11.97-0.86Q13.03-0.86 13.49-1.83Q13.95-2.79 13.95-4.76L13.95-4.76Q13.95-6.70 13.49-7.67Q13.03-8.65 11.97-8.65L11.97-8.65Q10.89-8.65 10.45-7.67Q10.00-6.70 10.00-4.76L10.00-4.76Q10.00-2.81 10.45-1.84Q10.89-0.86 11.97-0.86Z" transform="translate(4, 12.241)"/><rect x="0" y="0.133" width="23.787100000000002" height="14.241" class="clickable" style="cursor:pointer;fill:rgba(0, 0, 0, 0);fill-opacity:0;stroke-width:0px;"/></g></g><g id="sprotty_ArchitectureBlockImpl$work.mux4(struct)/InstantiationBlockImpl$lowmux/BPortImpl$y" transform="translate(126.625, 61.93840026855469)" class="triangle"><path d="M 0,0 L 5,2.5 L 0,5 Z" transform="translate(-1.67, -2.5)" class="sprotty-port" style="fill:rgb(48, 48, 48);stroke:rgb(48, 48, 48);"/><g class="port sprotty-label" id="sprotty_ArchitectureBlockImpl$work.mux4(struct)/InstantiationBlockImpl$lowmux/BPortImpl$y/label" transform="translate(-17.782999992370605, -7.160400390625) translate(0, -3.191999912261963)" style="cursor:default;fill:rgb(48, 48, 48);font-family:Arial, Helvetica, sans-serif;text-anchor:middle;"><path d="M1.12 3.19L1.12 3.19Q0.80 3.19 0.56 3.16Q0.32 3.13 0.15 3.09L0.15 3.09L0.15 2.15Q0.29 2.18 0.50 2.21Q0.70 2.23 0.93 2.23L0.93 2.23Q1.54 2.23 1.92 1.89Q2.29 1.54 2.51 0.97L2.51 0.97L2.89 0.03L0.01-7.13L1.26-7.13L2.81-3.07Q3.01-2.54 3.17-2.05Q3.33-1.57 3.40-1.13L3.40-1.13L3.46-1.13Q3.54-1.46 3.70-2.00Q3.87-2.54 4.07-3.09L4.07-3.09L5.52-7.13L6.78-7.13L3.71 0.98Q3.34 2.00 2.75 2.59Q2.15 3.19 1.12 3.19Z" transform="translate(4, 12.320800000000002)"/><rect x="0" y="3.192" width="14.783000000000001" height="14.320800000000002" class="clickable" style="cursor:pointer;fill:rgba(0, 0, 0, 0);fill-opacity:0;stroke-width:0px;"/></g></g></g><g id="sprotty_ArchitectureBlockImpl$work.mux4(struct)/GPortImpl$s" transform="translate(0, 252.47930097579956)" class="triangle"><path d="M 0,0 L 5,2.5 L 0,5 Z" transform="translate(-1.67, -2.5)" class="sprotty-port" style="fill:rgb(48, 48, 48);stroke:rgb(48, 48, 48);"/><g class="port sprotty-label" id="sprotty_ArchitectureBlockImpl$work.mux4(struct)/GPortImpl$s/label" transform="translate(3, 3) translate(0, -0.13300000131130219)" style="cursor:default;fill:rgb(48, 48, 48);font-family:Arial, Helvetica, sans-serif;text-anchor:middle;"><path d="M2.93 0.13L2.93 0.13Q2.18 0.13 1.64 0.01Q1.10-0.11 0.69-0.32L0.69-0.32L0.69-1.38Q1.12-1.17 1.72-0.99Q2.33-0.81 2.95-0.81L2.95-0.81Q3.84-0.81 4.24-1.10Q4.64-1.38 4.64-1.86L4.64-1.86Q4.64-2.13 4.50-2.34Q4.35-2.55 3.97-2.77Q3.59-2.98 2.89-3.25L2.89-3.25Q2.19-3.51 1.70-3.78Q1.21-4.04 0.94-4.42Q0.68-4.79 0.68-5.37L0.68-5.37Q0.68-6.28 1.42-6.77Q2.15-7.26 3.35-7.26L3.35-7.26Q4.00-7.26 4.57-7.14Q5.13-7.01 5.63-6.78L5.63-6.78L5.23-5.85Q4.77-6.04 4.28-6.17Q3.79-6.30 3.27-6.30L3.27-6.30Q2.55-6.30 2.17-6.07Q1.80-5.84 1.80-5.44L1.80-5.44Q1.80-5.15 1.97-4.94Q2.14-4.73 2.55-4.54Q2.95-4.35 3.63-4.08L3.63-4.08Q4.31-3.83 4.79-3.56Q5.27-3.29 5.52-2.91Q5.77-2.54 5.77-1.97L5.77-1.97Q5.77-0.93 5.00-0.40Q4.23 0.13 2.93 0.13Z" transform="translate(4, 9.3948)"/><rect x="0" y="0.133" width="14.3707" height="11.3948" class="clickable" style="cursor:pointer;fill:rgba(0, 0, 0, 0);fill-opacity:0;stroke-width:0px;"/></g></g><g id="sprotty_ArchitectureBlockImpl$work.mux4(struct)/GPortImpl$d3" transform="translate(0, 225.2383008003235)" class="triangle"><path d="M 0,0 L 5,2.5 L 0,5 Z" transform="translate(-1.67, -2.5)" class="sprotty-port" style="fill:rgb(48, 48, 48);stroke:rgb(48, 48, 48);"/><g class="port sprotty-label" id="sprotty_ArchitectureBlockImpl$work.mux4(struct)/GPortImpl$d3/label" transform="translate(3, 3) translate(0, -0.13300000131130219)" style="cursor:default;fill:rgb(48, 48, 48);font-family:Arial, Helvetica, sans-serif;text-anchor:middle;"><path d="M3.66 0.13L3.66 0.13Q2.33 0.13 1.53-0.79Q0.73-1.72 0.73-3.55L0.73-3.55Q0.73-5.39 1.54-6.32Q2.34-7.26 3.67-7.26L3.67-7.26Q4.50-7.26 5.02-6.96Q5.55-6.65 5.88-6.21L5.88-6.21L5.96-6.21Q5.95-6.38 5.91-6.72Q5.88-7.06 5.88-7.26L5.88-7.26L5.88-10.11L7.05-10.11L7.05 0L6.10 0L5.93-0.96L5.88-0.96Q5.56-0.51 5.03-0.19Q4.50 0.13 3.66 0.13ZM3.84-0.84L3.84-0.84Q4.97-0.84 5.43-1.46Q5.89-2.07 5.89-3.33L5.89-3.33L5.89-3.54Q5.89-4.87 5.45-5.58Q5.01-6.29 3.83-6.29L3.83-6.29Q2.89-6.29 2.41-5.54Q1.94-4.79 1.94-3.52L1.94-3.52Q1.94-2.25 2.41-1.54Q2.89-0.84 3.84-0.84ZM11.38 0.13L11.38 0.13Q10.64 0.13 10.00 0.02Q9.36-0.09 8.78-0.39L8.78-0.39L8.78-1.48Q9.38-1.18 10.07-1.02Q10.76-0.85 11.40-0.85L11.40-0.85Q12.67-0.85 13.24-1.35Q13.81-1.85 13.81-2.73L13.81-2.73Q13.81-3.62 13.11-4.01Q12.41-4.40 11.15-4.40L11.15-4.40L10.23-4.40L10.23-5.40L11.16-5.40Q12.33-5.40 12.93-5.89Q13.54-6.38 13.54-7.20L13.54-7.20Q13.54-7.89 13.07-8.27Q12.61-8.65 11.81-8.65L11.81-8.65Q11.04-8.65 10.49-8.42Q9.95-8.19 9.42-7.85L9.42-7.85L8.83-8.65Q9.34-9.04 10.09-9.34Q10.84-9.63 11.80-9.63L11.80-9.63Q13.29-9.63 14.01-8.96Q14.74-8.30 14.74-7.28L14.74-7.28Q14.74-6.32 14.20-5.75Q13.67-5.19 12.77-5.00L12.77-5.00L12.77-4.95Q13.91-4.81 14.47-4.23Q15.03-3.64 15.03-2.70L15.03-2.70Q15.03-1.88 14.64-1.23Q14.26-0.59 13.45-0.23Q12.65 0.13 11.38 0.13Z" transform="translate(4, 12.241)"/><rect x="0" y="0.133" width="23.787100000000002" height="14.241" class="clickable" style="cursor:pointer;fill:rgba(0, 0, 0, 0);fill-opacity:0;stroke-width:0px;"/></g></g><g id="sprotty_ArchitectureBlockImpl$work.mux4(struct)/GPortImpl$d2" transform="translate(0, 197.9973006248474)" class="triangle"><path d="M 0,0 L 5,2.5 L 0,5 Z" transform="translate(-1.67, -2.5)" class="sprotty-port" style="fill:rgb(48, 48, 48);stroke:rgb(48, 48, 48);"/><g class="port sprotty-label" id="sprotty_ArchitectureBlockImpl$work.mux4(struct)/GPortImpl$d2/label" transform="translate(3, 3) translate(0, -0.13300000131130219)" style="cursor:default;fill:rgb(48, 48, 48);font-family:Arial, Helvetica, sans-serif;text-anchor:middle;"><path d="M3.66 0.13L3.66 0.13Q2.33 0.13 1.53-0.79Q0.73-1.72 0.73-3.55L0.73-3.55Q0.73-5.39 1.54-6.32Q2.34-7.26 3.67-7.26L3.67-7.26Q4.50-7.26 5.02-6.96Q5.55-6.65 5.88-6.21L5.88-6.21L5.96-6.21Q5.95-6.38 5.91-6.72Q5.88-7.06 5.88-7.26L5.88-7.26L5.88-10.11L7.05-10.11L7.05 0L6.10 0L5.93-0.96L5.88-0.96Q5.56-0.51 5.03-0.19Q4.50 0.13 3.66 0.13ZM3.84-0.84L3.84-0.84Q4.97-0.84 5.43-1.46Q5.89-2.07 5.89-3.33L5.89-3.33L5.89-3.54Q5.89-4.87 5.45-5.58Q5.01-6.29 3.83-6.29L3.83-6.29Q2.89-6.29 2.41-5.54Q1.94-4.79 1.94-3.52L1.94-3.52Q1.94-2.25 2.41-1.54Q2.89-0.84 3.84-0.84ZM15.10 0L8.82 0L8.82-0.97L11.31-3.48Q12.02-4.20 12.52-4.76Q13.01-5.32 13.26-5.86Q13.51-6.40 13.51-7.04L13.51-7.04Q13.51-7.82 13.05-8.23Q12.58-8.63 11.84-8.63L11.84-8.63Q11.15-8.63 10.62-8.39Q10.09-8.15 9.55-7.73L9.55-7.73L8.92-8.51Q9.48-8.98 10.21-9.30Q10.93-9.63 11.84-9.63L11.84-9.63Q13.17-9.63 13.94-8.96Q14.71-8.29 14.71-7.10L14.71-7.10Q14.71-6.36 14.40-5.71Q14.10-5.07 13.55-4.43Q13.01-3.79 12.28-3.07L12.28-3.07L10.29-1.12L10.29-1.06L15.10-1.06L15.10 0Z" transform="translate(4, 12.241)"/><rect x="0" y="0.133" width="23.787100000000002" height="14.241" class="clickable" style="cursor:pointer;fill:rgba(0, 0, 0, 0);fill-opacity:0;stroke-width:0px;"/></g></g><g id="sprotty_ArchitectureBlockImpl$work.mux4(struct)/GPortImpl$d1" transform="translate(0, 101.36150026321411)" class="triangle"><path d="M 0,0 L 5,2.5 L 0,5 Z" transform="translate(-1.67, -2.5)" class="sprotty-port" style="fill:rgb(48, 48, 48);stroke:rgb(48, 48, 48);"/><g class="port sprotty-label" id="sprotty_ArchitectureBlockImpl$work.mux4(struct)/GPortImpl$d1/label" transform="translate(3, 3) translate(0, -0.13300000131130219)" style="cursor:default;fill:rgb(48, 48, 48);font-family:Arial, Helvetica, sans-serif;text-anchor:middle;"><path d="M3.66 0.13L3.66 0.13Q2.33 0.13 1.53-0.79Q0.73-1.72 0.73-3.55L0.73-3.55Q0.73-5.39 1.54-6.32Q2.34-7.26 3.67-7.26L3.67-7.26Q4.50-7.26 5.02-6.96Q5.55-6.65 5.88-6.21L5.88-6.21L5.96-6.21Q5.95-6.38 5.91-6.72Q5.88-7.06 5.88-7.26L5.88-7.26L5.88-10.11L7.05-10.11L7.05 0L6.10 0L5.93-0.96L5.88-0.96Q5.56-0.51 5.03-0.19Q4.50 0.13 3.66 0.13ZM3.84-0.84L3.84-0.84Q4.97-0.84 5.43-1.46Q5.89-2.07 5.89-3.33L5.89-3.33L5.89-3.54Q5.89-4.87 5.45-5.58Q5.01-6.29 3.83-6.29L3.83-6.29Q2.89-6.29 2.41-5.54Q1.94-4.79 1.94-3.52L1.94-3.52Q1.94-2.25 2.41-1.54Q2.89-0.84 3.84-0.84ZM12.90 0L11.76 0L11.76-6.64Q11.76-7.21 11.77-7.55Q11.78-7.90 11.81-8.27L11.81-8.27Q11.60-8.07 11.42-7.92Q11.25-7.77 10.99-7.54L10.99-7.54L9.98-6.72L9.36-7.50L11.93-9.50L12.90-9.50L12.90 0Z" transform="translate(4, 12.241)"/><rect x="0" y="0.133" width="23.787100000000002" height="14.241" class="clickable" style="cursor:pointer;fill:rgba(0, 0, 0, 0);fill-opacity:0;stroke-width:0px;"/></g></g><g id="sprotty_ArchitectureBlockImpl$work.mux4(struct)/GPortImpl$d0" transform="translate(0, 74.12050008773804)" class="triangle"><path d="M 0,0 L 5,2.5 L 0,5 Z" transform="translate(-1.67, -2.5)" class="sprotty-port" style="fill:rgb(48, 48, 48);stroke:rgb(48, 48, 48);"/><g class="port sprotty-label" id="sprotty_ArchitectureBlockImpl$work.mux4(struct)/GPortImpl$d0/label" transform="translate(3, 3) translate(0, -0.13300000131130219)" style="cursor:default;fill:rgb(48, 48, 48);font-family:Arial, Helvetica, sans-serif;text-anchor:middle;"><path d="M3.66 0.13L3.66 0.13Q2.33 0.13 1.53-0.79Q0.73-1.72 0.73-3.55L0.73-3.55Q0.73-5.39 1.54-6.32Q2.34-7.26 3.67-7.26L3.67-7.26Q4.50-7.26 5.02-6.96Q5.55-6.65 5.88-6.21L5.88-6.21L5.96-6.21Q5.95-6.38 5.91-6.72Q5.88-7.06 5.88-7.26L5.88-7.26L5.88-10.11L7.05-10.11L7.05 0L6.10 0L5.93-0.96L5.88-0.96Q5.56-0.51 5.03-0.19Q4.50 0.13 3.66 0.13ZM3.84-0.84L3.84-0.84Q4.97-0.84 5.43-1.46Q5.89-2.07 5.89-3.33L5.89-3.33L5.89-3.54Q5.89-4.87 5.45-5.58Q5.01-6.29 3.83-6.29L3.83-6.29Q2.89-6.29 2.41-5.54Q1.94-4.79 1.94-3.52L1.94-3.52Q1.94-2.25 2.41-1.54Q2.89-0.84 3.84-0.84ZM11.97 0.13L11.97 0.13Q10.36 0.13 9.60-1.16Q8.83-2.46 8.83-4.76L8.83-4.76Q8.83-6.30 9.14-7.39Q9.46-8.49 10.15-9.06Q10.84-9.64 11.97-9.64L11.97-9.64Q13.57-9.64 14.35-8.36Q15.14-7.08 15.14-4.76L15.14-4.76Q15.14-3.23 14.82-2.13Q14.50-1.04 13.81-0.45Q13.11 0.13 11.97 0.13ZM11.97-0.86L11.97-0.86Q13.03-0.86 13.49-1.83Q13.95-2.79 13.95-4.76L13.95-4.76Q13.95-6.70 13.49-7.67Q13.03-8.65 11.97-8.65L11.97-8.65Q10.89-8.65 10.45-7.67Q10.00-6.70 10.00-4.76L10.00-4.76Q10.00-2.81 10.45-1.84Q10.89-0.86 11.97-0.86Z" transform="translate(4, 12.241)"/><rect x="0" y="0.133" width="23.787100000000002" height="14.241" class="clickable" style="cursor:pointer;fill:rgba(0, 0, 0, 0);fill-opacity:0;stroke-width:0px;"/></g></g><g id="sprotty_ArchitectureBlockImpl$work.mux4(struct)/GPortImpl$y" transform="translate(403.0154113769531, 119.75630044937134)" class="triangle"><path d="M 0,0 L 5,2.5 L 0,5 Z" transform="translate(-1.67, -2.5)" class="sprotty-port" style="fill:rgb(48, 48, 48);stroke:rgb(48, 48, 48);"/><g class="port sprotty-label" id="sprotty_ArchitectureBlockImpl$work.mux4(struct)/GPortImpl$y/label" transform="translate(-17.782999992370605, 3) translate(0, -3.191999912261963)" style="cursor:default;fill:rgb(48, 48, 48);font-family:Arial, Helvetica, sans-serif;text-anchor:middle;"><path d="M1.12 3.19L1.12 3.19Q0.80 3.19 0.56 3.16Q0.32 3.13 0.15 3.09L0.15 3.09L0.15 2.15Q0.29 2.18 0.50 2.21Q0.70 2.23 0.93 2.23L0.93 2.23Q1.54 2.23 1.92 1.89Q2.29 1.54 2.51 0.97L2.51 0.97L2.89 0.03L0.01-7.13L1.26-7.13L2.81-3.07Q3.01-2.54 3.17-2.05Q3.33-1.57 3.40-1.13L3.40-1.13L3.46-1.13Q3.54-1.46 3.70-2.00Q3.87-2.54 4.07-3.09L4.07-3.09L5.52-7.13L6.78-7.13L3.71 0.98Q3.34 2.00 2.75 2.59Q2.15 3.19 1.12 3.19Z" transform="translate(4, 12.320800000000002)"/><rect x="0" y="3.192" width="14.783000000000001" height="14.320800000000002" class="clickable" style="cursor:pointer;fill:rgba(0, 0, 0, 0);fill-opacity:0;stroke-width:0px;"/></g></g><g id="sprotty_ArchitectureBlockImpl$work.mux4(struct)/InstantiationBlockImpl$lowmux/BPortImpl$y_to_ArchitectureBlockImpl$work.mux4(struct)/InstantiationBlockImpl$finalmux/BPortImpl$d0" class="sprotty-edge thick edge" style="fill:none;stroke:rgb(112, 112, 112);stroke-linejoin:round;stroke-width:3px;"><path d="M 200.35546112060547 96.93840026855469 L 236.185546875 96.93840026855469 "/></g><g id="sprotty_ArchitectureBlockImpl$work.mux4(struct)/InstantiationBlockImpl$highmux/BPortImpl$y_to_ArchitectureBlockImpl$work.mux4(struct)/InstantiationBlockImpl$finalmux/BPortImpl$d1" class="sprotty-edge thick edge" style="fill:none;stroke:rgb(112, 112, 112);stroke-linejoin:round;stroke-width:3px;"><path d="M 206.18553924560547 220.81520080566406 L 214.185546875 220.81520080566406 C 215.185546875 220.81520080566406 216.185546875 219.81520080566406 216.185546875 218.81520080566406 L 216.185546875 123.17940044403076 C 216.185546875 122.17940044403076 217.185546875 121.17940044403076 218.185546875 121.17940044403076 L 236.185546875 121.17940044403076 "/></g></g></g></svg>