<svg xmlns="http://www.w3.org/2000/svg" id="sprotty_priorityckt" class="sprotty-graph sprotty-block-diagram blockdiagram" style="font-family:&quot;Helvetica Neue&quot;, Helvetica, Arial, sans-serif;line-height:18px;perspective-origin:0px 0px;transform-origin:0px 0px;z-index:0;" version="1.1" viewBox="9.5 12 195.06828125 77.32080078125"><g transform="scale(1) translate(0,0)"><g id="sprotty_ArchitectureBlockImpl$work.priorityckt(synth)" transform="translate(12, 12)" class="architecture"><g class="sprotty-block" style="fill:rgb(245, 245, 245);stroke:rgb(48, 48, 48);stroke-dasharray:0px;"><rect x="0" y="0" rx="1" ry="1" width="188.24" height="77.32080078125"/><path d="M14.64 16L12.40 16L11.44 12.27Q11.36 11.97 11.25 11.51Q11.14 11.06 11.02 10.56Q10.90 10.06 10.80 9.65Q10.70 9.23 10.66 9.01L10.66 9.01L10.59 9.01Q10.54 9.23 10.45 9.65Q10.35 10.06 10.24 10.57Q10.13 11.07 10.01 11.53Q9.89 11.98 9.81 12.29L9.81 12.29L8.80 16L6.59 16L4.16 7.31L6.19 7.31L7.26 11.46Q7.38 11.89 7.48 12.41Q7.58 12.93 7.66 13.42Q7.73 13.90 7.78 14.21L7.78 14.21L7.84 14.21Q7.87 13.92 7.96 13.42Q8.05 12.93 8.14 12.46Q8.24 11.98 8.30 11.74L8.30 11.74L9.55 7.31L11.76 7.31L12.96 11.74Q13.02 12.03 13.13 12.50Q13.23 12.96 13.31 13.43Q13.39 13.90 13.41 14.19L13.41 14.19L13.47 14.19Q13.50 13.94 13.58 13.46Q13.66 12.98 13.78 12.43Q13.89 11.89 14.02 11.46L14.02 11.46L15.10 7.31L17.10 7.31L14.64 16ZM26.32 11.65L26.32 11.65Q26.32 13.81 25.20 14.98Q24.08 16.16 22.16 16.16L22.16 16.16Q20.98 16.16 20.05 15.63Q19.12 15.10 18.59 14.10Q18.06 13.09 18.06 11.65L18.06 11.65Q18.06 9.49 19.18 8.33Q20.29 7.17 22.21 7.17L22.21 7.17Q23.41 7.17 24.34 7.69Q25.26 8.21 25.79 9.21Q26.32 10.21 26.32 11.65ZM20.13 11.65L20.13 11.65Q20.13 13.02 20.62 13.78Q21.10 14.53 22.19 14.53L22.19 14.53Q23.28 14.53 23.77 13.78Q24.26 13.02 24.26 11.65L24.26 11.65Q24.26 10.27 23.77 9.54Q23.28 8.80 22.18 8.80L22.18 8.80Q21.10 8.80 20.62 9.54Q20.13 10.27 20.13 11.65ZM32.94 7.17L32.94 7.17Q33.15 7.17 33.40 7.18Q33.65 7.20 33.82 7.25L33.82 7.25L33.65 9.12Q33.49 9.09 33.26 9.06Q33.04 9.04 32.86 9.04L32.86 9.04Q32.22 9.04 31.66 9.30Q31.10 9.57 30.76 10.12Q30.42 10.67 30.42 11.50L30.42 11.50L30.42 16L28.40 16L28.40 7.33L29.95 7.33L30.24 8.83L30.34 8.83Q30.72 8.14 31.39 7.66Q32.06 7.17 32.94 7.17ZM35.42 3.84L37.42 3.84L37.42 9.62Q37.42 10.03 37.39 10.50Q37.36 10.96 37.33 11.38L37.33 11.38L37.38 11.38Q37.57 11.09 37.86 10.72Q38.14 10.35 38.40 10.06L38.40 10.06L40.96 7.33L43.25 7.33L39.78 11.07L43.47 16L41.12 16L38.43 12.29L37.42 13.12L37.42 16L35.42 16L35.42 3.84ZM44.54 14.98L44.54 14.98Q44.54 14.30 44.90 14.02Q45.25 13.74 45.76 13.74L45.76 13.74Q46.26 13.74 46.62 14.02Q46.99 14.30 46.99 14.98L46.99 14.98Q46.99 15.63 46.62 15.92Q46.26 16.21 45.76 16.21L45.76 16.21Q45.25 16.21 44.90 15.92Q44.54 15.63 44.54 14.98ZM53.86 7.17L53.86 7.17Q55.38 7.17 56.30 8.30Q57.23 9.42 57.23 11.65L57.23 11.65Q57.23 13.87 56.28 15.02Q55.33 16.16 53.81 16.16L53.81 16.16Q52.85 16.16 52.26 15.81Q51.66 15.46 51.31 14.99L51.31 14.99L51.18 14.99Q51.23 15.30 51.27 15.66Q51.31 16.02 51.31 16.32L51.31 16.32L51.31 19.84L49.30 19.84L49.30 7.33L50.93 7.33L51.22 8.48L51.31 8.48Q51.66 7.94 52.27 7.55Q52.88 7.17 53.86 7.17ZM53.28 8.80L53.28 8.80Q52.21 8.80 51.77 9.44Q51.33 10.08 51.31 11.38L51.31 11.38L51.31 11.63Q51.31 13.02 51.74 13.77Q52.16 14.51 53.31 14.51L53.31 14.51Q54.26 14.51 54.71 13.74Q55.17 12.96 55.17 11.62L55.17 11.62Q55.17 10.27 54.71 9.54Q54.26 8.80 53.28 8.80ZM63.86 7.17L63.86 7.17Q64.06 7.17 64.31 7.18Q64.56 7.20 64.74 7.25L64.74 7.25L64.56 9.12Q64.40 9.09 64.18 9.06Q63.95 9.04 63.78 9.04L63.78 9.04Q63.14 9.04 62.58 9.30Q62.02 9.57 61.67 10.12Q61.33 10.67 61.33 11.50L61.33 11.50L61.33 16L59.31 16L59.31 7.33L60.86 7.33L61.15 8.83L61.25 8.83Q61.63 8.14 62.30 7.66Q62.98 7.17 63.86 7.17ZM67.34 3.98L67.34 3.98Q67.81 3.98 68.14 4.22Q68.46 4.45 68.46 5.04L68.46 5.04Q68.46 5.63 68.14 5.87Q67.81 6.11 67.34 6.11L67.34 6.11Q66.88 6.11 66.55 5.87Q66.22 5.63 66.22 5.04L66.22 5.04Q66.22 4.45 66.55 4.22Q66.88 3.98 67.34 3.98ZM66.34 7.33L68.35 7.33L68.35 16L66.34 16L66.34 7.33ZM78.67 11.65L78.67 11.65Q78.67 13.81 77.55 14.98Q76.43 16.16 74.51 16.16L74.51 16.16Q73.33 16.16 72.40 15.63Q71.47 15.10 70.94 14.10Q70.42 13.09 70.42 11.65L70.42 11.65Q70.42 9.49 71.53 8.33Q72.64 7.17 74.56 7.17L74.56 7.17Q75.76 7.17 76.69 7.69Q77.62 8.21 78.14 9.21Q78.67 10.21 78.67 11.65ZM72.48 11.65L72.48 11.65Q72.48 13.02 72.97 13.78Q73.46 14.53 74.54 14.53L74.54 14.53Q75.63 14.53 76.12 13.78Q76.61 13.02 76.61 11.65L76.61 11.65Q76.61 10.27 76.12 9.54Q75.63 8.80 74.53 8.80L74.53 8.80Q73.46 8.80 72.97 9.54Q72.48 10.27 72.48 11.65ZM85.30 7.17L85.30 7.17Q85.50 7.17 85.75 7.18Q86.00 7.20 86.18 7.25L86.18 7.25L86.00 9.12Q85.84 9.09 85.62 9.06Q85.39 9.04 85.22 9.04L85.22 9.04Q84.58 9.04 84.02 9.30Q83.46 9.57 83.11 10.12Q82.77 10.67 82.77 11.50L82.77 11.50L82.77 16L80.75 16L80.75 7.33L82.30 7.33L82.59 8.83L82.69 8.83Q83.07 8.14 83.74 7.66Q84.42 7.17 85.30 7.17ZM88.78 3.98L88.78 3.98Q89.25 3.98 89.58 4.22Q89.90 4.45 89.90 5.04L89.90 5.04Q89.90 5.63 89.58 5.87Q89.25 6.11 88.78 6.11L88.78 6.11Q88.32 6.11 87.99 5.87Q87.66 5.63 87.66 5.04L87.66 5.04Q87.66 4.45 87.99 4.22Q88.32 3.98 88.78 3.98ZM87.78 7.33L89.79 7.33L89.79 16L87.78 16L87.78 7.33ZM95.73 14.54L95.73 14.54Q96.10 14.54 96.46 14.47Q96.82 14.40 97.12 14.30L97.12 14.30L97.12 15.81Q96.80 15.95 96.29 16.06Q95.78 16.16 95.22 16.16L95.22 16.16Q94.48 16.16 93.87 15.91Q93.26 15.66 92.91 15.06Q92.56 14.45 92.56 13.36L92.56 13.36L92.56 8.85L91.39 8.85L91.39 7.97L92.67 7.26L93.31 5.42L94.58 5.42L94.58 7.33L97.04 7.33L97.04 8.85L94.58 8.85L94.58 13.34Q94.58 13.95 94.90 14.25Q95.22 14.54 95.73 14.54ZM101.04 15.97L97.57 7.33L99.76 7.33L101.49 12.22Q101.66 12.69 101.78 13.14Q101.89 13.58 101.94 14.05L101.94 14.05L102.00 14.05Q102.06 13.65 102.19 13.17Q102.32 12.69 102.48 12.22L102.48 12.22L104.14 7.33L106.32 7.33L102.62 17.15Q102.13 18.45 101.27 19.14Q100.42 19.84 99.17 19.84L99.17 19.84Q98.77 19.84 98.48 19.80Q98.19 19.76 97.97 19.71L97.97 19.71L97.97 18.11Q98.14 18.14 98.39 18.18Q98.64 18.21 98.91 18.21L98.91 18.21Q99.66 18.21 100.10 17.77Q100.54 17.33 100.78 16.67L100.78 16.67L101.04 15.97ZM111.12 16.16L111.12 16.16Q109.25 16.16 108.18 15.09Q107.10 14.02 107.10 11.71L107.10 11.71Q107.10 10.11 107.64 9.11Q108.18 8.11 109.12 7.64Q110.06 7.17 111.28 7.17L111.28 7.17Q112.10 7.17 112.74 7.33Q113.38 7.49 113.82 7.71L113.82 7.71L113.23 9.30Q112.74 9.10 112.24 8.97Q111.74 8.83 111.28 8.83L111.28 8.83Q109.17 8.83 109.17 11.70L109.17 11.70Q109.17 13.09 109.70 13.79Q110.24 14.50 111.25 14.50L111.25 14.50Q111.97 14.50 112.53 14.32Q113.09 14.14 113.60 13.84L113.60 13.84L113.60 15.58Q113.10 15.87 112.54 16.02Q111.97 16.16 111.12 16.16ZM115.63 3.84L117.63 3.84L117.63 9.62Q117.63 10.03 117.60 10.50Q117.57 10.96 117.54 11.38L117.54 11.38L117.58 11.38Q117.78 11.09 118.06 10.72Q118.35 10.35 118.61 10.06L118.61 10.06L121.17 7.33L123.46 7.33L119.98 11.07L123.68 16L121.33 16L118.64 12.29L117.63 13.12L117.63 16L115.63 16L115.63 3.84ZM128.40 14.54L128.40 14.54Q128.77 14.54 129.13 14.47Q129.49 14.40 129.79 14.30L129.79 14.30L129.79 15.81Q129.47 15.95 128.96 16.06Q128.45 16.16 127.89 16.16L127.89 16.16Q127.15 16.16 126.54 15.91Q125.94 15.66 125.58 15.06Q125.23 14.45 125.23 13.36L125.23 13.36L125.23 8.85L124.06 8.85L124.06 7.97L125.34 7.26L125.98 5.42L127.25 5.42L127.25 7.33L129.71 7.33L129.71 8.85L127.25 8.85L127.25 13.34Q127.25 13.95 127.57 14.25Q127.89 14.54 128.40 14.54ZM130.88 11.62L130.88 11.62Q130.88 9.66 131.45 7.85Q132.02 6.03 133.23 4.58L133.23 4.58L134.94 4.58Q133.84 6.08 133.28 7.89Q132.72 9.70 132.72 11.60L132.72 11.60Q132.72 13.46 133.28 15.25Q133.84 17.04 134.93 18.53L134.93 18.53L133.23 18.53Q132.02 17.12 131.45 15.34Q130.88 13.55 130.88 11.62ZM142.62 13.49L142.62 13.49Q142.62 14.80 141.69 15.48Q140.75 16.16 139.01 16.16L139.01 16.16Q138.10 16.16 137.45 16.03Q136.80 15.90 136.19 15.63L136.19 15.63L136.19 13.92Q136.83 14.22 137.61 14.43Q138.38 14.64 139.07 14.64L139.07 14.64Q139.90 14.64 140.27 14.38Q140.64 14.13 140.64 13.70L140.64 13.70Q140.64 13.44 140.50 13.24Q140.35 13.04 139.93 12.80Q139.50 12.56 138.67 12.21L138.67 12.21Q137.84 11.89 137.29 11.54Q136.74 11.20 136.46 10.74Q136.18 10.27 136.18 9.54L136.18 9.54Q136.18 8.37 137.10 7.77Q138.02 7.17 139.55 7.17L139.55 7.17Q140.35 7.17 141.06 7.33Q141.78 7.49 142.50 7.81L142.50 7.81L141.86 9.30Q141.25 9.04 140.67 8.86Q140.10 8.69 139.49 8.69L139.49 8.69Q138.16 8.69 138.16 9.44L138.16 9.44Q138.16 9.71 138.33 9.90Q138.50 10.10 138.92 10.31Q139.34 10.53 140.13 10.83L140.13 10.83Q140.90 11.14 141.46 11.46Q142.02 11.79 142.32 12.27Q142.62 12.75 142.62 13.49ZM146.74 15.97L143.26 7.33L145.46 7.33L147.18 12.22Q147.36 12.69 147.47 13.14Q147.58 13.58 147.63 14.05L147.63 14.05L147.70 14.05Q147.76 13.65 147.89 13.17Q148.02 12.69 148.18 12.22L148.18 12.22L149.84 7.33L152.02 7.33L148.32 17.15Q147.82 18.45 146.97 19.14Q146.11 19.84 144.86 19.84L144.86 19.84Q144.46 19.84 144.18 19.80Q143.89 19.76 143.66 19.71L143.66 19.71L143.66 18.11Q143.84 18.14 144.09 18.18Q144.34 18.21 144.61 18.21L144.61 18.21Q145.36 18.21 145.80 17.77Q146.24 17.33 146.48 16.67L146.48 16.67L146.74 15.97ZM157.95 7.17L157.95 7.17Q159.41 7.17 160.23 7.92Q161.06 8.67 161.06 10.35L161.06 10.35L161.06 16L159.04 16L159.04 10.75Q159.04 8.80 157.44 8.80L157.44 8.80Q156.22 8.80 155.78 9.57Q155.33 10.34 155.33 11.76L155.33 11.76L155.33 16L153.31 16L153.31 7.33L154.86 7.33L155.15 8.46L155.26 8.46Q155.68 7.79 156.41 7.48Q157.14 7.17 157.95 7.17ZM166.94 14.54L166.94 14.54Q167.31 14.54 167.67 14.47Q168.03 14.40 168.34 14.30L168.34 14.30L168.34 15.81Q168.02 15.95 167.50 16.06Q166.99 16.16 166.43 16.16L166.43 16.16Q165.70 16.16 165.09 15.91Q164.48 15.66 164.13 15.06Q163.78 14.45 163.78 13.36L163.78 13.36L163.78 8.85L162.61 8.85L162.61 7.97L163.89 7.26L164.53 5.42L165.79 5.42L165.79 7.33L168.26 7.33L168.26 8.85L165.79 8.85L165.79 13.34Q165.79 13.95 166.11 14.25Q166.43 14.54 166.94 14.54ZM170.08 3.84L172.10 3.84L172.10 6.74Q172.10 7.25 172.06 7.74Q172.02 8.22 171.98 8.46L171.98 8.46L172.11 8.46Q172.53 7.81 173.20 7.49Q173.87 7.17 174.69 7.17L174.69 7.17Q176.16 7.17 176.99 7.92Q177.82 8.67 177.82 10.35L177.82 10.35L177.82 16L175.81 16L175.81 10.75Q175.81 8.80 174.21 8.80L174.21 8.80Q172.99 8.80 172.54 9.57Q172.10 10.34 172.10 11.76L172.10 11.76L172.10 16L170.08 16L170.08 3.84ZM183.60 11.62L183.60 11.62Q183.60 13.55 183.03 15.34Q182.46 17.12 181.25 18.53L181.25 18.53L179.55 18.53Q180.64 17.04 181.21 15.25Q181.78 13.46 181.78 11.60L181.78 11.60Q181.78 9.70 181.21 7.89Q180.64 6.08 179.54 4.58L179.54 4.58L181.25 4.58Q182.46 6.03 183.03 7.85Q183.60 9.66 183.60 11.62Z" class="sprotty-block-name" style="fill:rgb(48, 48, 48);stroke:rgba(0, 0, 0, 0);"/><line x1="0" y1="20" x2="188.24" y2="20"/></g><g id="sprotty_ArchitectureBlockImpl$work.priorityckt(synth)/GPortImpl$a_to_ArchitectureBlockImpl$work.priorityckt(synth)/ProcessBlockImpl$null2/GPortImpl$a" class="sprotty-edge thick edge" style="fill:none;stroke:rgb(112, 112, 112);stroke-linejoin:round;stroke-width:3px;"><path d="M 0 45 L 33.461299896240234 45 "/></g><g id="sprotty_ArchitectureBlockImpl$work.priorityckt(synth)/ProcessBlockImpl$null2/GPortImpl$y_to_ArchitectureBlockImpl$work.priorityckt(synth)/GPortImpl$y" class="sprotty-edge thick edge" style="fill:none;stroke:rgb(112, 112, 112);stroke-linejoin:round;stroke-width:3px;"><path d="M 48.461299896240234 45 L 188.23828125 45 "/></g><g id="sprotty_ArchitectureBlockImpl$work.priorityckt(synth)/GPortImpl$a" transform="translate(0, 45)" class="triangle"><path d="M 0,0 L 5,2.5 L 0,5 Z" transform="translate(-1.67, -2.5)" class="sprotty-port" style="fill:rgb(48, 48, 48);stroke:rgb(48, 48, 48);"/><g class="port sprotty-label" id="sprotty_ArchitectureBlockImpl$work.priorityckt(synth)/GPortImpl$a/label" transform="translate(3, 3) translate(0, -0.13300000131130219)" style="cursor:default;fill:rgb(48, 48, 48);font-family:Arial, Helvetica, sans-serif;text-anchor:middle;"><path d="M2.86 0.13L2.86 0.13Q1.89 0.13 1.25-0.38Q0.61-0.89 0.61-1.98L0.61-1.98Q0.61-3.05 1.45-3.62Q2.29-4.20 4.03-4.26L4.03-4.26L5.24-4.30L5.24-4.72Q5.24-5.61 4.85-5.96Q4.47-6.30 3.76-6.30L3.76-6.30Q3.21-6.30 2.70-6.14Q2.19-5.97 1.76-5.76L1.76-5.76L1.40-6.64Q1.86-6.89 2.50-7.07Q3.14-7.25 3.83-7.25L3.83-7.25Q5.13-7.25 5.76-6.68Q6.38-6.10 6.38-4.85L6.38-4.85L6.38 0L5.53 0L5.31-1.01L5.25-1.01Q4.79-0.43 4.28-0.15Q3.76 0.13 2.86 0.13ZM3.13-0.81L3.13-0.81Q4.03-0.81 4.63-1.31Q5.23-1.81 5.23-2.85L5.23-2.85L5.23-3.48L4.18-3.44Q2.85-3.39 2.33-3.02Q1.82-2.65 1.82-1.97L1.82-1.97Q1.82-1.37 2.19-1.09Q2.55-0.81 3.13-0.81Z" transform="translate(4, 9.3815)"/><rect x="0" y="0.133" width="15.461300000000001" height="11.3815" class="clickable" style="cursor:pointer;fill:rgba(0, 0, 0, 0);fill-opacity:0;stroke-width:0px;"/></g></g><g id="sprotty_ArchitectureBlockImpl$work.priorityckt(synth)/GPortImpl$y" transform="translate(188.23828125, 45)" class="triangle"><path d="M 0,0 L 5,2.5 L 0,5 Z" transform="translate(-1.67, -2.5)" class="sprotty-port" style="fill:rgb(48, 48, 48);stroke:rgb(48, 48, 48);"/><g class="port sprotty-label" id="sprotty_ArchitectureBlockImpl$work.priorityckt(synth)/GPortImpl$y/label" transform="translate(-17.782999992370605, 3) translate(0, -3.191999912261963)" style="cursor:default;fill:rgb(48, 48, 48);font-family:Arial, Helvetica, sans-serif;text-anchor:middle;"><path d="M1.12 3.19L1.12 3.19Q0.80 3.19 0.56 3.16Q0.32 3.13 0.15 3.09L0.15 3.09L0.15 2.15Q0.29 2.18 0.50 2.21Q0.70 2.23 0.93 2.23L0.93 2.23Q1.54 2.23 1.92 1.89Q2.29 1.54 2.51 0.97L2.51 0.97L2.89 0.03L0.01-7.13L1.26-7.13L2.81-3.07Q3.01-2.54 3.17-2.05Q3.33-1.57 3.40-1.13L3.40-1.13L3.46-1.13Q3.54-1.46 3.70-2.00Q3.87-2.54 4.07-3.09L4.07-3.09L5.52-7.13L6.78-7.13L3.71 0.98Q3.34 2.00 2.75 2.59Q2.15 3.19 1.12 3.19Z" transform="translate(4, 12.320800000000002)"/><rect x="0" y="3.192" width="14.783000000000001" height="14.320800000000002" class="clickable" style="cursor:pointer;fill:rgba(0, 0, 0, 0);fill-opacity:0;stroke-width:0px;"/></g></g><g id="sprotty_ArchitectureBlockImpl$work.priorityckt(synth)/ProcessBlockImpl$null2" transform="translate(33.461299896240234, 35)" class="statement"><rect x="0" y="0" rx="10" ry="5" width="15" height="20" class="sprotty-node" style="fill:rgb(245, 245, 245);stroke:rgb(112, 112, 112);"/><g id="sprotty_ArchitectureBlockImpl$work.priorityckt(synth)/ProcessBlockImpl$null2/GPortImpl$a" transform="translate(0, 10)" class="sprotty-hidden hidden" style="display:block;height:0px;width:0px;"/><g id="sprotty_ArchitectureBlockImpl$work.priorityckt(synth)/ProcessBlockImpl$null2/GPortImpl$y" transform="translate(15, 10)" class="sprotty-hidden hidden" style="display:block;height:0px;width:0px;"/></g></g></g></svg>