<svg xmlns="http://www.w3.org/2000/svg" id="sprotty_priorityckt_tb" class="sprotty-graph sprotty-block-diagram blockdiagram" style="font-family:&quot;Helvetica Neue&quot;, Helvetica, Arial, sans-serif;line-height:18px;perspective-origin:0px 0px;transform-origin:0px 0px;z-index:0;" version="1.1" viewBox="9.5 12 270.0290966796875 108.32080078125"><g transform="scale(1) translate(0,0)"><g id="sprotty_ArchitectureBlockImpl$work.priorityckt_tb(RTL)" transform="translate(12, 12)" class="architecture"><g class="sprotty-block" style="fill:rgb(245, 245, 245);stroke:rgb(48, 48, 48);stroke-dasharray:0px;"><rect x="0" y="0" rx="1" ry="1" width="263.1990966796875" height="108.32080078125"/><path d="M48.17 16L45.93 16L44.97 12.27Q44.89 11.97 44.78 11.51Q44.66 11.06 44.54 10.56Q44.42 10.06 44.33 9.65Q44.23 9.23 44.18 9.01L44.18 9.01L44.12 9.01Q44.07 9.23 43.98 9.65Q43.88 10.06 43.77 10.57Q43.66 11.07 43.54 11.53Q43.42 11.98 43.34 12.29L43.34 12.29L42.33 16L40.12 16L37.69 7.31L39.72 7.31L40.79 11.46Q40.90 11.89 41.01 12.41Q41.11 12.93 41.18 13.42Q41.26 13.90 41.30 14.21L41.30 14.21L41.37 14.21Q41.40 13.92 41.49 13.42Q41.58 12.93 41.67 12.46Q41.77 11.98 41.83 11.74L41.83 11.74L43.08 7.31L45.29 7.31L46.49 11.74Q46.55 12.03 46.66 12.50Q46.76 12.96 46.84 13.43Q46.92 13.90 46.94 14.19L46.94 14.19L47.00 14.19Q47.03 13.94 47.11 13.46Q47.19 12.98 47.30 12.43Q47.42 11.89 47.54 11.46L47.54 11.46L48.63 7.31L50.63 7.31L48.17 16ZM59.85 11.65L59.85 11.65Q59.85 13.81 58.73 14.98Q57.61 16.16 55.69 16.16L55.69 16.16Q54.50 16.16 53.58 15.63Q52.65 15.10 52.12 14.10Q51.59 13.09 51.59 11.65L51.59 11.65Q51.59 9.49 52.70 8.33Q53.82 7.17 55.74 7.17L55.74 7.17Q56.94 7.17 57.86 7.69Q58.79 8.21 59.32 9.21Q59.85 10.21 59.85 11.65ZM53.66 11.65L53.66 11.65Q53.66 13.02 54.14 13.78Q54.63 14.53 55.72 14.53L55.72 14.53Q56.81 14.53 57.30 13.78Q57.78 13.02 57.78 11.65L57.78 11.65Q57.78 10.27 57.30 9.54Q56.81 8.80 55.70 8.80L55.70 8.80Q54.63 8.80 54.14 9.54Q53.66 10.27 53.66 11.65ZM66.47 7.17L66.47 7.17Q66.68 7.17 66.93 7.18Q67.18 7.20 67.35 7.25L67.35 7.25L67.18 9.12Q67.02 9.09 66.79 9.06Q66.57 9.04 66.39 9.04L66.39 9.04Q65.75 9.04 65.19 9.30Q64.63 9.57 64.29 10.12Q63.94 10.67 63.94 11.50L63.94 11.50L63.94 16L61.93 16L61.93 7.33L63.48 7.33L63.77 8.83L63.86 8.83Q64.25 8.14 64.92 7.66Q65.59 7.17 66.47 7.17ZM68.95 3.84L70.95 3.84L70.95 9.62Q70.95 10.03 70.92 10.50Q70.89 10.96 70.86 11.38L70.86 11.38L70.90 11.38Q71.10 11.09 71.38 10.72Q71.67 10.35 71.93 10.06L71.93 10.06L74.49 7.33L76.78 7.33L73.30 11.07L77.00 16L74.65 16L71.96 12.29L70.95 13.12L70.95 16L68.95 16L68.95 3.84ZM78.07 14.98L78.07 14.98Q78.07 14.30 78.42 14.02Q78.78 13.74 79.29 13.74L79.29 13.74Q79.78 13.74 80.15 14.02Q80.52 14.30 80.52 14.98L80.52 14.98Q80.52 15.63 80.15 15.92Q79.78 16.21 79.29 16.21L79.29 16.21Q78.78 16.21 78.42 15.92Q78.07 15.63 78.07 14.98ZM87.38 7.17L87.38 7.17Q88.90 7.17 89.83 8.30Q90.76 9.42 90.76 11.65L90.76 11.65Q90.76 13.87 89.81 15.02Q88.86 16.16 87.34 16.16L87.34 16.16Q86.38 16.16 85.78 15.81Q85.19 15.46 84.84 14.99L84.84 14.99L84.71 14.99Q84.76 15.30 84.80 15.66Q84.84 16.02 84.84 16.32L84.84 16.32L84.84 19.84L82.82 19.84L82.82 7.33L84.46 7.33L84.74 8.48L84.84 8.48Q85.19 7.94 85.80 7.55Q86.41 7.17 87.38 7.17ZM86.81 8.80L86.81 8.80Q85.74 8.80 85.30 9.44Q84.86 10.08 84.84 11.38L84.84 11.38L84.84 11.63Q84.84 13.02 85.26 13.77Q85.69 14.51 86.84 14.51L86.84 14.51Q87.78 14.51 88.24 13.74Q88.70 12.96 88.70 11.62L88.70 11.62Q88.70 10.27 88.24 9.54Q87.78 8.80 86.81 8.80ZM97.38 7.17L97.38 7.17Q97.59 7.17 97.84 7.18Q98.09 7.20 98.26 7.25L98.26 7.25L98.09 9.12Q97.93 9.09 97.70 9.06Q97.48 9.04 97.30 9.04L97.30 9.04Q96.66 9.04 96.10 9.30Q95.54 9.57 95.20 10.12Q94.86 10.67 94.86 11.50L94.86 11.50L94.86 16L92.84 16L92.84 7.33L94.39 7.33L94.68 8.83L94.78 8.83Q95.16 8.14 95.83 7.66Q96.50 7.17 97.38 7.17ZM100.87 3.98L100.87 3.98Q101.34 3.98 101.66 4.22Q101.99 4.45 101.99 5.04L101.99 5.04Q101.99 5.63 101.66 5.87Q101.34 6.11 100.87 6.11L100.87 6.11Q100.41 6.11 100.08 5.87Q99.75 5.63 99.75 5.04L99.75 5.04Q99.75 4.45 100.08 4.22Q100.41 3.98 100.87 3.98ZM99.86 7.33L101.88 7.33L101.88 16L99.86 16L99.86 7.33ZM112.20 11.65L112.20 11.65Q112.20 13.81 111.08 14.98Q109.96 16.16 108.04 16.16L108.04 16.16Q106.86 16.16 105.93 15.63Q105.00 15.10 104.47 14.10Q103.94 13.09 103.94 11.65L103.94 11.65Q103.94 9.49 105.06 8.33Q106.17 7.17 108.09 7.17L108.09 7.17Q109.29 7.17 110.22 7.69Q111.14 8.21 111.67 9.21Q112.20 10.21 112.20 11.65ZM106.01 11.65L106.01 11.65Q106.01 13.02 106.50 13.78Q106.98 14.53 108.07 14.53L108.07 14.53Q109.16 14.53 109.65 13.78Q110.14 13.02 110.14 11.65L110.14 11.65Q110.14 10.27 109.65 9.54Q109.16 8.80 108.06 8.80L108.06 8.80Q106.98 8.80 106.50 9.54Q106.01 10.27 106.01 11.65ZM118.82 7.17L118.82 7.17Q119.03 7.17 119.28 7.18Q119.53 7.20 119.70 7.25L119.70 7.25L119.53 9.12Q119.37 9.09 119.14 9.06Q118.92 9.04 118.74 9.04L118.74 9.04Q118.10 9.04 117.54 9.30Q116.98 9.57 116.64 10.12Q116.30 10.67 116.30 11.50L116.30 11.50L116.30 16L114.28 16L114.28 7.33L115.83 7.33L116.12 8.83L116.22 8.83Q116.60 8.14 117.27 7.66Q117.94 7.17 118.82 7.17ZM122.31 3.98L122.31 3.98Q122.78 3.98 123.10 4.22Q123.43 4.45 123.43 5.04L123.43 5.04Q123.43 5.63 123.10 5.87Q122.78 6.11 122.31 6.11L122.31 6.11Q121.85 6.11 121.52 5.87Q121.19 5.63 121.19 5.04L121.19 5.04Q121.19 4.45 121.52 4.22Q121.85 3.98 122.31 3.98ZM121.30 7.33L123.32 7.33L123.32 16L121.30 16L121.30 7.33ZM129.26 14.54L129.26 14.54Q129.62 14.54 129.98 14.47Q130.34 14.40 130.65 14.30L130.65 14.30L130.65 15.81Q130.33 15.95 129.82 16.06Q129.30 16.16 128.74 16.16L128.74 16.16Q128.01 16.16 127.40 15.91Q126.79 15.66 126.44 15.06Q126.09 14.45 126.09 13.36L126.09 13.36L126.09 8.85L124.92 8.85L124.92 7.97L126.20 7.26L126.84 5.42L128.10 5.42L128.10 7.33L130.57 7.33L130.57 8.85L128.10 8.85L128.10 13.34Q128.10 13.95 128.42 14.25Q128.74 14.54 129.26 14.54ZM134.57 15.97L131.10 7.33L133.29 7.33L135.02 12.22Q135.19 12.69 135.30 13.14Q135.42 13.58 135.46 14.05L135.46 14.05L135.53 14.05Q135.59 13.65 135.72 13.17Q135.85 12.69 136.01 12.22L136.01 12.22L137.67 7.33L139.85 7.33L136.15 17.15Q135.66 18.45 134.80 19.14Q133.94 19.84 132.70 19.84L132.70 19.84Q132.30 19.84 132.01 19.80Q131.72 19.76 131.50 19.71L131.50 19.71L131.50 18.11Q131.67 18.14 131.92 18.18Q132.17 18.21 132.44 18.21L132.44 18.21Q133.19 18.21 133.63 17.77Q134.07 17.33 134.31 16.67L134.31 16.67L134.57 15.97ZM144.65 16.16L144.65 16.16Q142.78 16.16 141.70 15.09Q140.63 14.02 140.63 11.71L140.63 11.71Q140.63 10.11 141.17 9.11Q141.70 8.11 142.65 7.64Q143.59 7.17 144.81 7.17L144.81 7.17Q145.62 7.17 146.26 7.33Q146.90 7.49 147.35 7.71L147.35 7.71L146.76 9.30Q146.26 9.10 145.77 8.97Q145.27 8.83 144.81 8.83L144.81 8.83Q142.70 8.83 142.70 11.70L142.70 11.70Q142.70 13.09 143.23 13.79Q143.77 14.50 144.78 14.50L144.78 14.50Q145.50 14.50 146.06 14.32Q146.62 14.14 147.13 13.84L147.13 13.84L147.13 15.58Q146.63 15.87 146.06 16.02Q145.50 16.16 144.65 16.16ZM149.16 3.84L151.16 3.84L151.16 9.62Q151.16 10.03 151.13 10.50Q151.10 10.96 151.06 11.38L151.06 11.38L151.11 11.38Q151.30 11.09 151.59 10.72Q151.88 10.35 152.14 10.06L152.14 10.06L154.70 7.33L156.98 7.33L153.51 11.07L157.21 16L154.86 16L152.17 12.29L151.16 13.12L151.16 16L149.16 16L149.16 3.84ZM161.93 14.54L161.93 14.54Q162.30 14.54 162.66 14.47Q163.02 14.40 163.32 14.30L163.32 14.30L163.32 15.81Q163.00 15.95 162.49 16.06Q161.98 16.16 161.42 16.16L161.42 16.16Q160.68 16.16 160.07 15.91Q159.46 15.66 159.11 15.06Q158.76 14.45 158.76 13.36L158.76 13.36L158.76 8.85L157.59 8.85L157.59 7.97L158.87 7.26L159.51 5.42L160.78 5.42L160.78 7.33L163.24 7.33L163.24 8.85L160.78 8.85L160.78 13.34Q160.78 13.95 161.10 14.25Q161.42 14.54 161.93 14.54ZM170.57 17.44L170.57 18.50L163.74 18.50L163.74 17.44L170.57 17.44ZM175.19 14.54L175.19 14.54Q175.56 14.54 175.92 14.47Q176.28 14.40 176.58 14.30L176.58 14.30L176.58 15.81Q176.26 15.95 175.75 16.06Q175.24 16.16 174.68 16.16L174.68 16.16Q173.94 16.16 173.34 15.91Q172.73 15.66 172.38 15.06Q172.02 14.45 172.02 13.36L172.02 13.36L172.02 8.85L170.86 8.85L170.86 7.97L172.14 7.26L172.78 5.42L174.04 5.42L174.04 7.33L176.50 7.33L176.50 8.85L174.04 8.85L174.04 13.34Q174.04 13.95 174.36 14.25Q174.68 14.54 175.19 14.54ZM178.33 3.84L180.34 3.84L180.34 6.72Q180.34 7.23 180.31 7.71Q180.28 8.19 180.25 8.46L180.25 8.46L180.34 8.46Q180.70 7.92 181.30 7.54Q181.91 7.17 182.89 7.17L182.89 7.17Q184.39 7.17 185.33 8.30Q186.26 9.44 186.26 11.65L186.26 11.65Q186.26 13.89 185.32 15.02Q184.38 16.16 182.84 16.16L182.84 16.16Q181.86 16.16 181.28 15.81Q180.70 15.46 180.34 14.99L180.34 14.99L180.20 14.99L179.83 16L178.33 16L178.33 3.84ZM182.31 8.80L182.31 8.80Q181.22 8.80 180.79 9.46Q180.36 10.11 180.34 11.47L180.34 11.47L180.34 11.65Q180.34 13.04 180.77 13.78Q181.19 14.51 182.34 14.51L182.34 14.51Q183.24 14.51 183.72 13.77Q184.20 13.02 184.20 11.63L184.20 11.63Q184.20 10.21 183.71 9.50Q183.22 8.80 182.31 8.80ZM187.69 11.62L187.69 11.62Q187.69 9.66 188.26 7.85Q188.82 6.03 190.04 4.58L190.04 4.58L191.75 4.58Q190.65 6.08 190.09 7.89Q189.53 9.70 189.53 11.60L189.53 11.60Q189.53 13.46 190.09 15.25Q190.65 17.04 191.74 18.53L191.74 18.53L190.04 18.53Q188.82 17.12 188.26 15.34Q187.69 13.55 187.69 11.62ZM193.72 4.58L196.97 4.58Q199.22 4.58 200.30 5.41Q201.38 6.24 201.38 7.94L201.38 7.94Q201.38 8.77 201.07 9.36Q200.76 9.95 200.26 10.34Q199.77 10.74 199.19 10.98L199.19 10.98L202.47 16L200.17 16L197.43 11.49L195.77 11.49L195.77 16L193.72 16L193.72 4.58ZM196.84 6.29L196.84 6.29L195.77 6.29L195.77 9.81L196.90 9.81Q198.17 9.81 198.74 9.35Q199.30 8.90 199.30 8L199.30 8Q199.30 7.07 198.70 6.68Q198.10 6.29 196.84 6.29ZM208.15 6.30L208.15 16L206.10 16L206.10 6.30L202.82 6.30L202.82 4.58L211.43 4.58L211.43 6.30L208.15 6.30ZM219.99 16L213.18 16L213.18 4.58L215.22 4.58L215.22 14.27L219.99 14.27L219.99 16ZM225.03 11.62L225.03 11.62Q225.03 13.55 224.46 15.34Q223.90 17.12 222.68 18.53L222.68 18.53L220.98 18.53Q222.07 17.04 222.64 15.25Q223.21 13.46 223.21 11.60L223.21 11.60Q223.21 9.70 222.64 7.89Q222.07 6.08 220.97 4.58L220.97 4.58L222.68 4.58Q223.90 6.03 224.46 7.85Q225.03 9.66 225.03 11.62Z" class="sprotty-block-name" style="fill:rgb(48, 48, 48);stroke:rgba(0, 0, 0, 0);"/><line x1="0" y1="20" x2="263.1990966796875" y2="20"/></g><g id="sprotty_ArchitectureBlockImpl$work.priorityckt_tb(RTL)/ProcessBlockImpl$stimulus/GPortImpl$a_to_ArchitectureBlockImpl$work.priorityckt_tb(RTL)/InstantiationBlockImpl$DUT/BPortImpl$a" class="sprotty-edge thick edge" style="fill:none;stroke:rgb(112, 112, 112);stroke-linejoin:round;stroke-width:3px;"><path d="M 92.3280029296875 74.160400390625 L 112.3280029296875 74.160400390625 "/></g><g id="sprotty_ArchitectureBlockImpl$work.priorityckt_tb(RTL)/ProcessBlockImpl$stimulus" transform="translate(15, 63.000244140625)" class="statement"><rect x="0" y="0" rx="10" ry="5" width="77.3280029296875" height="22.3203125" class="sprotty-node" style="fill:rgb(245, 245, 245);stroke:rgb(112, 112, 112);"/><g id="sprotty_ArchitectureBlockImpl$work.priorityckt_tb(RTL)/ProcessBlockImpl$stimulus/label" transform="translate(5, 5) translate(0, -0.15984344482421875)" class="sprotty-label process" style="cursor:default;fill:rgb(48, 48, 48);font-family:Arial, Helvetica, sans-serif;text-anchor:middle;"><path d="M7.20-2.51L7.20-2.51Q7.20-1.20 6.26-0.52Q5.33 0.16 3.58 0.16L3.58 0.16Q2.67 0.16 2.02 0.03Q1.38-0.10 0.77-0.37L0.77-0.37L0.77-2.08Q1.41-1.78 2.18-1.57Q2.96-1.36 3.65-1.36L3.65-1.36Q4.48-1.36 4.85-1.62Q5.22-1.87 5.22-2.30L5.22-2.30Q5.22-2.56 5.07-2.76Q4.93-2.96 4.50-3.20Q4.08-3.44 3.25-3.79L3.25-3.79Q2.42-4.11 1.86-4.46Q1.31-4.80 1.03-5.26Q0.75-5.73 0.75-6.46L0.75-6.46Q0.75-7.63 1.67-8.23Q2.59-8.83 4.13-8.83L4.13-8.83Q4.93-8.83 5.64-8.67Q6.35-8.51 7.07-8.19L7.07-8.19L6.43-6.70Q5.82-6.96 5.25-7.14Q4.67-7.31 4.06-7.31L4.06-7.31Q2.74-7.31 2.74-6.56L2.74-6.56Q2.74-6.29 2.90-6.10Q3.07-5.90 3.50-5.69Q3.92-5.47 4.70-5.17L4.70-5.17Q5.47-4.86 6.03-4.54Q6.59-4.21 6.90-3.73Q7.20-3.25 7.20-2.51ZM12.50-1.46L12.50-1.46Q12.86-1.46 13.22-1.53Q13.58-1.60 13.89-1.70L13.89-1.70L13.89-0.19Q13.57-0.05 13.06 0.06Q12.54 0.16 11.98 0.16L11.98 0.16Q11.25 0.16 10.64-0.09Q10.03-0.34 9.68-0.94Q9.33-1.55 9.33-2.64L9.33-2.64L9.33-7.15L8.16-7.15L8.16-8.03L9.44-8.74L10.08-10.58L11.34-10.58L11.34-8.67L13.81-8.67L13.81-7.15L11.34-7.15L11.34-2.66Q11.34-2.05 11.66-1.75Q11.98-1.46 12.50-1.46ZM16.64-12.02L16.64-12.02Q17.10-12.02 17.43-11.78Q17.76-11.55 17.76-10.96L17.76-10.96Q17.76-10.37 17.43-10.13Q17.10-9.89 16.64-9.89L16.64-9.89Q16.18-9.89 15.85-10.13Q15.52-10.37 15.52-10.96L15.52-10.96Q15.52-11.55 15.85-11.78Q16.18-12.02 16.64-12.02ZM15.63-8.67L17.65-8.67L17.65 0L15.63 0L15.63-8.67ZM30.16-8.83L30.16-8.83Q31.63-8.83 32.38-8.08Q33.12-7.33 33.12-5.65L33.12-5.65L33.12 0L31.10 0L31.10-5.26Q31.10-7.20 29.63-7.20L29.63-7.20Q28.58-7.20 28.13-6.51Q27.68-5.82 27.68-4.51L27.68-4.51L27.68 0L25.66 0L25.66-5.26Q25.66-7.20 24.18-7.20L24.18-7.20Q23.07-7.20 22.66-6.43Q22.24-5.66 22.24-4.24L22.24-4.24L22.24 0L20.22 0L20.22-8.67L21.78-8.67L22.06-7.54L22.18-7.54Q22.56-8.21 23.26-8.52Q23.95-8.83 24.70-8.83L24.70-8.83Q25.68-8.83 26.34-8.50Q27.01-8.18 27.36-7.49L27.36-7.49L27.52-7.49Q27.92-8.19 28.64-8.51Q29.36-8.83 30.16-8.83ZM41.33-8.67L43.34-8.67L43.34 0L41.76 0L41.49-1.12L41.39-1.12Q40.96-0.45 40.23-0.14Q39.50 0.16 38.69 0.16L38.69 0.16Q37.23 0.16 36.41-0.59Q35.58-1.34 35.58-3.01L35.58-3.01L35.58-8.67L37.60-8.67L37.60-3.41Q37.60-1.47 39.20-1.47L39.20-1.47Q40.42-1.47 40.87-2.23Q41.33-2.99 41.33-4.43L41.33-4.43L41.33-8.67ZM47.94-12.16L47.94 0L45.92 0L45.92-12.16L47.94-12.16ZM56.19-8.67L58.21-8.67L58.21 0L56.62 0L56.35-1.12L56.26-1.12Q55.82-0.45 55.10-0.14Q54.37 0.16 53.55 0.16L53.55 0.16Q52.10 0.16 51.27-0.59Q50.45-1.34 50.45-3.01L50.45-3.01L50.45-8.67L52.46-8.67L52.46-3.41Q52.46-1.47 54.06-1.47L54.06-1.47Q55.28-1.47 55.74-2.23Q56.19-2.99 56.19-4.43L56.19-4.43L56.19-8.67ZM66.69-2.51L66.69-2.51Q66.69-1.20 65.75-0.52Q64.82 0.16 63.07 0.16L63.07 0.16Q62.16 0.16 61.51 0.03Q60.86-0.10 60.26-0.37L60.26-0.37L60.26-2.08Q60.90-1.78 61.67-1.57Q62.45-1.36 63.14-1.36L63.14-1.36Q63.97-1.36 64.34-1.62Q64.70-1.87 64.70-2.30L64.70-2.30Q64.70-2.56 64.56-2.76Q64.42-2.96 63.99-3.20Q63.57-3.44 62.74-3.79L62.74-3.79Q61.90-4.11 61.35-4.46Q60.80-4.80 60.52-5.26Q60.24-5.73 60.24-6.46L60.24-6.46Q60.24-7.63 61.16-8.23Q62.08-8.83 63.62-8.83L63.62-8.83Q64.42-8.83 65.13-8.67Q65.84-8.51 66.56-8.19L66.56-8.19L65.92-6.70Q65.31-6.96 64.74-7.14Q64.16-7.31 63.55-7.31L63.55-7.31Q62.22-7.31 62.22-6.56L62.22-6.56Q62.22-6.29 62.39-6.10Q62.56-5.90 62.98-5.69Q63.41-5.47 64.19-5.17L64.19-5.17Q64.96-4.86 65.52-4.54Q66.08-4.21 66.38-3.73Q66.69-3.25 66.69-2.51Z" transform="translate(0, 12.32)"/><rect x="0" y="0.16" width="67.328" height="12.32" class="clickable" style="cursor:pointer;fill:rgba(0, 0, 0, 0);fill-opacity:0;stroke-width:0px;"/></g><g id="sprotty_ArchitectureBlockImpl$work.priorityckt_tb(RTL)/ProcessBlockImpl$stimulus/GPortImpl$a" transform="translate(77.3280029296875, 11.16015625)" class="sprotty-hidden hidden" style="display:block;height:0px;width:0px;"/></g><g id="sprotty_ArchitectureBlockImpl$work.priorityckt_tb(RTL)/InstantiationBlockImpl$DUT" transform="translate(112.3280029296875, 35)" class="instantiation"><g class="sprotty-block" style="fill:rgb(245, 245, 245);stroke:rgb(48, 48, 48);stroke-dasharray:0px;"><rect x="0" y="0" rx="1" ry="1" width="135.87199999999999" height="58.32080078125"/><path d="M14.83 10.18L14.83 10.18Q14.83 13.07 13.22 14.54Q11.60 16 8.70 16L8.70 16L5.49 16L5.49 4.58L9.04 4.58Q10.80 4.58 12.10 5.22Q13.41 5.86 14.12 7.10Q14.83 8.34 14.83 10.18ZM12.69 10.24L12.69 10.24Q12.69 8.19 11.75 7.23Q10.82 6.27 9.04 6.27L9.04 6.27L7.54 6.27L7.54 14.29L8.77 14.29Q12.69 14.29 12.69 10.24ZM24.29 4.58L26.32 4.58L26.32 11.97Q26.32 13.15 25.82 14.10Q25.31 15.06 24.29 15.61Q23.26 16.16 21.70 16.16L21.70 16.16Q19.47 16.16 18.32 15Q17.17 13.84 17.17 11.94L17.17 11.94L17.17 4.58L19.22 4.58L19.22 11.73Q19.22 13.14 19.86 13.78Q20.50 14.42 21.76 14.42L21.76 14.42Q23.09 14.42 23.69 13.72Q24.29 13.02 24.29 11.71L24.29 11.71L24.29 4.58ZM33.31 6.30L33.31 16L31.26 16L31.26 6.30L27.98 6.30L27.98 4.58L36.59 4.58L36.59 6.30L33.31 6.30ZM42.02 8.38L42.02 8.38Q42.02 7.70 42.37 7.42Q42.72 7.14 43.23 7.14L43.23 7.14Q43.73 7.14 44.10 7.42Q44.46 7.70 44.46 8.38L44.46 8.38Q44.46 9.04 44.10 9.33Q43.73 9.62 43.23 9.62L43.23 9.62Q42.72 9.62 42.37 9.33Q42.02 9.04 42.02 8.38ZM42.02 14.98L42.02 14.98Q42.02 14.30 42.37 14.02Q42.72 13.74 43.23 13.74L43.23 13.74Q43.73 13.74 44.10 14.02Q44.46 14.30 44.46 14.98L44.46 14.98Q44.46 15.63 44.10 15.92Q43.73 16.21 43.23 16.21L43.23 16.21Q42.72 16.21 42.37 15.92Q42.02 15.63 42.02 14.98ZM55.49 7.17L55.49 7.17Q57.01 7.17 57.94 8.30Q58.86 9.42 58.86 11.65L58.86 11.65Q58.86 13.87 57.91 15.02Q56.96 16.16 55.44 16.16L55.44 16.16Q54.48 16.16 53.89 15.81Q53.30 15.46 52.94 14.99L52.94 14.99L52.82 14.99Q52.86 15.30 52.90 15.66Q52.94 16.02 52.94 16.32L52.94 16.32L52.94 19.84L50.93 19.84L50.93 7.33L52.56 7.33L52.85 8.48L52.94 8.48Q53.30 7.94 53.90 7.55Q54.51 7.17 55.49 7.17ZM54.91 8.80L54.91 8.80Q53.84 8.80 53.40 9.44Q52.96 10.08 52.94 11.38L52.94 11.38L52.94 11.63Q52.94 13.02 53.37 13.77Q53.79 14.51 54.94 14.51L54.94 14.51Q55.89 14.51 56.34 13.74Q56.80 12.96 56.80 11.62L56.80 11.62Q56.80 10.27 56.34 9.54Q55.89 8.80 54.91 8.80ZM65.49 7.17L65.49 7.17Q65.70 7.17 65.94 7.18Q66.19 7.20 66.37 7.25L66.37 7.25L66.19 9.12Q66.03 9.09 65.81 9.06Q65.58 9.04 65.41 9.04L65.41 9.04Q64.77 9.04 64.21 9.30Q63.65 9.57 63.30 10.12Q62.96 10.67 62.96 11.50L62.96 11.50L62.96 16L60.94 16L60.94 7.33L62.50 7.33L62.78 8.83L62.88 8.83Q63.26 8.14 63.94 7.66Q64.61 7.17 65.49 7.17ZM68.98 3.98L68.98 3.98Q69.44 3.98 69.77 4.22Q70.10 4.45 70.10 5.04L70.10 5.04Q70.10 5.63 69.77 5.87Q69.44 6.11 68.98 6.11L68.98 6.11Q68.51 6.11 68.18 5.87Q67.86 5.63 67.86 5.04L67.86 5.04Q67.86 4.45 68.18 4.22Q68.51 3.98 68.98 3.98ZM67.97 7.33L69.98 7.33L69.98 16L67.97 16L67.97 7.33ZM80.30 11.65L80.30 11.65Q80.30 13.81 79.18 14.98Q78.06 16.16 76.14 16.16L76.14 16.16Q74.96 16.16 74.03 15.63Q73.10 15.10 72.58 14.10Q72.05 13.09 72.05 11.65L72.05 11.65Q72.05 9.49 73.16 8.33Q74.27 7.17 76.19 7.17L76.19 7.17Q77.39 7.17 78.32 7.69Q79.25 8.21 79.78 9.21Q80.30 10.21 80.30 11.65ZM74.11 11.65L74.11 11.65Q74.11 13.02 74.60 13.78Q75.09 14.53 76.18 14.53L76.18 14.53Q77.26 14.53 77.75 13.78Q78.24 13.02 78.24 11.65L78.24 11.65Q78.24 10.27 77.75 9.54Q77.26 8.80 76.16 8.80L76.16 8.80Q75.09 8.80 74.60 9.54Q74.11 10.27 74.11 11.65ZM86.93 7.17L86.93 7.17Q87.14 7.17 87.38 7.18Q87.63 7.20 87.81 7.25L87.81 7.25L87.63 9.12Q87.47 9.09 87.25 9.06Q87.02 9.04 86.85 9.04L86.85 9.04Q86.21 9.04 85.65 9.30Q85.09 9.57 84.74 10.12Q84.40 10.67 84.40 11.50L84.40 11.50L84.40 16L82.38 16L82.38 7.33L83.94 7.33L84.22 8.83L84.32 8.83Q84.70 8.14 85.38 7.66Q86.05 7.17 86.93 7.17ZM90.42 3.98L90.42 3.98Q90.88 3.98 91.21 4.22Q91.54 4.45 91.54 5.04L91.54 5.04Q91.54 5.63 91.21 5.87Q90.88 6.11 90.42 6.11L90.42 6.11Q89.95 6.11 89.62 5.87Q89.30 5.63 89.30 5.04L89.30 5.04Q89.30 4.45 89.62 4.22Q89.95 3.98 90.42 3.98ZM89.41 7.33L91.42 7.33L91.42 16L89.41 16L89.41 7.33ZM97.36 14.54L97.36 14.54Q97.73 14.54 98.09 14.47Q98.45 14.40 98.75 14.30L98.75 14.30L98.75 15.81Q98.43 15.95 97.92 16.06Q97.41 16.16 96.85 16.16L96.85 16.16Q96.11 16.16 95.50 15.91Q94.90 15.66 94.54 15.06Q94.19 14.45 94.19 13.36L94.19 13.36L94.19 8.85L93.02 8.85L93.02 7.97L94.30 7.26L94.94 5.42L96.21 5.42L96.21 7.33L98.67 7.33L98.67 8.85L96.21 8.85L96.21 13.34Q96.21 13.95 96.53 14.25Q96.85 14.54 97.36 14.54ZM102.67 15.97L99.20 7.33L101.39 7.33L103.12 12.22Q103.30 12.69 103.41 13.14Q103.52 13.58 103.57 14.05L103.57 14.05L103.63 14.05Q103.70 13.65 103.82 13.17Q103.95 12.69 104.11 12.22L104.11 12.22L105.78 7.33L107.95 7.33L104.26 17.15Q103.76 18.45 102.90 19.14Q102.05 19.84 100.80 19.84L100.80 19.84Q100.40 19.84 100.11 19.80Q99.82 19.76 99.60 19.71L99.60 19.71L99.60 18.11Q99.78 18.14 100.02 18.18Q100.27 18.21 100.54 18.21L100.54 18.21Q101.30 18.21 101.74 17.77Q102.18 17.33 102.42 16.67L102.42 16.67L102.67 15.97ZM112.75 16.16L112.75 16.16Q110.88 16.16 109.81 15.09Q108.74 14.02 108.74 11.71L108.74 11.71Q108.74 10.11 109.27 9.11Q109.81 8.11 110.75 7.64Q111.70 7.17 112.91 7.17L112.91 7.17Q113.73 7.17 114.37 7.33Q115.01 7.49 115.46 7.71L115.46 7.71L114.86 9.30Q114.37 9.10 113.87 8.97Q113.38 8.83 112.91 8.83L112.91 8.83Q110.80 8.83 110.80 11.70L110.80 11.70Q110.80 13.09 111.34 13.79Q111.87 14.50 112.88 14.50L112.88 14.50Q113.60 14.50 114.16 14.32Q114.72 14.14 115.23 13.84L115.23 13.84L115.23 15.58Q114.74 15.87 114.17 16.02Q113.60 16.16 112.75 16.16ZM117.26 3.84L119.26 3.84L119.26 9.62Q119.26 10.03 119.23 10.50Q119.20 10.96 119.17 11.38L119.17 11.38L119.22 11.38Q119.41 11.09 119.70 10.72Q119.98 10.35 120.24 10.06L120.24 10.06L122.80 7.33L125.09 7.33L121.62 11.07L125.31 16L122.96 16L120.27 12.29L119.26 13.12L119.26 16L117.26 16L117.26 3.84ZM130.03 14.54L130.03 14.54Q130.40 14.54 130.76 14.47Q131.12 14.40 131.42 14.30L131.42 14.30L131.42 15.81Q131.10 15.95 130.59 16.06Q130.08 16.16 129.52 16.16L129.52 16.16Q128.78 16.16 128.18 15.91Q127.57 15.66 127.22 15.06Q126.86 14.45 126.86 13.36L126.86 13.36L126.86 8.85L125.70 8.85L125.70 7.97L126.98 7.26L127.62 5.42L128.88 5.42L128.88 7.33L131.34 7.33L131.34 8.85L128.88 8.85L128.88 13.34Q128.88 13.95 129.20 14.25Q129.52 14.54 130.03 14.54Z" class="sprotty-block-name" style="fill:rgb(48, 48, 48);stroke:rgba(0, 0, 0, 0);"/><line x1="0" y1="20" x2="135.87199999999999" y2="20"/></g><g id="sprotty_ArchitectureBlockImpl$work.priorityckt_tb(RTL)/InstantiationBlockImpl$DUT/BPortImpl$a" transform="translate(0, 39.160400390625)" class="triangle"><path d="M 0,0 L 5,2.5 L 0,5 Z" transform="translate(-1.67, -2.5)" class="sprotty-port" style="fill:rgb(48, 48, 48);stroke:rgb(48, 48, 48);"/><g class="port sprotty-label" id="sprotty_ArchitectureBlockImpl$work.priorityckt_tb(RTL)/InstantiationBlockImpl$DUT/BPortImpl$a/label" transform="translate(3, -5.6907501220703125) translate(0, -0.13300000131130219)" style="cursor:default;fill:rgb(48, 48, 48);font-family:Arial, Helvetica, sans-serif;text-anchor:middle;"><path d="M2.86 0.13L2.86 0.13Q1.89 0.13 1.25-0.38Q0.61-0.89 0.61-1.98L0.61-1.98Q0.61-3.05 1.45-3.62Q2.29-4.20 4.03-4.26L4.03-4.26L5.24-4.30L5.24-4.72Q5.24-5.61 4.85-5.96Q4.47-6.30 3.76-6.30L3.76-6.30Q3.21-6.30 2.70-6.14Q2.19-5.97 1.76-5.76L1.76-5.76L1.40-6.64Q1.86-6.89 2.50-7.07Q3.14-7.25 3.83-7.25L3.83-7.25Q5.13-7.25 5.76-6.68Q6.38-6.10 6.38-4.85L6.38-4.85L6.38 0L5.53 0L5.31-1.01L5.25-1.01Q4.79-0.43 4.28-0.15Q3.76 0.13 2.86 0.13ZM3.13-0.81L3.13-0.81Q4.03-0.81 4.63-1.31Q5.23-1.81 5.23-2.85L5.23-2.85L5.23-3.48L4.18-3.44Q2.85-3.39 2.33-3.02Q1.82-2.65 1.82-1.97L1.82-1.97Q1.82-1.37 2.19-1.09Q2.55-0.81 3.13-0.81Z" transform="translate(4, 9.3815)"/><rect x="0" y="0.133" width="15.461300000000001" height="11.3815" class="clickable" style="cursor:pointer;fill:rgba(0, 0, 0, 0);fill-opacity:0;stroke-width:0px;"/></g></g><g id="sprotty_ArchitectureBlockImpl$work.priorityckt_tb(RTL)/InstantiationBlockImpl$DUT/BPortImpl$y" transform="translate(135.87109375, 39.160400390625)" class="triangle"><path d="M 0,0 L 5,2.5 L 0,5 Z" transform="translate(-1.67, -2.5)" class="sprotty-port" style="fill:rgb(48, 48, 48);stroke:rgb(48, 48, 48);"/><g class="port sprotty-label" id="sprotty_ArchitectureBlockImpl$work.priorityckt_tb(RTL)/InstantiationBlockImpl$DUT/BPortImpl$y/label" transform="translate(-17.782999992370605, -7.160400390625) translate(0, -3.191999912261963)" style="cursor:default;fill:rgb(48, 48, 48);font-family:Arial, Helvetica, sans-serif;text-anchor:middle;"><path d="M1.12 3.19L1.12 3.19Q0.80 3.19 0.56 3.16Q0.32 3.13 0.15 3.09L0.15 3.09L0.15 2.15Q0.29 2.18 0.50 2.21Q0.70 2.23 0.93 2.23L0.93 2.23Q1.54 2.23 1.92 1.89Q2.29 1.54 2.51 0.97L2.51 0.97L2.89 0.03L0.01-7.13L1.26-7.13L2.81-3.07Q3.01-2.54 3.17-2.05Q3.33-1.57 3.40-1.13L3.40-1.13L3.46-1.13Q3.54-1.46 3.70-2.00Q3.87-2.54 4.07-3.09L4.07-3.09L5.52-7.13L6.78-7.13L3.71 0.98Q3.34 2.00 2.75 2.59Q2.15 3.19 1.12 3.19Z" transform="translate(4, 12.320800000000002)"/><rect x="0" y="3.192" width="14.783000000000001" height="14.320800000000002" class="clickable" style="cursor:pointer;fill:rgba(0, 0, 0, 0);fill-opacity:0;stroke-width:0px;"/></g></g></g></g></g></svg>