<svg xmlns="http://www.w3.org/2000/svg" id="sprotty_mux4_8" class="sprotty-graph sprotty-block-diagram blockdiagram" style="font-family:&quot;Helvetica Neue&quot;, Helvetica, Arial, sans-serif;line-height:18px;perspective-origin:0px 0px;transform-origin:0px 0px;z-index:0;" version="1.1" viewBox="9.5 12 393.8649426269531 290.75360107421875"><g transform="scale(1) translate(0,0)"><g id="sprotty_ArchitectureBlockImpl$work.mux4_8(struct)" transform="translate(12, 12)" class="architecture"><g class="sprotty-block" style="fill:rgb(245, 245, 245);stroke:rgb(48, 48, 48);stroke-dasharray:0px;"><rect x="0" y="0" rx="1" ry="1" width="387.0349426269531" height="290.75360107421875"/><path d="M124.04 16L121.80 16L120.84 12.27Q120.76 11.97 120.65 11.51Q120.53 11.06 120.41 10.56Q120.29 10.06 120.20 9.65Q120.10 9.23 120.05 9.01L120.05 9.01L119.99 9.01Q119.94 9.23 119.85 9.65Q119.75 10.06 119.64 10.57Q119.53 11.07 119.41 11.53Q119.29 11.98 119.21 12.29L119.21 12.29L118.20 16L115.99 16L113.56 7.31L115.59 7.31L116.66 11.46Q116.77 11.89 116.88 12.41Q116.98 12.93 117.05 13.42Q117.13 13.90 117.17 14.21L117.17 14.21L117.24 14.21Q117.27 13.92 117.36 13.42Q117.45 12.93 117.54 12.46Q117.64 11.98 117.70 11.74L117.70 11.74L118.95 7.31L121.16 7.31L122.36 11.74Q122.42 12.03 122.53 12.50Q122.63 12.96 122.71 13.43Q122.79 13.90 122.81 14.19L122.81 14.19L122.87 14.19Q122.90 13.94 122.98 13.46Q123.06 12.98 123.17 12.43Q123.29 11.89 123.41 11.46L123.41 11.46L124.50 7.31L126.50 7.31L124.04 16ZM135.72 11.65L135.72 11.65Q135.72 13.81 134.60 14.98Q133.48 16.16 131.56 16.16L131.56 16.16Q130.37 16.16 129.45 15.63Q128.52 15.10 127.99 14.10Q127.46 13.09 127.46 11.65L127.46 11.65Q127.46 9.49 128.57 8.33Q129.69 7.17 131.61 7.17L131.61 7.17Q132.81 7.17 133.73 7.69Q134.66 8.21 135.19 9.21Q135.72 10.21 135.72 11.65ZM129.53 11.65L129.53 11.65Q129.53 13.02 130.01 13.78Q130.50 14.53 131.59 14.53L131.59 14.53Q132.68 14.53 133.17 13.78Q133.65 13.02 133.65 11.65L133.65 11.65Q133.65 10.27 133.17 9.54Q132.68 8.80 131.57 8.80L131.57 8.80Q130.50 8.80 130.01 9.54Q129.53 10.27 129.53 11.65ZM142.34 7.17L142.34 7.17Q142.55 7.17 142.80 7.18Q143.05 7.20 143.22 7.25L143.22 7.25L143.05 9.12Q142.89 9.09 142.66 9.06Q142.44 9.04 142.26 9.04L142.26 9.04Q141.62 9.04 141.06 9.30Q140.50 9.57 140.16 10.12Q139.81 10.67 139.81 11.50L139.81 11.50L139.81 16L137.80 16L137.80 7.33L139.35 7.33L139.64 8.83L139.73 8.83Q140.12 8.14 140.79 7.66Q141.46 7.17 142.34 7.17ZM144.82 3.84L146.82 3.84L146.82 9.62Q146.82 10.03 146.79 10.50Q146.76 10.96 146.73 11.38L146.73 11.38L146.77 11.38Q146.97 11.09 147.25 10.72Q147.54 10.35 147.80 10.06L147.80 10.06L150.36 7.33L152.65 7.33L149.17 11.07L152.87 16L150.52 16L147.83 12.29L146.82 13.12L146.82 16L144.82 16L144.82 3.84ZM153.94 14.98L153.94 14.98Q153.94 14.30 154.29 14.02Q154.65 13.74 155.16 13.74L155.16 13.74Q155.65 13.74 156.02 14.02Q156.39 14.30 156.39 14.98L156.39 14.98Q156.39 15.63 156.02 15.92Q155.65 16.21 155.16 16.21L155.16 16.21Q154.65 16.21 154.29 15.92Q153.94 15.63 153.94 14.98ZM168.63 7.17L168.63 7.17Q170.10 7.17 170.85 7.92Q171.59 8.67 171.59 10.35L171.59 10.35L171.59 16L169.57 16L169.57 10.74Q169.57 8.80 168.10 8.80L168.10 8.80Q167.05 8.80 166.60 9.49Q166.15 10.18 166.15 11.49L166.15 11.49L166.15 16L164.13 16L164.13 10.74Q164.13 8.80 162.65 8.80L162.65 8.80Q161.54 8.80 161.13 9.57Q160.71 10.34 160.71 11.76L160.71 11.76L160.71 16L158.69 16L158.69 7.33L160.25 7.33L160.53 8.46L160.65 8.46Q161.03 7.79 161.73 7.48Q162.42 7.17 163.17 7.17L163.17 7.17Q164.15 7.17 164.81 7.50Q165.48 7.82 165.83 8.51L165.83 8.51L165.99 8.51Q166.39 7.81 167.11 7.49Q167.83 7.17 168.63 7.17ZM179.80 7.33L181.81 7.33L181.81 16L180.23 16L179.96 14.88L179.86 14.88Q179.43 15.55 178.70 15.86Q177.97 16.16 177.16 16.16L177.16 16.16Q175.70 16.16 174.88 15.41Q174.05 14.66 174.05 12.99L174.05 12.99L174.05 7.33L176.07 7.33L176.07 12.59Q176.07 14.53 177.67 14.53L177.67 14.53Q178.89 14.53 179.34 13.77Q179.80 13.01 179.80 11.57L179.80 11.57L179.80 7.33ZM183.25 16L186.26 11.57L183.40 7.33L185.69 7.33L187.57 10.27L189.46 7.33L191.75 7.33L188.85 11.57L191.89 16L189.61 16L187.57 12.85L185.54 16L183.25 16ZM200.92 11.90L200.92 13.55L199.43 13.55L199.43 16L197.45 16L197.45 13.55L192.36 13.55L192.36 12.05L197.49 4.54L199.43 4.54L199.43 11.90L200.92 11.90ZM194.20 11.90L197.45 11.90L197.45 9.34Q197.45 8.91 197.46 8.42Q197.48 7.92 197.50 7.50Q197.53 7.07 197.54 6.85L197.54 6.85L197.48 6.85Q197.19 7.52 196.79 8.10L196.79 8.10L194.20 11.90ZM208.01 17.44L208.01 18.50L201.17 18.50L201.17 17.44L208.01 17.44ZM212.55 4.43L212.55 4.43Q213.54 4.43 214.35 4.74Q215.16 5.04 215.63 5.65Q216.10 6.26 216.10 7.17L216.10 7.17Q216.10 8.21 215.49 8.86Q214.89 9.52 214.01 9.97L214.01 9.97Q214.66 10.29 215.22 10.71Q215.78 11.14 216.13 11.70Q216.47 12.27 216.47 13.04L216.47 13.04Q216.47 14 215.97 14.70Q215.48 15.39 214.61 15.78Q213.73 16.16 212.57 16.16L212.57 16.16Q210.66 16.16 209.64 15.34Q208.61 14.53 208.61 13.10L208.61 13.10Q208.61 12.32 208.93 11.74Q209.24 11.15 209.75 10.74Q210.26 10.32 210.87 10.03L210.87 10.03Q210.09 9.55 209.53 8.87Q208.98 8.19 208.98 7.15L208.98 7.15Q208.98 6.26 209.47 5.65Q209.96 5.04 210.77 4.74Q211.57 4.43 212.55 4.43ZM212.53 5.95L212.53 5.95Q211.83 5.95 211.37 6.30Q210.92 6.66 210.92 7.30L210.92 7.30Q210.92 8 211.41 8.41Q211.89 8.82 212.57 9.14L212.57 9.14Q213.22 8.85 213.69 8.43Q214.17 8.02 214.17 7.30L214.17 7.30Q214.17 6.66 213.71 6.30Q213.25 5.95 212.53 5.95ZM210.53 13.01L210.53 13.01Q210.53 13.71 211.03 14.17Q211.53 14.62 212.53 14.62L212.53 14.62Q213.53 14.62 214.04 14.18Q214.55 13.73 214.55 13.01L214.55 13.01Q214.55 12.29 213.97 11.82Q213.38 11.34 212.61 10.98L212.61 10.98L212.39 10.86Q211.53 11.25 211.03 11.76Q210.53 12.27 210.53 13.01ZM217.77 11.62L217.77 11.62Q217.77 9.66 218.33 7.85Q218.90 6.03 220.12 4.58L220.12 4.58L221.83 4.58Q220.73 6.08 220.17 7.89Q219.61 9.70 219.61 11.60L219.61 11.60Q219.61 13.46 220.17 15.25Q220.73 17.04 221.81 18.53L221.81 18.53L220.12 18.53Q218.90 17.12 218.33 15.34Q217.77 13.55 217.77 11.62ZM229.51 13.49L229.51 13.49Q229.51 14.80 228.57 15.48Q227.64 16.16 225.89 16.16L225.89 16.16Q224.98 16.16 224.33 16.03Q223.69 15.90 223.08 15.63L223.08 15.63L223.08 13.92Q223.72 14.22 224.49 14.43Q225.27 14.64 225.96 14.64L225.96 14.64Q226.79 14.64 227.16 14.38Q227.53 14.13 227.53 13.70L227.53 13.70Q227.53 13.44 227.38 13.24Q227.24 13.04 226.81 12.80Q226.39 12.56 225.56 12.21L225.56 12.21Q224.73 11.89 224.17 11.54Q223.62 11.20 223.34 10.74Q223.06 10.27 223.06 9.54L223.06 9.54Q223.06 8.37 223.98 7.77Q224.90 7.17 226.44 7.17L226.44 7.17Q227.24 7.17 227.95 7.33Q228.66 7.49 229.38 7.81L229.38 7.81L228.74 9.30Q228.13 9.04 227.56 8.86Q226.98 8.69 226.37 8.69L226.37 8.69Q225.05 8.69 225.05 9.44L225.05 9.44Q225.05 9.71 225.21 9.90Q225.38 10.10 225.81 10.31Q226.23 10.53 227.01 10.83L227.01 10.83Q227.78 11.14 228.34 11.46Q228.90 11.79 229.21 12.27Q229.51 12.75 229.51 13.49ZM234.81 14.54L234.81 14.54Q235.17 14.54 235.53 14.47Q235.89 14.40 236.20 14.30L236.20 14.30L236.20 15.81Q235.88 15.95 235.37 16.06Q234.85 16.16 234.29 16.16L234.29 16.16Q233.56 16.16 232.95 15.91Q232.34 15.66 231.99 15.06Q231.64 14.45 231.64 13.36L231.64 13.36L231.64 8.85L230.47 8.85L230.47 7.97L231.75 7.26L232.39 5.42L233.65 5.42L233.65 7.33L236.12 7.33L236.12 8.85L233.65 8.85L233.65 13.34Q233.65 13.95 233.97 14.25Q234.29 14.54 234.81 14.54ZM242.49 7.17L242.49 7.17Q242.69 7.17 242.94 7.18Q243.19 7.20 243.37 7.25L243.37 7.25L243.19 9.12Q243.03 9.09 242.81 9.06Q242.58 9.04 242.41 9.04L242.41 9.04Q241.77 9.04 241.21 9.30Q240.65 9.57 240.30 10.12Q239.96 10.67 239.96 11.50L239.96 11.50L239.96 16L237.94 16L237.94 7.33L239.49 7.33L239.78 8.83L239.88 8.83Q240.26 8.14 240.93 7.66Q241.61 7.17 242.49 7.17ZM250.65 7.33L252.66 7.33L252.66 16L251.08 16L250.81 14.88L250.71 14.88Q250.28 15.55 249.55 15.86Q248.82 16.16 248.01 16.16L248.01 16.16Q246.55 16.16 245.73 15.41Q244.90 14.66 244.90 12.99L244.90 12.99L244.90 7.33L246.92 7.33L246.92 12.59Q246.92 14.53 248.52 14.53L248.52 14.53Q249.73 14.53 250.19 13.77Q250.65 13.01 250.65 11.57L250.65 11.57L250.65 7.33ZM258.74 16.16L258.74 16.16Q256.87 16.16 255.80 15.09Q254.73 14.02 254.73 11.71L254.73 11.71Q254.73 10.11 255.26 9.11Q255.80 8.11 256.74 7.64Q257.69 7.17 258.90 7.17L258.90 7.17Q259.72 7.17 260.36 7.33Q261.00 7.49 261.45 7.71L261.45 7.71L260.85 9.30Q260.36 9.10 259.86 8.97Q259.37 8.83 258.90 8.83L258.90 8.83Q256.79 8.83 256.79 11.70L256.79 11.70Q256.79 13.09 257.33 13.79Q257.86 14.50 258.87 14.50L258.87 14.50Q259.59 14.50 260.15 14.32Q260.71 14.14 261.22 13.84L261.22 13.84L261.22 15.58Q260.73 15.87 260.16 16.02Q259.59 16.16 258.74 16.16ZM266.61 14.54L266.61 14.54Q266.98 14.54 267.34 14.47Q267.70 14.40 268.01 14.30L268.01 14.30L268.01 15.81Q267.69 15.95 267.17 16.06Q266.66 16.16 266.10 16.16L266.10 16.16Q265.37 16.16 264.76 15.91Q264.15 15.66 263.80 15.06Q263.45 14.45 263.45 13.36L263.45 13.36L263.45 8.85L262.28 8.85L262.28 7.97L263.56 7.26L264.20 5.42L265.46 5.42L265.46 7.33L267.93 7.33L267.93 8.85L265.46 8.85L265.46 13.34Q265.46 13.95 265.78 14.25Q266.10 14.54 266.61 14.54ZM273.00 11.62L273.00 11.62Q273.00 13.55 272.43 15.34Q271.86 17.12 270.65 18.53L270.65 18.53L268.95 18.53Q270.04 17.04 270.61 15.25Q271.17 13.46 271.17 11.60L271.17 11.60Q271.17 9.70 270.61 7.89Q270.04 6.08 268.93 4.58L268.93 4.58L270.65 4.58Q271.86 6.03 272.43 7.85Q273.00 9.66 273.00 11.62Z" class="sprotty-block-name" style="fill:rgb(48, 48, 48);stroke:rgba(0, 0, 0, 0);"/><line x1="0" y1="20" x2="387.0349426269531" y2="20"/></g><g id="sprotty_ArchitectureBlockImpl$work.mux4_8(struct)/GPortImpl$d0_to_ArchitectureBlockImpl$work.mux4_8(struct)/InstantiationBlockImpl$lowmux/BPortImpl$d0" class="sprotty-edge thick edge" style="fill:none;stroke:rgb(112, 112, 112);stroke-linejoin:round;stroke-width:3px;"><path d="M 0 74.12050008773804 L 71.78710174560547 74.12050008773804 "/></g><g id="sprotty_ArchitectureBlockImpl$work.mux4_8(struct)/GPortImpl$d1_to_ArchitectureBlockImpl$work.mux4_8(struct)/InstantiationBlockImpl$lowmux/BPortImpl$d1" class="sprotty-edge thick edge" style="fill:none;stroke:rgb(112, 112, 112);stroke-linejoin:round;stroke-width:3px;"><path d="M 0 101.36150026321411 L 49.787099838256836 101.36150026321411 C 50.787099838256836 101.36150026321411 51.787099838256836 100.36150026321411 51.787099838256836 99.36150026321411 L 51.787099838256836 99.36150026321411 C 51.787099838256836 98.86150026321411 52.787099838256836 98.36150026321411 53.787099838256836 98.36150026321411 L 71.78710174560547 98.36150026321411 "/></g><g id="sprotty_ArchitectureBlockImpl$work.mux4_8(struct)/GPortImpl$d2_to_ArchitectureBlockImpl$work.mux4_8(struct)/InstantiationBlockImpl$himux/BPortImpl$d0" class="sprotty-edge thick edge" style="fill:none;stroke:rgb(112, 112, 112);stroke-linejoin:round;stroke-width:3px;"><path d="M 0 197.9973006248474 L 74.91503143310547 197.9973006248474 "/></g><g id="sprotty_ArchitectureBlockImpl$work.mux4_8(struct)/GPortImpl$d3_to_ArchitectureBlockImpl$work.mux4_8(struct)/InstantiationBlockImpl$himux/BPortImpl$d1" class="sprotty-edge thick edge" style="fill:none;stroke:rgb(112, 112, 112);stroke-linejoin:round;stroke-width:3px;"><path d="M 0 225.2383008003235 L 59.787099838256836 225.2383008003235 C 60.787099838256836 225.2383008003235 61.787099838256836 224.2383008003235 61.787099838256836 223.2383008003235 L 61.787099838256836 223.2383008003235 C 61.787099838256836 222.7383008003235 62.787099838256836 222.2383008003235 63.787099838256836 222.2383008003235 L 74.91503143310547 222.2383008003235 "/></g><g id="sprotty_ArchitectureBlockImpl$work.mux4_8(struct)/GPortImpl$s_to_ArchitectureBlockImpl$work.mux4_8(struct)/InstantiationBlockImpl$lowmux/BPortImpl$s" class="sprotty-edge thick edge" style="fill:none;stroke:rgb(112, 112, 112);stroke-linejoin:round;stroke-width:3px;"><path d="M 0 252.47930097579956 L 49.787099838256836 252.47930097579956 C 50.787099838256836 252.47930097579956 51.787099838256836 251.47930097579956 51.787099838256836 250.47930097579956 L 51.787099838256836 123.17940044403076 C 51.787099838256836 122.17940044403076 52.787099838256836 121.17940044403076 53.787099838256836 121.17940044403076 L 71.78710174560547 121.17940044403076 "/><circle r="3" id="sprotty_ArchitectureBlockImpl$work.mux4_8(struct)/GPortImpl$s_to_ArchitectureBlockImpl$work.mux4_8(struct)/InstantiationBlockImpl$lowmux/BPortImpl$s/junction0" transform="translate(51.787099838256836, 252.47930097579956)" class="sprotty-junction thick" style="fill:rgb(112, 112, 112);stroke:none;"/></g><g id="sprotty_ArchitectureBlockImpl$work.mux4_8(struct)/GPortImpl$s_to_ArchitectureBlockImpl$work.mux4_8(struct)/InstantiationBlockImpl$himux/BPortImpl$s" class="sprotty-edge thick edge" style="fill:none;stroke:rgb(112, 112, 112);stroke-linejoin:round;stroke-width:3px;"><path d="M 0 252.47930097579956 L 49.787099838256836 252.47930097579956 C 50.787099838256836 252.47930097579956 51.787099838256836 251.47930097579956 51.787099838256836 250.47930097579956 L 51.787099838256836 247.05620098114014 C 51.787099838256836 246.05620098114014 52.787099838256836 245.05620098114014 53.787099838256836 245.05620098114014 L 74.91503143310547 245.05620098114014 "/><circle r="3" id="sprotty_ArchitectureBlockImpl$work.mux4_8(struct)/GPortImpl$s_to_ArchitectureBlockImpl$work.mux4_8(struct)/InstantiationBlockImpl$himux/BPortImpl$s/junction0" transform="translate(51.787099838256836, 245.05620098114014)" class="sprotty-junction thick" style="fill:rgb(112, 112, 112);stroke:none;"/></g><g id="sprotty_ArchitectureBlockImpl$work.mux4_8(struct)/GPortImpl$s_to_ArchitectureBlockImpl$work.mux4_8(struct)/InstantiationBlockImpl$outmux/BPortImpl$s" class="sprotty-edge thick edge" style="fill:none;stroke:rgb(112, 112, 112);stroke-linejoin:round;stroke-width:3px;"><path d="M 0 252.47930097579956 L 49.787099838256836 252.47930097579956 C 50.787099838256836 252.47930097579956 51.787099838256836 253.47930097579956 51.787099838256836 254.47930097579956 L 51.787099838256836 271.75360107421875 C 51.787099838256836 272.75360107421875 52.787099838256836 273.75360107421875 53.787099838256836 273.75360107421875 L 216.412109375 273.75360107421875 C 217.412109375 273.75360107421875 218.412109375 272.75360107421875 218.412109375 271.75360107421875 L 218.412109375 145.9973006248474 C 218.412109375 144.9973006248474 219.412109375 143.9973006248474 220.412109375 143.9973006248474 L 228.412109375 143.9973006248474 "/></g><g id="sprotty_ArchitectureBlockImpl$work.mux4_8(struct)/InstantiationBlockImpl$lowmux/BPortImpl$y_to_ArchitectureBlockImpl$work.mux4_8(struct)/InstantiationBlockImpl$outmux/BPortImpl$d0" class="sprotty-edge thick edge" style="fill:none;stroke:rgb(112, 112, 112);stroke-linejoin:round;stroke-width:3px;"><path d="M 198.41210174560547 96.93840026855469 L 228.412109375 96.93840026855469 "/></g><g id="sprotty_ArchitectureBlockImpl$work.mux4_8(struct)/InstantiationBlockImpl$himux/BPortImpl$y_to_ArchitectureBlockImpl$work.mux4_8(struct)/InstantiationBlockImpl$outmux/BPortImpl$d1" class="sprotty-edge thick edge" style="fill:none;stroke:rgb(112, 112, 112);stroke-linejoin:round;stroke-width:3px;"><path d="M 189.02831268310547 220.81520080566406 L 206.412109375 220.81520080566406 C 207.412109375 220.81520080566406 208.412109375 219.81520080566406 208.412109375 218.81520080566406 L 208.412109375 123.17940044403076 C 208.412109375 122.17940044403076 209.412109375 121.17940044403076 210.412109375 121.17940044403076 L 228.412109375 121.17940044403076 "/></g><g id="sprotty_ArchitectureBlockImpl$work.mux4_8(struct)/InstantiationBlockImpl$outmux/BPortImpl$y_to_ArchitectureBlockImpl$work.mux4_8(struct)/GPortImpl$y" class="sprotty-edge thick edge" style="fill:none;stroke:rgb(112, 112, 112);stroke-linejoin:round;stroke-width:3px;"><path d="M 354.251953125 119.75630044937134 L 387.0349426269531 119.75630044937134 "/></g><g id="sprotty_ArchitectureBlockImpl$work.mux4_8(struct)/InstantiationBlockImpl$outmux" transform="translate(228.412109375, 57.81790018081665)" class="instantiation"><g class="sprotty-block" style="fill:rgb(245, 245, 245);stroke:rgb(48, 48, 48);stroke-dasharray:0px;"><rect x="0" y="0" rx="1" ry="1" width="125.83999999999999" height="103.87680053710938"/><path d="M13.04 11.65L13.04 11.65Q13.04 13.81 11.92 14.98Q10.80 16.16 8.88 16.16L8.88 16.16Q7.70 16.16 6.77 15.63Q5.84 15.10 5.31 14.10Q4.78 13.09 4.78 11.65L4.78 11.65Q4.78 9.49 5.90 8.33Q7.01 7.17 8.93 7.17L8.93 7.17Q10.13 7.17 11.06 7.69Q11.98 8.21 12.51 9.21Q13.04 10.21 13.04 11.65ZM6.85 11.65L6.85 11.65Q6.85 13.02 7.34 13.78Q7.82 14.53 8.91 14.53L8.91 14.53Q10 14.53 10.49 13.78Q10.98 13.02 10.98 11.65L10.98 11.65Q10.98 10.27 10.49 9.54Q10 8.80 8.90 8.80L8.90 8.80Q7.82 8.80 7.34 9.54Q6.85 10.27 6.85 11.65ZM20.80 7.33L22.82 7.33L22.82 16L21.23 16L20.96 14.88L20.86 14.88Q20.43 15.55 19.70 15.86Q18.98 16.16 18.16 16.16L18.16 16.16Q16.70 16.16 15.88 15.41Q15.06 14.66 15.06 12.99L15.06 12.99L15.06 7.33L17.07 7.33L17.07 12.59Q17.07 14.53 18.67 14.53L18.67 14.53Q19.89 14.53 20.34 13.77Q20.80 13.01 20.80 11.57L20.80 11.57L20.80 7.33ZM28.75 14.54L28.75 14.54Q29.12 14.54 29.48 14.47Q29.84 14.40 30.14 14.30L30.14 14.30L30.14 15.81Q29.82 15.95 29.31 16.06Q28.80 16.16 28.24 16.16L28.24 16.16Q27.50 16.16 26.90 15.91Q26.29 15.66 25.94 15.06Q25.58 14.45 25.58 13.36L25.58 13.36L25.58 8.85L24.42 8.85L24.42 7.97L25.70 7.26L26.34 5.42L27.60 5.42L27.60 7.33L30.06 7.33L30.06 8.85L27.60 8.85L27.60 13.34Q27.60 13.95 27.92 14.25Q28.24 14.54 28.75 14.54ZM41.82 7.17L41.82 7.17Q43.30 7.17 44.04 7.92Q44.78 8.67 44.78 10.35L44.78 10.35L44.78 16L42.77 16L42.77 10.74Q42.77 8.80 41.30 8.80L41.30 8.80Q40.24 8.80 39.79 9.49Q39.34 10.18 39.34 11.49L39.34 11.49L39.34 16L37.33 16L37.33 10.74Q37.33 8.80 35.84 8.80L35.84 8.80Q34.74 8.80 34.32 9.57Q33.90 10.34 33.90 11.76L33.90 11.76L33.90 16L31.89 16L31.89 7.33L33.44 7.33L33.73 8.46L33.84 8.46Q34.22 7.79 34.92 7.48Q35.62 7.17 36.37 7.17L36.37 7.17Q37.34 7.17 38.01 7.50Q38.67 7.82 39.02 8.51L39.02 8.51L39.18 8.51Q39.58 7.81 40.30 7.49Q41.02 7.17 41.82 7.17ZM52.99 7.33L55.01 7.33L55.01 16L53.42 16L53.15 14.88L53.06 14.88Q52.62 15.55 51.90 15.86Q51.17 16.16 50.35 16.16L50.35 16.16Q48.90 16.16 48.07 15.41Q47.25 14.66 47.25 12.99L47.25 12.99L47.25 7.33L49.26 7.33L49.26 12.59Q49.26 14.53 50.86 14.53L50.86 14.53Q52.08 14.53 52.54 13.77Q52.99 13.01 52.99 11.57L52.99 11.57L52.99 7.33ZM56.45 16L59.46 11.57L56.59 7.33L58.88 7.33L60.77 10.27L62.66 7.33L64.94 7.33L62.05 11.57L65.09 16L62.80 16L60.77 12.85L58.74 16L56.45 16ZM70.42 8.38L70.42 8.38Q70.42 7.70 70.77 7.42Q71.12 7.14 71.63 7.14L71.63 7.14Q72.13 7.14 72.50 7.42Q72.86 7.70 72.86 8.38L72.86 8.38Q72.86 9.04 72.50 9.33Q72.13 9.62 71.63 9.62L71.63 9.62Q71.12 9.62 70.77 9.33Q70.42 9.04 70.42 8.38ZM70.42 14.98L70.42 14.98Q70.42 14.30 70.77 14.02Q71.12 13.74 71.63 13.74L71.63 13.74Q72.13 13.74 72.50 14.02Q72.86 14.30 72.86 14.98L72.86 14.98Q72.86 15.63 72.50 15.92Q72.13 16.21 71.63 16.21L71.63 16.21Q71.12 16.21 70.77 15.92Q70.42 15.63 70.42 14.98ZM89.26 7.17L89.26 7.17Q90.74 7.17 91.48 7.92Q92.22 8.67 92.22 10.35L92.22 10.35L92.22 16L90.21 16L90.21 10.74Q90.21 8.80 88.74 8.80L88.74 8.80Q87.68 8.80 87.23 9.49Q86.78 10.18 86.78 11.49L86.78 11.49L86.78 16L84.77 16L84.77 10.74Q84.77 8.80 83.28 8.80L83.28 8.80Q82.18 8.80 81.76 9.57Q81.34 10.34 81.34 11.76L81.34 11.76L81.34 16L79.33 16L79.33 7.33L80.88 7.33L81.17 8.46L81.28 8.46Q81.66 7.79 82.36 7.48Q83.06 7.17 83.81 7.17L83.81 7.17Q84.78 7.17 85.45 7.50Q86.11 7.82 86.46 8.51L86.46 8.51L86.62 8.51Q87.02 7.81 87.74 7.49Q88.46 7.17 89.26 7.17ZM100.43 7.33L102.45 7.33L102.45 16L100.86 16L100.59 14.88L100.50 14.88Q100.06 15.55 99.34 15.86Q98.61 16.16 97.79 16.16L97.79 16.16Q96.34 16.16 95.51 15.41Q94.69 14.66 94.69 12.99L94.69 12.99L94.69 7.33L96.70 7.33L96.70 12.59Q96.70 14.53 98.30 14.53L98.30 14.53Q99.52 14.53 99.98 13.77Q100.43 13.01 100.43 11.57L100.43 11.57L100.43 7.33ZM103.89 16L106.90 11.57L104.03 7.33L106.32 7.33L108.21 10.27L110.10 7.33L112.38 7.33L109.49 11.57L112.53 16L110.24 16L108.21 12.85L106.18 16L103.89 16ZM121.20 14.26L121.20 16L113.38 16L113.38 14.51L116.29 11.57Q117.15 10.69 117.70 10.06Q118.26 9.44 118.52 8.89Q118.78 8.34 118.78 7.70L118.78 7.70Q118.78 6.91 118.34 6.52Q117.89 6.13 117.15 6.13L117.15 6.13Q116.43 6.13 115.81 6.42Q115.18 6.72 114.51 7.26L114.51 7.26L113.41 5.94Q114.11 5.33 115.01 4.87Q115.90 4.42 117.26 4.42L117.26 4.42Q118.37 4.42 119.17 4.81Q119.97 5.20 120.39 5.89Q120.82 6.58 120.82 7.49L120.82 7.49Q120.82 8.42 120.45 9.19Q120.08 9.97 119.38 10.74Q118.69 11.52 117.73 12.42L117.73 12.42L115.92 14.16L115.92 14.26L121.20 14.26Z" class="sprotty-block-name" style="fill:rgb(48, 48, 48);stroke:rgba(0, 0, 0, 0);"/><line x1="0" y1="20" x2="125.83999999999999" y2="20"/></g><g id="sprotty_ArchitectureBlockImpl$work.mux4_8(struct)/InstantiationBlockImpl$outmux/BPortImpl$s" transform="translate(0, 86.17940044403076)" class="triangle"><path d="M 0,0 L 5,2.5 L 0,5 Z" transform="translate(-1.67, -2.5)" class="sprotty-port" style="fill:rgb(48, 48, 48);stroke:rgb(48, 48, 48);"/><g class="port sprotty-label" id="sprotty_ArchitectureBlockImpl$work.mux4_8(struct)/InstantiationBlockImpl$outmux/BPortImpl$s/label" transform="translate(3, -5.697400093078613) translate(0, -0.13300000131130219)" style="cursor:default;fill:rgb(48, 48, 48);font-family:Arial, Helvetica, sans-serif;text-anchor:middle;"><path d="M2.93 0.13L2.93 0.13Q2.18 0.13 1.64 0.01Q1.10-0.11 0.69-0.32L0.69-0.32L0.69-1.38Q1.12-1.17 1.72-0.99Q2.33-0.81 2.95-0.81L2.95-0.81Q3.84-0.81 4.24-1.10Q4.64-1.38 4.64-1.86L4.64-1.86Q4.64-2.13 4.50-2.34Q4.35-2.55 3.97-2.77Q3.59-2.98 2.89-3.25L2.89-3.25Q2.19-3.51 1.70-3.78Q1.21-4.04 0.94-4.42Q0.68-4.79 0.68-5.37L0.68-5.37Q0.68-6.28 1.42-6.77Q2.15-7.26 3.35-7.26L3.35-7.26Q4.00-7.26 4.57-7.14Q5.13-7.01 5.63-6.78L5.63-6.78L5.23-5.85Q4.77-6.04 4.28-6.17Q3.79-6.30 3.27-6.30L3.27-6.30Q2.55-6.30 2.17-6.07Q1.80-5.84 1.80-5.44L1.80-5.44Q1.80-5.15 1.97-4.94Q2.14-4.73 2.55-4.54Q2.95-4.35 3.63-4.08L3.63-4.08Q4.31-3.83 4.79-3.56Q5.27-3.29 5.52-2.91Q5.77-2.54 5.77-1.97L5.77-1.97Q5.77-0.93 5.00-0.40Q4.23 0.13 2.93 0.13Z" transform="translate(4, 9.3948)"/><rect x="0" y="0.133" width="14.3707" height="11.3948" class="clickable" style="cursor:pointer;fill:rgba(0, 0, 0, 0);fill-opacity:0;stroke-width:0px;"/></g></g><g id="sprotty_ArchitectureBlockImpl$work.mux4_8(struct)/InstantiationBlockImpl$outmux/BPortImpl$d1" transform="translate(0, 63.36150026321411)" class="triangle"><path d="M 0,0 L 5,2.5 L 0,5 Z" transform="translate(-1.67, -2.5)" class="sprotty-port" style="fill:rgb(48, 48, 48);stroke:rgb(48, 48, 48);"/><g class="port sprotty-label" id="sprotty_ArchitectureBlockImpl$work.mux4_8(struct)/InstantiationBlockImpl$outmux/BPortImpl$d1/label" transform="translate(3, -7.120500087738037) translate(0, -0.13300000131130219)" style="cursor:default;fill:rgb(48, 48, 48);font-family:Arial, Helvetica, sans-serif;text-anchor:middle;"><path d="M3.66 0.13L3.66 0.13Q2.33 0.13 1.53-0.79Q0.73-1.72 0.73-3.55L0.73-3.55Q0.73-5.39 1.54-6.32Q2.34-7.26 3.67-7.26L3.67-7.26Q4.50-7.26 5.02-6.96Q5.55-6.65 5.88-6.21L5.88-6.21L5.96-6.21Q5.95-6.38 5.91-6.72Q5.88-7.06 5.88-7.26L5.88-7.26L5.88-10.11L7.05-10.11L7.05 0L6.10 0L5.93-0.96L5.88-0.96Q5.56-0.51 5.03-0.19Q4.50 0.13 3.66 0.13ZM3.84-0.84L3.84-0.84Q4.97-0.84 5.43-1.46Q5.89-2.07 5.89-3.33L5.89-3.33L5.89-3.54Q5.89-4.87 5.45-5.58Q5.01-6.29 3.83-6.29L3.83-6.29Q2.89-6.29 2.41-5.54Q1.94-4.79 1.94-3.52L1.94-3.52Q1.94-2.25 2.41-1.54Q2.89-0.84 3.84-0.84ZM12.90 0L11.76 0L11.76-6.64Q11.76-7.21 11.77-7.55Q11.78-7.90 11.81-8.27L11.81-8.27Q11.60-8.07 11.42-7.92Q11.25-7.77 10.99-7.54L10.99-7.54L9.98-6.72L9.36-7.50L11.93-9.50L12.90-9.50L12.90 0Z" transform="translate(4, 12.241)"/><rect x="0" y="0.133" width="23.787100000000002" height="14.241" class="clickable" style="cursor:pointer;fill:rgba(0, 0, 0, 0);fill-opacity:0;stroke-width:0px;"/></g></g><g id="sprotty_ArchitectureBlockImpl$work.mux4_8(struct)/InstantiationBlockImpl$outmux/BPortImpl$d0" transform="translate(0, 39.12050008773804)" class="triangle"><path d="M 0,0 L 5,2.5 L 0,5 Z" transform="translate(-1.67, -2.5)" class="sprotty-port" style="fill:rgb(48, 48, 48);stroke:rgb(48, 48, 48);"/><g class="port sprotty-label" id="sprotty_ArchitectureBlockImpl$work.mux4_8(struct)/InstantiationBlockImpl$outmux/BPortImpl$d0/label" transform="translate(3, -7.120500087738037) translate(0, -0.13300000131130219)" style="cursor:default;fill:rgb(48, 48, 48);font-family:Arial, Helvetica, sans-serif;text-anchor:middle;"><path d="M3.66 0.13L3.66 0.13Q2.33 0.13 1.53-0.79Q0.73-1.72 0.73-3.55L0.73-3.55Q0.73-5.39 1.54-6.32Q2.34-7.26 3.67-7.26L3.67-7.26Q4.50-7.26 5.02-6.96Q5.55-6.65 5.88-6.21L5.88-6.21L5.96-6.21Q5.95-6.38 5.91-6.72Q5.88-7.06 5.88-7.26L5.88-7.26L5.88-10.11L7.05-10.11L7.05 0L6.10 0L5.93-0.96L5.88-0.96Q5.56-0.51 5.03-0.19Q4.50 0.13 3.66 0.13ZM3.84-0.84L3.84-0.84Q4.97-0.84 5.43-1.46Q5.89-2.07 5.89-3.33L5.89-3.33L5.89-3.54Q5.89-4.87 5.45-5.58Q5.01-6.29 3.83-6.29L3.83-6.29Q2.89-6.29 2.41-5.54Q1.94-4.79 1.94-3.52L1.94-3.52Q1.94-2.25 2.41-1.54Q2.89-0.84 3.84-0.84ZM11.97 0.13L11.97 0.13Q10.36 0.13 9.60-1.16Q8.83-2.46 8.83-4.76L8.83-4.76Q8.83-6.30 9.14-7.39Q9.46-8.49 10.15-9.06Q10.84-9.64 11.97-9.64L11.97-9.64Q13.57-9.64 14.35-8.36Q15.14-7.08 15.14-4.76L15.14-4.76Q15.14-3.23 14.82-2.13Q14.50-1.04 13.81-0.45Q13.11 0.13 11.97 0.13ZM11.97-0.86L11.97-0.86Q13.03-0.86 13.49-1.83Q13.95-2.79 13.95-4.76L13.95-4.76Q13.95-6.70 13.49-7.67Q13.03-8.65 11.97-8.65L11.97-8.65Q10.89-8.65 10.45-7.67Q10.00-6.70 10.00-4.76L10.00-4.76Q10.00-2.81 10.45-1.84Q10.89-0.86 11.97-0.86Z" transform="translate(4, 12.241)"/><rect x="0" y="0.133" width="23.787100000000002" height="14.241" class="clickable" style="cursor:pointer;fill:rgba(0, 0, 0, 0);fill-opacity:0;stroke-width:0px;"/></g></g><g id="sprotty_ArchitectureBlockImpl$work.mux4_8(struct)/InstantiationBlockImpl$outmux/BPortImpl$y" transform="translate(125.83984375, 61.93840026855469)" class="triangle"><path d="M 0,0 L 5,2.5 L 0,5 Z" transform="translate(-1.67, -2.5)" class="sprotty-port" style="fill:rgb(48, 48, 48);stroke:rgb(48, 48, 48);"/><g class="port sprotty-label" id="sprotty_ArchitectureBlockImpl$work.mux4_8(struct)/InstantiationBlockImpl$outmux/BPortImpl$y/label" transform="translate(-17.782999992370605, -7.160400390625) translate(0, -3.191999912261963)" style="cursor:default;fill:rgb(48, 48, 48);font-family:Arial, Helvetica, sans-serif;text-anchor:middle;"><path d="M1.12 3.19L1.12 3.19Q0.80 3.19 0.56 3.16Q0.32 3.13 0.15 3.09L0.15 3.09L0.15 2.15Q0.29 2.18 0.50 2.21Q0.70 2.23 0.93 2.23L0.93 2.23Q1.54 2.23 1.92 1.89Q2.29 1.54 2.51 0.97L2.51 0.97L2.89 0.03L0.01-7.13L1.26-7.13L2.81-3.07Q3.01-2.54 3.17-2.05Q3.33-1.57 3.40-1.13L3.40-1.13L3.46-1.13Q3.54-1.46 3.70-2.00Q3.87-2.54 4.07-3.09L4.07-3.09L5.52-7.13L6.78-7.13L3.71 0.98Q3.34 2.00 2.75 2.59Q2.15 3.19 1.12 3.19Z" transform="translate(4, 12.320800000000002)"/><rect x="0" y="3.192" width="14.783000000000001" height="14.320800000000002" class="clickable" style="cursor:pointer;fill:rgba(0, 0, 0, 0);fill-opacity:0;stroke-width:0px;"/></g></g></g><g id="sprotty_ArchitectureBlockImpl$work.mux4_8(struct)/InstantiationBlockImpl$himux" transform="translate(74.91503143310547, 158.87680053710938)" class="instantiation"><g class="sprotty-block" style="fill:rgb(245, 245, 245);stroke:rgb(48, 48, 48);stroke-dasharray:0px;"><rect x="0" y="0" rx="1" ry="1" width="114.11328125" height="103.87680053710938"/><path d="M5.30 3.84L7.31 3.84L7.31 6.74Q7.31 7.25 7.27 7.74Q7.23 8.22 7.20 8.46L7.20 8.46L7.33 8.46Q7.74 7.81 8.42 7.49Q9.09 7.17 9.90 7.17L9.90 7.17Q11.38 7.17 12.21 7.92Q13.04 8.67 13.04 10.35L13.04 10.35L13.04 16L11.02 16L11.02 10.75Q11.02 8.80 9.42 8.80L9.42 8.80Q8.21 8.80 7.76 9.57Q7.31 10.34 7.31 11.76L7.31 11.76L7.31 16L5.30 16L5.30 3.84ZM16.58 3.98L16.58 3.98Q17.04 3.98 17.37 4.22Q17.70 4.45 17.70 5.04L17.70 5.04Q17.70 5.63 17.37 5.87Q17.04 6.11 16.58 6.11L16.58 6.11Q16.11 6.11 15.78 5.87Q15.46 5.63 15.46 5.04L15.46 5.04Q15.46 4.45 15.78 4.22Q16.11 3.98 16.58 3.98ZM15.57 7.33L17.58 7.33L17.58 16L15.57 16L15.57 7.33ZM30.10 7.17L30.10 7.17Q31.57 7.17 32.31 7.92Q33.06 8.67 33.06 10.35L33.06 10.35L33.06 16L31.04 16L31.04 10.74Q31.04 8.80 29.57 8.80L29.57 8.80Q28.51 8.80 28.06 9.49Q27.62 10.18 27.62 11.49L27.62 11.49L27.62 16L25.60 16L25.60 10.74Q25.60 8.80 24.11 8.80L24.11 8.80Q23.01 8.80 22.59 9.57Q22.18 10.34 22.18 11.76L22.18 11.76L22.18 16L20.16 16L20.16 7.33L21.71 7.33L22.00 8.46L22.11 8.46Q22.50 7.79 23.19 7.48Q23.89 7.17 24.64 7.17L24.64 7.17Q25.62 7.17 26.28 7.50Q26.94 7.82 27.30 8.51L27.30 8.51L27.46 8.51Q27.86 7.81 28.58 7.49Q29.30 7.17 30.10 7.17ZM41.26 7.33L43.28 7.33L43.28 16L41.70 16L41.42 14.88L41.33 14.88Q40.90 15.55 40.17 15.86Q39.44 16.16 38.62 16.16L38.62 16.16Q37.17 16.16 36.34 15.41Q35.52 14.66 35.52 12.99L35.52 12.99L35.52 7.33L37.54 7.33L37.54 12.59Q37.54 14.53 39.14 14.53L39.14 14.53Q40.35 14.53 40.81 13.77Q41.26 13.01 41.26 11.57L41.26 11.57L41.26 7.33ZM44.72 16L47.73 11.57L44.86 7.33L47.15 7.33L49.04 10.27L50.93 7.33L53.22 7.33L50.32 11.57L53.36 16L51.07 16L49.04 12.85L47.01 16L44.72 16ZM58.69 8.38L58.69 8.38Q58.69 7.70 59.04 7.42Q59.39 7.14 59.90 7.14L59.90 7.14Q60.40 7.14 60.77 7.42Q61.14 7.70 61.14 8.38L61.14 8.38Q61.14 9.04 60.77 9.33Q60.40 9.62 59.90 9.62L59.90 9.62Q59.39 9.62 59.04 9.33Q58.69 9.04 58.69 8.38ZM58.69 14.98L58.69 14.98Q58.69 14.30 59.04 14.02Q59.39 13.74 59.90 13.74L59.90 13.74Q60.40 13.74 60.77 14.02Q61.14 14.30 61.14 14.98L61.14 14.98Q61.14 15.63 60.77 15.92Q60.40 16.21 59.90 16.21L59.90 16.21Q59.39 16.21 59.04 15.92Q58.69 15.63 58.69 14.98ZM77.54 7.17L77.54 7.17Q79.01 7.17 79.75 7.92Q80.50 8.67 80.50 10.35L80.50 10.35L80.50 16L78.48 16L78.48 10.74Q78.48 8.80 77.01 8.80L77.01 8.80Q75.95 8.80 75.50 9.49Q75.06 10.18 75.06 11.49L75.06 11.49L75.06 16L73.04 16L73.04 10.74Q73.04 8.80 71.55 8.80L71.55 8.80Q70.45 8.80 70.03 9.57Q69.62 10.34 69.62 11.76L69.62 11.76L69.62 16L67.60 16L67.60 7.33L69.15 7.33L69.44 8.46L69.55 8.46Q69.94 7.79 70.63 7.48Q71.33 7.17 72.08 7.17L72.08 7.17Q73.06 7.17 73.72 7.50Q74.38 7.82 74.74 8.51L74.74 8.51L74.90 8.51Q75.30 7.81 76.02 7.49Q76.74 7.17 77.54 7.17ZM88.70 7.33L90.72 7.33L90.72 16L89.14 16L88.86 14.88L88.77 14.88Q88.34 15.55 87.61 15.86Q86.88 16.16 86.06 16.16L86.06 16.16Q84.61 16.16 83.78 15.41Q82.96 14.66 82.96 12.99L82.96 12.99L82.96 7.33L84.98 7.33L84.98 12.59Q84.98 14.53 86.58 14.53L86.58 14.53Q87.79 14.53 88.25 13.77Q88.70 13.01 88.70 11.57L88.70 11.57L88.70 7.33ZM92.16 16L95.17 11.57L92.30 7.33L94.59 7.33L96.48 10.27L98.37 7.33L100.66 7.33L97.76 11.57L100.80 16L98.51 16L96.48 12.85L94.45 16L92.16 16ZM109.47 14.26L109.47 16L101.65 16L101.65 14.51L104.56 11.57Q105.42 10.69 105.98 10.06Q106.53 9.44 106.79 8.89Q107.06 8.34 107.06 7.70L107.06 7.70Q107.06 6.91 106.61 6.52Q106.16 6.13 105.42 6.13L105.42 6.13Q104.70 6.13 104.08 6.42Q103.46 6.72 102.78 7.26L102.78 7.26L101.68 5.94Q102.38 5.33 103.28 4.87Q104.18 4.42 105.54 4.42L105.54 4.42Q106.64 4.42 107.44 4.81Q108.24 5.20 108.66 5.89Q109.09 6.58 109.09 7.49L109.09 7.49Q109.09 8.42 108.72 9.19Q108.35 9.97 107.66 10.74Q106.96 11.52 106.00 12.42L106.00 12.42L104.19 14.16L104.19 14.26L109.47 14.26Z" class="sprotty-block-name" style="fill:rgb(48, 48, 48);stroke:rgba(0, 0, 0, 0);"/><line x1="0" y1="20" x2="114.11328125" y2="20"/></g><g id="sprotty_ArchitectureBlockImpl$work.mux4_8(struct)/InstantiationBlockImpl$himux/BPortImpl$s" transform="translate(0, 86.17940044403076)" class="triangle"><path d="M 0,0 L 5,2.5 L 0,5 Z" transform="translate(-1.67, -2.5)" class="sprotty-port" style="fill:rgb(48, 48, 48);stroke:rgb(48, 48, 48);"/><g class="port sprotty-label" id="sprotty_ArchitectureBlockImpl$work.mux4_8(struct)/InstantiationBlockImpl$himux/BPortImpl$s/label" transform="translate(3, -5.697400093078613) translate(0, -0.13300000131130219)" style="cursor:default;fill:rgb(48, 48, 48);font-family:Arial, Helvetica, sans-serif;text-anchor:middle;"><path d="M2.93 0.13L2.93 0.13Q2.18 0.13 1.64 0.01Q1.10-0.11 0.69-0.32L0.69-0.32L0.69-1.38Q1.12-1.17 1.72-0.99Q2.33-0.81 2.95-0.81L2.95-0.81Q3.84-0.81 4.24-1.10Q4.64-1.38 4.64-1.86L4.64-1.86Q4.64-2.13 4.50-2.34Q4.35-2.55 3.97-2.77Q3.59-2.98 2.89-3.25L2.89-3.25Q2.19-3.51 1.70-3.78Q1.21-4.04 0.94-4.42Q0.68-4.79 0.68-5.37L0.68-5.37Q0.68-6.28 1.42-6.77Q2.15-7.26 3.35-7.26L3.35-7.26Q4.00-7.26 4.57-7.14Q5.13-7.01 5.63-6.78L5.63-6.78L5.23-5.85Q4.77-6.04 4.28-6.17Q3.79-6.30 3.27-6.30L3.27-6.30Q2.55-6.30 2.17-6.07Q1.80-5.84 1.80-5.44L1.80-5.44Q1.80-5.15 1.97-4.94Q2.14-4.73 2.55-4.54Q2.95-4.35 3.63-4.08L3.63-4.08Q4.31-3.83 4.79-3.56Q5.27-3.29 5.52-2.91Q5.77-2.54 5.77-1.97L5.77-1.97Q5.77-0.93 5.00-0.40Q4.23 0.13 2.93 0.13Z" transform="translate(4, 9.3948)"/><rect x="0" y="0.133" width="14.3707" height="11.3948" class="clickable" style="cursor:pointer;fill:rgba(0, 0, 0, 0);fill-opacity:0;stroke-width:0px;"/></g></g><g id="sprotty_ArchitectureBlockImpl$work.mux4_8(struct)/InstantiationBlockImpl$himux/BPortImpl$d1" transform="translate(0, 63.36150026321411)" class="triangle"><path d="M 0,0 L 5,2.5 L 0,5 Z" transform="translate(-1.67, -2.5)" class="sprotty-port" style="fill:rgb(48, 48, 48);stroke:rgb(48, 48, 48);"/><g class="port sprotty-label" id="sprotty_ArchitectureBlockImpl$work.mux4_8(struct)/InstantiationBlockImpl$himux/BPortImpl$d1/label" transform="translate(3, -7.120500087738037) translate(0, -0.13300000131130219)" style="cursor:default;fill:rgb(48, 48, 48);font-family:Arial, Helvetica, sans-serif;text-anchor:middle;"><path d="M3.66 0.13L3.66 0.13Q2.33 0.13 1.53-0.79Q0.73-1.72 0.73-3.55L0.73-3.55Q0.73-5.39 1.54-6.32Q2.34-7.26 3.67-7.26L3.67-7.26Q4.50-7.26 5.02-6.96Q5.55-6.65 5.88-6.21L5.88-6.21L5.96-6.21Q5.95-6.38 5.91-6.72Q5.88-7.06 5.88-7.26L5.88-7.26L5.88-10.11L7.05-10.11L7.05 0L6.10 0L5.93-0.96L5.88-0.96Q5.56-0.51 5.03-0.19Q4.50 0.13 3.66 0.13ZM3.84-0.84L3.84-0.84Q4.97-0.84 5.43-1.46Q5.89-2.07 5.89-3.33L5.89-3.33L5.89-3.54Q5.89-4.87 5.45-5.58Q5.01-6.29 3.83-6.29L3.83-6.29Q2.89-6.29 2.41-5.54Q1.94-4.79 1.94-3.52L1.94-3.52Q1.94-2.25 2.41-1.54Q2.89-0.84 3.84-0.84ZM12.90 0L11.76 0L11.76-6.64Q11.76-7.21 11.77-7.55Q11.78-7.90 11.81-8.27L11.81-8.27Q11.60-8.07 11.42-7.92Q11.25-7.77 10.99-7.54L10.99-7.54L9.98-6.72L9.36-7.50L11.93-9.50L12.90-9.50L12.90 0Z" transform="translate(4, 12.241)"/><rect x="0" y="0.133" width="23.787100000000002" height="14.241" class="clickable" style="cursor:pointer;fill:rgba(0, 0, 0, 0);fill-opacity:0;stroke-width:0px;"/></g></g><g id="sprotty_ArchitectureBlockImpl$work.mux4_8(struct)/InstantiationBlockImpl$himux/BPortImpl$d0" transform="translate(0, 39.12050008773804)" class="triangle"><path d="M 0,0 L 5,2.5 L 0,5 Z" transform="translate(-1.67, -2.5)" class="sprotty-port" style="fill:rgb(48, 48, 48);stroke:rgb(48, 48, 48);"/><g class="port sprotty-label" id="sprotty_ArchitectureBlockImpl$work.mux4_8(struct)/InstantiationBlockImpl$himux/BPortImpl$d0/label" transform="translate(3, -7.120500087738037) translate(0, -0.13300000131130219)" style="cursor:default;fill:rgb(48, 48, 48);font-family:Arial, Helvetica, sans-serif;text-anchor:middle;"><path d="M3.66 0.13L3.66 0.13Q2.33 0.13 1.53-0.79Q0.73-1.72 0.73-3.55L0.73-3.55Q0.73-5.39 1.54-6.32Q2.34-7.26 3.67-7.26L3.67-7.26Q4.50-7.26 5.02-6.96Q5.55-6.65 5.88-6.21L5.88-6.21L5.96-6.21Q5.95-6.38 5.91-6.72Q5.88-7.06 5.88-7.26L5.88-7.26L5.88-10.11L7.05-10.11L7.05 0L6.10 0L5.93-0.96L5.88-0.96Q5.56-0.51 5.03-0.19Q4.50 0.13 3.66 0.13ZM3.84-0.84L3.84-0.84Q4.97-0.84 5.43-1.46Q5.89-2.07 5.89-3.33L5.89-3.33L5.89-3.54Q5.89-4.87 5.45-5.58Q5.01-6.29 3.83-6.29L3.83-6.29Q2.89-6.29 2.41-5.54Q1.94-4.79 1.94-3.52L1.94-3.52Q1.94-2.25 2.41-1.54Q2.89-0.84 3.84-0.84ZM11.97 0.13L11.97 0.13Q10.36 0.13 9.60-1.16Q8.83-2.46 8.83-4.76L8.83-4.76Q8.83-6.30 9.14-7.39Q9.46-8.49 10.15-9.06Q10.84-9.64 11.97-9.64L11.97-9.64Q13.57-9.64 14.35-8.36Q15.14-7.08 15.14-4.76L15.14-4.76Q15.14-3.23 14.82-2.13Q14.50-1.04 13.81-0.45Q13.11 0.13 11.97 0.13ZM11.97-0.86L11.97-0.86Q13.03-0.86 13.49-1.83Q13.95-2.79 13.95-4.76L13.95-4.76Q13.95-6.70 13.49-7.67Q13.03-8.65 11.97-8.65L11.97-8.65Q10.89-8.65 10.45-7.67Q10.00-6.70 10.00-4.76L10.00-4.76Q10.00-2.81 10.45-1.84Q10.89-0.86 11.97-0.86Z" transform="translate(4, 12.241)"/><rect x="0" y="0.133" width="23.787100000000002" height="14.241" class="clickable" style="cursor:pointer;fill:rgba(0, 0, 0, 0);fill-opacity:0;stroke-width:0px;"/></g></g><g id="sprotty_ArchitectureBlockImpl$work.mux4_8(struct)/InstantiationBlockImpl$himux/BPortImpl$y" transform="translate(114.11328125, 61.93840026855469)" class="triangle"><path d="M 0,0 L 5,2.5 L 0,5 Z" transform="translate(-1.67, -2.5)" class="sprotty-port" style="fill:rgb(48, 48, 48);stroke:rgb(48, 48, 48);"/><g class="port sprotty-label" id="sprotty_ArchitectureBlockImpl$work.mux4_8(struct)/InstantiationBlockImpl$himux/BPortImpl$y/label" transform="translate(-17.782999992370605, -7.160400390625) translate(0, -3.191999912261963)" style="cursor:default;fill:rgb(48, 48, 48);font-family:Arial, Helvetica, sans-serif;text-anchor:middle;"><path d="M1.12 3.19L1.12 3.19Q0.80 3.19 0.56 3.16Q0.32 3.13 0.15 3.09L0.15 3.09L0.15 2.15Q0.29 2.18 0.50 2.21Q0.70 2.23 0.93 2.23L0.93 2.23Q1.54 2.23 1.92 1.89Q2.29 1.54 2.51 0.97L2.51 0.97L2.89 0.03L0.01-7.13L1.26-7.13L2.81-3.07Q3.01-2.54 3.17-2.05Q3.33-1.57 3.40-1.13L3.40-1.13L3.46-1.13Q3.54-1.46 3.70-2.00Q3.87-2.54 4.07-3.09L4.07-3.09L5.52-7.13L6.78-7.13L3.71 0.98Q3.34 2.00 2.75 2.59Q2.15 3.19 1.12 3.19Z" transform="translate(4, 12.320800000000002)"/><rect x="0" y="3.192" width="14.783000000000001" height="14.320800000000002" class="clickable" style="cursor:pointer;fill:rgba(0, 0, 0, 0);fill-opacity:0;stroke-width:0px;"/></g></g></g><g id="sprotty_ArchitectureBlockImpl$work.mux4_8(struct)/GPortImpl$s" transform="translate(0, 252.47930097579956)" class="triangle"><path d="M 0,0 L 5,2.5 L 0,5 Z" transform="translate(-1.67, -2.5)" class="sprotty-port" style="fill:rgb(48, 48, 48);stroke:rgb(48, 48, 48);"/><g class="port sprotty-label" id="sprotty_ArchitectureBlockImpl$work.mux4_8(struct)/GPortImpl$s/label" transform="translate(3, 3) translate(0, -0.13300000131130219)" style="cursor:default;fill:rgb(48, 48, 48);font-family:Arial, Helvetica, sans-serif;text-anchor:middle;"><path d="M2.93 0.13L2.93 0.13Q2.18 0.13 1.64 0.01Q1.10-0.11 0.69-0.32L0.69-0.32L0.69-1.38Q1.12-1.17 1.72-0.99Q2.33-0.81 2.95-0.81L2.95-0.81Q3.84-0.81 4.24-1.10Q4.64-1.38 4.64-1.86L4.64-1.86Q4.64-2.13 4.50-2.34Q4.35-2.55 3.97-2.77Q3.59-2.98 2.89-3.25L2.89-3.25Q2.19-3.51 1.70-3.78Q1.21-4.04 0.94-4.42Q0.68-4.79 0.68-5.37L0.68-5.37Q0.68-6.28 1.42-6.77Q2.15-7.26 3.35-7.26L3.35-7.26Q4.00-7.26 4.57-7.14Q5.13-7.01 5.63-6.78L5.63-6.78L5.23-5.85Q4.77-6.04 4.28-6.17Q3.79-6.30 3.27-6.30L3.27-6.30Q2.55-6.30 2.17-6.07Q1.80-5.84 1.80-5.44L1.80-5.44Q1.80-5.15 1.97-4.94Q2.14-4.73 2.55-4.54Q2.95-4.35 3.63-4.08L3.63-4.08Q4.31-3.83 4.79-3.56Q5.27-3.29 5.52-2.91Q5.77-2.54 5.77-1.97L5.77-1.97Q5.77-0.93 5.00-0.40Q4.23 0.13 2.93 0.13Z" transform="translate(4, 9.3948)"/><rect x="0" y="0.133" width="14.3707" height="11.3948" class="clickable" style="cursor:pointer;fill:rgba(0, 0, 0, 0);fill-opacity:0;stroke-width:0px;"/></g></g><g id="sprotty_ArchitectureBlockImpl$work.mux4_8(struct)/GPortImpl$d3" transform="translate(0, 225.2383008003235)" class="triangle"><path d="M 0,0 L 5,2.5 L 0,5 Z" transform="translate(-1.67, -2.5)" class="sprotty-port" style="fill:rgb(48, 48, 48);stroke:rgb(48, 48, 48);"/><g class="port sprotty-label" id="sprotty_ArchitectureBlockImpl$work.mux4_8(struct)/GPortImpl$d3/label" transform="translate(3, 3) translate(0, -0.13300000131130219)" style="cursor:default;fill:rgb(48, 48, 48);font-family:Arial, Helvetica, sans-serif;text-anchor:middle;"><path d="M3.66 0.13L3.66 0.13Q2.33 0.13 1.53-0.79Q0.73-1.72 0.73-3.55L0.73-3.55Q0.73-5.39 1.54-6.32Q2.34-7.26 3.67-7.26L3.67-7.26Q4.50-7.26 5.02-6.96Q5.55-6.65 5.88-6.21L5.88-6.21L5.96-6.21Q5.95-6.38 5.91-6.72Q5.88-7.06 5.88-7.26L5.88-7.26L5.88-10.11L7.05-10.11L7.05 0L6.10 0L5.93-0.96L5.88-0.96Q5.56-0.51 5.03-0.19Q4.50 0.13 3.66 0.13ZM3.84-0.84L3.84-0.84Q4.97-0.84 5.43-1.46Q5.89-2.07 5.89-3.33L5.89-3.33L5.89-3.54Q5.89-4.87 5.45-5.58Q5.01-6.29 3.83-6.29L3.83-6.29Q2.89-6.29 2.41-5.54Q1.94-4.79 1.94-3.52L1.94-3.52Q1.94-2.25 2.41-1.54Q2.89-0.84 3.84-0.84ZM11.38 0.13L11.38 0.13Q10.64 0.13 10.00 0.02Q9.36-0.09 8.78-0.39L8.78-0.39L8.78-1.48Q9.38-1.18 10.07-1.02Q10.76-0.85 11.40-0.85L11.40-0.85Q12.67-0.85 13.24-1.35Q13.81-1.85 13.81-2.73L13.81-2.73Q13.81-3.62 13.11-4.01Q12.41-4.40 11.15-4.40L11.15-4.40L10.23-4.40L10.23-5.40L11.16-5.40Q12.33-5.40 12.93-5.89Q13.54-6.38 13.54-7.20L13.54-7.20Q13.54-7.89 13.07-8.27Q12.61-8.65 11.81-8.65L11.81-8.65Q11.04-8.65 10.49-8.42Q9.95-8.19 9.42-7.85L9.42-7.85L8.83-8.65Q9.34-9.04 10.09-9.34Q10.84-9.63 11.80-9.63L11.80-9.63Q13.29-9.63 14.01-8.96Q14.74-8.30 14.74-7.28L14.74-7.28Q14.74-6.32 14.20-5.75Q13.67-5.19 12.77-5.00L12.77-5.00L12.77-4.95Q13.91-4.81 14.47-4.23Q15.03-3.64 15.03-2.70L15.03-2.70Q15.03-1.88 14.64-1.23Q14.26-0.59 13.45-0.23Q12.65 0.13 11.38 0.13Z" transform="translate(4, 12.241)"/><rect x="0" y="0.133" width="23.787100000000002" height="14.241" class="clickable" style="cursor:pointer;fill:rgba(0, 0, 0, 0);fill-opacity:0;stroke-width:0px;"/></g></g><g id="sprotty_ArchitectureBlockImpl$work.mux4_8(struct)/GPortImpl$d2" transform="translate(0, 197.9973006248474)" class="triangle"><path d="M 0,0 L 5,2.5 L 0,5 Z" transform="translate(-1.67, -2.5)" class="sprotty-port" style="fill:rgb(48, 48, 48);stroke:rgb(48, 48, 48);"/><g class="port sprotty-label" id="sprotty_ArchitectureBlockImpl$work.mux4_8(struct)/GPortImpl$d2/label" transform="translate(3, 3) translate(0, -0.13300000131130219)" style="cursor:default;fill:rgb(48, 48, 48);font-family:Arial, Helvetica, sans-serif;text-anchor:middle;"><path d="M3.66 0.13L3.66 0.13Q2.33 0.13 1.53-0.79Q0.73-1.72 0.73-3.55L0.73-3.55Q0.73-5.39 1.54-6.32Q2.34-7.26 3.67-7.26L3.67-7.26Q4.50-7.26 5.02-6.96Q5.55-6.65 5.88-6.21L5.88-6.21L5.96-6.21Q5.95-6.38 5.91-6.72Q5.88-7.06 5.88-7.26L5.88-7.26L5.88-10.11L7.05-10.11L7.05 0L6.10 0L5.93-0.96L5.88-0.96Q5.56-0.51 5.03-0.19Q4.50 0.13 3.66 0.13ZM3.84-0.84L3.84-0.84Q4.97-0.84 5.43-1.46Q5.89-2.07 5.89-3.33L5.89-3.33L5.89-3.54Q5.89-4.87 5.45-5.58Q5.01-6.29 3.83-6.29L3.83-6.29Q2.89-6.29 2.41-5.54Q1.94-4.79 1.94-3.52L1.94-3.52Q1.94-2.25 2.41-1.54Q2.89-0.84 3.84-0.84ZM15.10 0L8.82 0L8.82-0.97L11.31-3.48Q12.02-4.20 12.52-4.76Q13.01-5.32 13.26-5.86Q13.51-6.40 13.51-7.04L13.51-7.04Q13.51-7.82 13.05-8.23Q12.58-8.63 11.84-8.63L11.84-8.63Q11.15-8.63 10.62-8.39Q10.09-8.15 9.55-7.73L9.55-7.73L8.92-8.51Q9.48-8.98 10.21-9.30Q10.93-9.63 11.84-9.63L11.84-9.63Q13.17-9.63 13.94-8.96Q14.71-8.29 14.71-7.10L14.71-7.10Q14.71-6.36 14.40-5.71Q14.10-5.07 13.55-4.43Q13.01-3.79 12.28-3.07L12.28-3.07L10.29-1.12L10.29-1.06L15.10-1.06L15.10 0Z" transform="translate(4, 12.241)"/><rect x="0" y="0.133" width="23.787100000000002" height="14.241" class="clickable" style="cursor:pointer;fill:rgba(0, 0, 0, 0);fill-opacity:0;stroke-width:0px;"/></g></g><g id="sprotty_ArchitectureBlockImpl$work.mux4_8(struct)/GPortImpl$d1" transform="translate(0, 101.36150026321411)" class="triangle"><path d="M 0,0 L 5,2.5 L 0,5 Z" transform="translate(-1.67, -2.5)" class="sprotty-port" style="fill:rgb(48, 48, 48);stroke:rgb(48, 48, 48);"/><g class="port sprotty-label" id="sprotty_ArchitectureBlockImpl$work.mux4_8(struct)/GPortImpl$d1/label" transform="translate(3, 3) translate(0, -0.13300000131130219)" style="cursor:default;fill:rgb(48, 48, 48);font-family:Arial, Helvetica, sans-serif;text-anchor:middle;"><path d="M3.66 0.13L3.66 0.13Q2.33 0.13 1.53-0.79Q0.73-1.72 0.73-3.55L0.73-3.55Q0.73-5.39 1.54-6.32Q2.34-7.26 3.67-7.26L3.67-7.26Q4.50-7.26 5.02-6.96Q5.55-6.65 5.88-6.21L5.88-6.21L5.96-6.21Q5.95-6.38 5.91-6.72Q5.88-7.06 5.88-7.26L5.88-7.26L5.88-10.11L7.05-10.11L7.05 0L6.10 0L5.93-0.96L5.88-0.96Q5.56-0.51 5.03-0.19Q4.50 0.13 3.66 0.13ZM3.84-0.84L3.84-0.84Q4.97-0.84 5.43-1.46Q5.89-2.07 5.89-3.33L5.89-3.33L5.89-3.54Q5.89-4.87 5.45-5.58Q5.01-6.29 3.83-6.29L3.83-6.29Q2.89-6.29 2.41-5.54Q1.94-4.79 1.94-3.52L1.94-3.52Q1.94-2.25 2.41-1.54Q2.89-0.84 3.84-0.84ZM12.90 0L11.76 0L11.76-6.64Q11.76-7.21 11.77-7.55Q11.78-7.90 11.81-8.27L11.81-8.27Q11.60-8.07 11.42-7.92Q11.25-7.77 10.99-7.54L10.99-7.54L9.98-6.72L9.36-7.50L11.93-9.50L12.90-9.50L12.90 0Z" transform="translate(4, 12.241)"/><rect x="0" y="0.133" width="23.787100000000002" height="14.241" class="clickable" style="cursor:pointer;fill:rgba(0, 0, 0, 0);fill-opacity:0;stroke-width:0px;"/></g></g><g id="sprotty_ArchitectureBlockImpl$work.mux4_8(struct)/GPortImpl$d0" transform="translate(0, 74.12050008773804)" class="triangle"><path d="M 0,0 L 5,2.5 L 0,5 Z" transform="translate(-1.67, -2.5)" class="sprotty-port" style="fill:rgb(48, 48, 48);stroke:rgb(48, 48, 48);"/><g class="port sprotty-label" id="sprotty_ArchitectureBlockImpl$work.mux4_8(struct)/GPortImpl$d0/label" transform="translate(3, 3) translate(0, -0.13300000131130219)" style="cursor:default;fill:rgb(48, 48, 48);font-family:Arial, Helvetica, sans-serif;text-anchor:middle;"><path d="M3.66 0.13L3.66 0.13Q2.33 0.13 1.53-0.79Q0.73-1.72 0.73-3.55L0.73-3.55Q0.73-5.39 1.54-6.32Q2.34-7.26 3.67-7.26L3.67-7.26Q4.50-7.26 5.02-6.96Q5.55-6.65 5.88-6.21L5.88-6.21L5.96-6.21Q5.95-6.38 5.91-6.72Q5.88-7.06 5.88-7.26L5.88-7.26L5.88-10.11L7.05-10.11L7.05 0L6.10 0L5.93-0.96L5.88-0.96Q5.56-0.51 5.03-0.19Q4.50 0.13 3.66 0.13ZM3.84-0.84L3.84-0.84Q4.97-0.84 5.43-1.46Q5.89-2.07 5.89-3.33L5.89-3.33L5.89-3.54Q5.89-4.87 5.45-5.58Q5.01-6.29 3.83-6.29L3.83-6.29Q2.89-6.29 2.41-5.54Q1.94-4.79 1.94-3.52L1.94-3.52Q1.94-2.25 2.41-1.54Q2.89-0.84 3.84-0.84ZM11.97 0.13L11.97 0.13Q10.36 0.13 9.60-1.16Q8.83-2.46 8.83-4.76L8.83-4.76Q8.83-6.30 9.14-7.39Q9.46-8.49 10.15-9.06Q10.84-9.64 11.97-9.64L11.97-9.64Q13.57-9.64 14.35-8.36Q15.14-7.08 15.14-4.76L15.14-4.76Q15.14-3.23 14.82-2.13Q14.50-1.04 13.81-0.45Q13.11 0.13 11.97 0.13ZM11.97-0.86L11.97-0.86Q13.03-0.86 13.49-1.83Q13.95-2.79 13.95-4.76L13.95-4.76Q13.95-6.70 13.49-7.67Q13.03-8.65 11.97-8.65L11.97-8.65Q10.89-8.65 10.45-7.67Q10.00-6.70 10.00-4.76L10.00-4.76Q10.00-2.81 10.45-1.84Q10.89-0.86 11.97-0.86Z" transform="translate(4, 12.241)"/><rect x="0" y="0.133" width="23.787100000000002" height="14.241" class="clickable" style="cursor:pointer;fill:rgba(0, 0, 0, 0);fill-opacity:0;stroke-width:0px;"/></g></g><g id="sprotty_ArchitectureBlockImpl$work.mux4_8(struct)/GPortImpl$y" transform="translate(387.0349426269531, 119.75630044937134)" class="triangle"><path d="M 0,0 L 5,2.5 L 0,5 Z" transform="translate(-1.67, -2.5)" class="sprotty-port" style="fill:rgb(48, 48, 48);stroke:rgb(48, 48, 48);"/><g class="port sprotty-label" id="sprotty_ArchitectureBlockImpl$work.mux4_8(struct)/GPortImpl$y/label" transform="translate(-17.782999992370605, 3) translate(0, -3.191999912261963)" style="cursor:default;fill:rgb(48, 48, 48);font-family:Arial, Helvetica, sans-serif;text-anchor:middle;"><path d="M1.12 3.19L1.12 3.19Q0.80 3.19 0.56 3.16Q0.32 3.13 0.15 3.09L0.15 3.09L0.15 2.15Q0.29 2.18 0.50 2.21Q0.70 2.23 0.93 2.23L0.93 2.23Q1.54 2.23 1.92 1.89Q2.29 1.54 2.51 0.97L2.51 0.97L2.89 0.03L0.01-7.13L1.26-7.13L2.81-3.07Q3.01-2.54 3.17-2.05Q3.33-1.57 3.40-1.13L3.40-1.13L3.46-1.13Q3.54-1.46 3.70-2.00Q3.87-2.54 4.07-3.09L4.07-3.09L5.52-7.13L6.78-7.13L3.71 0.98Q3.34 2.00 2.75 2.59Q2.15 3.19 1.12 3.19Z" transform="translate(4, 12.320800000000002)"/><rect x="0" y="3.192" width="14.783000000000001" height="14.320800000000002" class="clickable" style="cursor:pointer;fill:rgba(0, 0, 0, 0);fill-opacity:0;stroke-width:0px;"/></g></g><g id="sprotty_ArchitectureBlockImpl$work.mux4_8(struct)/InstantiationBlockImpl$lowmux" transform="translate(71.78710174560547, 35)" class="instantiation"><g class="sprotty-block" style="fill:rgb(245, 245, 245);stroke:rgb(48, 48, 48);stroke-dasharray:0px;"><rect x="0" y="0" rx="1" ry="1" width="126.625" height="103.87680053710938"/><path d="M7.31 3.84L7.31 16L5.30 16L5.30 3.84L7.31 3.84ZM17.63 11.65L17.63 11.65Q17.63 13.81 16.51 14.98Q15.39 16.16 13.47 16.16L13.47 16.16Q12.29 16.16 11.36 15.63Q10.43 15.10 9.90 14.10Q9.38 13.09 9.38 11.65L9.38 11.65Q9.38 9.49 10.49 8.33Q11.60 7.17 13.52 7.17L13.52 7.17Q14.72 7.17 15.65 7.69Q16.58 8.21 17.10 9.21Q17.63 10.21 17.63 11.65ZM11.44 11.65L11.44 11.65Q11.44 13.02 11.93 13.78Q12.42 14.53 13.50 14.53L13.50 14.53Q14.59 14.53 15.08 13.78Q15.57 13.02 15.57 11.65L15.57 11.65Q15.57 10.27 15.08 9.54Q14.59 8.80 13.49 8.80L13.49 8.80Q12.42 8.80 11.93 9.54Q11.44 10.27 11.44 11.65ZM28.74 16L26.50 16L25.54 12.27Q25.46 11.97 25.34 11.51Q25.23 11.06 25.11 10.56Q24.99 10.06 24.90 9.65Q24.80 9.23 24.75 9.01L24.75 9.01L24.69 9.01Q24.64 9.23 24.54 9.65Q24.45 10.06 24.34 10.57Q24.22 11.07 24.10 11.53Q23.98 11.98 23.90 12.29L23.90 12.29L22.90 16L20.69 16L18.26 7.31L20.29 7.31L21.36 11.46Q21.47 11.89 21.58 12.41Q21.68 12.93 21.75 13.42Q21.82 13.90 21.87 14.21L21.87 14.21L21.94 14.21Q21.97 13.92 22.06 13.42Q22.14 12.93 22.24 12.46Q22.34 11.98 22.40 11.74L22.40 11.74L23.65 7.31L25.86 7.31L27.06 11.74Q27.12 12.03 27.22 12.50Q27.33 12.96 27.41 13.43Q27.49 13.90 27.50 14.19L27.50 14.19L27.57 14.19Q27.60 13.94 27.68 13.46Q27.76 12.98 27.87 12.43Q27.98 11.89 28.11 11.46L28.11 11.46L29.20 7.31L31.20 7.31L28.74 16ZM42.61 7.17L42.61 7.17Q44.08 7.17 44.82 7.92Q45.57 8.67 45.57 10.35L45.57 10.35L45.57 16L43.55 16L43.55 10.74Q43.55 8.80 42.08 8.80L42.08 8.80Q41.02 8.80 40.58 9.49Q40.13 10.18 40.13 11.49L40.13 11.49L40.13 16L38.11 16L38.11 10.74Q38.11 8.80 36.62 8.80L36.62 8.80Q35.52 8.80 35.10 9.57Q34.69 10.34 34.69 11.76L34.69 11.76L34.69 16L32.67 16L32.67 7.33L34.22 7.33L34.51 8.46L34.62 8.46Q35.01 7.79 35.70 7.48Q36.40 7.17 37.15 7.17L37.15 7.17Q38.13 7.17 38.79 7.50Q39.46 7.82 39.81 8.51L39.81 8.51L39.97 8.51Q40.37 7.81 41.09 7.49Q41.81 7.17 42.61 7.17ZM53.78 7.33L55.79 7.33L55.79 16L54.21 16L53.94 14.88L53.84 14.88Q53.41 15.55 52.68 15.86Q51.95 16.16 51.14 16.16L51.14 16.16Q49.68 16.16 48.86 15.41Q48.03 14.66 48.03 12.99L48.03 12.99L48.03 7.33L50.05 7.33L50.05 12.59Q50.05 14.53 51.65 14.53L51.65 14.53Q52.86 14.53 53.32 13.77Q53.78 13.01 53.78 11.57L53.78 11.57L53.78 7.33ZM57.23 16L60.24 11.57L57.38 7.33L59.66 7.33L61.55 10.27L63.44 7.33L65.73 7.33L62.83 11.57L65.87 16L63.58 16L61.55 12.85L59.52 16L57.23 16ZM71.20 8.38L71.20 8.38Q71.20 7.70 71.55 7.42Q71.90 7.14 72.42 7.14L72.42 7.14Q72.91 7.14 73.28 7.42Q73.65 7.70 73.65 8.38L73.65 8.38Q73.65 9.04 73.28 9.33Q72.91 9.62 72.42 9.62L72.42 9.62Q71.90 9.62 71.55 9.33Q71.20 9.04 71.20 8.38ZM71.20 14.98L71.20 14.98Q71.20 14.30 71.55 14.02Q71.90 13.74 72.42 13.74L72.42 13.74Q72.91 13.74 73.28 14.02Q73.65 14.30 73.65 14.98L73.65 14.98Q73.65 15.63 73.28 15.92Q72.91 16.21 72.42 16.21L72.42 16.21Q71.90 16.21 71.55 15.92Q71.20 15.63 71.20 14.98ZM90.05 7.17L90.05 7.17Q91.52 7.17 92.26 7.92Q93.01 8.67 93.01 10.35L93.01 10.35L93.01 16L90.99 16L90.99 10.74Q90.99 8.80 89.52 8.80L89.52 8.80Q88.46 8.80 88.02 9.49Q87.57 10.18 87.57 11.49L87.57 11.49L87.57 16L85.55 16L85.55 10.74Q85.55 8.80 84.06 8.80L84.06 8.80Q82.96 8.80 82.54 9.57Q82.13 10.34 82.13 11.76L82.13 11.76L82.13 16L80.11 16L80.11 7.33L81.66 7.33L81.95 8.46L82.06 8.46Q82.45 7.79 83.14 7.48Q83.84 7.17 84.59 7.17L84.59 7.17Q85.57 7.17 86.23 7.50Q86.90 7.82 87.25 8.51L87.25 8.51L87.41 8.51Q87.81 7.81 88.53 7.49Q89.25 7.17 90.05 7.17ZM101.22 7.33L103.23 7.33L103.23 16L101.65 16L101.38 14.88L101.28 14.88Q100.85 15.55 100.12 15.86Q99.39 16.16 98.58 16.16L98.58 16.16Q97.12 16.16 96.30 15.41Q95.47 14.66 95.47 12.99L95.47 12.99L95.47 7.33L97.49 7.33L97.49 12.59Q97.49 14.53 99.09 14.53L99.09 14.53Q100.30 14.53 100.76 13.77Q101.22 13.01 101.22 11.57L101.22 11.57L101.22 7.33ZM104.67 16L107.68 11.57L104.82 7.33L107.10 7.33L108.99 10.27L110.88 7.33L113.17 7.33L110.27 11.57L113.31 16L111.02 16L108.99 12.85L106.96 16L104.67 16ZM121.98 14.26L121.98 16L114.16 16L114.16 14.51L117.07 11.57Q117.94 10.69 118.49 10.06Q119.04 9.44 119.30 8.89Q119.57 8.34 119.57 7.70L119.57 7.70Q119.57 6.91 119.12 6.52Q118.67 6.13 117.94 6.13L117.94 6.13Q117.22 6.13 116.59 6.42Q115.97 6.72 115.30 7.26L115.30 7.26L114.19 5.94Q114.90 5.33 115.79 4.87Q116.69 4.42 118.05 4.42L118.05 4.42Q119.15 4.42 119.95 4.81Q120.75 5.20 121.18 5.89Q121.60 6.58 121.60 7.49L121.60 7.49Q121.60 8.42 121.23 9.19Q120.86 9.97 120.17 10.74Q119.47 11.52 118.51 12.42L118.51 12.42L116.70 14.16L116.70 14.26L121.98 14.26Z" class="sprotty-block-name" style="fill:rgb(48, 48, 48);stroke:rgba(0, 0, 0, 0);"/><line x1="0" y1="20" x2="126.625" y2="20"/></g><g id="sprotty_ArchitectureBlockImpl$work.mux4_8(struct)/InstantiationBlockImpl$lowmux/BPortImpl$s" transform="translate(0, 86.17940044403076)" class="triangle"><path d="M 0,0 L 5,2.5 L 0,5 Z" transform="translate(-1.67, -2.5)" class="sprotty-port" style="fill:rgb(48, 48, 48);stroke:rgb(48, 48, 48);"/><g class="port sprotty-label" id="sprotty_ArchitectureBlockImpl$work.mux4_8(struct)/InstantiationBlockImpl$lowmux/BPortImpl$s/label" transform="translate(3, -5.697400093078613) translate(0, -0.13300000131130219)" style="cursor:default;fill:rgb(48, 48, 48);font-family:Arial, Helvetica, sans-serif;text-anchor:middle;"><path d="M2.93 0.13L2.93 0.13Q2.18 0.13 1.64 0.01Q1.10-0.11 0.69-0.32L0.69-0.32L0.69-1.38Q1.12-1.17 1.72-0.99Q2.33-0.81 2.95-0.81L2.95-0.81Q3.84-0.81 4.24-1.10Q4.64-1.38 4.64-1.86L4.64-1.86Q4.64-2.13 4.50-2.34Q4.35-2.55 3.97-2.77Q3.59-2.98 2.89-3.25L2.89-3.25Q2.19-3.51 1.70-3.78Q1.21-4.04 0.94-4.42Q0.68-4.79 0.68-5.37L0.68-5.37Q0.68-6.28 1.42-6.77Q2.15-7.26 3.35-7.26L3.35-7.26Q4.00-7.26 4.57-7.14Q5.13-7.01 5.63-6.78L5.63-6.78L5.23-5.85Q4.77-6.04 4.28-6.17Q3.79-6.30 3.27-6.30L3.27-6.30Q2.55-6.30 2.17-6.07Q1.80-5.84 1.80-5.44L1.80-5.44Q1.80-5.15 1.97-4.94Q2.14-4.73 2.55-4.54Q2.95-4.35 3.63-4.08L3.63-4.08Q4.31-3.83 4.79-3.56Q5.27-3.29 5.52-2.91Q5.77-2.54 5.77-1.97L5.77-1.97Q5.77-0.93 5.00-0.40Q4.23 0.13 2.93 0.13Z" transform="translate(4, 9.3948)"/><rect x="0" y="0.133" width="14.3707" height="11.3948" class="clickable" style="cursor:pointer;fill:rgba(0, 0, 0, 0);fill-opacity:0;stroke-width:0px;"/></g></g><g id="sprotty_ArchitectureBlockImpl$work.mux4_8(struct)/InstantiationBlockImpl$lowmux/BPortImpl$d1" transform="translate(0, 63.36150026321411)" class="triangle"><path d="M 0,0 L 5,2.5 L 0,5 Z" transform="translate(-1.67, -2.5)" class="sprotty-port" style="fill:rgb(48, 48, 48);stroke:rgb(48, 48, 48);"/><g class="port sprotty-label" id="sprotty_ArchitectureBlockImpl$work.mux4_8(struct)/InstantiationBlockImpl$lowmux/BPortImpl$d1/label" transform="translate(3, -7.120500087738037) translate(0, -0.13300000131130219)" style="cursor:default;fill:rgb(48, 48, 48);font-family:Arial, Helvetica, sans-serif;text-anchor:middle;"><path d="M3.66 0.13L3.66 0.13Q2.33 0.13 1.53-0.79Q0.73-1.72 0.73-3.55L0.73-3.55Q0.73-5.39 1.54-6.32Q2.34-7.26 3.67-7.26L3.67-7.26Q4.50-7.26 5.02-6.96Q5.55-6.65 5.88-6.21L5.88-6.21L5.96-6.21Q5.95-6.38 5.91-6.72Q5.88-7.06 5.88-7.26L5.88-7.26L5.88-10.11L7.05-10.11L7.05 0L6.10 0L5.93-0.96L5.88-0.96Q5.56-0.51 5.03-0.19Q4.50 0.13 3.66 0.13ZM3.84-0.84L3.84-0.84Q4.97-0.84 5.43-1.46Q5.89-2.07 5.89-3.33L5.89-3.33L5.89-3.54Q5.89-4.87 5.45-5.58Q5.01-6.29 3.83-6.29L3.83-6.29Q2.89-6.29 2.41-5.54Q1.94-4.79 1.94-3.52L1.94-3.52Q1.94-2.25 2.41-1.54Q2.89-0.84 3.84-0.84ZM12.90 0L11.76 0L11.76-6.64Q11.76-7.21 11.77-7.55Q11.78-7.90 11.81-8.27L11.81-8.27Q11.60-8.07 11.42-7.92Q11.25-7.77 10.99-7.54L10.99-7.54L9.98-6.72L9.36-7.50L11.93-9.50L12.90-9.50L12.90 0Z" transform="translate(4, 12.241)"/><rect x="0" y="0.133" width="23.787100000000002" height="14.241" class="clickable" style="cursor:pointer;fill:rgba(0, 0, 0, 0);fill-opacity:0;stroke-width:0px;"/></g></g><g id="sprotty_ArchitectureBlockImpl$work.mux4_8(struct)/InstantiationBlockImpl$lowmux/BPortImpl$d0" transform="translate(0, 39.12050008773804)" class="triangle"><path d="M 0,0 L 5,2.5 L 0,5 Z" transform="translate(-1.67, -2.5)" class="sprotty-port" style="fill:rgb(48, 48, 48);stroke:rgb(48, 48, 48);"/><g class="port sprotty-label" id="sprotty_ArchitectureBlockImpl$work.mux4_8(struct)/InstantiationBlockImpl$lowmux/BPortImpl$d0/label" transform="translate(3, -7.120500087738037) translate(0, -0.13300000131130219)" style="cursor:default;fill:rgb(48, 48, 48);font-family:Arial, Helvetica, sans-serif;text-anchor:middle;"><path d="M3.66 0.13L3.66 0.13Q2.33 0.13 1.53-0.79Q0.73-1.72 0.73-3.55L0.73-3.55Q0.73-5.39 1.54-6.32Q2.34-7.26 3.67-7.26L3.67-7.26Q4.50-7.26 5.02-6.96Q5.55-6.65 5.88-6.21L5.88-6.21L5.96-6.21Q5.95-6.38 5.91-6.72Q5.88-7.06 5.88-7.26L5.88-7.26L5.88-10.11L7.05-10.11L7.05 0L6.10 0L5.93-0.96L5.88-0.96Q5.56-0.51 5.03-0.19Q4.50 0.13 3.66 0.13ZM3.84-0.84L3.84-0.84Q4.97-0.84 5.43-1.46Q5.89-2.07 5.89-3.33L5.89-3.33L5.89-3.54Q5.89-4.87 5.45-5.58Q5.01-6.29 3.83-6.29L3.83-6.29Q2.89-6.29 2.41-5.54Q1.94-4.79 1.94-3.52L1.94-3.52Q1.94-2.25 2.41-1.54Q2.89-0.84 3.84-0.84ZM11.97 0.13L11.97 0.13Q10.36 0.13 9.60-1.16Q8.83-2.46 8.83-4.76L8.83-4.76Q8.83-6.30 9.14-7.39Q9.46-8.49 10.15-9.06Q10.84-9.64 11.97-9.64L11.97-9.64Q13.57-9.64 14.35-8.36Q15.14-7.08 15.14-4.76L15.14-4.76Q15.14-3.23 14.82-2.13Q14.50-1.04 13.81-0.45Q13.11 0.13 11.97 0.13ZM11.97-0.86L11.97-0.86Q13.03-0.86 13.49-1.83Q13.95-2.79 13.95-4.76L13.95-4.76Q13.95-6.70 13.49-7.67Q13.03-8.65 11.97-8.65L11.97-8.65Q10.89-8.65 10.45-7.67Q10.00-6.70 10.00-4.76L10.00-4.76Q10.00-2.81 10.45-1.84Q10.89-0.86 11.97-0.86Z" transform="translate(4, 12.241)"/><rect x="0" y="0.133" width="23.787100000000002" height="14.241" class="clickable" style="cursor:pointer;fill:rgba(0, 0, 0, 0);fill-opacity:0;stroke-width:0px;"/></g></g><g id="sprotty_ArchitectureBlockImpl$work.mux4_8(struct)/InstantiationBlockImpl$lowmux/BPortImpl$y" transform="translate(126.625, 61.93840026855469)" class="triangle"><path d="M 0,0 L 5,2.5 L 0,5 Z" transform="translate(-1.67, -2.5)" class="sprotty-port" style="fill:rgb(48, 48, 48);stroke:rgb(48, 48, 48);"/><g class="port sprotty-label" id="sprotty_ArchitectureBlockImpl$work.mux4_8(struct)/InstantiationBlockImpl$lowmux/BPortImpl$y/label" transform="translate(-17.782999992370605, -7.160400390625) translate(0, -3.191999912261963)" style="cursor:default;fill:rgb(48, 48, 48);font-family:Arial, Helvetica, sans-serif;text-anchor:middle;"><path d="M1.12 3.19L1.12 3.19Q0.80 3.19 0.56 3.16Q0.32 3.13 0.15 3.09L0.15 3.09L0.15 2.15Q0.29 2.18 0.50 2.21Q0.70 2.23 0.93 2.23L0.93 2.23Q1.54 2.23 1.92 1.89Q2.29 1.54 2.51 0.97L2.51 0.97L2.89 0.03L0.01-7.13L1.26-7.13L2.81-3.07Q3.01-2.54 3.17-2.05Q3.33-1.57 3.40-1.13L3.40-1.13L3.46-1.13Q3.54-1.46 3.70-2.00Q3.87-2.54 4.07-3.09L4.07-3.09L5.52-7.13L6.78-7.13L3.71 0.98Q3.34 2.00 2.75 2.59Q2.15 3.19 1.12 3.19Z" transform="translate(4, 12.320800000000002)"/><rect x="0" y="3.192" width="14.783000000000001" height="14.320800000000002" class="clickable" style="cursor:pointer;fill:rgba(0, 0, 0, 0);fill-opacity:0;stroke-width:0px;"/></g></g></g></g></g></svg>