<svg xmlns="http://www.w3.org/2000/svg" id="sprotty_mux4_8_tb" class="sprotty-graph sprotty-block-diagram blockdiagram" style="font-family:&quot;Helvetica Neue&quot;, Helvetica, Arial, sans-serif;line-height:18px;perspective-origin:0px 0px;transform-origin:0px 0px;z-index:0;" version="1.1" viewBox="9.5 12 286.81336791992186 202.35880088806152"><g transform="scale(1) translate(0,0)"><g id="sprotty_ArchitectureBlockImpl$work.mux4_8_tb(RTL)" transform="translate(12, 12)" class="architecture"><g class="sprotty-block" style="fill:rgb(245, 245, 245);stroke:rgb(48, 48, 48);stroke-dasharray:0px;"><rect x="0" y="0" rx="1" ry="1" width="279.9833679199219" height="202.35880088806152"/><path d="M67.82 16L65.58 16L64.62 12.27Q64.54 11.97 64.42 11.51Q64.31 11.06 64.19 10.56Q64.07 10.06 63.98 9.65Q63.88 9.23 63.83 9.01L63.83 9.01L63.77 9.01Q63.72 9.23 63.62 9.65Q63.53 10.06 63.42 10.57Q63.30 11.07 63.18 11.53Q63.06 11.98 62.98 12.29L62.98 12.29L61.98 16L59.77 16L57.34 7.31L59.37 7.31L60.44 11.46Q60.55 11.89 60.66 12.41Q60.76 12.93 60.83 13.42Q60.90 13.90 60.95 14.21L60.95 14.21L61.02 14.21Q61.05 13.92 61.14 13.42Q61.22 12.93 61.32 12.46Q61.42 11.98 61.48 11.74L61.48 11.74L62.73 7.31L64.94 7.31L66.14 11.74Q66.20 12.03 66.30 12.50Q66.41 12.96 66.49 13.43Q66.57 13.90 66.58 14.19L66.58 14.19L66.65 14.19Q66.68 13.94 66.76 13.46Q66.84 12.98 66.95 12.43Q67.06 11.89 67.19 11.46L67.19 11.46L68.28 7.31L70.28 7.31L67.82 16ZM79.50 11.65L79.50 11.65Q79.50 13.81 78.38 14.98Q77.26 16.16 75.34 16.16L75.34 16.16Q74.15 16.16 73.22 15.63Q72.30 15.10 71.77 14.10Q71.24 13.09 71.24 11.65L71.24 11.65Q71.24 9.49 72.35 8.33Q73.46 7.17 75.38 7.17L75.38 7.17Q76.58 7.17 77.51 7.69Q78.44 8.21 78.97 9.21Q79.50 10.21 79.50 11.65ZM73.30 11.65L73.30 11.65Q73.30 13.02 73.79 13.78Q74.28 14.53 75.37 14.53L75.37 14.53Q76.46 14.53 76.94 13.78Q77.43 13.02 77.43 11.65L77.43 11.65Q77.43 10.27 76.94 9.54Q76.46 8.80 75.35 8.80L75.35 8.80Q74.28 8.80 73.79 9.54Q73.30 10.27 73.30 11.65ZM86.12 7.17L86.12 7.17Q86.33 7.17 86.58 7.18Q86.82 7.20 87.00 7.25L87.00 7.25L86.82 9.12Q86.66 9.09 86.44 9.06Q86.22 9.04 86.04 9.04L86.04 9.04Q85.40 9.04 84.84 9.30Q84.28 9.57 83.94 10.12Q83.59 10.67 83.59 11.50L83.59 11.50L83.59 16L81.58 16L81.58 7.33L83.13 7.33L83.42 8.83L83.51 8.83Q83.90 8.14 84.57 7.66Q85.24 7.17 86.12 7.17ZM88.60 3.84L90.60 3.84L90.60 9.62Q90.60 10.03 90.57 10.50Q90.54 10.96 90.50 11.38L90.50 11.38L90.55 11.38Q90.74 11.09 91.03 10.72Q91.32 10.35 91.58 10.06L91.58 10.06L94.14 7.33L96.42 7.33L92.95 11.07L96.65 16L94.30 16L91.61 12.29L90.60 13.12L90.60 16L88.60 16L88.60 3.84ZM97.72 14.98L97.72 14.98Q97.72 14.30 98.07 14.02Q98.42 13.74 98.94 13.74L98.94 13.74Q99.43 13.74 99.80 14.02Q100.17 14.30 100.17 14.98L100.17 14.98Q100.17 15.63 99.80 15.92Q99.43 16.21 98.94 16.21L98.94 16.21Q98.42 16.21 98.07 15.92Q97.72 15.63 97.72 14.98ZM112.41 7.17L112.41 7.17Q113.88 7.17 114.62 7.92Q115.37 8.67 115.37 10.35L115.37 10.35L115.37 16L113.35 16L113.35 10.74Q113.35 8.80 111.88 8.80L111.88 8.80Q110.82 8.80 110.38 9.49Q109.93 10.18 109.93 11.49L109.93 11.49L109.93 16L107.91 16L107.91 10.74Q107.91 8.80 106.42 8.80L106.42 8.80Q105.32 8.80 104.90 9.57Q104.49 10.34 104.49 11.76L104.49 11.76L104.49 16L102.47 16L102.47 7.33L104.02 7.33L104.31 8.46L104.42 8.46Q104.81 7.79 105.50 7.48Q106.20 7.17 106.95 7.17L106.95 7.17Q107.93 7.17 108.59 7.50Q109.26 7.82 109.61 8.51L109.61 8.51L109.77 8.51Q110.17 7.81 110.89 7.49Q111.61 7.17 112.41 7.17ZM123.58 7.33L125.59 7.33L125.59 16L124.01 16L123.74 14.88L123.64 14.88Q123.21 15.55 122.48 15.86Q121.75 16.16 120.94 16.16L120.94 16.16Q119.48 16.16 118.66 15.41Q117.83 14.66 117.83 12.99L117.83 12.99L117.83 7.33L119.85 7.33L119.85 12.59Q119.85 14.53 121.45 14.53L121.45 14.53Q122.66 14.53 123.12 13.77Q123.58 13.01 123.58 11.57L123.58 11.57L123.58 7.33ZM127.03 16L130.04 11.57L127.18 7.33L129.46 7.33L131.35 10.27L133.24 7.33L135.53 7.33L132.63 11.57L135.67 16L133.38 16L131.35 12.85L129.32 16L127.03 16ZM144.70 11.90L144.70 13.55L143.21 13.55L143.21 16L141.22 16L141.22 13.55L136.14 13.55L136.14 12.05L141.27 4.54L143.21 4.54L143.21 11.90L144.70 11.90ZM137.98 11.90L141.22 11.90L141.22 9.34Q141.22 8.91 141.24 8.42Q141.26 7.92 141.28 7.50Q141.30 7.07 141.32 6.85L141.32 6.85L141.26 6.85Q140.97 7.52 140.57 8.10L140.57 8.10L137.98 11.90ZM151.78 17.44L151.78 18.50L144.95 18.50L144.95 17.44L151.78 17.44ZM156.33 4.43L156.33 4.43Q157.32 4.43 158.13 4.74Q158.94 5.04 159.41 5.65Q159.88 6.26 159.88 7.17L159.88 7.17Q159.88 8.21 159.27 8.86Q158.66 9.52 157.78 9.97L157.78 9.97Q158.44 10.29 159.00 10.71Q159.56 11.14 159.90 11.70Q160.25 12.27 160.25 13.04L160.25 13.04Q160.25 14 159.75 14.70Q159.26 15.39 158.38 15.78Q157.51 16.16 156.34 16.16L156.34 16.16Q154.44 16.16 153.42 15.34Q152.39 14.53 152.39 13.10L152.39 13.10Q152.39 12.32 152.70 11.74Q153.02 11.15 153.53 10.74Q154.04 10.32 154.65 10.03L154.65 10.03Q153.86 9.55 153.31 8.87Q152.76 8.19 152.76 7.15L152.76 7.15Q152.76 6.26 153.25 5.65Q153.74 5.04 154.54 4.74Q155.35 4.43 156.33 4.43ZM156.31 5.95L156.31 5.95Q155.61 5.95 155.15 6.30Q154.70 6.66 154.70 7.30L154.70 7.30Q154.70 8 155.18 8.41Q155.67 8.82 156.34 9.14L156.34 9.14Q157.00 8.85 157.47 8.43Q157.94 8.02 157.94 7.30L157.94 7.30Q157.94 6.66 157.49 6.30Q157.03 5.95 156.31 5.95ZM154.31 13.01L154.31 13.01Q154.31 13.71 154.81 14.17Q155.30 14.62 156.31 14.62L156.31 14.62Q157.30 14.62 157.82 14.18Q158.33 13.73 158.33 13.01L158.33 13.01Q158.33 12.29 157.74 11.82Q157.16 11.34 156.39 10.98L156.39 10.98L156.17 10.86Q155.30 11.25 154.81 11.76Q154.31 12.27 154.31 13.01ZM167.70 17.44L167.70 18.50L160.87 18.50L160.87 17.44L167.70 17.44ZM172.33 14.54L172.33 14.54Q172.70 14.54 173.06 14.47Q173.42 14.40 173.72 14.30L173.72 14.30L173.72 15.81Q173.40 15.95 172.89 16.06Q172.38 16.16 171.82 16.16L171.82 16.16Q171.08 16.16 170.47 15.91Q169.86 15.66 169.51 15.06Q169.16 14.45 169.16 13.36L169.16 13.36L169.16 8.85L167.99 8.85L167.99 7.97L169.27 7.26L169.91 5.42L171.18 5.42L171.18 7.33L173.64 7.33L173.64 8.85L171.18 8.85L171.18 13.34Q171.18 13.95 171.50 14.25Q171.82 14.54 172.33 14.54ZM175.46 3.84L177.48 3.84L177.48 6.72Q177.48 7.23 177.45 7.71Q177.42 8.19 177.38 8.46L177.38 8.46L177.48 8.46Q177.83 7.92 178.44 7.54Q179.05 7.17 180.02 7.17L180.02 7.17Q181.53 7.17 182.46 8.30Q183.40 9.44 183.40 11.65L183.40 11.65Q183.40 13.89 182.46 15.02Q181.51 16.16 179.98 16.16L179.98 16.16Q179.00 16.16 178.42 15.81Q177.83 15.46 177.48 14.99L177.48 14.99L177.34 14.99L176.97 16L175.46 16L175.46 3.84ZM179.45 8.80L179.45 8.80Q178.36 8.80 177.93 9.46Q177.50 10.11 177.48 11.47L177.48 11.47L177.48 11.65Q177.48 13.04 177.90 13.78Q178.33 14.51 179.48 14.51L179.48 14.51Q180.38 14.51 180.86 13.77Q181.34 13.02 181.34 11.63L181.34 11.63Q181.34 10.21 180.85 9.50Q180.36 8.80 179.45 8.80ZM184.82 11.62L184.82 11.62Q184.82 9.66 185.39 7.85Q185.96 6.03 187.18 4.58L187.18 4.58L188.89 4.58Q187.78 6.08 187.22 7.89Q186.66 9.70 186.66 11.60L186.66 11.60Q186.66 13.46 187.22 15.25Q187.78 17.04 188.87 18.53L188.87 18.53L187.18 18.53Q185.96 17.12 185.39 15.34Q184.82 13.55 184.82 11.62ZM190.86 4.58L194.10 4.58Q196.36 4.58 197.44 5.41Q198.52 6.24 198.52 7.94L198.52 7.94Q198.52 8.77 198.21 9.36Q197.90 9.95 197.40 10.34Q196.90 10.74 196.33 10.98L196.33 10.98L199.61 16L197.30 16L194.57 11.49L192.90 11.49L192.90 16L190.86 16L190.86 4.58ZM193.98 6.29L193.98 6.29L192.90 6.29L192.90 9.81L194.04 9.81Q195.30 9.81 195.87 9.35Q196.44 8.90 196.44 8L196.44 8Q196.44 7.07 195.84 6.68Q195.24 6.29 193.98 6.29ZM205.29 6.30L205.29 16L203.24 16L203.24 6.30L199.96 6.30L199.96 4.58L208.57 4.58L208.57 6.30L205.29 6.30ZM217.13 16L210.31 16L210.31 4.58L212.36 4.58L212.36 14.27L217.13 14.27L217.13 16ZM222.17 11.62L222.17 11.62Q222.17 13.55 221.60 15.34Q221.03 17.12 219.82 18.53L219.82 18.53L218.12 18.53Q219.21 17.04 219.78 15.25Q220.34 13.46 220.34 11.60L220.34 11.60Q220.34 9.70 219.78 7.89Q219.21 6.08 218.10 4.58L218.10 4.58L219.82 4.58Q221.03 6.03 221.60 7.85Q222.17 9.66 222.17 11.62Z" class="sprotty-block-name" style="fill:rgb(48, 48, 48);stroke:rgba(0, 0, 0, 0);"/><line x1="0" y1="20" x2="279.9833679199219" y2="20"/></g><g id="sprotty_ArchitectureBlockImpl$work.mux4_8_tb(RTL)/ProcessBlockImpl$estimulus/GPortImpl$d0_to_ArchitectureBlockImpl$work.mux4_8_tb(RTL)/InstantiationBlockImpl$DUT/BPortImpl$d0" class="sprotty-edge thick edge" style="fill:none;stroke:rgb(112, 112, 112);stroke-linejoin:round;stroke-width:3px;"><path d="M 101.6240005493164 74.12050008773804 L 151.62399291992188 74.12050008773804 "/></g><g id="sprotty_ArchitectureBlockImpl$work.mux4_8_tb(RTL)/ProcessBlockImpl$estimulus/GPortImpl$d1_to_ArchitectureBlockImpl$work.mux4_8_tb(RTL)/InstantiationBlockImpl$DUT/BPortImpl$d1" class="sprotty-edge thick edge" style="fill:none;stroke:rgb(112, 112, 112);stroke-linejoin:round;stroke-width:3px;"><path d="M 101.6240005493164 84.12050008773804 L 139.6240005493164 84.12050008773804 C 140.6240005493164 84.12050008773804 141.6240005493164 85.12050008773804 141.6240005493164 86.12050008773804 L 141.6240005493164 96.36150026321411 C 141.6240005493164 97.36150026321411 142.6240005493164 98.36150026321411 143.6240005493164 98.36150026321411 L 151.62399291992188 98.36150026321411 "/></g><g id="sprotty_ArchitectureBlockImpl$work.mux4_8_tb(RTL)/ProcessBlockImpl$estimulus/GPortImpl$d2_to_ArchitectureBlockImpl$work.mux4_8_tb(RTL)/InstantiationBlockImpl$DUT/BPortImpl$d2" class="sprotty-edge thick edge" style="fill:none;stroke:rgb(112, 112, 112);stroke-linejoin:round;stroke-width:3px;"><path d="M 101.6240005493164 94.12050008773804 L 129.6240005493164 94.12050008773804 C 130.6240005493164 94.12050008773804 131.6240005493164 95.12050008773804 131.6240005493164 96.12050008773804 L 131.6240005493164 120.60250043869019 C 131.6240005493164 121.60250043869019 132.6240005493164 122.60250043869019 133.6240005493164 122.60250043869019 L 151.62399291992188 122.60250043869019 "/></g><g id="sprotty_ArchitectureBlockImpl$work.mux4_8_tb(RTL)/ProcessBlockImpl$estimulus/GPortImpl$d3_to_ArchitectureBlockImpl$work.mux4_8_tb(RTL)/InstantiationBlockImpl$DUT/BPortImpl$d3" class="sprotty-edge thick edge" style="fill:none;stroke:rgb(112, 112, 112);stroke-linejoin:round;stroke-width:3px;"><path d="M 101.6240005493164 104.12050008773804 L 119.6240005493164 104.12050008773804 C 120.6240005493164 104.12050008773804 121.6240005493164 105.12050008773804 121.6240005493164 106.12050008773804 L 121.6240005493164 144.84350061416626 C 121.6240005493164 145.84350061416626 122.6240005493164 146.84350061416626 123.6240005493164 146.84350061416626 L 151.62399291992188 146.84350061416626 "/></g><g id="sprotty_ArchitectureBlockImpl$work.mux4_8_tb(RTL)/ProcessBlockImpl$estimulus/GPortImpl$s_to_ArchitectureBlockImpl$work.mux4_8_tb(RTL)/InstantiationBlockImpl$DUT/BPortImpl$s" class="sprotty-edge thick edge" style="fill:none;stroke:rgb(112, 112, 112);stroke-linejoin:round;stroke-width:3px;"><path d="M 101.6240005493164 114.12050008773804 L 109.6240005493164 114.12050008773804 C 110.6240005493164 114.12050008773804 111.6240005493164 115.12050008773804 111.6240005493164 116.12050008773804 L 111.6240005493164 167.6614007949829 C 111.6240005493164 168.6614007949829 112.6240005493164 169.6614007949829 113.6240005493164 169.6614007949829 L 151.62399291992188 169.6614007949829 "/></g><g id="sprotty_ArchitectureBlockImpl$work.mux4_8_tb(RTL)/ProcessBlockImpl$estimulus" transform="translate(15, 64.12050008773804)" class="statement"><rect x="0" y="0" rx="10" ry="5" width="86.6240005493164" height="60" class="sprotty-node" style="fill:rgb(245, 245, 245);stroke:rgb(112, 112, 112);"/><g id="sprotty_ArchitectureBlockImpl$work.mux4_8_tb(RTL)/ProcessBlockImpl$estimulus/label" transform="translate(5, 23.83984375) translate(0, -0.15984344482421875)" class="sprotty-label process" style="cursor:default;fill:rgb(48, 48, 48);font-family:Arial, Helvetica, sans-serif;text-anchor:middle;"><path d="M4.78-8.83L4.78-8.83Q6.53-8.83 7.54-7.79Q8.56-6.75 8.56-4.90L8.56-4.90L8.56-3.87L2.83-3.87Q2.86-2.69 3.49-2.04Q4.11-1.39 5.22-1.39L5.22-1.39Q6.05-1.39 6.72-1.56Q7.39-1.73 8.10-2.05L8.10-2.05L8.10-0.43Q7.46-0.13 6.77 0.02Q6.08 0.16 5.12 0.16L5.12 0.16Q3.86 0.16 2.87-0.33Q1.89-0.82 1.34-1.81Q0.78-2.80 0.78-4.27L0.78-4.27Q0.78-6.50 1.89-7.66Q2.99-8.83 4.78-8.83ZM4.78-7.34L4.78-7.34Q3.97-7.34 3.46-6.82Q2.96-6.30 2.88-5.28L2.88-5.28L6.61-5.28Q6.59-6.18 6.15-6.76Q5.71-7.34 4.78-7.34ZM16.50-2.51L16.50-2.51Q16.50-1.20 15.56-0.52Q14.62 0.16 12.88 0.16L12.88 0.16Q11.97 0.16 11.32 0.03Q10.67-0.10 10.06-0.37L10.06-0.37L10.06-2.08Q10.70-1.78 11.48-1.57Q12.26-1.36 12.94-1.36L12.94-1.36Q13.78-1.36 14.14-1.62Q14.51-1.87 14.51-2.30L14.51-2.30Q14.51-2.56 14.37-2.76Q14.22-2.96 13.80-3.20Q13.38-3.44 12.54-3.79L12.54-3.79Q11.71-4.11 11.16-4.46Q10.61-4.80 10.33-5.26Q10.05-5.73 10.05-6.46L10.05-6.46Q10.05-7.63 10.97-8.23Q11.89-8.83 13.42-8.83L13.42-8.83Q14.22-8.83 14.94-8.67Q15.65-8.51 16.37-8.19L16.37-8.19L15.73-6.70Q15.12-6.96 14.54-7.14Q13.97-7.31 13.36-7.31L13.36-7.31Q12.03-7.31 12.03-6.56L12.03-6.56Q12.03-6.29 12.20-6.10Q12.37-5.90 12.79-5.69Q13.22-5.47 14-5.17L14-5.17Q14.77-4.86 15.33-4.54Q15.89-4.21 16.19-3.73Q16.50-3.25 16.50-2.51ZM21.79-1.46L21.79-1.46Q22.16-1.46 22.52-1.53Q22.88-1.60 23.18-1.70L23.18-1.70L23.18-0.19Q22.86-0.05 22.35 0.06Q21.84 0.16 21.28 0.16L21.28 0.16Q20.54 0.16 19.94-0.09Q19.33-0.34 18.98-0.94Q18.62-1.55 18.62-2.64L18.62-2.64L18.62-7.15L17.46-7.15L17.46-8.03L18.74-8.74L19.38-10.58L20.64-10.58L20.64-8.67L23.10-8.67L23.10-7.15L20.64-7.15L20.64-2.66Q20.64-2.05 20.96-1.75Q21.28-1.46 21.79-1.46ZM25.94-12.02L25.94-12.02Q26.40-12.02 26.73-11.78Q27.06-11.55 27.06-10.96L27.06-10.96Q27.06-10.37 26.73-10.13Q26.40-9.89 25.94-9.89L25.94-9.89Q25.47-9.89 25.14-10.13Q24.82-10.37 24.82-10.96L24.82-10.96Q24.82-11.55 25.14-11.78Q25.47-12.02 25.94-12.02ZM24.93-8.67L26.94-8.67L26.94 0L24.93 0L24.93-8.67ZM39.46-8.83L39.46-8.83Q40.93-8.83 41.67-8.08Q42.42-7.33 42.42-5.65L42.42-5.65L42.42 0L40.40 0L40.40-5.26Q40.40-7.20 38.93-7.20L38.93-7.20Q37.87-7.20 37.42-6.51Q36.98-5.82 36.98-4.51L36.98-4.51L36.98 0L34.96 0L34.96-5.26Q34.96-7.20 33.47-7.20L33.47-7.20Q32.37-7.20 31.95-6.43Q31.54-5.66 31.54-4.24L31.54-4.24L31.54 0L29.52 0L29.52-8.67L31.07-8.67L31.36-7.54L31.47-7.54Q31.86-8.21 32.55-8.52Q33.25-8.83 34-8.83L34-8.83Q34.98-8.83 35.64-8.50Q36.30-8.18 36.66-7.49L36.66-7.49L36.82-7.49Q37.22-8.19 37.94-8.51Q38.66-8.83 39.46-8.83ZM50.62-8.67L52.64-8.67L52.64 0L51.06 0L50.78-1.12L50.69-1.12Q50.26-0.45 49.53-0.14Q48.80 0.16 47.98 0.16L47.98 0.16Q46.53 0.16 45.70-0.59Q44.88-1.34 44.88-3.01L44.88-3.01L44.88-8.67L46.90-8.67L46.90-3.41Q46.90-1.47 48.50-1.47L48.50-1.47Q49.71-1.47 50.17-2.23Q50.62-2.99 50.62-4.43L50.62-4.43L50.62-8.67ZM57.23-12.16L57.23 0L55.22 0L55.22-12.16L57.23-12.16ZM65.49-8.67L67.50-8.67L67.50 0L65.92 0L65.65-1.12L65.55-1.12Q65.12-0.45 64.39-0.14Q63.66 0.16 62.85 0.16L62.85 0.16Q61.39 0.16 60.57-0.59Q59.74-1.34 59.74-3.01L59.74-3.01L59.74-8.67L61.76-8.67L61.76-3.41Q61.76-1.47 63.36-1.47L63.36-1.47Q64.58-1.47 65.03-2.23Q65.49-2.99 65.49-4.43L65.49-4.43L65.49-8.67ZM75.98-2.51L75.98-2.51Q75.98-1.20 75.05-0.52Q74.11 0.16 72.37 0.16L72.37 0.16Q71.46 0.16 70.81 0.03Q70.16-0.10 69.55-0.37L69.55-0.37L69.55-2.08Q70.19-1.78 70.97-1.57Q71.74-1.36 72.43-1.36L72.43-1.36Q73.26-1.36 73.63-1.62Q74.00-1.87 74.00-2.30L74.00-2.30Q74.00-2.56 73.86-2.76Q73.71-2.96 73.29-3.20Q72.86-3.44 72.03-3.79L72.03-3.79Q71.20-4.11 70.65-4.46Q70.10-4.80 69.82-5.26Q69.54-5.73 69.54-6.46L69.54-6.46Q69.54-7.63 70.46-8.23Q71.38-8.83 72.91-8.83L72.91-8.83Q73.71-8.83 74.42-8.67Q75.14-8.51 75.86-8.19L75.86-8.19L75.22-6.70Q74.61-6.96 74.03-7.14Q73.46-7.31 72.85-7.31L72.85-7.31Q71.52-7.31 71.52-6.56L71.52-6.56Q71.52-6.29 71.69-6.10Q71.86-5.90 72.28-5.69Q72.70-5.47 73.49-5.17L73.49-5.17Q74.26-4.86 74.82-4.54Q75.38-4.21 75.68-3.73Q75.98-3.25 75.98-2.51Z" transform="translate(0, 12.32)"/><rect x="0" y="0.16" width="76.624" height="12.32" class="clickable" style="cursor:pointer;fill:rgba(0, 0, 0, 0);fill-opacity:0;stroke-width:0px;"/></g><g id="sprotty_ArchitectureBlockImpl$work.mux4_8_tb(RTL)/ProcessBlockImpl$estimulus/GPortImpl$d0" transform="translate(86.6240005493164, 10)" class="sprotty-hidden hidden" style="display:block;height:0px;width:0px;"/><g id="sprotty_ArchitectureBlockImpl$work.mux4_8_tb(RTL)/ProcessBlockImpl$estimulus/GPortImpl$d1" transform="translate(86.6240005493164, 20)" class="sprotty-hidden hidden" style="display:block;height:0px;width:0px;"/><g id="sprotty_ArchitectureBlockImpl$work.mux4_8_tb(RTL)/ProcessBlockImpl$estimulus/GPortImpl$d2" transform="translate(86.6240005493164, 30)" class="sprotty-hidden hidden" style="display:block;height:0px;width:0px;"/><g id="sprotty_ArchitectureBlockImpl$work.mux4_8_tb(RTL)/ProcessBlockImpl$estimulus/GPortImpl$d3" transform="translate(86.6240005493164, 40)" class="sprotty-hidden hidden" style="display:block;height:0px;width:0px;"/><g id="sprotty_ArchitectureBlockImpl$work.mux4_8_tb(RTL)/ProcessBlockImpl$estimulus/GPortImpl$s" transform="translate(86.6240005493164, 50)" class="sprotty-hidden hidden" style="display:block;height:0px;width:0px;"/></g><g id="sprotty_ArchitectureBlockImpl$work.mux4_8_tb(RTL)/InstantiationBlockImpl$DUT" transform="translate(151.62399291992188, 35)" class="instantiation"><g class="sprotty-block" style="fill:rgb(245, 245, 245);stroke:rgb(48, 48, 48);stroke-dasharray:0px;"><rect x="0" y="0" rx="1" ry="1" width="113.35999999999999" height="152.35880088806152"/><path d="M14.83 10.18L14.83 10.18Q14.83 13.07 13.22 14.54Q11.60 16 8.70 16L8.70 16L5.49 16L5.49 4.58L9.04 4.58Q10.80 4.58 12.10 5.22Q13.41 5.86 14.12 7.10Q14.83 8.34 14.83 10.18ZM12.69 10.24L12.69 10.24Q12.69 8.19 11.75 7.23Q10.82 6.27 9.04 6.27L9.04 6.27L7.54 6.27L7.54 14.29L8.77 14.29Q12.69 14.29 12.69 10.24ZM24.29 4.58L26.32 4.58L26.32 11.97Q26.32 13.15 25.82 14.10Q25.31 15.06 24.29 15.61Q23.26 16.16 21.70 16.16L21.70 16.16Q19.47 16.16 18.32 15Q17.17 13.84 17.17 11.94L17.17 11.94L17.17 4.58L19.22 4.58L19.22 11.73Q19.22 13.14 19.86 13.78Q20.50 14.42 21.76 14.42L21.76 14.42Q23.09 14.42 23.69 13.72Q24.29 13.02 24.29 11.71L24.29 11.71L24.29 4.58ZM33.31 6.30L33.31 16L31.26 16L31.26 6.30L27.98 6.30L27.98 4.58L36.59 4.58L36.59 6.30L33.31 6.30ZM42.02 8.38L42.02 8.38Q42.02 7.70 42.37 7.42Q42.72 7.14 43.23 7.14L43.23 7.14Q43.73 7.14 44.10 7.42Q44.46 7.70 44.46 8.38L44.46 8.38Q44.46 9.04 44.10 9.33Q43.73 9.62 43.23 9.62L43.23 9.62Q42.72 9.62 42.37 9.33Q42.02 9.04 42.02 8.38ZM42.02 14.98L42.02 14.98Q42.02 14.30 42.37 14.02Q42.72 13.74 43.23 13.74L43.23 13.74Q43.73 13.74 44.10 14.02Q44.46 14.30 44.46 14.98L44.46 14.98Q44.46 15.63 44.10 15.92Q43.73 16.21 43.23 16.21L43.23 16.21Q42.72 16.21 42.37 15.92Q42.02 15.63 42.02 14.98ZM60.86 7.17L60.86 7.17Q62.34 7.17 63.08 7.92Q63.82 8.67 63.82 10.35L63.82 10.35L63.82 16L61.81 16L61.81 10.74Q61.81 8.80 60.34 8.80L60.34 8.80Q59.28 8.80 58.83 9.49Q58.38 10.18 58.38 11.49L58.38 11.49L58.38 16L56.37 16L56.37 10.74Q56.37 8.80 54.88 8.80L54.88 8.80Q53.78 8.80 53.36 9.57Q52.94 10.34 52.94 11.76L52.94 11.76L52.94 16L50.93 16L50.93 7.33L52.48 7.33L52.77 8.46L52.88 8.46Q53.26 7.79 53.96 7.48Q54.66 7.17 55.41 7.17L55.41 7.17Q56.38 7.17 57.05 7.50Q57.71 7.82 58.06 8.51L58.06 8.51L58.22 8.51Q58.62 7.81 59.34 7.49Q60.06 7.17 60.86 7.17ZM72.03 7.33L74.05 7.33L74.05 16L72.46 16L72.19 14.88L72.10 14.88Q71.66 15.55 70.94 15.86Q70.21 16.16 69.39 16.16L69.39 16.16Q67.94 16.16 67.11 15.41Q66.29 14.66 66.29 12.99L66.29 12.99L66.29 7.33L68.30 7.33L68.30 12.59Q68.30 14.53 69.90 14.53L69.90 14.53Q71.12 14.53 71.58 13.77Q72.03 13.01 72.03 11.57L72.03 11.57L72.03 7.33ZM75.49 16L78.50 11.57L75.63 7.33L77.92 7.33L79.81 10.27L81.70 7.33L83.98 7.33L81.09 11.57L84.13 16L81.84 16L79.81 12.85L77.78 16L75.49 16ZM93.15 11.90L93.15 13.55L91.66 13.55L91.66 16L89.68 16L89.68 13.55L84.59 13.55L84.59 12.05L89.73 4.54L91.66 4.54L91.66 11.90L93.15 11.90ZM86.43 11.90L89.68 11.90L89.68 9.34Q89.68 8.91 89.70 8.42Q89.71 7.92 89.74 7.50Q89.76 7.07 89.78 6.85L89.78 6.85L89.71 6.85Q89.42 7.52 89.02 8.10L89.02 8.10L86.43 11.90ZM100.24 17.44L100.24 18.50L93.41 18.50L93.41 17.44L100.24 17.44ZM104.78 4.43L104.78 4.43Q105.78 4.43 106.58 4.74Q107.39 5.04 107.86 5.65Q108.34 6.26 108.34 7.17L108.34 7.17Q108.34 8.21 107.73 8.86Q107.12 9.52 106.24 9.97L106.24 9.97Q106.90 10.29 107.46 10.71Q108.02 11.14 108.36 11.70Q108.70 12.27 108.70 13.04L108.70 13.04Q108.70 14 108.21 14.70Q107.71 15.39 106.84 15.78Q105.97 16.16 104.80 16.16L104.80 16.16Q102.90 16.16 101.87 15.34Q100.85 14.53 100.85 13.10L100.85 13.10Q100.85 12.32 101.16 11.74Q101.47 11.15 101.98 10.74Q102.50 10.32 103.10 10.03L103.10 10.03Q102.32 9.55 101.77 8.87Q101.22 8.19 101.22 7.15L101.22 7.15Q101.22 6.26 101.70 5.65Q102.19 5.04 103.00 4.74Q103.81 4.43 104.78 4.43ZM104.77 5.95L104.77 5.95Q104.06 5.95 103.61 6.30Q103.15 6.66 103.15 7.30L103.15 7.30Q103.15 8 103.64 8.41Q104.13 8.82 104.80 9.14L104.80 9.14Q105.46 8.85 105.93 8.43Q106.40 8.02 106.40 7.30L106.40 7.30Q106.40 6.66 105.94 6.30Q105.49 5.95 104.77 5.95ZM102.77 13.01L102.77 13.01Q102.77 13.71 103.26 14.17Q103.76 14.62 104.77 14.62L104.77 14.62Q105.76 14.62 106.27 14.18Q106.78 13.73 106.78 13.01L106.78 13.01Q106.78 12.29 106.20 11.82Q105.62 11.34 104.85 10.98L104.85 10.98L104.62 10.86Q103.76 11.25 103.26 11.76Q102.77 12.27 102.77 13.01Z" class="sprotty-block-name" style="fill:rgb(48, 48, 48);stroke:rgba(0, 0, 0, 0);"/><line x1="0" y1="20" x2="113.35999999999999" y2="20"/></g><g id="sprotty_ArchitectureBlockImpl$work.mux4_8_tb(RTL)/InstantiationBlockImpl$DUT/BPortImpl$s" transform="translate(0, 134.6614007949829)" class="triangle"><path d="M 0,0 L 5,2.5 L 0,5 Z" transform="translate(-1.67, -2.5)" class="sprotty-port" style="fill:rgb(48, 48, 48);stroke:rgb(48, 48, 48);"/><g class="port sprotty-label" id="sprotty_ArchitectureBlockImpl$work.mux4_8_tb(RTL)/InstantiationBlockImpl$DUT/BPortImpl$s/label" transform="translate(3, -5.697400093078613) translate(0, -0.13300000131130219)" style="cursor:default;fill:rgb(48, 48, 48);font-family:Arial, Helvetica, sans-serif;text-anchor:middle;"><path d="M2.93 0.13L2.93 0.13Q2.18 0.13 1.64 0.01Q1.10-0.11 0.69-0.32L0.69-0.32L0.69-1.38Q1.12-1.17 1.72-0.99Q2.33-0.81 2.95-0.81L2.95-0.81Q3.84-0.81 4.24-1.10Q4.64-1.38 4.64-1.86L4.64-1.86Q4.64-2.13 4.50-2.34Q4.35-2.55 3.97-2.77Q3.59-2.98 2.89-3.25L2.89-3.25Q2.19-3.51 1.70-3.78Q1.21-4.04 0.94-4.42Q0.68-4.79 0.68-5.37L0.68-5.37Q0.68-6.28 1.42-6.77Q2.15-7.26 3.35-7.26L3.35-7.26Q4.00-7.26 4.57-7.14Q5.13-7.01 5.63-6.78L5.63-6.78L5.23-5.85Q4.77-6.04 4.28-6.17Q3.79-6.30 3.27-6.30L3.27-6.30Q2.55-6.30 2.17-6.07Q1.80-5.84 1.80-5.44L1.80-5.44Q1.80-5.15 1.97-4.94Q2.14-4.73 2.55-4.54Q2.95-4.35 3.63-4.08L3.63-4.08Q4.31-3.83 4.79-3.56Q5.27-3.29 5.52-2.91Q5.77-2.54 5.77-1.97L5.77-1.97Q5.77-0.93 5.00-0.40Q4.23 0.13 2.93 0.13Z" transform="translate(4, 9.3948)"/><rect x="0" y="0.133" width="14.3707" height="11.3948" class="clickable" style="cursor:pointer;fill:rgba(0, 0, 0, 0);fill-opacity:0;stroke-width:0px;"/></g></g><g id="sprotty_ArchitectureBlockImpl$work.mux4_8_tb(RTL)/InstantiationBlockImpl$DUT/BPortImpl$d3" transform="translate(0, 111.84350061416626)" class="triangle"><path d="M 0,0 L 5,2.5 L 0,5 Z" transform="translate(-1.67, -2.5)" class="sprotty-port" style="fill:rgb(48, 48, 48);stroke:rgb(48, 48, 48);"/><g class="port sprotty-label" id="sprotty_ArchitectureBlockImpl$work.mux4_8_tb(RTL)/InstantiationBlockImpl$DUT/BPortImpl$d3/label" transform="translate(3, -7.120500087738037) translate(0, -0.13300000131130219)" style="cursor:default;fill:rgb(48, 48, 48);font-family:Arial, Helvetica, sans-serif;text-anchor:middle;"><path d="M3.66 0.13L3.66 0.13Q2.33 0.13 1.53-0.79Q0.73-1.72 0.73-3.55L0.73-3.55Q0.73-5.39 1.54-6.32Q2.34-7.26 3.67-7.26L3.67-7.26Q4.50-7.26 5.02-6.96Q5.55-6.65 5.88-6.21L5.88-6.21L5.96-6.21Q5.95-6.38 5.91-6.72Q5.88-7.06 5.88-7.26L5.88-7.26L5.88-10.11L7.05-10.11L7.05 0L6.10 0L5.93-0.96L5.88-0.96Q5.56-0.51 5.03-0.19Q4.50 0.13 3.66 0.13ZM3.84-0.84L3.84-0.84Q4.97-0.84 5.43-1.46Q5.89-2.07 5.89-3.33L5.89-3.33L5.89-3.54Q5.89-4.87 5.45-5.58Q5.01-6.29 3.83-6.29L3.83-6.29Q2.89-6.29 2.41-5.54Q1.94-4.79 1.94-3.52L1.94-3.52Q1.94-2.25 2.41-1.54Q2.89-0.84 3.84-0.84ZM11.38 0.13L11.38 0.13Q10.64 0.13 10.00 0.02Q9.36-0.09 8.78-0.39L8.78-0.39L8.78-1.48Q9.38-1.18 10.07-1.02Q10.76-0.85 11.40-0.85L11.40-0.85Q12.67-0.85 13.24-1.35Q13.81-1.85 13.81-2.73L13.81-2.73Q13.81-3.62 13.11-4.01Q12.41-4.40 11.15-4.40L11.15-4.40L10.23-4.40L10.23-5.40L11.16-5.40Q12.33-5.40 12.93-5.89Q13.54-6.38 13.54-7.20L13.54-7.20Q13.54-7.89 13.07-8.27Q12.61-8.65 11.81-8.65L11.81-8.65Q11.04-8.65 10.49-8.42Q9.95-8.19 9.42-7.85L9.42-7.85L8.83-8.65Q9.34-9.04 10.09-9.34Q10.84-9.63 11.80-9.63L11.80-9.63Q13.29-9.63 14.01-8.96Q14.74-8.30 14.74-7.28L14.74-7.28Q14.74-6.32 14.20-5.75Q13.67-5.19 12.77-5.00L12.77-5.00L12.77-4.95Q13.91-4.81 14.47-4.23Q15.03-3.64 15.03-2.70L15.03-2.70Q15.03-1.88 14.64-1.23Q14.26-0.59 13.45-0.23Q12.65 0.13 11.38 0.13Z" transform="translate(4, 12.241)"/><rect x="0" y="0.133" width="23.787100000000002" height="14.241" class="clickable" style="cursor:pointer;fill:rgba(0, 0, 0, 0);fill-opacity:0;stroke-width:0px;"/></g></g><g id="sprotty_ArchitectureBlockImpl$work.mux4_8_tb(RTL)/InstantiationBlockImpl$DUT/BPortImpl$d2" transform="translate(0, 87.60250043869019)" class="triangle"><path d="M 0,0 L 5,2.5 L 0,5 Z" transform="translate(-1.67, -2.5)" class="sprotty-port" style="fill:rgb(48, 48, 48);stroke:rgb(48, 48, 48);"/><g class="port sprotty-label" id="sprotty_ArchitectureBlockImpl$work.mux4_8_tb(RTL)/InstantiationBlockImpl$DUT/BPortImpl$d2/label" transform="translate(3, -7.120500087738037) translate(0, -0.13300000131130219)" style="cursor:default;fill:rgb(48, 48, 48);font-family:Arial, Helvetica, sans-serif;text-anchor:middle;"><path d="M3.66 0.13L3.66 0.13Q2.33 0.13 1.53-0.79Q0.73-1.72 0.73-3.55L0.73-3.55Q0.73-5.39 1.54-6.32Q2.34-7.26 3.67-7.26L3.67-7.26Q4.50-7.26 5.02-6.96Q5.55-6.65 5.88-6.21L5.88-6.21L5.96-6.21Q5.95-6.38 5.91-6.72Q5.88-7.06 5.88-7.26L5.88-7.26L5.88-10.11L7.05-10.11L7.05 0L6.10 0L5.93-0.96L5.88-0.96Q5.56-0.51 5.03-0.19Q4.50 0.13 3.66 0.13ZM3.84-0.84L3.84-0.84Q4.97-0.84 5.43-1.46Q5.89-2.07 5.89-3.33L5.89-3.33L5.89-3.54Q5.89-4.87 5.45-5.58Q5.01-6.29 3.83-6.29L3.83-6.29Q2.89-6.29 2.41-5.54Q1.94-4.79 1.94-3.52L1.94-3.52Q1.94-2.25 2.41-1.54Q2.89-0.84 3.84-0.84ZM15.10 0L8.82 0L8.82-0.97L11.31-3.48Q12.02-4.20 12.52-4.76Q13.01-5.32 13.26-5.86Q13.51-6.40 13.51-7.04L13.51-7.04Q13.51-7.82 13.05-8.23Q12.58-8.63 11.84-8.63L11.84-8.63Q11.15-8.63 10.62-8.39Q10.09-8.15 9.55-7.73L9.55-7.73L8.92-8.51Q9.48-8.98 10.21-9.30Q10.93-9.63 11.84-9.63L11.84-9.63Q13.17-9.63 13.94-8.96Q14.71-8.29 14.71-7.10L14.71-7.10Q14.71-6.36 14.40-5.71Q14.10-5.07 13.55-4.43Q13.01-3.79 12.28-3.07L12.28-3.07L10.29-1.12L10.29-1.06L15.10-1.06L15.10 0Z" transform="translate(4, 12.241)"/><rect x="0" y="0.133" width="23.787100000000002" height="14.241" class="clickable" style="cursor:pointer;fill:rgba(0, 0, 0, 0);fill-opacity:0;stroke-width:0px;"/></g></g><g id="sprotty_ArchitectureBlockImpl$work.mux4_8_tb(RTL)/InstantiationBlockImpl$DUT/BPortImpl$d1" transform="translate(0, 63.36150026321411)" class="triangle"><path d="M 0,0 L 5,2.5 L 0,5 Z" transform="translate(-1.67, -2.5)" class="sprotty-port" style="fill:rgb(48, 48, 48);stroke:rgb(48, 48, 48);"/><g class="port sprotty-label" id="sprotty_ArchitectureBlockImpl$work.mux4_8_tb(RTL)/InstantiationBlockImpl$DUT/BPortImpl$d1/label" transform="translate(3, -7.120500087738037) translate(0, -0.13300000131130219)" style="cursor:default;fill:rgb(48, 48, 48);font-family:Arial, Helvetica, sans-serif;text-anchor:middle;"><path d="M3.66 0.13L3.66 0.13Q2.33 0.13 1.53-0.79Q0.73-1.72 0.73-3.55L0.73-3.55Q0.73-5.39 1.54-6.32Q2.34-7.26 3.67-7.26L3.67-7.26Q4.50-7.26 5.02-6.96Q5.55-6.65 5.88-6.21L5.88-6.21L5.96-6.21Q5.95-6.38 5.91-6.72Q5.88-7.06 5.88-7.26L5.88-7.26L5.88-10.11L7.05-10.11L7.05 0L6.10 0L5.93-0.96L5.88-0.96Q5.56-0.51 5.03-0.19Q4.50 0.13 3.66 0.13ZM3.84-0.84L3.84-0.84Q4.97-0.84 5.43-1.46Q5.89-2.07 5.89-3.33L5.89-3.33L5.89-3.54Q5.89-4.87 5.45-5.58Q5.01-6.29 3.83-6.29L3.83-6.29Q2.89-6.29 2.41-5.54Q1.94-4.79 1.94-3.52L1.94-3.52Q1.94-2.25 2.41-1.54Q2.89-0.84 3.84-0.84ZM12.90 0L11.76 0L11.76-6.64Q11.76-7.21 11.77-7.55Q11.78-7.90 11.81-8.27L11.81-8.27Q11.60-8.07 11.42-7.92Q11.25-7.77 10.99-7.54L10.99-7.54L9.98-6.72L9.36-7.50L11.93-9.50L12.90-9.50L12.90 0Z" transform="translate(4, 12.241)"/><rect x="0" y="0.133" width="23.787100000000002" height="14.241" class="clickable" style="cursor:pointer;fill:rgba(0, 0, 0, 0);fill-opacity:0;stroke-width:0px;"/></g></g><g id="sprotty_ArchitectureBlockImpl$work.mux4_8_tb(RTL)/InstantiationBlockImpl$DUT/BPortImpl$d0" transform="translate(0, 39.12050008773804)" class="triangle"><path d="M 0,0 L 5,2.5 L 0,5 Z" transform="translate(-1.67, -2.5)" class="sprotty-port" style="fill:rgb(48, 48, 48);stroke:rgb(48, 48, 48);"/><g class="port sprotty-label" id="sprotty_ArchitectureBlockImpl$work.mux4_8_tb(RTL)/InstantiationBlockImpl$DUT/BPortImpl$d0/label" transform="translate(3, -7.120500087738037) translate(0, -0.13300000131130219)" style="cursor:default;fill:rgb(48, 48, 48);font-family:Arial, Helvetica, sans-serif;text-anchor:middle;"><path d="M3.66 0.13L3.66 0.13Q2.33 0.13 1.53-0.79Q0.73-1.72 0.73-3.55L0.73-3.55Q0.73-5.39 1.54-6.32Q2.34-7.26 3.67-7.26L3.67-7.26Q4.50-7.26 5.02-6.96Q5.55-6.65 5.88-6.21L5.88-6.21L5.96-6.21Q5.95-6.38 5.91-6.72Q5.88-7.06 5.88-7.26L5.88-7.26L5.88-10.11L7.05-10.11L7.05 0L6.10 0L5.93-0.96L5.88-0.96Q5.56-0.51 5.03-0.19Q4.50 0.13 3.66 0.13ZM3.84-0.84L3.84-0.84Q4.97-0.84 5.43-1.46Q5.89-2.07 5.89-3.33L5.89-3.33L5.89-3.54Q5.89-4.87 5.45-5.58Q5.01-6.29 3.83-6.29L3.83-6.29Q2.89-6.29 2.41-5.54Q1.94-4.79 1.94-3.52L1.94-3.52Q1.94-2.25 2.41-1.54Q2.89-0.84 3.84-0.84ZM11.97 0.13L11.97 0.13Q10.36 0.13 9.60-1.16Q8.83-2.46 8.83-4.76L8.83-4.76Q8.83-6.30 9.14-7.39Q9.46-8.49 10.15-9.06Q10.84-9.64 11.97-9.64L11.97-9.64Q13.57-9.64 14.35-8.36Q15.14-7.08 15.14-4.76L15.14-4.76Q15.14-3.23 14.82-2.13Q14.50-1.04 13.81-0.45Q13.11 0.13 11.97 0.13ZM11.97-0.86L11.97-0.86Q13.03-0.86 13.49-1.83Q13.95-2.79 13.95-4.76L13.95-4.76Q13.95-6.70 13.49-7.67Q13.03-8.65 11.97-8.65L11.97-8.65Q10.89-8.65 10.45-7.67Q10.00-6.70 10.00-4.76L10.00-4.76Q10.00-2.81 10.45-1.84Q10.89-0.86 11.97-0.86Z" transform="translate(4, 12.241)"/><rect x="0" y="0.133" width="23.787100000000002" height="14.241" class="clickable" style="cursor:pointer;fill:rgba(0, 0, 0, 0);fill-opacity:0;stroke-width:0px;"/></g></g><g id="sprotty_ArchitectureBlockImpl$work.mux4_8_tb(RTL)/InstantiationBlockImpl$DUT/BPortImpl$y" transform="translate(113.359375, 86.17940044403076)" class="triangle"><path d="M 0,0 L 5,2.5 L 0,5 Z" transform="translate(-1.67, -2.5)" class="sprotty-port" style="fill:rgb(48, 48, 48);stroke:rgb(48, 48, 48);"/><g class="port sprotty-label" id="sprotty_ArchitectureBlockImpl$work.mux4_8_tb(RTL)/InstantiationBlockImpl$DUT/BPortImpl$y/label" transform="translate(-17.782999992370605, -7.160400390625) translate(0, -3.191999912261963)" style="cursor:default;fill:rgb(48, 48, 48);font-family:Arial, Helvetica, sans-serif;text-anchor:middle;"><path d="M1.12 3.19L1.12 3.19Q0.80 3.19 0.56 3.16Q0.32 3.13 0.15 3.09L0.15 3.09L0.15 2.15Q0.29 2.18 0.50 2.21Q0.70 2.23 0.93 2.23L0.93 2.23Q1.54 2.23 1.92 1.89Q2.29 1.54 2.51 0.97L2.51 0.97L2.89 0.03L0.01-7.13L1.26-7.13L2.81-3.07Q3.01-2.54 3.17-2.05Q3.33-1.57 3.40-1.13L3.40-1.13L3.46-1.13Q3.54-1.46 3.70-2.00Q3.87-2.54 4.07-3.09L4.07-3.09L5.52-7.13L6.78-7.13L3.71 0.98Q3.34 2.00 2.75 2.59Q2.15 3.19 1.12 3.19Z" transform="translate(4, 12.320800000000002)"/><rect x="0" y="3.192" width="14.783000000000001" height="14.320800000000002" class="clickable" style="cursor:pointer;fill:rgba(0, 0, 0, 0);fill-opacity:0;stroke-width:0px;"/></g></g></g></g></g></svg>