<svg xmlns="http://www.w3.org/2000/svg" id="sprotty_seven_seg_decoder_tb" class="sprotty-graph sprotty-block-diagram blockdiagram" style="font-family:&quot;Helvetica Neue&quot;, Helvetica, Arial, sans-serif;line-height:18px;perspective-origin:0px 0px;transform-origin:0px 0px;z-index:0;" version="1.1" viewBox="9.5 12 337.0876904296875 109.95670127868652"><g transform="scale(1) translate(0,0)"><g id="sprotty_ArchitectureBlockImpl$work.seven_seg_decoder_tb(RTL)" transform="translate(12, 12)" class="architecture"><g class="sprotty-block" style="fill:rgb(245, 245, 245);stroke:rgb(48, 48, 48);stroke-dasharray:0px;"><rect x="0" y="0" rx="1" ry="1" width="330.2576904296875" height="109.95670127868652"/><path d="M48.17 16L45.93 16L44.97 12.27Q44.89 11.97 44.78 11.51Q44.66 11.06 44.54 10.56Q44.42 10.06 44.33 9.65Q44.23 9.23 44.18 9.01L44.18 9.01L44.12 9.01Q44.07 9.23 43.98 9.65Q43.88 10.06 43.77 10.57Q43.66 11.07 43.54 11.53Q43.42 11.98 43.34 12.29L43.34 12.29L42.33 16L40.12 16L37.69 7.31L39.72 7.31L40.79 11.46Q40.90 11.89 41.01 12.41Q41.11 12.93 41.18 13.42Q41.26 13.90 41.30 14.21L41.30 14.21L41.37 14.21Q41.40 13.92 41.49 13.42Q41.58 12.93 41.67 12.46Q41.77 11.98 41.83 11.74L41.83 11.74L43.08 7.31L45.29 7.31L46.49 11.74Q46.55 12.03 46.66 12.50Q46.76 12.96 46.84 13.43Q46.92 13.90 46.94 14.19L46.94 14.19L47.00 14.19Q47.03 13.94 47.11 13.46Q47.19 12.98 47.30 12.43Q47.42 11.89 47.54 11.46L47.54 11.46L48.63 7.31L50.63 7.31L48.17 16ZM59.85 11.65L59.85 11.65Q59.85 13.81 58.73 14.98Q57.61 16.16 55.69 16.16L55.69 16.16Q54.50 16.16 53.58 15.63Q52.65 15.10 52.12 14.10Q51.59 13.09 51.59 11.65L51.59 11.65Q51.59 9.49 52.70 8.33Q53.82 7.17 55.74 7.17L55.74 7.17Q56.94 7.17 57.86 7.69Q58.79 8.21 59.32 9.21Q59.85 10.21 59.85 11.65ZM53.66 11.65L53.66 11.65Q53.66 13.02 54.14 13.78Q54.63 14.53 55.72 14.53L55.72 14.53Q56.81 14.53 57.30 13.78Q57.78 13.02 57.78 11.65L57.78 11.65Q57.78 10.27 57.30 9.54Q56.81 8.80 55.70 8.80L55.70 8.80Q54.63 8.80 54.14 9.54Q53.66 10.27 53.66 11.65ZM66.47 7.17L66.47 7.17Q66.68 7.17 66.93 7.18Q67.18 7.20 67.35 7.25L67.35 7.25L67.18 9.12Q67.02 9.09 66.79 9.06Q66.57 9.04 66.39 9.04L66.39 9.04Q65.75 9.04 65.19 9.30Q64.63 9.57 64.29 10.12Q63.94 10.67 63.94 11.50L63.94 11.50L63.94 16L61.93 16L61.93 7.33L63.48 7.33L63.77 8.83L63.86 8.83Q64.25 8.14 64.92 7.66Q65.59 7.17 66.47 7.17ZM68.95 3.84L70.95 3.84L70.95 9.62Q70.95 10.03 70.92 10.50Q70.89 10.96 70.86 11.38L70.86 11.38L70.90 11.38Q71.10 11.09 71.38 10.72Q71.67 10.35 71.93 10.06L71.93 10.06L74.49 7.33L76.78 7.33L73.30 11.07L77.00 16L74.65 16L71.96 12.29L70.95 13.12L70.95 16L68.95 16L68.95 3.84ZM78.07 14.98L78.07 14.98Q78.07 14.30 78.42 14.02Q78.78 13.74 79.29 13.74L79.29 13.74Q79.78 13.74 80.15 14.02Q80.52 14.30 80.52 14.98L80.52 14.98Q80.52 15.63 80.15 15.92Q79.78 16.21 79.29 16.21L79.29 16.21Q78.78 16.21 78.42 15.92Q78.07 15.63 78.07 14.98ZM88.73 13.49L88.73 13.49Q88.73 14.80 87.79 15.48Q86.86 16.16 85.11 16.16L85.11 16.16Q84.20 16.16 83.55 16.03Q82.90 15.90 82.30 15.63L82.30 15.63L82.30 13.92Q82.94 14.22 83.71 14.43Q84.49 14.64 85.18 14.64L85.18 14.64Q86.01 14.64 86.38 14.38Q86.74 14.13 86.74 13.70L86.74 13.70Q86.74 13.44 86.60 13.24Q86.46 13.04 86.03 12.80Q85.61 12.56 84.78 12.21L84.78 12.21Q83.94 11.89 83.39 11.54Q82.84 11.20 82.56 10.74Q82.28 10.27 82.28 9.54L82.28 9.54Q82.28 8.37 83.20 7.77Q84.12 7.17 85.66 7.17L85.66 7.17Q86.46 7.17 87.17 7.33Q87.88 7.49 88.60 7.81L88.60 7.81L87.96 9.30Q87.35 9.04 86.78 8.86Q86.20 8.69 85.59 8.69L85.59 8.69Q84.26 8.69 84.26 9.44L84.26 9.44Q84.26 9.71 84.43 9.90Q84.60 10.10 85.02 10.31Q85.45 10.53 86.23 10.83L86.23 10.83Q87.00 11.14 87.56 11.46Q88.12 11.79 88.42 12.27Q88.73 12.75 88.73 13.49ZM94.15 7.17L94.15 7.17Q95.90 7.17 96.91 8.21Q97.93 9.25 97.93 11.10L97.93 11.10L97.93 12.13L92.20 12.13Q92.23 13.31 92.86 13.96Q93.48 14.61 94.58 14.61L94.58 14.61Q95.42 14.61 96.09 14.44Q96.76 14.27 97.46 13.95L97.46 13.95L97.46 15.57Q96.82 15.87 96.14 16.02Q95.45 16.16 94.49 16.16L94.49 16.16Q93.22 16.16 92.24 15.67Q91.26 15.18 90.70 14.19Q90.15 13.20 90.15 11.73L90.15 11.73Q90.15 9.50 91.26 8.34Q92.36 7.17 94.15 7.17ZM94.15 8.66L94.15 8.66Q93.34 8.66 92.83 9.18Q92.33 9.70 92.25 10.72L92.25 10.72L95.98 10.72Q95.96 9.82 95.52 9.24Q95.08 8.66 94.15 8.66ZM103.78 16L101.64 16L98.34 7.33L100.47 7.33L102.20 12.34Q102.36 12.80 102.50 13.36Q102.63 13.92 102.66 14.30L102.66 14.30L102.73 14.30Q102.78 13.90 102.92 13.35Q103.06 12.80 103.22 12.34L103.22 12.34L104.95 7.33L107.08 7.33L103.78 16ZM111.86 7.17L111.86 7.17Q113.61 7.17 114.62 8.21Q115.64 9.25 115.64 11.10L115.64 11.10L115.64 12.13L109.91 12.13Q109.94 13.31 110.57 13.96Q111.19 14.61 112.30 14.61L112.30 14.61Q113.13 14.61 113.80 14.44Q114.47 14.27 115.18 13.95L115.18 13.95L115.18 15.57Q114.54 15.87 113.85 16.02Q113.16 16.16 112.20 16.16L112.20 16.16Q110.94 16.16 109.95 15.67Q108.97 15.18 108.42 14.19Q107.86 13.20 107.86 11.73L107.86 11.73Q107.86 9.50 108.97 8.34Q110.07 7.17 111.86 7.17ZM111.86 8.66L111.86 8.66Q111.05 8.66 110.54 9.18Q110.04 9.70 109.96 10.72L109.96 10.72L113.69 10.72Q113.67 9.82 113.23 9.24Q112.79 8.66 111.86 8.66ZM122.31 7.17L122.31 7.17Q123.77 7.17 124.59 7.92Q125.42 8.67 125.42 10.35L125.42 10.35L125.42 16L123.40 16L123.40 10.75Q123.40 8.80 121.80 8.80L121.80 8.80Q120.58 8.80 120.14 9.57Q119.69 10.34 119.69 11.76L119.69 11.76L119.69 16L117.67 16L117.67 7.33L119.22 7.33L119.51 8.46L119.62 8.46Q120.04 7.79 120.77 7.48Q121.50 7.17 122.31 7.17ZM133.45 17.44L133.45 18.50L126.62 18.50L126.62 17.44L133.45 17.44ZM140.62 13.49L140.62 13.49Q140.62 14.80 139.68 15.48Q138.74 16.16 137.00 16.16L137.00 16.16Q136.09 16.16 135.44 16.03Q134.79 15.90 134.18 15.63L134.18 15.63L134.18 13.92Q134.82 14.22 135.60 14.43Q136.38 14.64 137.06 14.64L137.06 14.64Q137.90 14.64 138.26 14.38Q138.63 14.13 138.63 13.70L138.63 13.70Q138.63 13.44 138.49 13.24Q138.34 13.04 137.92 12.80Q137.50 12.56 136.66 12.21L136.66 12.21Q135.83 11.89 135.28 11.54Q134.73 11.20 134.45 10.74Q134.17 10.27 134.17 9.54L134.17 9.54Q134.17 8.37 135.09 7.77Q136.01 7.17 137.54 7.17L137.54 7.17Q138.34 7.17 139.06 7.33Q139.77 7.49 140.49 7.81L140.49 7.81L139.85 9.30Q139.24 9.04 138.66 8.86Q138.09 8.69 137.48 8.69L137.48 8.69Q136.15 8.69 136.15 9.44L136.15 9.44Q136.15 9.71 136.32 9.90Q136.49 10.10 136.91 10.31Q137.34 10.53 138.12 10.83L138.12 10.83Q138.89 11.14 139.45 11.46Q140.01 11.79 140.31 12.27Q140.62 12.75 140.62 13.49ZM146.04 7.17L146.04 7.17Q147.78 7.17 148.80 8.21Q149.82 9.25 149.82 11.10L149.82 11.10L149.82 12.13L144.09 12.13Q144.12 13.31 144.74 13.96Q145.37 14.61 146.47 14.61L146.47 14.61Q147.30 14.61 147.98 14.44Q148.65 14.27 149.35 13.95L149.35 13.95L149.35 15.57Q148.71 15.87 148.02 16.02Q147.34 16.16 146.38 16.16L146.38 16.16Q145.11 16.16 144.13 15.67Q143.14 15.18 142.59 14.19Q142.04 13.20 142.04 11.73L142.04 11.73Q142.04 9.50 143.14 8.34Q144.25 7.17 146.04 7.17ZM146.04 8.66L146.04 8.66Q145.22 8.66 144.72 9.18Q144.22 9.70 144.14 10.72L144.14 10.72L147.86 10.72Q147.85 9.82 147.41 9.24Q146.97 8.66 146.04 8.66ZM154.76 7.17L154.76 7.17Q156.41 7.17 157.34 8.45L157.34 8.45L157.42 8.45L157.61 7.33L159.29 7.33L159.29 16.06Q159.29 17.92 158.24 18.88Q157.19 19.84 155.11 19.84L155.11 19.84Q154.18 19.84 153.40 19.72Q152.62 19.60 151.91 19.31L151.91 19.31L151.91 17.65Q153.40 18.32 155.24 18.32L155.24 18.32Q156.23 18.32 156.75 17.77Q157.27 17.22 157.27 16.16L157.27 16.16L157.27 15.94Q157.27 15.70 157.29 15.38Q157.30 15.06 157.34 14.86L157.34 14.86L157.27 14.86Q156.82 15.54 156.18 15.85Q155.53 16.16 154.71 16.16L154.71 16.16Q153.13 16.16 152.23 14.98Q151.34 13.79 151.34 11.68L151.34 11.68Q151.34 9.57 152.24 8.37Q153.14 7.17 154.76 7.17ZM155.29 8.82L155.29 8.82Q153.40 8.82 153.40 11.71L153.40 11.71Q153.40 14.56 155.32 14.56L155.32 14.56Q156.38 14.56 156.88 13.98Q157.38 13.39 157.38 12L157.38 12L157.38 11.70Q157.38 10.16 156.88 9.49Q156.38 8.82 155.29 8.82ZM167.37 17.44L167.37 18.50L160.54 18.50L160.54 17.44L167.37 17.44ZM171.50 16.16L171.50 16.16Q169.98 16.16 169.05 15.02Q168.12 13.89 168.12 11.68L168.12 11.68Q168.12 9.44 169.06 8.30Q170.01 7.17 171.54 7.17L171.54 7.17Q172.50 7.17 173.12 7.54Q173.74 7.90 174.10 8.43L174.10 8.43L174.20 8.43Q174.15 8.21 174.10 7.74Q174.06 7.28 174.06 6.88L174.06 6.88L174.06 3.84L176.07 3.84L176.07 16L174.50 16L174.14 14.86L174.06 14.86Q173.69 15.41 173.08 15.78Q172.47 16.16 171.50 16.16ZM172.10 14.53L172.10 14.53Q173.22 14.53 173.68 13.89Q174.14 13.25 174.15 11.95L174.15 11.95L174.15 11.70Q174.15 10.30 173.71 9.56Q173.27 8.82 172.07 8.82L172.07 8.82Q171.14 8.82 170.66 9.58Q170.17 10.34 170.17 11.71L170.17 11.71Q170.17 13.09 170.66 13.81Q171.16 14.53 172.10 14.53ZM182.14 7.17L182.14 7.17Q183.88 7.17 184.90 8.21Q185.91 9.25 185.91 11.10L185.91 11.10L185.91 12.13L180.18 12.13Q180.22 13.31 180.84 13.96Q181.46 14.61 182.57 14.61L182.57 14.61Q183.40 14.61 184.07 14.44Q184.74 14.27 185.45 13.95L185.45 13.95L185.45 15.57Q184.81 15.87 184.12 16.02Q183.43 16.16 182.47 16.16L182.47 16.16Q181.21 16.16 180.22 15.67Q179.24 15.18 178.69 14.19Q178.14 13.20 178.14 11.73L178.14 11.73Q178.14 9.50 179.24 8.34Q180.34 7.17 182.14 7.17ZM182.14 8.66L182.14 8.66Q181.32 8.66 180.82 9.18Q180.31 9.70 180.23 10.72L180.23 10.72L183.96 10.72Q183.94 9.82 183.50 9.24Q183.06 8.66 182.14 8.66ZM191.45 16.16L191.45 16.16Q189.58 16.16 188.50 15.09Q187.43 14.02 187.43 11.71L187.43 11.71Q187.43 10.11 187.97 9.11Q188.50 8.11 189.45 7.64Q190.39 7.17 191.61 7.17L191.61 7.17Q192.42 7.17 193.06 7.33Q193.70 7.49 194.15 7.71L194.15 7.71L193.56 9.30Q193.06 9.10 192.57 8.97Q192.07 8.83 191.61 8.83L191.61 8.83Q189.50 8.83 189.50 11.70L189.50 11.70Q189.50 13.09 190.03 13.79Q190.57 14.50 191.58 14.50L191.58 14.50Q192.30 14.50 192.86 14.32Q193.42 14.14 193.93 13.84L193.93 13.84L193.93 15.58Q193.43 15.87 192.86 16.02Q192.30 16.16 191.45 16.16ZM203.70 11.65L203.70 11.65Q203.70 13.81 202.58 14.98Q201.46 16.16 199.54 16.16L199.54 16.16Q198.36 16.16 197.43 15.63Q196.50 15.10 195.98 14.10Q195.45 13.09 195.45 11.65L195.45 11.65Q195.45 9.49 196.56 8.33Q197.67 7.17 199.59 7.17L199.59 7.17Q200.79 7.17 201.72 7.69Q202.65 8.21 203.18 9.21Q203.70 10.21 203.70 11.65ZM197.51 11.65L197.51 11.65Q197.51 13.02 198.00 13.78Q198.49 14.53 199.58 14.53L199.58 14.53Q200.66 14.53 201.15 13.78Q201.64 13.02 201.64 11.65L201.64 11.65Q201.64 10.27 201.15 9.54Q200.66 8.80 199.56 8.80L199.56 8.80Q198.49 8.80 198.00 9.54Q197.51 10.27 197.51 11.65ZM208.65 16.16L208.65 16.16Q207.13 16.16 206.20 15.02Q205.27 13.89 205.27 11.68L205.27 11.68Q205.27 9.44 206.22 8.30Q207.16 7.17 208.70 7.17L208.70 7.17Q209.66 7.17 210.27 7.54Q210.89 7.90 211.26 8.43L211.26 8.43L211.35 8.43Q211.30 8.21 211.26 7.74Q211.21 7.28 211.21 6.88L211.21 6.88L211.21 3.84L213.22 3.84L213.22 16L211.66 16L211.29 14.86L211.21 14.86Q210.84 15.41 210.23 15.78Q209.62 16.16 208.65 16.16ZM209.26 14.53L209.26 14.53Q210.38 14.53 210.83 13.89Q211.29 13.25 211.30 11.95L211.30 11.95L211.30 11.70Q211.30 10.30 210.86 9.56Q210.42 8.82 209.22 8.82L209.22 8.82Q208.30 8.82 207.81 9.58Q207.32 10.34 207.32 11.71L207.32 11.71Q207.32 13.09 207.82 13.81Q208.31 14.53 209.26 14.53ZM219.29 7.17L219.29 7.17Q221.03 7.17 222.05 8.21Q223.06 9.25 223.06 11.10L223.06 11.10L223.06 12.13L217.34 12.13Q217.37 13.31 217.99 13.96Q218.62 14.61 219.72 14.61L219.72 14.61Q220.55 14.61 221.22 14.44Q221.90 14.27 222.60 13.95L222.60 13.95L222.60 15.57Q221.96 15.87 221.27 16.02Q220.58 16.16 219.62 16.16L219.62 16.16Q218.36 16.16 217.38 15.67Q216.39 15.18 215.84 14.19Q215.29 13.20 215.29 11.73L215.29 11.73Q215.29 9.50 216.39 8.34Q217.50 7.17 219.29 7.17ZM219.29 8.66L219.29 8.66Q218.47 8.66 217.97 9.18Q217.46 9.70 217.38 10.72L217.38 10.72L221.11 10.72Q221.10 9.82 220.66 9.24Q220.22 8.66 219.29 8.66ZM229.64 7.17L229.64 7.17Q229.85 7.17 230.10 7.18Q230.34 7.20 230.52 7.25L230.52 7.25L230.34 9.12Q230.18 9.09 229.96 9.06Q229.74 9.04 229.56 9.04L229.56 9.04Q228.92 9.04 228.36 9.30Q227.80 9.57 227.46 10.12Q227.11 10.67 227.11 11.50L227.11 11.50L227.11 16L225.10 16L225.10 7.33L226.65 7.33L226.94 8.83L227.03 8.83Q227.42 8.14 228.09 7.66Q228.76 7.17 229.64 7.17ZM237.62 17.44L237.62 18.50L230.79 18.50L230.79 17.44L237.62 17.44ZM242.25 14.54L242.25 14.54Q242.62 14.54 242.98 14.47Q243.34 14.40 243.64 14.30L243.64 14.30L243.64 15.81Q243.32 15.95 242.81 16.06Q242.30 16.16 241.74 16.16L241.74 16.16Q241.00 16.16 240.39 15.91Q239.78 15.66 239.43 15.06Q239.08 14.45 239.08 13.36L239.08 13.36L239.08 8.85L237.91 8.85L237.91 7.97L239.19 7.26L239.83 5.42L241.10 5.42L241.10 7.33L243.56 7.33L243.56 8.85L241.10 8.85L241.10 13.34Q241.10 13.95 241.42 14.25Q241.74 14.54 242.25 14.54ZM245.38 3.84L247.40 3.84L247.40 6.72Q247.40 7.23 247.37 7.71Q247.34 8.19 247.30 8.46L247.30 8.46L247.40 8.46Q247.75 7.92 248.36 7.54Q248.97 7.17 249.94 7.17L249.94 7.17Q251.45 7.17 252.38 8.30Q253.32 9.44 253.32 11.65L253.32 11.65Q253.32 13.89 252.38 15.02Q251.43 16.16 249.90 16.16L249.90 16.16Q248.92 16.16 248.34 15.81Q247.75 15.46 247.40 14.99L247.40 14.99L247.26 14.99L246.89 16L245.38 16L245.38 3.84ZM249.37 8.80L249.37 8.80Q248.28 8.80 247.85 9.46Q247.42 10.11 247.40 11.47L247.40 11.47L247.40 11.65Q247.40 13.04 247.82 13.78Q248.25 14.51 249.40 14.51L249.40 14.51Q250.30 14.51 250.78 13.77Q251.26 13.02 251.26 11.63L251.26 11.63Q251.26 10.21 250.77 9.50Q250.28 8.80 249.37 8.80ZM254.74 11.62L254.74 11.62Q254.74 9.66 255.31 7.85Q255.88 6.03 257.10 4.58L257.10 4.58L258.81 4.58Q257.70 6.08 257.14 7.89Q256.58 9.70 256.58 11.60L256.58 11.60Q256.58 13.46 257.14 15.25Q257.70 17.04 258.79 18.53L258.79 18.53L257.10 18.53Q255.88 17.12 255.31 15.34Q254.74 13.55 254.74 11.62ZM260.78 4.58L264.02 4.58Q266.28 4.58 267.36 5.41Q268.44 6.24 268.44 7.94L268.44 7.94Q268.44 8.77 268.13 9.36Q267.82 9.95 267.32 10.34Q266.82 10.74 266.25 10.98L266.25 10.98L269.53 16L267.22 16L264.49 11.49L262.82 11.49L262.82 16L260.78 16L260.78 4.58ZM263.90 6.29L263.90 6.29L262.82 6.29L262.82 9.81L263.96 9.81Q265.22 9.81 265.79 9.35Q266.36 8.90 266.36 8L266.36 8Q266.36 7.07 265.76 6.68Q265.16 6.29 263.90 6.29ZM275.21 6.30L275.21 16L273.16 16L273.16 6.30L269.88 6.30L269.88 4.58L278.49 4.58L278.49 6.30L275.21 6.30ZM287.05 16L280.23 16L280.23 4.58L282.28 4.58L282.28 14.27L287.05 14.27L287.05 16ZM292.09 11.62L292.09 11.62Q292.09 13.55 291.52 15.34Q290.95 17.12 289.74 18.53L289.74 18.53L288.04 18.53Q289.13 17.04 289.70 15.25Q290.26 13.46 290.26 11.60L290.26 11.60Q290.26 9.70 289.70 7.89Q289.13 6.08 288.02 4.58L288.02 4.58L289.74 4.58Q290.95 6.03 291.52 7.85Q292.09 9.66 292.09 11.62Z" class="sprotty-block-name" style="fill:rgb(48, 48, 48);stroke:rgba(0, 0, 0, 0);"/><line x1="0" y1="20" x2="330.2576904296875" y2="20"/></g><g id="sprotty_ArchitectureBlockImpl$work.seven_seg_decoder_tb(RTL)/ProcessBlockImpl$stimulus/GPortImpl$data_to_ArchitectureBlockImpl$work.seven_seg_decoder_tb(RTL)/InstantiationBlockImpl$DUT/BPortImpl$data" class="sprotty-edge thick edge" style="fill:none;stroke:rgb(112, 112, 112);stroke-linejoin:round;stroke-width:3px;"><path d="M 92.3280029296875 74.97835063934326 L 112.3280029296875 74.97835063934326 "/></g><g id="sprotty_ArchitectureBlockImpl$work.seven_seg_decoder_tb(RTL)/ProcessBlockImpl$stimulus" transform="translate(15, 63.81819438934326)" class="statement"><rect x="0" y="0" rx="10" ry="5" width="77.3280029296875" height="22.3203125" class="sprotty-node" style="fill:rgb(245, 245, 245);stroke:rgb(112, 112, 112);"/><g id="sprotty_ArchitectureBlockImpl$work.seven_seg_decoder_tb(RTL)/ProcessBlockImpl$stimulus/label" transform="translate(5, 5) translate(0, -0.15984344482421875)" class="sprotty-label process" style="cursor:default;fill:rgb(48, 48, 48);font-family:Arial, Helvetica, sans-serif;text-anchor:middle;"><path d="M7.20-2.51L7.20-2.51Q7.20-1.20 6.26-0.52Q5.33 0.16 3.58 0.16L3.58 0.16Q2.67 0.16 2.02 0.03Q1.38-0.10 0.77-0.37L0.77-0.37L0.77-2.08Q1.41-1.78 2.18-1.57Q2.96-1.36 3.65-1.36L3.65-1.36Q4.48-1.36 4.85-1.62Q5.22-1.87 5.22-2.30L5.22-2.30Q5.22-2.56 5.07-2.76Q4.93-2.96 4.50-3.20Q4.08-3.44 3.25-3.79L3.25-3.79Q2.42-4.11 1.86-4.46Q1.31-4.80 1.03-5.26Q0.75-5.73 0.75-6.46L0.75-6.46Q0.75-7.63 1.67-8.23Q2.59-8.83 4.13-8.83L4.13-8.83Q4.93-8.83 5.64-8.67Q6.35-8.51 7.07-8.19L7.07-8.19L6.43-6.70Q5.82-6.96 5.25-7.14Q4.67-7.31 4.06-7.31L4.06-7.31Q2.74-7.31 2.74-6.56L2.74-6.56Q2.74-6.29 2.90-6.10Q3.07-5.90 3.50-5.69Q3.92-5.47 4.70-5.17L4.70-5.17Q5.47-4.86 6.03-4.54Q6.59-4.21 6.90-3.73Q7.20-3.25 7.20-2.51ZM12.50-1.46L12.50-1.46Q12.86-1.46 13.22-1.53Q13.58-1.60 13.89-1.70L13.89-1.70L13.89-0.19Q13.57-0.05 13.06 0.06Q12.54 0.16 11.98 0.16L11.98 0.16Q11.25 0.16 10.64-0.09Q10.03-0.34 9.68-0.94Q9.33-1.55 9.33-2.64L9.33-2.64L9.33-7.15L8.16-7.15L8.16-8.03L9.44-8.74L10.08-10.58L11.34-10.58L11.34-8.67L13.81-8.67L13.81-7.15L11.34-7.15L11.34-2.66Q11.34-2.05 11.66-1.75Q11.98-1.46 12.50-1.46ZM16.64-12.02L16.64-12.02Q17.10-12.02 17.43-11.78Q17.76-11.55 17.76-10.96L17.76-10.96Q17.76-10.37 17.43-10.13Q17.10-9.89 16.64-9.89L16.64-9.89Q16.18-9.89 15.85-10.13Q15.52-10.37 15.52-10.96L15.52-10.96Q15.52-11.55 15.85-11.78Q16.18-12.02 16.64-12.02ZM15.63-8.67L17.65-8.67L17.65 0L15.63 0L15.63-8.67ZM30.16-8.83L30.16-8.83Q31.63-8.83 32.38-8.08Q33.12-7.33 33.12-5.65L33.12-5.65L33.12 0L31.10 0L31.10-5.26Q31.10-7.20 29.63-7.20L29.63-7.20Q28.58-7.20 28.13-6.51Q27.68-5.82 27.68-4.51L27.68-4.51L27.68 0L25.66 0L25.66-5.26Q25.66-7.20 24.18-7.20L24.18-7.20Q23.07-7.20 22.66-6.43Q22.24-5.66 22.24-4.24L22.24-4.24L22.24 0L20.22 0L20.22-8.67L21.78-8.67L22.06-7.54L22.18-7.54Q22.56-8.21 23.26-8.52Q23.95-8.83 24.70-8.83L24.70-8.83Q25.68-8.83 26.34-8.50Q27.01-8.18 27.36-7.49L27.36-7.49L27.52-7.49Q27.92-8.19 28.64-8.51Q29.36-8.83 30.16-8.83ZM41.33-8.67L43.34-8.67L43.34 0L41.76 0L41.49-1.12L41.39-1.12Q40.96-0.45 40.23-0.14Q39.50 0.16 38.69 0.16L38.69 0.16Q37.23 0.16 36.41-0.59Q35.58-1.34 35.58-3.01L35.58-3.01L35.58-8.67L37.60-8.67L37.60-3.41Q37.60-1.47 39.20-1.47L39.20-1.47Q40.42-1.47 40.87-2.23Q41.33-2.99 41.33-4.43L41.33-4.43L41.33-8.67ZM47.94-12.16L47.94 0L45.92 0L45.92-12.16L47.94-12.16ZM56.19-8.67L58.21-8.67L58.21 0L56.62 0L56.35-1.12L56.26-1.12Q55.82-0.45 55.10-0.14Q54.37 0.16 53.55 0.16L53.55 0.16Q52.10 0.16 51.27-0.59Q50.45-1.34 50.45-3.01L50.45-3.01L50.45-8.67L52.46-8.67L52.46-3.41Q52.46-1.47 54.06-1.47L54.06-1.47Q55.28-1.47 55.74-2.23Q56.19-2.99 56.19-4.43L56.19-4.43L56.19-8.67ZM66.69-2.51L66.69-2.51Q66.69-1.20 65.75-0.52Q64.82 0.16 63.07 0.16L63.07 0.16Q62.16 0.16 61.51 0.03Q60.86-0.10 60.26-0.37L60.26-0.37L60.26-2.08Q60.90-1.78 61.67-1.57Q62.45-1.36 63.14-1.36L63.14-1.36Q63.97-1.36 64.34-1.62Q64.70-1.87 64.70-2.30L64.70-2.30Q64.70-2.56 64.56-2.76Q64.42-2.96 63.99-3.20Q63.57-3.44 62.74-3.79L62.74-3.79Q61.90-4.11 61.35-4.46Q60.80-4.80 60.52-5.26Q60.24-5.73 60.24-6.46L60.24-6.46Q60.24-7.63 61.16-8.23Q62.08-8.83 63.62-8.83L63.62-8.83Q64.42-8.83 65.13-8.67Q65.84-8.51 66.56-8.19L66.56-8.19L65.92-6.70Q65.31-6.96 64.74-7.14Q64.16-7.31 63.55-7.31L63.55-7.31Q62.22-7.31 62.22-6.56L62.22-6.56Q62.22-6.29 62.39-6.10Q62.56-5.90 62.98-5.69Q63.41-5.47 64.19-5.17L64.19-5.17Q64.96-4.86 65.52-4.54Q66.08-4.21 66.38-3.73Q66.69-3.25 66.69-2.51Z" transform="translate(0, 12.32)"/><rect x="0" y="0.16" width="67.328" height="12.32" class="clickable" style="cursor:pointer;fill:rgba(0, 0, 0, 0);fill-opacity:0;stroke-width:0px;"/></g><g id="sprotty_ArchitectureBlockImpl$work.seven_seg_decoder_tb(RTL)/ProcessBlockImpl$stimulus/GPortImpl$data" transform="translate(77.3280029296875, 11.16015625)" class="sprotty-hidden hidden" style="display:block;height:0px;width:0px;"/></g><g id="sprotty_ArchitectureBlockImpl$work.seven_seg_decoder_tb(RTL)/InstantiationBlockImpl$DUT" transform="translate(112.3280029296875, 35)" class="instantiation"><g class="sprotty-block" style="fill:rgb(245, 245, 245);stroke:rgb(48, 48, 48);stroke-dasharray:0px;"><rect x="0" y="0" rx="1" ry="1" width="202.9296875" height="59.95670127868652"/><path d="M14.83 10.18L14.83 10.18Q14.83 13.07 13.22 14.54Q11.60 16 8.70 16L8.70 16L5.49 16L5.49 4.58L9.04 4.58Q10.80 4.58 12.10 5.22Q13.41 5.86 14.12 7.10Q14.83 8.34 14.83 10.18ZM12.69 10.24L12.69 10.24Q12.69 8.19 11.75 7.23Q10.82 6.27 9.04 6.27L9.04 6.27L7.54 6.27L7.54 14.29L8.77 14.29Q12.69 14.29 12.69 10.24ZM24.29 4.58L26.32 4.58L26.32 11.97Q26.32 13.15 25.82 14.10Q25.31 15.06 24.29 15.61Q23.26 16.16 21.70 16.16L21.70 16.16Q19.47 16.16 18.32 15Q17.17 13.84 17.17 11.94L17.17 11.94L17.17 4.58L19.22 4.58L19.22 11.73Q19.22 13.14 19.86 13.78Q20.50 14.42 21.76 14.42L21.76 14.42Q23.09 14.42 23.69 13.72Q24.29 13.02 24.29 11.71L24.29 11.71L24.29 4.58ZM33.31 6.30L33.31 16L31.26 16L31.26 6.30L27.98 6.30L27.98 4.58L36.59 4.58L36.59 6.30L33.31 6.30ZM42.02 8.38L42.02 8.38Q42.02 7.70 42.37 7.42Q42.72 7.14 43.23 7.14L43.23 7.14Q43.73 7.14 44.10 7.42Q44.46 7.70 44.46 8.38L44.46 8.38Q44.46 9.04 44.10 9.33Q43.73 9.62 43.23 9.62L43.23 9.62Q42.72 9.62 42.37 9.33Q42.02 9.04 42.02 8.38ZM42.02 14.98L42.02 14.98Q42.02 14.30 42.37 14.02Q42.72 13.74 43.23 13.74L43.23 13.74Q43.73 13.74 44.10 14.02Q44.46 14.30 44.46 14.98L44.46 14.98Q44.46 15.63 44.10 15.92Q43.73 16.21 43.23 16.21L43.23 16.21Q42.72 16.21 42.37 15.92Q42.02 15.63 42.02 14.98ZM56.83 13.49L56.83 13.49Q56.83 14.80 55.90 15.48Q54.96 16.16 53.22 16.16L53.22 16.16Q52.30 16.16 51.66 16.03Q51.01 15.90 50.40 15.63L50.40 15.63L50.40 13.92Q51.04 14.22 51.82 14.43Q52.59 14.64 53.28 14.64L53.28 14.64Q54.11 14.64 54.48 14.38Q54.85 14.13 54.85 13.70L54.85 13.70Q54.85 13.44 54.70 13.24Q54.56 13.04 54.14 12.80Q53.71 12.56 52.88 12.21L52.88 12.21Q52.05 11.89 51.50 11.54Q50.94 11.20 50.66 10.74Q50.38 10.27 50.38 9.54L50.38 9.54Q50.38 8.37 51.30 7.77Q52.22 7.17 53.76 7.17L53.76 7.17Q54.56 7.17 55.27 7.33Q55.98 7.49 56.70 7.81L56.70 7.81L56.06 9.30Q55.46 9.04 54.88 8.86Q54.30 8.69 53.70 8.69L53.70 8.69Q52.37 8.69 52.37 9.44L52.37 9.44Q52.37 9.71 52.54 9.90Q52.70 10.10 53.13 10.31Q53.55 10.53 54.34 10.83L54.34 10.83Q55.10 11.14 55.66 11.46Q56.22 11.79 56.53 12.27Q56.83 12.75 56.83 13.49ZM62.26 7.17L62.26 7.17Q64.00 7.17 65.02 8.21Q66.03 9.25 66.03 11.10L66.03 11.10L66.03 12.13L60.30 12.13Q60.34 13.31 60.96 13.96Q61.58 14.61 62.69 14.61L62.69 14.61Q63.52 14.61 64.19 14.44Q64.86 14.27 65.57 13.95L65.57 13.95L65.57 15.57Q64.93 15.87 64.24 16.02Q63.55 16.16 62.59 16.16L62.59 16.16Q61.33 16.16 60.34 15.67Q59.36 15.18 58.81 14.19Q58.26 13.20 58.26 11.73L58.26 11.73Q58.26 9.50 59.36 8.34Q60.46 7.17 62.26 7.17ZM62.26 8.66L62.26 8.66Q61.44 8.66 60.94 9.18Q60.43 9.70 60.35 10.72L60.35 10.72L64.08 10.72Q64.06 9.82 63.62 9.24Q63.18 8.66 62.26 8.66ZM71.89 16L69.74 16L66.45 7.33L68.58 7.33L70.30 12.34Q70.46 12.80 70.60 13.36Q70.74 13.92 70.77 14.30L70.77 14.30L70.83 14.30Q70.88 13.90 71.02 13.35Q71.17 12.80 71.33 12.34L71.33 12.34L73.06 7.33L75.18 7.33L71.89 16ZM79.97 7.17L79.97 7.17Q81.71 7.17 82.73 8.21Q83.74 9.25 83.74 11.10L83.74 11.10L83.74 12.13L78.02 12.13Q78.05 13.31 78.67 13.96Q79.30 14.61 80.40 14.61L80.40 14.61Q81.23 14.61 81.90 14.44Q82.58 14.27 83.28 13.95L83.28 13.95L83.28 15.57Q82.64 15.87 81.95 16.02Q81.26 16.16 80.30 16.16L80.30 16.16Q79.04 16.16 78.06 15.67Q77.07 15.18 76.52 14.19Q75.97 13.20 75.97 11.73L75.97 11.73Q75.97 9.50 77.07 8.34Q78.18 7.17 79.97 7.17ZM79.97 8.66L79.97 8.66Q79.15 8.66 78.65 9.18Q78.14 9.70 78.06 10.72L78.06 10.72L81.79 10.72Q81.78 9.82 81.34 9.24Q80.90 8.66 79.97 8.66ZM90.42 7.17L90.42 7.17Q91.87 7.17 92.70 7.92Q93.52 8.67 93.52 10.35L93.52 10.35L93.52 16L91.50 16L91.50 10.75Q91.50 8.80 89.90 8.80L89.90 8.80Q88.69 8.80 88.24 9.57Q87.79 10.34 87.79 11.76L87.79 11.76L87.79 16L85.78 16L85.78 7.33L87.33 7.33L87.62 8.46L87.73 8.46Q88.14 7.79 88.87 7.48Q89.60 7.17 90.42 7.17ZM101.55 17.44L101.55 18.50L94.72 18.50L94.72 17.44L101.55 17.44ZM108.72 13.49L108.72 13.49Q108.72 14.80 107.78 15.48Q106.85 16.16 105.10 16.16L105.10 16.16Q104.19 16.16 103.54 16.03Q102.90 15.90 102.29 15.63L102.29 15.63L102.29 13.92Q102.93 14.22 103.70 14.43Q104.48 14.64 105.17 14.64L105.17 14.64Q106.00 14.64 106.37 14.38Q106.74 14.13 106.74 13.70L106.74 13.70Q106.74 13.44 106.59 13.24Q106.45 13.04 106.02 12.80Q105.60 12.56 104.77 12.21L104.77 12.21Q103.94 11.89 103.38 11.54Q102.83 11.20 102.55 10.74Q102.27 10.27 102.27 9.54L102.27 9.54Q102.27 8.37 103.19 7.77Q104.11 7.17 105.65 7.17L105.65 7.17Q106.45 7.17 107.16 7.33Q107.87 7.49 108.59 7.81L108.59 7.81L107.95 9.30Q107.34 9.04 106.77 8.86Q106.19 8.69 105.58 8.69L105.58 8.69Q104.26 8.69 104.26 9.44L104.26 9.44Q104.26 9.71 104.42 9.90Q104.59 10.10 105.02 10.31Q105.44 10.53 106.22 10.83L106.22 10.83Q106.99 11.14 107.55 11.46Q108.11 11.79 108.42 12.27Q108.72 12.75 108.72 13.49ZM114.14 7.17L114.14 7.17Q115.89 7.17 116.90 8.21Q117.92 9.25 117.92 11.10L117.92 11.10L117.92 12.13L112.19 12.13Q112.22 13.31 112.85 13.96Q113.47 14.61 114.58 14.61L114.58 14.61Q115.41 14.61 116.08 14.44Q116.75 14.27 117.46 13.95L117.46 13.95L117.46 15.57Q116.82 15.87 116.13 16.02Q115.44 16.16 114.48 16.16L114.48 16.16Q113.22 16.16 112.23 15.67Q111.25 15.18 110.70 14.19Q110.14 13.20 110.14 11.73L110.14 11.73Q110.14 9.50 111.25 8.34Q112.35 7.17 114.14 7.17ZM114.14 8.66L114.14 8.66Q113.33 8.66 112.82 9.18Q112.32 9.70 112.24 10.72L112.24 10.72L115.97 10.72Q115.95 9.82 115.51 9.24Q115.07 8.66 114.14 8.66ZM122.86 7.17L122.86 7.17Q124.51 7.17 125.44 8.45L125.44 8.45L125.52 8.45L125.71 7.33L127.39 7.33L127.39 16.06Q127.39 17.92 126.34 18.88Q125.30 19.84 123.22 19.84L123.22 19.84Q122.29 19.84 121.50 19.72Q120.72 19.60 120.02 19.31L120.02 19.31L120.02 17.65Q121.50 18.32 123.34 18.32L123.34 18.32Q124.34 18.32 124.86 17.77Q125.38 17.22 125.38 16.16L125.38 16.16L125.38 15.94Q125.38 15.70 125.39 15.38Q125.41 15.06 125.44 14.86L125.44 14.86L125.38 14.86Q124.93 15.54 124.28 15.85Q123.63 16.16 122.82 16.16L122.82 16.16Q121.23 16.16 120.34 14.98Q119.44 13.79 119.44 11.68L119.44 11.68Q119.44 9.57 120.34 8.37Q121.25 7.17 122.86 7.17ZM123.39 8.82L123.39 8.82Q121.50 8.82 121.50 11.71L121.50 11.71Q121.50 14.56 123.42 14.56L123.42 14.56Q124.48 14.56 124.98 13.98Q125.49 13.39 125.49 12L125.49 12L125.49 11.70Q125.49 10.16 124.98 9.49Q124.48 8.82 123.39 8.82ZM135.47 17.44L135.47 18.50L128.64 18.50L128.64 17.44L135.47 17.44ZM139.60 16.16L139.60 16.16Q138.08 16.16 137.15 15.02Q136.22 13.89 136.22 11.68L136.22 11.68Q136.22 9.44 137.17 8.30Q138.11 7.17 139.65 7.17L139.65 7.17Q140.61 7.17 141.22 7.54Q141.84 7.90 142.21 8.43L142.21 8.43L142.30 8.43Q142.26 8.21 142.21 7.74Q142.16 7.28 142.16 6.88L142.16 6.88L142.16 3.84L144.18 3.84L144.18 16L142.61 16L142.24 14.86L142.16 14.86Q141.79 15.41 141.18 15.78Q140.58 16.16 139.60 16.16ZM140.21 14.53L140.21 14.53Q141.33 14.53 141.78 13.89Q142.24 13.25 142.26 11.95L142.26 11.95L142.26 11.70Q142.26 10.30 141.82 9.56Q141.38 8.82 140.18 8.82L140.18 8.82Q139.25 8.82 138.76 9.58Q138.27 10.34 138.27 11.71L138.27 11.71Q138.27 13.09 138.77 13.81Q139.26 14.53 140.21 14.53ZM150.24 7.17L150.24 7.17Q151.98 7.17 153.00 8.21Q154.02 9.25 154.02 11.10L154.02 11.10L154.02 12.13L148.29 12.13Q148.32 13.31 148.94 13.96Q149.57 14.61 150.67 14.61L150.67 14.61Q151.50 14.61 152.18 14.44Q152.85 14.27 153.55 13.95L153.55 13.95L153.55 15.57Q152.91 15.87 152.22 16.02Q151.54 16.16 150.58 16.16L150.58 16.16Q149.31 16.16 148.33 15.67Q147.34 15.18 146.79 14.19Q146.24 13.20 146.24 11.73L146.24 11.73Q146.24 9.50 147.34 8.34Q148.45 7.17 150.24 7.17ZM150.24 8.66L150.24 8.66Q149.42 8.66 148.92 9.18Q148.42 9.70 148.34 10.72L148.34 10.72L152.06 10.72Q152.05 9.82 151.61 9.24Q151.17 8.66 150.24 8.66ZM159.55 16.16L159.55 16.16Q157.68 16.16 156.61 15.09Q155.54 14.02 155.54 11.71L155.54 11.71Q155.54 10.11 156.07 9.11Q156.61 8.11 157.55 7.64Q158.50 7.17 159.71 7.17L159.71 7.17Q160.53 7.17 161.17 7.33Q161.81 7.49 162.26 7.71L162.26 7.71L161.66 9.30Q161.17 9.10 160.67 8.97Q160.18 8.83 159.71 8.83L159.71 8.83Q157.60 8.83 157.60 11.70L157.60 11.70Q157.60 13.09 158.14 13.79Q158.67 14.50 159.68 14.50L159.68 14.50Q160.40 14.50 160.96 14.32Q161.52 14.14 162.03 13.84L162.03 13.84L162.03 15.58Q161.54 15.87 160.97 16.02Q160.40 16.16 159.55 16.16ZM171.81 11.65L171.81 11.65Q171.81 13.81 170.69 14.98Q169.57 16.16 167.65 16.16L167.65 16.16Q166.46 16.16 165.54 15.63Q164.61 15.10 164.08 14.10Q163.55 13.09 163.55 11.65L163.55 11.65Q163.55 9.49 164.66 8.33Q165.78 7.17 167.70 7.17L167.70 7.17Q168.90 7.17 169.82 7.69Q170.75 8.21 171.28 9.21Q171.81 10.21 171.81 11.65ZM165.62 11.65L165.62 11.65Q165.62 13.02 166.10 13.78Q166.59 14.53 167.68 14.53L167.68 14.53Q168.77 14.53 169.26 13.78Q169.74 13.02 169.74 11.65L169.74 11.65Q169.74 10.27 169.26 9.54Q168.77 8.80 167.66 8.80L167.66 8.80Q166.59 8.80 166.10 9.54Q165.62 10.27 165.62 11.65ZM176.75 16.16L176.75 16.16Q175.23 16.16 174.30 15.02Q173.38 13.89 173.38 11.68L173.38 11.68Q173.38 9.44 174.32 8.30Q175.26 7.17 176.80 7.17L176.80 7.17Q177.76 7.17 178.38 7.54Q178.99 7.90 179.36 8.43L179.36 8.43L179.46 8.43Q179.41 8.21 179.36 7.74Q179.31 7.28 179.31 6.88L179.31 6.88L179.31 3.84L181.33 3.84L181.33 16L179.76 16L179.39 14.86L179.31 14.86Q178.94 15.41 178.34 15.78Q177.73 16.16 176.75 16.16ZM177.36 14.53L177.36 14.53Q178.48 14.53 178.94 13.89Q179.39 13.25 179.41 11.95L179.41 11.95L179.41 11.70Q179.41 10.30 178.97 9.56Q178.53 8.82 177.33 8.82L177.33 8.82Q176.40 8.82 175.91 9.58Q175.42 10.34 175.42 11.71L175.42 11.71Q175.42 13.09 175.92 13.81Q176.42 14.53 177.36 14.53ZM187.39 7.17L187.39 7.17Q189.14 7.17 190.15 8.21Q191.17 9.25 191.17 11.10L191.17 11.10L191.17 12.13L185.44 12.13Q185.47 13.31 186.10 13.96Q186.72 14.61 187.82 14.61L187.82 14.61Q188.66 14.61 189.33 14.44Q190.00 14.27 190.70 13.95L190.70 13.95L190.70 15.57Q190.06 15.87 189.38 16.02Q188.69 16.16 187.73 16.16L187.73 16.16Q186.46 16.16 185.48 15.67Q184.50 15.18 183.94 14.19Q183.39 13.20 183.39 11.73L183.39 11.73Q183.39 9.50 184.50 8.34Q185.60 7.17 187.39 7.17ZM187.39 8.66L187.39 8.66Q186.58 8.66 186.07 9.18Q185.57 9.70 185.49 10.72L185.49 10.72L189.22 10.72Q189.20 9.82 188.76 9.24Q188.32 8.66 187.39 8.66ZM197.74 7.17L197.74 7.17Q197.95 7.17 198.20 7.18Q198.45 7.20 198.62 7.25L198.62 7.25L198.45 9.12Q198.29 9.09 198.06 9.06Q197.84 9.04 197.66 9.04L197.66 9.04Q197.02 9.04 196.46 9.30Q195.90 9.57 195.56 10.12Q195.22 10.67 195.22 11.50L195.22 11.50L195.22 16L193.20 16L193.20 7.33L194.75 7.33L195.04 8.83L195.14 8.83Q195.52 8.14 196.19 7.66Q196.86 7.17 197.74 7.17Z" class="sprotty-block-name" style="fill:rgb(48, 48, 48);stroke:rgba(0, 0, 0, 0);"/><line x1="0" y1="20" x2="202.9296875" y2="20"/></g><g id="sprotty_ArchitectureBlockImpl$work.seven_seg_decoder_tb(RTL)/InstantiationBlockImpl$DUT/BPortImpl$data" transform="translate(0, 39.97835063934326)" class="triangle"><path d="M 0,0 L 5,2.5 L 0,5 Z" transform="translate(-1.67, -2.5)" class="sprotty-port" style="fill:rgb(48, 48, 48);stroke:rgb(48, 48, 48);"/><g class="port sprotty-label" id="sprotty_ArchitectureBlockImpl$work.seven_seg_decoder_tb(RTL)/InstantiationBlockImpl$DUT/BPortImpl$data/label" transform="translate(3, -7.120500087738037) translate(0, -0.13300000131130219)" style="cursor:default;fill:rgb(48, 48, 48);font-family:Arial, Helvetica, sans-serif;text-anchor:middle;"><path d="M3.66 0.13L3.66 0.13Q2.33 0.13 1.53-0.79Q0.73-1.72 0.73-3.55L0.73-3.55Q0.73-5.39 1.54-6.32Q2.34-7.26 3.67-7.26L3.67-7.26Q4.50-7.26 5.02-6.96Q5.55-6.65 5.88-6.21L5.88-6.21L5.96-6.21Q5.95-6.38 5.91-6.72Q5.88-7.06 5.88-7.26L5.88-7.26L5.88-10.11L7.05-10.11L7.05 0L6.10 0L5.93-0.96L5.88-0.96Q5.56-0.51 5.03-0.19Q4.50 0.13 3.66 0.13ZM3.84-0.84L3.84-0.84Q4.97-0.84 5.43-1.46Q5.89-2.07 5.89-3.33L5.89-3.33L5.89-3.54Q5.89-4.87 5.45-5.58Q5.01-6.29 3.83-6.29L3.83-6.29Q2.89-6.29 2.41-5.54Q1.94-4.79 1.94-3.52L1.94-3.52Q1.94-2.25 2.41-1.54Q2.89-0.84 3.84-0.84ZM11.04 0.13L11.04 0.13Q10.07 0.13 9.43-0.38Q8.79-0.89 8.79-1.98L8.79-1.98Q8.79-3.05 9.63-3.62Q10.47-4.20 12.21-4.26L12.21-4.26L13.42-4.30L13.42-4.72Q13.42-5.61 13.03-5.96Q12.65-6.30 11.94-6.30L11.94-6.30Q11.38-6.30 10.88-6.14Q10.37-5.97 9.94-5.76L9.94-5.76L9.58-6.64Q10.04-6.89 10.68-7.07Q11.32-7.25 12.01-7.25L12.01-7.25Q13.31-7.25 13.94-6.68Q14.56-6.10 14.56-4.85L14.56-4.85L14.56 0L13.71 0L13.49-1.01L13.43-1.01Q12.97-0.43 12.46-0.15Q11.94 0.13 11.04 0.13ZM11.31-0.81L11.31-0.81Q12.21-0.81 12.81-1.31Q13.41-1.81 13.41-2.85L13.41-2.85L13.41-3.48L12.36-3.44Q11.03-3.39 10.51-3.02Q10.00-2.65 10.00-1.97L10.00-1.97Q10.00-1.37 10.37-1.09Q10.73-0.81 11.31-0.81ZM18.95 0.13L18.95 0.13Q18.39 0.13 17.92-0.06Q17.45-0.25 17.16-0.73Q16.86-1.21 16.86-2.07L16.86-2.07L16.86-6.22L15.85-6.22L15.85-6.78L16.88-7.25L17.34-8.76L18.03-8.76L18.03-7.13L20.10-7.13L20.10-6.22L18.03-6.22L18.03-2.10Q18.03-1.45 18.35-1.14Q18.66-0.82 19.15-0.82L19.15-0.82Q19.42-0.82 19.70-0.87Q19.98-0.92 20.15-0.97L20.15-0.97L20.15-0.08Q19.96 0.01 19.62 0.07Q19.27 0.13 18.95 0.13ZM23.30 0.13L23.30 0.13Q22.33 0.13 21.69-0.38Q21.05-0.89 21.05-1.98L21.05-1.98Q21.05-3.05 21.89-3.62Q22.73-4.20 24.47-4.26L24.47-4.26L25.68-4.30L25.68-4.72Q25.68-5.61 25.30-5.96Q24.91-6.30 24.21-6.30L24.21-6.30Q23.65-6.30 23.14-6.14Q22.64-5.97 22.20-5.76L22.20-5.76L21.84-6.64Q22.30-6.89 22.94-7.07Q23.58-7.25 24.27-7.25L24.27-7.25Q25.58-7.25 26.20-6.68Q26.83-6.10 26.83-4.85L26.83-4.85L26.83 0L25.97 0L25.75-1.01L25.70-1.01Q25.23-0.43 24.72-0.15Q24.21 0.13 23.30 0.13ZM23.57-0.81L23.57-0.81Q24.47-0.81 25.07-1.31Q25.67-1.81 25.67-2.85L25.67-2.85L25.67-3.48L24.62-3.44Q23.29-3.39 22.78-3.02Q22.26-2.65 22.26-1.97L22.26-1.97Q22.26-1.37 22.63-1.09Q23.00-0.81 23.57-0.81Z" transform="translate(4, 12.241)"/><rect x="0" y="0.133" width="35.903400000000005" height="14.241" class="clickable" style="cursor:pointer;fill:rgba(0, 0, 0, 0);fill-opacity:0;stroke-width:0px;"/></g></g><g id="sprotty_ArchitectureBlockImpl$work.seven_seg_decoder_tb(RTL)/InstantiationBlockImpl$DUT/BPortImpl$segments" transform="translate(202.9296875, 39.97835063934326)" class="triangle"><path d="M 0,0 L 5,2.5 L 0,5 Z" transform="translate(-1.67, -2.5)" class="sprotty-port" style="fill:rgb(48, 48, 48);stroke:rgb(48, 48, 48);"/><g class="port sprotty-label" id="sprotty_ArchitectureBlockImpl$work.seven_seg_decoder_tb(RTL)/InstantiationBlockImpl$DUT/BPortImpl$segments/label" transform="translate(-72.37950134277344, -7.978350639343262) translate(0, -3.191999912261963)" style="cursor:default;fill:rgb(48, 48, 48);font-family:Arial, Helvetica, sans-serif;text-anchor:middle;"><path d="M2.93 0.13L2.93 0.13Q2.18 0.13 1.64 0.01Q1.10-0.11 0.69-0.32L0.69-0.32L0.69-1.38Q1.12-1.17 1.72-0.99Q2.33-0.81 2.95-0.81L2.95-0.81Q3.84-0.81 4.24-1.10Q4.64-1.38 4.64-1.86L4.64-1.86Q4.64-2.13 4.50-2.34Q4.35-2.55 3.97-2.77Q3.59-2.98 2.89-3.25L2.89-3.25Q2.19-3.51 1.70-3.78Q1.21-4.04 0.94-4.42Q0.68-4.79 0.68-5.37L0.68-5.37Q0.68-6.28 1.42-6.77Q2.15-7.26 3.35-7.26L3.35-7.26Q4.00-7.26 4.57-7.14Q5.13-7.01 5.63-6.78L5.63-6.78L5.23-5.85Q4.77-6.04 4.28-6.17Q3.79-6.30 3.27-6.30L3.27-6.30Q2.55-6.30 2.17-6.07Q1.80-5.84 1.80-5.44L1.80-5.44Q1.80-5.15 1.97-4.94Q2.14-4.73 2.55-4.54Q2.95-4.35 3.63-4.08L3.63-4.08Q4.31-3.83 4.79-3.56Q5.27-3.29 5.52-2.91Q5.77-2.54 5.77-1.97L5.77-1.97Q5.77-0.93 5.00-0.40Q4.23 0.13 2.93 0.13ZM10.53 0.13L10.53 0.13Q9.52 0.13 8.74-0.28Q7.97-0.69 7.53-1.51Q7.10-2.33 7.10-3.51L7.10-3.51Q7.10-4.68 7.49-5.52Q7.89-6.36 8.60-6.81Q9.31-7.26 10.25-7.26L10.25-7.26Q11.17-7.26 11.83-6.86Q12.49-6.46 12.84-5.74Q13.19-5.01 13.19-4.04L13.19-4.04L13.19-3.34L8.31-3.34Q8.34-2.13 8.93-1.50Q9.52-0.86 10.59-0.86L10.59-0.86Q11.27-0.86 11.79-0.99Q12.32-1.12 12.87-1.36L12.87-1.36L12.87-0.33Q12.33-0.09 11.80 0.02Q11.27 0.13 10.53 0.13ZM8.34-4.27L8.34-4.27L11.97-4.27Q11.97-5.17 11.55-5.74Q11.13-6.30 10.24-6.30L10.24-6.30Q9.40-6.30 8.92-5.77Q8.43-5.23 8.34-4.27ZM17.73 3.19L17.73 3.19Q16.16 3.19 15.16 2.74L15.16 2.74L15.16 1.66Q16.21 2.22 17.80 2.22L17.80 2.22Q18.71 2.22 19.24 1.68Q19.76 1.14 19.76 0.21L19.76 0.21L19.76-0.07Q19.76-0.23 19.78-0.53Q19.79-0.82 19.80-0.94L19.80-0.94L19.75-0.94Q19.03 0.13 17.54 0.13L17.54 0.13Q16.16 0.13 15.38-0.84Q14.60-1.81 14.60-3.55L14.60-3.55Q14.60-5.25 15.38-6.26Q16.16-7.26 17.53-7.26L17.53-7.26Q18.23-7.26 18.80-7.00Q19.36-6.73 19.76-6.18L19.76-6.18L19.83-6.18L19.99-7.13L20.92-7.13L20.92 0.12Q20.92 1.65 20.14 2.42Q19.36 3.19 17.73 3.19ZM17.72-0.82L17.72-0.82Q18.79-0.82 19.29-1.40Q19.78-1.98 19.78-3.27L19.78-3.27L19.78-3.55Q19.78-5.01 19.27-5.65Q18.77-6.28 17.69-6.28L17.69-6.28Q16.80-6.28 16.31-5.57Q15.81-4.85 15.81-3.54L15.81-3.54Q15.81-2.22 16.30-1.52Q16.78-0.82 17.72-0.82ZM24.35 0L23.18 0L23.18-7.13L24.13-7.13L24.30-6.16L24.37-6.16Q24.70-6.72 25.26-6.99Q25.83-7.26 26.47-7.26L26.47-7.26Q28.14-7.26 28.65-6.06L28.65-6.06L28.71-6.06Q29.07-6.68 29.69-6.97Q30.31-7.26 31.00-7.26L31.00-7.26Q32.21-7.26 32.81-6.64Q33.41-6.02 33.41-4.64L33.41-4.64L33.41 0L32.25 0L32.25-4.59Q32.25-6.28 30.80-6.28L30.80-6.28Q29.77-6.28 29.32-5.68Q28.87-5.08 28.87-3.94L28.87-3.94L28.87 0L27.72 0L27.72-4.59Q27.72-6.28 26.25-6.28L26.25-6.28Q25.18-6.28 24.76-5.61Q24.35-4.95 24.35-3.70L24.35-3.70L24.35 0ZM38.65 0.13L38.65 0.13Q37.64 0.13 36.86-0.28Q36.08-0.69 35.65-1.51Q35.22-2.33 35.22-3.51L35.22-3.51Q35.22-4.68 35.61-5.52Q36.00-6.36 36.71-6.81Q37.43-7.26 38.37-7.26L38.37-7.26Q39.29-7.26 39.95-6.86Q40.60-6.46 40.96-5.74Q41.31-5.01 41.31-4.04L41.31-4.04L41.31-3.34L36.43-3.34Q36.46-2.13 37.05-1.50Q37.64-0.86 38.70-0.86L38.70-0.86Q39.38-0.86 39.91-0.99Q40.43-1.12 40.99-1.36L40.99-1.36L40.99-0.33Q40.45-0.09 39.91 0.02Q39.38 0.13 38.65 0.13ZM36.46-4.27L36.46-4.27L40.09-4.27Q40.09-5.17 39.67-5.74Q39.25-6.30 38.36-6.30L38.36-6.30Q37.52-6.30 37.03-5.77Q36.55-5.23 36.46-4.27ZM44.29 0L43.12 0L43.12-7.13L44.06-7.13L44.24-6.16L44.30-6.16Q44.65-6.72 45.26-6.99Q45.87-7.26 46.55-7.26L46.55-7.26Q47.83-7.26 48.48-6.64Q49.13-6.02 49.13-4.64L49.13-4.64L49.13 0L47.97 0L47.97-4.56Q47.97-6.28 46.38-6.28L46.38-6.28Q45.19-6.28 44.74-5.61Q44.29-4.95 44.29-3.70L44.29-3.70L44.29 0ZM53.52 0.13L53.52 0.13Q52.96 0.13 52.49-0.06Q52.02-0.25 51.72-0.73Q51.43-1.21 51.43-2.07L51.43-2.07L51.43-6.22L50.42-6.22L50.42-6.78L51.44-7.25L51.91-8.76L52.60-8.76L52.60-7.13L54.66-7.13L54.66-6.22L52.60-6.22L52.60-2.10Q52.60-1.45 52.91-1.14Q53.23-0.82 53.72-0.82L53.72-0.82Q53.98-0.82 54.26-0.87Q54.54-0.92 54.72-0.97L54.72-0.97L54.72-0.08Q54.53 0.01 54.18 0.07Q53.84 0.13 53.52 0.13ZM57.93 0.13L57.93 0.13Q57.19 0.13 56.65 0.01Q56.11-0.11 55.70-0.32L55.70-0.32L55.70-1.38Q56.13-1.17 56.73-0.99Q57.34-0.81 57.96-0.81L57.96-0.81Q58.85-0.81 59.25-1.10Q59.65-1.38 59.65-1.86L59.65-1.86Q59.65-2.13 59.50-2.34Q59.36-2.55 58.98-2.77Q58.60-2.98 57.89-3.25L57.89-3.25Q57.20-3.51 56.71-3.78Q56.22-4.04 55.95-4.42Q55.69-4.79 55.69-5.37L55.69-5.37Q55.69-6.28 56.43-6.77Q57.16-7.26 58.36-7.26L58.36-7.26Q59.01-7.26 59.58-7.14Q60.14-7.01 60.63-6.78L60.63-6.78L60.24-5.85Q59.78-6.04 59.29-6.17Q58.80-6.30 58.28-6.30L58.28-6.30Q57.56-6.30 57.18-6.07Q56.80-5.84 56.80-5.44L56.80-5.44Q56.80-5.15 56.98-4.94Q57.15-4.73 57.56-4.54Q57.96-4.35 58.64-4.08L58.64-4.08Q59.32-3.83 59.80-3.56Q60.28-3.29 60.53-2.91Q60.78-2.54 60.78-1.97L60.78-1.97Q60.78-0.93 60.01-0.40Q59.24 0.13 57.93 0.13Z" transform="translate(4, 13.956700000000001)"/><rect x="0" y="3.192" width="69.37950000000001" height="15.956700000000001" class="clickable" style="cursor:pointer;fill:rgba(0, 0, 0, 0);fill-opacity:0;stroke-width:0px;"/></g></g></g></g></g></svg>