<svg xmlns="http://www.w3.org/2000/svg" id="sprotty_seven_seg_decoder" class="sprotty-graph sprotty-block-diagram blockdiagram" style="font-family:&quot;Helvetica Neue&quot;, Helvetica, Arial, sans-serif;line-height:18px;perspective-origin:0px 0px;transform-origin:0px 0px;z-index:0;" version="1.1" viewBox="9.5 12 262.126875 78.95670127868652"><g transform="scale(1) translate(0,0)"><g id="sprotty_ArchitectureBlockImpl$work.seven_seg_decoder(synth)" transform="translate(12, 12)" class="architecture"><g class="sprotty-block" style="fill:rgb(245, 245, 245);stroke:rgb(48, 48, 48);stroke-dasharray:0px;"><rect x="0" y="0" rx="1" ry="1" width="255.296875" height="78.95670127868652"/><path d="M14.64 16L12.40 16L11.44 12.27Q11.36 11.97 11.25 11.51Q11.14 11.06 11.02 10.56Q10.90 10.06 10.80 9.65Q10.70 9.23 10.66 9.01L10.66 9.01L10.59 9.01Q10.54 9.23 10.45 9.65Q10.35 10.06 10.24 10.57Q10.13 11.07 10.01 11.53Q9.89 11.98 9.81 12.29L9.81 12.29L8.80 16L6.59 16L4.16 7.31L6.19 7.31L7.26 11.46Q7.38 11.89 7.48 12.41Q7.58 12.93 7.66 13.42Q7.73 13.90 7.78 14.21L7.78 14.21L7.84 14.21Q7.87 13.92 7.96 13.42Q8.05 12.93 8.14 12.46Q8.24 11.98 8.30 11.74L8.30 11.74L9.55 7.31L11.76 7.31L12.96 11.74Q13.02 12.03 13.13 12.50Q13.23 12.96 13.31 13.43Q13.39 13.90 13.41 14.19L13.41 14.19L13.47 14.19Q13.50 13.94 13.58 13.46Q13.66 12.98 13.78 12.43Q13.89 11.89 14.02 11.46L14.02 11.46L15.10 7.31L17.10 7.31L14.64 16ZM26.32 11.65L26.32 11.65Q26.32 13.81 25.20 14.98Q24.08 16.16 22.16 16.16L22.16 16.16Q20.98 16.16 20.05 15.63Q19.12 15.10 18.59 14.10Q18.06 13.09 18.06 11.65L18.06 11.65Q18.06 9.49 19.18 8.33Q20.29 7.17 22.21 7.17L22.21 7.17Q23.41 7.17 24.34 7.69Q25.26 8.21 25.79 9.21Q26.32 10.21 26.32 11.65ZM20.13 11.65L20.13 11.65Q20.13 13.02 20.62 13.78Q21.10 14.53 22.19 14.53L22.19 14.53Q23.28 14.53 23.77 13.78Q24.26 13.02 24.26 11.65L24.26 11.65Q24.26 10.27 23.77 9.54Q23.28 8.80 22.18 8.80L22.18 8.80Q21.10 8.80 20.62 9.54Q20.13 10.27 20.13 11.65ZM32.94 7.17L32.94 7.17Q33.15 7.17 33.40 7.18Q33.65 7.20 33.82 7.25L33.82 7.25L33.65 9.12Q33.49 9.09 33.26 9.06Q33.04 9.04 32.86 9.04L32.86 9.04Q32.22 9.04 31.66 9.30Q31.10 9.57 30.76 10.12Q30.42 10.67 30.42 11.50L30.42 11.50L30.42 16L28.40 16L28.40 7.33L29.95 7.33L30.24 8.83L30.34 8.83Q30.72 8.14 31.39 7.66Q32.06 7.17 32.94 7.17ZM35.42 3.84L37.42 3.84L37.42 9.62Q37.42 10.03 37.39 10.50Q37.36 10.96 37.33 11.38L37.33 11.38L37.38 11.38Q37.57 11.09 37.86 10.72Q38.14 10.35 38.40 10.06L38.40 10.06L40.96 7.33L43.25 7.33L39.78 11.07L43.47 16L41.12 16L38.43 12.29L37.42 13.12L37.42 16L35.42 16L35.42 3.84ZM44.54 14.98L44.54 14.98Q44.54 14.30 44.90 14.02Q45.25 13.74 45.76 13.74L45.76 13.74Q46.26 13.74 46.62 14.02Q46.99 14.30 46.99 14.98L46.99 14.98Q46.99 15.63 46.62 15.92Q46.26 16.21 45.76 16.21L45.76 16.21Q45.25 16.21 44.90 15.92Q44.54 15.63 44.54 14.98ZM55.20 13.49L55.20 13.49Q55.20 14.80 54.26 15.48Q53.33 16.16 51.58 16.16L51.58 16.16Q50.67 16.16 50.02 16.03Q49.38 15.90 48.77 15.63L48.77 15.63L48.77 13.92Q49.41 14.22 50.18 14.43Q50.96 14.64 51.65 14.64L51.65 14.64Q52.48 14.64 52.85 14.38Q53.22 14.13 53.22 13.70L53.22 13.70Q53.22 13.44 53.07 13.24Q52.93 13.04 52.50 12.80Q52.08 12.56 51.25 12.21L51.25 12.21Q50.42 11.89 49.86 11.54Q49.31 11.20 49.03 10.74Q48.75 10.27 48.75 9.54L48.75 9.54Q48.75 8.37 49.67 7.77Q50.59 7.17 52.13 7.17L52.13 7.17Q52.93 7.17 53.64 7.33Q54.35 7.49 55.07 7.81L55.07 7.81L54.43 9.30Q53.82 9.04 53.25 8.86Q52.67 8.69 52.06 8.69L52.06 8.69Q50.74 8.69 50.74 9.44L50.74 9.44Q50.74 9.71 50.90 9.90Q51.07 10.10 51.50 10.31Q51.92 10.53 52.70 10.83L52.70 10.83Q53.47 11.14 54.03 11.46Q54.59 11.79 54.90 12.27Q55.20 12.75 55.20 13.49ZM60.62 7.17L60.62 7.17Q62.37 7.17 63.38 8.21Q64.40 9.25 64.40 11.10L64.40 11.10L64.40 12.13L58.67 12.13Q58.70 13.31 59.33 13.96Q59.95 14.61 61.06 14.61L61.06 14.61Q61.89 14.61 62.56 14.44Q63.23 14.27 63.94 13.95L63.94 13.95L63.94 15.57Q63.30 15.87 62.61 16.02Q61.92 16.16 60.96 16.16L60.96 16.16Q59.70 16.16 58.71 15.67Q57.73 15.18 57.18 14.19Q56.62 13.20 56.62 11.73L56.62 11.73Q56.62 9.50 57.73 8.34Q58.83 7.17 60.62 7.17ZM60.62 8.66L60.62 8.66Q59.81 8.66 59.30 9.18Q58.80 9.70 58.72 10.72L58.72 10.72L62.45 10.72Q62.43 9.82 61.99 9.24Q61.55 8.66 60.62 8.66ZM70.26 16L68.11 16L64.82 7.33L66.94 7.33L68.67 12.34Q68.83 12.80 68.97 13.36Q69.10 13.92 69.14 14.30L69.14 14.30L69.20 14.30Q69.25 13.90 69.39 13.35Q69.54 12.80 69.70 12.34L69.70 12.34L71.42 7.33L73.55 7.33L70.26 16ZM78.34 7.17L78.34 7.17Q80.08 7.17 81.10 8.21Q82.11 9.25 82.11 11.10L82.11 11.10L82.11 12.13L76.38 12.13Q76.42 13.31 77.04 13.96Q77.66 14.61 78.77 14.61L78.77 14.61Q79.60 14.61 80.27 14.44Q80.94 14.27 81.65 13.95L81.65 13.95L81.65 15.57Q81.01 15.87 80.32 16.02Q79.63 16.16 78.67 16.16L78.67 16.16Q77.41 16.16 76.42 15.67Q75.44 15.18 74.89 14.19Q74.34 13.20 74.34 11.73L74.34 11.73Q74.34 9.50 75.44 8.34Q76.54 7.17 78.34 7.17ZM78.34 8.66L78.34 8.66Q77.52 8.66 77.02 9.18Q76.51 9.70 76.43 10.72L76.43 10.72L80.16 10.72Q80.14 9.82 79.70 9.24Q79.26 8.66 78.34 8.66ZM88.78 7.17L88.78 7.17Q90.24 7.17 91.06 7.92Q91.89 8.67 91.89 10.35L91.89 10.35L91.89 16L89.87 16L89.87 10.75Q89.87 8.80 88.27 8.80L88.27 8.80Q87.06 8.80 86.61 9.57Q86.16 10.34 86.16 11.76L86.16 11.76L86.16 16L84.14 16L84.14 7.33L85.70 7.33L85.98 8.46L86.10 8.46Q86.51 7.79 87.24 7.48Q87.97 7.17 88.78 7.17ZM99.92 17.44L99.92 18.50L93.09 18.50L93.09 17.44L99.92 17.44ZM107.09 13.49L107.09 13.49Q107.09 14.80 106.15 15.48Q105.22 16.16 103.47 16.16L103.47 16.16Q102.56 16.16 101.91 16.03Q101.26 15.90 100.66 15.63L100.66 15.63L100.66 13.92Q101.30 14.22 102.07 14.43Q102.85 14.64 103.54 14.64L103.54 14.64Q104.37 14.64 104.74 14.38Q105.10 14.13 105.10 13.70L105.10 13.70Q105.10 13.44 104.96 13.24Q104.82 13.04 104.39 12.80Q103.97 12.56 103.14 12.21L103.14 12.21Q102.30 11.89 101.75 11.54Q101.20 11.20 100.92 10.74Q100.64 10.27 100.64 9.54L100.64 9.54Q100.64 8.37 101.56 7.77Q102.48 7.17 104.02 7.17L104.02 7.17Q104.82 7.17 105.53 7.33Q106.24 7.49 106.96 7.81L106.96 7.81L106.32 9.30Q105.71 9.04 105.14 8.86Q104.56 8.69 103.95 8.69L103.95 8.69Q102.62 8.69 102.62 9.44L102.62 9.44Q102.62 9.71 102.79 9.90Q102.96 10.10 103.38 10.31Q103.81 10.53 104.59 10.83L104.59 10.83Q105.36 11.14 105.92 11.46Q106.48 11.79 106.78 12.27Q107.09 12.75 107.09 13.49ZM112.51 7.17L112.51 7.17Q114.26 7.17 115.27 8.21Q116.29 9.25 116.29 11.10L116.29 11.10L116.29 12.13L110.56 12.13Q110.59 13.31 111.22 13.96Q111.84 14.61 112.94 14.61L112.94 14.61Q113.78 14.61 114.45 14.44Q115.12 14.27 115.82 13.95L115.82 13.95L115.82 15.57Q115.18 15.87 114.50 16.02Q113.81 16.16 112.85 16.16L112.85 16.16Q111.58 16.16 110.60 15.67Q109.62 15.18 109.06 14.19Q108.51 13.20 108.51 11.73L108.51 11.73Q108.51 9.50 109.62 8.34Q110.72 7.17 112.51 7.17ZM112.51 8.66L112.51 8.66Q111.70 8.66 111.19 9.18Q110.69 9.70 110.61 10.72L110.61 10.72L114.34 10.72Q114.32 9.82 113.88 9.24Q113.44 8.66 112.51 8.66ZM121.23 7.17L121.23 7.17Q122.88 7.17 123.81 8.45L123.81 8.45L123.89 8.45L124.08 7.33L125.76 7.33L125.76 16.06Q125.76 17.92 124.71 18.88Q123.66 19.84 121.58 19.84L121.58 19.84Q120.66 19.84 119.87 19.72Q119.09 19.60 118.38 19.31L118.38 19.31L118.38 17.65Q119.87 18.32 121.71 18.32L121.71 18.32Q122.70 18.32 123.22 17.77Q123.74 17.22 123.74 16.16L123.74 16.16L123.74 15.94Q123.74 15.70 123.76 15.38Q123.78 15.06 123.81 14.86L123.81 14.86L123.74 14.86Q123.30 15.54 122.65 15.85Q122.00 16.16 121.18 16.16L121.18 16.16Q119.60 16.16 118.70 14.98Q117.81 13.79 117.81 11.68L117.81 11.68Q117.81 9.57 118.71 8.37Q119.62 7.17 121.23 7.17ZM121.76 8.82L121.76 8.82Q119.87 8.82 119.87 11.71L119.87 11.71Q119.87 14.56 121.79 14.56L121.79 14.56Q122.85 14.56 123.35 13.98Q123.86 13.39 123.86 12L123.86 12L123.86 11.70Q123.86 10.16 123.35 9.49Q122.85 8.82 121.76 8.82ZM133.84 17.44L133.84 18.50L127.01 18.50L127.01 17.44L133.84 17.44ZM137.97 16.16L137.97 16.16Q136.45 16.16 135.52 15.02Q134.59 13.89 134.59 11.68L134.59 11.68Q134.59 9.44 135.54 8.30Q136.48 7.17 138.02 7.17L138.02 7.17Q138.98 7.17 139.59 7.54Q140.21 7.90 140.58 8.43L140.58 8.43L140.67 8.43Q140.62 8.21 140.58 7.74Q140.53 7.28 140.53 6.88L140.53 6.88L140.53 3.84L142.54 3.84L142.54 16L140.98 16L140.61 14.86L140.53 14.86Q140.16 15.41 139.55 15.78Q138.94 16.16 137.97 16.16ZM138.58 14.53L138.58 14.53Q139.70 14.53 140.15 13.89Q140.61 13.25 140.62 11.95L140.62 11.95L140.62 11.70Q140.62 10.30 140.18 9.56Q139.74 8.82 138.54 8.82L138.54 8.82Q137.62 8.82 137.13 9.58Q136.64 10.34 136.64 11.71L136.64 11.71Q136.64 13.09 137.14 13.81Q137.63 14.53 138.58 14.53ZM148.61 7.17L148.61 7.17Q150.35 7.17 151.37 8.21Q152.38 9.25 152.38 11.10L152.38 11.10L152.38 12.13L146.66 12.13Q146.69 13.31 147.31 13.96Q147.94 14.61 149.04 14.61L149.04 14.61Q149.87 14.61 150.54 14.44Q151.22 14.27 151.92 13.95L151.92 13.95L151.92 15.57Q151.28 15.87 150.59 16.02Q149.90 16.16 148.94 16.16L148.94 16.16Q147.68 16.16 146.70 15.67Q145.71 15.18 145.16 14.19Q144.61 13.20 144.61 11.73L144.61 11.73Q144.61 9.50 145.71 8.34Q146.82 7.17 148.61 7.17ZM148.61 8.66L148.61 8.66Q147.79 8.66 147.29 9.18Q146.78 9.70 146.70 10.72L146.70 10.72L150.43 10.72Q150.42 9.82 149.98 9.24Q149.54 8.66 148.61 8.66ZM157.92 16.16L157.92 16.16Q156.05 16.16 154.98 15.09Q153.90 14.02 153.90 11.71L153.90 11.71Q153.90 10.11 154.44 9.11Q154.98 8.11 155.92 7.64Q156.86 7.17 158.08 7.17L158.08 7.17Q158.90 7.17 159.54 7.33Q160.18 7.49 160.62 7.71L160.62 7.71L160.03 9.30Q159.54 9.10 159.04 8.97Q158.54 8.83 158.08 8.83L158.08 8.83Q155.97 8.83 155.97 11.70L155.97 11.70Q155.97 13.09 156.50 13.79Q157.04 14.50 158.05 14.50L158.05 14.50Q158.77 14.50 159.33 14.32Q159.89 14.14 160.40 13.84L160.40 13.84L160.40 15.58Q159.90 15.87 159.34 16.02Q158.77 16.16 157.92 16.16ZM170.18 11.65L170.18 11.65Q170.18 13.81 169.06 14.98Q167.94 16.16 166.02 16.16L166.02 16.16Q164.83 16.16 163.90 15.63Q162.98 15.10 162.45 14.10Q161.92 13.09 161.92 11.65L161.92 11.65Q161.92 9.49 163.03 8.33Q164.14 7.17 166.06 7.17L166.06 7.17Q167.26 7.17 168.19 7.69Q169.12 8.21 169.65 9.21Q170.18 10.21 170.18 11.65ZM163.98 11.65L163.98 11.65Q163.98 13.02 164.47 13.78Q164.96 14.53 166.05 14.53L166.05 14.53Q167.14 14.53 167.62 13.78Q168.11 13.02 168.11 11.65L168.11 11.65Q168.11 10.27 167.62 9.54Q167.14 8.80 166.03 8.80L166.03 8.80Q164.96 8.80 164.47 9.54Q163.98 10.27 163.98 11.65ZM175.12 16.16L175.12 16.16Q173.60 16.16 172.67 15.02Q171.74 13.89 171.74 11.68L171.74 11.68Q171.74 9.44 172.69 8.30Q173.63 7.17 175.17 7.17L175.17 7.17Q176.13 7.17 176.74 7.54Q177.36 7.90 177.73 8.43L177.73 8.43L177.82 8.43Q177.78 8.21 177.73 7.74Q177.68 7.28 177.68 6.88L177.68 6.88L177.68 3.84L179.70 3.84L179.70 16L178.13 16L177.76 14.86L177.68 14.86Q177.31 15.41 176.70 15.78Q176.10 16.16 175.12 16.16ZM175.73 14.53L175.73 14.53Q176.85 14.53 177.30 13.89Q177.76 13.25 177.78 11.95L177.78 11.95L177.78 11.70Q177.78 10.30 177.34 9.56Q176.90 8.82 175.70 8.82L175.70 8.82Q174.77 8.82 174.28 9.58Q173.79 10.34 173.79 11.71L173.79 11.71Q173.79 13.09 174.29 13.81Q174.78 14.53 175.73 14.53ZM185.76 7.17L185.76 7.17Q187.50 7.17 188.52 8.21Q189.54 9.25 189.54 11.10L189.54 11.10L189.54 12.13L183.81 12.13Q183.84 13.31 184.46 13.96Q185.09 14.61 186.19 14.61L186.19 14.61Q187.02 14.61 187.70 14.44Q188.37 14.27 189.07 13.95L189.07 13.95L189.07 15.57Q188.43 15.87 187.74 16.02Q187.06 16.16 186.10 16.16L186.10 16.16Q184.83 16.16 183.85 15.67Q182.86 15.18 182.31 14.19Q181.76 13.20 181.76 11.73L181.76 11.73Q181.76 9.50 182.86 8.34Q183.97 7.17 185.76 7.17ZM185.76 8.66L185.76 8.66Q184.94 8.66 184.44 9.18Q183.94 9.70 183.86 10.72L183.86 10.72L187.58 10.72Q187.57 9.82 187.13 9.24Q186.69 8.66 185.76 8.66ZM196.11 7.17L196.11 7.17Q196.32 7.17 196.57 7.18Q196.82 7.20 196.99 7.25L196.99 7.25L196.82 9.12Q196.66 9.09 196.43 9.06Q196.21 9.04 196.03 9.04L196.03 9.04Q195.39 9.04 194.83 9.30Q194.27 9.57 193.93 10.12Q193.58 10.67 193.58 11.50L193.58 11.50L193.58 16L191.57 16L191.57 7.33L193.12 7.33L193.41 8.83L193.50 8.83Q193.89 8.14 194.56 7.66Q195.23 7.17 196.11 7.17ZM197.94 11.62L197.94 11.62Q197.94 9.66 198.50 7.85Q199.07 6.03 200.29 4.58L200.29 4.58L202.00 4.58Q200.90 6.08 200.34 7.89Q199.78 9.70 199.78 11.60L199.78 11.60Q199.78 13.46 200.34 15.25Q200.90 17.04 201.98 18.53L201.98 18.53L200.29 18.53Q199.07 17.12 198.50 15.34Q197.94 13.55 197.94 11.62ZM209.68 13.49L209.68 13.49Q209.68 14.80 208.74 15.48Q207.81 16.16 206.06 16.16L206.06 16.16Q205.15 16.16 204.50 16.03Q203.86 15.90 203.25 15.63L203.25 15.63L203.25 13.92Q203.89 14.22 204.66 14.43Q205.44 14.64 206.13 14.64L206.13 14.64Q206.96 14.64 207.33 14.38Q207.70 14.13 207.70 13.70L207.70 13.70Q207.70 13.44 207.55 13.24Q207.41 13.04 206.98 12.80Q206.56 12.56 205.73 12.21L205.73 12.21Q204.90 11.89 204.34 11.54Q203.79 11.20 203.51 10.74Q203.23 10.27 203.23 9.54L203.23 9.54Q203.23 8.37 204.15 7.77Q205.07 7.17 206.61 7.17L206.61 7.17Q207.41 7.17 208.12 7.33Q208.83 7.49 209.55 7.81L209.55 7.81L208.91 9.30Q208.30 9.04 207.73 8.86Q207.15 8.69 206.54 8.69L206.54 8.69Q205.22 8.69 205.22 9.44L205.22 9.44Q205.22 9.71 205.38 9.90Q205.55 10.10 205.98 10.31Q206.40 10.53 207.18 10.83L207.18 10.83Q207.95 11.14 208.51 11.46Q209.07 11.79 209.38 12.27Q209.68 12.75 209.68 13.49ZM213.79 15.97L210.32 7.33L212.51 7.33L214.24 12.22Q214.42 12.69 214.53 13.14Q214.64 13.58 214.69 14.05L214.69 14.05L214.75 14.05Q214.82 13.65 214.94 13.17Q215.07 12.69 215.23 12.22L215.23 12.22L216.90 7.33L219.07 7.33L215.38 17.15Q214.88 18.45 214.02 19.14Q213.17 19.84 211.92 19.84L211.92 19.84Q211.52 19.84 211.23 19.80Q210.94 19.76 210.72 19.71L210.72 19.71L210.72 18.11Q210.90 18.14 211.14 18.18Q211.39 18.21 211.66 18.21L211.66 18.21Q212.42 18.21 212.86 17.77Q213.30 17.33 213.54 16.67L213.54 16.67L213.79 15.97ZM225.01 7.17L225.01 7.17Q226.46 7.17 227.29 7.92Q228.11 8.67 228.11 10.35L228.11 10.35L228.11 16L226.10 16L226.10 10.75Q226.10 8.80 224.50 8.80L224.50 8.80Q223.28 8.80 222.83 9.57Q222.38 10.34 222.38 11.76L222.38 11.76L222.38 16L220.37 16L220.37 7.33L221.92 7.33L222.21 8.46L222.32 8.46Q222.74 7.79 223.46 7.48Q224.19 7.17 225.01 7.17ZM234.00 14.54L234.00 14.54Q234.37 14.54 234.73 14.47Q235.09 14.40 235.39 14.30L235.39 14.30L235.39 15.81Q235.07 15.95 234.56 16.06Q234.05 16.16 233.49 16.16L233.49 16.16Q232.75 16.16 232.14 15.91Q231.54 15.66 231.18 15.06Q230.83 14.45 230.83 13.36L230.83 13.36L230.83 8.85L229.66 8.85L229.66 7.97L230.94 7.26L231.58 5.42L232.85 5.42L232.85 7.33L235.31 7.33L235.31 8.85L232.85 8.85L232.85 13.34Q232.85 13.95 233.17 14.25Q233.49 14.54 234.00 14.54ZM237.14 3.84L239.15 3.84L239.15 6.74Q239.15 7.25 239.11 7.74Q239.07 8.22 239.04 8.46L239.04 8.46L239.17 8.46Q239.58 7.81 240.26 7.49Q240.93 7.17 241.74 7.17L241.74 7.17Q243.22 7.17 244.05 7.92Q244.88 8.67 244.88 10.35L244.88 10.35L244.88 16L242.86 16L242.86 10.75Q242.86 8.80 241.26 8.80L241.26 8.80Q240.05 8.80 239.60 9.57Q239.15 10.34 239.15 11.76L239.15 11.76L239.15 16L237.14 16L237.14 3.84ZM250.66 11.62L250.66 11.62Q250.66 13.55 250.09 15.34Q249.52 17.12 248.30 18.53L248.30 18.53L246.61 18.53Q247.70 17.04 248.26 15.25Q248.83 13.46 248.83 11.60L248.83 11.60Q248.83 9.70 248.26 7.89Q247.70 6.08 246.59 4.58L246.59 4.58L248.30 4.58Q249.52 6.03 250.09 7.85Q250.66 9.66 250.66 11.62Z" class="sprotty-block-name" style="fill:rgb(48, 48, 48);stroke:rgba(0, 0, 0, 0);"/><line x1="0" y1="20" x2="255.296875" y2="20"/></g><g id="sprotty_ArchitectureBlockImpl$work.seven_seg_decoder(synth)/GPortImpl$data_to_ArchitectureBlockImpl$work.seven_seg_decoder(synth)/ProcessBlockImpl$null2/GPortImpl$data" class="sprotty-edge thick edge" style="fill:none;stroke:rgb(112, 112, 112);stroke-linejoin:round;stroke-width:3px;"><path d="M 0 45 L 53.90340042114258 45 "/></g><g id="sprotty_ArchitectureBlockImpl$work.seven_seg_decoder(synth)/ProcessBlockImpl$null2/GPortImpl$segments_to_ArchitectureBlockImpl$work.seven_seg_decoder(synth)/GPortImpl$segments" class="sprotty-edge thick edge" style="fill:none;stroke:rgb(112, 112, 112);stroke-linejoin:round;stroke-width:3px;"><path d="M 68.90340042114258 45 L 255.296875 45 "/></g><g id="sprotty_ArchitectureBlockImpl$work.seven_seg_decoder(synth)/GPortImpl$data" transform="translate(0, 45)" class="triangle"><path d="M 0,0 L 5,2.5 L 0,5 Z" transform="translate(-1.67, -2.5)" class="sprotty-port" style="fill:rgb(48, 48, 48);stroke:rgb(48, 48, 48);"/><g class="port sprotty-label" id="sprotty_ArchitectureBlockImpl$work.seven_seg_decoder(synth)/GPortImpl$data/label" transform="translate(3, 3) translate(0, -0.13300000131130219)" style="cursor:default;fill:rgb(48, 48, 48);font-family:Arial, Helvetica, sans-serif;text-anchor:middle;"><path d="M3.66 0.13L3.66 0.13Q2.33 0.13 1.53-0.79Q0.73-1.72 0.73-3.55L0.73-3.55Q0.73-5.39 1.54-6.32Q2.34-7.26 3.67-7.26L3.67-7.26Q4.50-7.26 5.02-6.96Q5.55-6.65 5.88-6.21L5.88-6.21L5.96-6.21Q5.95-6.38 5.91-6.72Q5.88-7.06 5.88-7.26L5.88-7.26L5.88-10.11L7.05-10.11L7.05 0L6.10 0L5.93-0.96L5.88-0.96Q5.56-0.51 5.03-0.19Q4.50 0.13 3.66 0.13ZM3.84-0.84L3.84-0.84Q4.97-0.84 5.43-1.46Q5.89-2.07 5.89-3.33L5.89-3.33L5.89-3.54Q5.89-4.87 5.45-5.58Q5.01-6.29 3.83-6.29L3.83-6.29Q2.89-6.29 2.41-5.54Q1.94-4.79 1.94-3.52L1.94-3.52Q1.94-2.25 2.41-1.54Q2.89-0.84 3.84-0.84ZM11.04 0.13L11.04 0.13Q10.07 0.13 9.43-0.38Q8.79-0.89 8.79-1.98L8.79-1.98Q8.79-3.05 9.63-3.62Q10.47-4.20 12.21-4.26L12.21-4.26L13.42-4.30L13.42-4.72Q13.42-5.61 13.03-5.96Q12.65-6.30 11.94-6.30L11.94-6.30Q11.38-6.30 10.88-6.14Q10.37-5.97 9.94-5.76L9.94-5.76L9.58-6.64Q10.04-6.89 10.68-7.07Q11.32-7.25 12.01-7.25L12.01-7.25Q13.31-7.25 13.94-6.68Q14.56-6.10 14.56-4.85L14.56-4.85L14.56 0L13.71 0L13.49-1.01L13.43-1.01Q12.97-0.43 12.46-0.15Q11.94 0.13 11.04 0.13ZM11.31-0.81L11.31-0.81Q12.21-0.81 12.81-1.31Q13.41-1.81 13.41-2.85L13.41-2.85L13.41-3.48L12.36-3.44Q11.03-3.39 10.51-3.02Q10.00-2.65 10.00-1.97L10.00-1.97Q10.00-1.37 10.37-1.09Q10.73-0.81 11.31-0.81ZM18.95 0.13L18.95 0.13Q18.39 0.13 17.92-0.06Q17.45-0.25 17.16-0.73Q16.86-1.21 16.86-2.07L16.86-2.07L16.86-6.22L15.85-6.22L15.85-6.78L16.88-7.25L17.34-8.76L18.03-8.76L18.03-7.13L20.10-7.13L20.10-6.22L18.03-6.22L18.03-2.10Q18.03-1.45 18.35-1.14Q18.66-0.82 19.15-0.82L19.15-0.82Q19.42-0.82 19.70-0.87Q19.98-0.92 20.15-0.97L20.15-0.97L20.15-0.08Q19.96 0.01 19.62 0.07Q19.27 0.13 18.95 0.13ZM23.30 0.13L23.30 0.13Q22.33 0.13 21.69-0.38Q21.05-0.89 21.05-1.98L21.05-1.98Q21.05-3.05 21.89-3.62Q22.73-4.20 24.47-4.26L24.47-4.26L25.68-4.30L25.68-4.72Q25.68-5.61 25.30-5.96Q24.91-6.30 24.21-6.30L24.21-6.30Q23.65-6.30 23.14-6.14Q22.64-5.97 22.20-5.76L22.20-5.76L21.84-6.64Q22.30-6.89 22.94-7.07Q23.58-7.25 24.27-7.25L24.27-7.25Q25.58-7.25 26.20-6.68Q26.83-6.10 26.83-4.85L26.83-4.85L26.83 0L25.97 0L25.75-1.01L25.70-1.01Q25.23-0.43 24.72-0.15Q24.21 0.13 23.30 0.13ZM23.57-0.81L23.57-0.81Q24.47-0.81 25.07-1.31Q25.67-1.81 25.67-2.85L25.67-2.85L25.67-3.48L24.62-3.44Q23.29-3.39 22.78-3.02Q22.26-2.65 22.26-1.97L22.26-1.97Q22.26-1.37 22.63-1.09Q23.00-0.81 23.57-0.81Z" transform="translate(4, 12.241)"/><rect x="0" y="0.133" width="35.903400000000005" height="14.241" class="clickable" style="cursor:pointer;fill:rgba(0, 0, 0, 0);fill-opacity:0;stroke-width:0px;"/></g></g><g id="sprotty_ArchitectureBlockImpl$work.seven_seg_decoder(synth)/GPortImpl$segments" transform="translate(255.296875, 45)" class="triangle"><path d="M 0,0 L 5,2.5 L 0,5 Z" transform="translate(-1.67, -2.5)" class="sprotty-port" style="fill:rgb(48, 48, 48);stroke:rgb(48, 48, 48);"/><g class="port sprotty-label" id="sprotty_ArchitectureBlockImpl$work.seven_seg_decoder(synth)/GPortImpl$segments/label" transform="translate(-72.37950134277344, 3) translate(0, -3.191999912261963)" style="cursor:default;fill:rgb(48, 48, 48);font-family:Arial, Helvetica, sans-serif;text-anchor:middle;"><path d="M2.93 0.13L2.93 0.13Q2.18 0.13 1.64 0.01Q1.10-0.11 0.69-0.32L0.69-0.32L0.69-1.38Q1.12-1.17 1.72-0.99Q2.33-0.81 2.95-0.81L2.95-0.81Q3.84-0.81 4.24-1.10Q4.64-1.38 4.64-1.86L4.64-1.86Q4.64-2.13 4.50-2.34Q4.35-2.55 3.97-2.77Q3.59-2.98 2.89-3.25L2.89-3.25Q2.19-3.51 1.70-3.78Q1.21-4.04 0.94-4.42Q0.68-4.79 0.68-5.37L0.68-5.37Q0.68-6.28 1.42-6.77Q2.15-7.26 3.35-7.26L3.35-7.26Q4.00-7.26 4.57-7.14Q5.13-7.01 5.63-6.78L5.63-6.78L5.23-5.85Q4.77-6.04 4.28-6.17Q3.79-6.30 3.27-6.30L3.27-6.30Q2.55-6.30 2.17-6.07Q1.80-5.84 1.80-5.44L1.80-5.44Q1.80-5.15 1.97-4.94Q2.14-4.73 2.55-4.54Q2.95-4.35 3.63-4.08L3.63-4.08Q4.31-3.83 4.79-3.56Q5.27-3.29 5.52-2.91Q5.77-2.54 5.77-1.97L5.77-1.97Q5.77-0.93 5.00-0.40Q4.23 0.13 2.93 0.13ZM10.53 0.13L10.53 0.13Q9.52 0.13 8.74-0.28Q7.97-0.69 7.53-1.51Q7.10-2.33 7.10-3.51L7.10-3.51Q7.10-4.68 7.49-5.52Q7.89-6.36 8.60-6.81Q9.31-7.26 10.25-7.26L10.25-7.26Q11.17-7.26 11.83-6.86Q12.49-6.46 12.84-5.74Q13.19-5.01 13.19-4.04L13.19-4.04L13.19-3.34L8.31-3.34Q8.34-2.13 8.93-1.50Q9.52-0.86 10.59-0.86L10.59-0.86Q11.27-0.86 11.79-0.99Q12.32-1.12 12.87-1.36L12.87-1.36L12.87-0.33Q12.33-0.09 11.80 0.02Q11.27 0.13 10.53 0.13ZM8.34-4.27L8.34-4.27L11.97-4.27Q11.97-5.17 11.55-5.74Q11.13-6.30 10.24-6.30L10.24-6.30Q9.40-6.30 8.92-5.77Q8.43-5.23 8.34-4.27ZM17.73 3.19L17.73 3.19Q16.16 3.19 15.16 2.74L15.16 2.74L15.16 1.66Q16.21 2.22 17.80 2.22L17.80 2.22Q18.71 2.22 19.24 1.68Q19.76 1.14 19.76 0.21L19.76 0.21L19.76-0.07Q19.76-0.23 19.78-0.53Q19.79-0.82 19.80-0.94L19.80-0.94L19.75-0.94Q19.03 0.13 17.54 0.13L17.54 0.13Q16.16 0.13 15.38-0.84Q14.60-1.81 14.60-3.55L14.60-3.55Q14.60-5.25 15.38-6.26Q16.16-7.26 17.53-7.26L17.53-7.26Q18.23-7.26 18.80-7.00Q19.36-6.73 19.76-6.18L19.76-6.18L19.83-6.18L19.99-7.13L20.92-7.13L20.92 0.12Q20.92 1.65 20.14 2.42Q19.36 3.19 17.73 3.19ZM17.72-0.82L17.72-0.82Q18.79-0.82 19.29-1.40Q19.78-1.98 19.78-3.27L19.78-3.27L19.78-3.55Q19.78-5.01 19.27-5.65Q18.77-6.28 17.69-6.28L17.69-6.28Q16.80-6.28 16.31-5.57Q15.81-4.85 15.81-3.54L15.81-3.54Q15.81-2.22 16.30-1.52Q16.78-0.82 17.72-0.82ZM24.35 0L23.18 0L23.18-7.13L24.13-7.13L24.30-6.16L24.37-6.16Q24.70-6.72 25.26-6.99Q25.83-7.26 26.47-7.26L26.47-7.26Q28.14-7.26 28.65-6.06L28.65-6.06L28.71-6.06Q29.07-6.68 29.69-6.97Q30.31-7.26 31.00-7.26L31.00-7.26Q32.21-7.26 32.81-6.64Q33.41-6.02 33.41-4.64L33.41-4.64L33.41 0L32.25 0L32.25-4.59Q32.25-6.28 30.80-6.28L30.80-6.28Q29.77-6.28 29.32-5.68Q28.87-5.08 28.87-3.94L28.87-3.94L28.87 0L27.72 0L27.72-4.59Q27.72-6.28 26.25-6.28L26.25-6.28Q25.18-6.28 24.76-5.61Q24.35-4.95 24.35-3.70L24.35-3.70L24.35 0ZM38.65 0.13L38.65 0.13Q37.64 0.13 36.86-0.28Q36.08-0.69 35.65-1.51Q35.22-2.33 35.22-3.51L35.22-3.51Q35.22-4.68 35.61-5.52Q36.00-6.36 36.71-6.81Q37.43-7.26 38.37-7.26L38.37-7.26Q39.29-7.26 39.95-6.86Q40.60-6.46 40.96-5.74Q41.31-5.01 41.31-4.04L41.31-4.04L41.31-3.34L36.43-3.34Q36.46-2.13 37.05-1.50Q37.64-0.86 38.70-0.86L38.70-0.86Q39.38-0.86 39.91-0.99Q40.43-1.12 40.99-1.36L40.99-1.36L40.99-0.33Q40.45-0.09 39.91 0.02Q39.38 0.13 38.65 0.13ZM36.46-4.27L36.46-4.27L40.09-4.27Q40.09-5.17 39.67-5.74Q39.25-6.30 38.36-6.30L38.36-6.30Q37.52-6.30 37.03-5.77Q36.55-5.23 36.46-4.27ZM44.29 0L43.12 0L43.12-7.13L44.06-7.13L44.24-6.16L44.30-6.16Q44.65-6.72 45.26-6.99Q45.87-7.26 46.55-7.26L46.55-7.26Q47.83-7.26 48.48-6.64Q49.13-6.02 49.13-4.64L49.13-4.64L49.13 0L47.97 0L47.97-4.56Q47.97-6.28 46.38-6.28L46.38-6.28Q45.19-6.28 44.74-5.61Q44.29-4.95 44.29-3.70L44.29-3.70L44.29 0ZM53.52 0.13L53.52 0.13Q52.96 0.13 52.49-0.06Q52.02-0.25 51.72-0.73Q51.43-1.21 51.43-2.07L51.43-2.07L51.43-6.22L50.42-6.22L50.42-6.78L51.44-7.25L51.91-8.76L52.60-8.76L52.60-7.13L54.66-7.13L54.66-6.22L52.60-6.22L52.60-2.10Q52.60-1.45 52.91-1.14Q53.23-0.82 53.72-0.82L53.72-0.82Q53.98-0.82 54.26-0.87Q54.54-0.92 54.72-0.97L54.72-0.97L54.72-0.08Q54.53 0.01 54.18 0.07Q53.84 0.13 53.52 0.13ZM57.93 0.13L57.93 0.13Q57.19 0.13 56.65 0.01Q56.11-0.11 55.70-0.32L55.70-0.32L55.70-1.38Q56.13-1.17 56.73-0.99Q57.34-0.81 57.96-0.81L57.96-0.81Q58.85-0.81 59.25-1.10Q59.65-1.38 59.65-1.86L59.65-1.86Q59.65-2.13 59.50-2.34Q59.36-2.55 58.98-2.77Q58.60-2.98 57.89-3.25L57.89-3.25Q57.20-3.51 56.71-3.78Q56.22-4.04 55.95-4.42Q55.69-4.79 55.69-5.37L55.69-5.37Q55.69-6.28 56.43-6.77Q57.16-7.26 58.36-7.26L58.36-7.26Q59.01-7.26 59.58-7.14Q60.14-7.01 60.63-6.78L60.63-6.78L60.24-5.85Q59.78-6.04 59.29-6.17Q58.80-6.30 58.28-6.30L58.28-6.30Q57.56-6.30 57.18-6.07Q56.80-5.84 56.80-5.44L56.80-5.44Q56.80-5.15 56.98-4.94Q57.15-4.73 57.56-4.54Q57.96-4.35 58.64-4.08L58.64-4.08Q59.32-3.83 59.80-3.56Q60.28-3.29 60.53-2.91Q60.78-2.54 60.78-1.97L60.78-1.97Q60.78-0.93 60.01-0.40Q59.24 0.13 57.93 0.13Z" transform="translate(4, 13.956700000000001)"/><rect x="0" y="3.192" width="69.37950000000001" height="15.956700000000001" class="clickable" style="cursor:pointer;fill:rgba(0, 0, 0, 0);fill-opacity:0;stroke-width:0px;"/></g></g><g id="sprotty_ArchitectureBlockImpl$work.seven_seg_decoder(synth)/ProcessBlockImpl$null2" transform="translate(53.90340042114258, 35)" class="statement"><rect x="0" y="0" rx="10" ry="5" width="15" height="20" class="sprotty-node" style="fill:rgb(245, 245, 245);stroke:rgb(112, 112, 112);"/><g id="sprotty_ArchitectureBlockImpl$work.seven_seg_decoder(synth)/ProcessBlockImpl$null2/GPortImpl$data" transform="translate(0, 10)" class="sprotty-hidden hidden" style="display:block;height:0px;width:0px;"/><g id="sprotty_ArchitectureBlockImpl$work.seven_seg_decoder(synth)/ProcessBlockImpl$null2/GPortImpl$segments" transform="translate(15, 10)" class="sprotty-hidden hidden" style="display:block;height:0px;width:0px;"/></g></g></g></svg>