<svg xmlns="http://www.w3.org/2000/svg" id="sprotty_decode3_8_tb" class="sprotty-graph sprotty-block-diagram blockdiagram" style="font-family:&quot;Helvetica Neue&quot;, Helvetica, Arial, sans-serif;line-height:18px;perspective-origin:0px 0px;transform-origin:0px 0px;z-index:0;" version="1.1" viewBox="9.5 12 276.3494091796875 108.32080078125"><g transform="scale(1) translate(0,0)"><g id="sprotty_ArchitectureBlockImpl$work.decode3_8_tb(RTL)" transform="translate(12, 12)" class="architecture"><g class="sprotty-block" style="fill:rgb(245, 245, 245);stroke:rgb(48, 48, 48);stroke-dasharray:0px;"><rect x="0" y="0" rx="1" ry="1" width="269.5194091796875" height="108.32080078125"/><path d="M51.68 16L49.44 16L48.48 12.27Q48.40 11.97 48.29 11.51Q48.18 11.06 48.06 10.56Q47.94 10.06 47.84 9.65Q47.74 9.23 47.70 9.01L47.70 9.01L47.63 9.01Q47.58 9.23 47.49 9.65Q47.39 10.06 47.28 10.57Q47.17 11.07 47.05 11.53Q46.93 11.98 46.85 12.29L46.85 12.29L45.84 16L43.63 16L41.20 7.31L43.23 7.31L44.30 11.46Q44.42 11.89 44.52 12.41Q44.62 12.93 44.70 13.42Q44.77 13.90 44.82 14.21L44.82 14.21L44.88 14.21Q44.91 13.92 45.00 13.42Q45.09 12.93 45.18 12.46Q45.28 11.98 45.34 11.74L45.34 11.74L46.59 7.31L48.80 7.31L50.00 11.74Q50.06 12.03 50.17 12.50Q50.27 12.96 50.35 13.43Q50.43 13.90 50.45 14.19L50.45 14.19L50.51 14.19Q50.54 13.94 50.62 13.46Q50.70 12.98 50.82 12.43Q50.93 11.89 51.06 11.46L51.06 11.46L52.14 7.31L54.14 7.31L51.68 16ZM63.36 11.65L63.36 11.65Q63.36 13.81 62.24 14.98Q61.12 16.16 59.20 16.16L59.20 16.16Q58.02 16.16 57.09 15.63Q56.16 15.10 55.63 14.10Q55.10 13.09 55.10 11.65L55.10 11.65Q55.10 9.49 56.22 8.33Q57.33 7.17 59.25 7.17L59.25 7.17Q60.45 7.17 61.38 7.69Q62.30 8.21 62.83 9.21Q63.36 10.21 63.36 11.65ZM57.17 11.65L57.17 11.65Q57.17 13.02 57.66 13.78Q58.14 14.53 59.23 14.53L59.23 14.53Q60.32 14.53 60.81 13.78Q61.30 13.02 61.30 11.65L61.30 11.65Q61.30 10.27 60.81 9.54Q60.32 8.80 59.22 8.80L59.22 8.80Q58.14 8.80 57.66 9.54Q57.17 10.27 57.17 11.65ZM69.98 7.17L69.98 7.17Q70.19 7.17 70.44 7.18Q70.69 7.20 70.86 7.25L70.86 7.25L70.69 9.12Q70.53 9.09 70.30 9.06Q70.08 9.04 69.90 9.04L69.90 9.04Q69.26 9.04 68.70 9.30Q68.14 9.57 67.80 10.12Q67.46 10.67 67.46 11.50L67.46 11.50L67.46 16L65.44 16L65.44 7.33L66.99 7.33L67.28 8.83L67.38 8.83Q67.76 8.14 68.43 7.66Q69.10 7.17 69.98 7.17ZM72.46 3.84L74.46 3.84L74.46 9.62Q74.46 10.03 74.43 10.50Q74.40 10.96 74.37 11.38L74.37 11.38L74.42 11.38Q74.61 11.09 74.90 10.72Q75.18 10.35 75.44 10.06L75.44 10.06L78.00 7.33L80.29 7.33L76.82 11.07L80.51 16L78.16 16L75.47 12.29L74.46 13.12L74.46 16L72.46 16L72.46 3.84ZM81.58 14.98L81.58 14.98Q81.58 14.30 81.94 14.02Q82.29 13.74 82.80 13.74L82.80 13.74Q83.30 13.74 83.66 14.02Q84.03 14.30 84.03 14.98L84.03 14.98Q84.03 15.63 83.66 15.92Q83.30 16.21 82.80 16.21L82.80 16.21Q82.29 16.21 81.94 15.92Q81.58 15.63 81.58 14.98ZM89.20 16.16L89.20 16.16Q87.68 16.16 86.75 15.02Q85.82 13.89 85.82 11.68L85.82 11.68Q85.82 9.44 86.77 8.30Q87.71 7.17 89.25 7.17L89.25 7.17Q90.21 7.17 90.82 7.54Q91.44 7.90 91.81 8.43L91.81 8.43L91.90 8.43Q91.86 8.21 91.81 7.74Q91.76 7.28 91.76 6.88L91.76 6.88L91.76 3.84L93.78 3.84L93.78 16L92.21 16L91.84 14.86L91.76 14.86Q91.39 15.41 90.78 15.78Q90.18 16.16 89.20 16.16ZM89.81 14.53L89.81 14.53Q90.93 14.53 91.38 13.89Q91.84 13.25 91.86 11.95L91.86 11.95L91.86 11.70Q91.86 10.30 91.42 9.56Q90.98 8.82 89.78 8.82L89.78 8.82Q88.85 8.82 88.36 9.58Q87.87 10.34 87.87 11.71L87.87 11.71Q87.87 13.09 88.37 13.81Q88.86 14.53 89.81 14.53ZM99.84 7.17L99.84 7.17Q101.58 7.17 102.60 8.21Q103.62 9.25 103.62 11.10L103.62 11.10L103.62 12.13L97.89 12.13Q97.92 13.31 98.54 13.96Q99.17 14.61 100.27 14.61L100.27 14.61Q101.10 14.61 101.78 14.44Q102.45 14.27 103.15 13.95L103.15 13.95L103.15 15.57Q102.51 15.87 101.82 16.02Q101.14 16.16 100.18 16.16L100.18 16.16Q98.91 16.16 97.93 15.67Q96.94 15.18 96.39 14.19Q95.84 13.20 95.84 11.73L95.84 11.73Q95.84 9.50 96.94 8.34Q98.05 7.17 99.84 7.17ZM99.84 8.66L99.84 8.66Q99.02 8.66 98.52 9.18Q98.02 9.70 97.94 10.72L97.94 10.72L101.66 10.72Q101.65 9.82 101.21 9.24Q100.77 8.66 99.84 8.66ZM109.15 16.16L109.15 16.16Q107.28 16.16 106.21 15.09Q105.14 14.02 105.14 11.71L105.14 11.71Q105.14 10.11 105.67 9.11Q106.21 8.11 107.15 7.64Q108.10 7.17 109.31 7.17L109.31 7.17Q110.13 7.17 110.77 7.33Q111.41 7.49 111.86 7.71L111.86 7.71L111.26 9.30Q110.77 9.10 110.27 8.97Q109.78 8.83 109.31 8.83L109.31 8.83Q107.20 8.83 107.20 11.70L107.20 11.70Q107.20 13.09 107.74 13.79Q108.27 14.50 109.28 14.50L109.28 14.50Q110.00 14.50 110.56 14.32Q111.12 14.14 111.63 13.84L111.63 13.84L111.63 15.58Q111.14 15.87 110.57 16.02Q110.00 16.16 109.15 16.16ZM121.41 11.65L121.41 11.65Q121.41 13.81 120.29 14.98Q119.17 16.16 117.25 16.16L117.25 16.16Q116.06 16.16 115.14 15.63Q114.21 15.10 113.68 14.10Q113.15 13.09 113.15 11.65L113.15 11.65Q113.15 9.49 114.26 8.33Q115.38 7.17 117.30 7.17L117.30 7.17Q118.50 7.17 119.42 7.69Q120.35 8.21 120.88 9.21Q121.41 10.21 121.41 11.65ZM115.22 11.65L115.22 11.65Q115.22 13.02 115.70 13.78Q116.19 14.53 117.28 14.53L117.28 14.53Q118.37 14.53 118.86 13.78Q119.34 13.02 119.34 11.65L119.34 11.65Q119.34 10.27 118.86 9.54Q118.37 8.80 117.26 8.80L117.26 8.80Q116.19 8.80 115.70 9.54Q115.22 10.27 115.22 11.65ZM126.35 16.16L126.35 16.16Q124.83 16.16 123.90 15.02Q122.98 13.89 122.98 11.68L122.98 11.68Q122.98 9.44 123.92 8.30Q124.86 7.17 126.40 7.17L126.40 7.17Q127.36 7.17 127.98 7.54Q128.59 7.90 128.96 8.43L128.96 8.43L129.06 8.43Q129.01 8.21 128.96 7.74Q128.91 7.28 128.91 6.88L128.91 6.88L128.91 3.84L130.93 3.84L130.93 16L129.36 16L128.99 14.86L128.91 14.86Q128.54 15.41 127.94 15.78Q127.33 16.16 126.35 16.16ZM126.96 14.53L126.96 14.53Q128.08 14.53 128.54 13.89Q128.99 13.25 129.01 11.95L129.01 11.95L129.01 11.70Q129.01 10.30 128.57 9.56Q128.13 8.82 126.93 8.82L126.93 8.82Q126.00 8.82 125.51 9.58Q125.02 10.34 125.02 11.71L125.02 11.71Q125.02 13.09 125.52 13.81Q126.02 14.53 126.96 14.53ZM136.99 7.17L136.99 7.17Q138.74 7.17 139.75 8.21Q140.77 9.25 140.77 11.10L140.77 11.10L140.77 12.13L135.04 12.13Q135.07 13.31 135.70 13.96Q136.32 14.61 137.42 14.61L137.42 14.61Q138.26 14.61 138.93 14.44Q139.60 14.27 140.30 13.95L140.30 13.95L140.30 15.57Q139.66 15.87 138.98 16.02Q138.29 16.16 137.33 16.16L137.33 16.16Q136.06 16.16 135.08 15.67Q134.10 15.18 133.54 14.19Q132.99 13.20 132.99 11.73L132.99 11.73Q132.99 9.50 134.10 8.34Q135.20 7.17 136.99 7.17ZM136.99 8.66L136.99 8.66Q136.18 8.66 135.67 9.18Q135.17 9.70 135.09 10.72L135.09 10.72L138.82 10.72Q138.80 9.82 138.36 9.24Q137.92 8.66 136.99 8.66ZM149.57 7.18L149.57 7.18Q149.57 8.35 148.89 9.05Q148.21 9.74 147.14 9.98L147.14 9.98L147.14 10.03Q148.51 10.21 149.22 10.89Q149.92 11.57 149.92 12.70L149.92 12.70Q149.92 13.70 149.44 14.48Q148.96 15.26 147.96 15.71Q146.96 16.16 145.39 16.16L145.39 16.16Q144.46 16.16 143.66 16.01Q142.86 15.86 142.16 15.54L142.16 15.54L142.16 13.76Q142.88 14.13 143.70 14.32Q144.51 14.51 145.23 14.51L145.23 14.51Q146.62 14.51 147.20 14.01Q147.78 13.50 147.78 12.61L147.78 12.61Q147.78 11.76 147.10 11.34Q146.43 10.93 144.86 10.93L144.86 10.93L143.90 10.93L143.90 9.31L144.88 9.31Q146.40 9.31 146.98 8.82Q147.55 8.34 147.55 7.54L147.55 7.54Q147.55 6.85 147.10 6.46Q146.66 6.08 145.76 6.08L145.76 6.08Q144.90 6.08 144.27 6.36Q143.65 6.64 143.15 6.96L143.15 6.96L142.19 5.57Q142.83 5.09 143.74 4.75Q144.64 4.42 145.86 4.42L145.86 4.42Q147.63 4.42 148.60 5.16Q149.57 5.90 149.57 7.18ZM157.46 17.44L157.46 18.50L150.62 18.50L150.62 17.44L157.46 17.44ZM162.00 4.43L162.00 4.43Q162.99 4.43 163.80 4.74Q164.61 5.04 165.08 5.65Q165.55 6.26 165.55 7.17L165.55 7.17Q165.55 8.21 164.94 8.86Q164.34 9.52 163.46 9.97L163.46 9.97Q164.11 10.29 164.67 10.71Q165.23 11.14 165.58 11.70Q165.92 12.27 165.92 13.04L165.92 13.04Q165.92 14 165.42 14.70Q164.93 15.39 164.06 15.78Q163.18 16.16 162.02 16.16L162.02 16.16Q160.11 16.16 159.09 15.34Q158.06 14.53 158.06 13.10L158.06 13.10Q158.06 12.32 158.38 11.74Q158.69 11.15 159.20 10.74Q159.71 10.32 160.32 10.03L160.32 10.03Q159.54 9.55 158.98 8.87Q158.43 8.19 158.43 7.15L158.43 7.15Q158.43 6.26 158.92 5.65Q159.41 5.04 160.22 4.74Q161.02 4.43 162.00 4.43ZM161.98 5.95L161.98 5.95Q161.28 5.95 160.82 6.30Q160.37 6.66 160.37 7.30L160.37 7.30Q160.37 8 160.86 8.41Q161.34 8.82 162.02 9.14L162.02 9.14Q162.67 8.85 163.14 8.43Q163.62 8.02 163.62 7.30L163.62 7.30Q163.62 6.66 163.16 6.30Q162.70 5.95 161.98 5.95ZM159.98 13.01L159.98 13.01Q159.98 13.71 160.48 14.17Q160.98 14.62 161.98 14.62L161.98 14.62Q162.98 14.62 163.49 14.18Q164.00 13.73 164.00 13.01L164.00 13.01Q164.00 12.29 163.42 11.82Q162.83 11.34 162.06 10.98L162.06 10.98L161.84 10.86Q160.98 11.25 160.48 11.76Q159.98 12.27 159.98 13.01ZM173.38 17.44L173.38 18.50L166.54 18.50L166.54 17.44L173.38 17.44ZM178.00 14.54L178.00 14.54Q178.37 14.54 178.73 14.47Q179.09 14.40 179.39 14.30L179.39 14.30L179.39 15.81Q179.07 15.95 178.56 16.06Q178.05 16.16 177.49 16.16L177.49 16.16Q176.75 16.16 176.14 15.91Q175.54 15.66 175.18 15.06Q174.83 14.45 174.83 13.36L174.83 13.36L174.83 8.85L173.66 8.85L173.66 7.97L174.94 7.26L175.58 5.42L176.85 5.42L176.85 7.33L179.31 7.33L179.31 8.85L176.85 8.85L176.85 13.34Q176.85 13.95 177.17 14.25Q177.49 14.54 178.00 14.54ZM181.14 3.84L183.15 3.84L183.15 6.72Q183.15 7.23 183.12 7.71Q183.09 8.19 183.06 8.46L183.06 8.46L183.15 8.46Q183.50 7.92 184.11 7.54Q184.72 7.17 185.70 7.17L185.70 7.17Q187.20 7.17 188.14 8.30Q189.07 9.44 189.07 11.65L189.07 11.65Q189.07 13.89 188.13 15.02Q187.18 16.16 185.65 16.16L185.65 16.16Q184.67 16.16 184.09 15.81Q183.50 15.46 183.15 14.99L183.15 14.99L183.01 14.99L182.64 16L181.14 16L181.14 3.84ZM185.12 8.80L185.12 8.80Q184.03 8.80 183.60 9.46Q183.17 10.11 183.15 11.47L183.15 11.47L183.15 11.65Q183.15 13.04 183.58 13.78Q184.00 14.51 185.15 14.51L185.15 14.51Q186.05 14.51 186.53 13.77Q187.01 13.02 187.01 11.63L187.01 11.63Q187.01 10.21 186.52 9.50Q186.03 8.80 185.12 8.80ZM190.50 11.62L190.50 11.62Q190.50 9.66 191.06 7.85Q191.63 6.03 192.85 4.58L192.85 4.58L194.56 4.58Q193.46 6.08 192.90 7.89Q192.34 9.70 192.34 11.60L192.34 11.60Q192.34 13.46 192.90 15.25Q193.46 17.04 194.54 18.53L194.54 18.53L192.85 18.53Q191.63 17.12 191.06 15.34Q190.50 13.55 190.50 11.62ZM196.53 4.58L199.78 4.58Q202.03 4.58 203.11 5.41Q204.19 6.24 204.19 7.94L204.19 7.94Q204.19 8.77 203.88 9.36Q203.57 9.95 203.07 10.34Q202.58 10.74 202.00 10.98L202.00 10.98L205.28 16L202.98 16L200.24 11.49L198.58 11.49L198.58 16L196.53 16L196.53 4.58ZM199.65 6.29L199.65 6.29L198.58 6.29L198.58 9.81L199.71 9.81Q200.98 9.81 201.54 9.35Q202.11 8.90 202.11 8L202.11 8Q202.11 7.07 201.51 6.68Q200.91 6.29 199.65 6.29ZM210.96 6.30L210.96 16L208.91 16L208.91 6.30L205.63 6.30L205.63 4.58L214.24 4.58L214.24 6.30L210.96 6.30ZM222.80 16L215.98 16L215.98 4.58L218.03 4.58L218.03 14.27L222.80 14.27L222.80 16ZM227.84 11.62L227.84 11.62Q227.84 13.55 227.27 15.34Q226.70 17.12 225.49 18.53L225.49 18.53L223.79 18.53Q224.88 17.04 225.45 15.25Q226.02 13.46 226.02 11.60L226.02 11.60Q226.02 9.70 225.45 7.89Q224.88 6.08 223.78 4.58L223.78 4.58L225.49 4.58Q226.70 6.03 227.27 7.85Q227.84 9.66 227.84 11.62Z" class="sprotty-block-name" style="fill:rgb(48, 48, 48);stroke:rgba(0, 0, 0, 0);"/><line x1="0" y1="20" x2="269.5194091796875" y2="20"/></g><g id="sprotty_ArchitectureBlockImpl$work.decode3_8_tb(RTL)/ProcessBlockImpl$stimulus/GPortImpl$a_to_ArchitectureBlockImpl$work.decode3_8_tb(RTL)/InstantiationBlockImpl$DUT/BPortImpl$a" class="sprotty-edge thick edge" style="fill:none;stroke:rgb(112, 112, 112);stroke-linejoin:round;stroke-width:3px;"><path d="M 92.3280029296875 74.160400390625 L 112.3280029296875 74.160400390625 "/></g><g id="sprotty_ArchitectureBlockImpl$work.decode3_8_tb(RTL)/ProcessBlockImpl$stimulus" transform="translate(15, 63.000244140625)" class="statement"><rect x="0" y="0" rx="10" ry="5" width="77.3280029296875" height="22.3203125" class="sprotty-node" style="fill:rgb(245, 245, 245);stroke:rgb(112, 112, 112);"/><g id="sprotty_ArchitectureBlockImpl$work.decode3_8_tb(RTL)/ProcessBlockImpl$stimulus/label" transform="translate(5, 5) translate(0, -0.15984344482421875)" class="sprotty-label process" style="cursor:default;fill:rgb(48, 48, 48);font-family:Arial, Helvetica, sans-serif;text-anchor:middle;"><path d="M7.20-2.51L7.20-2.51Q7.20-1.20 6.26-0.52Q5.33 0.16 3.58 0.16L3.58 0.16Q2.67 0.16 2.02 0.03Q1.38-0.10 0.77-0.37L0.77-0.37L0.77-2.08Q1.41-1.78 2.18-1.57Q2.96-1.36 3.65-1.36L3.65-1.36Q4.48-1.36 4.85-1.62Q5.22-1.87 5.22-2.30L5.22-2.30Q5.22-2.56 5.07-2.76Q4.93-2.96 4.50-3.20Q4.08-3.44 3.25-3.79L3.25-3.79Q2.42-4.11 1.86-4.46Q1.31-4.80 1.03-5.26Q0.75-5.73 0.75-6.46L0.75-6.46Q0.75-7.63 1.67-8.23Q2.59-8.83 4.13-8.83L4.13-8.83Q4.93-8.83 5.64-8.67Q6.35-8.51 7.07-8.19L7.07-8.19L6.43-6.70Q5.82-6.96 5.25-7.14Q4.67-7.31 4.06-7.31L4.06-7.31Q2.74-7.31 2.74-6.56L2.74-6.56Q2.74-6.29 2.90-6.10Q3.07-5.90 3.50-5.69Q3.92-5.47 4.70-5.17L4.70-5.17Q5.47-4.86 6.03-4.54Q6.59-4.21 6.90-3.73Q7.20-3.25 7.20-2.51ZM12.50-1.46L12.50-1.46Q12.86-1.46 13.22-1.53Q13.58-1.60 13.89-1.70L13.89-1.70L13.89-0.19Q13.57-0.05 13.06 0.06Q12.54 0.16 11.98 0.16L11.98 0.16Q11.25 0.16 10.64-0.09Q10.03-0.34 9.68-0.94Q9.33-1.55 9.33-2.64L9.33-2.64L9.33-7.15L8.16-7.15L8.16-8.03L9.44-8.74L10.08-10.58L11.34-10.58L11.34-8.67L13.81-8.67L13.81-7.15L11.34-7.15L11.34-2.66Q11.34-2.05 11.66-1.75Q11.98-1.46 12.50-1.46ZM16.64-12.02L16.64-12.02Q17.10-12.02 17.43-11.78Q17.76-11.55 17.76-10.96L17.76-10.96Q17.76-10.37 17.43-10.13Q17.10-9.89 16.64-9.89L16.64-9.89Q16.18-9.89 15.85-10.13Q15.52-10.37 15.52-10.96L15.52-10.96Q15.52-11.55 15.85-11.78Q16.18-12.02 16.64-12.02ZM15.63-8.67L17.65-8.67L17.65 0L15.63 0L15.63-8.67ZM30.16-8.83L30.16-8.83Q31.63-8.83 32.38-8.08Q33.12-7.33 33.12-5.65L33.12-5.65L33.12 0L31.10 0L31.10-5.26Q31.10-7.20 29.63-7.20L29.63-7.20Q28.58-7.20 28.13-6.51Q27.68-5.82 27.68-4.51L27.68-4.51L27.68 0L25.66 0L25.66-5.26Q25.66-7.20 24.18-7.20L24.18-7.20Q23.07-7.20 22.66-6.43Q22.24-5.66 22.24-4.24L22.24-4.24L22.24 0L20.22 0L20.22-8.67L21.78-8.67L22.06-7.54L22.18-7.54Q22.56-8.21 23.26-8.52Q23.95-8.83 24.70-8.83L24.70-8.83Q25.68-8.83 26.34-8.50Q27.01-8.18 27.36-7.49L27.36-7.49L27.52-7.49Q27.92-8.19 28.64-8.51Q29.36-8.83 30.16-8.83ZM41.33-8.67L43.34-8.67L43.34 0L41.76 0L41.49-1.12L41.39-1.12Q40.96-0.45 40.23-0.14Q39.50 0.16 38.69 0.16L38.69 0.16Q37.23 0.16 36.41-0.59Q35.58-1.34 35.58-3.01L35.58-3.01L35.58-8.67L37.60-8.67L37.60-3.41Q37.60-1.47 39.20-1.47L39.20-1.47Q40.42-1.47 40.87-2.23Q41.33-2.99 41.33-4.43L41.33-4.43L41.33-8.67ZM47.94-12.16L47.94 0L45.92 0L45.92-12.16L47.94-12.16ZM56.19-8.67L58.21-8.67L58.21 0L56.62 0L56.35-1.12L56.26-1.12Q55.82-0.45 55.10-0.14Q54.37 0.16 53.55 0.16L53.55 0.16Q52.10 0.16 51.27-0.59Q50.45-1.34 50.45-3.01L50.45-3.01L50.45-8.67L52.46-8.67L52.46-3.41Q52.46-1.47 54.06-1.47L54.06-1.47Q55.28-1.47 55.74-2.23Q56.19-2.99 56.19-4.43L56.19-4.43L56.19-8.67ZM66.69-2.51L66.69-2.51Q66.69-1.20 65.75-0.52Q64.82 0.16 63.07 0.16L63.07 0.16Q62.16 0.16 61.51 0.03Q60.86-0.10 60.26-0.37L60.26-0.37L60.26-2.08Q60.90-1.78 61.67-1.57Q62.45-1.36 63.14-1.36L63.14-1.36Q63.97-1.36 64.34-1.62Q64.70-1.87 64.70-2.30L64.70-2.30Q64.70-2.56 64.56-2.76Q64.42-2.96 63.99-3.20Q63.57-3.44 62.74-3.79L62.74-3.79Q61.90-4.11 61.35-4.46Q60.80-4.80 60.52-5.26Q60.24-5.73 60.24-6.46L60.24-6.46Q60.24-7.63 61.16-8.23Q62.08-8.83 63.62-8.83L63.62-8.83Q64.42-8.83 65.13-8.67Q65.84-8.51 66.56-8.19L66.56-8.19L65.92-6.70Q65.31-6.96 64.74-7.14Q64.16-7.31 63.55-7.31L63.55-7.31Q62.22-7.31 62.22-6.56L62.22-6.56Q62.22-6.29 62.39-6.10Q62.56-5.90 62.98-5.69Q63.41-5.47 64.19-5.17L64.19-5.17Q64.96-4.86 65.52-4.54Q66.08-4.21 66.38-3.73Q66.69-3.25 66.69-2.51Z" transform="translate(0, 12.32)"/><rect x="0" y="0.16" width="67.328" height="12.32" class="clickable" style="cursor:pointer;fill:rgba(0, 0, 0, 0);fill-opacity:0;stroke-width:0px;"/></g><g id="sprotty_ArchitectureBlockImpl$work.decode3_8_tb(RTL)/ProcessBlockImpl$stimulus/GPortImpl$a" transform="translate(77.3280029296875, 11.16015625)" class="sprotty-hidden hidden" style="display:block;height:0px;width:0px;"/></g><g id="sprotty_ArchitectureBlockImpl$work.decode3_8_tb(RTL)/InstantiationBlockImpl$DUT" transform="translate(112.3280029296875, 35)" class="instantiation"><g class="sprotty-block" style="fill:rgb(245, 245, 245);stroke:rgb(48, 48, 48);stroke-dasharray:0px;"><rect x="0" y="0" rx="1" ry="1" width="142.192" height="58.32080078125"/><path d="M14.83 10.18L14.83 10.18Q14.83 13.07 13.22 14.54Q11.60 16 8.70 16L8.70 16L5.49 16L5.49 4.58L9.04 4.58Q10.80 4.58 12.10 5.22Q13.41 5.86 14.12 7.10Q14.83 8.34 14.83 10.18ZM12.69 10.24L12.69 10.24Q12.69 8.19 11.75 7.23Q10.82 6.27 9.04 6.27L9.04 6.27L7.54 6.27L7.54 14.29L8.77 14.29Q12.69 14.29 12.69 10.24ZM24.29 4.58L26.32 4.58L26.32 11.97Q26.32 13.15 25.82 14.10Q25.31 15.06 24.29 15.61Q23.26 16.16 21.70 16.16L21.70 16.16Q19.47 16.16 18.32 15Q17.17 13.84 17.17 11.94L17.17 11.94L17.17 4.58L19.22 4.58L19.22 11.73Q19.22 13.14 19.86 13.78Q20.50 14.42 21.76 14.42L21.76 14.42Q23.09 14.42 23.69 13.72Q24.29 13.02 24.29 11.71L24.29 11.71L24.29 4.58ZM33.31 6.30L33.31 16L31.26 16L31.26 6.30L27.98 6.30L27.98 4.58L36.59 4.58L36.59 6.30L33.31 6.30ZM42.02 8.38L42.02 8.38Q42.02 7.70 42.37 7.42Q42.72 7.14 43.23 7.14L43.23 7.14Q43.73 7.14 44.10 7.42Q44.46 7.70 44.46 8.38L44.46 8.38Q44.46 9.04 44.10 9.33Q43.73 9.62 43.23 9.62L43.23 9.62Q42.72 9.62 42.37 9.33Q42.02 9.04 42.02 8.38ZM42.02 14.98L42.02 14.98Q42.02 14.30 42.37 14.02Q42.72 13.74 43.23 13.74L43.23 13.74Q43.73 13.74 44.10 14.02Q44.46 14.30 44.46 14.98L44.46 14.98Q44.46 15.63 44.10 15.92Q43.73 16.21 43.23 16.21L43.23 16.21Q42.72 16.21 42.37 15.92Q42.02 15.63 42.02 14.98ZM53.79 16.16L53.79 16.16Q52.27 16.16 51.34 15.02Q50.42 13.89 50.42 11.68L50.42 11.68Q50.42 9.44 51.36 8.30Q52.30 7.17 53.84 7.17L53.84 7.17Q54.80 7.17 55.42 7.54Q56.03 7.90 56.40 8.43L56.40 8.43L56.50 8.43Q56.45 8.21 56.40 7.74Q56.35 7.28 56.35 6.88L56.35 6.88L56.35 3.84L58.37 3.84L58.37 16L56.80 16L56.43 14.86L56.35 14.86Q55.98 15.41 55.38 15.78Q54.77 16.16 53.79 16.16ZM54.40 14.53L54.40 14.53Q55.52 14.53 55.98 13.89Q56.43 13.25 56.45 11.95L56.45 11.95L56.45 11.70Q56.45 10.30 56.01 9.56Q55.57 8.82 54.37 8.82L54.37 8.82Q53.44 8.82 52.95 9.58Q52.46 10.34 52.46 11.71L52.46 11.71Q52.46 13.09 52.96 13.81Q53.46 14.53 54.40 14.53ZM64.43 7.17L64.43 7.17Q66.18 7.17 67.19 8.21Q68.21 9.25 68.21 11.10L68.21 11.10L68.21 12.13L62.48 12.13Q62.51 13.31 63.14 13.96Q63.76 14.61 64.86 14.61L64.86 14.61Q65.70 14.61 66.37 14.44Q67.04 14.27 67.74 13.95L67.74 13.95L67.74 15.57Q67.10 15.87 66.42 16.02Q65.73 16.16 64.77 16.16L64.77 16.16Q63.50 16.16 62.52 15.67Q61.54 15.18 60.98 14.19Q60.43 13.20 60.43 11.73L60.43 11.73Q60.43 9.50 61.54 8.34Q62.64 7.17 64.43 7.17ZM64.43 8.66L64.43 8.66Q63.62 8.66 63.11 9.18Q62.61 9.70 62.53 10.72L62.53 10.72L66.26 10.72Q66.24 9.82 65.80 9.24Q65.36 8.66 64.43 8.66ZM73.74 16.16L73.74 16.16Q71.87 16.16 70.80 15.09Q69.73 14.02 69.73 11.71L69.73 11.71Q69.73 10.11 70.26 9.11Q70.80 8.11 71.74 7.64Q72.69 7.17 73.90 7.17L73.90 7.17Q74.72 7.17 75.36 7.33Q76.00 7.49 76.45 7.71L76.45 7.71L75.86 9.30Q75.36 9.10 74.86 8.97Q74.37 8.83 73.90 8.83L73.90 8.83Q71.79 8.83 71.79 11.70L71.79 11.70Q71.79 13.09 72.33 13.79Q72.86 14.50 73.87 14.50L73.87 14.50Q74.59 14.50 75.15 14.32Q75.71 14.14 76.22 13.84L76.22 13.84L76.22 15.58Q75.73 15.87 75.16 16.02Q74.59 16.16 73.74 16.16ZM86 11.65L86 11.65Q86 13.81 84.88 14.98Q83.76 16.16 81.84 16.16L81.84 16.16Q80.66 16.16 79.73 15.63Q78.80 15.10 78.27 14.10Q77.74 13.09 77.74 11.65L77.74 11.65Q77.74 9.49 78.86 8.33Q79.97 7.17 81.89 7.17L81.89 7.17Q83.09 7.17 84.02 7.69Q84.94 8.21 85.47 9.21Q86 10.21 86 11.65ZM79.81 11.65L79.81 11.65Q79.81 13.02 80.30 13.78Q80.78 14.53 81.87 14.53L81.87 14.53Q82.96 14.53 83.45 13.78Q83.94 13.02 83.94 11.65L83.94 11.65Q83.94 10.27 83.45 9.54Q82.96 8.80 81.86 8.80L81.86 8.80Q80.78 8.80 80.30 9.54Q79.81 10.27 79.81 11.65ZM90.94 16.16L90.94 16.16Q89.42 16.16 88.50 15.02Q87.57 13.89 87.57 11.68L87.57 11.68Q87.57 9.44 88.51 8.30Q89.46 7.17 90.99 7.17L90.99 7.17Q91.95 7.17 92.57 7.54Q93.18 7.90 93.55 8.43L93.55 8.43L93.65 8.43Q93.60 8.21 93.55 7.74Q93.50 7.28 93.50 6.88L93.50 6.88L93.50 3.84L95.52 3.84L95.52 16L93.95 16L93.58 14.86L93.50 14.86Q93.14 15.41 92.53 15.78Q91.92 16.16 90.94 16.16ZM91.55 14.53L91.55 14.53Q92.67 14.53 93.13 13.89Q93.58 13.25 93.60 11.95L93.60 11.95L93.60 11.70Q93.60 10.30 93.16 9.56Q92.72 8.82 91.52 8.82L91.52 8.82Q90.59 8.82 90.10 9.58Q89.62 10.34 89.62 11.71L89.62 11.71Q89.62 13.09 90.11 13.81Q90.61 14.53 91.55 14.53ZM101.58 7.17L101.58 7.17Q103.33 7.17 104.34 8.21Q105.36 9.25 105.36 11.10L105.36 11.10L105.36 12.13L99.63 12.13Q99.66 13.31 100.29 13.96Q100.91 14.61 102.02 14.61L102.02 14.61Q102.85 14.61 103.52 14.44Q104.19 14.27 104.90 13.95L104.90 13.95L104.90 15.57Q104.26 15.87 103.57 16.02Q102.88 16.16 101.92 16.16L101.92 16.16Q100.66 16.16 99.67 15.67Q98.69 15.18 98.14 14.19Q97.58 13.20 97.58 11.73L97.58 11.73Q97.58 9.50 98.69 8.34Q99.79 7.17 101.58 7.17ZM101.58 8.66L101.58 8.66Q100.77 8.66 100.26 9.18Q99.76 9.70 99.68 10.72L99.68 10.72L103.41 10.72Q103.39 9.82 102.95 9.24Q102.51 8.66 101.58 8.66ZM111.94 7.17L111.94 7.17Q112.14 7.17 112.39 7.18Q112.64 7.20 112.82 7.25L112.82 7.25L112.64 9.12Q112.48 9.09 112.26 9.06Q112.03 9.04 111.86 9.04L111.86 9.04Q111.22 9.04 110.66 9.30Q110.10 9.57 109.75 10.12Q109.41 10.67 109.41 11.50L109.41 11.50L109.41 16L107.39 16L107.39 7.33L108.94 7.33L109.23 8.83L109.33 8.83Q109.71 8.14 110.38 7.66Q111.06 7.17 111.94 7.17ZM121.18 7.18L121.18 7.18Q121.18 8.35 120.50 9.05Q119.82 9.74 118.75 9.98L118.75 9.98L118.75 10.03Q120.13 10.21 120.83 10.89Q121.54 11.57 121.54 12.70L121.54 12.70Q121.54 13.70 121.06 14.48Q120.58 15.26 119.58 15.71Q118.58 16.16 117.01 16.16L117.01 16.16Q116.08 16.16 115.28 16.01Q114.48 15.86 113.78 15.54L113.78 15.54L113.78 13.76Q114.50 14.13 115.31 14.32Q116.13 14.51 116.85 14.51L116.85 14.51Q118.24 14.51 118.82 14.01Q119.39 13.50 119.39 12.61L119.39 12.61Q119.39 11.76 118.72 11.34Q118.05 10.93 116.48 10.93L116.48 10.93L115.52 10.93L115.52 9.31L116.50 9.31Q118.02 9.31 118.59 8.82Q119.17 8.34 119.17 7.54L119.17 7.54Q119.17 6.85 118.72 6.46Q118.27 6.08 117.38 6.08L117.38 6.08Q116.51 6.08 115.89 6.36Q115.26 6.64 114.77 6.96L114.77 6.96L113.81 5.57Q114.45 5.09 115.35 4.75Q116.26 4.42 117.47 4.42L117.47 4.42Q119.25 4.42 120.22 5.16Q121.18 5.90 121.18 7.18ZM129.07 17.44L129.07 18.50L122.24 18.50L122.24 17.44L129.07 17.44ZM133.62 4.43L133.62 4.43Q134.61 4.43 135.42 4.74Q136.22 5.04 136.70 5.65Q137.17 6.26 137.17 7.17L137.17 7.17Q137.17 8.21 136.56 8.86Q135.95 9.52 135.07 9.97L135.07 9.97Q135.73 10.29 136.29 10.71Q136.85 11.14 137.19 11.70Q137.54 12.27 137.54 13.04L137.54 13.04Q137.54 14 137.04 14.70Q136.54 15.39 135.67 15.78Q134.80 16.16 133.63 16.16L133.63 16.16Q131.73 16.16 130.70 15.34Q129.68 14.53 129.68 13.10L129.68 13.10Q129.68 12.32 129.99 11.74Q130.30 11.15 130.82 10.74Q131.33 10.32 131.94 10.03L131.94 10.03Q131.15 9.55 130.60 8.87Q130.05 8.19 130.05 7.15L130.05 7.15Q130.05 6.26 130.54 5.65Q131.02 5.04 131.83 4.74Q132.64 4.43 133.62 4.43ZM133.60 5.95L133.60 5.95Q132.90 5.95 132.44 6.30Q131.98 6.66 131.98 7.30L131.98 7.30Q131.98 8 132.47 8.41Q132.96 8.82 133.63 9.14L133.63 9.14Q134.29 8.85 134.76 8.43Q135.23 8.02 135.23 7.30L135.23 7.30Q135.23 6.66 134.78 6.30Q134.32 5.95 133.60 5.95ZM131.60 13.01L131.60 13.01Q131.60 13.71 132.10 14.17Q132.59 14.62 133.60 14.62L133.60 14.62Q134.59 14.62 135.10 14.18Q135.62 13.73 135.62 13.01L135.62 13.01Q135.62 12.29 135.03 11.82Q134.45 11.34 133.68 10.98L133.68 10.98L133.46 10.86Q132.59 11.25 132.10 11.76Q131.60 12.27 131.60 13.01Z" class="sprotty-block-name" style="fill:rgb(48, 48, 48);stroke:rgba(0, 0, 0, 0);"/><line x1="0" y1="20" x2="142.192" y2="20"/></g><g id="sprotty_ArchitectureBlockImpl$work.decode3_8_tb(RTL)/InstantiationBlockImpl$DUT/BPortImpl$a" transform="translate(0, 39.160400390625)" class="triangle"><path d="M 0,0 L 5,2.5 L 0,5 Z" transform="translate(-1.67, -2.5)" class="sprotty-port" style="fill:rgb(48, 48, 48);stroke:rgb(48, 48, 48);"/><g class="port sprotty-label" id="sprotty_ArchitectureBlockImpl$work.decode3_8_tb(RTL)/InstantiationBlockImpl$DUT/BPortImpl$a/label" transform="translate(3, -5.6907501220703125) translate(0, -0.13300000131130219)" style="cursor:default;fill:rgb(48, 48, 48);font-family:Arial, Helvetica, sans-serif;text-anchor:middle;"><path d="M2.86 0.13L2.86 0.13Q1.89 0.13 1.25-0.38Q0.61-0.89 0.61-1.98L0.61-1.98Q0.61-3.05 1.45-3.62Q2.29-4.20 4.03-4.26L4.03-4.26L5.24-4.30L5.24-4.72Q5.24-5.61 4.85-5.96Q4.47-6.30 3.76-6.30L3.76-6.30Q3.21-6.30 2.70-6.14Q2.19-5.97 1.76-5.76L1.76-5.76L1.40-6.64Q1.86-6.89 2.50-7.07Q3.14-7.25 3.83-7.25L3.83-7.25Q5.13-7.25 5.76-6.68Q6.38-6.10 6.38-4.85L6.38-4.85L6.38 0L5.53 0L5.31-1.01L5.25-1.01Q4.79-0.43 4.28-0.15Q3.76 0.13 2.86 0.13ZM3.13-0.81L3.13-0.81Q4.03-0.81 4.63-1.31Q5.23-1.81 5.23-2.85L5.23-2.85L5.23-3.48L4.18-3.44Q2.85-3.39 2.33-3.02Q1.82-2.65 1.82-1.97L1.82-1.97Q1.82-1.37 2.19-1.09Q2.55-0.81 3.13-0.81Z" transform="translate(4, 9.3815)"/><rect x="0" y="0.133" width="15.461300000000001" height="11.3815" class="clickable" style="cursor:pointer;fill:rgba(0, 0, 0, 0);fill-opacity:0;stroke-width:0px;"/></g></g><g id="sprotty_ArchitectureBlockImpl$work.decode3_8_tb(RTL)/InstantiationBlockImpl$DUT/BPortImpl$y" transform="translate(142.19140625, 39.160400390625)" class="triangle"><path d="M 0,0 L 5,2.5 L 0,5 Z" transform="translate(-1.67, -2.5)" class="sprotty-port" style="fill:rgb(48, 48, 48);stroke:rgb(48, 48, 48);"/><g class="port sprotty-label" id="sprotty_ArchitectureBlockImpl$work.decode3_8_tb(RTL)/InstantiationBlockImpl$DUT/BPortImpl$y/label" transform="translate(-17.782999992370605, -7.160400390625) translate(0, -3.191999912261963)" style="cursor:default;fill:rgb(48, 48, 48);font-family:Arial, Helvetica, sans-serif;text-anchor:middle;"><path d="M1.12 3.19L1.12 3.19Q0.80 3.19 0.56 3.16Q0.32 3.13 0.15 3.09L0.15 3.09L0.15 2.15Q0.29 2.18 0.50 2.21Q0.70 2.23 0.93 2.23L0.93 2.23Q1.54 2.23 1.92 1.89Q2.29 1.54 2.51 0.97L2.51 0.97L2.89 0.03L0.01-7.13L1.26-7.13L2.81-3.07Q3.01-2.54 3.17-2.05Q3.33-1.57 3.40-1.13L3.40-1.13L3.46-1.13Q3.54-1.46 3.70-2.00Q3.87-2.54 4.07-3.09L4.07-3.09L5.52-7.13L6.78-7.13L3.71 0.98Q3.34 2.00 2.75 2.59Q2.15 3.19 1.12 3.19Z" transform="translate(4, 12.320800000000002)"/><rect x="0" y="3.192" width="14.783000000000001" height="14.320800000000002" class="clickable" style="cursor:pointer;fill:rgba(0, 0, 0, 0);fill-opacity:0;stroke-width:0px;"/></g></g></g></g></g></svg>