<svg xmlns="http://www.w3.org/2000/svg" id="sprotty_decoder3_8" class="sprotty-graph sprotty-block-diagram blockdiagram" style="font-family:&quot;Helvetica Neue&quot;, Helvetica, Arial, sans-serif;line-height:18px;perspective-origin:0px 0px;transform-origin:0px 0px;z-index:0;" version="1.1" viewBox="9.5 12 201.38859375 77.32080078125"><g transform="scale(1) translate(0,0)"><g id="sprotty_ArchitectureBlockImpl$work.decoder3_8(synth)" transform="translate(12, 12)" class="architecture"><g class="sprotty-block" style="fill:rgb(245, 245, 245);stroke:rgb(48, 48, 48);stroke-dasharray:0px;"><rect x="0" y="0" rx="1" ry="1" width="194.56" height="77.32080078125"/><path d="M14.64 16L12.40 16L11.44 12.27Q11.36 11.97 11.25 11.51Q11.14 11.06 11.02 10.56Q10.90 10.06 10.80 9.65Q10.70 9.23 10.66 9.01L10.66 9.01L10.59 9.01Q10.54 9.23 10.45 9.65Q10.35 10.06 10.24 10.57Q10.13 11.07 10.01 11.53Q9.89 11.98 9.81 12.29L9.81 12.29L8.80 16L6.59 16L4.16 7.31L6.19 7.31L7.26 11.46Q7.38 11.89 7.48 12.41Q7.58 12.93 7.66 13.42Q7.73 13.90 7.78 14.21L7.78 14.21L7.84 14.21Q7.87 13.92 7.96 13.42Q8.05 12.93 8.14 12.46Q8.24 11.98 8.30 11.74L8.30 11.74L9.55 7.31L11.76 7.31L12.96 11.74Q13.02 12.03 13.13 12.50Q13.23 12.96 13.31 13.43Q13.39 13.90 13.41 14.19L13.41 14.19L13.47 14.19Q13.50 13.94 13.58 13.46Q13.66 12.98 13.78 12.43Q13.89 11.89 14.02 11.46L14.02 11.46L15.10 7.31L17.10 7.31L14.64 16ZM26.32 11.65L26.32 11.65Q26.32 13.81 25.20 14.98Q24.08 16.16 22.16 16.16L22.16 16.16Q20.98 16.16 20.05 15.63Q19.12 15.10 18.59 14.10Q18.06 13.09 18.06 11.65L18.06 11.65Q18.06 9.49 19.18 8.33Q20.29 7.17 22.21 7.17L22.21 7.17Q23.41 7.17 24.34 7.69Q25.26 8.21 25.79 9.21Q26.32 10.21 26.32 11.65ZM20.13 11.65L20.13 11.65Q20.13 13.02 20.62 13.78Q21.10 14.53 22.19 14.53L22.19 14.53Q23.28 14.53 23.77 13.78Q24.26 13.02 24.26 11.65L24.26 11.65Q24.26 10.27 23.77 9.54Q23.28 8.80 22.18 8.80L22.18 8.80Q21.10 8.80 20.62 9.54Q20.13 10.27 20.13 11.65ZM32.94 7.17L32.94 7.17Q33.15 7.17 33.40 7.18Q33.65 7.20 33.82 7.25L33.82 7.25L33.65 9.12Q33.49 9.09 33.26 9.06Q33.04 9.04 32.86 9.04L32.86 9.04Q32.22 9.04 31.66 9.30Q31.10 9.57 30.76 10.12Q30.42 10.67 30.42 11.50L30.42 11.50L30.42 16L28.40 16L28.40 7.33L29.95 7.33L30.24 8.83L30.34 8.83Q30.72 8.14 31.39 7.66Q32.06 7.17 32.94 7.17ZM35.42 3.84L37.42 3.84L37.42 9.62Q37.42 10.03 37.39 10.50Q37.36 10.96 37.33 11.38L37.33 11.38L37.38 11.38Q37.57 11.09 37.86 10.72Q38.14 10.35 38.40 10.06L38.40 10.06L40.96 7.33L43.25 7.33L39.78 11.07L43.47 16L41.12 16L38.43 12.29L37.42 13.12L37.42 16L35.42 16L35.42 3.84ZM44.54 14.98L44.54 14.98Q44.54 14.30 44.90 14.02Q45.25 13.74 45.76 13.74L45.76 13.74Q46.26 13.74 46.62 14.02Q46.99 14.30 46.99 14.98L46.99 14.98Q46.99 15.63 46.62 15.92Q46.26 16.21 45.76 16.21L45.76 16.21Q45.25 16.21 44.90 15.92Q44.54 15.63 44.54 14.98ZM52.16 16.16L52.16 16.16Q50.64 16.16 49.71 15.02Q48.78 13.89 48.78 11.68L48.78 11.68Q48.78 9.44 49.73 8.30Q50.67 7.17 52.21 7.17L52.21 7.17Q53.17 7.17 53.78 7.54Q54.40 7.90 54.77 8.43L54.77 8.43L54.86 8.43Q54.82 8.21 54.77 7.74Q54.72 7.28 54.72 6.88L54.72 6.88L54.72 3.84L56.74 3.84L56.74 16L55.17 16L54.80 14.86L54.72 14.86Q54.35 15.41 53.74 15.78Q53.14 16.16 52.16 16.16ZM52.77 14.53L52.77 14.53Q53.89 14.53 54.34 13.89Q54.80 13.25 54.82 11.95L54.82 11.95L54.82 11.70Q54.82 10.30 54.38 9.56Q53.94 8.82 52.74 8.82L52.74 8.82Q51.81 8.82 51.32 9.58Q50.83 10.34 50.83 11.71L50.83 11.71Q50.83 13.09 51.33 13.81Q51.82 14.53 52.77 14.53ZM62.80 7.17L62.80 7.17Q64.54 7.17 65.56 8.21Q66.58 9.25 66.58 11.10L66.58 11.10L66.58 12.13L60.85 12.13Q60.88 13.31 61.50 13.96Q62.13 14.61 63.23 14.61L63.23 14.61Q64.06 14.61 64.74 14.44Q65.41 14.27 66.11 13.95L66.11 13.95L66.11 15.57Q65.47 15.87 64.78 16.02Q64.10 16.16 63.14 16.16L63.14 16.16Q61.87 16.16 60.89 15.67Q59.90 15.18 59.35 14.19Q58.80 13.20 58.80 11.73L58.80 11.73Q58.80 9.50 59.90 8.34Q61.01 7.17 62.80 7.17ZM62.80 8.66L62.80 8.66Q61.98 8.66 61.48 9.18Q60.98 9.70 60.90 10.72L60.90 10.72L64.62 10.72Q64.61 9.82 64.17 9.24Q63.73 8.66 62.80 8.66ZM72.11 16.16L72.11 16.16Q70.24 16.16 69.17 15.09Q68.10 14.02 68.10 11.71L68.10 11.71Q68.10 10.11 68.63 9.11Q69.17 8.11 70.11 7.64Q71.06 7.17 72.27 7.17L72.27 7.17Q73.09 7.17 73.73 7.33Q74.37 7.49 74.82 7.71L74.82 7.71L74.22 9.30Q73.73 9.10 73.23 8.97Q72.74 8.83 72.27 8.83L72.27 8.83Q70.16 8.83 70.16 11.70L70.16 11.70Q70.16 13.09 70.70 13.79Q71.23 14.50 72.24 14.50L72.24 14.50Q72.96 14.50 73.52 14.32Q74.08 14.14 74.59 13.84L74.59 13.84L74.59 15.58Q74.10 15.87 73.53 16.02Q72.96 16.16 72.11 16.16ZM84.37 11.65L84.37 11.65Q84.37 13.81 83.25 14.98Q82.13 16.16 80.21 16.16L80.21 16.16Q79.02 16.16 78.10 15.63Q77.17 15.10 76.64 14.10Q76.11 13.09 76.11 11.65L76.11 11.65Q76.11 9.49 77.22 8.33Q78.34 7.17 80.26 7.17L80.26 7.17Q81.46 7.17 82.38 7.69Q83.31 8.21 83.84 9.21Q84.37 10.21 84.37 11.65ZM78.18 11.65L78.18 11.65Q78.18 13.02 78.66 13.78Q79.15 14.53 80.24 14.53L80.24 14.53Q81.33 14.53 81.82 13.78Q82.30 13.02 82.30 11.65L82.30 11.65Q82.30 10.27 81.82 9.54Q81.33 8.80 80.22 8.80L80.22 8.80Q79.15 8.80 78.66 9.54Q78.18 10.27 78.18 11.65ZM89.31 16.16L89.31 16.16Q87.79 16.16 86.86 15.02Q85.94 13.89 85.94 11.68L85.94 11.68Q85.94 9.44 86.88 8.30Q87.82 7.17 89.36 7.17L89.36 7.17Q90.32 7.17 90.94 7.54Q91.55 7.90 91.92 8.43L91.92 8.43L92.02 8.43Q91.97 8.21 91.92 7.74Q91.87 7.28 91.87 6.88L91.87 6.88L91.87 3.84L93.89 3.84L93.89 16L92.32 16L91.95 14.86L91.87 14.86Q91.50 15.41 90.90 15.78Q90.29 16.16 89.31 16.16ZM89.92 14.53L89.92 14.53Q91.04 14.53 91.50 13.89Q91.95 13.25 91.97 11.95L91.97 11.95L91.97 11.70Q91.97 10.30 91.53 9.56Q91.09 8.82 89.89 8.82L89.89 8.82Q88.96 8.82 88.47 9.58Q87.98 10.34 87.98 11.71L87.98 11.71Q87.98 13.09 88.48 13.81Q88.98 14.53 89.92 14.53ZM99.95 7.17L99.95 7.17Q101.70 7.17 102.71 8.21Q103.73 9.25 103.73 11.10L103.73 11.10L103.73 12.13L98 12.13Q98.03 13.31 98.66 13.96Q99.28 14.61 100.38 14.61L100.38 14.61Q101.22 14.61 101.89 14.44Q102.56 14.27 103.26 13.95L103.26 13.95L103.26 15.57Q102.62 15.87 101.94 16.02Q101.25 16.16 100.29 16.16L100.29 16.16Q99.02 16.16 98.04 15.67Q97.06 15.18 96.50 14.19Q95.95 13.20 95.95 11.73L95.95 11.73Q95.95 9.50 97.06 8.34Q98.16 7.17 99.95 7.17ZM99.95 8.66L99.95 8.66Q99.14 8.66 98.63 9.18Q98.13 9.70 98.05 10.72L98.05 10.72L101.78 10.72Q101.76 9.82 101.32 9.24Q100.88 8.66 99.95 8.66ZM110.30 7.17L110.30 7.17Q110.51 7.17 110.76 7.18Q111.01 7.20 111.18 7.25L111.18 7.25L111.01 9.12Q110.85 9.09 110.62 9.06Q110.40 9.04 110.22 9.04L110.22 9.04Q109.58 9.04 109.02 9.30Q108.46 9.57 108.12 10.12Q107.78 10.67 107.78 11.50L107.78 11.50L107.78 16L105.76 16L105.76 7.33L107.31 7.33L107.60 8.83L107.70 8.83Q108.08 8.14 108.75 7.66Q109.42 7.17 110.30 7.17ZM119.55 7.18L119.55 7.18Q119.55 8.35 118.87 9.05Q118.19 9.74 117.12 9.98L117.12 9.98L117.12 10.03Q118.50 10.21 119.20 10.89Q119.90 11.57 119.90 12.70L119.90 12.70Q119.90 13.70 119.42 14.48Q118.94 15.26 117.94 15.71Q116.94 16.16 115.38 16.16L115.38 16.16Q114.45 16.16 113.65 16.01Q112.85 15.86 112.14 15.54L112.14 15.54L112.14 13.76Q112.86 14.13 113.68 14.32Q114.50 14.51 115.22 14.51L115.22 14.51Q116.61 14.51 117.18 14.01Q117.76 13.50 117.76 12.61L117.76 12.61Q117.76 11.76 117.09 11.34Q116.42 10.93 114.85 10.93L114.85 10.93L113.89 10.93L113.89 9.31L114.86 9.31Q116.38 9.31 116.96 8.82Q117.54 8.34 117.54 7.54L117.54 7.54Q117.54 6.85 117.09 6.46Q116.64 6.08 115.74 6.08L115.74 6.08Q114.88 6.08 114.26 6.36Q113.63 6.64 113.14 6.96L113.14 6.96L112.18 5.57Q112.82 5.09 113.72 4.75Q114.62 4.42 115.84 4.42L115.84 4.42Q117.62 4.42 118.58 5.16Q119.55 5.90 119.55 7.18ZM127.44 17.44L127.44 18.50L120.61 18.50L120.61 17.44L127.44 17.44ZM131.98 4.43L131.98 4.43Q132.98 4.43 133.78 4.74Q134.59 5.04 135.06 5.65Q135.54 6.26 135.54 7.17L135.54 7.17Q135.54 8.21 134.93 8.86Q134.32 9.52 133.44 9.97L133.44 9.97Q134.10 10.29 134.66 10.71Q135.22 11.14 135.56 11.70Q135.90 12.27 135.90 13.04L135.90 13.04Q135.90 14 135.41 14.70Q134.91 15.39 134.04 15.78Q133.17 16.16 132 16.16L132 16.16Q130.10 16.16 129.07 15.34Q128.05 14.53 128.05 13.10L128.05 13.10Q128.05 12.32 128.36 11.74Q128.67 11.15 129.18 10.74Q129.70 10.32 130.30 10.03L130.30 10.03Q129.52 9.55 128.97 8.87Q128.42 8.19 128.42 7.15L128.42 7.15Q128.42 6.26 128.90 5.65Q129.39 5.04 130.20 4.74Q131.01 4.43 131.98 4.43ZM131.97 5.95L131.97 5.95Q131.26 5.95 130.81 6.30Q130.35 6.66 130.35 7.30L130.35 7.30Q130.35 8 130.84 8.41Q131.33 8.82 132 9.14L132 9.14Q132.66 8.85 133.13 8.43Q133.60 8.02 133.60 7.30L133.60 7.30Q133.60 6.66 133.14 6.30Q132.69 5.95 131.97 5.95ZM129.97 13.01L129.97 13.01Q129.97 13.71 130.46 14.17Q130.96 14.62 131.97 14.62L131.97 14.62Q132.96 14.62 133.47 14.18Q133.98 13.73 133.98 13.01L133.98 13.01Q133.98 12.29 133.40 11.82Q132.82 11.34 132.05 10.98L132.05 10.98L131.82 10.86Q130.96 11.25 130.46 11.76Q129.97 12.27 129.97 13.01ZM137.20 11.62L137.20 11.62Q137.20 9.66 137.77 7.85Q138.34 6.03 139.55 4.58L139.55 4.58L141.26 4.58Q140.16 6.08 139.60 7.89Q139.04 9.70 139.04 11.60L139.04 11.60Q139.04 13.46 139.60 15.25Q140.16 17.04 141.25 18.53L141.25 18.53L139.55 18.53Q138.34 17.12 137.77 15.34Q137.20 13.55 137.20 11.62ZM148.94 13.49L148.94 13.49Q148.94 14.80 148.01 15.48Q147.07 16.16 145.33 16.16L145.33 16.16Q144.42 16.16 143.77 16.03Q143.12 15.90 142.51 15.63L142.51 15.63L142.51 13.92Q143.15 14.22 143.93 14.43Q144.70 14.64 145.39 14.64L145.39 14.64Q146.22 14.64 146.59 14.38Q146.96 14.13 146.96 13.70L146.96 13.70Q146.96 13.44 146.82 13.24Q146.67 13.04 146.25 12.80Q145.82 12.56 144.99 12.21L144.99 12.21Q144.16 11.89 143.61 11.54Q143.06 11.20 142.78 10.74Q142.50 10.27 142.50 9.54L142.50 9.54Q142.50 8.37 143.42 7.77Q144.34 7.17 145.87 7.17L145.87 7.17Q146.67 7.17 147.38 7.33Q148.10 7.49 148.82 7.81L148.82 7.81L148.18 9.30Q147.57 9.04 146.99 8.86Q146.42 8.69 145.81 8.69L145.81 8.69Q144.48 8.69 144.48 9.44L144.48 9.44Q144.48 9.71 144.65 9.90Q144.82 10.10 145.24 10.31Q145.66 10.53 146.45 10.83L146.45 10.83Q147.22 11.14 147.78 11.46Q148.34 11.79 148.64 12.27Q148.94 12.75 148.94 13.49ZM153.06 15.97L149.58 7.33L151.78 7.33L153.50 12.22Q153.68 12.69 153.79 13.14Q153.90 13.58 153.95 14.05L153.95 14.05L154.02 14.05Q154.08 13.65 154.21 13.17Q154.34 12.69 154.50 12.22L154.50 12.22L156.16 7.33L158.34 7.33L154.64 17.15Q154.14 18.45 153.29 19.14Q152.43 19.84 151.18 19.84L151.18 19.84Q150.78 19.84 150.50 19.80Q150.21 19.76 149.98 19.71L149.98 19.71L149.98 18.11Q150.16 18.14 150.41 18.18Q150.66 18.21 150.93 18.21L150.93 18.21Q151.68 18.21 152.12 17.77Q152.56 17.33 152.80 16.67L152.80 16.67L153.06 15.97ZM164.27 7.17L164.27 7.17Q165.73 7.17 166.55 7.92Q167.38 8.67 167.38 10.35L167.38 10.35L167.38 16L165.36 16L165.36 10.75Q165.36 8.80 163.76 8.80L163.76 8.80Q162.54 8.80 162.10 9.57Q161.65 10.34 161.65 11.76L161.65 11.76L161.65 16L159.63 16L159.63 7.33L161.18 7.33L161.47 8.46L161.58 8.46Q162 7.79 162.73 7.48Q163.46 7.17 164.27 7.17ZM173.26 14.54L173.26 14.54Q173.63 14.54 173.99 14.47Q174.35 14.40 174.66 14.30L174.66 14.30L174.66 15.81Q174.34 15.95 173.82 16.06Q173.31 16.16 172.75 16.16L172.75 16.16Q172.02 16.16 171.41 15.91Q170.80 15.66 170.45 15.06Q170.10 14.45 170.10 13.36L170.10 13.36L170.10 8.85L168.93 8.85L168.93 7.97L170.21 7.26L170.85 5.42L172.11 5.42L172.11 7.33L174.58 7.33L174.58 8.85L172.11 8.85L172.11 13.34Q172.11 13.95 172.43 14.25Q172.75 14.54 173.26 14.54ZM176.40 3.84L178.42 3.84L178.42 6.74Q178.42 7.25 178.38 7.74Q178.34 8.22 178.30 8.46L178.30 8.46L178.43 8.46Q178.85 7.81 179.52 7.49Q180.19 7.17 181.01 7.17L181.01 7.17Q182.48 7.17 183.31 7.92Q184.14 8.67 184.14 10.35L184.14 10.35L184.14 16L182.13 16L182.13 10.75Q182.13 8.80 180.53 8.80L180.53 8.80Q179.31 8.80 178.86 9.57Q178.42 10.34 178.42 11.76L178.42 11.76L178.42 16L176.40 16L176.40 3.84ZM189.92 11.62L189.92 11.62Q189.92 13.55 189.35 15.34Q188.78 17.12 187.57 18.53L187.57 18.53L185.87 18.53Q186.96 17.04 187.53 15.25Q188.10 13.46 188.10 11.60L188.10 11.60Q188.10 9.70 187.53 7.89Q186.96 6.08 185.86 4.58L185.86 4.58L187.57 4.58Q188.78 6.03 189.35 7.85Q189.92 9.66 189.92 11.62Z" class="sprotty-block-name" style="fill:rgb(48, 48, 48);stroke:rgba(0, 0, 0, 0);"/><line x1="0" y1="20" x2="194.56" y2="20"/></g><g id="sprotty_ArchitectureBlockImpl$work.decoder3_8(synth)/GPortImpl$a_to_ArchitectureBlockImpl$work.decoder3_8(synth)/ProcessBlockImpl$null2/GPortImpl$a" class="sprotty-edge thick edge" style="fill:none;stroke:rgb(112, 112, 112);stroke-linejoin:round;stroke-width:3px;"><path d="M 0 45 L 33.461299896240234 45 "/></g><g id="sprotty_ArchitectureBlockImpl$work.decoder3_8(synth)/ProcessBlockImpl$null2/GPortImpl$y_to_ArchitectureBlockImpl$work.decoder3_8(synth)/GPortImpl$y" class="sprotty-edge thick edge" style="fill:none;stroke:rgb(112, 112, 112);stroke-linejoin:round;stroke-width:3px;"><path d="M 48.461299896240234 45 L 194.55859375 45 "/></g><g id="sprotty_ArchitectureBlockImpl$work.decoder3_8(synth)/GPortImpl$a" transform="translate(0, 45)" class="triangle"><path d="M 0,0 L 5,2.5 L 0,5 Z" transform="translate(-1.67, -2.5)" class="sprotty-port" style="fill:rgb(48, 48, 48);stroke:rgb(48, 48, 48);"/><g class="port sprotty-label" id="sprotty_ArchitectureBlockImpl$work.decoder3_8(synth)/GPortImpl$a/label" transform="translate(3, 3) translate(0, -0.13300000131130219)" style="cursor:default;fill:rgb(48, 48, 48);font-family:Arial, Helvetica, sans-serif;text-anchor:middle;"><path d="M2.86 0.13L2.86 0.13Q1.89 0.13 1.25-0.38Q0.61-0.89 0.61-1.98L0.61-1.98Q0.61-3.05 1.45-3.62Q2.29-4.20 4.03-4.26L4.03-4.26L5.24-4.30L5.24-4.72Q5.24-5.61 4.85-5.96Q4.47-6.30 3.76-6.30L3.76-6.30Q3.21-6.30 2.70-6.14Q2.19-5.97 1.76-5.76L1.76-5.76L1.40-6.64Q1.86-6.89 2.50-7.07Q3.14-7.25 3.83-7.25L3.83-7.25Q5.13-7.25 5.76-6.68Q6.38-6.10 6.38-4.85L6.38-4.85L6.38 0L5.53 0L5.31-1.01L5.25-1.01Q4.79-0.43 4.28-0.15Q3.76 0.13 2.86 0.13ZM3.13-0.81L3.13-0.81Q4.03-0.81 4.63-1.31Q5.23-1.81 5.23-2.85L5.23-2.85L5.23-3.48L4.18-3.44Q2.85-3.39 2.33-3.02Q1.82-2.65 1.82-1.97L1.82-1.97Q1.82-1.37 2.19-1.09Q2.55-0.81 3.13-0.81Z" transform="translate(4, 9.3815)"/><rect x="0" y="0.133" width="15.461300000000001" height="11.3815" class="clickable" style="cursor:pointer;fill:rgba(0, 0, 0, 0);fill-opacity:0;stroke-width:0px;"/></g></g><g id="sprotty_ArchitectureBlockImpl$work.decoder3_8(synth)/GPortImpl$y" transform="translate(194.55859375, 45)" class="triangle"><path d="M 0,0 L 5,2.5 L 0,5 Z" transform="translate(-1.67, -2.5)" class="sprotty-port" style="fill:rgb(48, 48, 48);stroke:rgb(48, 48, 48);"/><g class="port sprotty-label" id="sprotty_ArchitectureBlockImpl$work.decoder3_8(synth)/GPortImpl$y/label" transform="translate(-17.782999992370605, 3) translate(0, -3.191999912261963)" style="cursor:default;fill:rgb(48, 48, 48);font-family:Arial, Helvetica, sans-serif;text-anchor:middle;"><path d="M1.12 3.19L1.12 3.19Q0.80 3.19 0.56 3.16Q0.32 3.13 0.15 3.09L0.15 3.09L0.15 2.15Q0.29 2.18 0.50 2.21Q0.70 2.23 0.93 2.23L0.93 2.23Q1.54 2.23 1.92 1.89Q2.29 1.54 2.51 0.97L2.51 0.97L2.89 0.03L0.01-7.13L1.26-7.13L2.81-3.07Q3.01-2.54 3.17-2.05Q3.33-1.57 3.40-1.13L3.40-1.13L3.46-1.13Q3.54-1.46 3.70-2.00Q3.87-2.54 4.07-3.09L4.07-3.09L5.52-7.13L6.78-7.13L3.71 0.98Q3.34 2.00 2.75 2.59Q2.15 3.19 1.12 3.19Z" transform="translate(4, 12.320800000000002)"/><rect x="0" y="3.192" width="14.783000000000001" height="14.320800000000002" class="clickable" style="cursor:pointer;fill:rgba(0, 0, 0, 0);fill-opacity:0;stroke-width:0px;"/></g></g><g id="sprotty_ArchitectureBlockImpl$work.decoder3_8(synth)/ProcessBlockImpl$null2" transform="translate(33.461299896240234, 35)" class="statement"><rect x="0" y="0" rx="10" ry="5" width="15" height="20" class="sprotty-node" style="fill:rgb(245, 245, 245);stroke:rgb(112, 112, 112);"/><g id="sprotty_ArchitectureBlockImpl$work.decoder3_8(synth)/ProcessBlockImpl$null2/GPortImpl$a" transform="translate(0, 10)" class="sprotty-hidden hidden" style="display:block;height:0px;width:0px;"/><g id="sprotty_ArchitectureBlockImpl$work.decoder3_8(synth)/ProcessBlockImpl$null2/GPortImpl$y" transform="translate(15, 10)" class="sprotty-hidden hidden" style="display:block;height:0px;width:0px;"/></g></g></g></svg>