<svg xmlns="http://www.w3.org/2000/svg" id="sprotty_mux4_tb" class="sprotty-graph sprotty-block-diagram blockdiagram" style="font-family:&quot;Helvetica Neue&quot;, Helvetica, Arial, sans-serif;line-height:18px;perspective-origin:0px 0px;transform-origin:0px 0px;z-index:0;" version="1.1" viewBox="9.5 12 261.1189404296875 202.35880088806152"><g transform="scale(1) translate(0,0)"><g id="sprotty_ArchitectureBlockImpl$work.mux4_tb(RTL)" transform="translate(12, 12)" class="architecture"><g class="sprotty-block" style="fill:rgb(245, 245, 245);stroke:rgb(48, 48, 48);stroke-dasharray:0px;"><rect x="0" y="0" rx="1" ry="1" width="254.2889404296875" height="202.35880088806152"/><path d="M62.93 16L60.69 16L59.73 12.27Q59.65 11.97 59.54 11.51Q59.42 11.06 59.30 10.56Q59.18 10.06 59.09 9.65Q58.99 9.23 58.94 9.01L58.94 9.01L58.88 9.01Q58.83 9.23 58.74 9.65Q58.64 10.06 58.53 10.57Q58.42 11.07 58.30 11.53Q58.18 11.98 58.10 12.29L58.10 12.29L57.09 16L54.88 16L52.45 7.31L54.48 7.31L55.55 11.46Q55.66 11.89 55.77 12.41Q55.87 12.93 55.94 13.42Q56.02 13.90 56.06 14.21L56.06 14.21L56.13 14.21Q56.16 13.92 56.25 13.42Q56.34 12.93 56.43 12.46Q56.53 11.98 56.59 11.74L56.59 11.74L57.84 7.31L60.05 7.31L61.25 11.74Q61.31 12.03 61.42 12.50Q61.52 12.96 61.60 13.43Q61.68 13.90 61.70 14.19L61.70 14.19L61.76 14.19Q61.79 13.94 61.87 13.46Q61.95 12.98 62.06 12.43Q62.18 11.89 62.30 11.46L62.30 11.46L63.39 7.31L65.39 7.31L62.93 16ZM74.61 11.65L74.61 11.65Q74.61 13.81 73.49 14.98Q72.37 16.16 70.45 16.16L70.45 16.16Q69.26 16.16 68.34 15.63Q67.41 15.10 66.88 14.10Q66.35 13.09 66.35 11.65L66.35 11.65Q66.35 9.49 67.46 8.33Q68.58 7.17 70.50 7.17L70.50 7.17Q71.70 7.17 72.62 7.69Q73.55 8.21 74.08 9.21Q74.61 10.21 74.61 11.65ZM68.42 11.65L68.42 11.65Q68.42 13.02 68.90 13.78Q69.39 14.53 70.48 14.53L70.48 14.53Q71.57 14.53 72.06 13.78Q72.54 13.02 72.54 11.65L72.54 11.65Q72.54 10.27 72.06 9.54Q71.57 8.80 70.46 8.80L70.46 8.80Q69.39 8.80 68.90 9.54Q68.42 10.27 68.42 11.65ZM81.23 7.17L81.23 7.17Q81.44 7.17 81.69 7.18Q81.94 7.20 82.11 7.25L82.11 7.25L81.94 9.12Q81.78 9.09 81.55 9.06Q81.33 9.04 81.15 9.04L81.15 9.04Q80.51 9.04 79.95 9.30Q79.39 9.57 79.05 10.12Q78.70 10.67 78.70 11.50L78.70 11.50L78.70 16L76.69 16L76.69 7.33L78.24 7.33L78.53 8.83L78.62 8.83Q79.01 8.14 79.68 7.66Q80.35 7.17 81.23 7.17ZM83.71 3.84L85.71 3.84L85.71 9.62Q85.71 10.03 85.68 10.50Q85.65 10.96 85.62 11.38L85.62 11.38L85.66 11.38Q85.86 11.09 86.14 10.72Q86.43 10.35 86.69 10.06L86.69 10.06L89.25 7.33L91.54 7.33L88.06 11.07L91.76 16L89.41 16L86.72 12.29L85.71 13.12L85.71 16L83.71 16L83.71 3.84ZM92.83 14.98L92.83 14.98Q92.83 14.30 93.18 14.02Q93.54 13.74 94.05 13.74L94.05 13.74Q94.54 13.74 94.91 14.02Q95.28 14.30 95.28 14.98L95.28 14.98Q95.28 15.63 94.91 15.92Q94.54 16.21 94.05 16.21L94.05 16.21Q93.54 16.21 93.18 15.92Q92.83 15.63 92.83 14.98ZM107.52 7.17L107.52 7.17Q108.99 7.17 109.74 7.92Q110.48 8.67 110.48 10.35L110.48 10.35L110.48 16L108.46 16L108.46 10.74Q108.46 8.80 106.99 8.80L106.99 8.80Q105.94 8.80 105.49 9.49Q105.04 10.18 105.04 11.49L105.04 11.49L105.04 16L103.02 16L103.02 10.74Q103.02 8.80 101.54 8.80L101.54 8.80Q100.43 8.80 100.02 9.57Q99.60 10.34 99.60 11.76L99.60 11.76L99.60 16L97.58 16L97.58 7.33L99.14 7.33L99.42 8.46L99.54 8.46Q99.92 7.79 100.62 7.48Q101.31 7.17 102.06 7.17L102.06 7.17Q103.04 7.17 103.70 7.50Q104.37 7.82 104.72 8.51L104.72 8.51L104.88 8.51Q105.28 7.81 106.00 7.49Q106.72 7.17 107.52 7.17ZM118.69 7.33L120.70 7.33L120.70 16L119.12 16L118.85 14.88L118.75 14.88Q118.32 15.55 117.59 15.86Q116.86 16.16 116.05 16.16L116.05 16.16Q114.59 16.16 113.77 15.41Q112.94 14.66 112.94 12.99L112.94 12.99L112.94 7.33L114.96 7.33L114.96 12.59Q114.96 14.53 116.56 14.53L116.56 14.53Q117.78 14.53 118.23 13.77Q118.69 13.01 118.69 11.57L118.69 11.57L118.69 7.33ZM122.14 16L125.15 11.57L122.29 7.33L124.58 7.33L126.46 10.27L128.35 7.33L130.64 7.33L127.74 11.57L130.78 16L128.50 16L126.46 12.85L124.43 16L122.14 16ZM139.81 11.90L139.81 13.55L138.32 13.55L138.32 16L136.34 16L136.34 13.55L131.25 13.55L131.25 12.05L136.38 4.54L138.32 4.54L138.32 11.90L139.81 11.90ZM133.09 11.90L136.34 11.90L136.34 9.34Q136.34 8.91 136.35 8.42Q136.37 7.92 136.39 7.50Q136.42 7.07 136.43 6.85L136.43 6.85L136.37 6.85Q136.08 7.52 135.68 8.10L135.68 8.10L133.09 11.90ZM146.90 17.44L146.90 18.50L140.06 18.50L140.06 17.44L146.90 17.44ZM151.52 14.54L151.52 14.54Q151.89 14.54 152.25 14.47Q152.61 14.40 152.91 14.30L152.91 14.30L152.91 15.81Q152.59 15.95 152.08 16.06Q151.57 16.16 151.01 16.16L151.01 16.16Q150.27 16.16 149.66 15.91Q149.06 15.66 148.70 15.06Q148.35 14.45 148.35 13.36L148.35 13.36L148.35 8.85L147.18 8.85L147.18 7.97L148.46 7.26L149.10 5.42L150.37 5.42L150.37 7.33L152.83 7.33L152.83 8.85L150.37 8.85L150.37 13.34Q150.37 13.95 150.69 14.25Q151.01 14.54 151.52 14.54ZM154.66 3.84L156.67 3.84L156.67 6.72Q156.67 7.23 156.64 7.71Q156.61 8.19 156.58 8.46L156.58 8.46L156.67 8.46Q157.02 7.92 157.63 7.54Q158.24 7.17 159.22 7.17L159.22 7.17Q160.72 7.17 161.66 8.30Q162.59 9.44 162.59 11.65L162.59 11.65Q162.59 13.89 161.65 15.02Q160.70 16.16 159.17 16.16L159.17 16.16Q158.19 16.16 157.61 15.81Q157.02 15.46 156.67 14.99L156.67 14.99L156.53 14.99L156.16 16L154.66 16L154.66 3.84ZM158.64 8.80L158.64 8.80Q157.55 8.80 157.12 9.46Q156.69 10.11 156.67 11.47L156.67 11.47L156.67 11.65Q156.67 13.04 157.10 13.78Q157.52 14.51 158.67 14.51L158.67 14.51Q159.57 14.51 160.05 13.77Q160.53 13.02 160.53 11.63L160.53 11.63Q160.53 10.21 160.04 9.50Q159.55 8.80 158.64 8.80ZM164.02 11.62L164.02 11.62Q164.02 9.66 164.58 7.85Q165.15 6.03 166.37 4.58L166.37 4.58L168.08 4.58Q166.98 6.08 166.42 7.89Q165.86 9.70 165.86 11.60L165.86 11.60Q165.86 13.46 166.42 15.25Q166.98 17.04 168.06 18.53L168.06 18.53L166.37 18.53Q165.15 17.12 164.58 15.34Q164.02 13.55 164.02 11.62ZM170.05 4.58L173.30 4.58Q175.55 4.58 176.63 5.41Q177.71 6.24 177.71 7.94L177.71 7.94Q177.71 8.77 177.40 9.36Q177.09 9.95 176.59 10.34Q176.10 10.74 175.52 10.98L175.52 10.98L178.80 16L176.50 16L173.76 11.49L172.10 11.49L172.10 16L170.05 16L170.05 4.58ZM173.17 6.29L173.17 6.29L172.10 6.29L172.10 9.81L173.23 9.81Q174.50 9.81 175.06 9.35Q175.63 8.90 175.63 8L175.63 8Q175.63 7.07 175.03 6.68Q174.43 6.29 173.17 6.29ZM184.48 6.30L184.48 16L182.43 16L182.43 6.30L179.15 6.30L179.15 4.58L187.76 4.58L187.76 6.30L184.48 6.30ZM196.32 16L189.50 16L189.50 4.58L191.55 4.58L191.55 14.27L196.32 14.27L196.32 16ZM201.36 11.62L201.36 11.62Q201.36 13.55 200.79 15.34Q200.22 17.12 199.01 18.53L199.01 18.53L197.31 18.53Q198.40 17.04 198.97 15.25Q199.54 13.46 199.54 11.60L199.54 11.60Q199.54 9.70 198.97 7.89Q198.40 6.08 197.30 4.58L197.30 4.58L199.01 4.58Q200.22 6.03 200.79 7.85Q201.36 9.66 201.36 11.62Z" class="sprotty-block-name" style="fill:rgb(48, 48, 48);stroke:rgba(0, 0, 0, 0);"/><line x1="0" y1="20" x2="254.2889404296875" y2="20"/></g><g id="sprotty_ArchitectureBlockImpl$work.mux4_tb(RTL)/ProcessBlockImpl$stimulus/GPortImpl$d0_to_ArchitectureBlockImpl$work.mux4_tb(RTL)/InstantiationBlockImpl$DTU/BPortImpl$d0" class="sprotty-edge thick edge" style="fill:none;stroke:rgb(112, 112, 112);stroke-linejoin:round;stroke-width:3px;"><path d="M 92.3280029296875 74.12050008773804 L 142.3280029296875 74.12050008773804 "/></g><g id="sprotty_ArchitectureBlockImpl$work.mux4_tb(RTL)/ProcessBlockImpl$stimulus/GPortImpl$d1_to_ArchitectureBlockImpl$work.mux4_tb(RTL)/InstantiationBlockImpl$DTU/BPortImpl$d1" class="sprotty-edge thick edge" style="fill:none;stroke:rgb(112, 112, 112);stroke-linejoin:round;stroke-width:3px;"><path d="M 92.3280029296875 84.12050008773804 L 130.3280029296875 84.12050008773804 C 131.3280029296875 84.12050008773804 132.3280029296875 85.12050008773804 132.3280029296875 86.12050008773804 L 132.3280029296875 96.36150026321411 C 132.3280029296875 97.36150026321411 133.3280029296875 98.36150026321411 134.3280029296875 98.36150026321411 L 142.3280029296875 98.36150026321411 "/></g><g id="sprotty_ArchitectureBlockImpl$work.mux4_tb(RTL)/ProcessBlockImpl$stimulus/GPortImpl$d2_to_ArchitectureBlockImpl$work.mux4_tb(RTL)/InstantiationBlockImpl$DTU/BPortImpl$d2" class="sprotty-edge thick edge" style="fill:none;stroke:rgb(112, 112, 112);stroke-linejoin:round;stroke-width:3px;"><path d="M 92.3280029296875 94.12050008773804 L 120.3280029296875 94.12050008773804 C 121.3280029296875 94.12050008773804 122.3280029296875 95.12050008773804 122.3280029296875 96.12050008773804 L 122.3280029296875 120.60250043869019 C 122.3280029296875 121.60250043869019 123.3280029296875 122.60250043869019 124.3280029296875 122.60250043869019 L 142.3280029296875 122.60250043869019 "/></g><g id="sprotty_ArchitectureBlockImpl$work.mux4_tb(RTL)/ProcessBlockImpl$stimulus/GPortImpl$d3_to_ArchitectureBlockImpl$work.mux4_tb(RTL)/InstantiationBlockImpl$DTU/BPortImpl$d3" class="sprotty-edge thick edge" style="fill:none;stroke:rgb(112, 112, 112);stroke-linejoin:round;stroke-width:3px;"><path d="M 92.3280029296875 104.12050008773804 L 110.3280029296875 104.12050008773804 C 111.3280029296875 104.12050008773804 112.3280029296875 105.12050008773804 112.3280029296875 106.12050008773804 L 112.3280029296875 144.84350061416626 C 112.3280029296875 145.84350061416626 113.3280029296875 146.84350061416626 114.3280029296875 146.84350061416626 L 142.3280029296875 146.84350061416626 "/></g><g id="sprotty_ArchitectureBlockImpl$work.mux4_tb(RTL)/ProcessBlockImpl$stimulus/GPortImpl$s_to_ArchitectureBlockImpl$work.mux4_tb(RTL)/InstantiationBlockImpl$DTU/BPortImpl$s" class="sprotty-edge thick edge" style="fill:none;stroke:rgb(112, 112, 112);stroke-linejoin:round;stroke-width:3px;"><path d="M 92.3280029296875 114.12050008773804 L 100.3280029296875 114.12050008773804 C 101.3280029296875 114.12050008773804 102.3280029296875 115.12050008773804 102.3280029296875 116.12050008773804 L 102.3280029296875 167.6614007949829 C 102.3280029296875 168.6614007949829 103.3280029296875 169.6614007949829 104.3280029296875 169.6614007949829 L 142.3280029296875 169.6614007949829 "/></g><g id="sprotty_ArchitectureBlockImpl$work.mux4_tb(RTL)/ProcessBlockImpl$stimulus" transform="translate(15, 64.12050008773804)" class="statement"><rect x="0" y="0" rx="10" ry="5" width="77.3280029296875" height="60" class="sprotty-node" style="fill:rgb(245, 245, 245);stroke:rgb(112, 112, 112);"/><g id="sprotty_ArchitectureBlockImpl$work.mux4_tb(RTL)/ProcessBlockImpl$stimulus/label" transform="translate(5, 23.83984375) translate(0, -0.15984344482421875)" class="sprotty-label process" style="cursor:default;fill:rgb(48, 48, 48);font-family:Arial, Helvetica, sans-serif;text-anchor:middle;"><path d="M7.20-2.51L7.20-2.51Q7.20-1.20 6.26-0.52Q5.33 0.16 3.58 0.16L3.58 0.16Q2.67 0.16 2.02 0.03Q1.38-0.10 0.77-0.37L0.77-0.37L0.77-2.08Q1.41-1.78 2.18-1.57Q2.96-1.36 3.65-1.36L3.65-1.36Q4.48-1.36 4.85-1.62Q5.22-1.87 5.22-2.30L5.22-2.30Q5.22-2.56 5.07-2.76Q4.93-2.96 4.50-3.20Q4.08-3.44 3.25-3.79L3.25-3.79Q2.42-4.11 1.86-4.46Q1.31-4.80 1.03-5.26Q0.75-5.73 0.75-6.46L0.75-6.46Q0.75-7.63 1.67-8.23Q2.59-8.83 4.13-8.83L4.13-8.83Q4.93-8.83 5.64-8.67Q6.35-8.51 7.07-8.19L7.07-8.19L6.43-6.70Q5.82-6.96 5.25-7.14Q4.67-7.31 4.06-7.31L4.06-7.31Q2.74-7.31 2.74-6.56L2.74-6.56Q2.74-6.29 2.90-6.10Q3.07-5.90 3.50-5.69Q3.92-5.47 4.70-5.17L4.70-5.17Q5.47-4.86 6.03-4.54Q6.59-4.21 6.90-3.73Q7.20-3.25 7.20-2.51ZM12.50-1.46L12.50-1.46Q12.86-1.46 13.22-1.53Q13.58-1.60 13.89-1.70L13.89-1.70L13.89-0.19Q13.57-0.05 13.06 0.06Q12.54 0.16 11.98 0.16L11.98 0.16Q11.25 0.16 10.64-0.09Q10.03-0.34 9.68-0.94Q9.33-1.55 9.33-2.64L9.33-2.64L9.33-7.15L8.16-7.15L8.16-8.03L9.44-8.74L10.08-10.58L11.34-10.58L11.34-8.67L13.81-8.67L13.81-7.15L11.34-7.15L11.34-2.66Q11.34-2.05 11.66-1.75Q11.98-1.46 12.50-1.46ZM16.64-12.02L16.64-12.02Q17.10-12.02 17.43-11.78Q17.76-11.55 17.76-10.96L17.76-10.96Q17.76-10.37 17.43-10.13Q17.10-9.89 16.64-9.89L16.64-9.89Q16.18-9.89 15.85-10.13Q15.52-10.37 15.52-10.96L15.52-10.96Q15.52-11.55 15.85-11.78Q16.18-12.02 16.64-12.02ZM15.63-8.67L17.65-8.67L17.65 0L15.63 0L15.63-8.67ZM30.16-8.83L30.16-8.83Q31.63-8.83 32.38-8.08Q33.12-7.33 33.12-5.65L33.12-5.65L33.12 0L31.10 0L31.10-5.26Q31.10-7.20 29.63-7.20L29.63-7.20Q28.58-7.20 28.13-6.51Q27.68-5.82 27.68-4.51L27.68-4.51L27.68 0L25.66 0L25.66-5.26Q25.66-7.20 24.18-7.20L24.18-7.20Q23.07-7.20 22.66-6.43Q22.24-5.66 22.24-4.24L22.24-4.24L22.24 0L20.22 0L20.22-8.67L21.78-8.67L22.06-7.54L22.18-7.54Q22.56-8.21 23.26-8.52Q23.95-8.83 24.70-8.83L24.70-8.83Q25.68-8.83 26.34-8.50Q27.01-8.18 27.36-7.49L27.36-7.49L27.52-7.49Q27.92-8.19 28.64-8.51Q29.36-8.83 30.16-8.83ZM41.33-8.67L43.34-8.67L43.34 0L41.76 0L41.49-1.12L41.39-1.12Q40.96-0.45 40.23-0.14Q39.50 0.16 38.69 0.16L38.69 0.16Q37.23 0.16 36.41-0.59Q35.58-1.34 35.58-3.01L35.58-3.01L35.58-8.67L37.60-8.67L37.60-3.41Q37.60-1.47 39.20-1.47L39.20-1.47Q40.42-1.47 40.87-2.23Q41.33-2.99 41.33-4.43L41.33-4.43L41.33-8.67ZM47.94-12.16L47.94 0L45.92 0L45.92-12.16L47.94-12.16ZM56.19-8.67L58.21-8.67L58.21 0L56.62 0L56.35-1.12L56.26-1.12Q55.82-0.45 55.10-0.14Q54.37 0.16 53.55 0.16L53.55 0.16Q52.10 0.16 51.27-0.59Q50.45-1.34 50.45-3.01L50.45-3.01L50.45-8.67L52.46-8.67L52.46-3.41Q52.46-1.47 54.06-1.47L54.06-1.47Q55.28-1.47 55.74-2.23Q56.19-2.99 56.19-4.43L56.19-4.43L56.19-8.67ZM66.69-2.51L66.69-2.51Q66.69-1.20 65.75-0.52Q64.82 0.16 63.07 0.16L63.07 0.16Q62.16 0.16 61.51 0.03Q60.86-0.10 60.26-0.37L60.26-0.37L60.26-2.08Q60.90-1.78 61.67-1.57Q62.45-1.36 63.14-1.36L63.14-1.36Q63.97-1.36 64.34-1.62Q64.70-1.87 64.70-2.30L64.70-2.30Q64.70-2.56 64.56-2.76Q64.42-2.96 63.99-3.20Q63.57-3.44 62.74-3.79L62.74-3.79Q61.90-4.11 61.35-4.46Q60.80-4.80 60.52-5.26Q60.24-5.73 60.24-6.46L60.24-6.46Q60.24-7.63 61.16-8.23Q62.08-8.83 63.62-8.83L63.62-8.83Q64.42-8.83 65.13-8.67Q65.84-8.51 66.56-8.19L66.56-8.19L65.92-6.70Q65.31-6.96 64.74-7.14Q64.16-7.31 63.55-7.31L63.55-7.31Q62.22-7.31 62.22-6.56L62.22-6.56Q62.22-6.29 62.39-6.10Q62.56-5.90 62.98-5.69Q63.41-5.47 64.19-5.17L64.19-5.17Q64.96-4.86 65.52-4.54Q66.08-4.21 66.38-3.73Q66.69-3.25 66.69-2.51Z" transform="translate(0, 12.32)"/><rect x="0" y="0.16" width="67.328" height="12.32" class="clickable" style="cursor:pointer;fill:rgba(0, 0, 0, 0);fill-opacity:0;stroke-width:0px;"/></g><g id="sprotty_ArchitectureBlockImpl$work.mux4_tb(RTL)/ProcessBlockImpl$stimulus/GPortImpl$d0" transform="translate(77.3280029296875, 10)" class="sprotty-hidden hidden" style="display:block;height:0px;width:0px;"/><g id="sprotty_ArchitectureBlockImpl$work.mux4_tb(RTL)/ProcessBlockImpl$stimulus/GPortImpl$d1" transform="translate(77.3280029296875, 20)" class="sprotty-hidden hidden" style="display:block;height:0px;width:0px;"/><g id="sprotty_ArchitectureBlockImpl$work.mux4_tb(RTL)/ProcessBlockImpl$stimulus/GPortImpl$d2" transform="translate(77.3280029296875, 30)" class="sprotty-hidden hidden" style="display:block;height:0px;width:0px;"/><g id="sprotty_ArchitectureBlockImpl$work.mux4_tb(RTL)/ProcessBlockImpl$stimulus/GPortImpl$d3" transform="translate(77.3280029296875, 40)" class="sprotty-hidden hidden" style="display:block;height:0px;width:0px;"/><g id="sprotty_ArchitectureBlockImpl$work.mux4_tb(RTL)/ProcessBlockImpl$stimulus/GPortImpl$s" transform="translate(77.3280029296875, 50)" class="sprotty-hidden hidden" style="display:block;height:0px;width:0px;"/></g><g id="sprotty_ArchitectureBlockImpl$work.mux4_tb(RTL)/InstantiationBlockImpl$DTU" transform="translate(142.3280029296875, 35)" class="instantiation"><g class="sprotty-block" style="fill:rgb(245, 245, 245);stroke:rgb(48, 48, 48);stroke-dasharray:0px;"><rect x="0" y="0" rx="1" ry="1" width="96.9609375" height="152.35880088806152"/><path d="M14.83 10.18L14.83 10.18Q14.83 13.07 13.22 14.54Q11.60 16 8.70 16L8.70 16L5.49 16L5.49 4.58L9.04 4.58Q10.80 4.58 12.10 5.22Q13.41 5.86 14.12 7.10Q14.83 8.34 14.83 10.18ZM12.69 10.24L12.69 10.24Q12.69 8.19 11.75 7.23Q10.82 6.27 9.04 6.27L9.04 6.27L7.54 6.27L7.54 14.29L8.77 14.29Q12.69 14.29 12.69 10.24ZM20.88 6.30L20.88 16L18.83 16L18.83 6.30L15.55 6.30L15.55 4.58L24.16 4.58L24.16 6.30L20.88 6.30ZM32.93 4.58L34.96 4.58L34.96 11.97Q34.96 13.15 34.46 14.10Q33.95 15.06 32.93 15.61Q31.90 16.16 30.34 16.16L30.34 16.16Q28.11 16.16 26.96 15Q25.81 13.84 25.81 11.94L25.81 11.94L25.81 4.58L27.86 4.58L27.86 11.73Q27.86 13.14 28.50 13.78Q29.14 14.42 30.40 14.42L30.40 14.42Q31.73 14.42 32.33 13.72Q32.93 13.02 32.93 11.71L32.93 11.71L32.93 4.58ZM41.54 8.38L41.54 8.38Q41.54 7.70 41.89 7.42Q42.24 7.14 42.75 7.14L42.75 7.14Q43.25 7.14 43.62 7.42Q43.98 7.70 43.98 8.38L43.98 8.38Q43.98 9.04 43.62 9.33Q43.25 9.62 42.75 9.62L42.75 9.62Q42.24 9.62 41.89 9.33Q41.54 9.04 41.54 8.38ZM41.54 14.98L41.54 14.98Q41.54 14.30 41.89 14.02Q42.24 13.74 42.75 13.74L42.75 13.74Q43.25 13.74 43.62 14.02Q43.98 14.30 43.98 14.98L43.98 14.98Q43.98 15.63 43.62 15.92Q43.25 16.21 42.75 16.21L42.75 16.21Q42.24 16.21 41.89 15.92Q41.54 15.63 41.54 14.98ZM60.38 7.17L60.38 7.17Q61.86 7.17 62.60 7.92Q63.34 8.67 63.34 10.35L63.34 10.35L63.34 16L61.33 16L61.33 10.74Q61.33 8.80 59.86 8.80L59.86 8.80Q58.80 8.80 58.35 9.49Q57.90 10.18 57.90 11.49L57.90 11.49L57.90 16L55.89 16L55.89 10.74Q55.89 8.80 54.40 8.80L54.40 8.80Q53.30 8.80 52.88 9.57Q52.46 10.34 52.46 11.76L52.46 11.76L52.46 16L50.45 16L50.45 7.33L52.00 7.33L52.29 8.46L52.40 8.46Q52.78 7.79 53.48 7.48Q54.18 7.17 54.93 7.17L54.93 7.17Q55.90 7.17 56.57 7.50Q57.23 7.82 57.58 8.51L57.58 8.51L57.74 8.51Q58.14 7.81 58.86 7.49Q59.58 7.17 60.38 7.17ZM71.55 7.33L73.57 7.33L73.57 16L71.98 16L71.71 14.88L71.62 14.88Q71.18 15.55 70.46 15.86Q69.73 16.16 68.91 16.16L68.91 16.16Q67.46 16.16 66.63 15.41Q65.81 14.66 65.81 12.99L65.81 12.99L65.81 7.33L67.82 7.33L67.82 12.59Q67.82 14.53 69.42 14.53L69.42 14.53Q70.64 14.53 71.10 13.77Q71.55 13.01 71.55 11.57L71.55 11.57L71.55 7.33ZM75.01 16L78.02 11.57L75.15 7.33L77.44 7.33L79.33 10.27L81.22 7.33L83.50 7.33L80.61 11.57L83.65 16L81.36 16L79.33 12.85L77.30 16L75.01 16ZM92.67 11.90L92.67 13.55L91.18 13.55L91.18 16L89.20 16L89.20 13.55L84.11 13.55L84.11 12.05L89.25 4.54L91.18 4.54L91.18 11.90L92.67 11.90ZM85.95 11.90L89.20 11.90L89.20 9.34Q89.20 8.91 89.22 8.42Q89.23 7.92 89.26 7.50Q89.28 7.07 89.30 6.85L89.30 6.85L89.23 6.85Q88.94 7.52 88.54 8.10L88.54 8.10L85.95 11.90Z" class="sprotty-block-name" style="fill:rgb(48, 48, 48);stroke:rgba(0, 0, 0, 0);"/><line x1="0" y1="20" x2="96.9609375" y2="20"/></g><g id="sprotty_ArchitectureBlockImpl$work.mux4_tb(RTL)/InstantiationBlockImpl$DTU/BPortImpl$s" transform="translate(0, 134.6614007949829)" class="triangle"><path d="M 0,0 L 5,2.5 L 0,5 Z" transform="translate(-1.67, -2.5)" class="sprotty-port" style="fill:rgb(48, 48, 48);stroke:rgb(48, 48, 48);"/><g class="port sprotty-label" id="sprotty_ArchitectureBlockImpl$work.mux4_tb(RTL)/InstantiationBlockImpl$DTU/BPortImpl$s/label" transform="translate(3, -5.697400093078613) translate(0, -0.13300000131130219)" style="cursor:default;fill:rgb(48, 48, 48);font-family:Arial, Helvetica, sans-serif;text-anchor:middle;"><path d="M2.93 0.13L2.93 0.13Q2.18 0.13 1.64 0.01Q1.10-0.11 0.69-0.32L0.69-0.32L0.69-1.38Q1.12-1.17 1.72-0.99Q2.33-0.81 2.95-0.81L2.95-0.81Q3.84-0.81 4.24-1.10Q4.64-1.38 4.64-1.86L4.64-1.86Q4.64-2.13 4.50-2.34Q4.35-2.55 3.97-2.77Q3.59-2.98 2.89-3.25L2.89-3.25Q2.19-3.51 1.70-3.78Q1.21-4.04 0.94-4.42Q0.68-4.79 0.68-5.37L0.68-5.37Q0.68-6.28 1.42-6.77Q2.15-7.26 3.35-7.26L3.35-7.26Q4.00-7.26 4.57-7.14Q5.13-7.01 5.63-6.78L5.63-6.78L5.23-5.85Q4.77-6.04 4.28-6.17Q3.79-6.30 3.27-6.30L3.27-6.30Q2.55-6.30 2.17-6.07Q1.80-5.84 1.80-5.44L1.80-5.44Q1.80-5.15 1.97-4.94Q2.14-4.73 2.55-4.54Q2.95-4.35 3.63-4.08L3.63-4.08Q4.31-3.83 4.79-3.56Q5.27-3.29 5.52-2.91Q5.77-2.54 5.77-1.97L5.77-1.97Q5.77-0.93 5.00-0.40Q4.23 0.13 2.93 0.13Z" transform="translate(4, 9.3948)"/><rect x="0" y="0.133" width="14.3707" height="11.3948" class="clickable" style="cursor:pointer;fill:rgba(0, 0, 0, 0);fill-opacity:0;stroke-width:0px;"/></g></g><g id="sprotty_ArchitectureBlockImpl$work.mux4_tb(RTL)/InstantiationBlockImpl$DTU/BPortImpl$d3" transform="translate(0, 111.84350061416626)" class="triangle"><path d="M 0,0 L 5,2.5 L 0,5 Z" transform="translate(-1.67, -2.5)" class="sprotty-port" style="fill:rgb(48, 48, 48);stroke:rgb(48, 48, 48);"/><g class="port sprotty-label" id="sprotty_ArchitectureBlockImpl$work.mux4_tb(RTL)/InstantiationBlockImpl$DTU/BPortImpl$d3/label" transform="translate(3, -7.120500087738037) translate(0, -0.13300000131130219)" style="cursor:default;fill:rgb(48, 48, 48);font-family:Arial, Helvetica, sans-serif;text-anchor:middle;"><path d="M3.66 0.13L3.66 0.13Q2.33 0.13 1.53-0.79Q0.73-1.72 0.73-3.55L0.73-3.55Q0.73-5.39 1.54-6.32Q2.34-7.26 3.67-7.26L3.67-7.26Q4.50-7.26 5.02-6.96Q5.55-6.65 5.88-6.21L5.88-6.21L5.96-6.21Q5.95-6.38 5.91-6.72Q5.88-7.06 5.88-7.26L5.88-7.26L5.88-10.11L7.05-10.11L7.05 0L6.10 0L5.93-0.96L5.88-0.96Q5.56-0.51 5.03-0.19Q4.50 0.13 3.66 0.13ZM3.84-0.84L3.84-0.84Q4.97-0.84 5.43-1.46Q5.89-2.07 5.89-3.33L5.89-3.33L5.89-3.54Q5.89-4.87 5.45-5.58Q5.01-6.29 3.83-6.29L3.83-6.29Q2.89-6.29 2.41-5.54Q1.94-4.79 1.94-3.52L1.94-3.52Q1.94-2.25 2.41-1.54Q2.89-0.84 3.84-0.84ZM11.38 0.13L11.38 0.13Q10.64 0.13 10.00 0.02Q9.36-0.09 8.78-0.39L8.78-0.39L8.78-1.48Q9.38-1.18 10.07-1.02Q10.76-0.85 11.40-0.85L11.40-0.85Q12.67-0.85 13.24-1.35Q13.81-1.85 13.81-2.73L13.81-2.73Q13.81-3.62 13.11-4.01Q12.41-4.40 11.15-4.40L11.15-4.40L10.23-4.40L10.23-5.40L11.16-5.40Q12.33-5.40 12.93-5.89Q13.54-6.38 13.54-7.20L13.54-7.20Q13.54-7.89 13.07-8.27Q12.61-8.65 11.81-8.65L11.81-8.65Q11.04-8.65 10.49-8.42Q9.95-8.19 9.42-7.85L9.42-7.85L8.83-8.65Q9.34-9.04 10.09-9.34Q10.84-9.63 11.80-9.63L11.80-9.63Q13.29-9.63 14.01-8.96Q14.74-8.30 14.74-7.28L14.74-7.28Q14.74-6.32 14.20-5.75Q13.67-5.19 12.77-5.00L12.77-5.00L12.77-4.95Q13.91-4.81 14.47-4.23Q15.03-3.64 15.03-2.70L15.03-2.70Q15.03-1.88 14.64-1.23Q14.26-0.59 13.45-0.23Q12.65 0.13 11.38 0.13Z" transform="translate(4, 12.241)"/><rect x="0" y="0.133" width="23.787100000000002" height="14.241" class="clickable" style="cursor:pointer;fill:rgba(0, 0, 0, 0);fill-opacity:0;stroke-width:0px;"/></g></g><g id="sprotty_ArchitectureBlockImpl$work.mux4_tb(RTL)/InstantiationBlockImpl$DTU/BPortImpl$d2" transform="translate(0, 87.60250043869019)" class="triangle"><path d="M 0,0 L 5,2.5 L 0,5 Z" transform="translate(-1.67, -2.5)" class="sprotty-port" style="fill:rgb(48, 48, 48);stroke:rgb(48, 48, 48);"/><g class="port sprotty-label" id="sprotty_ArchitectureBlockImpl$work.mux4_tb(RTL)/InstantiationBlockImpl$DTU/BPortImpl$d2/label" transform="translate(3, -7.120500087738037) translate(0, -0.13300000131130219)" style="cursor:default;fill:rgb(48, 48, 48);font-family:Arial, Helvetica, sans-serif;text-anchor:middle;"><path d="M3.66 0.13L3.66 0.13Q2.33 0.13 1.53-0.79Q0.73-1.72 0.73-3.55L0.73-3.55Q0.73-5.39 1.54-6.32Q2.34-7.26 3.67-7.26L3.67-7.26Q4.50-7.26 5.02-6.96Q5.55-6.65 5.88-6.21L5.88-6.21L5.96-6.21Q5.95-6.38 5.91-6.72Q5.88-7.06 5.88-7.26L5.88-7.26L5.88-10.11L7.05-10.11L7.05 0L6.10 0L5.93-0.96L5.88-0.96Q5.56-0.51 5.03-0.19Q4.50 0.13 3.66 0.13ZM3.84-0.84L3.84-0.84Q4.97-0.84 5.43-1.46Q5.89-2.07 5.89-3.33L5.89-3.33L5.89-3.54Q5.89-4.87 5.45-5.58Q5.01-6.29 3.83-6.29L3.83-6.29Q2.89-6.29 2.41-5.54Q1.94-4.79 1.94-3.52L1.94-3.52Q1.94-2.25 2.41-1.54Q2.89-0.84 3.84-0.84ZM15.10 0L8.82 0L8.82-0.97L11.31-3.48Q12.02-4.20 12.52-4.76Q13.01-5.32 13.26-5.86Q13.51-6.40 13.51-7.04L13.51-7.04Q13.51-7.82 13.05-8.23Q12.58-8.63 11.84-8.63L11.84-8.63Q11.15-8.63 10.62-8.39Q10.09-8.15 9.55-7.73L9.55-7.73L8.92-8.51Q9.48-8.98 10.21-9.30Q10.93-9.63 11.84-9.63L11.84-9.63Q13.17-9.63 13.94-8.96Q14.71-8.29 14.71-7.10L14.71-7.10Q14.71-6.36 14.40-5.71Q14.10-5.07 13.55-4.43Q13.01-3.79 12.28-3.07L12.28-3.07L10.29-1.12L10.29-1.06L15.10-1.06L15.10 0Z" transform="translate(4, 12.241)"/><rect x="0" y="0.133" width="23.787100000000002" height="14.241" class="clickable" style="cursor:pointer;fill:rgba(0, 0, 0, 0);fill-opacity:0;stroke-width:0px;"/></g></g><g id="sprotty_ArchitectureBlockImpl$work.mux4_tb(RTL)/InstantiationBlockImpl$DTU/BPortImpl$d1" transform="translate(0, 63.36150026321411)" class="triangle"><path d="M 0,0 L 5,2.5 L 0,5 Z" transform="translate(-1.67, -2.5)" class="sprotty-port" style="fill:rgb(48, 48, 48);stroke:rgb(48, 48, 48);"/><g class="port sprotty-label" id="sprotty_ArchitectureBlockImpl$work.mux4_tb(RTL)/InstantiationBlockImpl$DTU/BPortImpl$d1/label" transform="translate(3, -7.120500087738037) translate(0, -0.13300000131130219)" style="cursor:default;fill:rgb(48, 48, 48);font-family:Arial, Helvetica, sans-serif;text-anchor:middle;"><path d="M3.66 0.13L3.66 0.13Q2.33 0.13 1.53-0.79Q0.73-1.72 0.73-3.55L0.73-3.55Q0.73-5.39 1.54-6.32Q2.34-7.26 3.67-7.26L3.67-7.26Q4.50-7.26 5.02-6.96Q5.55-6.65 5.88-6.21L5.88-6.21L5.96-6.21Q5.95-6.38 5.91-6.72Q5.88-7.06 5.88-7.26L5.88-7.26L5.88-10.11L7.05-10.11L7.05 0L6.10 0L5.93-0.96L5.88-0.96Q5.56-0.51 5.03-0.19Q4.50 0.13 3.66 0.13ZM3.84-0.84L3.84-0.84Q4.97-0.84 5.43-1.46Q5.89-2.07 5.89-3.33L5.89-3.33L5.89-3.54Q5.89-4.87 5.45-5.58Q5.01-6.29 3.83-6.29L3.83-6.29Q2.89-6.29 2.41-5.54Q1.94-4.79 1.94-3.52L1.94-3.52Q1.94-2.25 2.41-1.54Q2.89-0.84 3.84-0.84ZM12.90 0L11.76 0L11.76-6.64Q11.76-7.21 11.77-7.55Q11.78-7.90 11.81-8.27L11.81-8.27Q11.60-8.07 11.42-7.92Q11.25-7.77 10.99-7.54L10.99-7.54L9.98-6.72L9.36-7.50L11.93-9.50L12.90-9.50L12.90 0Z" transform="translate(4, 12.241)"/><rect x="0" y="0.133" width="23.787100000000002" height="14.241" class="clickable" style="cursor:pointer;fill:rgba(0, 0, 0, 0);fill-opacity:0;stroke-width:0px;"/></g></g><g id="sprotty_ArchitectureBlockImpl$work.mux4_tb(RTL)/InstantiationBlockImpl$DTU/BPortImpl$d0" transform="translate(0, 39.12050008773804)" class="triangle"><path d="M 0,0 L 5,2.5 L 0,5 Z" transform="translate(-1.67, -2.5)" class="sprotty-port" style="fill:rgb(48, 48, 48);stroke:rgb(48, 48, 48);"/><g class="port sprotty-label" id="sprotty_ArchitectureBlockImpl$work.mux4_tb(RTL)/InstantiationBlockImpl$DTU/BPortImpl$d0/label" transform="translate(3, -7.120500087738037) translate(0, -0.13300000131130219)" style="cursor:default;fill:rgb(48, 48, 48);font-family:Arial, Helvetica, sans-serif;text-anchor:middle;"><path d="M3.66 0.13L3.66 0.13Q2.33 0.13 1.53-0.79Q0.73-1.72 0.73-3.55L0.73-3.55Q0.73-5.39 1.54-6.32Q2.34-7.26 3.67-7.26L3.67-7.26Q4.50-7.26 5.02-6.96Q5.55-6.65 5.88-6.21L5.88-6.21L5.96-6.21Q5.95-6.38 5.91-6.72Q5.88-7.06 5.88-7.26L5.88-7.26L5.88-10.11L7.05-10.11L7.05 0L6.10 0L5.93-0.96L5.88-0.96Q5.56-0.51 5.03-0.19Q4.50 0.13 3.66 0.13ZM3.84-0.84L3.84-0.84Q4.97-0.84 5.43-1.46Q5.89-2.07 5.89-3.33L5.89-3.33L5.89-3.54Q5.89-4.87 5.45-5.58Q5.01-6.29 3.83-6.29L3.83-6.29Q2.89-6.29 2.41-5.54Q1.94-4.79 1.94-3.52L1.94-3.52Q1.94-2.25 2.41-1.54Q2.89-0.84 3.84-0.84ZM11.97 0.13L11.97 0.13Q10.36 0.13 9.60-1.16Q8.83-2.46 8.83-4.76L8.83-4.76Q8.83-6.30 9.14-7.39Q9.46-8.49 10.15-9.06Q10.84-9.64 11.97-9.64L11.97-9.64Q13.57-9.64 14.35-8.36Q15.14-7.08 15.14-4.76L15.14-4.76Q15.14-3.23 14.82-2.13Q14.50-1.04 13.81-0.45Q13.11 0.13 11.97 0.13ZM11.97-0.86L11.97-0.86Q13.03-0.86 13.49-1.83Q13.95-2.79 13.95-4.76L13.95-4.76Q13.95-6.70 13.49-7.67Q13.03-8.65 11.97-8.65L11.97-8.65Q10.89-8.65 10.45-7.67Q10.00-6.70 10.00-4.76L10.00-4.76Q10.00-2.81 10.45-1.84Q10.89-0.86 11.97-0.86Z" transform="translate(4, 12.241)"/><rect x="0" y="0.133" width="23.787100000000002" height="14.241" class="clickable" style="cursor:pointer;fill:rgba(0, 0, 0, 0);fill-opacity:0;stroke-width:0px;"/></g></g><g id="sprotty_ArchitectureBlockImpl$work.mux4_tb(RTL)/InstantiationBlockImpl$DTU/BPortImpl$y" transform="translate(96.9609375, 86.17940044403076)" class="triangle"><path d="M 0,0 L 5,2.5 L 0,5 Z" transform="translate(-1.67, -2.5)" class="sprotty-port" style="fill:rgb(48, 48, 48);stroke:rgb(48, 48, 48);"/><g class="port sprotty-label" id="sprotty_ArchitectureBlockImpl$work.mux4_tb(RTL)/InstantiationBlockImpl$DTU/BPortImpl$y/label" transform="translate(-17.782999992370605, -7.160400390625) translate(0, -3.191999912261963)" style="cursor:default;fill:rgb(48, 48, 48);font-family:Arial, Helvetica, sans-serif;text-anchor:middle;"><path d="M1.12 3.19L1.12 3.19Q0.80 3.19 0.56 3.16Q0.32 3.13 0.15 3.09L0.15 3.09L0.15 2.15Q0.29 2.18 0.50 2.21Q0.70 2.23 0.93 2.23L0.93 2.23Q1.54 2.23 1.92 1.89Q2.29 1.54 2.51 0.97L2.51 0.97L2.89 0.03L0.01-7.13L1.26-7.13L2.81-3.07Q3.01-2.54 3.17-2.05Q3.33-1.57 3.40-1.13L3.40-1.13L3.46-1.13Q3.54-1.46 3.70-2.00Q3.87-2.54 4.07-3.09L4.07-3.09L5.52-7.13L6.78-7.13L3.71 0.98Q3.34 2.00 2.75 2.59Q2.15 3.19 1.12 3.19Z" transform="translate(4, 12.320800000000002)"/><rect x="0" y="3.192" width="14.783000000000001" height="14.320800000000002" class="clickable" style="cursor:pointer;fill:rgba(0, 0, 0, 0);fill-opacity:0;stroke-width:0px;"/></g></g></g></g></g></svg>