<svg xmlns="http://www.w3.org/2000/svg" id="sprotty_andN" class="sprotty-graph sprotty-block-diagram blockdiagram" style="font-family:&quot;Helvetica Neue&quot;, Helvetica, Arial, sans-serif;line-height:18px;perspective-origin:0px 0px;transform-origin:0px 0px;z-index:0;" version="1.1" viewBox="9.5 12 188.33526428222658 177.32080078125"><g transform="scale(1) translate(0,0)"><g id="sprotty_ArchitectureBlockImpl$work.andN(synth)" transform="translate(12, 12)" class="architecture"><g class="sprotty-block" style="fill:rgb(245, 245, 245);stroke:rgb(48, 48, 48);stroke-dasharray:0px;"><rect x="0" y="0" rx="1" ry="1" width="181.50526428222656" height="177.32080078125"/><path d="M31.20 16L28.96 16L28.00 12.27Q27.92 11.97 27.81 11.51Q27.70 11.06 27.58 10.56Q27.46 10.06 27.36 9.65Q27.26 9.23 27.22 9.01L27.22 9.01L27.15 9.01Q27.10 9.23 27.01 9.65Q26.91 10.06 26.80 10.57Q26.69 11.07 26.57 11.53Q26.45 11.98 26.37 12.29L26.37 12.29L25.36 16L23.15 16L20.72 7.31L22.75 7.31L23.82 11.46Q23.94 11.89 24.04 12.41Q24.14 12.93 24.22 13.42Q24.29 13.90 24.34 14.21L24.34 14.21L24.40 14.21Q24.43 13.92 24.52 13.42Q24.61 12.93 24.70 12.46Q24.80 11.98 24.86 11.74L24.86 11.74L26.11 7.31L28.32 7.31L29.52 11.74Q29.58 12.03 29.69 12.50Q29.79 12.96 29.87 13.43Q29.95 13.90 29.97 14.19L29.97 14.19L30.03 14.19Q30.06 13.94 30.14 13.46Q30.22 12.98 30.34 12.43Q30.45 11.89 30.58 11.46L30.58 11.46L31.66 7.31L33.66 7.31L31.20 16ZM42.88 11.65L42.88 11.65Q42.88 13.81 41.76 14.98Q40.64 16.16 38.72 16.16L38.72 16.16Q37.54 16.16 36.61 15.63Q35.68 15.10 35.15 14.10Q34.62 13.09 34.62 11.65L34.62 11.65Q34.62 9.49 35.74 8.33Q36.85 7.17 38.77 7.17L38.77 7.17Q39.97 7.17 40.90 7.69Q41.82 8.21 42.35 9.21Q42.88 10.21 42.88 11.65ZM36.69 11.65L36.69 11.65Q36.69 13.02 37.18 13.78Q37.66 14.53 38.75 14.53L38.75 14.53Q39.84 14.53 40.33 13.78Q40.82 13.02 40.82 11.65L40.82 11.65Q40.82 10.27 40.33 9.54Q39.84 8.80 38.74 8.80L38.74 8.80Q37.66 8.80 37.18 9.54Q36.69 10.27 36.69 11.65ZM49.50 7.17L49.50 7.17Q49.71 7.17 49.96 7.18Q50.21 7.20 50.38 7.25L50.38 7.25L50.21 9.12Q50.05 9.09 49.82 9.06Q49.60 9.04 49.42 9.04L49.42 9.04Q48.78 9.04 48.22 9.30Q47.66 9.57 47.32 10.12Q46.98 10.67 46.98 11.50L46.98 11.50L46.98 16L44.96 16L44.96 7.33L46.51 7.33L46.80 8.83L46.90 8.83Q47.28 8.14 47.95 7.66Q48.62 7.17 49.50 7.17ZM51.98 3.84L53.98 3.84L53.98 9.62Q53.98 10.03 53.95 10.50Q53.92 10.96 53.89 11.38L53.89 11.38L53.94 11.38Q54.13 11.09 54.42 10.72Q54.70 10.35 54.96 10.06L54.96 10.06L57.52 7.33L59.81 7.33L56.34 11.07L60.03 16L57.68 16L54.99 12.29L53.98 13.12L53.98 16L51.98 16L51.98 3.84ZM61.10 14.98L61.10 14.98Q61.10 14.30 61.46 14.02Q61.81 13.74 62.32 13.74L62.32 13.74Q62.82 13.74 63.18 14.02Q63.55 14.30 63.55 14.98L63.55 14.98Q63.55 15.63 63.18 15.92Q62.82 16.21 62.32 16.21L62.32 16.21Q61.81 16.21 61.46 15.92Q61.10 15.63 61.10 14.98ZM69.31 7.17L69.31 7.17Q70.99 7.17 71.86 7.90Q72.74 8.64 72.74 10.18L72.74 10.18L72.74 16L71.31 16L70.91 14.80L70.85 14.80Q70.29 15.50 69.66 15.83Q69.04 16.16 67.97 16.16L67.97 16.16Q66.80 16.16 66.03 15.50Q65.26 14.85 65.26 13.47L65.26 13.47Q65.26 12.13 66.25 11.46Q67.23 10.78 69.23 10.70L69.23 10.70L70.74 10.66L70.74 10.22Q70.74 9.41 70.34 9.05Q69.94 8.69 69.22 8.69L69.22 8.69Q68.56 8.69 67.96 8.88Q67.36 9.07 66.77 9.33L66.77 9.33L66.13 7.92Q66.77 7.58 67.59 7.38Q68.42 7.17 69.31 7.17ZM70.74 12.64L70.74 11.90L69.68 11.94Q68.35 11.98 67.84 12.39Q67.33 12.80 67.33 13.49L67.33 13.49Q67.33 14.11 67.69 14.38Q68.05 14.64 68.64 14.64L68.64 14.64Q69.52 14.64 70.13 14.14Q70.74 13.63 70.74 12.64L70.74 12.64ZM79.90 7.17L79.90 7.17Q81.36 7.17 82.18 7.92Q83.01 8.67 83.01 10.35L83.01 10.35L83.01 16L80.99 16L80.99 10.75Q80.99 8.80 79.39 8.80L79.39 8.80Q78.18 8.80 77.73 9.57Q77.28 10.34 77.28 11.76L77.28 11.76L77.28 16L75.26 16L75.26 7.33L76.82 7.33L77.10 8.46L77.22 8.46Q77.63 7.79 78.36 7.48Q79.09 7.17 79.90 7.17ZM88.40 16.16L88.40 16.16Q86.88 16.16 85.95 15.02Q85.02 13.89 85.02 11.68L85.02 11.68Q85.02 9.44 85.97 8.30Q86.91 7.17 88.45 7.17L88.45 7.17Q89.41 7.17 90.02 7.54Q90.64 7.90 91.01 8.43L91.01 8.43L91.10 8.43Q91.06 8.21 91.01 7.74Q90.96 7.28 90.96 6.88L90.96 6.88L90.96 3.84L92.98 3.84L92.98 16L91.41 16L91.04 14.86L90.96 14.86Q90.59 15.41 89.98 15.78Q89.38 16.16 88.40 16.16ZM89.01 14.53L89.01 14.53Q90.13 14.53 90.58 13.89Q91.04 13.25 91.06 11.95L91.06 11.95L91.06 11.70Q91.06 10.30 90.62 9.56Q90.18 8.82 88.98 8.82L88.98 8.82Q88.05 8.82 87.56 9.58Q87.07 10.34 87.07 11.71L87.07 11.71Q87.07 13.09 87.57 13.81Q88.06 14.53 89.01 14.53ZM105.46 4.58L105.46 16L102.91 16L97.50 7.04L97.44 7.04Q97.49 7.76 97.53 8.58Q97.57 9.41 97.58 10.24L97.58 10.24L97.58 16L95.74 16L95.74 4.58L98.27 4.58L103.66 13.47L103.71 13.47Q103.68 12.83 103.65 12Q103.62 11.17 103.60 10.38L103.60 10.38L103.60 4.58L105.46 4.58ZM107.58 11.62L107.58 11.62Q107.58 9.66 108.15 7.85Q108.72 6.03 109.94 4.58L109.94 4.58L111.65 4.58Q110.54 6.08 109.98 7.89Q109.42 9.70 109.42 11.60L109.42 11.60Q109.42 13.46 109.98 15.25Q110.54 17.04 111.63 18.53L111.63 18.53L109.94 18.53Q108.72 17.12 108.15 15.34Q107.58 13.55 107.58 11.62ZM119.33 13.49L119.33 13.49Q119.33 14.80 118.39 15.48Q117.46 16.16 115.71 16.16L115.71 16.16Q114.80 16.16 114.15 16.03Q113.50 15.90 112.90 15.63L112.90 15.63L112.90 13.92Q113.54 14.22 114.31 14.43Q115.09 14.64 115.78 14.64L115.78 14.64Q116.61 14.64 116.98 14.38Q117.34 14.13 117.34 13.70L117.34 13.70Q117.34 13.44 117.20 13.24Q117.06 13.04 116.63 12.80Q116.21 12.56 115.38 12.21L115.38 12.21Q114.54 11.89 113.99 11.54Q113.44 11.20 113.16 10.74Q112.88 10.27 112.88 9.54L112.88 9.54Q112.88 8.37 113.80 7.77Q114.72 7.17 116.26 7.17L116.26 7.17Q117.06 7.17 117.77 7.33Q118.48 7.49 119.20 7.81L119.20 7.81L118.56 9.30Q117.95 9.04 117.38 8.86Q116.80 8.69 116.19 8.69L116.19 8.69Q114.86 8.69 114.86 9.44L114.86 9.44Q114.86 9.71 115.03 9.90Q115.20 10.10 115.62 10.31Q116.05 10.53 116.83 10.83L116.83 10.83Q117.60 11.14 118.16 11.46Q118.72 11.79 119.02 12.27Q119.33 12.75 119.33 13.49ZM123.44 15.97L119.97 7.33L122.16 7.33L123.89 12.22Q124.06 12.69 124.18 13.14Q124.29 13.58 124.34 14.05L124.34 14.05L124.40 14.05Q124.46 13.65 124.59 13.17Q124.72 12.69 124.88 12.22L124.88 12.22L126.54 7.33L128.72 7.33L125.02 17.15Q124.53 18.45 123.67 19.14Q122.82 19.84 121.57 19.84L121.57 19.84Q121.17 19.84 120.88 19.80Q120.59 19.76 120.37 19.71L120.37 19.71L120.37 18.11Q120.54 18.14 120.79 18.18Q121.04 18.21 121.31 18.21L121.31 18.21Q122.06 18.21 122.50 17.77Q122.94 17.33 123.18 16.67L123.18 16.67L123.44 15.97ZM134.66 7.17L134.66 7.17Q136.11 7.17 136.94 7.92Q137.76 8.67 137.76 10.35L137.76 10.35L137.76 16L135.74 16L135.74 10.75Q135.74 8.80 134.14 8.80L134.14 8.80Q132.93 8.80 132.48 9.57Q132.03 10.34 132.03 11.76L132.03 11.76L132.03 16L130.02 16L130.02 7.33L131.57 7.33L131.86 8.46L131.97 8.46Q132.38 7.79 133.11 7.48Q133.84 7.17 134.66 7.17ZM143.65 14.54L143.65 14.54Q144.02 14.54 144.38 14.47Q144.74 14.40 145.04 14.30L145.04 14.30L145.04 15.81Q144.72 15.95 144.21 16.06Q143.70 16.16 143.14 16.16L143.14 16.16Q142.40 16.16 141.79 15.91Q141.18 15.66 140.83 15.06Q140.48 14.45 140.48 13.36L140.48 13.36L140.48 8.85L139.31 8.85L139.31 7.97L140.59 7.26L141.23 5.42L142.50 5.42L142.50 7.33L144.96 7.33L144.96 8.85L142.50 8.85L142.50 13.34Q142.50 13.95 142.82 14.25Q143.14 14.54 143.65 14.54ZM146.78 3.84L148.80 3.84L148.80 6.74Q148.80 7.25 148.76 7.74Q148.72 8.22 148.69 8.46L148.69 8.46L148.82 8.46Q149.23 7.81 149.90 7.49Q150.58 7.17 151.39 7.17L151.39 7.17Q152.86 7.17 153.70 7.92Q154.53 8.67 154.53 10.35L154.53 10.35L154.53 16L152.51 16L152.51 10.75Q152.51 8.80 150.91 8.80L150.91 8.80Q149.70 8.80 149.25 9.57Q148.80 10.34 148.80 11.76L148.80 11.76L148.80 16L146.78 16L146.78 3.84ZM160.30 11.62L160.30 11.62Q160.30 13.55 159.74 15.34Q159.17 17.12 157.95 18.53L157.95 18.53L156.26 18.53Q157.34 17.04 157.91 15.25Q158.48 13.46 158.48 11.60L158.48 11.60Q158.48 9.70 157.91 7.89Q157.34 6.08 156.24 4.58L156.24 4.58L157.95 4.58Q159.17 6.03 159.74 7.85Q160.30 9.66 160.30 11.62Z" class="sprotty-block-name" style="fill:rgb(48, 48, 48);stroke:rgba(0, 0, 0, 0);"/><line x1="0" y1="20" x2="181.50526428222656" y2="20"/></g><g id="sprotty_ArchitectureBlockImpl$work.andN(synth)/GPortImpl$a_to_ArchitectureBlockImpl$work.andN(synth)/AssignmentBlockImpl$null4/GPortImpl$a" class="sprotty-edge thick edge" style="fill:none;stroke:rgb(112, 112, 112);stroke-linejoin:round;stroke-width:3px;"><path d="M 0 80 L 41.461299896240234 80 C 42.461299896240234 80 43.461299896240234 81 43.461299896240234 82 L 43.461299896240234 143 C 43.461299896240234 144 44.461299896240234 145 45.461299896240234 145 L 53.461299896240234 145 "/><circle r="3" id="sprotty_ArchitectureBlockImpl$work.andN(synth)/GPortImpl$a_to_ArchitectureBlockImpl$work.andN(synth)/AssignmentBlockImpl$null4/GPortImpl$a/junction0" transform="translate(43.461299896240234, 80)" class="sprotty-junction thick" style="fill:rgb(112, 112, 112);stroke:none;"/></g><g id="sprotty_ArchitectureBlockImpl$work.andN(synth)/GPortImpl$a_to_ArchitectureBlockImpl$work.andN(synth)/GenerateStatementBlockImpl$gen/GPortImpl$a" class="sprotty-edge thick edge" style="fill:none;stroke:rgb(112, 112, 112);stroke-linejoin:round;stroke-width:3px;"><path d="M 0 80 L 91.09178161621094 80 "/></g><g id="sprotty_ArchitectureBlockImpl$work.andN(synth)/AssignmentBlockImpl$null4/GPortImpl$x_to_ArchitectureBlockImpl$work.andN(synth)/GenerateStatementBlockImpl$gen/GPortImpl$x" class="sprotty-edge thick edge" style="fill:none;stroke:rgb(112, 112, 112);stroke-linejoin:round;stroke-width:3px;"><path d="M 71.0917797088623 145 L 79.09178161621094 145 C 80.09178161621094 145 81.09178161621094 144 81.09178161621094 143 L 81.09178161621094 102 C 81.09178161621094 101 82.09178161621094 100 83.09178161621094 100 L 91.09178161621094 100 "/><circle r="3" id="sprotty_ArchitectureBlockImpl$work.andN(synth)/AssignmentBlockImpl$null4/GPortImpl$x_to_ArchitectureBlockImpl$work.andN(synth)/GenerateStatementBlockImpl$gen/GPortImpl$x/junction0" transform="translate(81.09178161621094, 145)" class="sprotty-junction thick" style="fill:rgb(112, 112, 112);stroke:none;"/></g><g id="sprotty_ArchitectureBlockImpl$work.andN(synth)/AssignmentBlockImpl$null4/GPortImpl$x_to_ArchitectureBlockImpl$work.andN(synth)/AssignmentBlockImpl$null2/GPortImpl$x" class="sprotty-edge thick edge" style="fill:none;stroke:rgb(112, 112, 112);stroke-linejoin:round;stroke-width:3px;"><path d="M 71.0917797088623 145 L 111.09178161621094 145 "/></g><g id="sprotty_ArchitectureBlockImpl$work.andN(synth)/AssignmentBlockImpl$null2/GPortImpl$y_to_ArchitectureBlockImpl$work.andN(synth)/GPortImpl$y" class="sprotty-edge edge" style="fill:none;stroke:rgb(112, 112, 112);stroke-linejoin:round;"><path d="M 128.722261428833 145 L 181.50526428222656 145 "/></g><g id="sprotty_ArchitectureBlockImpl$work.andN(synth)/AssignmentBlockImpl$null2" transform="translate(111.09178161621094, 135)" class="statement"><rect x="0" y="0" rx="10" ry="5" width="17.63047981262207" height="20" class="sprotty-node" style="fill:rgb(245, 245, 245);stroke:rgb(112, 112, 112);"/><g id="sprotty_ArchitectureBlockImpl$work.andN(synth)/AssignmentBlockImpl$null2/label" transform="translate(5, 8.28515625) translate(0, 0.700526237487793)" class="sprotty-label statement" style="cursor:default;fill:rgb(48, 48, 48);font-family:Arial, Helvetica, sans-serif;text-anchor:middle;"><path d="M3.50-1.39L3.50-0.70L0.31-2.11L0.31-2.53L3.50-4.13L3.50-3.44L1.17-2.35L3.50-1.39ZM7.30-2.68L4.14-2.68L4.14-3.30L7.30-3.30L7.30-2.68ZM7.30-1.39L4.14-1.39L4.14-2.01L7.30-2.01L7.30-1.39Z" transform="translate(0, 3.42838)"/><rect x="0" y="-0.7003499999999999" width="7.6304799999999995" height="3.42838" class="clickable" style="cursor:pointer;fill:rgba(0, 0, 0, 0);fill-opacity:0;stroke-width:0px;"/></g><g id="sprotty_ArchitectureBlockImpl$work.andN(synth)/AssignmentBlockImpl$null2/GPortImpl$x" transform="translate(0, 10)" class="sprotty-hidden hidden" style="display:block;height:0px;width:0px;"/><g id="sprotty_ArchitectureBlockImpl$work.andN(synth)/AssignmentBlockImpl$null2/GPortImpl$y" transform="translate(17.63047981262207, 10)" class="sprotty-hidden hidden" style="display:block;height:0px;width:0px;"/></g><g id="sprotty_ArchitectureBlockImpl$work.andN(synth)/GenerateStatementBlockImpl$gen" transform="translate(91.09178161621094, 35)" class="generate"><g class="sprotty-block sprotty-block-generate" style="fill:rgb(245, 245, 245);stroke:rgb(48, 48, 48);stroke-dasharray:0px;"><rect x="0" y="0" rx="1" ry="1" width="57.63047981262207" height="80" style="stroke-dasharray:3px, 1px;"/><path d="M18.23 7.17L18.23 7.17Q19.88 7.17 20.81 8.45L20.81 8.45L20.89 8.45L21.08 7.33L22.76 7.33L22.76 16.06Q22.76 17.92 21.71 18.88Q20.66 19.84 18.58 19.84L18.58 19.84Q17.66 19.84 16.87 19.72Q16.09 19.60 15.38 19.31L15.38 19.31L15.38 17.65Q16.87 18.32 18.71 18.32L18.71 18.32Q19.70 18.32 20.22 17.77Q20.74 17.22 20.74 16.16L20.74 16.16L20.74 15.94Q20.74 15.70 20.76 15.38Q20.78 15.06 20.81 14.86L20.81 14.86L20.74 14.86Q20.30 15.54 19.65 15.85Q19.00 16.16 18.18 16.16L18.18 16.16Q16.60 16.16 15.70 14.98Q14.81 13.79 14.81 11.68L14.81 11.68Q14.81 9.57 15.71 8.37Q16.62 7.17 18.23 7.17ZM18.76 8.82L18.76 8.82Q16.87 8.82 16.87 11.71L16.87 11.71Q16.87 14.56 18.79 14.56L18.79 14.56Q19.85 14.56 20.35 13.98Q20.86 13.39 20.86 12L20.86 12L20.86 11.70Q20.86 10.16 20.35 9.49Q19.85 8.82 18.76 8.82ZM28.82 7.17L28.82 7.17Q30.57 7.17 31.58 8.21Q32.60 9.25 32.60 11.10L32.60 11.10L32.60 12.13L26.87 12.13Q26.90 13.31 27.53 13.96Q28.15 14.61 29.26 14.61L29.26 14.61Q30.09 14.61 30.76 14.44Q31.43 14.27 32.14 13.95L32.14 13.95L32.14 15.57Q31.50 15.87 30.81 16.02Q30.12 16.16 29.16 16.16L29.16 16.16Q27.90 16.16 26.91 15.67Q25.93 15.18 25.38 14.19Q24.82 13.20 24.82 11.73L24.82 11.73Q24.82 9.50 25.93 8.34Q27.03 7.17 28.82 7.17ZM28.82 8.66L28.82 8.66Q28.01 8.66 27.50 9.18Q27.00 9.70 26.92 10.72L26.92 10.72L30.65 10.72Q30.63 9.82 30.19 9.24Q29.75 8.66 28.82 8.66ZM39.27 7.17L39.27 7.17Q40.73 7.17 41.55 7.92Q42.38 8.67 42.38 10.35L42.38 10.35L42.38 16L40.36 16L40.36 10.75Q40.36 8.80 38.76 8.80L38.76 8.80Q37.54 8.80 37.10 9.57Q36.65 10.34 36.65 11.76L36.65 11.76L36.65 16L34.63 16L34.63 7.33L36.18 7.33L36.47 8.46L36.58 8.46Q37.00 7.79 37.73 7.48Q38.46 7.17 39.27 7.17Z" class="sprotty-block-name" style="fill:rgb(48, 48, 48);stroke:rgba(0, 0, 0, 0);"/><line x1="0" y1="20" x2="57.63047981262207" y2="20" style="stroke-dasharray:3px, 1px;"/></g><g id="sprotty_ArchitectureBlockImpl$work.andN(synth)/GenerateStatementBlockImpl$gen/GPortImpl$a_to_ArchitectureBlockImpl$work.andN(synth)/GenerateStatementBlockImpl$gen/AssignmentBlockImpl$null2/GPortImpl$a" class="sprotty-edge thick edge" style="fill:none;stroke:rgb(112, 112, 112);stroke-linejoin:round;stroke-width:3px;"><path d="M 0 45 L 15 45 "/></g><g id="sprotty_ArchitectureBlockImpl$work.andN(synth)/GenerateStatementBlockImpl$gen/GPortImpl$x_to_ArchitectureBlockImpl$work.andN(synth)/GenerateStatementBlockImpl$gen/AssignmentBlockImpl$null2/GPortImpl$x" class="sprotty-edge thick edge" style="fill:none;stroke:rgb(112, 112, 112);stroke-linejoin:round;stroke-width:3px;"><path d="M 0 65 L 40.63047981262207 65 C 41.63047981262207 65 42.63047981262207 64 42.63047981262207 63 L 42.63047981262207 47 C 42.63047981262207 46 41.63047981262207 45 40.63047981262207 45 L 32.63047981262207 45 "/></g><g id="sprotty_ArchitectureBlockImpl$work.andN(synth)/GenerateStatementBlockImpl$gen/AssignmentBlockImpl$null2" transform="translate(15, 35)" class="statement"><rect x="0" y="0" rx="10" ry="5" width="17.63047981262207" height="20" class="sprotty-node" style="fill:rgb(245, 245, 245);stroke:rgb(112, 112, 112);"/><g id="sprotty_ArchitectureBlockImpl$work.andN(synth)/GenerateStatementBlockImpl$gen/AssignmentBlockImpl$null2/label" transform="translate(5, 8.28515625) translate(0, 0.700526237487793)" class="sprotty-label statement" style="cursor:default;fill:rgb(48, 48, 48);font-family:Arial, Helvetica, sans-serif;text-anchor:middle;"><path d="M3.50-1.39L3.50-0.70L0.31-2.11L0.31-2.53L3.50-4.13L3.50-3.44L1.17-2.35L3.50-1.39ZM7.30-2.68L4.14-2.68L4.14-3.30L7.30-3.30L7.30-2.68ZM7.30-1.39L4.14-1.39L4.14-2.01L7.30-2.01L7.30-1.39Z" transform="translate(0, 3.42838)"/><rect x="0" y="-0.7003499999999999" width="7.6304799999999995" height="3.42838" class="clickable" style="cursor:pointer;fill:rgba(0, 0, 0, 0);fill-opacity:0;stroke-width:0px;"/></g><g id="sprotty_ArchitectureBlockImpl$work.andN(synth)/GenerateStatementBlockImpl$gen/AssignmentBlockImpl$null2/GPortImpl$a" transform="translate(0, 10)" class="sprotty-hidden hidden" style="display:block;height:0px;width:0px;"/><g id="sprotty_ArchitectureBlockImpl$work.andN(synth)/GenerateStatementBlockImpl$gen/AssignmentBlockImpl$null2/GPortImpl$x" transform="translate(17.63047981262207, 10)" class="sprotty-hidden hidden" style="display:block;height:0px;width:0px;"/></g><g id="sprotty_ArchitectureBlockImpl$work.andN(synth)/GenerateStatementBlockImpl$gen/GPortImpl$x" transform="translate(0, 65)" class="triangle"><path d="M 0,0 L 5,2.5 L 0,5 Z" transform="translate(-1.67, -2.5)" class="sprotty-port" style="fill:rgb(48, 48, 48);stroke:rgb(48, 48, 48);"/></g><g id="sprotty_ArchitectureBlockImpl$work.andN(synth)/GenerateStatementBlockImpl$gen/GPortImpl$a" transform="translate(0, 45)" class="triangle"><path d="M 0,0 L 5,2.5 L 0,5 Z" transform="translate(-1.67, -2.5)" class="sprotty-port" style="fill:rgb(48, 48, 48);stroke:rgb(48, 48, 48);"/></g></g><g id="sprotty_ArchitectureBlockImpl$work.andN(synth)/AssignmentBlockImpl$null4" transform="translate(53.461299896240234, 135)" class="statement"><rect x="0" y="0" rx="10" ry="5" width="17.63047981262207" height="20" class="sprotty-node" style="fill:rgb(245, 245, 245);stroke:rgb(112, 112, 112);"/><g id="sprotty_ArchitectureBlockImpl$work.andN(synth)/AssignmentBlockImpl$null4/label" transform="translate(5, 8.28515625) translate(0, 0.700526237487793)" class="sprotty-label statement" style="cursor:default;fill:rgb(48, 48, 48);font-family:Arial, Helvetica, sans-serif;text-anchor:middle;"><path d="M3.50-1.39L3.50-0.70L0.31-2.11L0.31-2.53L3.50-4.13L3.50-3.44L1.17-2.35L3.50-1.39ZM7.30-2.68L4.14-2.68L4.14-3.30L7.30-3.30L7.30-2.68ZM7.30-1.39L4.14-1.39L4.14-2.01L7.30-2.01L7.30-1.39Z" transform="translate(0, 3.42838)"/><rect x="0" y="-0.7003499999999999" width="7.6304799999999995" height="3.42838" class="clickable" style="cursor:pointer;fill:rgba(0, 0, 0, 0);fill-opacity:0;stroke-width:0px;"/></g><g id="sprotty_ArchitectureBlockImpl$work.andN(synth)/AssignmentBlockImpl$null4/GPortImpl$a" transform="translate(0, 10)" class="sprotty-hidden hidden" style="display:block;height:0px;width:0px;"/><g id="sprotty_ArchitectureBlockImpl$work.andN(synth)/AssignmentBlockImpl$null4/GPortImpl$x" transform="translate(17.63047981262207, 10)" class="sprotty-hidden hidden" style="display:block;height:0px;width:0px;"/></g><g id="sprotty_ArchitectureBlockImpl$work.andN(synth)/GPortImpl$a" transform="translate(0, 80)" class="triangle"><path d="M 0,0 L 5,2.5 L 0,5 Z" transform="translate(-1.67, -2.5)" class="sprotty-port" style="fill:rgb(48, 48, 48);stroke:rgb(48, 48, 48);"/><g class="port sprotty-label" id="sprotty_ArchitectureBlockImpl$work.andN(synth)/GPortImpl$a/label" transform="translate(3, 3) translate(0, -0.13300000131130219)" style="cursor:default;fill:rgb(48, 48, 48);font-family:Arial, Helvetica, sans-serif;text-anchor:middle;"><path d="M2.86 0.13L2.86 0.13Q1.89 0.13 1.25-0.38Q0.61-0.89 0.61-1.98L0.61-1.98Q0.61-3.05 1.45-3.62Q2.29-4.20 4.03-4.26L4.03-4.26L5.24-4.30L5.24-4.72Q5.24-5.61 4.85-5.96Q4.47-6.30 3.76-6.30L3.76-6.30Q3.21-6.30 2.70-6.14Q2.19-5.97 1.76-5.76L1.76-5.76L1.40-6.64Q1.86-6.89 2.50-7.07Q3.14-7.25 3.83-7.25L3.83-7.25Q5.13-7.25 5.76-6.68Q6.38-6.10 6.38-4.85L6.38-4.85L6.38 0L5.53 0L5.31-1.01L5.25-1.01Q4.79-0.43 4.28-0.15Q3.76 0.13 2.86 0.13ZM3.13-0.81L3.13-0.81Q4.03-0.81 4.63-1.31Q5.23-1.81 5.23-2.85L5.23-2.85L5.23-3.48L4.18-3.44Q2.85-3.39 2.33-3.02Q1.82-2.65 1.82-1.97L1.82-1.97Q1.82-1.37 2.19-1.09Q2.55-0.81 3.13-0.81Z" transform="translate(4, 9.3815)"/><rect x="0" y="0.133" width="15.461300000000001" height="11.3815" class="clickable" style="cursor:pointer;fill:rgba(0, 0, 0, 0);fill-opacity:0;stroke-width:0px;"/></g></g><g id="sprotty_ArchitectureBlockImpl$work.andN(synth)/GPortImpl$y" transform="translate(181.50526428222656, 145)" class="triangle"><path d="M 0,0 L 5,2.5 L 0,5 Z" transform="translate(-1.67, -2.5)" class="sprotty-port" style="fill:rgb(48, 48, 48);stroke:rgb(48, 48, 48);"/><g class="port sprotty-label" id="sprotty_ArchitectureBlockImpl$work.andN(synth)/GPortImpl$y/label" transform="translate(-17.782999992370605, 3) translate(0, -3.191999912261963)" style="cursor:default;fill:rgb(48, 48, 48);font-family:Arial, Helvetica, sans-serif;text-anchor:middle;"><path d="M1.12 3.19L1.12 3.19Q0.80 3.19 0.56 3.16Q0.32 3.13 0.15 3.09L0.15 3.09L0.15 2.15Q0.29 2.18 0.50 2.21Q0.70 2.23 0.93 2.23L0.93 2.23Q1.54 2.23 1.92 1.89Q2.29 1.54 2.51 0.97L2.51 0.97L2.89 0.03L0.01-7.13L1.26-7.13L2.81-3.07Q3.01-2.54 3.17-2.05Q3.33-1.57 3.40-1.13L3.40-1.13L3.46-1.13Q3.54-1.46 3.70-2.00Q3.87-2.54 4.07-3.09L4.07-3.09L5.52-7.13L6.78-7.13L3.71 0.98Q3.34 2.00 2.75 2.59Q2.15 3.19 1.12 3.19Z" transform="translate(4, 12.320800000000002)"/><rect x="0" y="3.192" width="14.783000000000001" height="14.320800000000002" class="clickable" style="cursor:pointer;fill:rgba(0, 0, 0, 0);fill-opacity:0;stroke-width:0px;"/></g></g></g></g></svg>