<svg xmlns="http://www.w3.org/2000/svg" id="sprotty_andN_tb" class="sprotty-graph sprotty-block-diagram blockdiagram" style="font-family:&quot;Helvetica Neue&quot;, Helvetica, Arial, sans-serif;line-height:18px;perspective-origin:0px 0px;transform-origin:0px 0px;z-index:0;" version="1.1" viewBox="9.5 12 229.6931591796875 108.32080078125"><g transform="scale(1) translate(0,0)"><g id="sprotty_ArchitectureBlockImpl$work.andN_tb(RTL)" transform="translate(12, 12)" class="architecture"><g class="sprotty-block" style="fill:rgb(245, 245, 245);stroke:rgb(48, 48, 48);stroke-dasharray:0px;"><rect x="0" y="0" rx="1" ry="1" width="222.8631591796875" height="108.32080078125"/><path d="M47.93 16L45.69 16L44.73 12.27Q44.65 11.97 44.54 11.51Q44.42 11.06 44.30 10.56Q44.18 10.06 44.09 9.65Q43.99 9.23 43.94 9.01L43.94 9.01L43.88 9.01Q43.83 9.23 43.74 9.65Q43.64 10.06 43.53 10.57Q43.42 11.07 43.30 11.53Q43.18 11.98 43.10 12.29L43.10 12.29L42.09 16L39.88 16L37.45 7.31L39.48 7.31L40.55 11.46Q40.66 11.89 40.77 12.41Q40.87 12.93 40.94 13.42Q41.02 13.90 41.06 14.21L41.06 14.21L41.13 14.21Q41.16 13.92 41.25 13.42Q41.34 12.93 41.43 12.46Q41.53 11.98 41.59 11.74L41.59 11.74L42.84 7.31L45.05 7.31L46.25 11.74Q46.31 12.03 46.42 12.50Q46.52 12.96 46.60 13.43Q46.68 13.90 46.70 14.19L46.70 14.19L46.76 14.19Q46.79 13.94 46.87 13.46Q46.95 12.98 47.06 12.43Q47.18 11.89 47.30 11.46L47.30 11.46L48.39 7.31L50.39 7.31L47.93 16ZM59.61 11.65L59.61 11.65Q59.61 13.81 58.49 14.98Q57.37 16.16 55.45 16.16L55.45 16.16Q54.26 16.16 53.34 15.63Q52.41 15.10 51.88 14.10Q51.35 13.09 51.35 11.65L51.35 11.65Q51.35 9.49 52.46 8.33Q53.58 7.17 55.50 7.17L55.50 7.17Q56.70 7.17 57.62 7.69Q58.55 8.21 59.08 9.21Q59.61 10.21 59.61 11.65ZM53.42 11.65L53.42 11.65Q53.42 13.02 53.90 13.78Q54.39 14.53 55.48 14.53L55.48 14.53Q56.57 14.53 57.06 13.78Q57.54 13.02 57.54 11.65L57.54 11.65Q57.54 10.27 57.06 9.54Q56.57 8.80 55.46 8.80L55.46 8.80Q54.39 8.80 53.90 9.54Q53.42 10.27 53.42 11.65ZM66.23 7.17L66.23 7.17Q66.44 7.17 66.69 7.18Q66.94 7.20 67.11 7.25L67.11 7.25L66.94 9.12Q66.78 9.09 66.55 9.06Q66.33 9.04 66.15 9.04L66.15 9.04Q65.51 9.04 64.95 9.30Q64.39 9.57 64.05 10.12Q63.70 10.67 63.70 11.50L63.70 11.50L63.70 16L61.69 16L61.69 7.33L63.24 7.33L63.53 8.83L63.62 8.83Q64.01 8.14 64.68 7.66Q65.35 7.17 66.23 7.17ZM68.71 3.84L70.71 3.84L70.71 9.62Q70.71 10.03 70.68 10.50Q70.65 10.96 70.62 11.38L70.62 11.38L70.66 11.38Q70.86 11.09 71.14 10.72Q71.43 10.35 71.69 10.06L71.69 10.06L74.25 7.33L76.54 7.33L73.06 11.07L76.76 16L74.41 16L71.72 12.29L70.71 13.12L70.71 16L68.71 16L68.71 3.84ZM77.83 14.98L77.83 14.98Q77.83 14.30 78.18 14.02Q78.54 13.74 79.05 13.74L79.05 13.74Q79.54 13.74 79.91 14.02Q80.28 14.30 80.28 14.98L80.28 14.98Q80.28 15.63 79.91 15.92Q79.54 16.21 79.05 16.21L79.05 16.21Q78.54 16.21 78.18 15.92Q77.83 15.63 77.83 14.98ZM86.04 7.17L86.04 7.17Q87.72 7.17 88.59 7.90Q89.46 8.64 89.46 10.18L89.46 10.18L89.46 16L88.04 16L87.64 14.80L87.58 14.80Q87.02 15.50 86.39 15.83Q85.77 16.16 84.70 16.16L84.70 16.16Q83.53 16.16 82.76 15.50Q81.99 14.85 81.99 13.47L81.99 13.47Q81.99 12.13 82.98 11.46Q83.96 10.78 85.96 10.70L85.96 10.70L87.46 10.66L87.46 10.22Q87.46 9.41 87.06 9.05Q86.66 8.69 85.94 8.69L85.94 8.69Q85.29 8.69 84.69 8.88Q84.09 9.07 83.50 9.33L83.50 9.33L82.86 7.92Q83.50 7.58 84.32 7.38Q85.14 7.17 86.04 7.17ZM87.46 12.64L87.46 11.90L86.41 11.94Q85.08 11.98 84.57 12.39Q84.06 12.80 84.06 13.49L84.06 13.49Q84.06 14.11 84.42 14.38Q84.78 14.64 85.37 14.64L85.37 14.64Q86.25 14.64 86.86 14.14Q87.46 13.63 87.46 12.64L87.46 12.64ZM96.63 7.17L96.63 7.17Q98.09 7.17 98.91 7.92Q99.74 8.67 99.74 10.35L99.74 10.35L99.74 16L97.72 16L97.72 10.75Q97.72 8.80 96.12 8.80L96.12 8.80Q94.90 8.80 94.46 9.57Q94.01 10.34 94.01 11.76L94.01 11.76L94.01 16L91.99 16L91.99 7.33L93.54 7.33L93.83 8.46L93.94 8.46Q94.36 7.79 95.09 7.48Q95.82 7.17 96.63 7.17ZM105.13 16.16L105.13 16.16Q103.61 16.16 102.68 15.02Q101.75 13.89 101.75 11.68L101.75 11.68Q101.75 9.44 102.70 8.30Q103.64 7.17 105.18 7.17L105.18 7.17Q106.14 7.17 106.75 7.54Q107.37 7.90 107.74 8.43L107.74 8.43L107.83 8.43Q107.78 8.21 107.74 7.74Q107.69 7.28 107.69 6.88L107.69 6.88L107.69 3.84L109.70 3.84L109.70 16L108.14 16L107.77 14.86L107.69 14.86Q107.32 15.41 106.71 15.78Q106.10 16.16 105.13 16.16ZM105.74 14.53L105.74 14.53Q106.86 14.53 107.31 13.89Q107.77 13.25 107.78 11.95L107.78 11.95L107.78 11.70Q107.78 10.30 107.34 9.56Q106.90 8.82 105.70 8.82L105.70 8.82Q104.78 8.82 104.29 9.58Q103.80 10.34 103.80 11.71L103.80 11.71Q103.80 13.09 104.30 13.81Q104.79 14.53 105.74 14.53ZM122.18 4.58L122.18 16L119.64 16L114.23 7.04L114.17 7.04Q114.22 7.76 114.26 8.58Q114.30 9.41 114.31 10.24L114.31 10.24L114.31 16L112.47 16L112.47 4.58L115.00 4.58L120.39 13.47L120.44 13.47Q120.41 12.83 120.38 12Q120.34 11.17 120.33 10.38L120.33 10.38L120.33 4.58L122.18 4.58ZM130.47 17.44L130.47 18.50L123.64 18.50L123.64 17.44L130.47 17.44ZM135.10 14.54L135.10 14.54Q135.46 14.54 135.82 14.47Q136.18 14.40 136.49 14.30L136.49 14.30L136.49 15.81Q136.17 15.95 135.66 16.06Q135.14 16.16 134.58 16.16L134.58 16.16Q133.85 16.16 133.24 15.91Q132.63 15.66 132.28 15.06Q131.93 14.45 131.93 13.36L131.93 13.36L131.93 8.85L130.76 8.85L130.76 7.97L132.04 7.26L132.68 5.42L133.94 5.42L133.94 7.33L136.41 7.33L136.41 8.85L133.94 8.85L133.94 13.34Q133.94 13.95 134.26 14.25Q134.58 14.54 135.10 14.54ZM138.23 3.84L140.25 3.84L140.25 6.72Q140.25 7.23 140.22 7.71Q140.18 8.19 140.15 8.46L140.15 8.46L140.25 8.46Q140.60 7.92 141.21 7.54Q141.82 7.17 142.79 7.17L142.79 7.17Q144.30 7.17 145.23 8.30Q146.17 9.44 146.17 11.65L146.17 11.65Q146.17 13.89 145.22 15.02Q144.28 16.16 142.74 16.16L142.74 16.16Q141.77 16.16 141.18 15.81Q140.60 15.46 140.25 14.99L140.25 14.99L140.10 14.99L139.74 16L138.23 16L138.23 3.84ZM142.22 8.80L142.22 8.80Q141.13 8.80 140.70 9.46Q140.26 10.11 140.25 11.47L140.25 11.47L140.25 11.65Q140.25 13.04 140.67 13.78Q141.10 14.51 142.25 14.51L142.25 14.51Q143.14 14.51 143.62 13.77Q144.10 13.02 144.10 11.63L144.10 11.63Q144.10 10.21 143.62 9.50Q143.13 8.80 142.22 8.80ZM147.59 11.62L147.59 11.62Q147.59 9.66 148.16 7.85Q148.73 6.03 149.94 4.58L149.94 4.58L151.66 4.58Q150.55 6.08 149.99 7.89Q149.43 9.70 149.43 11.60L149.43 11.60Q149.43 13.46 149.99 15.25Q150.55 17.04 151.64 18.53L151.64 18.53L149.94 18.53Q148.73 17.12 148.16 15.34Q147.59 13.55 147.59 11.62ZM153.62 4.58L156.87 4.58Q159.13 4.58 160.21 5.41Q161.29 6.24 161.29 7.94L161.29 7.94Q161.29 8.77 160.98 9.36Q160.66 9.95 160.17 10.34Q159.67 10.74 159.10 10.98L159.10 10.98L162.38 16L160.07 16L157.34 11.49L155.67 11.49L155.67 16L153.62 16L153.62 4.58ZM156.74 6.29L156.74 6.29L155.67 6.29L155.67 9.81L156.81 9.81Q158.07 9.81 158.64 9.35Q159.21 8.90 159.21 8L159.21 8Q159.21 7.07 158.61 6.68Q158.01 6.29 156.74 6.29ZM168.06 6.30L168.06 16L166.01 16L166.01 6.30L162.73 6.30L162.73 4.58L171.34 4.58L171.34 6.30L168.06 6.30ZM179.90 16L173.08 16L173.08 4.58L175.13 4.58L175.13 14.27L179.90 14.27L179.90 16ZM184.94 11.62L184.94 11.62Q184.94 13.55 184.37 15.34Q183.80 17.12 182.58 18.53L182.58 18.53L180.89 18.53Q181.98 17.04 182.54 15.25Q183.11 13.46 183.11 11.60L183.11 11.60Q183.11 9.70 182.54 7.89Q181.98 6.08 180.87 4.58L180.87 4.58L182.58 4.58Q183.80 6.03 184.37 7.85Q184.94 9.66 184.94 11.62Z" class="sprotty-block-name" style="fill:rgb(48, 48, 48);stroke:rgba(0, 0, 0, 0);"/><line x1="0" y1="20" x2="222.8631591796875" y2="20"/></g><g id="sprotty_ArchitectureBlockImpl$work.andN_tb(RTL)/ProcessBlockImpl$stimulus/GPortImpl$a_to_ArchitectureBlockImpl$work.andN_tb(RTL)/InstantiationBlockImpl$DTU/BPortImpl$a" class="sprotty-edge thick edge" style="fill:none;stroke:rgb(112, 112, 112);stroke-linejoin:round;stroke-width:3px;"><path d="M 92.3280029296875 74.160400390625 L 112.3280029296875 74.160400390625 "/></g><g id="sprotty_ArchitectureBlockImpl$work.andN_tb(RTL)/ProcessBlockImpl$stimulus" transform="translate(15, 63.000244140625)" class="statement"><rect x="0" y="0" rx="10" ry="5" width="77.3280029296875" height="22.3203125" class="sprotty-node" style="fill:rgb(245, 245, 245);stroke:rgb(112, 112, 112);"/><g id="sprotty_ArchitectureBlockImpl$work.andN_tb(RTL)/ProcessBlockImpl$stimulus/label" transform="translate(5, 5) translate(0, -0.15984344482421875)" class="sprotty-label process" style="cursor:default;fill:rgb(48, 48, 48);font-family:Arial, Helvetica, sans-serif;text-anchor:middle;"><path d="M7.20-2.51L7.20-2.51Q7.20-1.20 6.26-0.52Q5.33 0.16 3.58 0.16L3.58 0.16Q2.67 0.16 2.02 0.03Q1.38-0.10 0.77-0.37L0.77-0.37L0.77-2.08Q1.41-1.78 2.18-1.57Q2.96-1.36 3.65-1.36L3.65-1.36Q4.48-1.36 4.85-1.62Q5.22-1.87 5.22-2.30L5.22-2.30Q5.22-2.56 5.07-2.76Q4.93-2.96 4.50-3.20Q4.08-3.44 3.25-3.79L3.25-3.79Q2.42-4.11 1.86-4.46Q1.31-4.80 1.03-5.26Q0.75-5.73 0.75-6.46L0.75-6.46Q0.75-7.63 1.67-8.23Q2.59-8.83 4.13-8.83L4.13-8.83Q4.93-8.83 5.64-8.67Q6.35-8.51 7.07-8.19L7.07-8.19L6.43-6.70Q5.82-6.96 5.25-7.14Q4.67-7.31 4.06-7.31L4.06-7.31Q2.74-7.31 2.74-6.56L2.74-6.56Q2.74-6.29 2.90-6.10Q3.07-5.90 3.50-5.69Q3.92-5.47 4.70-5.17L4.70-5.17Q5.47-4.86 6.03-4.54Q6.59-4.21 6.90-3.73Q7.20-3.25 7.20-2.51ZM12.50-1.46L12.50-1.46Q12.86-1.46 13.22-1.53Q13.58-1.60 13.89-1.70L13.89-1.70L13.89-0.19Q13.57-0.05 13.06 0.06Q12.54 0.16 11.98 0.16L11.98 0.16Q11.25 0.16 10.64-0.09Q10.03-0.34 9.68-0.94Q9.33-1.55 9.33-2.64L9.33-2.64L9.33-7.15L8.16-7.15L8.16-8.03L9.44-8.74L10.08-10.58L11.34-10.58L11.34-8.67L13.81-8.67L13.81-7.15L11.34-7.15L11.34-2.66Q11.34-2.05 11.66-1.75Q11.98-1.46 12.50-1.46ZM16.64-12.02L16.64-12.02Q17.10-12.02 17.43-11.78Q17.76-11.55 17.76-10.96L17.76-10.96Q17.76-10.37 17.43-10.13Q17.10-9.89 16.64-9.89L16.64-9.89Q16.18-9.89 15.85-10.13Q15.52-10.37 15.52-10.96L15.52-10.96Q15.52-11.55 15.85-11.78Q16.18-12.02 16.64-12.02ZM15.63-8.67L17.65-8.67L17.65 0L15.63 0L15.63-8.67ZM30.16-8.83L30.16-8.83Q31.63-8.83 32.38-8.08Q33.12-7.33 33.12-5.65L33.12-5.65L33.12 0L31.10 0L31.10-5.26Q31.10-7.20 29.63-7.20L29.63-7.20Q28.58-7.20 28.13-6.51Q27.68-5.82 27.68-4.51L27.68-4.51L27.68 0L25.66 0L25.66-5.26Q25.66-7.20 24.18-7.20L24.18-7.20Q23.07-7.20 22.66-6.43Q22.24-5.66 22.24-4.24L22.24-4.24L22.24 0L20.22 0L20.22-8.67L21.78-8.67L22.06-7.54L22.18-7.54Q22.56-8.21 23.26-8.52Q23.95-8.83 24.70-8.83L24.70-8.83Q25.68-8.83 26.34-8.50Q27.01-8.18 27.36-7.49L27.36-7.49L27.52-7.49Q27.92-8.19 28.64-8.51Q29.36-8.83 30.16-8.83ZM41.33-8.67L43.34-8.67L43.34 0L41.76 0L41.49-1.12L41.39-1.12Q40.96-0.45 40.23-0.14Q39.50 0.16 38.69 0.16L38.69 0.16Q37.23 0.16 36.41-0.59Q35.58-1.34 35.58-3.01L35.58-3.01L35.58-8.67L37.60-8.67L37.60-3.41Q37.60-1.47 39.20-1.47L39.20-1.47Q40.42-1.47 40.87-2.23Q41.33-2.99 41.33-4.43L41.33-4.43L41.33-8.67ZM47.94-12.16L47.94 0L45.92 0L45.92-12.16L47.94-12.16ZM56.19-8.67L58.21-8.67L58.21 0L56.62 0L56.35-1.12L56.26-1.12Q55.82-0.45 55.10-0.14Q54.37 0.16 53.55 0.16L53.55 0.16Q52.10 0.16 51.27-0.59Q50.45-1.34 50.45-3.01L50.45-3.01L50.45-8.67L52.46-8.67L52.46-3.41Q52.46-1.47 54.06-1.47L54.06-1.47Q55.28-1.47 55.74-2.23Q56.19-2.99 56.19-4.43L56.19-4.43L56.19-8.67ZM66.69-2.51L66.69-2.51Q66.69-1.20 65.75-0.52Q64.82 0.16 63.07 0.16L63.07 0.16Q62.16 0.16 61.51 0.03Q60.86-0.10 60.26-0.37L60.26-0.37L60.26-2.08Q60.90-1.78 61.67-1.57Q62.45-1.36 63.14-1.36L63.14-1.36Q63.97-1.36 64.34-1.62Q64.70-1.87 64.70-2.30L64.70-2.30Q64.70-2.56 64.56-2.76Q64.42-2.96 63.99-3.20Q63.57-3.44 62.74-3.79L62.74-3.79Q61.90-4.11 61.35-4.46Q60.80-4.80 60.52-5.26Q60.24-5.73 60.24-6.46L60.24-6.46Q60.24-7.63 61.16-8.23Q62.08-8.83 63.62-8.83L63.62-8.83Q64.42-8.83 65.13-8.67Q65.84-8.51 66.56-8.19L66.56-8.19L65.92-6.70Q65.31-6.96 64.74-7.14Q64.16-7.31 63.55-7.31L63.55-7.31Q62.22-7.31 62.22-6.56L62.22-6.56Q62.22-6.29 62.39-6.10Q62.56-5.90 62.98-5.69Q63.41-5.47 64.19-5.17L64.19-5.17Q64.96-4.86 65.52-4.54Q66.08-4.21 66.38-3.73Q66.69-3.25 66.69-2.51Z" transform="translate(0, 12.32)"/><rect x="0" y="0.16" width="67.328" height="12.32" class="clickable" style="cursor:pointer;fill:rgba(0, 0, 0, 0);fill-opacity:0;stroke-width:0px;"/></g><g id="sprotty_ArchitectureBlockImpl$work.andN_tb(RTL)/ProcessBlockImpl$stimulus/GPortImpl$a" transform="translate(77.3280029296875, 11.16015625)" class="sprotty-hidden hidden" style="display:block;height:0px;width:0px;"/></g><g id="sprotty_ArchitectureBlockImpl$work.andN_tb(RTL)/InstantiationBlockImpl$DTU" transform="translate(112.3280029296875, 35)" class="instantiation"><g class="sprotty-block" style="fill:rgb(245, 245, 245);stroke:rgb(48, 48, 48);stroke-dasharray:0px;"><rect x="0" y="0" rx="1" ry="1" width="95.53600000000002" height="58.32080078125"/><path d="M14.83 10.18L14.83 10.18Q14.83 13.07 13.22 14.54Q11.60 16 8.70 16L8.70 16L5.49 16L5.49 4.58L9.04 4.58Q10.80 4.58 12.10 5.22Q13.41 5.86 14.12 7.10Q14.83 8.34 14.83 10.18ZM12.69 10.24L12.69 10.24Q12.69 8.19 11.75 7.23Q10.82 6.27 9.04 6.27L9.04 6.27L7.54 6.27L7.54 14.29L8.77 14.29Q12.69 14.29 12.69 10.24ZM20.88 6.30L20.88 16L18.83 16L18.83 6.30L15.55 6.30L15.55 4.58L24.16 4.58L24.16 6.30L20.88 6.30ZM32.93 4.58L34.96 4.58L34.96 11.97Q34.96 13.15 34.46 14.10Q33.95 15.06 32.93 15.61Q31.90 16.16 30.34 16.16L30.34 16.16Q28.11 16.16 26.96 15Q25.81 13.84 25.81 11.94L25.81 11.94L25.81 4.58L27.86 4.58L27.86 11.73Q27.86 13.14 28.50 13.78Q29.14 14.42 30.40 14.42L30.40 14.42Q31.73 14.42 32.33 13.72Q32.93 13.02 32.93 11.71L32.93 11.71L32.93 4.58ZM41.54 8.38L41.54 8.38Q41.54 7.70 41.89 7.42Q42.24 7.14 42.75 7.14L42.75 7.14Q43.25 7.14 43.62 7.42Q43.98 7.70 43.98 8.38L43.98 8.38Q43.98 9.04 43.62 9.33Q43.25 9.62 42.75 9.62L42.75 9.62Q42.24 9.62 41.89 9.33Q41.54 9.04 41.54 8.38ZM41.54 14.98L41.54 14.98Q41.54 14.30 41.89 14.02Q42.24 13.74 42.75 13.74L42.75 13.74Q43.25 13.74 43.62 14.02Q43.98 14.30 43.98 14.98L43.98 14.98Q43.98 15.63 43.62 15.92Q43.25 16.21 42.75 16.21L42.75 16.21Q42.24 16.21 41.89 15.92Q41.54 15.63 41.54 14.98ZM53.90 7.17L53.90 7.17Q55.58 7.17 56.46 7.90Q57.33 8.64 57.33 10.18L57.33 10.18L57.33 16L55.90 16L55.50 14.80L55.44 14.80Q54.88 15.50 54.26 15.83Q53.63 16.16 52.56 16.16L52.56 16.16Q51.39 16.16 50.62 15.50Q49.86 14.85 49.86 13.47L49.86 13.47Q49.86 12.13 50.84 11.46Q51.82 10.78 53.82 10.70L53.82 10.70L55.33 10.66L55.33 10.22Q55.33 9.41 54.93 9.05Q54.53 8.69 53.81 8.69L53.81 8.69Q53.15 8.69 52.55 8.88Q51.95 9.07 51.36 9.33L51.36 9.33L50.72 7.92Q51.36 7.58 52.18 7.38Q53.01 7.17 53.90 7.17ZM55.33 12.64L55.33 11.90L54.27 11.94Q52.94 11.98 52.43 12.39Q51.92 12.80 51.92 13.49L51.92 13.49Q51.92 14.11 52.28 14.38Q52.64 14.64 53.23 14.64L53.23 14.64Q54.11 14.64 54.72 14.14Q55.33 13.63 55.33 12.64L55.33 12.64ZM64.50 7.17L64.50 7.17Q65.95 7.17 66.78 7.92Q67.60 8.67 67.60 10.35L67.60 10.35L67.60 16L65.58 16L65.58 10.75Q65.58 8.80 63.98 8.80L63.98 8.80Q62.77 8.80 62.32 9.57Q61.87 10.34 61.87 11.76L61.87 11.76L61.87 16L59.86 16L59.86 7.33L61.41 7.33L61.70 8.46L61.81 8.46Q62.22 7.79 62.95 7.48Q63.68 7.17 64.50 7.17ZM72.99 16.16L72.99 16.16Q71.47 16.16 70.54 15.02Q69.62 13.89 69.62 11.68L69.62 11.68Q69.62 9.44 70.56 8.30Q71.50 7.17 73.04 7.17L73.04 7.17Q74.00 7.17 74.62 7.54Q75.23 7.90 75.60 8.43L75.60 8.43L75.70 8.43Q75.65 8.21 75.60 7.74Q75.55 7.28 75.55 6.88L75.55 6.88L75.55 3.84L77.57 3.84L77.57 16L76.00 16L75.63 14.86L75.55 14.86Q75.18 15.41 74.58 15.78Q73.97 16.16 72.99 16.16ZM73.60 14.53L73.60 14.53Q74.72 14.53 75.18 13.89Q75.63 13.25 75.65 11.95L75.65 11.95L75.65 11.70Q75.65 10.30 75.21 9.56Q74.77 8.82 73.57 8.82L73.57 8.82Q72.64 8.82 72.15 9.58Q71.66 10.34 71.66 11.71L71.66 11.71Q71.66 13.09 72.16 13.81Q72.66 14.53 73.60 14.53ZM90.05 4.58L90.05 16L87.50 16L82.10 7.04L82.03 7.04Q82.08 7.76 82.12 8.58Q82.16 9.41 82.18 10.24L82.18 10.24L82.18 16L80.34 16L80.34 4.58L82.86 4.58L88.26 13.47L88.30 13.47Q88.27 12.83 88.24 12Q88.21 11.17 88.19 10.38L88.19 10.38L88.19 4.58L90.05 4.58Z" class="sprotty-block-name" style="fill:rgb(48, 48, 48);stroke:rgba(0, 0, 0, 0);"/><line x1="0" y1="20" x2="95.53600000000002" y2="20"/></g><g id="sprotty_ArchitectureBlockImpl$work.andN_tb(RTL)/InstantiationBlockImpl$DTU/BPortImpl$a" transform="translate(0, 39.160400390625)" class="triangle"><path d="M 0,0 L 5,2.5 L 0,5 Z" transform="translate(-1.67, -2.5)" class="sprotty-port" style="fill:rgb(48, 48, 48);stroke:rgb(48, 48, 48);"/><g class="port sprotty-label" id="sprotty_ArchitectureBlockImpl$work.andN_tb(RTL)/InstantiationBlockImpl$DTU/BPortImpl$a/label" transform="translate(3, -5.6907501220703125) translate(0, -0.13300000131130219)" style="cursor:default;fill:rgb(48, 48, 48);font-family:Arial, Helvetica, sans-serif;text-anchor:middle;"><path d="M2.86 0.13L2.86 0.13Q1.89 0.13 1.25-0.38Q0.61-0.89 0.61-1.98L0.61-1.98Q0.61-3.05 1.45-3.62Q2.29-4.20 4.03-4.26L4.03-4.26L5.24-4.30L5.24-4.72Q5.24-5.61 4.85-5.96Q4.47-6.30 3.76-6.30L3.76-6.30Q3.21-6.30 2.70-6.14Q2.19-5.97 1.76-5.76L1.76-5.76L1.40-6.64Q1.86-6.89 2.50-7.07Q3.14-7.25 3.83-7.25L3.83-7.25Q5.13-7.25 5.76-6.68Q6.38-6.10 6.38-4.85L6.38-4.85L6.38 0L5.53 0L5.31-1.01L5.25-1.01Q4.79-0.43 4.28-0.15Q3.76 0.13 2.86 0.13ZM3.13-0.81L3.13-0.81Q4.03-0.81 4.63-1.31Q5.23-1.81 5.23-2.85L5.23-2.85L5.23-3.48L4.18-3.44Q2.85-3.39 2.33-3.02Q1.82-2.65 1.82-1.97L1.82-1.97Q1.82-1.37 2.19-1.09Q2.55-0.81 3.13-0.81Z" transform="translate(4, 9.3815)"/><rect x="0" y="0.133" width="15.461300000000001" height="11.3815" class="clickable" style="cursor:pointer;fill:rgba(0, 0, 0, 0);fill-opacity:0;stroke-width:0px;"/></g></g><g id="sprotty_ArchitectureBlockImpl$work.andN_tb(RTL)/InstantiationBlockImpl$DTU/BPortImpl$y" transform="translate(95.53515625, 39.160400390625)" class="triangle"><path d="M 0,0 L 5,2.5 L 0,5 Z" transform="translate(-1.67, -2.5)" class="sprotty-port" style="fill:rgb(48, 48, 48);stroke:rgb(48, 48, 48);"/><g class="port sprotty-label" id="sprotty_ArchitectureBlockImpl$work.andN_tb(RTL)/InstantiationBlockImpl$DTU/BPortImpl$y/label" transform="translate(-17.782999992370605, -7.160400390625) translate(0, -3.191999912261963)" style="cursor:default;fill:rgb(48, 48, 48);font-family:Arial, Helvetica, sans-serif;text-anchor:middle;"><path d="M1.12 3.19L1.12 3.19Q0.80 3.19 0.56 3.16Q0.32 3.13 0.15 3.09L0.15 3.09L0.15 2.15Q0.29 2.18 0.50 2.21Q0.70 2.23 0.93 2.23L0.93 2.23Q1.54 2.23 1.92 1.89Q2.29 1.54 2.51 0.97L2.51 0.97L2.89 0.03L0.01-7.13L1.26-7.13L2.81-3.07Q3.01-2.54 3.17-2.05Q3.33-1.57 3.40-1.13L3.40-1.13L3.46-1.13Q3.54-1.46 3.70-2.00Q3.87-2.54 4.07-3.09L4.07-3.09L5.52-7.13L6.78-7.13L3.71 0.98Q3.34 2.00 2.75 2.59Q2.15 3.19 1.12 3.19Z" transform="translate(4, 12.320800000000002)"/><rect x="0" y="3.192" width="14.783000000000001" height="14.320800000000002" class="clickable" style="cursor:pointer;fill:rgba(0, 0, 0, 0);fill-opacity:0;stroke-width:0px;"/></g></g></g></g></g></svg>