<svg xmlns="http://www.w3.org/2000/svg" id="sprotty_andN" class="sprotty-graph sprotty-block-diagram blockdiagram" style="font-family:&quot;Helvetica Neue&quot;, Helvetica, Arial, sans-serif;line-height:18px;perspective-origin:0px 0px;transform-origin:0px 0px;z-index:0;" version="1.1" viewBox="9.5 12 155.2128125 58.32080078125"><g transform="scale(1) translate(0,0)"><g id="sprotty_ArchitectureBlockImpl$work.andN(synth)" transform="translate(12, 12)" class="architecture"><g class="sprotty-block" style="fill:rgb(245, 245, 245);stroke:rgb(48, 48, 48);stroke-dasharray:0px;"><rect x="0" y="0" rx="1" ry="1" width="148.384" height="58.32080078125"/><path d="M14.64 16L12.40 16L11.44 12.27Q11.36 11.97 11.25 11.51Q11.14 11.06 11.02 10.56Q10.90 10.06 10.80 9.65Q10.70 9.23 10.66 9.01L10.66 9.01L10.59 9.01Q10.54 9.23 10.45 9.65Q10.35 10.06 10.24 10.57Q10.13 11.07 10.01 11.53Q9.89 11.98 9.81 12.29L9.81 12.29L8.80 16L6.59 16L4.16 7.31L6.19 7.31L7.26 11.46Q7.38 11.89 7.48 12.41Q7.58 12.93 7.66 13.42Q7.73 13.90 7.78 14.21L7.78 14.21L7.84 14.21Q7.87 13.92 7.96 13.42Q8.05 12.93 8.14 12.46Q8.24 11.98 8.30 11.74L8.30 11.74L9.55 7.31L11.76 7.31L12.96 11.74Q13.02 12.03 13.13 12.50Q13.23 12.96 13.31 13.43Q13.39 13.90 13.41 14.19L13.41 14.19L13.47 14.19Q13.50 13.94 13.58 13.46Q13.66 12.98 13.78 12.43Q13.89 11.89 14.02 11.46L14.02 11.46L15.10 7.31L17.10 7.31L14.64 16ZM26.32 11.65L26.32 11.65Q26.32 13.81 25.20 14.98Q24.08 16.16 22.16 16.16L22.16 16.16Q20.98 16.16 20.05 15.63Q19.12 15.10 18.59 14.10Q18.06 13.09 18.06 11.65L18.06 11.65Q18.06 9.49 19.18 8.33Q20.29 7.17 22.21 7.17L22.21 7.17Q23.41 7.17 24.34 7.69Q25.26 8.21 25.79 9.21Q26.32 10.21 26.32 11.65ZM20.13 11.65L20.13 11.65Q20.13 13.02 20.62 13.78Q21.10 14.53 22.19 14.53L22.19 14.53Q23.28 14.53 23.77 13.78Q24.26 13.02 24.26 11.65L24.26 11.65Q24.26 10.27 23.77 9.54Q23.28 8.80 22.18 8.80L22.18 8.80Q21.10 8.80 20.62 9.54Q20.13 10.27 20.13 11.65ZM32.94 7.17L32.94 7.17Q33.15 7.17 33.40 7.18Q33.65 7.20 33.82 7.25L33.82 7.25L33.65 9.12Q33.49 9.09 33.26 9.06Q33.04 9.04 32.86 9.04L32.86 9.04Q32.22 9.04 31.66 9.30Q31.10 9.57 30.76 10.12Q30.42 10.67 30.42 11.50L30.42 11.50L30.42 16L28.40 16L28.40 7.33L29.95 7.33L30.24 8.83L30.34 8.83Q30.72 8.14 31.39 7.66Q32.06 7.17 32.94 7.17ZM35.42 3.84L37.42 3.84L37.42 9.62Q37.42 10.03 37.39 10.50Q37.36 10.96 37.33 11.38L37.33 11.38L37.38 11.38Q37.57 11.09 37.86 10.72Q38.14 10.35 38.40 10.06L38.40 10.06L40.96 7.33L43.25 7.33L39.78 11.07L43.47 16L41.12 16L38.43 12.29L37.42 13.12L37.42 16L35.42 16L35.42 3.84ZM44.54 14.98L44.54 14.98Q44.54 14.30 44.90 14.02Q45.25 13.74 45.76 13.74L45.76 13.74Q46.26 13.74 46.62 14.02Q46.99 14.30 46.99 14.98L46.99 14.98Q46.99 15.63 46.62 15.92Q46.26 16.21 45.76 16.21L45.76 16.21Q45.25 16.21 44.90 15.92Q44.54 15.63 44.54 14.98ZM52.75 7.17L52.75 7.17Q54.43 7.17 55.30 7.90Q56.18 8.64 56.18 10.18L56.18 10.18L56.18 16L54.75 16L54.35 14.80L54.29 14.80Q53.73 15.50 53.10 15.83Q52.48 16.16 51.41 16.16L51.41 16.16Q50.24 16.16 49.47 15.50Q48.70 14.85 48.70 13.47L48.70 13.47Q48.70 12.13 49.69 11.46Q50.67 10.78 52.67 10.70L52.67 10.70L54.18 10.66L54.18 10.22Q54.18 9.41 53.78 9.05Q53.38 8.69 52.66 8.69L52.66 8.69Q52 8.69 51.40 8.88Q50.80 9.07 50.21 9.33L50.21 9.33L49.57 7.92Q50.21 7.58 51.03 7.38Q51.86 7.17 52.75 7.17ZM54.18 12.64L54.18 11.90L53.12 11.94Q51.79 11.98 51.28 12.39Q50.77 12.80 50.77 13.49L50.77 13.49Q50.77 14.11 51.13 14.38Q51.49 14.64 52.08 14.64L52.08 14.64Q52.96 14.64 53.57 14.14Q54.18 13.63 54.18 12.64L54.18 12.64ZM63.34 7.17L63.34 7.17Q64.80 7.17 65.62 7.92Q66.45 8.67 66.45 10.35L66.45 10.35L66.45 16L64.43 16L64.43 10.75Q64.43 8.80 62.83 8.80L62.83 8.80Q61.62 8.80 61.17 9.57Q60.72 10.34 60.72 11.76L60.72 11.76L60.72 16L58.70 16L58.70 7.33L60.26 7.33L60.54 8.46L60.66 8.46Q61.07 7.79 61.80 7.48Q62.53 7.17 63.34 7.17ZM71.84 16.16L71.84 16.16Q70.32 16.16 69.39 15.02Q68.46 13.89 68.46 11.68L68.46 11.68Q68.46 9.44 69.41 8.30Q70.35 7.17 71.89 7.17L71.89 7.17Q72.85 7.17 73.46 7.54Q74.08 7.90 74.45 8.43L74.45 8.43L74.54 8.43Q74.50 8.21 74.45 7.74Q74.40 7.28 74.40 6.88L74.40 6.88L74.40 3.84L76.42 3.84L76.42 16L74.85 16L74.48 14.86L74.40 14.86Q74.03 15.41 73.42 15.78Q72.82 16.16 71.84 16.16ZM72.45 14.53L72.45 14.53Q73.57 14.53 74.02 13.89Q74.48 13.25 74.50 11.95L74.50 11.95L74.50 11.70Q74.50 10.30 74.06 9.56Q73.62 8.82 72.42 8.82L72.42 8.82Q71.49 8.82 71 9.58Q70.51 10.34 70.51 11.71L70.51 11.71Q70.51 13.09 71.01 13.81Q71.50 14.53 72.45 14.53ZM88.90 4.58L88.90 16L86.35 16L80.94 7.04L80.88 7.04Q80.93 7.76 80.97 8.58Q81.01 9.41 81.02 10.24L81.02 10.24L81.02 16L79.18 16L79.18 4.58L81.71 4.58L87.10 13.47L87.15 13.47Q87.12 12.83 87.09 12Q87.06 11.17 87.04 10.38L87.04 10.38L87.04 4.58L88.90 4.58ZM91.02 11.62L91.02 11.62Q91.02 9.66 91.59 7.85Q92.16 6.03 93.38 4.58L93.38 4.58L95.09 4.58Q93.98 6.08 93.42 7.89Q92.86 9.70 92.86 11.60L92.86 11.60Q92.86 13.46 93.42 15.25Q93.98 17.04 95.07 18.53L95.07 18.53L93.38 18.53Q92.16 17.12 91.59 15.34Q91.02 13.55 91.02 11.62ZM102.77 13.49L102.77 13.49Q102.77 14.80 101.83 15.48Q100.90 16.16 99.15 16.16L99.15 16.16Q98.24 16.16 97.59 16.03Q96.94 15.90 96.34 15.63L96.34 15.63L96.34 13.92Q96.98 14.22 97.75 14.43Q98.53 14.64 99.22 14.64L99.22 14.64Q100.05 14.64 100.42 14.38Q100.78 14.13 100.78 13.70L100.78 13.70Q100.78 13.44 100.64 13.24Q100.50 13.04 100.07 12.80Q99.65 12.56 98.82 12.21L98.82 12.21Q97.98 11.89 97.43 11.54Q96.88 11.20 96.60 10.74Q96.32 10.27 96.32 9.54L96.32 9.54Q96.32 8.37 97.24 7.77Q98.16 7.17 99.70 7.17L99.70 7.17Q100.50 7.17 101.21 7.33Q101.92 7.49 102.64 7.81L102.64 7.81L102.00 9.30Q101.39 9.04 100.82 8.86Q100.24 8.69 99.63 8.69L99.63 8.69Q98.30 8.69 98.30 9.44L98.30 9.44Q98.30 9.71 98.47 9.90Q98.64 10.10 99.06 10.31Q99.49 10.53 100.27 10.83L100.27 10.83Q101.04 11.14 101.60 11.46Q102.16 11.79 102.46 12.27Q102.77 12.75 102.77 13.49ZM106.88 15.97L103.41 7.33L105.60 7.33L107.33 12.22Q107.50 12.69 107.62 13.14Q107.73 13.58 107.78 14.05L107.78 14.05L107.84 14.05Q107.90 13.65 108.03 13.17Q108.16 12.69 108.32 12.22L108.32 12.22L109.98 7.33L112.16 7.33L108.46 17.15Q107.97 18.45 107.11 19.14Q106.26 19.84 105.01 19.84L105.01 19.84Q104.61 19.84 104.32 19.80Q104.03 19.76 103.81 19.71L103.81 19.71L103.81 18.11Q103.98 18.14 104.23 18.18Q104.48 18.21 104.75 18.21L104.75 18.21Q105.50 18.21 105.94 17.77Q106.38 17.33 106.62 16.67L106.62 16.67L106.88 15.97ZM118.10 7.17L118.10 7.17Q119.55 7.17 120.38 7.92Q121.20 8.67 121.20 10.35L121.20 10.35L121.20 16L119.18 16L119.18 10.75Q119.18 8.80 117.58 8.80L117.58 8.80Q116.37 8.80 115.92 9.57Q115.47 10.34 115.47 11.76L115.47 11.76L115.47 16L113.46 16L113.46 7.33L115.01 7.33L115.30 8.46L115.41 8.46Q115.82 7.79 116.55 7.48Q117.28 7.17 118.10 7.17ZM127.09 14.54L127.09 14.54Q127.46 14.54 127.82 14.47Q128.18 14.40 128.48 14.30L128.48 14.30L128.48 15.81Q128.16 15.95 127.65 16.06Q127.14 16.16 126.58 16.16L126.58 16.16Q125.84 16.16 125.23 15.91Q124.62 15.66 124.27 15.06Q123.92 14.45 123.92 13.36L123.92 13.36L123.92 8.85L122.75 8.85L122.75 7.97L124.03 7.26L124.67 5.42L125.94 5.42L125.94 7.33L128.40 7.33L128.40 8.85L125.94 8.85L125.94 13.34Q125.94 13.95 126.26 14.25Q126.58 14.54 127.09 14.54ZM130.22 3.84L132.24 3.84L132.24 6.74Q132.24 7.25 132.20 7.74Q132.16 8.22 132.13 8.46L132.13 8.46L132.26 8.46Q132.67 7.81 133.34 7.49Q134.02 7.17 134.83 7.17L134.83 7.17Q136.30 7.17 137.14 7.92Q137.97 8.67 137.97 10.35L137.97 10.35L137.97 16L135.95 16L135.95 10.75Q135.95 8.80 134.35 8.80L134.35 8.80Q133.14 8.80 132.69 9.57Q132.24 10.34 132.24 11.76L132.24 11.76L132.24 16L130.22 16L130.22 3.84ZM143.74 11.62L143.74 11.62Q143.74 13.55 143.18 15.34Q142.61 17.12 141.39 18.53L141.39 18.53L139.70 18.53Q140.78 17.04 141.35 15.25Q141.92 13.46 141.92 11.60L141.92 11.60Q141.92 9.70 141.35 7.89Q140.78 6.08 139.68 4.58L139.68 4.58L141.39 4.58Q142.61 6.03 143.18 7.85Q143.74 9.66 143.74 11.62Z" class="sprotty-block-name" style="fill:rgb(48, 48, 48);stroke:rgba(0, 0, 0, 0);"/><line x1="0" y1="20" x2="148.384" y2="20"/></g><g id="sprotty_ArchitectureBlockImpl$work.andN(synth)/GPortImpl$a" transform="translate(0, 39.160400390625)" class="triangle"><path d="M 0,0 L 5,2.5 L 0,5 Z" transform="translate(-1.67, -2.5)" class="sprotty-port" style="fill:rgb(48, 48, 48);stroke:rgb(48, 48, 48);"/><g class="port sprotty-label" id="sprotty_ArchitectureBlockImpl$work.andN(synth)/GPortImpl$a/label" transform="translate(3, -5.6907501220703125) translate(0, -0.13300000131130219)" style="cursor:default;fill:rgb(48, 48, 48);font-family:Arial, Helvetica, sans-serif;text-anchor:middle;"><path d="M2.86 0.13L2.86 0.13Q1.89 0.13 1.25-0.38Q0.61-0.89 0.61-1.98L0.61-1.98Q0.61-3.05 1.45-3.62Q2.29-4.20 4.03-4.26L4.03-4.26L5.24-4.30L5.24-4.72Q5.24-5.61 4.85-5.96Q4.47-6.30 3.76-6.30L3.76-6.30Q3.21-6.30 2.70-6.14Q2.19-5.97 1.76-5.76L1.76-5.76L1.40-6.64Q1.86-6.89 2.50-7.07Q3.14-7.25 3.83-7.25L3.83-7.25Q5.13-7.25 5.76-6.68Q6.38-6.10 6.38-4.85L6.38-4.85L6.38 0L5.53 0L5.31-1.01L5.25-1.01Q4.79-0.43 4.28-0.15Q3.76 0.13 2.86 0.13ZM3.13-0.81L3.13-0.81Q4.03-0.81 4.63-1.31Q5.23-1.81 5.23-2.85L5.23-2.85L5.23-3.48L4.18-3.44Q2.85-3.39 2.33-3.02Q1.82-2.65 1.82-1.97L1.82-1.97Q1.82-1.37 2.19-1.09Q2.55-0.81 3.13-0.81Z" transform="translate(4, 9.3815)"/><rect x="0" y="0.133" width="15.461300000000001" height="11.3815" class="clickable" style="cursor:pointer;fill:rgba(0, 0, 0, 0);fill-opacity:0;stroke-width:0px;"/></g></g><g id="sprotty_ArchitectureBlockImpl$work.andN(synth)/GPortImpl$y" transform="translate(148.3828125, 39.160400390625)" class="triangle"><path d="M 0,0 L 5,2.5 L 0,5 Z" transform="translate(-1.67, -2.5)" class="sprotty-port" style="fill:rgb(48, 48, 48);stroke:rgb(48, 48, 48);"/><g class="port sprotty-label" id="sprotty_ArchitectureBlockImpl$work.andN(synth)/GPortImpl$y/label" transform="translate(-17.782999992370605, -7.160400390625) translate(0, -3.191999912261963)" style="cursor:default;fill:rgb(48, 48, 48);font-family:Arial, Helvetica, sans-serif;text-anchor:middle;"><path d="M1.12 3.19L1.12 3.19Q0.80 3.19 0.56 3.16Q0.32 3.13 0.15 3.09L0.15 3.09L0.15 2.15Q0.29 2.18 0.50 2.21Q0.70 2.23 0.93 2.23L0.93 2.23Q1.54 2.23 1.92 1.89Q2.29 1.54 2.51 0.97L2.51 0.97L2.89 0.03L0.01-7.13L1.26-7.13L2.81-3.07Q3.01-2.54 3.17-2.05Q3.33-1.57 3.40-1.13L3.40-1.13L3.46-1.13Q3.54-1.46 3.70-2.00Q3.87-2.54 4.07-3.09L4.07-3.09L5.52-7.13L6.78-7.13L3.71 0.98Q3.34 2.00 2.75 2.59Q2.15 3.19 1.12 3.19Z" transform="translate(4, 12.320800000000002)"/><rect x="0" y="3.192" width="14.783000000000001" height="14.320800000000002" class="clickable" style="cursor:pointer;fill:rgba(0, 0, 0, 0);fill-opacity:0;stroke-width:0px;"/></g></g></g></g></svg>