<svg xmlns="http://www.w3.org/2000/svg" id="sprotty_example" class="sprotty-graph sprotty-block-diagram blockdiagram" style="font-family:&quot;Helvetica Neue&quot;, Helvetica, Arial, sans-serif;line-height:18px;perspective-origin:0px 0px;transform-origin:0px 0px;z-index:0;" version="1.1" viewBox="9.5 12 206.68394287109376 232.77630043029785"><g transform="scale(1) translate(0,0)"><g id="sprotty_ArchitectureBlockImpl$work.example(synth)" transform="translate(12, 12)" class="architecture"><g class="sprotty-block" style="fill:rgb(245, 245, 245);stroke:rgb(48, 48, 48);stroke-dasharray:0px;"><rect x="0" y="0" rx="1" ry="1" width="199.85394287109375" height="232.77630043029785"/><path d="M28.23 16L25.99 16L25.03 12.27Q24.95 11.97 24.84 11.51Q24.73 11.06 24.61 10.56Q24.49 10.06 24.39 9.65Q24.29 9.23 24.25 9.01L24.25 9.01L24.18 9.01Q24.13 9.23 24.04 9.65Q23.94 10.06 23.83 10.57Q23.72 11.07 23.60 11.53Q23.48 11.98 23.40 12.29L23.40 12.29L22.39 16L20.18 16L17.75 7.31L19.78 7.31L20.85 11.46Q20.97 11.89 21.07 12.41Q21.17 12.93 21.25 13.42Q21.32 13.90 21.37 14.21L21.37 14.21L21.43 14.21Q21.46 13.92 21.55 13.42Q21.64 12.93 21.73 12.46Q21.83 11.98 21.89 11.74L21.89 11.74L23.14 7.31L25.35 7.31L26.55 11.74Q26.61 12.03 26.72 12.50Q26.82 12.96 26.90 13.43Q26.98 13.90 27.00 14.19L27.00 14.19L27.06 14.19Q27.09 13.94 27.17 13.46Q27.25 12.98 27.37 12.43Q27.48 11.89 27.61 11.46L27.61 11.46L28.69 7.31L30.69 7.31L28.23 16ZM39.91 11.65L39.91 11.65Q39.91 13.81 38.79 14.98Q37.67 16.16 35.75 16.16L35.75 16.16Q34.57 16.16 33.64 15.63Q32.71 15.10 32.18 14.10Q31.65 13.09 31.65 11.65L31.65 11.65Q31.65 9.49 32.77 8.33Q33.88 7.17 35.80 7.17L35.80 7.17Q37.00 7.17 37.93 7.69Q38.85 8.21 39.38 9.21Q39.91 10.21 39.91 11.65ZM33.72 11.65L33.72 11.65Q33.72 13.02 34.21 13.78Q34.69 14.53 35.78 14.53L35.78 14.53Q36.87 14.53 37.36 13.78Q37.85 13.02 37.85 11.65L37.85 11.65Q37.85 10.27 37.36 9.54Q36.87 8.80 35.77 8.80L35.77 8.80Q34.69 8.80 34.21 9.54Q33.72 10.27 33.72 11.65ZM46.53 7.17L46.53 7.17Q46.74 7.17 46.99 7.18Q47.24 7.20 47.41 7.25L47.41 7.25L47.24 9.12Q47.08 9.09 46.85 9.06Q46.63 9.04 46.45 9.04L46.45 9.04Q45.81 9.04 45.25 9.30Q44.69 9.57 44.35 10.12Q44.01 10.67 44.01 11.50L44.01 11.50L44.01 16L41.99 16L41.99 7.33L43.54 7.33L43.83 8.83L43.93 8.83Q44.31 8.14 44.98 7.66Q45.65 7.17 46.53 7.17ZM49.01 3.84L51.01 3.84L51.01 9.62Q51.01 10.03 50.98 10.50Q50.95 10.96 50.92 11.38L50.92 11.38L50.97 11.38Q51.16 11.09 51.45 10.72Q51.73 10.35 51.99 10.06L51.99 10.06L54.55 7.33L56.84 7.33L53.37 11.07L57.06 16L54.71 16L52.02 12.29L51.01 13.12L51.01 16L49.01 16L49.01 3.84ZM58.13 14.98L58.13 14.98Q58.13 14.30 58.49 14.02Q58.84 13.74 59.35 13.74L59.35 13.74Q59.85 13.74 60.21 14.02Q60.58 14.30 60.58 14.98L60.58 14.98Q60.58 15.63 60.21 15.92Q59.85 16.21 59.35 16.21L59.35 16.21Q58.84 16.21 58.49 15.92Q58.13 15.63 58.13 14.98ZM66.37 7.17L66.37 7.17Q68.12 7.17 69.13 8.21Q70.15 9.25 70.15 11.10L70.15 11.10L70.15 12.13L64.42 12.13Q64.45 13.31 65.08 13.96Q65.70 14.61 66.81 14.61L66.81 14.61Q67.64 14.61 68.31 14.44Q68.98 14.27 69.69 13.95L69.69 13.95L69.69 15.57Q69.05 15.87 68.36 16.02Q67.67 16.16 66.71 16.16L66.71 16.16Q65.45 16.16 64.46 15.67Q63.48 15.18 62.93 14.19Q62.37 13.20 62.37 11.73L62.37 11.73Q62.37 9.50 63.48 8.34Q64.58 7.17 66.37 7.17ZM66.37 8.66L66.37 8.66Q65.56 8.66 65.05 9.18Q64.55 9.70 64.47 10.72L64.47 10.72L68.20 10.72Q68.18 9.82 67.74 9.24Q67.30 8.66 66.37 8.66ZM70.73 16L73.73 11.57L70.87 7.33L73.16 7.33L75.05 10.27L76.93 7.33L79.22 7.33L76.33 11.57L79.37 16L77.08 16L75.05 12.85L73.01 16L70.73 16ZM84.28 7.17L84.28 7.17Q85.96 7.17 86.83 7.90Q87.70 8.64 87.70 10.18L87.70 10.18L87.70 16L86.28 16L85.88 14.80L85.81 14.80Q85.25 15.50 84.63 15.83Q84.01 16.16 82.93 16.16L82.93 16.16Q81.77 16.16 81.00 15.50Q80.23 14.85 80.23 13.47L80.23 13.47Q80.23 12.13 81.21 11.46Q82.20 10.78 84.20 10.70L84.20 10.70L85.70 10.66L85.70 10.22Q85.70 9.41 85.30 9.05Q84.90 8.69 84.18 8.69L84.18 8.69Q83.53 8.69 82.93 8.88Q82.33 9.07 81.73 9.33L81.73 9.33L81.09 7.92Q81.73 7.58 82.56 7.38Q83.38 7.17 84.28 7.17ZM85.70 12.64L85.70 11.90L84.65 11.94Q83.32 11.98 82.81 12.39Q82.29 12.80 82.29 13.49L82.29 13.49Q82.29 14.11 82.65 14.38Q83.01 14.64 83.61 14.64L83.61 14.64Q84.49 14.64 85.09 14.14Q85.70 13.63 85.70 12.64L85.70 12.64ZM100.17 7.17L100.17 7.17Q101.64 7.17 102.38 7.92Q103.13 8.67 103.13 10.35L103.13 10.35L103.13 16L101.11 16L101.11 10.74Q101.11 8.80 99.64 8.80L99.64 8.80Q98.58 8.80 98.13 9.49Q97.69 10.18 97.69 11.49L97.69 11.49L97.69 16L95.67 16L95.67 10.74Q95.67 8.80 94.18 8.80L94.18 8.80Q93.08 8.80 92.66 9.57Q92.25 10.34 92.25 11.76L92.25 11.76L92.25 16L90.23 16L90.23 7.33L91.78 7.33L92.07 8.46L92.18 8.46Q92.57 7.79 93.26 7.48Q93.96 7.17 94.71 7.17L94.71 7.17Q95.69 7.17 96.35 7.50Q97.01 7.82 97.37 8.51L97.37 8.51L97.53 8.51Q97.93 7.81 98.65 7.49Q99.37 7.17 100.17 7.17ZM110.21 7.17L110.21 7.17Q111.73 7.17 112.66 8.30Q113.59 9.42 113.59 11.65L113.59 11.65Q113.59 13.87 112.64 15.02Q111.69 16.16 110.17 16.16L110.17 16.16Q109.21 16.16 108.61 15.81Q108.02 15.46 107.67 14.99L107.67 14.99L107.54 14.99Q107.59 15.30 107.63 15.66Q107.67 16.02 107.67 16.32L107.67 16.32L107.67 19.84L105.65 19.84L105.65 7.33L107.29 7.33L107.57 8.48L107.67 8.48Q108.02 7.94 108.63 7.55Q109.24 7.17 110.21 7.17ZM109.64 8.80L109.64 8.80Q108.57 8.80 108.13 9.44Q107.69 10.08 107.67 11.38L107.67 11.38L107.67 11.63Q107.67 13.02 108.09 13.77Q108.52 14.51 109.67 14.51L109.67 14.51Q110.61 14.51 111.07 13.74Q111.53 12.96 111.53 11.62L111.53 11.62Q111.53 10.27 111.07 9.54Q110.61 8.80 109.64 8.80ZM117.69 3.84L117.69 16L115.67 16L115.67 3.84L117.69 3.84ZM123.75 7.17L123.75 7.17Q125.49 7.17 126.51 8.21Q127.53 9.25 127.53 11.10L127.53 11.10L127.53 12.13L121.80 12.13Q121.83 13.31 122.45 13.96Q123.08 14.61 124.18 14.61L124.18 14.61Q125.01 14.61 125.69 14.44Q126.36 14.27 127.06 13.95L127.06 13.95L127.06 15.57Q126.42 15.87 125.73 16.02Q125.05 16.16 124.09 16.16L124.09 16.16Q122.82 16.16 121.84 15.67Q120.85 15.18 120.30 14.19Q119.75 13.20 119.75 11.73L119.75 11.73Q119.75 9.50 120.85 8.34Q121.96 7.17 123.75 7.17ZM123.75 8.66L123.75 8.66Q122.93 8.66 122.43 9.18Q121.93 9.70 121.85 10.72L121.85 10.72L125.57 10.72Q125.56 9.82 125.12 9.24Q124.68 8.66 123.75 8.66ZM128.90 11.62L128.90 11.62Q128.90 9.66 129.47 7.85Q130.04 6.03 131.25 4.58L131.25 4.58L132.97 4.58Q131.86 6.08 131.30 7.89Q130.74 9.70 130.74 11.60L130.74 11.60Q130.74 13.46 131.30 15.25Q131.86 17.04 132.95 18.53L132.95 18.53L131.25 18.53Q130.04 17.12 129.47 15.34Q128.90 13.55 128.90 11.62ZM140.65 13.49L140.65 13.49Q140.65 14.80 139.71 15.48Q138.77 16.16 137.03 16.16L137.03 16.16Q136.12 16.16 135.47 16.03Q134.82 15.90 134.21 15.63L134.21 15.63L134.21 13.92Q134.85 14.22 135.63 14.43Q136.41 14.64 137.09 14.64L137.09 14.64Q137.93 14.64 138.29 14.38Q138.66 14.13 138.66 13.70L138.66 13.70Q138.66 13.44 138.52 13.24Q138.37 13.04 137.95 12.80Q137.53 12.56 136.69 12.21L136.69 12.21Q135.86 11.89 135.31 11.54Q134.76 11.20 134.48 10.74Q134.20 10.27 134.20 9.54L134.20 9.54Q134.20 8.37 135.12 7.77Q136.04 7.17 137.57 7.17L137.57 7.17Q138.37 7.17 139.09 7.33Q139.80 7.49 140.52 7.81L140.52 7.81L139.88 9.30Q139.27 9.04 138.69 8.86Q138.12 8.69 137.51 8.69L137.51 8.69Q136.18 8.69 136.18 9.44L136.18 9.44Q136.18 9.71 136.35 9.90Q136.52 10.10 136.94 10.31Q137.37 10.53 138.15 10.83L138.15 10.83Q138.92 11.14 139.48 11.46Q140.04 11.79 140.34 12.27Q140.65 12.75 140.65 13.49ZM144.76 15.97L141.29 7.33L143.48 7.33L145.21 12.22Q145.38 12.69 145.49 13.14Q145.61 13.58 145.65 14.05L145.65 14.05L145.72 14.05Q145.78 13.65 145.91 13.17Q146.04 12.69 146.20 12.22L146.20 12.22L147.86 7.33L150.04 7.33L146.34 17.15Q145.85 18.45 144.99 19.14Q144.13 19.84 142.89 19.84L142.89 19.84Q142.49 19.84 142.20 19.80Q141.91 19.76 141.69 19.71L141.69 19.71L141.69 18.11Q141.86 18.14 142.11 18.18Q142.36 18.21 142.63 18.21L142.63 18.21Q143.38 18.21 143.82 17.77Q144.26 17.33 144.50 16.67L144.50 16.67L144.76 15.97ZM155.97 7.17L155.97 7.17Q157.43 7.17 158.25 7.92Q159.08 8.67 159.08 10.35L159.08 10.35L159.08 16L157.06 16L157.06 10.75Q157.06 8.80 155.46 8.80L155.46 8.80Q154.25 8.80 153.80 9.57Q153.35 10.34 153.35 11.76L153.35 11.76L153.35 16L151.33 16L151.33 7.33L152.89 7.33L153.17 8.46L153.29 8.46Q153.70 7.79 154.43 7.48Q155.16 7.17 155.97 7.17ZM164.97 14.54L164.97 14.54Q165.33 14.54 165.69 14.47Q166.05 14.40 166.36 14.30L166.36 14.30L166.36 15.81Q166.04 15.95 165.53 16.06Q165.01 16.16 164.45 16.16L164.45 16.16Q163.72 16.16 163.11 15.91Q162.50 15.66 162.15 15.06Q161.80 14.45 161.80 13.36L161.80 13.36L161.80 8.85L160.63 8.85L160.63 7.97L161.91 7.26L162.55 5.42L163.81 5.42L163.81 7.33L166.28 7.33L166.28 8.85L163.81 8.85L163.81 13.34Q163.81 13.95 164.13 14.25Q164.45 14.54 164.97 14.54ZM168.10 3.84L170.12 3.84L170.12 6.74Q170.12 7.25 170.08 7.74Q170.04 8.22 170.01 8.46L170.01 8.46L170.13 8.46Q170.55 7.81 171.22 7.49Q171.89 7.17 172.71 7.17L172.71 7.17Q174.18 7.17 175.01 7.92Q175.85 8.67 175.85 10.35L175.85 10.35L175.85 16L173.83 16L173.83 10.75Q173.83 8.80 172.23 8.80L172.23 8.80Q171.01 8.80 170.57 9.57Q170.12 10.34 170.12 11.76L170.12 11.76L170.12 16L168.10 16L168.10 3.84ZM181.62 11.62L181.62 11.62Q181.62 13.55 181.05 15.34Q180.49 17.12 179.27 18.53L179.27 18.53L177.57 18.53Q178.66 17.04 179.23 15.25Q179.80 13.46 179.80 11.60L179.80 11.60Q179.80 9.70 179.23 7.89Q178.66 6.08 177.56 4.58L177.56 4.58L179.27 4.58Q180.49 6.03 181.05 7.85Q181.62 9.66 181.62 11.62Z" class="sprotty-block-name" style="fill:rgb(48, 48, 48);stroke:rgba(0, 0, 0, 0);"/><line x1="0" y1="20" x2="199.85394287109375" y2="20"/></g><g id="sprotty_ArchitectureBlockImpl$work.example(synth)/GPortImpl$a_to_ArchitectureBlockImpl$work.example(synth)/AssignmentBlockImpl$null10/GPortImpl$a" class="sprotty-edge edge" style="fill:none;stroke:rgb(112, 112, 112);stroke-linejoin:round;"><path d="M 0 179 L 52.179500579833984 179 C 53.179500579833984 179 54.179500579833984 178 54.179500579833984 177 L 54.179500579833984 160 C 54.179500579833984 159 55.179500579833984 158 56.179500579833984 158 L 64.17950057983398 158 "/><circle r="2" id="sprotty_ArchitectureBlockImpl$work.example(synth)/GPortImpl$a_to_ArchitectureBlockImpl$work.example(synth)/AssignmentBlockImpl$null10/GPortImpl$a/junction0" transform="translate(54.179500579833984, 179)" class="sprotty-junction junction" style="fill:rgb(112, 112, 112);stroke:none;"/><circle r="2" id="sprotty_ArchitectureBlockImpl$work.example(synth)/GPortImpl$a_to_ArchitectureBlockImpl$work.example(synth)/AssignmentBlockImpl$null10/GPortImpl$a/junction1" transform="translate(54.179500579833984, 158)" class="sprotty-junction junction" style="fill:rgb(112, 112, 112);stroke:none;"/></g><g id="sprotty_ArchitectureBlockImpl$work.example(synth)/GPortImpl$a_to_ArchitectureBlockImpl$work.example(synth)/AssignmentBlockImpl$null6/GPortImpl$a" class="sprotty-edge edge" style="fill:none;stroke:rgb(112, 112, 112);stroke-linejoin:round;"><path d="M 0 179 L 52.179500579833984 179 C 53.179500579833984 179 54.179500579833984 178 54.179500579833984 177 L 54.179500579833984 38 C 54.179500579833984 37 55.179500579833984 36 56.179500579833984 36 L 89.80998229980469 36 C 90.80998229980469 36 91.80998229980469 37 91.80998229980469 38 L 91.80998229980469 46 C 91.80998229980469 47 92.80998229980469 48 93.80998229980469 48 L 111.80998229980469 48 "/></g><g id="sprotty_ArchitectureBlockImpl$work.example(synth)/GPortImpl$a_to_ArchitectureBlockImpl$work.example(synth)/AssignmentBlockImpl$null5/GPortImpl$a" class="sprotty-edge edge" style="fill:none;stroke:rgb(112, 112, 112);stroke-linejoin:round;"><path d="M 0 179 L 111.80998229980469 179 "/></g><g id="sprotty_ArchitectureBlockImpl$work.example(synth)/GPortImpl$b_to_ArchitectureBlockImpl$work.example(synth)/AssignmentBlockImpl$null9/GPortImpl$b" class="sprotty-edge edge" style="fill:none;stroke:rgb(112, 112, 112);stroke-linejoin:round;"><path d="M 0 58 L 64.17950057983398 58 "/></g><g id="sprotty_ArchitectureBlockImpl$work.example(synth)/GPortImpl$c_to_ArchitectureBlockImpl$work.example(synth)/AssignmentBlockImpl$null8/GPortImpl$c" class="sprotty-edge edge" style="fill:none;stroke:rgb(112, 112, 112);stroke-linejoin:round;"><path d="M 0 203.38150024414062 L 42.179500579833984 203.38150024414062 C 43.179500579833984 203.38150024414062 44.179500579833984 202.38150024414062 44.179500579833984 201.38150024414062 L 44.179500579833984 120 C 44.179500579833984 119 45.179500579833984 118 46.179500579833984 118 L 64.17950057983398 118 "/><circle r="2" id="sprotty_ArchitectureBlockImpl$work.example(synth)/GPortImpl$c_to_ArchitectureBlockImpl$work.example(synth)/AssignmentBlockImpl$null8/GPortImpl$c/junction0" transform="translate(44.179500579833984, 203.38150024414062)" class="sprotty-junction junction" style="fill:rgb(112, 112, 112);stroke:none;"/></g><g id="sprotty_ArchitectureBlockImpl$work.example(synth)/GPortImpl$c_to_ArchitectureBlockImpl$work.example(synth)/AssignmentBlockImpl$null5/GPortImpl$c" class="sprotty-edge edge" style="fill:none;stroke:rgb(112, 112, 112);stroke-linejoin:round;"><path d="M 0 203.38150024414062 L 89.80998229980469 203.38150024414062 C 90.80998229980469 203.38150024414062 91.80998229980469 202.38150024414062 91.80998229980469 201.38150024414062 L 91.80998229980469 191 C 91.80998229980469 190 92.80998229980469 189 93.80998229980469 189 L 111.80998229980469 189 "/></g><g id="sprotty_ArchitectureBlockImpl$work.example(synth)/AssignmentBlockImpl$null4" transform="translate(149.44046020507812, 98)" class="statement"><rect x="0" y="0" rx="10" ry="5" width="17.63047981262207" height="40" class="sprotty-node" style="fill:rgb(245, 245, 245);stroke:rgb(112, 112, 112);"/><g id="sprotty_ArchitectureBlockImpl$work.example(synth)/AssignmentBlockImpl$null4/label" transform="translate(5, 18.28515625) translate(0, 0.700526237487793)" class="sprotty-label statement" style="cursor:default;fill:rgb(48, 48, 48);font-family:Arial, Helvetica, sans-serif;text-anchor:middle;"><path d="M3.50-1.39L3.50-0.70L0.31-2.11L0.31-2.53L3.50-4.13L3.50-3.44L1.17-2.35L3.50-1.39ZM7.30-2.68L4.14-2.68L4.14-3.30L7.30-3.30L7.30-2.68ZM7.30-1.39L4.14-1.39L4.14-2.01L7.30-2.01L7.30-1.39Z" transform="translate(0, 3.42838)"/><rect x="0" y="-0.7003499999999999" width="7.6304799999999995" height="3.42838" class="clickable" style="cursor:pointer;fill:rgba(0, 0, 0, 0);fill-opacity:0;stroke-width:0px;"/></g><g id="sprotty_ArchitectureBlockImpl$work.example(synth)/AssignmentBlockImpl$null4/GPortImpl$n3" transform="translate(0, 30)" class="sprotty-hidden hidden" style="display:block;height:0px;width:0px;"/><g id="sprotty_ArchitectureBlockImpl$work.example(synth)/AssignmentBlockImpl$null4/GPortImpl$n1" transform="translate(0, 20)" class="sprotty-hidden hidden" style="display:block;height:0px;width:0px;"/><g id="sprotty_ArchitectureBlockImpl$work.example(synth)/AssignmentBlockImpl$null4/GPortImpl$n2" transform="translate(0, 10)" class="sprotty-hidden hidden" style="display:block;height:0px;width:0px;"/><g id="sprotty_ArchitectureBlockImpl$work.example(synth)/AssignmentBlockImpl$null4/GPortImpl$y" transform="translate(17.63047981262207, 20)" class="sprotty-hidden hidden" style="display:block;height:0px;width:0px;"/></g><g id="sprotty_ArchitectureBlockImpl$work.example(synth)/AssignmentBlockImpl$null6" transform="translate(111.80998229980469, 38)" class="statement"><rect x="0" y="0" rx="10" ry="5" width="17.63047981262207" height="40" class="sprotty-node" style="fill:rgb(245, 245, 245);stroke:rgb(112, 112, 112);"/><g id="sprotty_ArchitectureBlockImpl$work.example(synth)/AssignmentBlockImpl$null6/label" transform="translate(5, 18.28515625) translate(0, 0.700526237487793)" class="sprotty-label statement" style="cursor:default;fill:rgb(48, 48, 48);font-family:Arial, Helvetica, sans-serif;text-anchor:middle;"><path d="M3.50-1.39L3.50-0.70L0.31-2.11L0.31-2.53L3.50-4.13L3.50-3.44L1.17-2.35L3.50-1.39ZM7.30-2.68L4.14-2.68L4.14-3.30L7.30-3.30L7.30-2.68ZM7.30-1.39L4.14-1.39L4.14-2.01L7.30-2.01L7.30-1.39Z" transform="translate(0, 3.42838)"/><rect x="0" y="-0.7003499999999999" width="7.6304799999999995" height="3.42838" class="clickable" style="cursor:pointer;fill:rgba(0, 0, 0, 0);fill-opacity:0;stroke-width:0px;"/></g><g id="sprotty_ArchitectureBlockImpl$work.example(synth)/AssignmentBlockImpl$null6/GPortImpl$a" transform="translate(0, 10)" class="sprotty-hidden hidden" style="display:block;height:0px;width:0px;"/><g id="sprotty_ArchitectureBlockImpl$work.example(synth)/AssignmentBlockImpl$null6/GPortImpl$bb" transform="translate(0, 20)" class="sprotty-hidden hidden" style="display:block;height:0px;width:0px;"/><g id="sprotty_ArchitectureBlockImpl$work.example(synth)/AssignmentBlockImpl$null6/GPortImpl$cb" transform="translate(0, 30)" class="sprotty-hidden hidden" style="display:block;height:0px;width:0px;"/><g id="sprotty_ArchitectureBlockImpl$work.example(synth)/AssignmentBlockImpl$null6/GPortImpl$n2" transform="translate(17.63047981262207, 20)" class="sprotty-hidden hidden" style="display:block;height:0px;width:0px;"/></g><g id="sprotty_ArchitectureBlockImpl$work.example(synth)/AssignmentBlockImpl$null7" transform="translate(111.80998229980469, 98)" class="statement"><rect x="0" y="0" rx="10" ry="5" width="17.63047981262207" height="40" class="sprotty-node" style="fill:rgb(245, 245, 245);stroke:rgb(112, 112, 112);"/><g id="sprotty_ArchitectureBlockImpl$work.example(synth)/AssignmentBlockImpl$null7/label" transform="translate(5, 18.28515625) translate(0, 0.700526237487793)" class="sprotty-label statement" style="cursor:default;fill:rgb(48, 48, 48);font-family:Arial, Helvetica, sans-serif;text-anchor:middle;"><path d="M3.50-1.39L3.50-0.70L0.31-2.11L0.31-2.53L3.50-4.13L3.50-3.44L1.17-2.35L3.50-1.39ZM7.30-2.68L4.14-2.68L4.14-3.30L7.30-3.30L7.30-2.68ZM7.30-1.39L4.14-1.39L4.14-2.01L7.30-2.01L7.30-1.39Z" transform="translate(0, 3.42838)"/><rect x="0" y="-0.7003499999999999" width="7.6304799999999995" height="3.42838" class="clickable" style="cursor:pointer;fill:rgba(0, 0, 0, 0);fill-opacity:0;stroke-width:0px;"/></g><g id="sprotty_ArchitectureBlockImpl$work.example(synth)/AssignmentBlockImpl$null7/GPortImpl$bb" transform="translate(0, 10)" class="sprotty-hidden hidden" style="display:block;height:0px;width:0px;"/><g id="sprotty_ArchitectureBlockImpl$work.example(synth)/AssignmentBlockImpl$null7/GPortImpl$cb" transform="translate(0, 20)" class="sprotty-hidden hidden" style="display:block;height:0px;width:0px;"/><g id="sprotty_ArchitectureBlockImpl$work.example(synth)/AssignmentBlockImpl$null7/GPortImpl$ab" transform="translate(0, 30)" class="sprotty-hidden hidden" style="display:block;height:0px;width:0px;"/><g id="sprotty_ArchitectureBlockImpl$work.example(synth)/AssignmentBlockImpl$null7/GPortImpl$n1" transform="translate(17.63047981262207, 20)" class="sprotty-hidden hidden" style="display:block;height:0px;width:0px;"/></g><g id="sprotty_ArchitectureBlockImpl$work.example(synth)/AssignmentBlockImpl$null8" transform="translate(64.17950057983398, 108)" class="statement"><rect x="0" y="0" rx="10" ry="5" width="17.63047981262207" height="20" class="sprotty-node" style="fill:rgb(245, 245, 245);stroke:rgb(112, 112, 112);"/><g id="sprotty_ArchitectureBlockImpl$work.example(synth)/AssignmentBlockImpl$null8/label" transform="translate(5, 8.28515625) translate(0, 0.700526237487793)" class="sprotty-label statement" style="cursor:default;fill:rgb(48, 48, 48);font-family:Arial, Helvetica, sans-serif;text-anchor:middle;"><path d="M3.50-1.39L3.50-0.70L0.31-2.11L0.31-2.53L3.50-4.13L3.50-3.44L1.17-2.35L3.50-1.39ZM7.30-2.68L4.14-2.68L4.14-3.30L7.30-3.30L7.30-2.68ZM7.30-1.39L4.14-1.39L4.14-2.01L7.30-2.01L7.30-1.39Z" transform="translate(0, 3.42838)"/><rect x="0" y="-0.7003499999999999" width="7.6304799999999995" height="3.42838" class="clickable" style="cursor:pointer;fill:rgba(0, 0, 0, 0);fill-opacity:0;stroke-width:0px;"/></g><g id="sprotty_ArchitectureBlockImpl$work.example(synth)/AssignmentBlockImpl$null8/GPortImpl$c" transform="translate(0, 10)" class="sprotty-hidden hidden" style="display:block;height:0px;width:0px;"/><g id="sprotty_ArchitectureBlockImpl$work.example(synth)/AssignmentBlockImpl$null8/GPortImpl$cb" transform="translate(17.63047981262207, 10)" class="sprotty-hidden hidden" style="display:block;height:0px;width:0px;"/></g><g id="sprotty_ArchitectureBlockImpl$work.example(synth)/AssignmentBlockImpl$null9" transform="translate(64.17950057983398, 48)" class="statement"><rect x="0" y="0" rx="10" ry="5" width="17.63047981262207" height="20" class="sprotty-node" style="fill:rgb(245, 245, 245);stroke:rgb(112, 112, 112);"/><g id="sprotty_ArchitectureBlockImpl$work.example(synth)/AssignmentBlockImpl$null9/label" transform="translate(5, 8.28515625) translate(0, 0.700526237487793)" class="sprotty-label statement" style="cursor:default;fill:rgb(48, 48, 48);font-family:Arial, Helvetica, sans-serif;text-anchor:middle;"><path d="M3.50-1.39L3.50-0.70L0.31-2.11L0.31-2.53L3.50-4.13L3.50-3.44L1.17-2.35L3.50-1.39ZM7.30-2.68L4.14-2.68L4.14-3.30L7.30-3.30L7.30-2.68ZM7.30-1.39L4.14-1.39L4.14-2.01L7.30-2.01L7.30-1.39Z" transform="translate(0, 3.42838)"/><rect x="0" y="-0.7003499999999999" width="7.6304799999999995" height="3.42838" class="clickable" style="cursor:pointer;fill:rgba(0, 0, 0, 0);fill-opacity:0;stroke-width:0px;"/></g><g id="sprotty_ArchitectureBlockImpl$work.example(synth)/AssignmentBlockImpl$null9/GPortImpl$b" transform="translate(0, 10)" class="sprotty-hidden hidden" style="display:block;height:0px;width:0px;"/><g id="sprotty_ArchitectureBlockImpl$work.example(synth)/AssignmentBlockImpl$null9/GPortImpl$bb" transform="translate(17.63047981262207, 10)" class="sprotty-hidden hidden" style="display:block;height:0px;width:0px;"/></g><g id="sprotty_ArchitectureBlockImpl$work.example(synth)/AssignmentBlockImpl$null10" transform="translate(64.17950057983398, 148)" class="statement"><rect x="0" y="0" rx="10" ry="5" width="17.63047981262207" height="20" class="sprotty-node" style="fill:rgb(245, 245, 245);stroke:rgb(112, 112, 112);"/><g id="sprotty_ArchitectureBlockImpl$work.example(synth)/AssignmentBlockImpl$null10/label" transform="translate(5, 8.28515625) translate(0, 0.700526237487793)" class="sprotty-label statement" style="cursor:default;fill:rgb(48, 48, 48);font-family:Arial, Helvetica, sans-serif;text-anchor:middle;"><path d="M3.50-1.39L3.50-0.70L0.31-2.11L0.31-2.53L3.50-4.13L3.50-3.44L1.17-2.35L3.50-1.39ZM7.30-2.68L4.14-2.68L4.14-3.30L7.30-3.30L7.30-2.68ZM7.30-1.39L4.14-1.39L4.14-2.01L7.30-2.01L7.30-1.39Z" transform="translate(0, 3.42838)"/><rect x="0" y="-0.7003499999999999" width="7.6304799999999995" height="3.42838" class="clickable" style="cursor:pointer;fill:rgba(0, 0, 0, 0);fill-opacity:0;stroke-width:0px;"/></g><g id="sprotty_ArchitectureBlockImpl$work.example(synth)/AssignmentBlockImpl$null10/GPortImpl$a" transform="translate(0, 10)" class="sprotty-hidden hidden" style="display:block;height:0px;width:0px;"/><g id="sprotty_ArchitectureBlockImpl$work.example(synth)/AssignmentBlockImpl$null10/GPortImpl$ab" transform="translate(17.63047981262207, 10)" class="sprotty-hidden hidden" style="display:block;height:0px;width:0px;"/></g><g id="sprotty_ArchitectureBlockImpl$work.example(synth)/GPortImpl$c" transform="translate(0, 203.38150024414062)" class="triangle"><path d="M 0,0 L 5,2.5 L 0,5 Z" transform="translate(-1.67, -2.5)" class="sprotty-port" style="fill:rgb(48, 48, 48);stroke:rgb(48, 48, 48);"/><g class="port sprotty-label" id="sprotty_ArchitectureBlockImpl$work.example(synth)/GPortImpl$c/label" transform="translate(3, 3) translate(0, -0.13300000131130219)" style="cursor:default;fill:rgb(48, 48, 48);font-family:Arial, Helvetica, sans-serif;text-anchor:middle;"><path d="M3.99 0.13L3.99 0.13Q3.05 0.13 2.31-0.25Q1.57-0.64 1.15-1.45Q0.73-2.26 0.73-3.52L0.73-3.52Q0.73-4.84 1.17-5.67Q1.61-6.49 2.36-6.88Q3.11-7.26 4.07-7.26L4.07-7.26Q4.62-7.26 5.12-7.15Q5.63-7.04 5.95-6.88L5.95-6.88L5.59-5.91Q5.27-6.02 4.84-6.13Q4.42-6.24 4.04-6.24L4.04-6.24Q1.94-6.24 1.94-3.54L1.94-3.54Q1.94-2.25 2.45-1.56Q2.97-0.88 3.98-0.88L3.98-0.88Q4.56-0.88 5.01-1.00Q5.45-1.12 5.83-1.29L5.83-1.29L5.83-0.25Q5.47-0.07 5.03 0.03Q4.60 0.13 3.99 0.13Z" transform="translate(4, 9.3948)"/><rect x="0" y="0.133" width="14.384" height="11.3948" class="clickable" style="cursor:pointer;fill:rgba(0, 0, 0, 0);fill-opacity:0;stroke-width:0px;"/></g></g><g id="sprotty_ArchitectureBlockImpl$work.example(synth)/GPortImpl$b" transform="translate(0, 58)" class="triangle"><path d="M 0,0 L 5,2.5 L 0,5 Z" transform="translate(-1.67, -2.5)" class="sprotty-port" style="fill:rgb(48, 48, 48);stroke:rgb(48, 48, 48);"/><g class="port sprotty-label" id="sprotty_ArchitectureBlockImpl$work.example(synth)/GPortImpl$b/label" transform="translate(3, 3) translate(0, -0.13300000131130219)" style="cursor:default;fill:rgb(48, 48, 48);font-family:Arial, Helvetica, sans-serif;text-anchor:middle;"><path d="M4.51 0.13L4.51 0.13Q3.67 0.13 3.14-0.17Q2.61-0.48 2.30-0.90L2.30-0.90L2.21-0.90L1.97 0L1.13 0L1.13-10.11L2.30-10.11L2.30-7.65Q2.30-7.20 2.28-6.80Q2.26-6.41 2.23-6.18L2.23-6.18L2.30-6.18Q2.61-6.64 3.14-6.94Q3.67-7.25 4.51-7.25L4.51-7.25Q5.84-7.25 6.64-6.32Q7.45-5.40 7.45-3.56L7.45-3.56Q7.45-1.73 6.64-0.80Q5.83 0.13 4.51 0.13ZM4.34-0.84L4.34-0.84Q5.29-0.84 5.77-1.54Q6.24-2.25 6.24-3.58L6.24-3.58Q6.24-6.28 4.31-6.28L4.31-6.28Q3.18-6.28 2.74-5.63Q2.30-4.97 2.30-3.60L2.30-3.60L2.30-3.55Q2.30-2.23 2.73-1.54Q3.17-0.84 4.34-0.84Z" transform="translate(4, 12.241)"/><rect x="0" y="0.133" width="16.1795" height="14.241" class="clickable" style="cursor:pointer;fill:rgba(0, 0, 0, 0);fill-opacity:0;stroke-width:0px;"/></g></g><g id="sprotty_ArchitectureBlockImpl$work.example(synth)/GPortImpl$a" transform="translate(0, 179)" class="triangle"><path d="M 0,0 L 5,2.5 L 0,5 Z" transform="translate(-1.67, -2.5)" class="sprotty-port" style="fill:rgb(48, 48, 48);stroke:rgb(48, 48, 48);"/><g class="port sprotty-label" id="sprotty_ArchitectureBlockImpl$work.example(synth)/GPortImpl$a/label" transform="translate(3, 3) translate(0, -0.13300000131130219)" style="cursor:default;fill:rgb(48, 48, 48);font-family:Arial, Helvetica, sans-serif;text-anchor:middle;"><path d="M2.86 0.13L2.86 0.13Q1.89 0.13 1.25-0.38Q0.61-0.89 0.61-1.98L0.61-1.98Q0.61-3.05 1.45-3.62Q2.29-4.20 4.03-4.26L4.03-4.26L5.24-4.30L5.24-4.72Q5.24-5.61 4.85-5.96Q4.47-6.30 3.76-6.30L3.76-6.30Q3.21-6.30 2.70-6.14Q2.19-5.97 1.76-5.76L1.76-5.76L1.40-6.64Q1.86-6.89 2.50-7.07Q3.14-7.25 3.83-7.25L3.83-7.25Q5.13-7.25 5.76-6.68Q6.38-6.10 6.38-4.85L6.38-4.85L6.38 0L5.53 0L5.31-1.01L5.25-1.01Q4.79-0.43 4.28-0.15Q3.76 0.13 2.86 0.13ZM3.13-0.81L3.13-0.81Q4.03-0.81 4.63-1.31Q5.23-1.81 5.23-2.85L5.23-2.85L5.23-3.48L4.18-3.44Q2.85-3.39 2.33-3.02Q1.82-2.65 1.82-1.97L1.82-1.97Q1.82-1.37 2.19-1.09Q2.55-0.81 3.13-0.81Z" transform="translate(4, 9.3815)"/><rect x="0" y="0.133" width="15.461300000000001" height="11.3815" class="clickable" style="cursor:pointer;fill:rgba(0, 0, 0, 0);fill-opacity:0;stroke-width:0px;"/></g></g><g id="sprotty_ArchitectureBlockImpl$work.example(synth)/AssignmentBlockImpl$null9/GPortImpl$bb_to_ArchitectureBlockImpl$work.example(synth)/AssignmentBlockImpl$null5/GPortImpl$bb" class="sprotty-edge edge" style="fill:none;stroke:rgb(112, 112, 112);stroke-linejoin:round;"><path d="M 81.80998039245605 58 L 99.80998229980469 58 C 100.80998229980469 58 101.80998229980469 59 101.80998229980469 60 L 101.80998229980469 167 C 101.80998229980469 168 102.80998229980469 169 103.80998229980469 169 L 111.80998229980469 169 "/></g><g id="sprotty_ArchitectureBlockImpl$work.example(synth)/AssignmentBlockImpl$null9/GPortImpl$bb_to_ArchitectureBlockImpl$work.example(synth)/AssignmentBlockImpl$null6/GPortImpl$bb" class="sprotty-edge edge" style="fill:none;stroke:rgb(112, 112, 112);stroke-linejoin:round;"><path d="M 81.80998039245605 58 L 111.80998229980469 58 "/></g><g id="sprotty_ArchitectureBlockImpl$work.example(synth)/AssignmentBlockImpl$null9/GPortImpl$bb_to_ArchitectureBlockImpl$work.example(synth)/AssignmentBlockImpl$null7/GPortImpl$bb" class="sprotty-edge edge" style="fill:none;stroke:rgb(112, 112, 112);stroke-linejoin:round;"><path d="M 81.80998039245605 58 L 99.80998229980469 58 C 100.80998229980469 58 101.80998229980469 59 101.80998229980469 60 L 101.80998229980469 106 C 101.80998229980469 107 102.80998229980469 108 103.80998229980469 108 L 111.80998229980469 108 "/><circle r="2" id="sprotty_ArchitectureBlockImpl$work.example(synth)/AssignmentBlockImpl$null9/GPortImpl$bb_to_ArchitectureBlockImpl$work.example(synth)/AssignmentBlockImpl$null7/GPortImpl$bb/junction0" transform="translate(101.80998229980469, 58)" class="sprotty-junction junction" style="fill:rgb(112, 112, 112);stroke:none;"/><circle r="2" id="sprotty_ArchitectureBlockImpl$work.example(synth)/AssignmentBlockImpl$null9/GPortImpl$bb_to_ArchitectureBlockImpl$work.example(synth)/AssignmentBlockImpl$null7/GPortImpl$bb/junction1" transform="translate(101.80998229980469, 108)" class="sprotty-junction junction" style="fill:rgb(112, 112, 112);stroke:none;"/></g><g id="sprotty_ArchitectureBlockImpl$work.example(synth)/AssignmentBlockImpl$null8/GPortImpl$cb_to_ArchitectureBlockImpl$work.example(synth)/AssignmentBlockImpl$null6/GPortImpl$cb" class="sprotty-edge edge" style="fill:none;stroke:rgb(112, 112, 112);stroke-linejoin:round;"><path d="M 81.80998039245605 118 L 89.80998229980469 118 C 90.80998229980469 118 91.80998229980469 117 91.80998229980469 116 L 91.80998229980469 70 C 91.80998229980469 69 92.80998229980469 68 93.80998229980469 68 L 111.80998229980469 68 "/><circle r="2" id="sprotty_ArchitectureBlockImpl$work.example(synth)/AssignmentBlockImpl$null8/GPortImpl$cb_to_ArchitectureBlockImpl$work.example(synth)/AssignmentBlockImpl$null6/GPortImpl$cb/junction0" transform="translate(91.80998229980469, 118)" class="sprotty-junction junction" style="fill:rgb(112, 112, 112);stroke:none;"/></g><g id="sprotty_ArchitectureBlockImpl$work.example(synth)/AssignmentBlockImpl$null8/GPortImpl$cb_to_ArchitectureBlockImpl$work.example(synth)/AssignmentBlockImpl$null7/GPortImpl$cb" class="sprotty-edge edge" style="fill:none;stroke:rgb(112, 112, 112);stroke-linejoin:round;"><path d="M 81.80998039245605 118 L 111.80998229980469 118 "/></g><g id="sprotty_ArchitectureBlockImpl$work.example(synth)/AssignmentBlockImpl$null10/GPortImpl$ab_to_ArchitectureBlockImpl$work.example(synth)/AssignmentBlockImpl$null7/GPortImpl$ab" class="sprotty-edge edge" style="fill:none;stroke:rgb(112, 112, 112);stroke-linejoin:round;"><path d="M 81.80998039245605 158 L 89.80998229980469 158 C 90.80998229980469 158 91.80998229980469 157 91.80998229980469 156 L 91.80998229980469 130 C 91.80998229980469 129 92.80998229980469 128 93.80998229980469 128 L 111.80998229980469 128 "/></g><g id="sprotty_ArchitectureBlockImpl$work.example(synth)/AssignmentBlockImpl$null5/GPortImpl$n3_to_ArchitectureBlockImpl$work.example(synth)/AssignmentBlockImpl$null4/GPortImpl$n3" class="sprotty-edge edge" style="fill:none;stroke:rgb(112, 112, 112);stroke-linejoin:round;"><path d="M 129.44046211242676 179 L 137.44046020507812 179 C 138.44046020507812 179 139.44046020507812 178 139.44046020507812 177 L 139.44046020507812 130 C 139.44046020507812 129 140.44046020507812 128 141.44046020507812 128 L 149.44046020507812 128 "/></g><g id="sprotty_ArchitectureBlockImpl$work.example(synth)/AssignmentBlockImpl$null7/GPortImpl$n1_to_ArchitectureBlockImpl$work.example(synth)/AssignmentBlockImpl$null4/GPortImpl$n1" class="sprotty-edge edge" style="fill:none;stroke:rgb(112, 112, 112);stroke-linejoin:round;"><path d="M 129.44046211242676 118 L 149.44046020507812 118 "/></g><g id="sprotty_ArchitectureBlockImpl$work.example(synth)/AssignmentBlockImpl$null6/GPortImpl$n2_to_ArchitectureBlockImpl$work.example(synth)/AssignmentBlockImpl$null4/GPortImpl$n2" class="sprotty-edge edge" style="fill:none;stroke:rgb(112, 112, 112);stroke-linejoin:round;"><path d="M 129.44046211242676 58 L 137.44046020507812 58 C 138.44046020507812 58 139.44046020507812 59 139.44046020507812 60 L 139.44046020507812 106 C 139.44046020507812 107 140.44046020507812 108 141.44046020507812 108 L 149.44046020507812 108 "/></g><g id="sprotty_ArchitectureBlockImpl$work.example(synth)/AssignmentBlockImpl$null5" transform="translate(111.80998229980469, 159)" class="statement"><rect x="0" y="0" rx="10" ry="5" width="17.63047981262207" height="40" class="sprotty-node" style="fill:rgb(245, 245, 245);stroke:rgb(112, 112, 112);"/><g id="sprotty_ArchitectureBlockImpl$work.example(synth)/AssignmentBlockImpl$null5/label" transform="translate(5, 18.28515625) translate(0, 0.700526237487793)" class="sprotty-label statement" style="cursor:default;fill:rgb(48, 48, 48);font-family:Arial, Helvetica, sans-serif;text-anchor:middle;"><path d="M3.50-1.39L3.50-0.70L0.31-2.11L0.31-2.53L3.50-4.13L3.50-3.44L1.17-2.35L3.50-1.39ZM7.30-2.68L4.14-2.68L4.14-3.30L7.30-3.30L7.30-2.68ZM7.30-1.39L4.14-1.39L4.14-2.01L7.30-2.01L7.30-1.39Z" transform="translate(0, 3.42838)"/><rect x="0" y="-0.7003499999999999" width="7.6304799999999995" height="3.42838" class="clickable" style="cursor:pointer;fill:rgba(0, 0, 0, 0);fill-opacity:0;stroke-width:0px;"/></g><g id="sprotty_ArchitectureBlockImpl$work.example(synth)/AssignmentBlockImpl$null5/GPortImpl$c" transform="translate(0, 30)" class="sprotty-hidden hidden" style="display:block;height:0px;width:0px;"/><g id="sprotty_ArchitectureBlockImpl$work.example(synth)/AssignmentBlockImpl$null5/GPortImpl$a" transform="translate(0, 20)" class="sprotty-hidden hidden" style="display:block;height:0px;width:0px;"/><g id="sprotty_ArchitectureBlockImpl$work.example(synth)/AssignmentBlockImpl$null5/GPortImpl$bb" transform="translate(0, 10)" class="sprotty-hidden hidden" style="display:block;height:0px;width:0px;"/><g id="sprotty_ArchitectureBlockImpl$work.example(synth)/AssignmentBlockImpl$null5/GPortImpl$n3" transform="translate(17.63047981262207, 20)" class="sprotty-hidden hidden" style="display:block;height:0px;width:0px;"/></g><g id="sprotty_ArchitectureBlockImpl$work.example(synth)/AssignmentBlockImpl$null4/GPortImpl$y_to_ArchitectureBlockImpl$work.example(synth)/GPortImpl$y" class="sprotty-edge edge" style="fill:none;stroke:rgb(112, 112, 112);stroke-linejoin:round;"><path d="M 167.0709400177002 118 L 199.85394287109375 118 "/></g><g id="sprotty_ArchitectureBlockImpl$work.example(synth)/GPortImpl$y" transform="translate(199.85394287109375, 118)" class="triangle"><path d="M 0,0 L 5,2.5 L 0,5 Z" transform="translate(-1.67, -2.5)" class="sprotty-port" style="fill:rgb(48, 48, 48);stroke:rgb(48, 48, 48);"/><g class="port sprotty-label" id="sprotty_ArchitectureBlockImpl$work.example(synth)/GPortImpl$y/label" transform="translate(-17.782999992370605, 3) translate(0, -3.191999912261963)" style="cursor:default;fill:rgb(48, 48, 48);font-family:Arial, Helvetica, sans-serif;text-anchor:middle;"><path d="M1.12 3.19L1.12 3.19Q0.80 3.19 0.56 3.16Q0.32 3.13 0.15 3.09L0.15 3.09L0.15 2.15Q0.29 2.18 0.50 2.21Q0.70 2.23 0.93 2.23L0.93 2.23Q1.54 2.23 1.92 1.89Q2.29 1.54 2.51 0.97L2.51 0.97L2.89 0.03L0.01-7.13L1.26-7.13L2.81-3.07Q3.01-2.54 3.17-2.05Q3.33-1.57 3.40-1.13L3.40-1.13L3.46-1.13Q3.54-1.46 3.70-2.00Q3.87-2.54 4.07-3.09L4.07-3.09L5.52-7.13L6.78-7.13L3.71 0.98Q3.34 2.00 2.75 2.59Q2.15 3.19 1.12 3.19Z" transform="translate(4, 12.320800000000002)"/><rect x="0" y="3.192" width="14.783000000000001" height="14.320800000000002" class="clickable" style="cursor:pointer;fill:rgba(0, 0, 0, 0);fill-opacity:0;stroke-width:0px;"/></g></g></g></g></svg>