<svg xmlns="http://www.w3.org/2000/svg" id="sprotty_example" class="sprotty-graph sprotty-block-diagram blockdiagram" style="font-family:&quot;Helvetica Neue&quot;, Helvetica, Arial, sans-serif;line-height:18px;perspective-origin:0px 0px;transform-origin:0px 0px;z-index:0;" version="1.1" viewBox="9.5 12 179.501875 101.01730060577393"><g transform="scale(1) translate(0,0)"><g id="sprotty_ArchitectureBlockImpl$work.example(synth)" transform="translate(12, 12)" class="architecture"><g class="sprotty-block" style="fill:rgb(245, 245, 245);stroke:rgb(48, 48, 48);stroke-dasharray:0px;"><rect x="0" y="0" rx="1" ry="1" width="172.672" height="101.01730060577393"/><path d="M14.64 16L12.40 16L11.44 12.27Q11.36 11.97 11.25 11.51Q11.14 11.06 11.02 10.56Q10.90 10.06 10.80 9.65Q10.70 9.23 10.66 9.01L10.66 9.01L10.59 9.01Q10.54 9.23 10.45 9.65Q10.35 10.06 10.24 10.57Q10.13 11.07 10.01 11.53Q9.89 11.98 9.81 12.29L9.81 12.29L8.80 16L6.59 16L4.16 7.31L6.19 7.31L7.26 11.46Q7.38 11.89 7.48 12.41Q7.58 12.93 7.66 13.42Q7.73 13.90 7.78 14.21L7.78 14.21L7.84 14.21Q7.87 13.92 7.96 13.42Q8.05 12.93 8.14 12.46Q8.24 11.98 8.30 11.74L8.30 11.74L9.55 7.31L11.76 7.31L12.96 11.74Q13.02 12.03 13.13 12.50Q13.23 12.96 13.31 13.43Q13.39 13.90 13.41 14.19L13.41 14.19L13.47 14.19Q13.50 13.94 13.58 13.46Q13.66 12.98 13.78 12.43Q13.89 11.89 14.02 11.46L14.02 11.46L15.10 7.31L17.10 7.31L14.64 16ZM26.32 11.65L26.32 11.65Q26.32 13.81 25.20 14.98Q24.08 16.16 22.16 16.16L22.16 16.16Q20.98 16.16 20.05 15.63Q19.12 15.10 18.59 14.10Q18.06 13.09 18.06 11.65L18.06 11.65Q18.06 9.49 19.18 8.33Q20.29 7.17 22.21 7.17L22.21 7.17Q23.41 7.17 24.34 7.69Q25.26 8.21 25.79 9.21Q26.32 10.21 26.32 11.65ZM20.13 11.65L20.13 11.65Q20.13 13.02 20.62 13.78Q21.10 14.53 22.19 14.53L22.19 14.53Q23.28 14.53 23.77 13.78Q24.26 13.02 24.26 11.65L24.26 11.65Q24.26 10.27 23.77 9.54Q23.28 8.80 22.18 8.80L22.18 8.80Q21.10 8.80 20.62 9.54Q20.13 10.27 20.13 11.65ZM32.94 7.17L32.94 7.17Q33.15 7.17 33.40 7.18Q33.65 7.20 33.82 7.25L33.82 7.25L33.65 9.12Q33.49 9.09 33.26 9.06Q33.04 9.04 32.86 9.04L32.86 9.04Q32.22 9.04 31.66 9.30Q31.10 9.57 30.76 10.12Q30.42 10.67 30.42 11.50L30.42 11.50L30.42 16L28.40 16L28.40 7.33L29.95 7.33L30.24 8.83L30.34 8.83Q30.72 8.14 31.39 7.66Q32.06 7.17 32.94 7.17ZM35.42 3.84L37.42 3.84L37.42 9.62Q37.42 10.03 37.39 10.50Q37.36 10.96 37.33 11.38L37.33 11.38L37.38 11.38Q37.57 11.09 37.86 10.72Q38.14 10.35 38.40 10.06L38.40 10.06L40.96 7.33L43.25 7.33L39.78 11.07L43.47 16L41.12 16L38.43 12.29L37.42 13.12L37.42 16L35.42 16L35.42 3.84ZM44.54 14.98L44.54 14.98Q44.54 14.30 44.90 14.02Q45.25 13.74 45.76 13.74L45.76 13.74Q46.26 13.74 46.62 14.02Q46.99 14.30 46.99 14.98L46.99 14.98Q46.99 15.63 46.62 15.92Q46.26 16.21 45.76 16.21L45.76 16.21Q45.25 16.21 44.90 15.92Q44.54 15.63 44.54 14.98ZM52.78 7.17L52.78 7.17Q54.53 7.17 55.54 8.21Q56.56 9.25 56.56 11.10L56.56 11.10L56.56 12.13L50.83 12.13Q50.86 13.31 51.49 13.96Q52.11 14.61 53.22 14.61L53.22 14.61Q54.05 14.61 54.72 14.44Q55.39 14.27 56.10 13.95L56.10 13.95L56.10 15.57Q55.46 15.87 54.77 16.02Q54.08 16.16 53.12 16.16L53.12 16.16Q51.86 16.16 50.87 15.67Q49.89 15.18 49.34 14.19Q48.78 13.20 48.78 11.73L48.78 11.73Q48.78 9.50 49.89 8.34Q50.99 7.17 52.78 7.17ZM52.78 8.66L52.78 8.66Q51.97 8.66 51.46 9.18Q50.96 9.70 50.88 10.72L50.88 10.72L54.61 10.72Q54.59 9.82 54.15 9.24Q53.71 8.66 52.78 8.66ZM57.14 16L60.14 11.57L57.28 7.33L59.57 7.33L61.46 10.27L63.34 7.33L65.63 7.33L62.74 11.57L65.78 16L63.49 16L61.46 12.85L59.42 16L57.14 16ZM70.69 7.17L70.69 7.17Q72.37 7.17 73.24 7.90Q74.11 8.64 74.11 10.18L74.11 10.18L74.11 16L72.69 16L72.29 14.80L72.22 14.80Q71.66 15.50 71.04 15.83Q70.42 16.16 69.34 16.16L69.34 16.16Q68.18 16.16 67.41 15.50Q66.64 14.85 66.64 13.47L66.64 13.47Q66.64 12.13 67.62 11.46Q68.61 10.78 70.61 10.70L70.61 10.70L72.11 10.66L72.11 10.22Q72.11 9.41 71.71 9.05Q71.31 8.69 70.59 8.69L70.59 8.69Q69.94 8.69 69.34 8.88Q68.74 9.07 68.14 9.33L68.14 9.33L67.50 7.92Q68.14 7.58 68.97 7.38Q69.79 7.17 70.69 7.17ZM72.11 12.64L72.11 11.90L71.06 11.94Q69.73 11.98 69.22 12.39Q68.70 12.80 68.70 13.49L68.70 13.49Q68.70 14.11 69.06 14.38Q69.42 14.64 70.02 14.64L70.02 14.64Q70.90 14.64 71.50 14.14Q72.11 13.63 72.11 12.64L72.11 12.64ZM86.58 7.17L86.58 7.17Q88.05 7.17 88.79 7.92Q89.54 8.67 89.54 10.35L89.54 10.35L89.54 16L87.52 16L87.52 10.74Q87.52 8.80 86.05 8.80L86.05 8.80Q84.99 8.80 84.54 9.49Q84.10 10.18 84.10 11.49L84.10 11.49L84.10 16L82.08 16L82.08 10.74Q82.08 8.80 80.59 8.80L80.59 8.80Q79.49 8.80 79.07 9.57Q78.66 10.34 78.66 11.76L78.66 11.76L78.66 16L76.64 16L76.64 7.33L78.19 7.33L78.48 8.46L78.59 8.46Q78.98 7.79 79.67 7.48Q80.37 7.17 81.12 7.17L81.12 7.17Q82.10 7.17 82.76 7.50Q83.42 7.82 83.78 8.51L83.78 8.51L83.94 8.51Q84.34 7.81 85.06 7.49Q85.78 7.17 86.58 7.17ZM96.62 7.17L96.62 7.17Q98.14 7.17 99.07 8.30Q100 9.42 100 11.65L100 11.65Q100 13.87 99.05 15.02Q98.10 16.16 96.58 16.16L96.58 16.16Q95.62 16.16 95.02 15.81Q94.43 15.46 94.08 14.99L94.08 14.99L93.95 14.99Q94 15.30 94.04 15.66Q94.08 16.02 94.08 16.32L94.08 16.32L94.08 19.84L92.06 19.84L92.06 7.33L93.70 7.33L93.98 8.48L94.08 8.48Q94.43 7.94 95.04 7.55Q95.65 7.17 96.62 7.17ZM96.05 8.80L96.05 8.80Q94.98 8.80 94.54 9.44Q94.10 10.08 94.08 11.38L94.08 11.38L94.08 11.63Q94.08 13.02 94.50 13.77Q94.93 14.51 96.08 14.51L96.08 14.51Q97.02 14.51 97.48 13.74Q97.94 12.96 97.94 11.62L97.94 11.62Q97.94 10.27 97.48 9.54Q97.02 8.80 96.05 8.80ZM104.10 3.84L104.10 16L102.08 16L102.08 3.84L104.10 3.84ZM110.16 7.17L110.16 7.17Q111.90 7.17 112.92 8.21Q113.94 9.25 113.94 11.10L113.94 11.10L113.94 12.13L108.21 12.13Q108.24 13.31 108.86 13.96Q109.49 14.61 110.59 14.61L110.59 14.61Q111.42 14.61 112.10 14.44Q112.77 14.27 113.47 13.95L113.47 13.95L113.47 15.57Q112.83 15.87 112.14 16.02Q111.46 16.16 110.50 16.16L110.50 16.16Q109.23 16.16 108.25 15.67Q107.26 15.18 106.71 14.19Q106.16 13.20 106.16 11.73L106.16 11.73Q106.16 9.50 107.26 8.34Q108.37 7.17 110.16 7.17ZM110.16 8.66L110.16 8.66Q109.34 8.66 108.84 9.18Q108.34 9.70 108.26 10.72L108.26 10.72L111.98 10.72Q111.97 9.82 111.53 9.24Q111.09 8.66 110.16 8.66ZM115.31 11.62L115.31 11.62Q115.31 9.66 115.88 7.85Q116.45 6.03 117.66 4.58L117.66 4.58L119.38 4.58Q118.27 6.08 117.71 7.89Q117.15 9.70 117.15 11.60L117.15 11.60Q117.15 13.46 117.71 15.25Q118.27 17.04 119.36 18.53L119.36 18.53L117.66 18.53Q116.45 17.12 115.88 15.34Q115.31 13.55 115.31 11.62ZM127.06 13.49L127.06 13.49Q127.06 14.80 126.12 15.48Q125.18 16.16 123.44 16.16L123.44 16.16Q122.53 16.16 121.88 16.03Q121.23 15.90 120.62 15.63L120.62 15.63L120.62 13.92Q121.26 14.22 122.04 14.43Q122.82 14.64 123.50 14.64L123.50 14.64Q124.34 14.64 124.70 14.38Q125.07 14.13 125.07 13.70L125.07 13.70Q125.07 13.44 124.93 13.24Q124.78 13.04 124.36 12.80Q123.94 12.56 123.10 12.21L123.10 12.21Q122.27 11.89 121.72 11.54Q121.17 11.20 120.89 10.74Q120.61 10.27 120.61 9.54L120.61 9.54Q120.61 8.37 121.53 7.77Q122.45 7.17 123.98 7.17L123.98 7.17Q124.78 7.17 125.50 7.33Q126.21 7.49 126.93 7.81L126.93 7.81L126.29 9.30Q125.68 9.04 125.10 8.86Q124.53 8.69 123.92 8.69L123.92 8.69Q122.59 8.69 122.59 9.44L122.59 9.44Q122.59 9.71 122.76 9.90Q122.93 10.10 123.35 10.31Q123.78 10.53 124.56 10.83L124.56 10.83Q125.33 11.14 125.89 11.46Q126.45 11.79 126.75 12.27Q127.06 12.75 127.06 13.49ZM131.17 15.97L127.70 7.33L129.89 7.33L131.62 12.22Q131.79 12.69 131.90 13.14Q132.02 13.58 132.06 14.05L132.06 14.05L132.13 14.05Q132.19 13.65 132.32 13.17Q132.45 12.69 132.61 12.22L132.61 12.22L134.27 7.33L136.45 7.33L132.75 17.15Q132.26 18.45 131.40 19.14Q130.54 19.84 129.30 19.84L129.30 19.84Q128.90 19.84 128.61 19.80Q128.32 19.76 128.10 19.71L128.10 19.71L128.10 18.11Q128.27 18.14 128.52 18.18Q128.77 18.21 129.04 18.21L129.04 18.21Q129.79 18.21 130.23 17.77Q130.67 17.33 130.91 16.67L130.91 16.67L131.17 15.97ZM142.38 7.17L142.38 7.17Q143.84 7.17 144.66 7.92Q145.49 8.67 145.49 10.35L145.49 10.35L145.49 16L143.47 16L143.47 10.75Q143.47 8.80 141.87 8.80L141.87 8.80Q140.66 8.80 140.21 9.57Q139.76 10.34 139.76 11.76L139.76 11.76L139.76 16L137.74 16L137.74 7.33L139.30 7.33L139.58 8.46L139.70 8.46Q140.11 7.79 140.84 7.48Q141.57 7.17 142.38 7.17ZM151.38 14.54L151.38 14.54Q151.74 14.54 152.10 14.47Q152.46 14.40 152.77 14.30L152.77 14.30L152.77 15.81Q152.45 15.95 151.94 16.06Q151.42 16.16 150.86 16.16L150.86 16.16Q150.13 16.16 149.52 15.91Q148.91 15.66 148.56 15.06Q148.21 14.45 148.21 13.36L148.21 13.36L148.21 8.85L147.04 8.85L147.04 7.97L148.32 7.26L148.96 5.42L150.22 5.42L150.22 7.33L152.69 7.33L152.69 8.85L150.22 8.85L150.22 13.34Q150.22 13.95 150.54 14.25Q150.86 14.54 151.38 14.54ZM154.51 3.84L156.53 3.84L156.53 6.74Q156.53 7.25 156.49 7.74Q156.45 8.22 156.42 8.46L156.42 8.46L156.54 8.46Q156.96 7.81 157.63 7.49Q158.30 7.17 159.12 7.17L159.12 7.17Q160.59 7.17 161.42 7.92Q162.26 8.67 162.26 10.35L162.26 10.35L162.26 16L160.24 16L160.24 10.75Q160.24 8.80 158.64 8.80L158.64 8.80Q157.42 8.80 156.98 9.57Q156.53 10.34 156.53 11.76L156.53 11.76L156.53 16L154.51 16L154.51 3.84ZM168.03 11.62L168.03 11.62Q168.03 13.55 167.46 15.34Q166.90 17.12 165.68 18.53L165.68 18.53L163.98 18.53Q165.07 17.04 165.64 15.25Q166.21 13.46 166.21 11.60L166.21 11.60Q166.21 9.70 165.64 7.89Q165.07 6.08 163.97 4.58L163.97 4.58L165.68 4.58Q166.90 6.03 167.46 7.85Q168.03 9.66 168.03 11.62Z" class="sprotty-block-name" style="fill:rgb(48, 48, 48);stroke:rgba(0, 0, 0, 0);"/><line x1="0" y1="20" x2="172.672" y2="20"/></g><g id="sprotty_ArchitectureBlockImpl$work.example(synth)/GPortImpl$c" transform="translate(0, 83.31990051269531)" class="triangle"><path d="M 0,0 L 5,2.5 L 0,5 Z" transform="translate(-1.67, -2.5)" class="sprotty-port" style="fill:rgb(48, 48, 48);stroke:rgb(48, 48, 48);"/><g class="port sprotty-label" id="sprotty_ArchitectureBlockImpl$work.example(synth)/GPortImpl$c/label" transform="translate(3, -5.697400093078613) translate(0, -0.13300000131130219)" style="cursor:default;fill:rgb(48, 48, 48);font-family:Arial, Helvetica, sans-serif;text-anchor:middle;"><path d="M3.99 0.13L3.99 0.13Q3.05 0.13 2.31-0.25Q1.57-0.64 1.15-1.45Q0.73-2.26 0.73-3.52L0.73-3.52Q0.73-4.84 1.17-5.67Q1.61-6.49 2.36-6.88Q3.11-7.26 4.07-7.26L4.07-7.26Q4.62-7.26 5.12-7.15Q5.63-7.04 5.95-6.88L5.95-6.88L5.59-5.91Q5.27-6.02 4.84-6.13Q4.42-6.24 4.04-6.24L4.04-6.24Q1.94-6.24 1.94-3.54L1.94-3.54Q1.94-2.25 2.45-1.56Q2.97-0.88 3.98-0.88L3.98-0.88Q4.56-0.88 5.01-1.00Q5.45-1.12 5.83-1.29L5.83-1.29L5.83-0.25Q5.47-0.07 5.03 0.03Q4.60 0.13 3.99 0.13Z" transform="translate(4, 9.3948)"/><rect x="0" y="0.133" width="14.384" height="11.3948" class="clickable" style="cursor:pointer;fill:rgba(0, 0, 0, 0);fill-opacity:0;stroke-width:0px;"/></g></g><g id="sprotty_ArchitectureBlockImpl$work.example(synth)/GPortImpl$b" transform="translate(0, 60.50200033187866)" class="triangle"><path d="M 0,0 L 5,2.5 L 0,5 Z" transform="translate(-1.67, -2.5)" class="sprotty-port" style="fill:rgb(48, 48, 48);stroke:rgb(48, 48, 48);"/><g class="port sprotty-label" id="sprotty_ArchitectureBlockImpl$work.example(synth)/GPortImpl$b/label" transform="translate(3, -7.120500087738037) translate(0, -0.13300000131130219)" style="cursor:default;fill:rgb(48, 48, 48);font-family:Arial, Helvetica, sans-serif;text-anchor:middle;"><path d="M4.51 0.13L4.51 0.13Q3.67 0.13 3.14-0.17Q2.61-0.48 2.30-0.90L2.30-0.90L2.21-0.90L1.97 0L1.13 0L1.13-10.11L2.30-10.11L2.30-7.65Q2.30-7.20 2.28-6.80Q2.26-6.41 2.23-6.18L2.23-6.18L2.30-6.18Q2.61-6.64 3.14-6.94Q3.67-7.25 4.51-7.25L4.51-7.25Q5.84-7.25 6.64-6.32Q7.45-5.40 7.45-3.56L7.45-3.56Q7.45-1.73 6.64-0.80Q5.83 0.13 4.51 0.13ZM4.34-0.84L4.34-0.84Q5.29-0.84 5.77-1.54Q6.24-2.25 6.24-3.58L6.24-3.58Q6.24-6.28 4.31-6.28L4.31-6.28Q3.18-6.28 2.74-5.63Q2.30-4.97 2.30-3.60L2.30-3.60L2.30-3.55Q2.30-2.23 2.73-1.54Q3.17-0.84 4.34-0.84Z" transform="translate(4, 12.241)"/><rect x="0" y="0.133" width="16.1795" height="14.241" class="clickable" style="cursor:pointer;fill:rgba(0, 0, 0, 0);fill-opacity:0;stroke-width:0px;"/></g></g><g id="sprotty_ArchitectureBlockImpl$work.example(synth)/GPortImpl$a" transform="translate(0, 37.69075012207031)" class="triangle"><path d="M 0,0 L 5,2.5 L 0,5 Z" transform="translate(-1.67, -2.5)" class="sprotty-port" style="fill:rgb(48, 48, 48);stroke:rgb(48, 48, 48);"/><g class="port sprotty-label" id="sprotty_ArchitectureBlockImpl$work.example(synth)/GPortImpl$a/label" transform="translate(3, -5.6907501220703125) translate(0, -0.13300000131130219)" style="cursor:default;fill:rgb(48, 48, 48);font-family:Arial, Helvetica, sans-serif;text-anchor:middle;"><path d="M2.86 0.13L2.86 0.13Q1.89 0.13 1.25-0.38Q0.61-0.89 0.61-1.98L0.61-1.98Q0.61-3.05 1.45-3.62Q2.29-4.20 4.03-4.26L4.03-4.26L5.24-4.30L5.24-4.72Q5.24-5.61 4.85-5.96Q4.47-6.30 3.76-6.30L3.76-6.30Q3.21-6.30 2.70-6.14Q2.19-5.97 1.76-5.76L1.76-5.76L1.40-6.64Q1.86-6.89 2.50-7.07Q3.14-7.25 3.83-7.25L3.83-7.25Q5.13-7.25 5.76-6.68Q6.38-6.10 6.38-4.85L6.38-4.85L6.38 0L5.53 0L5.31-1.01L5.25-1.01Q4.79-0.43 4.28-0.15Q3.76 0.13 2.86 0.13ZM3.13-0.81L3.13-0.81Q4.03-0.81 4.63-1.31Q5.23-1.81 5.23-2.85L5.23-2.85L5.23-3.48L4.18-3.44Q2.85-3.39 2.33-3.02Q1.82-2.65 1.82-1.97L1.82-1.97Q1.82-1.37 2.19-1.09Q2.55-0.81 3.13-0.81Z" transform="translate(4, 9.3815)"/><rect x="0" y="0.133" width="15.461300000000001" height="11.3815" class="clickable" style="cursor:pointer;fill:rgba(0, 0, 0, 0);fill-opacity:0;stroke-width:0px;"/></g></g><g id="sprotty_ArchitectureBlockImpl$work.example(synth)/GPortImpl$y" transform="translate(172.671875, 60.50865030288696)" class="triangle"><path d="M 0,0 L 5,2.5 L 0,5 Z" transform="translate(-1.67, -2.5)" class="sprotty-port" style="fill:rgb(48, 48, 48);stroke:rgb(48, 48, 48);"/><g class="port sprotty-label" id="sprotty_ArchitectureBlockImpl$work.example(synth)/GPortImpl$y/label" transform="translate(-17.782999992370605, -7.160400390625) translate(0, -3.191999912261963)" style="cursor:default;fill:rgb(48, 48, 48);font-family:Arial, Helvetica, sans-serif;text-anchor:middle;"><path d="M1.12 3.19L1.12 3.19Q0.80 3.19 0.56 3.16Q0.32 3.13 0.15 3.09L0.15 3.09L0.15 2.15Q0.29 2.18 0.50 2.21Q0.70 2.23 0.93 2.23L0.93 2.23Q1.54 2.23 1.92 1.89Q2.29 1.54 2.51 0.97L2.51 0.97L2.89 0.03L0.01-7.13L1.26-7.13L2.81-3.07Q3.01-2.54 3.17-2.05Q3.33-1.57 3.40-1.13L3.40-1.13L3.46-1.13Q3.54-1.46 3.70-2.00Q3.87-2.54 4.07-3.09L4.07-3.09L5.52-7.13L6.78-7.13L3.71 0.98Q3.34 2.00 2.75 2.59Q2.15 3.19 1.12 3.19Z" transform="translate(4, 12.320800000000002)"/><rect x="0" y="3.192" width="14.783000000000001" height="14.320800000000002" class="clickable" style="cursor:pointer;fill:rgba(0, 0, 0, 0);fill-opacity:0;stroke-width:0px;"/></g></g></g></g></svg>