<svg xmlns="http://www.w3.org/2000/svg" id="sprotty_example_tb" class="sprotty-graph sprotty-block-diagram blockdiagram" style="font-family:&quot;Helvetica Neue&quot;, Helvetica, Arial, sans-serif;line-height:18px;perspective-origin:0px 0px;transform-origin:0px 0px;z-index:0;" version="1.1" viewBox="9.5 12 264.4626904296875 151.01730060577393"><g transform="scale(1) translate(0,0)"><g id="sprotty_ArchitectureBlockImpl$work.example_tb(RTL)" transform="translate(12, 12)" class="architecture"><g class="sprotty-block" style="fill:rgb(245, 245, 245);stroke:rgb(48, 48, 48);stroke-dasharray:0px;"><rect x="0" y="0" rx="1" ry="1" width="257.6326904296875" height="151.01730060577393"/><path d="M53.17 16L50.93 16L49.97 12.27Q49.89 11.97 49.78 11.51Q49.66 11.06 49.54 10.56Q49.42 10.06 49.33 9.65Q49.23 9.23 49.18 9.01L49.18 9.01L49.12 9.01Q49.07 9.23 48.98 9.65Q48.88 10.06 48.77 10.57Q48.66 11.07 48.54 11.53Q48.42 11.98 48.34 12.29L48.34 12.29L47.33 16L45.12 16L42.69 7.31L44.72 7.31L45.79 11.46Q45.90 11.89 46.01 12.41Q46.11 12.93 46.18 13.42Q46.26 13.90 46.30 14.21L46.30 14.21L46.37 14.21Q46.40 13.92 46.49 13.42Q46.58 12.93 46.67 12.46Q46.77 11.98 46.83 11.74L46.83 11.74L48.08 7.31L50.29 7.31L51.49 11.74Q51.55 12.03 51.66 12.50Q51.76 12.96 51.84 13.43Q51.92 13.90 51.94 14.19L51.94 14.19L52.00 14.19Q52.03 13.94 52.11 13.46Q52.19 12.98 52.30 12.43Q52.42 11.89 52.54 11.46L52.54 11.46L53.63 7.31L55.63 7.31L53.17 16ZM64.85 11.65L64.85 11.65Q64.85 13.81 63.73 14.98Q62.61 16.16 60.69 16.16L60.69 16.16Q59.50 16.16 58.58 15.63Q57.65 15.10 57.12 14.10Q56.59 13.09 56.59 11.65L56.59 11.65Q56.59 9.49 57.70 8.33Q58.82 7.17 60.74 7.17L60.74 7.17Q61.94 7.17 62.86 7.69Q63.79 8.21 64.32 9.21Q64.85 10.21 64.85 11.65ZM58.66 11.65L58.66 11.65Q58.66 13.02 59.14 13.78Q59.63 14.53 60.72 14.53L60.72 14.53Q61.81 14.53 62.30 13.78Q62.78 13.02 62.78 11.65L62.78 11.65Q62.78 10.27 62.30 9.54Q61.81 8.80 60.70 8.80L60.70 8.80Q59.63 8.80 59.14 9.54Q58.66 10.27 58.66 11.65ZM71.47 7.17L71.47 7.17Q71.68 7.17 71.93 7.18Q72.18 7.20 72.35 7.25L72.35 7.25L72.18 9.12Q72.02 9.09 71.79 9.06Q71.57 9.04 71.39 9.04L71.39 9.04Q70.75 9.04 70.19 9.30Q69.63 9.57 69.29 10.12Q68.94 10.67 68.94 11.50L68.94 11.50L68.94 16L66.93 16L66.93 7.33L68.48 7.33L68.77 8.83L68.86 8.83Q69.25 8.14 69.92 7.66Q70.59 7.17 71.47 7.17ZM73.95 3.84L75.95 3.84L75.95 9.62Q75.95 10.03 75.92 10.50Q75.89 10.96 75.86 11.38L75.86 11.38L75.90 11.38Q76.10 11.09 76.38 10.72Q76.67 10.35 76.93 10.06L76.93 10.06L79.49 7.33L81.78 7.33L78.30 11.07L82.00 16L79.65 16L76.96 12.29L75.95 13.12L75.95 16L73.95 16L73.95 3.84ZM83.07 14.98L83.07 14.98Q83.07 14.30 83.42 14.02Q83.78 13.74 84.29 13.74L84.29 13.74Q84.78 13.74 85.15 14.02Q85.52 14.30 85.52 14.98L85.52 14.98Q85.52 15.63 85.15 15.92Q84.78 16.21 84.29 16.21L84.29 16.21Q83.78 16.21 83.42 15.92Q83.07 15.63 83.07 14.98ZM91.31 7.17L91.31 7.17Q93.06 7.17 94.07 8.21Q95.09 9.25 95.09 11.10L95.09 11.10L95.09 12.13L89.36 12.13Q89.39 13.31 90.02 13.96Q90.64 14.61 91.74 14.61L91.74 14.61Q92.58 14.61 93.25 14.44Q93.92 14.27 94.62 13.95L94.62 13.95L94.62 15.57Q93.98 15.87 93.30 16.02Q92.61 16.16 91.65 16.16L91.65 16.16Q90.38 16.16 89.40 15.67Q88.42 15.18 87.86 14.19Q87.31 13.20 87.31 11.73L87.31 11.73Q87.31 9.50 88.42 8.34Q89.52 7.17 91.31 7.17ZM91.31 8.66L91.31 8.66Q90.50 8.66 89.99 9.18Q89.49 9.70 89.41 10.72L89.41 10.72L93.14 10.72Q93.12 9.82 92.68 9.24Q92.24 8.66 91.31 8.66ZM95.66 16L98.67 11.57L95.81 7.33L98.10 7.33L99.98 10.27L101.87 7.33L104.16 7.33L101.26 11.57L104.30 16L102.02 16L99.98 12.85L97.95 16L95.66 16ZM109.22 7.17L109.22 7.17Q110.90 7.17 111.77 7.90Q112.64 8.64 112.64 10.18L112.64 10.18L112.64 16L111.22 16L110.82 14.80L110.75 14.80Q110.19 15.50 109.57 15.83Q108.94 16.16 107.87 16.16L107.87 16.16Q106.70 16.16 105.94 15.50Q105.17 14.85 105.17 13.47L105.17 13.47Q105.17 12.13 106.15 11.46Q107.14 10.78 109.14 10.70L109.14 10.70L110.64 10.66L110.64 10.22Q110.64 9.41 110.24 9.05Q109.84 8.69 109.12 8.69L109.12 8.69Q108.46 8.69 107.86 8.88Q107.26 9.07 106.67 9.33L106.67 9.33L106.03 7.92Q106.67 7.58 107.50 7.38Q108.32 7.17 109.22 7.17ZM110.64 12.64L110.64 11.90L109.58 11.94Q108.26 11.98 107.74 12.39Q107.23 12.80 107.23 13.49L107.23 13.49Q107.23 14.11 107.59 14.38Q107.95 14.64 108.54 14.64L108.54 14.64Q109.42 14.64 110.03 14.14Q110.64 13.63 110.64 12.64L110.64 12.64ZM125.10 7.17L125.10 7.17Q126.58 7.17 127.32 7.92Q128.06 8.67 128.06 10.35L128.06 10.35L128.06 16L126.05 16L126.05 10.74Q126.05 8.80 124.58 8.80L124.58 8.80Q123.52 8.80 123.07 9.49Q122.62 10.18 122.62 11.49L122.62 11.49L122.62 16L120.61 16L120.61 10.74Q120.61 8.80 119.12 8.80L119.12 8.80Q118.02 8.80 117.60 9.57Q117.18 10.34 117.18 11.76L117.18 11.76L117.18 16L115.17 16L115.17 7.33L116.72 7.33L117.01 8.46L117.12 8.46Q117.50 7.79 118.20 7.48Q118.90 7.17 119.65 7.17L119.65 7.17Q120.62 7.17 121.29 7.50Q121.95 7.82 122.30 8.51L122.30 8.51L122.46 8.51Q122.86 7.81 123.58 7.49Q124.30 7.17 125.10 7.17ZM135.15 7.17L135.15 7.17Q136.67 7.17 137.60 8.30Q138.53 9.42 138.53 11.65L138.53 11.65Q138.53 13.87 137.58 15.02Q136.62 16.16 135.10 16.16L135.10 16.16Q134.14 16.16 133.55 15.81Q132.96 15.46 132.61 14.99L132.61 14.99L132.48 14.99Q132.53 15.30 132.57 15.66Q132.61 16.02 132.61 16.32L132.61 16.32L132.61 19.84L130.59 19.84L130.59 7.33L132.22 7.33L132.51 8.48L132.61 8.48Q132.96 7.94 133.57 7.55Q134.18 7.17 135.15 7.17ZM134.58 8.80L134.58 8.80Q133.50 8.80 133.06 9.44Q132.62 10.08 132.61 11.38L132.61 11.38L132.61 11.63Q132.61 13.02 133.03 13.77Q133.46 14.51 134.61 14.51L134.61 14.51Q135.55 14.51 136.01 13.74Q136.46 12.96 136.46 11.62L136.46 11.62Q136.46 10.27 136.01 9.54Q135.55 8.80 134.58 8.80ZM142.62 3.84L142.62 16L140.61 16L140.61 3.84L142.62 3.84ZM148.69 7.17L148.69 7.17Q150.43 7.17 151.45 8.21Q152.46 9.25 152.46 11.10L152.46 11.10L152.46 12.13L146.74 12.13Q146.77 13.31 147.39 13.96Q148.02 14.61 149.12 14.61L149.12 14.61Q149.95 14.61 150.62 14.44Q151.30 14.27 152.00 13.95L152.00 13.95L152.00 15.57Q151.36 15.87 150.67 16.02Q149.98 16.16 149.02 16.16L149.02 16.16Q147.76 16.16 146.78 15.67Q145.79 15.18 145.24 14.19Q144.69 13.20 144.69 11.73L144.69 11.73Q144.69 9.50 145.79 8.34Q146.90 7.17 148.69 7.17ZM148.69 8.66L148.69 8.66Q147.87 8.66 147.37 9.18Q146.86 9.70 146.78 10.72L146.78 10.72L150.51 10.72Q150.50 9.82 150.06 9.24Q149.62 8.66 148.69 8.66ZM160.00 17.44L160.00 18.50L153.17 18.50L153.17 17.44L160.00 17.44ZM164.62 14.54L164.62 14.54Q164.99 14.54 165.35 14.47Q165.71 14.40 166.02 14.30L166.02 14.30L166.02 15.81Q165.70 15.95 165.18 16.06Q164.67 16.16 164.11 16.16L164.11 16.16Q163.38 16.16 162.77 15.91Q162.16 15.66 161.81 15.06Q161.46 14.45 161.46 13.36L161.46 13.36L161.46 8.85L160.29 8.85L160.29 7.97L161.57 7.26L162.21 5.42L163.47 5.42L163.47 7.33L165.94 7.33L165.94 8.85L163.47 8.85L163.47 13.34Q163.47 13.95 163.79 14.25Q164.11 14.54 164.62 14.54ZM167.76 3.84L169.78 3.84L169.78 6.72Q169.78 7.23 169.74 7.71Q169.71 8.19 169.68 8.46L169.68 8.46L169.78 8.46Q170.13 7.92 170.74 7.54Q171.34 7.17 172.32 7.17L172.32 7.17Q173.82 7.17 174.76 8.30Q175.70 9.44 175.70 11.65L175.70 11.65Q175.70 13.89 174.75 15.02Q173.81 16.16 172.27 16.16L172.27 16.16Q171.30 16.16 170.71 15.81Q170.13 15.46 169.78 14.99L169.78 14.99L169.63 14.99L169.26 16L167.76 16L167.76 3.84ZM171.74 8.80L171.74 8.80Q170.66 8.80 170.22 9.46Q169.79 10.11 169.78 11.47L169.78 11.47L169.78 11.65Q169.78 13.04 170.20 13.78Q170.62 14.51 171.78 14.51L171.78 14.51Q172.67 14.51 173.15 13.77Q173.63 13.02 173.63 11.63L173.63 11.63Q173.63 10.21 173.14 9.50Q172.66 8.80 171.74 8.80ZM177.12 11.62L177.12 11.62Q177.12 9.66 177.69 7.85Q178.26 6.03 179.47 4.58L179.47 4.58L181.18 4.58Q180.08 6.08 179.52 7.89Q178.96 9.70 178.96 11.60L178.96 11.60Q178.96 13.46 179.52 15.25Q180.08 17.04 181.17 18.53L181.17 18.53L179.47 18.53Q178.26 17.12 177.69 15.34Q177.12 13.55 177.12 11.62ZM183.15 4.58L186.40 4.58Q188.66 4.58 189.74 5.41Q190.82 6.24 190.82 7.94L190.82 7.94Q190.82 8.77 190.50 9.36Q190.19 9.95 189.70 10.34Q189.20 10.74 188.62 10.98L188.62 10.98L191.90 16L189.60 16L186.86 11.49L185.20 11.49L185.20 16L183.15 16L183.15 4.58ZM186.27 6.29L186.27 6.29L185.20 6.29L185.20 9.81L186.34 9.81Q187.60 9.81 188.17 9.35Q188.74 8.90 188.74 8L188.74 8Q188.74 7.07 188.14 6.68Q187.54 6.29 186.27 6.29ZM197.58 6.30L197.58 16L195.54 16L195.54 6.30L192.26 6.30L192.26 4.58L200.86 4.58L200.86 6.30L197.58 6.30ZM209.42 16L202.61 16L202.61 4.58L204.66 4.58L204.66 14.27L209.42 14.27L209.42 16ZM214.46 11.62L214.46 11.62Q214.46 13.55 213.90 15.34Q213.33 17.12 212.11 18.53L212.11 18.53L210.42 18.53Q211.50 17.04 212.07 15.25Q212.64 13.46 212.64 11.60L212.64 11.60Q212.64 9.70 212.07 7.89Q211.50 6.08 210.40 4.58L210.40 4.58L212.11 4.58Q213.33 6.03 213.90 7.85Q214.46 9.66 214.46 11.62Z" class="sprotty-block-name" style="fill:rgb(48, 48, 48);stroke:rgba(0, 0, 0, 0);"/><line x1="0" y1="20" x2="257.6326904296875" y2="20"/></g><g id="sprotty_ArchitectureBlockImpl$work.example_tb(RTL)/ProcessBlockImpl$stimulus/GPortImpl$a_to_ArchitectureBlockImpl$work.example_tb(RTL)/InstantiationBlockImpl$DUT/BPortImpl$a" class="sprotty-edge edge" style="fill:none;stroke:rgb(112, 112, 112);stroke-linejoin:round;"><path d="M 92.3280029296875 72.69075012207031 L 122.3280029296875 72.69075012207031 "/></g><g id="sprotty_ArchitectureBlockImpl$work.example_tb(RTL)/ProcessBlockImpl$stimulus/GPortImpl$b_to_ArchitectureBlockImpl$work.example_tb(RTL)/InstantiationBlockImpl$DUT/BPortImpl$b" class="sprotty-edge edge" style="fill:none;stroke:rgb(112, 112, 112);stroke-linejoin:round;"><path d="M 92.3280029296875 82.69075012207031 L 110.3280029296875 82.69075012207031 C 111.3280029296875 82.69075012207031 112.3280029296875 83.69075012207031 112.3280029296875 84.69075012207031 L 112.3280029296875 93.50200033187866 C 112.3280029296875 94.50200033187866 113.3280029296875 95.50200033187866 114.3280029296875 95.50200033187866 L 122.3280029296875 95.50200033187866 "/></g><g id="sprotty_ArchitectureBlockImpl$work.example_tb(RTL)/ProcessBlockImpl$stimulus/GPortImpl$c_to_ArchitectureBlockImpl$work.example_tb(RTL)/InstantiationBlockImpl$DUT/BPortImpl$c" class="sprotty-edge edge" style="fill:none;stroke:rgb(112, 112, 112);stroke-linejoin:round;"><path d="M 92.3280029296875 92.69075012207031 L 100.3280029296875 92.69075012207031 C 101.3280029296875 92.69075012207031 102.3280029296875 93.69075012207031 102.3280029296875 94.69075012207031 L 102.3280029296875 116.31990051269531 C 102.3280029296875 117.31990051269531 103.3280029296875 118.31990051269531 104.3280029296875 118.31990051269531 L 122.3280029296875 118.31990051269531 "/></g><g id="sprotty_ArchitectureBlockImpl$work.example_tb(RTL)/ProcessBlockImpl$stimulus" transform="translate(15, 62.69075012207031)" class="statement"><rect x="0" y="0" rx="10" ry="5" width="77.3280029296875" height="40" class="sprotty-node" style="fill:rgb(245, 245, 245);stroke:rgb(112, 112, 112);"/><g id="sprotty_ArchitectureBlockImpl$work.example_tb(RTL)/ProcessBlockImpl$stimulus/label" transform="translate(5, 13.83984375) translate(0, -0.15984344482421875)" class="sprotty-label process" style="cursor:default;fill:rgb(48, 48, 48);font-family:Arial, Helvetica, sans-serif;text-anchor:middle;"><path d="M7.20-2.51L7.20-2.51Q7.20-1.20 6.26-0.52Q5.33 0.16 3.58 0.16L3.58 0.16Q2.67 0.16 2.02 0.03Q1.38-0.10 0.77-0.37L0.77-0.37L0.77-2.08Q1.41-1.78 2.18-1.57Q2.96-1.36 3.65-1.36L3.65-1.36Q4.48-1.36 4.85-1.62Q5.22-1.87 5.22-2.30L5.22-2.30Q5.22-2.56 5.07-2.76Q4.93-2.96 4.50-3.20Q4.08-3.44 3.25-3.79L3.25-3.79Q2.42-4.11 1.86-4.46Q1.31-4.80 1.03-5.26Q0.75-5.73 0.75-6.46L0.75-6.46Q0.75-7.63 1.67-8.23Q2.59-8.83 4.13-8.83L4.13-8.83Q4.93-8.83 5.64-8.67Q6.35-8.51 7.07-8.19L7.07-8.19L6.43-6.70Q5.82-6.96 5.25-7.14Q4.67-7.31 4.06-7.31L4.06-7.31Q2.74-7.31 2.74-6.56L2.74-6.56Q2.74-6.29 2.90-6.10Q3.07-5.90 3.50-5.69Q3.92-5.47 4.70-5.17L4.70-5.17Q5.47-4.86 6.03-4.54Q6.59-4.21 6.90-3.73Q7.20-3.25 7.20-2.51ZM12.50-1.46L12.50-1.46Q12.86-1.46 13.22-1.53Q13.58-1.60 13.89-1.70L13.89-1.70L13.89-0.19Q13.57-0.05 13.06 0.06Q12.54 0.16 11.98 0.16L11.98 0.16Q11.25 0.16 10.64-0.09Q10.03-0.34 9.68-0.94Q9.33-1.55 9.33-2.64L9.33-2.64L9.33-7.15L8.16-7.15L8.16-8.03L9.44-8.74L10.08-10.58L11.34-10.58L11.34-8.67L13.81-8.67L13.81-7.15L11.34-7.15L11.34-2.66Q11.34-2.05 11.66-1.75Q11.98-1.46 12.50-1.46ZM16.64-12.02L16.64-12.02Q17.10-12.02 17.43-11.78Q17.76-11.55 17.76-10.96L17.76-10.96Q17.76-10.37 17.43-10.13Q17.10-9.89 16.64-9.89L16.64-9.89Q16.18-9.89 15.85-10.13Q15.52-10.37 15.52-10.96L15.52-10.96Q15.52-11.55 15.85-11.78Q16.18-12.02 16.64-12.02ZM15.63-8.67L17.65-8.67L17.65 0L15.63 0L15.63-8.67ZM30.16-8.83L30.16-8.83Q31.63-8.83 32.38-8.08Q33.12-7.33 33.12-5.65L33.12-5.65L33.12 0L31.10 0L31.10-5.26Q31.10-7.20 29.63-7.20L29.63-7.20Q28.58-7.20 28.13-6.51Q27.68-5.82 27.68-4.51L27.68-4.51L27.68 0L25.66 0L25.66-5.26Q25.66-7.20 24.18-7.20L24.18-7.20Q23.07-7.20 22.66-6.43Q22.24-5.66 22.24-4.24L22.24-4.24L22.24 0L20.22 0L20.22-8.67L21.78-8.67L22.06-7.54L22.18-7.54Q22.56-8.21 23.26-8.52Q23.95-8.83 24.70-8.83L24.70-8.83Q25.68-8.83 26.34-8.50Q27.01-8.18 27.36-7.49L27.36-7.49L27.52-7.49Q27.92-8.19 28.64-8.51Q29.36-8.83 30.16-8.83ZM41.33-8.67L43.34-8.67L43.34 0L41.76 0L41.49-1.12L41.39-1.12Q40.96-0.45 40.23-0.14Q39.50 0.16 38.69 0.16L38.69 0.16Q37.23 0.16 36.41-0.59Q35.58-1.34 35.58-3.01L35.58-3.01L35.58-8.67L37.60-8.67L37.60-3.41Q37.60-1.47 39.20-1.47L39.20-1.47Q40.42-1.47 40.87-2.23Q41.33-2.99 41.33-4.43L41.33-4.43L41.33-8.67ZM47.94-12.16L47.94 0L45.92 0L45.92-12.16L47.94-12.16ZM56.19-8.67L58.21-8.67L58.21 0L56.62 0L56.35-1.12L56.26-1.12Q55.82-0.45 55.10-0.14Q54.37 0.16 53.55 0.16L53.55 0.16Q52.10 0.16 51.27-0.59Q50.45-1.34 50.45-3.01L50.45-3.01L50.45-8.67L52.46-8.67L52.46-3.41Q52.46-1.47 54.06-1.47L54.06-1.47Q55.28-1.47 55.74-2.23Q56.19-2.99 56.19-4.43L56.19-4.43L56.19-8.67ZM66.69-2.51L66.69-2.51Q66.69-1.20 65.75-0.52Q64.82 0.16 63.07 0.16L63.07 0.16Q62.16 0.16 61.51 0.03Q60.86-0.10 60.26-0.37L60.26-0.37L60.26-2.08Q60.90-1.78 61.67-1.57Q62.45-1.36 63.14-1.36L63.14-1.36Q63.97-1.36 64.34-1.62Q64.70-1.87 64.70-2.30L64.70-2.30Q64.70-2.56 64.56-2.76Q64.42-2.96 63.99-3.20Q63.57-3.44 62.74-3.79L62.74-3.79Q61.90-4.11 61.35-4.46Q60.80-4.80 60.52-5.26Q60.24-5.73 60.24-6.46L60.24-6.46Q60.24-7.63 61.16-8.23Q62.08-8.83 63.62-8.83L63.62-8.83Q64.42-8.83 65.13-8.67Q65.84-8.51 66.56-8.19L66.56-8.19L65.92-6.70Q65.31-6.96 64.74-7.14Q64.16-7.31 63.55-7.31L63.55-7.31Q62.22-7.31 62.22-6.56L62.22-6.56Q62.22-6.29 62.39-6.10Q62.56-5.90 62.98-5.69Q63.41-5.47 64.19-5.17L64.19-5.17Q64.96-4.86 65.52-4.54Q66.08-4.21 66.38-3.73Q66.69-3.25 66.69-2.51Z" transform="translate(0, 12.32)"/><rect x="0" y="0.16" width="67.328" height="12.32" class="clickable" style="cursor:pointer;fill:rgba(0, 0, 0, 0);fill-opacity:0;stroke-width:0px;"/></g><g id="sprotty_ArchitectureBlockImpl$work.example_tb(RTL)/ProcessBlockImpl$stimulus/GPortImpl$a" transform="translate(77.3280029296875, 10)" class="sprotty-hidden hidden" style="display:block;height:0px;width:0px;"/><g id="sprotty_ArchitectureBlockImpl$work.example_tb(RTL)/ProcessBlockImpl$stimulus/GPortImpl$b" transform="translate(77.3280029296875, 20)" class="sprotty-hidden hidden" style="display:block;height:0px;width:0px;"/><g id="sprotty_ArchitectureBlockImpl$work.example_tb(RTL)/ProcessBlockImpl$stimulus/GPortImpl$c" transform="translate(77.3280029296875, 30)" class="sprotty-hidden hidden" style="display:block;height:0px;width:0px;"/></g><g id="sprotty_ArchitectureBlockImpl$work.example_tb(RTL)/InstantiationBlockImpl$DUT" transform="translate(122.3280029296875, 35)" class="instantiation"><g class="sprotty-block" style="fill:rgb(245, 245, 245);stroke:rgb(48, 48, 48);stroke-dasharray:0px;"><rect x="0" y="0" rx="1" ry="1" width="120.3046875" height="101.01730060577393"/><path d="M14.83 10.18L14.83 10.18Q14.83 13.07 13.22 14.54Q11.60 16 8.70 16L8.70 16L5.49 16L5.49 4.58L9.04 4.58Q10.80 4.58 12.10 5.22Q13.41 5.86 14.12 7.10Q14.83 8.34 14.83 10.18ZM12.69 10.24L12.69 10.24Q12.69 8.19 11.75 7.23Q10.82 6.27 9.04 6.27L9.04 6.27L7.54 6.27L7.54 14.29L8.77 14.29Q12.69 14.29 12.69 10.24ZM24.29 4.58L26.32 4.58L26.32 11.97Q26.32 13.15 25.82 14.10Q25.31 15.06 24.29 15.61Q23.26 16.16 21.70 16.16L21.70 16.16Q19.47 16.16 18.32 15Q17.17 13.84 17.17 11.94L17.17 11.94L17.17 4.58L19.22 4.58L19.22 11.73Q19.22 13.14 19.86 13.78Q20.50 14.42 21.76 14.42L21.76 14.42Q23.09 14.42 23.69 13.72Q24.29 13.02 24.29 11.71L24.29 11.71L24.29 4.58ZM33.31 6.30L33.31 16L31.26 16L31.26 6.30L27.98 6.30L27.98 4.58L36.59 4.58L36.59 6.30L33.31 6.30ZM42.02 8.38L42.02 8.38Q42.02 7.70 42.37 7.42Q42.72 7.14 43.23 7.14L43.23 7.14Q43.73 7.14 44.10 7.42Q44.46 7.70 44.46 8.38L44.46 8.38Q44.46 9.04 44.10 9.33Q43.73 9.62 43.23 9.62L43.23 9.62Q42.72 9.62 42.37 9.33Q42.02 9.04 42.02 8.38ZM42.02 14.98L42.02 14.98Q42.02 14.30 42.37 14.02Q42.72 13.74 43.23 13.74L43.23 13.74Q43.73 13.74 44.10 14.02Q44.46 14.30 44.46 14.98L44.46 14.98Q44.46 15.63 44.10 15.92Q43.73 16.21 43.23 16.21L43.23 16.21Q42.72 16.21 42.37 15.92Q42.02 15.63 42.02 14.98ZM54.42 7.17L54.42 7.17Q56.16 7.17 57.18 8.21Q58.19 9.25 58.19 11.10L58.19 11.10L58.19 12.13L52.46 12.13Q52.50 13.31 53.12 13.96Q53.74 14.61 54.85 14.61L54.85 14.61Q55.68 14.61 56.35 14.44Q57.02 14.27 57.73 13.95L57.73 13.95L57.73 15.57Q57.09 15.87 56.40 16.02Q55.71 16.16 54.75 16.16L54.75 16.16Q53.49 16.16 52.50 15.67Q51.52 15.18 50.97 14.19Q50.42 13.20 50.42 11.73L50.42 11.73Q50.42 9.50 51.52 8.34Q52.62 7.17 54.42 7.17ZM54.42 8.66L54.42 8.66Q53.60 8.66 53.10 9.18Q52.59 9.70 52.51 10.72L52.51 10.72L56.24 10.72Q56.22 9.82 55.78 9.24Q55.34 8.66 54.42 8.66ZM58.77 16L61.78 11.57L58.91 7.33L61.20 7.33L63.09 10.27L64.98 7.33L67.26 7.33L64.37 11.57L67.41 16L65.12 16L63.09 12.85L61.06 16L58.77 16ZM72.32 7.17L72.32 7.17Q74.00 7.17 74.87 7.90Q75.74 8.64 75.74 10.18L75.74 10.18L75.74 16L74.32 16L73.92 14.80L73.86 14.80Q73.30 15.50 72.67 15.83Q72.05 16.16 70.98 16.16L70.98 16.16Q69.81 16.16 69.04 15.50Q68.27 14.85 68.27 13.47L68.27 13.47Q68.27 12.13 69.26 11.46Q70.24 10.78 72.24 10.70L72.24 10.70L73.74 10.66L73.74 10.22Q73.74 9.41 73.34 9.05Q72.94 8.69 72.22 8.69L72.22 8.69Q71.57 8.69 70.97 8.88Q70.37 9.07 69.78 9.33L69.78 9.33L69.14 7.92Q69.78 7.58 70.60 7.38Q71.42 7.17 72.32 7.17ZM73.74 12.64L73.74 11.90L72.69 11.94Q71.36 11.98 70.85 12.39Q70.34 12.80 70.34 13.49L70.34 13.49Q70.34 14.11 70.70 14.38Q71.06 14.64 71.65 14.64L71.65 14.64Q72.53 14.64 73.14 14.14Q73.74 13.63 73.74 12.64L73.74 12.64ZM88.21 7.17L88.21 7.17Q89.68 7.17 90.42 7.92Q91.17 8.67 91.17 10.35L91.17 10.35L91.17 16L89.15 16L89.15 10.74Q89.15 8.80 87.68 8.80L87.68 8.80Q86.62 8.80 86.18 9.49Q85.73 10.18 85.73 11.49L85.73 11.49L85.73 16L83.71 16L83.71 10.74Q83.71 8.80 82.22 8.80L82.22 8.80Q81.12 8.80 80.70 9.57Q80.29 10.34 80.29 11.76L80.29 11.76L80.29 16L78.27 16L78.27 7.33L79.82 7.33L80.11 8.46L80.22 8.46Q80.61 7.79 81.30 7.48Q82.00 7.17 82.75 7.17L82.75 7.17Q83.73 7.17 84.39 7.50Q85.06 7.82 85.41 8.51L85.41 8.51L85.57 8.51Q85.97 7.81 86.69 7.49Q87.41 7.17 88.21 7.17ZM98.26 7.17L98.26 7.17Q99.78 7.17 100.70 8.30Q101.63 9.42 101.63 11.65L101.63 11.65Q101.63 13.87 100.68 15.02Q99.73 16.16 98.21 16.16L98.21 16.16Q97.25 16.16 96.66 15.81Q96.06 15.46 95.71 14.99L95.71 14.99L95.58 14.99Q95.63 15.30 95.67 15.66Q95.71 16.02 95.71 16.32L95.71 16.32L95.71 19.84L93.70 19.84L93.70 7.33L95.33 7.33L95.62 8.48L95.71 8.48Q96.06 7.94 96.67 7.55Q97.28 7.17 98.26 7.17ZM97.68 8.80L97.68 8.80Q96.61 8.80 96.17 9.44Q95.73 10.08 95.71 11.38L95.71 11.38L95.71 11.63Q95.71 13.02 96.14 13.77Q96.56 14.51 97.71 14.51L97.71 14.51Q98.66 14.51 99.11 13.74Q99.57 12.96 99.57 11.62L99.57 11.62Q99.57 10.27 99.11 9.54Q98.66 8.80 97.68 8.80ZM105.73 3.84L105.73 16L103.71 16L103.71 3.84L105.73 3.84ZM111.79 7.17L111.79 7.17Q113.54 7.17 114.55 8.21Q115.57 9.25 115.57 11.10L115.57 11.10L115.57 12.13L109.84 12.13Q109.87 13.31 110.50 13.96Q111.12 14.61 112.22 14.61L112.22 14.61Q113.06 14.61 113.73 14.44Q114.40 14.27 115.10 13.95L115.10 13.95L115.10 15.57Q114.46 15.87 113.78 16.02Q113.09 16.16 112.13 16.16L112.13 16.16Q110.86 16.16 109.88 15.67Q108.90 15.18 108.34 14.19Q107.79 13.20 107.79 11.73L107.79 11.73Q107.79 9.50 108.90 8.34Q110.00 7.17 111.79 7.17ZM111.79 8.66L111.79 8.66Q110.98 8.66 110.47 9.18Q109.97 9.70 109.89 10.72L109.89 10.72L113.62 10.72Q113.60 9.82 113.16 9.24Q112.72 8.66 111.79 8.66Z" class="sprotty-block-name" style="fill:rgb(48, 48, 48);stroke:rgba(0, 0, 0, 0);"/><line x1="0" y1="20" x2="120.3046875" y2="20"/></g><g id="sprotty_ArchitectureBlockImpl$work.example_tb(RTL)/InstantiationBlockImpl$DUT/BPortImpl$c" transform="translate(0, 83.31990051269531)" class="triangle"><path d="M 0,0 L 5,2.5 L 0,5 Z" transform="translate(-1.67, -2.5)" class="sprotty-port" style="fill:rgb(48, 48, 48);stroke:rgb(48, 48, 48);"/><g class="port sprotty-label" id="sprotty_ArchitectureBlockImpl$work.example_tb(RTL)/InstantiationBlockImpl$DUT/BPortImpl$c/label" transform="translate(3, -5.697400093078613) translate(0, -0.13300000131130219)" style="cursor:default;fill:rgb(48, 48, 48);font-family:Arial, Helvetica, sans-serif;text-anchor:middle;"><path d="M3.99 0.13L3.99 0.13Q3.05 0.13 2.31-0.25Q1.57-0.64 1.15-1.45Q0.73-2.26 0.73-3.52L0.73-3.52Q0.73-4.84 1.17-5.67Q1.61-6.49 2.36-6.88Q3.11-7.26 4.07-7.26L4.07-7.26Q4.62-7.26 5.12-7.15Q5.63-7.04 5.95-6.88L5.95-6.88L5.59-5.91Q5.27-6.02 4.84-6.13Q4.42-6.24 4.04-6.24L4.04-6.24Q1.94-6.24 1.94-3.54L1.94-3.54Q1.94-2.25 2.45-1.56Q2.97-0.88 3.98-0.88L3.98-0.88Q4.56-0.88 5.01-1.00Q5.45-1.12 5.83-1.29L5.83-1.29L5.83-0.25Q5.47-0.07 5.03 0.03Q4.60 0.13 3.99 0.13Z" transform="translate(4, 9.3948)"/><rect x="0" y="0.133" width="14.384" height="11.3948" class="clickable" style="cursor:pointer;fill:rgba(0, 0, 0, 0);fill-opacity:0;stroke-width:0px;"/></g></g><g id="sprotty_ArchitectureBlockImpl$work.example_tb(RTL)/InstantiationBlockImpl$DUT/BPortImpl$b" transform="translate(0, 60.50200033187866)" class="triangle"><path d="M 0,0 L 5,2.5 L 0,5 Z" transform="translate(-1.67, -2.5)" class="sprotty-port" style="fill:rgb(48, 48, 48);stroke:rgb(48, 48, 48);"/><g class="port sprotty-label" id="sprotty_ArchitectureBlockImpl$work.example_tb(RTL)/InstantiationBlockImpl$DUT/BPortImpl$b/label" transform="translate(3, -7.120500087738037) translate(0, -0.13300000131130219)" style="cursor:default;fill:rgb(48, 48, 48);font-family:Arial, Helvetica, sans-serif;text-anchor:middle;"><path d="M4.51 0.13L4.51 0.13Q3.67 0.13 3.14-0.17Q2.61-0.48 2.30-0.90L2.30-0.90L2.21-0.90L1.97 0L1.13 0L1.13-10.11L2.30-10.11L2.30-7.65Q2.30-7.20 2.28-6.80Q2.26-6.41 2.23-6.18L2.23-6.18L2.30-6.18Q2.61-6.64 3.14-6.94Q3.67-7.25 4.51-7.25L4.51-7.25Q5.84-7.25 6.64-6.32Q7.45-5.40 7.45-3.56L7.45-3.56Q7.45-1.73 6.64-0.80Q5.83 0.13 4.51 0.13ZM4.34-0.84L4.34-0.84Q5.29-0.84 5.77-1.54Q6.24-2.25 6.24-3.58L6.24-3.58Q6.24-6.28 4.31-6.28L4.31-6.28Q3.18-6.28 2.74-5.63Q2.30-4.97 2.30-3.60L2.30-3.60L2.30-3.55Q2.30-2.23 2.73-1.54Q3.17-0.84 4.34-0.84Z" transform="translate(4, 12.241)"/><rect x="0" y="0.133" width="16.1795" height="14.241" class="clickable" style="cursor:pointer;fill:rgba(0, 0, 0, 0);fill-opacity:0;stroke-width:0px;"/></g></g><g id="sprotty_ArchitectureBlockImpl$work.example_tb(RTL)/InstantiationBlockImpl$DUT/BPortImpl$a" transform="translate(0, 37.69075012207031)" class="triangle"><path d="M 0,0 L 5,2.5 L 0,5 Z" transform="translate(-1.67, -2.5)" class="sprotty-port" style="fill:rgb(48, 48, 48);stroke:rgb(48, 48, 48);"/><g class="port sprotty-label" id="sprotty_ArchitectureBlockImpl$work.example_tb(RTL)/InstantiationBlockImpl$DUT/BPortImpl$a/label" transform="translate(3, -5.6907501220703125) translate(0, -0.13300000131130219)" style="cursor:default;fill:rgb(48, 48, 48);font-family:Arial, Helvetica, sans-serif;text-anchor:middle;"><path d="M2.86 0.13L2.86 0.13Q1.89 0.13 1.25-0.38Q0.61-0.89 0.61-1.98L0.61-1.98Q0.61-3.05 1.45-3.62Q2.29-4.20 4.03-4.26L4.03-4.26L5.24-4.30L5.24-4.72Q5.24-5.61 4.85-5.96Q4.47-6.30 3.76-6.30L3.76-6.30Q3.21-6.30 2.70-6.14Q2.19-5.97 1.76-5.76L1.76-5.76L1.40-6.64Q1.86-6.89 2.50-7.07Q3.14-7.25 3.83-7.25L3.83-7.25Q5.13-7.25 5.76-6.68Q6.38-6.10 6.38-4.85L6.38-4.85L6.38 0L5.53 0L5.31-1.01L5.25-1.01Q4.79-0.43 4.28-0.15Q3.76 0.13 2.86 0.13ZM3.13-0.81L3.13-0.81Q4.03-0.81 4.63-1.31Q5.23-1.81 5.23-2.85L5.23-2.85L5.23-3.48L4.18-3.44Q2.85-3.39 2.33-3.02Q1.82-2.65 1.82-1.97L1.82-1.97Q1.82-1.37 2.19-1.09Q2.55-0.81 3.13-0.81Z" transform="translate(4, 9.3815)"/><rect x="0" y="0.133" width="15.461300000000001" height="11.3815" class="clickable" style="cursor:pointer;fill:rgba(0, 0, 0, 0);fill-opacity:0;stroke-width:0px;"/></g></g><g id="sprotty_ArchitectureBlockImpl$work.example_tb(RTL)/InstantiationBlockImpl$DUT/BPortImpl$y" transform="translate(120.3046875, 60.50865030288696)" class="triangle"><path d="M 0,0 L 5,2.5 L 0,5 Z" transform="translate(-1.67, -2.5)" class="sprotty-port" style="fill:rgb(48, 48, 48);stroke:rgb(48, 48, 48);"/><g class="port sprotty-label" id="sprotty_ArchitectureBlockImpl$work.example_tb(RTL)/InstantiationBlockImpl$DUT/BPortImpl$y/label" transform="translate(-17.782999992370605, -7.160400390625) translate(0, -3.191999912261963)" style="cursor:default;fill:rgb(48, 48, 48);font-family:Arial, Helvetica, sans-serif;text-anchor:middle;"><path d="M1.12 3.19L1.12 3.19Q0.80 3.19 0.56 3.16Q0.32 3.13 0.15 3.09L0.15 3.09L0.15 2.15Q0.29 2.18 0.50 2.21Q0.70 2.23 0.93 2.23L0.93 2.23Q1.54 2.23 1.92 1.89Q2.29 1.54 2.51 0.97L2.51 0.97L2.89 0.03L0.01-7.13L1.26-7.13L2.81-3.07Q3.01-2.54 3.17-2.05Q3.33-1.57 3.40-1.13L3.40-1.13L3.46-1.13Q3.54-1.46 3.70-2.00Q3.87-2.54 4.07-3.09L4.07-3.09L5.52-7.13L6.78-7.13L3.71 0.98Q3.34 2.00 2.75 2.59Q2.15 3.19 1.12 3.19Z" transform="translate(4, 12.320800000000002)"/><rect x="0" y="3.192" width="14.783000000000001" height="14.320800000000002" class="clickable" style="cursor:pointer;fill:rgba(0, 0, 0, 0);fill-opacity:0;stroke-width:0px;"/></g></g></g></g></g></svg>