<svg xmlns="http://www.w3.org/2000/svg" id="sprotty_multiplier_tb" class="sprotty-graph sprotty-block-diagram blockdiagram" style="font-family:&quot;Helvetica Neue&quot;, Helvetica, Arial, sans-serif;line-height:18px;perspective-origin:0px 0px;transform-origin:0px 0px;z-index:0;" version="1.1" viewBox="9.5 12 264.6853466796875 129.6225004196167"><g transform="scale(1) translate(0,0)"><g id="sprotty_ArchitectureBlockImpl$work.multiplier_tb(RTL)" transform="translate(12, 12)" class="architecture"><g class="sprotty-block" style="fill:rgb(245, 245, 245);stroke:rgb(48, 48, 48);stroke-dasharray:0px;"><rect x="0" y="0" rx="1" ry="1" width="257.8553466796875" height="129.6225004196167"/><path d="M48.17 16L45.93 16L44.97 12.27Q44.89 11.97 44.78 11.51Q44.66 11.06 44.54 10.56Q44.42 10.06 44.33 9.65Q44.23 9.23 44.18 9.01L44.18 9.01L44.12 9.01Q44.07 9.23 43.98 9.65Q43.88 10.06 43.77 10.57Q43.66 11.07 43.54 11.53Q43.42 11.98 43.34 12.29L43.34 12.29L42.33 16L40.12 16L37.69 7.31L39.72 7.31L40.79 11.46Q40.90 11.89 41.01 12.41Q41.11 12.93 41.18 13.42Q41.26 13.90 41.30 14.21L41.30 14.21L41.37 14.21Q41.40 13.92 41.49 13.42Q41.58 12.93 41.67 12.46Q41.77 11.98 41.83 11.74L41.83 11.74L43.08 7.31L45.29 7.31L46.49 11.74Q46.55 12.03 46.66 12.50Q46.76 12.96 46.84 13.43Q46.92 13.90 46.94 14.19L46.94 14.19L47.00 14.19Q47.03 13.94 47.11 13.46Q47.19 12.98 47.30 12.43Q47.42 11.89 47.54 11.46L47.54 11.46L48.63 7.31L50.63 7.31L48.17 16ZM59.85 11.65L59.85 11.65Q59.85 13.81 58.73 14.98Q57.61 16.16 55.69 16.16L55.69 16.16Q54.50 16.16 53.58 15.63Q52.65 15.10 52.12 14.10Q51.59 13.09 51.59 11.65L51.59 11.65Q51.59 9.49 52.70 8.33Q53.82 7.17 55.74 7.17L55.74 7.17Q56.94 7.17 57.86 7.69Q58.79 8.21 59.32 9.21Q59.85 10.21 59.85 11.65ZM53.66 11.65L53.66 11.65Q53.66 13.02 54.14 13.78Q54.63 14.53 55.72 14.53L55.72 14.53Q56.81 14.53 57.30 13.78Q57.78 13.02 57.78 11.65L57.78 11.65Q57.78 10.27 57.30 9.54Q56.81 8.80 55.70 8.80L55.70 8.80Q54.63 8.80 54.14 9.54Q53.66 10.27 53.66 11.65ZM66.47 7.17L66.47 7.17Q66.68 7.17 66.93 7.18Q67.18 7.20 67.35 7.25L67.35 7.25L67.18 9.12Q67.02 9.09 66.79 9.06Q66.57 9.04 66.39 9.04L66.39 9.04Q65.75 9.04 65.19 9.30Q64.63 9.57 64.29 10.12Q63.94 10.67 63.94 11.50L63.94 11.50L63.94 16L61.93 16L61.93 7.33L63.48 7.33L63.77 8.83L63.86 8.83Q64.25 8.14 64.92 7.66Q65.59 7.17 66.47 7.17ZM68.95 3.84L70.95 3.84L70.95 9.62Q70.95 10.03 70.92 10.50Q70.89 10.96 70.86 11.38L70.86 11.38L70.90 11.38Q71.10 11.09 71.38 10.72Q71.67 10.35 71.93 10.06L71.93 10.06L74.49 7.33L76.78 7.33L73.30 11.07L77.00 16L74.65 16L71.96 12.29L70.95 13.12L70.95 16L68.95 16L68.95 3.84ZM78.07 14.98L78.07 14.98Q78.07 14.30 78.42 14.02Q78.78 13.74 79.29 13.74L79.29 13.74Q79.78 13.74 80.15 14.02Q80.52 14.30 80.52 14.98L80.52 14.98Q80.52 15.63 80.15 15.92Q79.78 16.21 79.29 16.21L79.29 16.21Q78.78 16.21 78.42 15.92Q78.07 15.63 78.07 14.98ZM92.76 7.17L92.76 7.17Q94.23 7.17 94.98 7.92Q95.72 8.67 95.72 10.35L95.72 10.35L95.72 16L93.70 16L93.70 10.74Q93.70 8.80 92.23 8.80L92.23 8.80Q91.18 8.80 90.73 9.49Q90.28 10.18 90.28 11.49L90.28 11.49L90.28 16L88.26 16L88.26 10.74Q88.26 8.80 86.78 8.80L86.78 8.80Q85.67 8.80 85.26 9.57Q84.84 10.34 84.84 11.76L84.84 11.76L84.84 16L82.82 16L82.82 7.33L84.38 7.33L84.66 8.46L84.78 8.46Q85.16 7.79 85.86 7.48Q86.55 7.17 87.30 7.17L87.30 7.17Q88.28 7.17 88.94 7.50Q89.61 7.82 89.96 8.51L89.96 8.51L90.12 8.51Q90.52 7.81 91.24 7.49Q91.96 7.17 92.76 7.17ZM103.93 7.33L105.94 7.33L105.94 16L104.36 16L104.09 14.88L103.99 14.88Q103.56 15.55 102.83 15.86Q102.10 16.16 101.29 16.16L101.29 16.16Q99.83 16.16 99.01 15.41Q98.18 14.66 98.18 12.99L98.18 12.99L98.18 7.33L100.20 7.33L100.20 12.59Q100.20 14.53 101.80 14.53L101.80 14.53Q103.02 14.53 103.47 13.77Q103.93 13.01 103.93 11.57L103.93 11.57L103.93 7.33ZM110.54 3.84L110.54 16L108.52 16L108.52 3.84L110.54 3.84ZM116.47 14.54L116.47 14.54Q116.84 14.54 117.20 14.47Q117.56 14.40 117.86 14.30L117.86 14.30L117.86 15.81Q117.54 15.95 117.03 16.06Q116.52 16.16 115.96 16.16L115.96 16.16Q115.22 16.16 114.62 15.91Q114.01 15.66 113.66 15.06Q113.30 14.45 113.30 13.36L113.30 13.36L113.30 8.85L112.14 8.85L112.14 7.97L113.42 7.26L114.06 5.42L115.32 5.42L115.32 7.33L117.78 7.33L117.78 8.85L115.32 8.85L115.32 13.34Q115.32 13.95 115.64 14.25Q115.96 14.54 116.47 14.54ZM120.62 3.98L120.62 3.98Q121.08 3.98 121.41 4.22Q121.74 4.45 121.74 5.04L121.74 5.04Q121.74 5.63 121.41 5.87Q121.08 6.11 120.62 6.11L120.62 6.11Q120.15 6.11 119.82 5.87Q119.50 5.63 119.50 5.04L119.50 5.04Q119.50 4.45 119.82 4.22Q120.15 3.98 120.62 3.98ZM119.61 7.33L121.62 7.33L121.62 16L119.61 16L119.61 7.33ZM128.76 7.17L128.76 7.17Q130.28 7.17 131.21 8.30Q132.14 9.42 132.14 11.65L132.14 11.65Q132.14 13.87 131.18 15.02Q130.23 16.16 128.71 16.16L128.71 16.16Q127.75 16.16 127.16 15.81Q126.57 15.46 126.22 14.99L126.22 14.99L126.09 14.99Q126.14 15.30 126.18 15.66Q126.22 16.02 126.22 16.32L126.22 16.32L126.22 19.84L124.20 19.84L124.20 7.33L125.83 7.33L126.12 8.48L126.22 8.48Q126.57 7.94 127.18 7.55Q127.78 7.17 128.76 7.17ZM128.18 8.80L128.18 8.80Q127.11 8.80 126.67 9.44Q126.23 10.08 126.22 11.38L126.22 11.38L126.22 11.63Q126.22 13.02 126.64 13.77Q127.06 14.51 128.22 14.51L128.22 14.51Q129.16 14.51 129.62 13.74Q130.07 12.96 130.07 11.62L130.07 11.62Q130.07 10.27 129.62 9.54Q129.16 8.80 128.18 8.80ZM136.23 3.84L136.23 16L134.22 16L134.22 3.84L136.23 3.84ZM139.82 3.98L139.82 3.98Q140.28 3.98 140.61 4.22Q140.94 4.45 140.94 5.04L140.94 5.04Q140.94 5.63 140.61 5.87Q140.28 6.11 139.82 6.11L139.82 6.11Q139.35 6.11 139.02 5.87Q138.70 5.63 138.70 5.04L138.70 5.04Q138.70 4.45 139.02 4.22Q139.35 3.98 139.82 3.98ZM138.81 7.33L140.82 7.33L140.82 16L138.81 16L138.81 7.33ZM146.89 7.17L146.89 7.17Q148.63 7.17 149.65 8.21Q150.66 9.25 150.66 11.10L150.66 11.10L150.66 12.13L144.94 12.13Q144.97 13.31 145.59 13.96Q146.22 14.61 147.32 14.61L147.32 14.61Q148.15 14.61 148.82 14.44Q149.50 14.27 150.20 13.95L150.20 13.95L150.20 15.57Q149.56 15.87 148.87 16.02Q148.18 16.16 147.22 16.16L147.22 16.16Q145.96 16.16 144.98 15.67Q143.99 15.18 143.44 14.19Q142.89 13.20 142.89 11.73L142.89 11.73Q142.89 9.50 143.99 8.34Q145.10 7.17 146.89 7.17ZM146.89 8.66L146.89 8.66Q146.07 8.66 145.57 9.18Q145.06 9.70 144.98 10.72L144.98 10.72L148.71 10.72Q148.70 9.82 148.26 9.24Q147.82 8.66 146.89 8.66ZM157.24 7.17L157.24 7.17Q157.45 7.17 157.70 7.18Q157.94 7.20 158.12 7.25L158.12 7.25L157.94 9.12Q157.78 9.09 157.56 9.06Q157.34 9.04 157.16 9.04L157.16 9.04Q156.52 9.04 155.96 9.30Q155.40 9.57 155.06 10.12Q154.71 10.67 154.71 11.50L154.71 11.50L154.71 16L152.70 16L152.70 7.33L154.25 7.33L154.54 8.83L154.63 8.83Q155.02 8.14 155.69 7.66Q156.36 7.17 157.24 7.17ZM165.22 17.44L165.22 18.50L158.39 18.50L158.39 17.44L165.22 17.44ZM169.85 14.54L169.85 14.54Q170.22 14.54 170.58 14.47Q170.94 14.40 171.24 14.30L171.24 14.30L171.24 15.81Q170.92 15.95 170.41 16.06Q169.90 16.16 169.34 16.16L169.34 16.16Q168.60 16.16 167.99 15.91Q167.38 15.66 167.03 15.06Q166.68 14.45 166.68 13.36L166.68 13.36L166.68 8.85L165.51 8.85L165.51 7.97L166.79 7.26L167.43 5.42L168.70 5.42L168.70 7.33L171.16 7.33L171.16 8.85L168.70 8.85L168.70 13.34Q168.70 13.95 169.02 14.25Q169.34 14.54 169.85 14.54ZM172.98 3.84L175.00 3.84L175.00 6.72Q175.00 7.23 174.97 7.71Q174.94 8.19 174.90 8.46L174.90 8.46L175.00 8.46Q175.35 7.92 175.96 7.54Q176.57 7.17 177.54 7.17L177.54 7.17Q179.05 7.17 179.98 8.30Q180.92 9.44 180.92 11.65L180.92 11.65Q180.92 13.89 179.98 15.02Q179.03 16.16 177.50 16.16L177.50 16.16Q176.52 16.16 175.94 15.81Q175.35 15.46 175.00 14.99L175.00 14.99L174.86 14.99L174.49 16L172.98 16L172.98 3.84ZM176.97 8.80L176.97 8.80Q175.88 8.80 175.45 9.46Q175.02 10.11 175.00 11.47L175.00 11.47L175.00 11.65Q175.00 13.04 175.42 13.78Q175.85 14.51 177.00 14.51L177.00 14.51Q177.90 14.51 178.38 13.77Q178.86 13.02 178.86 11.63L178.86 11.63Q178.86 10.21 178.37 9.50Q177.88 8.80 176.97 8.80ZM182.34 11.62L182.34 11.62Q182.34 9.66 182.91 7.85Q183.48 6.03 184.70 4.58L184.70 4.58L186.41 4.58Q185.30 6.08 184.74 7.89Q184.18 9.70 184.18 11.60L184.18 11.60Q184.18 13.46 184.74 15.25Q185.30 17.04 186.39 18.53L186.39 18.53L184.70 18.53Q183.48 17.12 182.91 15.34Q182.34 13.55 182.34 11.62ZM188.38 4.58L191.62 4.58Q193.88 4.58 194.96 5.41Q196.04 6.24 196.04 7.94L196.04 7.94Q196.04 8.77 195.73 9.36Q195.42 9.95 194.92 10.34Q194.42 10.74 193.85 10.98L193.85 10.98L197.13 16L194.82 16L192.09 11.49L190.42 11.49L190.42 16L188.38 16L188.38 4.58ZM191.50 6.29L191.50 6.29L190.42 6.29L190.42 9.81L191.56 9.81Q192.82 9.81 193.39 9.35Q193.96 8.90 193.96 8L193.96 8Q193.96 7.07 193.36 6.68Q192.76 6.29 191.50 6.29ZM202.81 6.30L202.81 16L200.76 16L200.76 6.30L197.48 6.30L197.48 4.58L206.09 4.58L206.09 6.30L202.81 6.30ZM214.65 16L207.83 16L207.83 4.58L209.88 4.58L209.88 14.27L214.65 14.27L214.65 16ZM219.69 11.62L219.69 11.62Q219.69 13.55 219.12 15.34Q218.55 17.12 217.34 18.53L217.34 18.53L215.64 18.53Q216.73 17.04 217.30 15.25Q217.86 13.46 217.86 11.60L217.86 11.60Q217.86 9.70 217.30 7.89Q216.73 6.08 215.62 4.58L215.62 4.58L217.34 4.58Q218.55 6.03 219.12 7.85Q219.69 9.66 219.69 11.62Z" class="sprotty-block-name" style="fill:rgb(48, 48, 48);stroke:rgba(0, 0, 0, 0);"/><line x1="0" y1="20" x2="257.8553466796875" y2="20"/></g><g id="sprotty_ArchitectureBlockImpl$work.multiplier_tb(RTL)/ProcessBlockImpl$stimulus/GPortImpl$a_to_ArchitectureBlockImpl$work.multiplier_tb(RTL)/InstantiationBlockImpl$DUT/BPortImpl$a" class="sprotty-edge thick edge" style="fill:none;stroke:rgb(112, 112, 112);stroke-linejoin:round;stroke-width:3px;"><path d="M 92.3280029296875 72.69075012207031 L 112.3280029296875 72.69075012207031 "/></g><g id="sprotty_ArchitectureBlockImpl$work.multiplier_tb(RTL)/ProcessBlockImpl$stimulus/GPortImpl$b_to_ArchitectureBlockImpl$work.multiplier_tb(RTL)/InstantiationBlockImpl$DUT/BPortImpl$b" class="sprotty-edge thick edge" style="fill:none;stroke:rgb(112, 112, 112);stroke-linejoin:round;stroke-width:3px;"><path d="M 92.3280029296875 82.69075012207031 L 100.3280029296875 82.69075012207031 C 101.3280029296875 82.69075012207031 102.3280029296875 83.69075012207031 102.3280029296875 84.69075012207031 L 102.3280029296875 93.50200033187866 C 102.3280029296875 94.50200033187866 103.3280029296875 95.50200033187866 104.3280029296875 95.50200033187866 L 112.3280029296875 95.50200033187866 "/></g><g id="sprotty_ArchitectureBlockImpl$work.multiplier_tb(RTL)/ProcessBlockImpl$stimulus" transform="translate(15, 62.69075012207031)" class="statement"><rect x="0" y="0" rx="10" ry="5" width="77.3280029296875" height="30" class="sprotty-node" style="fill:rgb(245, 245, 245);stroke:rgb(112, 112, 112);"/><g id="sprotty_ArchitectureBlockImpl$work.multiplier_tb(RTL)/ProcessBlockImpl$stimulus/label" transform="translate(5, 8.83984375) translate(0, -0.15984344482421875)" class="sprotty-label process" style="cursor:default;fill:rgb(48, 48, 48);font-family:Arial, Helvetica, sans-serif;text-anchor:middle;"><path d="M7.20-2.51L7.20-2.51Q7.20-1.20 6.26-0.52Q5.33 0.16 3.58 0.16L3.58 0.16Q2.67 0.16 2.02 0.03Q1.38-0.10 0.77-0.37L0.77-0.37L0.77-2.08Q1.41-1.78 2.18-1.57Q2.96-1.36 3.65-1.36L3.65-1.36Q4.48-1.36 4.85-1.62Q5.22-1.87 5.22-2.30L5.22-2.30Q5.22-2.56 5.07-2.76Q4.93-2.96 4.50-3.20Q4.08-3.44 3.25-3.79L3.25-3.79Q2.42-4.11 1.86-4.46Q1.31-4.80 1.03-5.26Q0.75-5.73 0.75-6.46L0.75-6.46Q0.75-7.63 1.67-8.23Q2.59-8.83 4.13-8.83L4.13-8.83Q4.93-8.83 5.64-8.67Q6.35-8.51 7.07-8.19L7.07-8.19L6.43-6.70Q5.82-6.96 5.25-7.14Q4.67-7.31 4.06-7.31L4.06-7.31Q2.74-7.31 2.74-6.56L2.74-6.56Q2.74-6.29 2.90-6.10Q3.07-5.90 3.50-5.69Q3.92-5.47 4.70-5.17L4.70-5.17Q5.47-4.86 6.03-4.54Q6.59-4.21 6.90-3.73Q7.20-3.25 7.20-2.51ZM12.50-1.46L12.50-1.46Q12.86-1.46 13.22-1.53Q13.58-1.60 13.89-1.70L13.89-1.70L13.89-0.19Q13.57-0.05 13.06 0.06Q12.54 0.16 11.98 0.16L11.98 0.16Q11.25 0.16 10.64-0.09Q10.03-0.34 9.68-0.94Q9.33-1.55 9.33-2.64L9.33-2.64L9.33-7.15L8.16-7.15L8.16-8.03L9.44-8.74L10.08-10.58L11.34-10.58L11.34-8.67L13.81-8.67L13.81-7.15L11.34-7.15L11.34-2.66Q11.34-2.05 11.66-1.75Q11.98-1.46 12.50-1.46ZM16.64-12.02L16.64-12.02Q17.10-12.02 17.43-11.78Q17.76-11.55 17.76-10.96L17.76-10.96Q17.76-10.37 17.43-10.13Q17.10-9.89 16.64-9.89L16.64-9.89Q16.18-9.89 15.85-10.13Q15.52-10.37 15.52-10.96L15.52-10.96Q15.52-11.55 15.85-11.78Q16.18-12.02 16.64-12.02ZM15.63-8.67L17.65-8.67L17.65 0L15.63 0L15.63-8.67ZM30.16-8.83L30.16-8.83Q31.63-8.83 32.38-8.08Q33.12-7.33 33.12-5.65L33.12-5.65L33.12 0L31.10 0L31.10-5.26Q31.10-7.20 29.63-7.20L29.63-7.20Q28.58-7.20 28.13-6.51Q27.68-5.82 27.68-4.51L27.68-4.51L27.68 0L25.66 0L25.66-5.26Q25.66-7.20 24.18-7.20L24.18-7.20Q23.07-7.20 22.66-6.43Q22.24-5.66 22.24-4.24L22.24-4.24L22.24 0L20.22 0L20.22-8.67L21.78-8.67L22.06-7.54L22.18-7.54Q22.56-8.21 23.26-8.52Q23.95-8.83 24.70-8.83L24.70-8.83Q25.68-8.83 26.34-8.50Q27.01-8.18 27.36-7.49L27.36-7.49L27.52-7.49Q27.92-8.19 28.64-8.51Q29.36-8.83 30.16-8.83ZM41.33-8.67L43.34-8.67L43.34 0L41.76 0L41.49-1.12L41.39-1.12Q40.96-0.45 40.23-0.14Q39.50 0.16 38.69 0.16L38.69 0.16Q37.23 0.16 36.41-0.59Q35.58-1.34 35.58-3.01L35.58-3.01L35.58-8.67L37.60-8.67L37.60-3.41Q37.60-1.47 39.20-1.47L39.20-1.47Q40.42-1.47 40.87-2.23Q41.33-2.99 41.33-4.43L41.33-4.43L41.33-8.67ZM47.94-12.16L47.94 0L45.92 0L45.92-12.16L47.94-12.16ZM56.19-8.67L58.21-8.67L58.21 0L56.62 0L56.35-1.12L56.26-1.12Q55.82-0.45 55.10-0.14Q54.37 0.16 53.55 0.16L53.55 0.16Q52.10 0.16 51.27-0.59Q50.45-1.34 50.45-3.01L50.45-3.01L50.45-8.67L52.46-8.67L52.46-3.41Q52.46-1.47 54.06-1.47L54.06-1.47Q55.28-1.47 55.74-2.23Q56.19-2.99 56.19-4.43L56.19-4.43L56.19-8.67ZM66.69-2.51L66.69-2.51Q66.69-1.20 65.75-0.52Q64.82 0.16 63.07 0.16L63.07 0.16Q62.16 0.16 61.51 0.03Q60.86-0.10 60.26-0.37L60.26-0.37L60.26-2.08Q60.90-1.78 61.67-1.57Q62.45-1.36 63.14-1.36L63.14-1.36Q63.97-1.36 64.34-1.62Q64.70-1.87 64.70-2.30L64.70-2.30Q64.70-2.56 64.56-2.76Q64.42-2.96 63.99-3.20Q63.57-3.44 62.74-3.79L62.74-3.79Q61.90-4.11 61.35-4.46Q60.80-4.80 60.52-5.26Q60.24-5.73 60.24-6.46L60.24-6.46Q60.24-7.63 61.16-8.23Q62.08-8.83 63.62-8.83L63.62-8.83Q64.42-8.83 65.13-8.67Q65.84-8.51 66.56-8.19L66.56-8.19L65.92-6.70Q65.31-6.96 64.74-7.14Q64.16-7.31 63.55-7.31L63.55-7.31Q62.22-7.31 62.22-6.56L62.22-6.56Q62.22-6.29 62.39-6.10Q62.56-5.90 62.98-5.69Q63.41-5.47 64.19-5.17L64.19-5.17Q64.96-4.86 65.52-4.54Q66.08-4.21 66.38-3.73Q66.69-3.25 66.69-2.51Z" transform="translate(0, 12.32)"/><rect x="0" y="0.16" width="67.328" height="12.32" class="clickable" style="cursor:pointer;fill:rgba(0, 0, 0, 0);fill-opacity:0;stroke-width:0px;"/></g><g id="sprotty_ArchitectureBlockImpl$work.multiplier_tb(RTL)/ProcessBlockImpl$stimulus/GPortImpl$a" transform="translate(77.3280029296875, 10)" class="sprotty-hidden hidden" style="display:block;height:0px;width:0px;"/><g id="sprotty_ArchitectureBlockImpl$work.multiplier_tb(RTL)/ProcessBlockImpl$stimulus/GPortImpl$b" transform="translate(77.3280029296875, 20)" class="sprotty-hidden hidden" style="display:block;height:0px;width:0px;"/></g><g id="sprotty_ArchitectureBlockImpl$work.multiplier_tb(RTL)/InstantiationBlockImpl$DUT" transform="translate(112.3280029296875, 35)" class="instantiation"><g class="sprotty-block" style="fill:rgb(245, 245, 245);stroke:rgb(48, 48, 48);stroke-dasharray:0px;"><rect x="0" y="0" rx="1" ry="1" width="130.528" height="79.6225004196167"/><path d="M14.83 10.18L14.83 10.18Q14.83 13.07 13.22 14.54Q11.60 16 8.70 16L8.70 16L5.49 16L5.49 4.58L9.04 4.58Q10.80 4.58 12.10 5.22Q13.41 5.86 14.12 7.10Q14.83 8.34 14.83 10.18ZM12.69 10.24L12.69 10.24Q12.69 8.19 11.75 7.23Q10.82 6.27 9.04 6.27L9.04 6.27L7.54 6.27L7.54 14.29L8.77 14.29Q12.69 14.29 12.69 10.24ZM24.29 4.58L26.32 4.58L26.32 11.97Q26.32 13.15 25.82 14.10Q25.31 15.06 24.29 15.61Q23.26 16.16 21.70 16.16L21.70 16.16Q19.47 16.16 18.32 15Q17.17 13.84 17.17 11.94L17.17 11.94L17.17 4.58L19.22 4.58L19.22 11.73Q19.22 13.14 19.86 13.78Q20.50 14.42 21.76 14.42L21.76 14.42Q23.09 14.42 23.69 13.72Q24.29 13.02 24.29 11.71L24.29 11.71L24.29 4.58ZM33.31 6.30L33.31 16L31.26 16L31.26 6.30L27.98 6.30L27.98 4.58L36.59 4.58L36.59 6.30L33.31 6.30ZM42.02 8.38L42.02 8.38Q42.02 7.70 42.37 7.42Q42.72 7.14 43.23 7.14L43.23 7.14Q43.73 7.14 44.10 7.42Q44.46 7.70 44.46 8.38L44.46 8.38Q44.46 9.04 44.10 9.33Q43.73 9.62 43.23 9.62L43.23 9.62Q42.72 9.62 42.37 9.33Q42.02 9.04 42.02 8.38ZM42.02 14.98L42.02 14.98Q42.02 14.30 42.37 14.02Q42.72 13.74 43.23 13.74L43.23 13.74Q43.73 13.74 44.10 14.02Q44.46 14.30 44.46 14.98L44.46 14.98Q44.46 15.63 44.10 15.92Q43.73 16.21 43.23 16.21L43.23 16.21Q42.72 16.21 42.37 15.92Q42.02 15.63 42.02 14.98ZM60.86 7.17L60.86 7.17Q62.34 7.17 63.08 7.92Q63.82 8.67 63.82 10.35L63.82 10.35L63.82 16L61.81 16L61.81 10.74Q61.81 8.80 60.34 8.80L60.34 8.80Q59.28 8.80 58.83 9.49Q58.38 10.18 58.38 11.49L58.38 11.49L58.38 16L56.37 16L56.37 10.74Q56.37 8.80 54.88 8.80L54.88 8.80Q53.78 8.80 53.36 9.57Q52.94 10.34 52.94 11.76L52.94 11.76L52.94 16L50.93 16L50.93 7.33L52.48 7.33L52.77 8.46L52.88 8.46Q53.26 7.79 53.96 7.48Q54.66 7.17 55.41 7.17L55.41 7.17Q56.38 7.17 57.05 7.50Q57.71 7.82 58.06 8.51L58.06 8.51L58.22 8.51Q58.62 7.81 59.34 7.49Q60.06 7.17 60.86 7.17ZM72.03 7.33L74.05 7.33L74.05 16L72.46 16L72.19 14.88L72.10 14.88Q71.66 15.55 70.94 15.86Q70.21 16.16 69.39 16.16L69.39 16.16Q67.94 16.16 67.11 15.41Q66.29 14.66 66.29 12.99L66.29 12.99L66.29 7.33L68.30 7.33L68.30 12.59Q68.30 14.53 69.90 14.53L69.90 14.53Q71.12 14.53 71.58 13.77Q72.03 13.01 72.03 11.57L72.03 11.57L72.03 7.33ZM78.64 3.84L78.64 16L76.62 16L76.62 3.84L78.64 3.84ZM84.58 14.54L84.58 14.54Q84.94 14.54 85.30 14.47Q85.66 14.40 85.97 14.30L85.97 14.30L85.97 15.81Q85.65 15.95 85.14 16.06Q84.62 16.16 84.06 16.16L84.06 16.16Q83.33 16.16 82.72 15.91Q82.11 15.66 81.76 15.06Q81.41 14.45 81.41 13.36L81.41 13.36L81.41 8.85L80.24 8.85L80.24 7.97L81.52 7.26L82.16 5.42L83.42 5.42L83.42 7.33L85.89 7.33L85.89 8.85L83.42 8.85L83.42 13.34Q83.42 13.95 83.74 14.25Q84.06 14.54 84.58 14.54ZM88.72 3.98L88.72 3.98Q89.18 3.98 89.51 4.22Q89.84 4.45 89.84 5.04L89.84 5.04Q89.84 5.63 89.51 5.87Q89.18 6.11 88.72 6.11L88.72 6.11Q88.26 6.11 87.93 5.87Q87.60 5.63 87.60 5.04L87.60 5.04Q87.60 4.45 87.93 4.22Q88.26 3.98 88.72 3.98ZM87.71 7.33L89.73 7.33L89.73 16L87.71 16L87.71 7.33ZM96.86 7.17L96.86 7.17Q98.38 7.17 99.31 8.30Q100.24 9.42 100.24 11.65L100.24 11.65Q100.24 13.87 99.29 15.02Q98.34 16.16 96.82 16.16L96.82 16.16Q95.86 16.16 95.26 15.81Q94.67 15.46 94.32 14.99L94.32 14.99L94.19 14.99Q94.24 15.30 94.28 15.66Q94.32 16.02 94.32 16.32L94.32 16.32L94.32 19.84L92.30 19.84L92.30 7.33L93.94 7.33L94.22 8.48L94.32 8.48Q94.67 7.94 95.28 7.55Q95.89 7.17 96.86 7.17ZM96.29 8.80L96.29 8.80Q95.22 8.80 94.78 9.44Q94.34 10.08 94.32 11.38L94.32 11.38L94.32 11.63Q94.32 13.02 94.74 13.77Q95.17 14.51 96.32 14.51L96.32 14.51Q97.26 14.51 97.72 13.74Q98.18 12.96 98.18 11.62L98.18 11.62Q98.18 10.27 97.72 9.54Q97.26 8.80 96.29 8.80ZM104.34 3.84L104.34 16L102.32 16L102.32 3.84L104.34 3.84ZM107.92 3.98L107.92 3.98Q108.38 3.98 108.71 4.22Q109.04 4.45 109.04 5.04L109.04 5.04Q109.04 5.63 108.71 5.87Q108.38 6.11 107.92 6.11L107.92 6.11Q107.46 6.11 107.13 5.87Q106.80 5.63 106.80 5.04L106.80 5.04Q106.80 4.45 107.13 4.22Q107.46 3.98 107.92 3.98ZM106.91 7.33L108.93 7.33L108.93 16L106.91 16L106.91 7.33ZM114.99 7.17L114.99 7.17Q116.74 7.17 117.75 8.21Q118.77 9.25 118.77 11.10L118.77 11.10L118.77 12.13L113.04 12.13Q113.07 13.31 113.70 13.96Q114.32 14.61 115.42 14.61L115.42 14.61Q116.26 14.61 116.93 14.44Q117.60 14.27 118.30 13.95L118.30 13.95L118.30 15.57Q117.66 15.87 116.98 16.02Q116.29 16.16 115.33 16.16L115.33 16.16Q114.06 16.16 113.08 15.67Q112.10 15.18 111.54 14.19Q110.99 13.20 110.99 11.73L110.99 11.73Q110.99 9.50 112.10 8.34Q113.20 7.17 114.99 7.17ZM114.99 8.66L114.99 8.66Q114.18 8.66 113.67 9.18Q113.17 9.70 113.09 10.72L113.09 10.72L116.82 10.72Q116.80 9.82 116.36 9.24Q115.92 8.66 114.99 8.66ZM125.34 7.17L125.34 7.17Q125.55 7.17 125.80 7.18Q126.05 7.20 126.22 7.25L126.22 7.25L126.05 9.12Q125.89 9.09 125.66 9.06Q125.44 9.04 125.26 9.04L125.26 9.04Q124.62 9.04 124.06 9.30Q123.50 9.57 123.16 10.12Q122.82 10.67 122.82 11.50L122.82 11.50L122.82 16L120.80 16L120.80 7.33L122.35 7.33L122.64 8.83L122.74 8.83Q123.12 8.14 123.79 7.66Q124.46 7.17 125.34 7.17Z" class="sprotty-block-name" style="fill:rgb(48, 48, 48);stroke:rgba(0, 0, 0, 0);"/><line x1="0" y1="20" x2="130.528" y2="20"/></g><g id="sprotty_ArchitectureBlockImpl$work.multiplier_tb(RTL)/InstantiationBlockImpl$DUT/BPortImpl$b" transform="translate(0, 60.50200033187866)" class="triangle"><path d="M 0,0 L 5,2.5 L 0,5 Z" transform="translate(-1.67, -2.5)" class="sprotty-port" style="fill:rgb(48, 48, 48);stroke:rgb(48, 48, 48);"/><g class="port sprotty-label" id="sprotty_ArchitectureBlockImpl$work.multiplier_tb(RTL)/InstantiationBlockImpl$DUT/BPortImpl$b/label" transform="translate(3, -7.120500087738037) translate(0, -0.13300000131130219)" style="cursor:default;fill:rgb(48, 48, 48);font-family:Arial, Helvetica, sans-serif;text-anchor:middle;"><path d="M4.51 0.13L4.51 0.13Q3.67 0.13 3.14-0.17Q2.61-0.48 2.30-0.90L2.30-0.90L2.21-0.90L1.97 0L1.13 0L1.13-10.11L2.30-10.11L2.30-7.65Q2.30-7.20 2.28-6.80Q2.26-6.41 2.23-6.18L2.23-6.18L2.30-6.18Q2.61-6.64 3.14-6.94Q3.67-7.25 4.51-7.25L4.51-7.25Q5.84-7.25 6.64-6.32Q7.45-5.40 7.45-3.56L7.45-3.56Q7.45-1.73 6.64-0.80Q5.83 0.13 4.51 0.13ZM4.34-0.84L4.34-0.84Q5.29-0.84 5.77-1.54Q6.24-2.25 6.24-3.58L6.24-3.58Q6.24-6.28 4.31-6.28L4.31-6.28Q3.18-6.28 2.74-5.63Q2.30-4.97 2.30-3.60L2.30-3.60L2.30-3.55Q2.30-2.23 2.73-1.54Q3.17-0.84 4.34-0.84Z" transform="translate(4, 12.241)"/><rect x="0" y="0.133" width="16.1795" height="14.241" class="clickable" style="cursor:pointer;fill:rgba(0, 0, 0, 0);fill-opacity:0;stroke-width:0px;"/></g></g><g id="sprotty_ArchitectureBlockImpl$work.multiplier_tb(RTL)/InstantiationBlockImpl$DUT/BPortImpl$a" transform="translate(0, 37.69075012207031)" class="triangle"><path d="M 0,0 L 5,2.5 L 0,5 Z" transform="translate(-1.67, -2.5)" class="sprotty-port" style="fill:rgb(48, 48, 48);stroke:rgb(48, 48, 48);"/><g class="port sprotty-label" id="sprotty_ArchitectureBlockImpl$work.multiplier_tb(RTL)/InstantiationBlockImpl$DUT/BPortImpl$a/label" transform="translate(3, -5.6907501220703125) translate(0, -0.13300000131130219)" style="cursor:default;fill:rgb(48, 48, 48);font-family:Arial, Helvetica, sans-serif;text-anchor:middle;"><path d="M2.86 0.13L2.86 0.13Q1.89 0.13 1.25-0.38Q0.61-0.89 0.61-1.98L0.61-1.98Q0.61-3.05 1.45-3.62Q2.29-4.20 4.03-4.26L4.03-4.26L5.24-4.30L5.24-4.72Q5.24-5.61 4.85-5.96Q4.47-6.30 3.76-6.30L3.76-6.30Q3.21-6.30 2.70-6.14Q2.19-5.97 1.76-5.76L1.76-5.76L1.40-6.64Q1.86-6.89 2.50-7.07Q3.14-7.25 3.83-7.25L3.83-7.25Q5.13-7.25 5.76-6.68Q6.38-6.10 6.38-4.85L6.38-4.85L6.38 0L5.53 0L5.31-1.01L5.25-1.01Q4.79-0.43 4.28-0.15Q3.76 0.13 2.86 0.13ZM3.13-0.81L3.13-0.81Q4.03-0.81 4.63-1.31Q5.23-1.81 5.23-2.85L5.23-2.85L5.23-3.48L4.18-3.44Q2.85-3.39 2.33-3.02Q1.82-2.65 1.82-1.97L1.82-1.97Q1.82-1.37 2.19-1.09Q2.55-0.81 3.13-0.81Z" transform="translate(4, 9.3815)"/><rect x="0" y="0.133" width="15.461300000000001" height="11.3815" class="clickable" style="cursor:pointer;fill:rgba(0, 0, 0, 0);fill-opacity:0;stroke-width:0px;"/></g></g><g id="sprotty_ArchitectureBlockImpl$work.multiplier_tb(RTL)/InstantiationBlockImpl$DUT/BPortImpl$y" transform="translate(130.52734375, 49.81125020980835)" class="triangle"><path d="M 0,0 L 5,2.5 L 0,5 Z" transform="translate(-1.67, -2.5)" class="sprotty-port" style="fill:rgb(48, 48, 48);stroke:rgb(48, 48, 48);"/><g class="port sprotty-label" id="sprotty_ArchitectureBlockImpl$work.multiplier_tb(RTL)/InstantiationBlockImpl$DUT/BPortImpl$y/label" transform="translate(-17.782999992370605, -7.160400390625) translate(0, -3.191999912261963)" style="cursor:default;fill:rgb(48, 48, 48);font-family:Arial, Helvetica, sans-serif;text-anchor:middle;"><path d="M1.12 3.19L1.12 3.19Q0.80 3.19 0.56 3.16Q0.32 3.13 0.15 3.09L0.15 3.09L0.15 2.15Q0.29 2.18 0.50 2.21Q0.70 2.23 0.93 2.23L0.93 2.23Q1.54 2.23 1.92 1.89Q2.29 1.54 2.51 0.97L2.51 0.97L2.89 0.03L0.01-7.13L1.26-7.13L2.81-3.07Q3.01-2.54 3.17-2.05Q3.33-1.57 3.40-1.13L3.40-1.13L3.46-1.13Q3.54-1.46 3.70-2.00Q3.87-2.54 4.07-3.09L4.07-3.09L5.52-7.13L6.78-7.13L3.71 0.98Q3.34 2.00 2.75 2.59Q2.15 3.19 1.12 3.19Z" transform="translate(4, 12.320800000000002)"/><rect x="0" y="3.192" width="14.783000000000001" height="14.320800000000002" class="clickable" style="cursor:pointer;fill:rgba(0, 0, 0, 0);fill-opacity:0;stroke-width:0px;"/></g></g></g></g></g></svg>