<svg xmlns="http://www.w3.org/2000/svg" id="sprotty_multiplier" class="sprotty-graph sprotty-block-diagram blockdiagram" style="font-family:&quot;Helvetica Neue&quot;, Helvetica, Arial, sans-serif;line-height:18px;perspective-origin:0px 0px;transform-origin:0px 0px;z-index:0;" version="1.1" viewBox="9.5 12 189.72453125 79.6225004196167"><g transform="scale(1) translate(0,0)"><g id="sprotty_ArchitectureBlockImpl$work.multiplier(synth)" transform="translate(12, 12)" class="architecture"><g class="sprotty-block" style="fill:rgb(245, 245, 245);stroke:rgb(48, 48, 48);stroke-dasharray:0px;"><rect x="0" y="0" rx="1" ry="1" width="182.896" height="79.6225004196167"/><path d="M14.64 16L12.40 16L11.44 12.27Q11.36 11.97 11.25 11.51Q11.14 11.06 11.02 10.56Q10.90 10.06 10.80 9.65Q10.70 9.23 10.66 9.01L10.66 9.01L10.59 9.01Q10.54 9.23 10.45 9.65Q10.35 10.06 10.24 10.57Q10.13 11.07 10.01 11.53Q9.89 11.98 9.81 12.29L9.81 12.29L8.80 16L6.59 16L4.16 7.31L6.19 7.31L7.26 11.46Q7.38 11.89 7.48 12.41Q7.58 12.93 7.66 13.42Q7.73 13.90 7.78 14.21L7.78 14.21L7.84 14.21Q7.87 13.92 7.96 13.42Q8.05 12.93 8.14 12.46Q8.24 11.98 8.30 11.74L8.30 11.74L9.55 7.31L11.76 7.31L12.96 11.74Q13.02 12.03 13.13 12.50Q13.23 12.96 13.31 13.43Q13.39 13.90 13.41 14.19L13.41 14.19L13.47 14.19Q13.50 13.94 13.58 13.46Q13.66 12.98 13.78 12.43Q13.89 11.89 14.02 11.46L14.02 11.46L15.10 7.31L17.10 7.31L14.64 16ZM26.32 11.65L26.32 11.65Q26.32 13.81 25.20 14.98Q24.08 16.16 22.16 16.16L22.16 16.16Q20.98 16.16 20.05 15.63Q19.12 15.10 18.59 14.10Q18.06 13.09 18.06 11.65L18.06 11.65Q18.06 9.49 19.18 8.33Q20.29 7.17 22.21 7.17L22.21 7.17Q23.41 7.17 24.34 7.69Q25.26 8.21 25.79 9.21Q26.32 10.21 26.32 11.65ZM20.13 11.65L20.13 11.65Q20.13 13.02 20.62 13.78Q21.10 14.53 22.19 14.53L22.19 14.53Q23.28 14.53 23.77 13.78Q24.26 13.02 24.26 11.65L24.26 11.65Q24.26 10.27 23.77 9.54Q23.28 8.80 22.18 8.80L22.18 8.80Q21.10 8.80 20.62 9.54Q20.13 10.27 20.13 11.65ZM32.94 7.17L32.94 7.17Q33.15 7.17 33.40 7.18Q33.65 7.20 33.82 7.25L33.82 7.25L33.65 9.12Q33.49 9.09 33.26 9.06Q33.04 9.04 32.86 9.04L32.86 9.04Q32.22 9.04 31.66 9.30Q31.10 9.57 30.76 10.12Q30.42 10.67 30.42 11.50L30.42 11.50L30.42 16L28.40 16L28.40 7.33L29.95 7.33L30.24 8.83L30.34 8.83Q30.72 8.14 31.39 7.66Q32.06 7.17 32.94 7.17ZM35.42 3.84L37.42 3.84L37.42 9.62Q37.42 10.03 37.39 10.50Q37.36 10.96 37.33 11.38L37.33 11.38L37.38 11.38Q37.57 11.09 37.86 10.72Q38.14 10.35 38.40 10.06L38.40 10.06L40.96 7.33L43.25 7.33L39.78 11.07L43.47 16L41.12 16L38.43 12.29L37.42 13.12L37.42 16L35.42 16L35.42 3.84ZM44.54 14.98L44.54 14.98Q44.54 14.30 44.90 14.02Q45.25 13.74 45.76 13.74L45.76 13.74Q46.26 13.74 46.62 14.02Q46.99 14.30 46.99 14.98L46.99 14.98Q46.99 15.63 46.62 15.92Q46.26 16.21 45.76 16.21L45.76 16.21Q45.25 16.21 44.90 15.92Q44.54 15.63 44.54 14.98ZM59.23 7.17L59.23 7.17Q60.70 7.17 61.45 7.92Q62.19 8.67 62.19 10.35L62.19 10.35L62.19 16L60.18 16L60.18 10.74Q60.18 8.80 58.70 8.80L58.70 8.80Q57.65 8.80 57.20 9.49Q56.75 10.18 56.75 11.49L56.75 11.49L56.75 16L54.74 16L54.74 10.74Q54.74 8.80 53.25 8.80L53.25 8.80Q52.14 8.80 51.73 9.57Q51.31 10.34 51.31 11.76L51.31 11.76L51.31 16L49.30 16L49.30 7.33L50.85 7.33L51.14 8.46L51.25 8.46Q51.63 7.79 52.33 7.48Q53.02 7.17 53.78 7.17L53.78 7.17Q54.75 7.17 55.42 7.50Q56.08 7.82 56.43 8.51L56.43 8.51L56.59 8.51Q56.99 7.81 57.71 7.49Q58.43 7.17 59.23 7.17ZM70.40 7.33L72.42 7.33L72.42 16L70.83 16L70.56 14.88L70.46 14.88Q70.03 15.55 69.30 15.86Q68.58 16.16 67.76 16.16L67.76 16.16Q66.30 16.16 65.48 15.41Q64.66 14.66 64.66 12.99L64.66 12.99L64.66 7.33L66.67 7.33L66.67 12.59Q66.67 14.53 68.27 14.53L68.27 14.53Q69.49 14.53 69.94 13.77Q70.40 13.01 70.40 11.57L70.40 11.57L70.40 7.33ZM77.01 3.84L77.01 16L74.99 16L74.99 3.84L77.01 3.84ZM82.94 14.54L82.94 14.54Q83.31 14.54 83.67 14.47Q84.03 14.40 84.34 14.30L84.34 14.30L84.34 15.81Q84.02 15.95 83.50 16.06Q82.99 16.16 82.43 16.16L82.43 16.16Q81.70 16.16 81.09 15.91Q80.48 15.66 80.13 15.06Q79.78 14.45 79.78 13.36L79.78 13.36L79.78 8.85L78.61 8.85L78.61 7.97L79.89 7.26L80.53 5.42L81.79 5.42L81.79 7.33L84.26 7.33L84.26 8.85L81.79 8.85L81.79 13.34Q81.79 13.95 82.11 14.25Q82.43 14.54 82.94 14.54ZM87.09 3.98L87.09 3.98Q87.55 3.98 87.88 4.22Q88.21 4.45 88.21 5.04L88.21 5.04Q88.21 5.63 87.88 5.87Q87.55 6.11 87.09 6.11L87.09 6.11Q86.62 6.11 86.30 5.87Q85.97 5.63 85.97 5.04L85.97 5.04Q85.97 4.45 86.30 4.22Q86.62 3.98 87.09 3.98ZM86.08 7.33L88.10 7.33L88.10 16L86.08 16L86.08 7.33ZM95.23 7.17L95.23 7.17Q96.75 7.17 97.68 8.30Q98.61 9.42 98.61 11.65L98.61 11.65Q98.61 13.87 97.66 15.02Q96.70 16.16 95.18 16.16L95.18 16.16Q94.22 16.16 93.63 15.81Q93.04 15.46 92.69 14.99L92.69 14.99L92.56 14.99Q92.61 15.30 92.65 15.66Q92.69 16.02 92.69 16.32L92.69 16.32L92.69 19.84L90.67 19.84L90.67 7.33L92.30 7.33L92.59 8.48L92.69 8.48Q93.04 7.94 93.65 7.55Q94.26 7.17 95.23 7.17ZM94.66 8.80L94.66 8.80Q93.58 8.80 93.14 9.44Q92.70 10.08 92.69 11.38L92.69 11.38L92.69 11.63Q92.69 13.02 93.11 13.77Q93.54 14.51 94.69 14.51L94.69 14.51Q95.63 14.51 96.09 13.74Q96.54 12.96 96.54 11.62L96.54 11.62Q96.54 10.27 96.09 9.54Q95.63 8.80 94.66 8.80ZM102.70 3.84L102.70 16L100.69 16L100.69 3.84L102.70 3.84ZM106.29 3.98L106.29 3.98Q106.75 3.98 107.08 4.22Q107.41 4.45 107.41 5.04L107.41 5.04Q107.41 5.63 107.08 5.87Q106.75 6.11 106.29 6.11L106.29 6.11Q105.82 6.11 105.50 5.87Q105.17 5.63 105.17 5.04L105.17 5.04Q105.17 4.45 105.50 4.22Q105.82 3.98 106.29 3.98ZM105.28 7.33L107.30 7.33L107.30 16L105.28 16L105.28 7.33ZM113.36 7.17L113.36 7.17Q115.10 7.17 116.12 8.21Q117.14 9.25 117.14 11.10L117.14 11.10L117.14 12.13L111.41 12.13Q111.44 13.31 112.06 13.96Q112.69 14.61 113.79 14.61L113.79 14.61Q114.62 14.61 115.30 14.44Q115.97 14.27 116.67 13.95L116.67 13.95L116.67 15.57Q116.03 15.87 115.34 16.02Q114.66 16.16 113.70 16.16L113.70 16.16Q112.43 16.16 111.45 15.67Q110.46 15.18 109.91 14.19Q109.36 13.20 109.36 11.73L109.36 11.73Q109.36 9.50 110.46 8.34Q111.57 7.17 113.36 7.17ZM113.36 8.66L113.36 8.66Q112.54 8.66 112.04 9.18Q111.54 9.70 111.46 10.72L111.46 10.72L115.18 10.72Q115.17 9.82 114.73 9.24Q114.29 8.66 113.36 8.66ZM123.71 7.17L123.71 7.17Q123.92 7.17 124.17 7.18Q124.42 7.20 124.59 7.25L124.59 7.25L124.42 9.12Q124.26 9.09 124.03 9.06Q123.81 9.04 123.63 9.04L123.63 9.04Q122.99 9.04 122.43 9.30Q121.87 9.57 121.53 10.12Q121.18 10.67 121.18 11.50L121.18 11.50L121.18 16L119.17 16L119.17 7.33L120.72 7.33L121.01 8.83L121.10 8.83Q121.49 8.14 122.16 7.66Q122.83 7.17 123.71 7.17ZM125.54 11.62L125.54 11.62Q125.54 9.66 126.10 7.85Q126.67 6.03 127.89 4.58L127.89 4.58L129.60 4.58Q128.50 6.08 127.94 7.89Q127.38 9.70 127.38 11.60L127.38 11.60Q127.38 13.46 127.94 15.25Q128.50 17.04 129.58 18.53L129.58 18.53L127.89 18.53Q126.67 17.12 126.10 15.34Q125.54 13.55 125.54 11.62ZM137.28 13.49L137.28 13.49Q137.28 14.80 136.34 15.48Q135.41 16.16 133.66 16.16L133.66 16.16Q132.75 16.16 132.10 16.03Q131.46 15.90 130.85 15.63L130.85 15.63L130.85 13.92Q131.49 14.22 132.26 14.43Q133.04 14.64 133.73 14.64L133.73 14.64Q134.56 14.64 134.93 14.38Q135.30 14.13 135.30 13.70L135.30 13.70Q135.30 13.44 135.15 13.24Q135.01 13.04 134.58 12.80Q134.16 12.56 133.33 12.21L133.33 12.21Q132.50 11.89 131.94 11.54Q131.39 11.20 131.11 10.74Q130.83 10.27 130.83 9.54L130.83 9.54Q130.83 8.37 131.75 7.77Q132.67 7.17 134.21 7.17L134.21 7.17Q135.01 7.17 135.72 7.33Q136.43 7.49 137.15 7.81L137.15 7.81L136.51 9.30Q135.90 9.04 135.33 8.86Q134.75 8.69 134.14 8.69L134.14 8.69Q132.82 8.69 132.82 9.44L132.82 9.44Q132.82 9.71 132.98 9.90Q133.15 10.10 133.58 10.31Q134.00 10.53 134.78 10.83L134.78 10.83Q135.55 11.14 136.11 11.46Q136.67 11.79 136.98 12.27Q137.28 12.75 137.28 13.49ZM141.39 15.97L137.92 7.33L140.11 7.33L141.84 12.22Q142.02 12.69 142.13 13.14Q142.24 13.58 142.29 14.05L142.29 14.05L142.35 14.05Q142.42 13.65 142.54 13.17Q142.67 12.69 142.83 12.22L142.83 12.22L144.50 7.33L146.67 7.33L142.98 17.15Q142.48 18.45 141.62 19.14Q140.77 19.84 139.52 19.84L139.52 19.84Q139.12 19.84 138.83 19.80Q138.54 19.76 138.32 19.71L138.32 19.71L138.32 18.11Q138.50 18.14 138.74 18.18Q138.99 18.21 139.26 18.21L139.26 18.21Q140.02 18.21 140.46 17.77Q140.90 17.33 141.14 16.67L141.14 16.67L141.39 15.97ZM152.61 7.17L152.61 7.17Q154.06 7.17 154.89 7.92Q155.71 8.67 155.71 10.35L155.71 10.35L155.71 16L153.70 16L153.70 10.75Q153.70 8.80 152.10 8.80L152.10 8.80Q150.88 8.80 150.43 9.57Q149.98 10.34 149.98 11.76L149.98 11.76L149.98 16L147.97 16L147.97 7.33L149.52 7.33L149.81 8.46L149.92 8.46Q150.34 7.79 151.06 7.48Q151.79 7.17 152.61 7.17ZM161.60 14.54L161.60 14.54Q161.97 14.54 162.33 14.47Q162.69 14.40 162.99 14.30L162.99 14.30L162.99 15.81Q162.67 15.95 162.16 16.06Q161.65 16.16 161.09 16.16L161.09 16.16Q160.35 16.16 159.74 15.91Q159.14 15.66 158.78 15.06Q158.43 14.45 158.43 13.36L158.43 13.36L158.43 8.85L157.26 8.85L157.26 7.97L158.54 7.26L159.18 5.42L160.45 5.42L160.45 7.33L162.91 7.33L162.91 8.85L160.45 8.85L160.45 13.34Q160.45 13.95 160.77 14.25Q161.09 14.54 161.60 14.54ZM164.74 3.84L166.75 3.84L166.75 6.74Q166.75 7.25 166.71 7.74Q166.67 8.22 166.64 8.46L166.64 8.46L166.77 8.46Q167.18 7.81 167.86 7.49Q168.53 7.17 169.34 7.17L169.34 7.17Q170.82 7.17 171.65 7.92Q172.48 8.67 172.48 10.35L172.48 10.35L172.48 16L170.46 16L170.46 10.75Q170.46 8.80 168.86 8.80L168.86 8.80Q167.65 8.80 167.20 9.57Q166.75 10.34 166.75 11.76L166.75 11.76L166.75 16L164.74 16L164.74 3.84ZM178.26 11.62L178.26 11.62Q178.26 13.55 177.69 15.34Q177.12 17.12 175.90 18.53L175.90 18.53L174.21 18.53Q175.30 17.04 175.86 15.25Q176.43 13.46 176.43 11.60L176.43 11.60Q176.43 9.70 175.86 7.89Q175.30 6.08 174.19 4.58L174.19 4.58L175.90 4.58Q177.12 6.03 177.69 7.85Q178.26 9.66 178.26 11.62Z" class="sprotty-block-name" style="fill:rgb(48, 48, 48);stroke:rgba(0, 0, 0, 0);"/><line x1="0" y1="20" x2="182.896" y2="20"/></g><g id="sprotty_ArchitectureBlockImpl$work.multiplier(synth)/GPortImpl$b" transform="translate(0, 60.50200033187866)" class="triangle"><path d="M 0,0 L 5,2.5 L 0,5 Z" transform="translate(-1.67, -2.5)" class="sprotty-port" style="fill:rgb(48, 48, 48);stroke:rgb(48, 48, 48);"/><g class="port sprotty-label" id="sprotty_ArchitectureBlockImpl$work.multiplier(synth)/GPortImpl$b/label" transform="translate(3, -7.120500087738037) translate(0, -0.13300000131130219)" style="cursor:default;fill:rgb(48, 48, 48);font-family:Arial, Helvetica, sans-serif;text-anchor:middle;"><path d="M4.51 0.13L4.51 0.13Q3.67 0.13 3.14-0.17Q2.61-0.48 2.30-0.90L2.30-0.90L2.21-0.90L1.97 0L1.13 0L1.13-10.11L2.30-10.11L2.30-7.65Q2.30-7.20 2.28-6.80Q2.26-6.41 2.23-6.18L2.23-6.18L2.30-6.18Q2.61-6.64 3.14-6.94Q3.67-7.25 4.51-7.25L4.51-7.25Q5.84-7.25 6.64-6.32Q7.45-5.40 7.45-3.56L7.45-3.56Q7.45-1.73 6.64-0.80Q5.83 0.13 4.51 0.13ZM4.34-0.84L4.34-0.84Q5.29-0.84 5.77-1.54Q6.24-2.25 6.24-3.58L6.24-3.58Q6.24-6.28 4.31-6.28L4.31-6.28Q3.18-6.28 2.74-5.63Q2.30-4.97 2.30-3.60L2.30-3.60L2.30-3.55Q2.30-2.23 2.73-1.54Q3.17-0.84 4.34-0.84Z" transform="translate(4, 12.241)"/><rect x="0" y="0.133" width="16.1795" height="14.241" class="clickable" style="cursor:pointer;fill:rgba(0, 0, 0, 0);fill-opacity:0;stroke-width:0px;"/></g></g><g id="sprotty_ArchitectureBlockImpl$work.multiplier(synth)/GPortImpl$a" transform="translate(0, 37.69075012207031)" class="triangle"><path d="M 0,0 L 5,2.5 L 0,5 Z" transform="translate(-1.67, -2.5)" class="sprotty-port" style="fill:rgb(48, 48, 48);stroke:rgb(48, 48, 48);"/><g class="port sprotty-label" id="sprotty_ArchitectureBlockImpl$work.multiplier(synth)/GPortImpl$a/label" transform="translate(3, -5.6907501220703125) translate(0, -0.13300000131130219)" style="cursor:default;fill:rgb(48, 48, 48);font-family:Arial, Helvetica, sans-serif;text-anchor:middle;"><path d="M2.86 0.13L2.86 0.13Q1.89 0.13 1.25-0.38Q0.61-0.89 0.61-1.98L0.61-1.98Q0.61-3.05 1.45-3.62Q2.29-4.20 4.03-4.26L4.03-4.26L5.24-4.30L5.24-4.72Q5.24-5.61 4.85-5.96Q4.47-6.30 3.76-6.30L3.76-6.30Q3.21-6.30 2.70-6.14Q2.19-5.97 1.76-5.76L1.76-5.76L1.40-6.64Q1.86-6.89 2.50-7.07Q3.14-7.25 3.83-7.25L3.83-7.25Q5.13-7.25 5.76-6.68Q6.38-6.10 6.38-4.85L6.38-4.85L6.38 0L5.53 0L5.31-1.01L5.25-1.01Q4.79-0.43 4.28-0.15Q3.76 0.13 2.86 0.13ZM3.13-0.81L3.13-0.81Q4.03-0.81 4.63-1.31Q5.23-1.81 5.23-2.85L5.23-2.85L5.23-3.48L4.18-3.44Q2.85-3.39 2.33-3.02Q1.82-2.65 1.82-1.97L1.82-1.97Q1.82-1.37 2.19-1.09Q2.55-0.81 3.13-0.81Z" transform="translate(4, 9.3815)"/><rect x="0" y="0.133" width="15.461300000000001" height="11.3815" class="clickable" style="cursor:pointer;fill:rgba(0, 0, 0, 0);fill-opacity:0;stroke-width:0px;"/></g></g><g id="sprotty_ArchitectureBlockImpl$work.multiplier(synth)/GPortImpl$y" transform="translate(182.89453125, 49.81125020980835)" class="triangle"><path d="M 0,0 L 5,2.5 L 0,5 Z" transform="translate(-1.67, -2.5)" class="sprotty-port" style="fill:rgb(48, 48, 48);stroke:rgb(48, 48, 48);"/><g class="port sprotty-label" id="sprotty_ArchitectureBlockImpl$work.multiplier(synth)/GPortImpl$y/label" transform="translate(-17.782999992370605, -7.160400390625) translate(0, -3.191999912261963)" style="cursor:default;fill:rgb(48, 48, 48);font-family:Arial, Helvetica, sans-serif;text-anchor:middle;"><path d="M1.12 3.19L1.12 3.19Q0.80 3.19 0.56 3.16Q0.32 3.13 0.15 3.09L0.15 3.09L0.15 2.15Q0.29 2.18 0.50 2.21Q0.70 2.23 0.93 2.23L0.93 2.23Q1.54 2.23 1.92 1.89Q2.29 1.54 2.51 0.97L2.51 0.97L2.89 0.03L0.01-7.13L1.26-7.13L2.81-3.07Q3.01-2.54 3.17-2.05Q3.33-1.57 3.40-1.13L3.40-1.13L3.46-1.13Q3.54-1.46 3.70-2.00Q3.87-2.54 4.07-3.09L4.07-3.09L5.52-7.13L6.78-7.13L3.71 0.98Q3.34 2.00 2.75 2.59Q2.15 3.19 1.12 3.19Z" transform="translate(4, 12.320800000000002)"/><rect x="0" y="3.192" width="14.783000000000001" height="14.320800000000002" class="clickable" style="cursor:pointer;fill:rgba(0, 0, 0, 0);fill-opacity:0;stroke-width:0px;"/></g></g></g></g></svg>