<svg xmlns="http://www.w3.org/2000/svg" id="sprotty_and8" class="sprotty-graph sprotty-block-diagram blockdiagram" style="font-family:&quot;Helvetica Neue&quot;, Helvetica, Arial, sans-serif;line-height:18px;perspective-origin:0px 0px;transform-origin:0px 0px;z-index:0;" version="1.1" viewBox="9.5 12 151.67765625 58.32080078125"><g transform="scale(1) translate(0,0)"><g id="sprotty_ArchitectureBlockImpl$work.and8(synth)" transform="translate(12, 12)" class="architecture"><g class="sprotty-block" style="fill:rgb(245, 245, 245);stroke:rgb(48, 48, 48);stroke-dasharray:0px;"><rect x="0" y="0" rx="1" ry="1" width="144.84799999999998" height="58.32080078125"/><path d="M14.64 16L12.40 16L11.44 12.27Q11.36 11.97 11.25 11.51Q11.14 11.06 11.02 10.56Q10.90 10.06 10.80 9.65Q10.70 9.23 10.66 9.01L10.66 9.01L10.59 9.01Q10.54 9.23 10.45 9.65Q10.35 10.06 10.24 10.57Q10.13 11.07 10.01 11.53Q9.89 11.98 9.81 12.29L9.81 12.29L8.80 16L6.59 16L4.16 7.31L6.19 7.31L7.26 11.46Q7.38 11.89 7.48 12.41Q7.58 12.93 7.66 13.42Q7.73 13.90 7.78 14.21L7.78 14.21L7.84 14.21Q7.87 13.92 7.96 13.42Q8.05 12.93 8.14 12.46Q8.24 11.98 8.30 11.74L8.30 11.74L9.55 7.31L11.76 7.31L12.96 11.74Q13.02 12.03 13.13 12.50Q13.23 12.96 13.31 13.43Q13.39 13.90 13.41 14.19L13.41 14.19L13.47 14.19Q13.50 13.94 13.58 13.46Q13.66 12.98 13.78 12.43Q13.89 11.89 14.02 11.46L14.02 11.46L15.10 7.31L17.10 7.31L14.64 16ZM26.32 11.65L26.32 11.65Q26.32 13.81 25.20 14.98Q24.08 16.16 22.16 16.16L22.16 16.16Q20.98 16.16 20.05 15.63Q19.12 15.10 18.59 14.10Q18.06 13.09 18.06 11.65L18.06 11.65Q18.06 9.49 19.18 8.33Q20.29 7.17 22.21 7.17L22.21 7.17Q23.41 7.17 24.34 7.69Q25.26 8.21 25.79 9.21Q26.32 10.21 26.32 11.65ZM20.13 11.65L20.13 11.65Q20.13 13.02 20.62 13.78Q21.10 14.53 22.19 14.53L22.19 14.53Q23.28 14.53 23.77 13.78Q24.26 13.02 24.26 11.65L24.26 11.65Q24.26 10.27 23.77 9.54Q23.28 8.80 22.18 8.80L22.18 8.80Q21.10 8.80 20.62 9.54Q20.13 10.27 20.13 11.65ZM32.94 7.17L32.94 7.17Q33.15 7.17 33.40 7.18Q33.65 7.20 33.82 7.25L33.82 7.25L33.65 9.12Q33.49 9.09 33.26 9.06Q33.04 9.04 32.86 9.04L32.86 9.04Q32.22 9.04 31.66 9.30Q31.10 9.57 30.76 10.12Q30.42 10.67 30.42 11.50L30.42 11.50L30.42 16L28.40 16L28.40 7.33L29.95 7.33L30.24 8.83L30.34 8.83Q30.72 8.14 31.39 7.66Q32.06 7.17 32.94 7.17ZM35.42 3.84L37.42 3.84L37.42 9.62Q37.42 10.03 37.39 10.50Q37.36 10.96 37.33 11.38L37.33 11.38L37.38 11.38Q37.57 11.09 37.86 10.72Q38.14 10.35 38.40 10.06L38.40 10.06L40.96 7.33L43.25 7.33L39.78 11.07L43.47 16L41.12 16L38.43 12.29L37.42 13.12L37.42 16L35.42 16L35.42 3.84ZM44.54 14.98L44.54 14.98Q44.54 14.30 44.90 14.02Q45.25 13.74 45.76 13.74L45.76 13.74Q46.26 13.74 46.62 14.02Q46.99 14.30 46.99 14.98L46.99 14.98Q46.99 15.63 46.62 15.92Q46.26 16.21 45.76 16.21L45.76 16.21Q45.25 16.21 44.90 15.92Q44.54 15.63 44.54 14.98ZM52.75 7.17L52.75 7.17Q54.43 7.17 55.30 7.90Q56.18 8.64 56.18 10.18L56.18 10.18L56.18 16L54.75 16L54.35 14.80L54.29 14.80Q53.73 15.50 53.10 15.83Q52.48 16.16 51.41 16.16L51.41 16.16Q50.24 16.16 49.47 15.50Q48.70 14.85 48.70 13.47L48.70 13.47Q48.70 12.13 49.69 11.46Q50.67 10.78 52.67 10.70L52.67 10.70L54.18 10.66L54.18 10.22Q54.18 9.41 53.78 9.05Q53.38 8.69 52.66 8.69L52.66 8.69Q52 8.69 51.40 8.88Q50.80 9.07 50.21 9.33L50.21 9.33L49.57 7.92Q50.21 7.58 51.03 7.38Q51.86 7.17 52.75 7.17ZM54.18 12.64L54.18 11.90L53.12 11.94Q51.79 11.98 51.28 12.39Q50.77 12.80 50.77 13.49L50.77 13.49Q50.77 14.11 51.13 14.38Q51.49 14.64 52.08 14.64L52.08 14.64Q52.96 14.64 53.57 14.14Q54.18 13.63 54.18 12.64L54.18 12.64ZM63.34 7.17L63.34 7.17Q64.80 7.17 65.62 7.92Q66.45 8.67 66.45 10.35L66.45 10.35L66.45 16L64.43 16L64.43 10.75Q64.43 8.80 62.83 8.80L62.83 8.80Q61.62 8.80 61.17 9.57Q60.72 10.34 60.72 11.76L60.72 11.76L60.72 16L58.70 16L58.70 7.33L60.26 7.33L60.54 8.46L60.66 8.46Q61.07 7.79 61.80 7.48Q62.53 7.17 63.34 7.17ZM71.84 16.16L71.84 16.16Q70.32 16.16 69.39 15.02Q68.46 13.89 68.46 11.68L68.46 11.68Q68.46 9.44 69.41 8.30Q70.35 7.17 71.89 7.17L71.89 7.17Q72.85 7.17 73.46 7.54Q74.08 7.90 74.45 8.43L74.45 8.43L74.54 8.43Q74.50 8.21 74.45 7.74Q74.40 7.28 74.40 6.88L74.40 6.88L74.40 3.84L76.42 3.84L76.42 16L74.85 16L74.48 14.86L74.40 14.86Q74.03 15.41 73.42 15.78Q72.82 16.16 71.84 16.16ZM72.45 14.53L72.45 14.53Q73.57 14.53 74.02 13.89Q74.48 13.25 74.50 11.95L74.50 11.95L74.50 11.70Q74.50 10.30 74.06 9.56Q73.62 8.82 72.42 8.82L72.42 8.82Q71.49 8.82 71 9.58Q70.51 10.34 70.51 11.71L70.51 11.71Q70.51 13.09 71.01 13.81Q71.50 14.53 72.45 14.53ZM82.27 4.43L82.27 4.43Q83.26 4.43 84.07 4.74Q84.88 5.04 85.35 5.65Q85.82 6.26 85.82 7.17L85.82 7.17Q85.82 8.21 85.22 8.86Q84.61 9.52 83.73 9.97L83.73 9.97Q84.38 10.29 84.94 10.71Q85.50 11.14 85.85 11.70Q86.19 12.27 86.19 13.04L86.19 13.04Q86.19 14 85.70 14.70Q85.20 15.39 84.33 15.78Q83.46 16.16 82.29 16.16L82.29 16.16Q80.38 16.16 79.36 15.34Q78.34 14.53 78.34 13.10L78.34 13.10Q78.34 12.32 78.65 11.74Q78.96 11.15 79.47 10.74Q79.98 10.32 80.59 10.03L80.59 10.03Q79.81 9.55 79.26 8.87Q78.70 8.19 78.70 7.15L78.70 7.15Q78.70 6.26 79.19 5.65Q79.68 5.04 80.49 4.74Q81.30 4.43 82.27 4.43ZM82.26 5.95L82.26 5.95Q81.55 5.95 81.10 6.30Q80.64 6.66 80.64 7.30L80.64 7.30Q80.64 8 81.13 8.41Q81.62 8.82 82.29 9.14L82.29 9.14Q82.94 8.85 83.42 8.43Q83.89 8.02 83.89 7.30L83.89 7.30Q83.89 6.66 83.43 6.30Q82.98 5.95 82.26 5.95ZM80.26 13.01L80.26 13.01Q80.26 13.71 80.75 14.17Q81.25 14.62 82.26 14.62L82.26 14.62Q83.25 14.62 83.76 14.18Q84.27 13.73 84.27 13.01L84.27 13.01Q84.27 12.29 83.69 11.82Q83.10 11.34 82.34 10.98L82.34 10.98L82.11 10.86Q81.25 11.25 80.75 11.76Q80.26 12.27 80.26 13.01ZM87.49 11.62L87.49 11.62Q87.49 9.66 88.06 7.85Q88.62 6.03 89.84 4.58L89.84 4.58L91.55 4.58Q90.45 6.08 89.89 7.89Q89.33 9.70 89.33 11.60L89.33 11.60Q89.33 13.46 89.89 15.25Q90.45 17.04 91.54 18.53L91.54 18.53L89.84 18.53Q88.62 17.12 88.06 15.34Q87.49 13.55 87.49 11.62ZM99.23 13.49L99.23 13.49Q99.23 14.80 98.30 15.48Q97.36 16.16 95.62 16.16L95.62 16.16Q94.70 16.16 94.06 16.03Q93.41 15.90 92.80 15.63L92.80 15.63L92.80 13.92Q93.44 14.22 94.22 14.43Q94.99 14.64 95.68 14.64L95.68 14.64Q96.51 14.64 96.88 14.38Q97.25 14.13 97.25 13.70L97.25 13.70Q97.25 13.44 97.10 13.24Q96.96 13.04 96.54 12.80Q96.11 12.56 95.28 12.21L95.28 12.21Q94.45 11.89 93.90 11.54Q93.34 11.20 93.06 10.74Q92.78 10.27 92.78 9.54L92.78 9.54Q92.78 8.37 93.70 7.77Q94.62 7.17 96.16 7.17L96.16 7.17Q96.96 7.17 97.67 7.33Q98.38 7.49 99.10 7.81L99.10 7.81L98.46 9.30Q97.86 9.04 97.28 8.86Q96.70 8.69 96.10 8.69L96.10 8.69Q94.77 8.69 94.77 9.44L94.77 9.44Q94.77 9.71 94.94 9.90Q95.10 10.10 95.53 10.31Q95.95 10.53 96.74 10.83L96.74 10.83Q97.50 11.14 98.06 11.46Q98.62 11.79 98.93 12.27Q99.23 12.75 99.23 13.49ZM103.34 15.97L99.87 7.33L102.06 7.33L103.79 12.22Q103.97 12.69 104.08 13.14Q104.19 13.58 104.24 14.05L104.24 14.05L104.30 14.05Q104.37 13.65 104.50 13.17Q104.62 12.69 104.78 12.22L104.78 12.22L106.45 7.33L108.62 7.33L104.93 17.15Q104.43 18.45 103.58 19.14Q102.72 19.84 101.47 19.84L101.47 19.84Q101.07 19.84 100.78 19.80Q100.50 19.76 100.27 19.71L100.27 19.71L100.27 18.11Q100.45 18.14 100.70 18.18Q100.94 18.21 101.22 18.21L101.22 18.21Q101.97 18.21 102.41 17.77Q102.85 17.33 103.09 16.67L103.09 16.67L103.34 15.97ZM114.56 7.17L114.56 7.17Q116.02 7.17 116.84 7.92Q117.66 8.67 117.66 10.35L117.66 10.35L117.66 16L115.65 16L115.65 10.75Q115.65 8.80 114.05 8.80L114.05 8.80Q112.83 8.80 112.38 9.57Q111.94 10.34 111.94 11.76L111.94 11.76L111.94 16L109.92 16L109.92 7.33L111.47 7.33L111.76 8.46L111.87 8.46Q112.29 7.79 113.02 7.48Q113.74 7.17 114.56 7.17ZM123.55 14.54L123.55 14.54Q123.92 14.54 124.28 14.47Q124.64 14.40 124.94 14.30L124.94 14.30L124.94 15.81Q124.62 15.95 124.11 16.06Q123.60 16.16 123.04 16.16L123.04 16.16Q122.30 16.16 121.70 15.91Q121.09 15.66 120.74 15.06Q120.38 14.45 120.38 13.36L120.38 13.36L120.38 8.85L119.22 8.85L119.22 7.97L120.50 7.26L121.14 5.42L122.40 5.42L122.40 7.33L124.86 7.33L124.86 8.85L122.40 8.85L122.40 13.34Q122.40 13.95 122.72 14.25Q123.04 14.54 123.55 14.54ZM126.69 3.84L128.70 3.84L128.70 6.74Q128.70 7.25 128.66 7.74Q128.62 8.22 128.59 8.46L128.59 8.46L128.72 8.46Q129.14 7.81 129.81 7.49Q130.48 7.17 131.30 7.17L131.30 7.17Q132.77 7.17 133.60 7.92Q134.43 8.67 134.43 10.35L134.43 10.35L134.43 16L132.42 16L132.42 10.75Q132.42 8.80 130.82 8.80L130.82 8.80Q129.60 8.80 129.15 9.57Q128.70 10.34 128.70 11.76L128.70 11.76L128.70 16L126.69 16L126.69 3.84ZM140.21 11.62L140.21 11.62Q140.21 13.55 139.64 15.34Q139.07 17.12 137.86 18.53L137.86 18.53L136.16 18.53Q137.25 17.04 137.82 15.25Q138.38 13.46 138.38 11.60L138.38 11.60Q138.38 9.70 137.82 7.89Q137.25 6.08 136.14 4.58L136.14 4.58L137.86 4.58Q139.07 6.03 139.64 7.85Q140.21 9.66 140.21 11.62Z" class="sprotty-block-name" style="fill:rgb(48, 48, 48);stroke:rgba(0, 0, 0, 0);"/><line x1="0" y1="20" x2="144.84799999999998" y2="20"/></g><g id="sprotty_ArchitectureBlockImpl$work.and8(synth)/GPortImpl$a" transform="translate(0, 39.160400390625)" class="triangle"><path d="M 0,0 L 5,2.5 L 0,5 Z" transform="translate(-1.67, -2.5)" class="sprotty-port" style="fill:rgb(48, 48, 48);stroke:rgb(48, 48, 48);"/><g class="port sprotty-label" id="sprotty_ArchitectureBlockImpl$work.and8(synth)/GPortImpl$a/label" transform="translate(3, -5.6907501220703125) translate(0, -0.13300000131130219)" style="cursor:default;fill:rgb(48, 48, 48);font-family:Arial, Helvetica, sans-serif;text-anchor:middle;"><path d="M2.86 0.13L2.86 0.13Q1.89 0.13 1.25-0.38Q0.61-0.89 0.61-1.98L0.61-1.98Q0.61-3.05 1.45-3.62Q2.29-4.20 4.03-4.26L4.03-4.26L5.24-4.30L5.24-4.72Q5.24-5.61 4.85-5.96Q4.47-6.30 3.76-6.30L3.76-6.30Q3.21-6.30 2.70-6.14Q2.19-5.97 1.76-5.76L1.76-5.76L1.40-6.64Q1.86-6.89 2.50-7.07Q3.14-7.25 3.83-7.25L3.83-7.25Q5.13-7.25 5.76-6.68Q6.38-6.10 6.38-4.85L6.38-4.85L6.38 0L5.53 0L5.31-1.01L5.25-1.01Q4.79-0.43 4.28-0.15Q3.76 0.13 2.86 0.13ZM3.13-0.81L3.13-0.81Q4.03-0.81 4.63-1.31Q5.23-1.81 5.23-2.85L5.23-2.85L5.23-3.48L4.18-3.44Q2.85-3.39 2.33-3.02Q1.82-2.65 1.82-1.97L1.82-1.97Q1.82-1.37 2.19-1.09Q2.55-0.81 3.13-0.81Z" transform="translate(4, 9.3815)"/><rect x="0" y="0.133" width="15.461300000000001" height="11.3815" class="clickable" style="cursor:pointer;fill:rgba(0, 0, 0, 0);fill-opacity:0;stroke-width:0px;"/></g></g><g id="sprotty_ArchitectureBlockImpl$work.and8(synth)/GPortImpl$y" transform="translate(144.84765625, 39.160400390625)" class="triangle"><path d="M 0,0 L 5,2.5 L 0,5 Z" transform="translate(-1.67, -2.5)" class="sprotty-port" style="fill:rgb(48, 48, 48);stroke:rgb(48, 48, 48);"/><g class="port sprotty-label" id="sprotty_ArchitectureBlockImpl$work.and8(synth)/GPortImpl$y/label" transform="translate(-17.782999992370605, -7.160400390625) translate(0, -3.191999912261963)" style="cursor:default;fill:rgb(48, 48, 48);font-family:Arial, Helvetica, sans-serif;text-anchor:middle;"><path d="M1.12 3.19L1.12 3.19Q0.80 3.19 0.56 3.16Q0.32 3.13 0.15 3.09L0.15 3.09L0.15 2.15Q0.29 2.18 0.50 2.21Q0.70 2.23 0.93 2.23L0.93 2.23Q1.54 2.23 1.92 1.89Q2.29 1.54 2.51 0.97L2.51 0.97L2.89 0.03L0.01-7.13L1.26-7.13L2.81-3.07Q3.01-2.54 3.17-2.05Q3.33-1.57 3.40-1.13L3.40-1.13L3.46-1.13Q3.54-1.46 3.70-2.00Q3.87-2.54 4.07-3.09L4.07-3.09L5.52-7.13L6.78-7.13L3.71 0.98Q3.34 2.00 2.75 2.59Q2.15 3.19 1.12 3.19Z" transform="translate(4, 12.320800000000002)"/><rect x="0" y="3.192" width="14.783000000000001" height="14.320800000000002" class="clickable" style="cursor:pointer;fill:rgba(0, 0, 0, 0);fill-opacity:0;stroke-width:0px;"/></g></g></g></g></svg>