<svg xmlns="http://www.w3.org/2000/svg" id="sprotty_tristate_tb" class="sprotty-graph sprotty-block-diagram blockdiagram" style="font-family:&quot;Helvetica Neue&quot;, Helvetica, Arial, sans-serif;line-height:18px;perspective-origin:0px 0px;transform-origin:0px 0px;z-index:0;" version="1.1" viewBox="9.5 12 245.4392529296875 126.77630043029785"><g transform="scale(1) translate(0,0)"><g id="sprotty_ArchitectureBlockImpl$work.tristate_tb(RTL)" transform="translate(12, 12)" class="architecture"><g class="sprotty-block" style="fill:rgb(245, 245, 245);stroke:rgb(48, 48, 48);stroke-dasharray:0px;"><rect x="0" y="0" rx="1" ry="1" width="238.6092529296875" height="126.77630043029785"/><path d="M48.17 16L45.93 16L44.97 12.27Q44.89 11.97 44.78 11.51Q44.66 11.06 44.54 10.56Q44.42 10.06 44.33 9.65Q44.23 9.23 44.18 9.01L44.18 9.01L44.12 9.01Q44.07 9.23 43.98 9.65Q43.88 10.06 43.77 10.57Q43.66 11.07 43.54 11.53Q43.42 11.98 43.34 12.29L43.34 12.29L42.33 16L40.12 16L37.69 7.31L39.72 7.31L40.79 11.46Q40.90 11.89 41.01 12.41Q41.11 12.93 41.18 13.42Q41.26 13.90 41.30 14.21L41.30 14.21L41.37 14.21Q41.40 13.92 41.49 13.42Q41.58 12.93 41.67 12.46Q41.77 11.98 41.83 11.74L41.83 11.74L43.08 7.31L45.29 7.31L46.49 11.74Q46.55 12.03 46.66 12.50Q46.76 12.96 46.84 13.43Q46.92 13.90 46.94 14.19L46.94 14.19L47.00 14.19Q47.03 13.94 47.11 13.46Q47.19 12.98 47.30 12.43Q47.42 11.89 47.54 11.46L47.54 11.46L48.63 7.31L50.63 7.31L48.17 16ZM59.85 11.65L59.85 11.65Q59.85 13.81 58.73 14.98Q57.61 16.16 55.69 16.16L55.69 16.16Q54.50 16.16 53.58 15.63Q52.65 15.10 52.12 14.10Q51.59 13.09 51.59 11.65L51.59 11.65Q51.59 9.49 52.70 8.33Q53.82 7.17 55.74 7.17L55.74 7.17Q56.94 7.17 57.86 7.69Q58.79 8.21 59.32 9.21Q59.85 10.21 59.85 11.65ZM53.66 11.65L53.66 11.65Q53.66 13.02 54.14 13.78Q54.63 14.53 55.72 14.53L55.72 14.53Q56.81 14.53 57.30 13.78Q57.78 13.02 57.78 11.65L57.78 11.65Q57.78 10.27 57.30 9.54Q56.81 8.80 55.70 8.80L55.70 8.80Q54.63 8.80 54.14 9.54Q53.66 10.27 53.66 11.65ZM66.47 7.17L66.47 7.17Q66.68 7.17 66.93 7.18Q67.18 7.20 67.35 7.25L67.35 7.25L67.18 9.12Q67.02 9.09 66.79 9.06Q66.57 9.04 66.39 9.04L66.39 9.04Q65.75 9.04 65.19 9.30Q64.63 9.57 64.29 10.12Q63.94 10.67 63.94 11.50L63.94 11.50L63.94 16L61.93 16L61.93 7.33L63.48 7.33L63.77 8.83L63.86 8.83Q64.25 8.14 64.92 7.66Q65.59 7.17 66.47 7.17ZM68.95 3.84L70.95 3.84L70.95 9.62Q70.95 10.03 70.92 10.50Q70.89 10.96 70.86 11.38L70.86 11.38L70.90 11.38Q71.10 11.09 71.38 10.72Q71.67 10.35 71.93 10.06L71.93 10.06L74.49 7.33L76.78 7.33L73.30 11.07L77.00 16L74.65 16L71.96 12.29L70.95 13.12L70.95 16L68.95 16L68.95 3.84ZM78.07 14.98L78.07 14.98Q78.07 14.30 78.42 14.02Q78.78 13.74 79.29 13.74L79.29 13.74Q79.78 13.74 80.15 14.02Q80.52 14.30 80.52 14.98L80.52 14.98Q80.52 15.63 80.15 15.92Q79.78 16.21 79.29 16.21L79.29 16.21Q78.78 16.21 78.42 15.92Q78.07 15.63 78.07 14.98ZM86.18 14.54L86.18 14.54Q86.55 14.54 86.91 14.47Q87.27 14.40 87.58 14.30L87.58 14.30L87.58 15.81Q87.26 15.95 86.74 16.06Q86.23 16.16 85.67 16.16L85.67 16.16Q84.94 16.16 84.33 15.91Q83.72 15.66 83.37 15.06Q83.02 14.45 83.02 13.36L83.02 13.36L83.02 8.85L81.85 8.85L81.85 7.97L83.13 7.26L83.77 5.42L85.03 5.42L85.03 7.33L87.50 7.33L87.50 8.85L85.03 8.85L85.03 13.34Q85.03 13.95 85.35 14.25Q85.67 14.54 86.18 14.54ZM93.86 7.17L93.86 7.17Q94.07 7.17 94.32 7.18Q94.57 7.20 94.74 7.25L94.74 7.25L94.57 9.12Q94.41 9.09 94.18 9.06Q93.96 9.04 93.78 9.04L93.78 9.04Q93.14 9.04 92.58 9.30Q92.02 9.57 91.68 10.12Q91.34 10.67 91.34 11.50L91.34 11.50L91.34 16L89.32 16L89.32 7.33L90.87 7.33L91.16 8.83L91.26 8.83Q91.64 8.14 92.31 7.66Q92.98 7.17 93.86 7.17ZM97.35 3.98L97.35 3.98Q97.82 3.98 98.14 4.22Q98.47 4.45 98.47 5.04L98.47 5.04Q98.47 5.63 98.14 5.87Q97.82 6.11 97.35 6.11L97.35 6.11Q96.89 6.11 96.56 5.87Q96.23 5.63 96.23 5.04L96.23 5.04Q96.23 4.45 96.56 4.22Q96.89 3.98 97.35 3.98ZM96.34 7.33L98.36 7.33L98.36 16L96.34 16L96.34 7.33ZM106.84 13.49L106.84 13.49Q106.84 14.80 105.90 15.48Q104.97 16.16 103.22 16.16L103.22 16.16Q102.31 16.16 101.66 16.03Q101.02 15.90 100.41 15.63L100.41 15.63L100.41 13.92Q101.05 14.22 101.82 14.43Q102.60 14.64 103.29 14.64L103.29 14.64Q104.12 14.64 104.49 14.38Q104.86 14.13 104.86 13.70L104.86 13.70Q104.86 13.44 104.71 13.24Q104.57 13.04 104.14 12.80Q103.72 12.56 102.89 12.21L102.89 12.21Q102.06 11.89 101.50 11.54Q100.95 11.20 100.67 10.74Q100.39 10.27 100.39 9.54L100.39 9.54Q100.39 8.37 101.31 7.77Q102.23 7.17 103.77 7.17L103.77 7.17Q104.57 7.17 105.28 7.33Q105.99 7.49 106.71 7.81L106.71 7.81L106.07 9.30Q105.46 9.04 104.89 8.86Q104.31 8.69 103.70 8.69L103.70 8.69Q102.38 8.69 102.38 9.44L102.38 9.44Q102.38 9.71 102.54 9.90Q102.71 10.10 103.14 10.31Q103.56 10.53 104.34 10.83L104.34 10.83Q105.11 11.14 105.67 11.46Q106.23 11.79 106.54 12.27Q106.84 12.75 106.84 13.49ZM112.14 14.54L112.14 14.54Q112.50 14.54 112.86 14.47Q113.22 14.40 113.53 14.30L113.53 14.30L113.53 15.81Q113.21 15.95 112.70 16.06Q112.18 16.16 111.62 16.16L111.62 16.16Q110.89 16.16 110.28 15.91Q109.67 15.66 109.32 15.06Q108.97 14.45 108.97 13.36L108.97 13.36L108.97 8.85L107.80 8.85L107.80 7.97L109.08 7.26L109.72 5.42L110.98 5.42L110.98 7.33L113.45 7.33L113.45 8.85L110.98 8.85L110.98 13.34Q110.98 13.95 111.30 14.25Q111.62 14.54 112.14 14.54ZM118.73 7.17L118.73 7.17Q120.41 7.17 121.28 7.90Q122.15 8.64 122.15 10.18L122.15 10.18L122.15 16L120.73 16L120.33 14.80L120.26 14.80Q119.70 15.50 119.08 15.83Q118.46 16.16 117.38 16.16L117.38 16.16Q116.22 16.16 115.45 15.50Q114.68 14.85 114.68 13.47L114.68 13.47Q114.68 12.13 115.66 11.46Q116.65 10.78 118.65 10.70L118.65 10.70L120.15 10.66L120.15 10.22Q120.15 9.41 119.75 9.05Q119.35 8.69 118.63 8.69L118.63 8.69Q117.98 8.69 117.38 8.88Q116.78 9.07 116.18 9.33L116.18 9.33L115.54 7.92Q116.18 7.58 117.01 7.38Q117.83 7.17 118.73 7.17ZM120.15 12.64L120.15 11.90L119.10 11.94Q117.77 11.98 117.26 12.39Q116.74 12.80 116.74 13.49L116.74 13.49Q116.74 14.11 117.10 14.38Q117.46 14.64 118.06 14.64L118.06 14.64Q118.94 14.64 119.54 14.14Q120.15 13.63 120.15 12.64L120.15 12.64ZM128.04 14.54L128.04 14.54Q128.41 14.54 128.77 14.47Q129.13 14.40 129.43 14.30L129.43 14.30L129.43 15.81Q129.11 15.95 128.60 16.06Q128.09 16.16 127.53 16.16L127.53 16.16Q126.79 16.16 126.18 15.91Q125.58 15.66 125.22 15.06Q124.87 14.45 124.87 13.36L124.87 13.36L124.87 8.85L123.70 8.85L123.70 7.97L124.98 7.26L125.62 5.42L126.89 5.42L126.89 7.33L129.35 7.33L129.35 8.85L126.89 8.85L126.89 13.34Q126.89 13.95 127.21 14.25Q127.53 14.54 128.04 14.54ZM134.66 7.17L134.66 7.17Q136.41 7.17 137.42 8.21Q138.44 9.25 138.44 11.10L138.44 11.10L138.44 12.13L132.71 12.13Q132.74 13.31 133.37 13.96Q133.99 14.61 135.10 14.61L135.10 14.61Q135.93 14.61 136.60 14.44Q137.27 14.27 137.98 13.95L137.98 13.95L137.98 15.57Q137.34 15.87 136.65 16.02Q135.96 16.16 135.00 16.16L135.00 16.16Q133.74 16.16 132.75 15.67Q131.77 15.18 131.22 14.19Q130.66 13.20 130.66 11.73L130.66 11.73Q130.66 9.50 131.77 8.34Q132.87 7.17 134.66 7.17ZM134.66 8.66L134.66 8.66Q133.85 8.66 133.34 9.18Q132.84 9.70 132.76 10.72L132.76 10.72L136.49 10.72Q136.47 9.82 136.03 9.24Q135.59 8.66 134.66 8.66ZM145.98 17.44L145.98 18.50L139.14 18.50L139.14 17.44L145.98 17.44ZM150.60 14.54L150.60 14.54Q150.97 14.54 151.33 14.47Q151.69 14.40 151.99 14.30L151.99 14.30L151.99 15.81Q151.67 15.95 151.16 16.06Q150.65 16.16 150.09 16.16L150.09 16.16Q149.35 16.16 148.74 15.91Q148.14 15.66 147.78 15.06Q147.43 14.45 147.43 13.36L147.43 13.36L147.43 8.85L146.26 8.85L146.26 7.97L147.54 7.26L148.18 5.42L149.45 5.42L149.45 7.33L151.91 7.33L151.91 8.85L149.45 8.85L149.45 13.34Q149.45 13.95 149.77 14.25Q150.09 14.54 150.60 14.54ZM153.74 3.84L155.75 3.84L155.75 6.72Q155.75 7.23 155.72 7.71Q155.69 8.19 155.66 8.46L155.66 8.46L155.75 8.46Q156.10 7.92 156.71 7.54Q157.32 7.17 158.30 7.17L158.30 7.17Q159.80 7.17 160.74 8.30Q161.67 9.44 161.67 11.65L161.67 11.65Q161.67 13.89 160.73 15.02Q159.78 16.16 158.25 16.16L158.25 16.16Q157.27 16.16 156.69 15.81Q156.10 15.46 155.75 14.99L155.75 14.99L155.61 14.99L155.24 16L153.74 16L153.74 3.84ZM157.72 8.80L157.72 8.80Q156.63 8.80 156.20 9.46Q155.77 10.11 155.75 11.47L155.75 11.47L155.75 11.65Q155.75 13.04 156.18 13.78Q156.60 14.51 157.75 14.51L157.75 14.51Q158.65 14.51 159.13 13.77Q159.61 13.02 159.61 11.63L159.61 11.63Q159.61 10.21 159.12 9.50Q158.63 8.80 157.72 8.80ZM163.10 11.62L163.10 11.62Q163.10 9.66 163.66 7.85Q164.23 6.03 165.45 4.58L165.45 4.58L167.16 4.58Q166.06 6.08 165.50 7.89Q164.94 9.70 164.94 11.60L164.94 11.60Q164.94 13.46 165.50 15.25Q166.06 17.04 167.14 18.53L167.14 18.53L165.45 18.53Q164.23 17.12 163.66 15.34Q163.10 13.55 163.10 11.62ZM169.13 4.58L172.38 4.58Q174.63 4.58 175.71 5.41Q176.79 6.24 176.79 7.94L176.79 7.94Q176.79 8.77 176.48 9.36Q176.17 9.95 175.67 10.34Q175.18 10.74 174.60 10.98L174.60 10.98L177.88 16L175.58 16L172.84 11.49L171.18 11.49L171.18 16L169.13 16L169.13 4.58ZM172.25 6.29L172.25 6.29L171.18 6.29L171.18 9.81L172.31 9.81Q173.58 9.81 174.14 9.35Q174.71 8.90 174.71 8L174.71 8Q174.71 7.07 174.11 6.68Q173.51 6.29 172.25 6.29ZM183.56 6.30L183.56 16L181.51 16L181.51 6.30L178.23 6.30L178.23 4.58L186.84 4.58L186.84 6.30L183.56 6.30ZM195.40 16L188.58 16L188.58 4.58L190.63 4.58L190.63 14.27L195.40 14.27L195.40 16ZM200.44 11.62L200.44 11.62Q200.44 13.55 199.87 15.34Q199.30 17.12 198.09 18.53L198.09 18.53L196.39 18.53Q197.48 17.04 198.05 15.25Q198.62 13.46 198.62 11.60L198.62 11.60Q198.62 9.70 198.05 7.89Q197.48 6.08 196.38 4.58L196.38 4.58L198.09 4.58Q199.30 6.03 199.87 7.85Q200.44 9.66 200.44 11.62Z" class="sprotty-block-name" style="fill:rgb(48, 48, 48);stroke:rgba(0, 0, 0, 0);"/><line x1="0" y1="20" x2="238.6092529296875" y2="20"/></g><g id="sprotty_ArchitectureBlockImpl$work.tristate_tb(RTL)/ProcessBlockImpl$stimulus/GPortImpl$a_to_ArchitectureBlockImpl$work.tristate_tb(RTL)/InstantiationBlockImpl$DUT/BPortImpl$a" class="sprotty-edge thick edge" style="fill:none;stroke:rgb(112, 112, 112);stroke-linejoin:round;stroke-width:3px;"><path d="M 92.3280029296875 72.69075012207031 L 112.3280029296875 72.69075012207031 "/></g><g id="sprotty_ArchitectureBlockImpl$work.tristate_tb(RTL)/ProcessBlockImpl$stimulus/GPortImpl$en_to_ArchitectureBlockImpl$work.tristate_tb(RTL)/InstantiationBlockImpl$DUT/BPortImpl$en" class="sprotty-edge edge" style="fill:none;stroke:rgb(112, 112, 112);stroke-linejoin:round;"><path d="M 92.3280029296875 82.69075012207031 L 100.3280029296875 82.69075012207031 C 101.3280029296875 82.69075012207031 102.3280029296875 83.69075012207031 102.3280029296875 84.69075012207031 L 102.3280029296875 92.07890033721924 C 102.3280029296875 93.07890033721924 103.3280029296875 94.07890033721924 104.3280029296875 94.07890033721924 L 112.3280029296875 94.07890033721924 "/></g><g id="sprotty_ArchitectureBlockImpl$work.tristate_tb(RTL)/ProcessBlockImpl$stimulus" transform="translate(15, 62.69075012207031)" class="statement"><rect x="0" y="0" rx="10" ry="5" width="77.3280029296875" height="30" class="sprotty-node" style="fill:rgb(245, 245, 245);stroke:rgb(112, 112, 112);"/><g id="sprotty_ArchitectureBlockImpl$work.tristate_tb(RTL)/ProcessBlockImpl$stimulus/label" transform="translate(5, 8.83984375) translate(0, -0.15984344482421875)" class="sprotty-label process" style="cursor:default;fill:rgb(48, 48, 48);font-family:Arial, Helvetica, sans-serif;text-anchor:middle;"><path d="M7.20-2.51L7.20-2.51Q7.20-1.20 6.26-0.52Q5.33 0.16 3.58 0.16L3.58 0.16Q2.67 0.16 2.02 0.03Q1.38-0.10 0.77-0.37L0.77-0.37L0.77-2.08Q1.41-1.78 2.18-1.57Q2.96-1.36 3.65-1.36L3.65-1.36Q4.48-1.36 4.85-1.62Q5.22-1.87 5.22-2.30L5.22-2.30Q5.22-2.56 5.07-2.76Q4.93-2.96 4.50-3.20Q4.08-3.44 3.25-3.79L3.25-3.79Q2.42-4.11 1.86-4.46Q1.31-4.80 1.03-5.26Q0.75-5.73 0.75-6.46L0.75-6.46Q0.75-7.63 1.67-8.23Q2.59-8.83 4.13-8.83L4.13-8.83Q4.93-8.83 5.64-8.67Q6.35-8.51 7.07-8.19L7.07-8.19L6.43-6.70Q5.82-6.96 5.25-7.14Q4.67-7.31 4.06-7.31L4.06-7.31Q2.74-7.31 2.74-6.56L2.74-6.56Q2.74-6.29 2.90-6.10Q3.07-5.90 3.50-5.69Q3.92-5.47 4.70-5.17L4.70-5.17Q5.47-4.86 6.03-4.54Q6.59-4.21 6.90-3.73Q7.20-3.25 7.20-2.51ZM12.50-1.46L12.50-1.46Q12.86-1.46 13.22-1.53Q13.58-1.60 13.89-1.70L13.89-1.70L13.89-0.19Q13.57-0.05 13.06 0.06Q12.54 0.16 11.98 0.16L11.98 0.16Q11.25 0.16 10.64-0.09Q10.03-0.34 9.68-0.94Q9.33-1.55 9.33-2.64L9.33-2.64L9.33-7.15L8.16-7.15L8.16-8.03L9.44-8.74L10.08-10.58L11.34-10.58L11.34-8.67L13.81-8.67L13.81-7.15L11.34-7.15L11.34-2.66Q11.34-2.05 11.66-1.75Q11.98-1.46 12.50-1.46ZM16.64-12.02L16.64-12.02Q17.10-12.02 17.43-11.78Q17.76-11.55 17.76-10.96L17.76-10.96Q17.76-10.37 17.43-10.13Q17.10-9.89 16.64-9.89L16.64-9.89Q16.18-9.89 15.85-10.13Q15.52-10.37 15.52-10.96L15.52-10.96Q15.52-11.55 15.85-11.78Q16.18-12.02 16.64-12.02ZM15.63-8.67L17.65-8.67L17.65 0L15.63 0L15.63-8.67ZM30.16-8.83L30.16-8.83Q31.63-8.83 32.38-8.08Q33.12-7.33 33.12-5.65L33.12-5.65L33.12 0L31.10 0L31.10-5.26Q31.10-7.20 29.63-7.20L29.63-7.20Q28.58-7.20 28.13-6.51Q27.68-5.82 27.68-4.51L27.68-4.51L27.68 0L25.66 0L25.66-5.26Q25.66-7.20 24.18-7.20L24.18-7.20Q23.07-7.20 22.66-6.43Q22.24-5.66 22.24-4.24L22.24-4.24L22.24 0L20.22 0L20.22-8.67L21.78-8.67L22.06-7.54L22.18-7.54Q22.56-8.21 23.26-8.52Q23.95-8.83 24.70-8.83L24.70-8.83Q25.68-8.83 26.34-8.50Q27.01-8.18 27.36-7.49L27.36-7.49L27.52-7.49Q27.92-8.19 28.64-8.51Q29.36-8.83 30.16-8.83ZM41.33-8.67L43.34-8.67L43.34 0L41.76 0L41.49-1.12L41.39-1.12Q40.96-0.45 40.23-0.14Q39.50 0.16 38.69 0.16L38.69 0.16Q37.23 0.16 36.41-0.59Q35.58-1.34 35.58-3.01L35.58-3.01L35.58-8.67L37.60-8.67L37.60-3.41Q37.60-1.47 39.20-1.47L39.20-1.47Q40.42-1.47 40.87-2.23Q41.33-2.99 41.33-4.43L41.33-4.43L41.33-8.67ZM47.94-12.16L47.94 0L45.92 0L45.92-12.16L47.94-12.16ZM56.19-8.67L58.21-8.67L58.21 0L56.62 0L56.35-1.12L56.26-1.12Q55.82-0.45 55.10-0.14Q54.37 0.16 53.55 0.16L53.55 0.16Q52.10 0.16 51.27-0.59Q50.45-1.34 50.45-3.01L50.45-3.01L50.45-8.67L52.46-8.67L52.46-3.41Q52.46-1.47 54.06-1.47L54.06-1.47Q55.28-1.47 55.74-2.23Q56.19-2.99 56.19-4.43L56.19-4.43L56.19-8.67ZM66.69-2.51L66.69-2.51Q66.69-1.20 65.75-0.52Q64.82 0.16 63.07 0.16L63.07 0.16Q62.16 0.16 61.51 0.03Q60.86-0.10 60.26-0.37L60.26-0.37L60.26-2.08Q60.90-1.78 61.67-1.57Q62.45-1.36 63.14-1.36L63.14-1.36Q63.97-1.36 64.34-1.62Q64.70-1.87 64.70-2.30L64.70-2.30Q64.70-2.56 64.56-2.76Q64.42-2.96 63.99-3.20Q63.57-3.44 62.74-3.79L62.74-3.79Q61.90-4.11 61.35-4.46Q60.80-4.80 60.52-5.26Q60.24-5.73 60.24-6.46L60.24-6.46Q60.24-7.63 61.16-8.23Q62.08-8.83 63.62-8.83L63.62-8.83Q64.42-8.83 65.13-8.67Q65.84-8.51 66.56-8.19L66.56-8.19L65.92-6.70Q65.31-6.96 64.74-7.14Q64.16-7.31 63.55-7.31L63.55-7.31Q62.22-7.31 62.22-6.56L62.22-6.56Q62.22-6.29 62.39-6.10Q62.56-5.90 62.98-5.69Q63.41-5.47 64.19-5.17L64.19-5.17Q64.96-4.86 65.52-4.54Q66.08-4.21 66.38-3.73Q66.69-3.25 66.69-2.51Z" transform="translate(0, 12.32)"/><rect x="0" y="0.16" width="67.328" height="12.32" class="clickable" style="cursor:pointer;fill:rgba(0, 0, 0, 0);fill-opacity:0;stroke-width:0px;"/></g><g id="sprotty_ArchitectureBlockImpl$work.tristate_tb(RTL)/ProcessBlockImpl$stimulus/GPortImpl$a" transform="translate(77.3280029296875, 10)" class="sprotty-hidden hidden" style="display:block;height:0px;width:0px;"/><g id="sprotty_ArchitectureBlockImpl$work.tristate_tb(RTL)/ProcessBlockImpl$stimulus/GPortImpl$en" transform="translate(77.3280029296875, 20)" class="sprotty-hidden hidden" style="display:block;height:0px;width:0px;"/></g><g id="sprotty_ArchitectureBlockImpl$work.tristate_tb(RTL)/InstantiationBlockImpl$DUT" transform="translate(112.3280029296875, 35)" class="instantiation"><g class="sprotty-block" style="fill:rgb(245, 245, 245);stroke:rgb(48, 48, 48);stroke-dasharray:0px;"><rect x="0" y="0" rx="1" ry="1" width="111.28125" height="76.77630043029785"/><path d="M14.83 10.18L14.83 10.18Q14.83 13.07 13.22 14.54Q11.60 16 8.70 16L8.70 16L5.49 16L5.49 4.58L9.04 4.58Q10.80 4.58 12.10 5.22Q13.41 5.86 14.12 7.10Q14.83 8.34 14.83 10.18ZM12.69 10.24L12.69 10.24Q12.69 8.19 11.75 7.23Q10.82 6.27 9.04 6.27L9.04 6.27L7.54 6.27L7.54 14.29L8.77 14.29Q12.69 14.29 12.69 10.24ZM24.29 4.58L26.32 4.58L26.32 11.97Q26.32 13.15 25.82 14.10Q25.31 15.06 24.29 15.61Q23.26 16.16 21.70 16.16L21.70 16.16Q19.47 16.16 18.32 15Q17.17 13.84 17.17 11.94L17.17 11.94L17.17 4.58L19.22 4.58L19.22 11.73Q19.22 13.14 19.86 13.78Q20.50 14.42 21.76 14.42L21.76 14.42Q23.09 14.42 23.69 13.72Q24.29 13.02 24.29 11.71L24.29 11.71L24.29 4.58ZM33.31 6.30L33.31 16L31.26 16L31.26 6.30L27.98 6.30L27.98 4.58L36.59 4.58L36.59 6.30L33.31 6.30ZM42.02 8.38L42.02 8.38Q42.02 7.70 42.37 7.42Q42.72 7.14 43.23 7.14L43.23 7.14Q43.73 7.14 44.10 7.42Q44.46 7.70 44.46 8.38L44.46 8.38Q44.46 9.04 44.10 9.33Q43.73 9.62 43.23 9.62L43.23 9.62Q42.72 9.62 42.37 9.33Q42.02 9.04 42.02 8.38ZM42.02 14.98L42.02 14.98Q42.02 14.30 42.37 14.02Q42.72 13.74 43.23 13.74L43.23 13.74Q43.73 13.74 44.10 14.02Q44.46 14.30 44.46 14.98L44.46 14.98Q44.46 15.63 44.10 15.92Q43.73 16.21 43.23 16.21L43.23 16.21Q42.72 16.21 42.37 15.92Q42.02 15.63 42.02 14.98ZM54.29 14.54L54.29 14.54Q54.66 14.54 55.02 14.47Q55.38 14.40 55.68 14.30L55.68 14.30L55.68 15.81Q55.36 15.95 54.85 16.06Q54.34 16.16 53.78 16.16L53.78 16.16Q53.04 16.16 52.43 15.91Q51.82 15.66 51.47 15.06Q51.12 14.45 51.12 13.36L51.12 13.36L51.12 8.85L49.95 8.85L49.95 7.97L51.23 7.26L51.87 5.42L53.14 5.42L53.14 7.33L55.60 7.33L55.60 8.85L53.14 8.85L53.14 13.34Q53.14 13.95 53.46 14.25Q53.78 14.54 54.29 14.54ZM61.97 7.17L61.97 7.17Q62.18 7.17 62.42 7.18Q62.67 7.20 62.85 7.25L62.85 7.25L62.67 9.12Q62.51 9.09 62.29 9.06Q62.06 9.04 61.89 9.04L61.89 9.04Q61.25 9.04 60.69 9.30Q60.13 9.57 59.78 10.12Q59.44 10.67 59.44 11.50L59.44 11.50L59.44 16L57.42 16L57.42 7.33L58.98 7.33L59.26 8.83L59.36 8.83Q59.74 8.14 60.42 7.66Q61.09 7.17 61.97 7.17ZM65.46 3.98L65.46 3.98Q65.92 3.98 66.25 4.22Q66.58 4.45 66.58 5.04L66.58 5.04Q66.58 5.63 66.25 5.87Q65.92 6.11 65.46 6.11L65.46 6.11Q64.99 6.11 64.66 5.87Q64.34 5.63 64.34 5.04L64.34 5.04Q64.34 4.45 64.66 4.22Q64.99 3.98 65.46 3.98ZM64.45 7.33L66.46 7.33L66.46 16L64.45 16L64.45 7.33ZM74.94 13.49L74.94 13.49Q74.94 14.80 74.01 15.48Q73.07 16.16 71.33 16.16L71.33 16.16Q70.42 16.16 69.77 16.03Q69.12 15.90 68.51 15.63L68.51 15.63L68.51 13.92Q69.15 14.22 69.93 14.43Q70.70 14.64 71.39 14.64L71.39 14.64Q72.22 14.64 72.59 14.38Q72.96 14.13 72.96 13.70L72.96 13.70Q72.96 13.44 72.82 13.24Q72.67 13.04 72.25 12.80Q71.82 12.56 70.99 12.21L70.99 12.21Q70.16 11.89 69.61 11.54Q69.06 11.20 68.78 10.74Q68.50 10.27 68.50 9.54L68.50 9.54Q68.50 8.37 69.42 7.77Q70.34 7.17 71.87 7.17L71.87 7.17Q72.67 7.17 73.38 7.33Q74.10 7.49 74.82 7.81L74.82 7.81L74.18 9.30Q73.57 9.04 72.99 8.86Q72.42 8.69 71.81 8.69L71.81 8.69Q70.48 8.69 70.48 9.44L70.48 9.44Q70.48 9.71 70.65 9.90Q70.82 10.10 71.24 10.31Q71.66 10.53 72.45 10.83L72.45 10.83Q73.22 11.14 73.78 11.46Q74.34 11.79 74.64 12.27Q74.94 12.75 74.94 13.49ZM80.24 14.54L80.24 14.54Q80.61 14.54 80.97 14.47Q81.33 14.40 81.63 14.30L81.63 14.30L81.63 15.81Q81.31 15.95 80.80 16.06Q80.29 16.16 79.73 16.16L79.73 16.16Q78.99 16.16 78.38 15.91Q77.78 15.66 77.42 15.06Q77.07 14.45 77.07 13.36L77.07 13.36L77.07 8.85L75.90 8.85L75.90 7.97L77.18 7.26L77.82 5.42L79.09 5.42L79.09 7.33L81.55 7.33L81.55 8.85L79.09 8.85L79.09 13.34Q79.09 13.95 79.41 14.25Q79.73 14.54 80.24 14.54ZM86.83 7.17L86.83 7.17Q88.51 7.17 89.38 7.90Q90.26 8.64 90.26 10.18L90.26 10.18L90.26 16L88.83 16L88.43 14.80L88.37 14.80Q87.81 15.50 87.18 15.83Q86.56 16.16 85.49 16.16L85.49 16.16Q84.32 16.16 83.55 15.50Q82.78 14.85 82.78 13.47L82.78 13.47Q82.78 12.13 83.77 11.46Q84.75 10.78 86.75 10.70L86.75 10.70L88.26 10.66L88.26 10.22Q88.26 9.41 87.86 9.05Q87.46 8.69 86.74 8.69L86.74 8.69Q86.08 8.69 85.48 8.88Q84.88 9.07 84.29 9.33L84.29 9.33L83.65 7.92Q84.29 7.58 85.11 7.38Q85.94 7.17 86.83 7.17ZM88.26 12.64L88.26 11.90L87.20 11.94Q85.87 11.98 85.36 12.39Q84.85 12.80 84.85 13.49L84.85 13.49Q84.85 14.11 85.21 14.38Q85.57 14.64 86.16 14.64L86.16 14.64Q87.04 14.64 87.65 14.14Q88.26 13.63 88.26 12.64L88.26 12.64ZM96.14 14.54L96.14 14.54Q96.51 14.54 96.87 14.47Q97.23 14.40 97.54 14.30L97.54 14.30L97.54 15.81Q97.22 15.95 96.70 16.06Q96.19 16.16 95.63 16.16L95.63 16.16Q94.90 16.16 94.29 15.91Q93.68 15.66 93.33 15.06Q92.98 14.45 92.98 13.36L92.98 13.36L92.98 8.85L91.81 8.85L91.81 7.97L93.09 7.26L93.73 5.42L94.99 5.42L94.99 7.33L97.46 7.33L97.46 8.85L94.99 8.85L94.99 13.34Q94.99 13.95 95.31 14.25Q95.63 14.54 96.14 14.54ZM102.77 7.17L102.77 7.17Q104.51 7.17 105.53 8.21Q106.54 9.25 106.54 11.10L106.54 11.10L106.54 12.13L100.82 12.13Q100.85 13.31 101.47 13.96Q102.10 14.61 103.20 14.61L103.20 14.61Q104.03 14.61 104.70 14.44Q105.38 14.27 106.08 13.95L106.08 13.95L106.08 15.57Q105.44 15.87 104.75 16.02Q104.06 16.16 103.10 16.16L103.10 16.16Q101.84 16.16 100.86 15.67Q99.87 15.18 99.32 14.19Q98.77 13.20 98.77 11.73L98.77 11.73Q98.77 9.50 99.87 8.34Q100.98 7.17 102.77 7.17ZM102.77 8.66L102.77 8.66Q101.95 8.66 101.45 9.18Q100.94 9.70 100.86 10.72L100.86 10.72L104.59 10.72Q104.58 9.82 104.14 9.24Q103.70 8.66 102.77 8.66Z" class="sprotty-block-name" style="fill:rgb(48, 48, 48);stroke:rgba(0, 0, 0, 0);"/><line x1="0" y1="20" x2="111.28125" y2="20"/></g><g id="sprotty_ArchitectureBlockImpl$work.tristate_tb(RTL)/InstantiationBlockImpl$DUT/BPortImpl$en" transform="translate(0, 59.07890033721924)" class="triangle"><path d="M 0,0 L 5,2.5 L 0,5 Z" transform="translate(-1.67, -2.5)" class="sprotty-port" style="fill:rgb(48, 48, 48);stroke:rgb(48, 48, 48);"/><g class="port sprotty-label" id="sprotty_ArchitectureBlockImpl$work.tristate_tb(RTL)/InstantiationBlockImpl$DUT/BPortImpl$en/label" transform="translate(3, -5.697400093078613) translate(0, -0.13300000131130219)" style="cursor:default;fill:rgb(48, 48, 48);font-family:Arial, Helvetica, sans-serif;text-anchor:middle;"><path d="M4.16 0.13L4.16 0.13Q3.15 0.13 2.37-0.28Q1.60-0.69 1.16-1.51Q0.73-2.33 0.73-3.51L0.73-3.51Q0.73-4.68 1.12-5.52Q1.52-6.36 2.23-6.81Q2.94-7.26 3.88-7.26L3.88-7.26Q4.80-7.26 5.46-6.86Q6.12-6.46 6.47-5.74Q6.82-5.01 6.82-4.04L6.82-4.04L6.82-3.34L1.94-3.34Q1.97-2.13 2.56-1.50Q3.15-0.86 4.22-0.86L4.22-0.86Q4.89-0.86 5.42-0.99Q5.95-1.12 6.50-1.36L6.50-1.36L6.50-0.33Q5.96-0.09 5.43 0.02Q4.89 0.13 4.16 0.13ZM1.97-4.27L1.97-4.27L5.60-4.27Q5.60-5.17 5.18-5.74Q4.76-6.30 3.87-6.30L3.87-6.30Q3.03-6.30 2.55-5.77Q2.06-5.23 1.97-4.27ZM9.80 0L8.63 0L8.63-7.13L9.58-7.13L9.75-6.16L9.82-6.16Q10.16-6.72 10.77-6.99Q11.38-7.26 12.06-7.26L12.06-7.26Q13.34-7.26 13.99-6.64Q14.64-6.02 14.64-4.64L14.64-4.64L14.64 0L13.49 0L13.49-4.56Q13.49-6.28 11.89-6.28L11.89-6.28Q10.71-6.28 10.25-5.61Q9.80-4.95 9.80-3.70L9.80-3.70L9.80 0Z" transform="translate(4, 9.3948)"/><rect x="0" y="0.133" width="23.7206" height="11.3948" class="clickable" style="cursor:pointer;fill:rgba(0, 0, 0, 0);fill-opacity:0;stroke-width:0px;"/></g></g><g id="sprotty_ArchitectureBlockImpl$work.tristate_tb(RTL)/InstantiationBlockImpl$DUT/BPortImpl$a" transform="translate(0, 37.69075012207031)" class="triangle"><path d="M 0,0 L 5,2.5 L 0,5 Z" transform="translate(-1.67, -2.5)" class="sprotty-port" style="fill:rgb(48, 48, 48);stroke:rgb(48, 48, 48);"/><g class="port sprotty-label" id="sprotty_ArchitectureBlockImpl$work.tristate_tb(RTL)/InstantiationBlockImpl$DUT/BPortImpl$a/label" transform="translate(3, -5.6907501220703125) translate(0, -0.13300000131130219)" style="cursor:default;fill:rgb(48, 48, 48);font-family:Arial, Helvetica, sans-serif;text-anchor:middle;"><path d="M2.86 0.13L2.86 0.13Q1.89 0.13 1.25-0.38Q0.61-0.89 0.61-1.98L0.61-1.98Q0.61-3.05 1.45-3.62Q2.29-4.20 4.03-4.26L4.03-4.26L5.24-4.30L5.24-4.72Q5.24-5.61 4.85-5.96Q4.47-6.30 3.76-6.30L3.76-6.30Q3.21-6.30 2.70-6.14Q2.19-5.97 1.76-5.76L1.76-5.76L1.40-6.64Q1.86-6.89 2.50-7.07Q3.14-7.25 3.83-7.25L3.83-7.25Q5.13-7.25 5.76-6.68Q6.38-6.10 6.38-4.85L6.38-4.85L6.38 0L5.53 0L5.31-1.01L5.25-1.01Q4.79-0.43 4.28-0.15Q3.76 0.13 2.86 0.13ZM3.13-0.81L3.13-0.81Q4.03-0.81 4.63-1.31Q5.23-1.81 5.23-2.85L5.23-2.85L5.23-3.48L4.18-3.44Q2.85-3.39 2.33-3.02Q1.82-2.65 1.82-1.97L1.82-1.97Q1.82-1.37 2.19-1.09Q2.55-0.81 3.13-0.81Z" transform="translate(4, 9.3815)"/><rect x="0" y="0.133" width="15.461300000000001" height="11.3815" class="clickable" style="cursor:pointer;fill:rgba(0, 0, 0, 0);fill-opacity:0;stroke-width:0px;"/></g></g><g id="sprotty_ArchitectureBlockImpl$work.tristate_tb(RTL)/InstantiationBlockImpl$DUT/BPortImpl$y" transform="translate(111.28125, 48.388150215148926)" class="triangle"><path d="M 0,0 L 5,2.5 L 0,5 Z" transform="translate(-1.67, -2.5)" class="sprotty-port" style="fill:rgb(48, 48, 48);stroke:rgb(48, 48, 48);"/><g class="port sprotty-label" id="sprotty_ArchitectureBlockImpl$work.tristate_tb(RTL)/InstantiationBlockImpl$DUT/BPortImpl$y/label" transform="translate(-17.782999992370605, -7.160400390625) translate(0, -3.191999912261963)" style="cursor:default;fill:rgb(48, 48, 48);font-family:Arial, Helvetica, sans-serif;text-anchor:middle;"><path d="M1.12 3.19L1.12 3.19Q0.80 3.19 0.56 3.16Q0.32 3.13 0.15 3.09L0.15 3.09L0.15 2.15Q0.29 2.18 0.50 2.21Q0.70 2.23 0.93 2.23L0.93 2.23Q1.54 2.23 1.92 1.89Q2.29 1.54 2.51 0.97L2.51 0.97L2.89 0.03L0.01-7.13L1.26-7.13L2.81-3.07Q3.01-2.54 3.17-2.05Q3.33-1.57 3.40-1.13L3.40-1.13L3.46-1.13Q3.54-1.46 3.70-2.00Q3.87-2.54 4.07-3.09L4.07-3.09L5.52-7.13L6.78-7.13L3.71 0.98Q3.34 2.00 2.75 2.59Q2.15 3.19 1.12 3.19Z" transform="translate(4, 12.320800000000002)"/><rect x="0" y="3.192" width="14.783000000000001" height="14.320800000000002" class="clickable" style="cursor:pointer;fill:rgba(0, 0, 0, 0);fill-opacity:0;stroke-width:0px;"/></g></g></g></g></g></svg>