<svg xmlns="http://www.w3.org/2000/svg" id="sprotty_mux2" class="sprotty-graph sprotty-block-diagram blockdiagram" style="font-family:&quot;Helvetica Neue&quot;, Helvetica, Arial, sans-serif;line-height:18px;perspective-origin:0px 0px;transform-origin:0px 0px;z-index:0;" version="1.1" viewBox="9.5 12 329.5563488769531 187.16445064544678"><g transform="scale(1) translate(0,0)"><g id="sprotty_ArchitectureBlockImpl$work.mux2(struct)" transform="translate(12, 12)" class="architecture"><g class="sprotty-block" style="fill:rgb(245, 245, 245);stroke:rgb(48, 48, 48);stroke-dasharray:0px;"><rect x="0" y="0" rx="1" ry="1" width="322.7263488769531" height="187.16445064544678"/><path d="M99.84 16L97.60 16L96.64 12.27Q96.56 11.97 96.45 11.51Q96.34 11.06 96.22 10.56Q96.10 10.06 96.00 9.65Q95.91 9.23 95.86 9.01L95.86 9.01L95.80 9.01Q95.75 9.23 95.65 9.65Q95.56 10.06 95.44 10.57Q95.33 11.07 95.21 11.53Q95.09 11.98 95.01 12.29L95.01 12.29L94.00 16L91.80 16L89.36 7.31L91.40 7.31L92.47 11.46Q92.58 11.89 92.68 12.41Q92.79 12.93 92.86 13.42Q92.93 13.90 92.98 14.21L92.98 14.21L93.04 14.21Q93.08 13.92 93.16 13.42Q93.25 12.93 93.35 12.46Q93.44 11.98 93.51 11.74L93.51 11.74L94.76 7.31L96.96 7.31L98.16 11.74Q98.23 12.03 98.33 12.50Q98.44 12.96 98.52 13.43Q98.60 13.90 98.61 14.19L98.61 14.19L98.68 14.19Q98.71 13.94 98.79 13.46Q98.87 12.98 98.98 12.43Q99.09 11.89 99.22 11.46L99.22 11.46L100.31 7.31L102.31 7.31L99.84 16ZM111.52 11.65L111.52 11.65Q111.52 13.81 110.40 14.98Q109.28 16.16 107.36 16.16L107.36 16.16Q106.18 16.16 105.25 15.63Q104.32 15.10 103.80 14.10Q103.27 13.09 103.27 11.65L103.27 11.65Q103.27 9.49 104.38 8.33Q105.49 7.17 107.41 7.17L107.41 7.17Q108.61 7.17 109.54 7.69Q110.47 8.21 111.00 9.21Q111.52 10.21 111.52 11.65ZM105.33 11.65L105.33 11.65Q105.33 13.02 105.82 13.78Q106.31 14.53 107.40 14.53L107.40 14.53Q108.48 14.53 108.97 13.78Q109.46 13.02 109.46 11.65L109.46 11.65Q109.46 10.27 108.97 9.54Q108.48 8.80 107.38 8.80L107.38 8.80Q106.31 8.80 105.82 9.54Q105.33 10.27 105.33 11.65ZM118.15 7.17L118.15 7.17Q118.36 7.17 118.60 7.18Q118.85 7.20 119.03 7.25L119.03 7.25L118.85 9.12Q118.69 9.09 118.47 9.06Q118.24 9.04 118.07 9.04L118.07 9.04Q117.43 9.04 116.87 9.30Q116.31 9.57 115.96 10.12Q115.62 10.67 115.62 11.50L115.62 11.50L115.62 16L113.60 16L113.60 7.33L115.16 7.33L115.44 8.83L115.54 8.83Q115.92 8.14 116.60 7.66Q117.27 7.17 118.15 7.17ZM120.63 3.84L122.63 3.84L122.63 9.62Q122.63 10.03 122.60 10.50Q122.56 10.96 122.53 11.38L122.53 11.38L122.58 11.38Q122.77 11.09 123.06 10.72Q123.35 10.35 123.60 10.06L123.60 10.06L126.16 7.33L128.45 7.33L124.98 11.07L128.68 16L126.32 16L123.64 12.29L122.63 13.12L122.63 16L120.63 16L120.63 3.84ZM129.75 14.98L129.75 14.98Q129.75 14.30 130.10 14.02Q130.45 13.74 130.96 13.74L130.96 13.74Q131.46 13.74 131.83 14.02Q132.20 14.30 132.20 14.98L132.20 14.98Q132.20 15.63 131.83 15.92Q131.46 16.21 130.96 16.21L130.96 16.21Q130.45 16.21 130.10 15.92Q129.75 15.63 129.75 14.98ZM144.44 7.17L144.44 7.17Q145.91 7.17 146.65 7.92Q147.40 8.67 147.40 10.35L147.40 10.35L147.40 16L145.38 16L145.38 10.74Q145.38 8.80 143.91 8.80L143.91 8.80Q142.85 8.80 142.40 9.49Q141.96 10.18 141.96 11.49L141.96 11.49L141.96 16L139.94 16L139.94 10.74Q139.94 8.80 138.45 8.80L138.45 8.80Q137.35 8.80 136.93 9.57Q136.52 10.34 136.52 11.76L136.52 11.76L136.52 16L134.50 16L134.50 7.33L136.05 7.33L136.34 8.46L136.45 8.46Q136.84 7.79 137.53 7.48Q138.23 7.17 138.98 7.17L138.98 7.17Q139.96 7.17 140.62 7.50Q141.28 7.82 141.64 8.51L141.64 8.51L141.80 8.51Q142.20 7.81 142.92 7.49Q143.64 7.17 144.44 7.17ZM155.60 7.33L157.62 7.33L157.62 16L156.04 16L155.76 14.88L155.67 14.88Q155.24 15.55 154.51 15.86Q153.78 16.16 152.96 16.16L152.96 16.16Q151.51 16.16 150.68 15.41Q149.86 14.66 149.86 12.99L149.86 12.99L149.86 7.33L151.88 7.33L151.88 12.59Q151.88 14.53 153.48 14.53L153.48 14.53Q154.69 14.53 155.15 13.77Q155.60 13.01 155.60 11.57L155.60 11.57L155.60 7.33ZM159.06 16L162.07 11.57L159.20 7.33L161.49 7.33L163.38 10.27L165.27 7.33L167.56 7.33L164.66 11.57L167.70 16L165.41 16L163.38 12.85L161.35 16L159.06 16ZM176.37 14.26L176.37 16L168.55 16L168.55 14.51L171.46 11.57Q172.32 10.69 172.88 10.06Q173.43 9.44 173.69 8.89Q173.96 8.34 173.96 7.70L173.96 7.70Q173.96 6.91 173.51 6.52Q173.06 6.13 172.32 6.13L172.32 6.13Q171.60 6.13 170.98 6.42Q170.36 6.72 169.68 7.26L169.68 7.26L168.58 5.94Q169.28 5.33 170.18 4.87Q171.08 4.42 172.44 4.42L172.44 4.42Q173.54 4.42 174.34 4.81Q175.14 5.20 175.56 5.89Q175.99 6.58 175.99 7.49L175.99 7.49Q175.99 8.42 175.62 9.19Q175.25 9.97 174.56 10.74Q173.86 11.52 172.90 12.42L172.90 12.42L171.09 14.16L171.09 14.26L176.37 14.26ZM177.65 11.62L177.65 11.62Q177.65 9.66 178.22 7.85Q178.79 6.03 180.00 4.58L180.00 4.58L181.72 4.58Q180.61 6.08 180.05 7.89Q179.49 9.70 179.49 11.60L179.49 11.60Q179.49 13.46 180.05 15.25Q180.61 17.04 181.70 18.53L181.70 18.53L180.00 18.53Q178.79 17.12 178.22 15.34Q177.65 13.55 177.65 11.62ZM189.40 13.49L189.40 13.49Q189.40 14.80 188.46 15.48Q187.52 16.16 185.78 16.16L185.78 16.16Q184.87 16.16 184.22 16.03Q183.57 15.90 182.96 15.63L182.96 15.63L182.96 13.92Q183.60 14.22 184.38 14.43Q185.16 14.64 185.84 14.64L185.84 14.64Q186.68 14.64 187.04 14.38Q187.41 14.13 187.41 13.70L187.41 13.70Q187.41 13.44 187.27 13.24Q187.12 13.04 186.70 12.80Q186.28 12.56 185.44 12.21L185.44 12.21Q184.61 11.89 184.06 11.54Q183.51 11.20 183.23 10.74Q182.95 10.27 182.95 9.54L182.95 9.54Q182.95 8.37 183.87 7.77Q184.79 7.17 186.32 7.17L186.32 7.17Q187.12 7.17 187.84 7.33Q188.55 7.49 189.27 7.81L189.27 7.81L188.63 9.30Q188.02 9.04 187.44 8.86Q186.87 8.69 186.26 8.69L186.26 8.69Q184.93 8.69 184.93 9.44L184.93 9.44Q184.93 9.71 185.10 9.90Q185.27 10.10 185.69 10.31Q186.12 10.53 186.90 10.83L186.90 10.83Q187.67 11.14 188.23 11.46Q188.79 11.79 189.09 12.27Q189.40 12.75 189.40 13.49ZM194.69 14.54L194.69 14.54Q195.06 14.54 195.42 14.47Q195.78 14.40 196.08 14.30L196.08 14.30L196.08 15.81Q195.76 15.95 195.25 16.06Q194.74 16.16 194.18 16.16L194.18 16.16Q193.44 16.16 192.84 15.91Q192.23 15.66 191.88 15.06Q191.52 14.45 191.52 13.36L191.52 13.36L191.52 8.85L190.36 8.85L190.36 7.97L191.64 7.26L192.28 5.42L193.54 5.42L193.54 7.33L196.00 7.33L196.00 8.85L193.54 8.85L193.54 13.34Q193.54 13.95 193.86 14.25Q194.18 14.54 194.69 14.54ZM202.37 7.17L202.37 7.17Q202.58 7.17 202.83 7.18Q203.08 7.20 203.25 7.25L203.25 7.25L203.08 9.12Q202.92 9.09 202.69 9.06Q202.47 9.04 202.29 9.04L202.29 9.04Q201.65 9.04 201.09 9.30Q200.53 9.57 200.19 10.12Q199.84 10.67 199.84 11.50L199.84 11.50L199.84 16L197.83 16L197.83 7.33L199.38 7.33L199.67 8.83L199.76 8.83Q200.15 8.14 200.82 7.66Q201.49 7.17 202.37 7.17ZM210.53 7.33L212.55 7.33L212.55 16L210.96 16L210.69 14.88L210.60 14.88Q210.16 15.55 209.44 15.86Q208.71 16.16 207.89 16.16L207.89 16.16Q206.44 16.16 205.61 15.41Q204.79 14.66 204.79 12.99L204.79 12.99L204.79 7.33L206.80 7.33L206.80 12.59Q206.80 14.53 208.40 14.53L208.40 14.53Q209.62 14.53 210.08 13.77Q210.53 13.01 210.53 11.57L210.53 11.57L210.53 7.33ZM218.63 16.16L218.63 16.16Q216.76 16.16 215.68 15.09Q214.61 14.02 214.61 11.71L214.61 11.71Q214.61 10.11 215.15 9.11Q215.68 8.11 216.63 7.64Q217.57 7.17 218.79 7.17L218.79 7.17Q219.60 7.17 220.24 7.33Q220.88 7.49 221.33 7.71L221.33 7.71L220.74 9.30Q220.24 9.10 219.75 8.97Q219.25 8.83 218.79 8.83L218.79 8.83Q216.68 8.83 216.68 11.70L216.68 11.70Q216.68 13.09 217.21 13.79Q217.75 14.50 218.76 14.50L218.76 14.50Q219.48 14.50 220.04 14.32Q220.60 14.14 221.11 13.84L221.11 13.84L221.11 15.58Q220.61 15.87 220.04 16.02Q219.48 16.16 218.63 16.16ZM226.50 14.54L226.50 14.54Q226.87 14.54 227.23 14.47Q227.59 14.40 227.89 14.30L227.89 14.30L227.89 15.81Q227.57 15.95 227.06 16.06Q226.55 16.16 225.99 16.16L225.99 16.16Q225.25 16.16 224.64 15.91Q224.04 15.66 223.68 15.06Q223.33 14.45 223.33 13.36L223.33 13.36L223.33 8.85L222.16 8.85L222.16 7.97L223.44 7.26L224.08 5.42L225.35 5.42L225.35 7.33L227.81 7.33L227.81 8.85L225.35 8.85L225.35 13.34Q225.35 13.95 225.67 14.25Q225.99 14.54 226.50 14.54ZM232.88 11.62L232.88 11.62Q232.88 13.55 232.32 15.34Q231.75 17.12 230.53 18.53L230.53 18.53L228.84 18.53Q229.92 17.04 230.49 15.25Q231.06 13.46 231.06 11.60L231.06 11.60Q231.06 9.70 230.49 7.89Q229.92 6.08 228.82 4.58L228.82 4.58L230.53 4.58Q231.75 6.03 232.32 7.85Q232.88 9.66 232.88 11.62Z" class="sprotty-block-name" style="fill:rgb(48, 48, 48);stroke:rgba(0, 0, 0, 0);"/><line x1="0" y1="20" x2="322.7263488769531" y2="20"/></g><g id="sprotty_ArchitectureBlockImpl$work.mux2(struct)/GPortImpl$d0_to_ArchitectureBlockImpl$work.mux2(struct)/InstantiationBlockImpl$t0/BPortImpl$a" class="sprotty-edge thick edge" style="fill:none;stroke:rgb(112, 112, 112);stroke-linejoin:round;stroke-width:3px;"><path d="M 0 133.07890033721924 L 175.865234375 133.07890033721924 "/></g><g id="sprotty_ArchitectureBlockImpl$work.mux2(struct)/GPortImpl$d1_to_ArchitectureBlockImpl$work.mux2(struct)/InstantiationBlockImpl$t1/BPortImpl$a" class="sprotty-edge thick edge" style="fill:none;stroke:rgb(112, 112, 112);stroke-linejoin:round;stroke-width:3px;"><path d="M 0 72.69075012207031 L 61.78710174560547 72.69075012207031 "/></g><g id="sprotty_ArchitectureBlockImpl$work.mux2(struct)/GPortImpl$s_to_ArchitectureBlockImpl$work.mux2(struct)/AssignmentBlockImpl$null6/GPortImpl$s" class="sprotty-edge edge" style="fill:none;stroke:rgb(112, 112, 112);stroke-linejoin:round;"><path d="M 0 99.93175029754639 L 49.787099838256836 99.93175029754639 C 50.787099838256836 99.93175029754639 51.787099838256836 100.93175029754639 51.787099838256836 101.93175029754639 L 51.787099838256836 153.07890033721924 C 51.787099838256836 154.07890033721924 52.787099838256836 155.07890033721924 53.787099838256836 155.07890033721924 L 100.01092433929443 155.07890033721924 "/><circle r="2" id="sprotty_ArchitectureBlockImpl$work.mux2(struct)/GPortImpl$s_to_ArchitectureBlockImpl$work.mux2(struct)/AssignmentBlockImpl$null6/GPortImpl$s/junction0" transform="translate(51.787099838256836, 99.93175029754639)" class="sprotty-junction junction" style="fill:rgb(112, 112, 112);stroke:none;"/></g><g id="sprotty_ArchitectureBlockImpl$work.mux2(struct)/GPortImpl$s_to_ArchitectureBlockImpl$work.mux2(struct)/InstantiationBlockImpl$t1/BPortImpl$en" class="sprotty-edge edge" style="fill:none;stroke:rgb(112, 112, 112);stroke-linejoin:round;"><path d="M 0 99.93175029754639 L 49.787099838256836 99.93175029754639 C 50.787099838256836 99.93175029754639 51.787099838256836 98.93175029754639 51.787099838256836 97.93175029754639 L 51.787099838256836 96.07890033721924 C 51.787099838256836 95.07890033721924 52.787099838256836 94.07890033721924 53.787099838256836 94.07890033721924 L 61.78710174560547 94.07890033721924 "/></g><g id="sprotty_ArchitectureBlockImpl$work.mux2(struct)/AssignmentBlockImpl$null6/GPortImpl$sbar_to_ArchitectureBlockImpl$work.mux2(struct)/InstantiationBlockImpl$t0/BPortImpl$en" class="sprotty-edge edge" style="fill:none;stroke:rgb(112, 112, 112);stroke-linejoin:round;"><path d="M 117.6414041519165 155.07890033721924 L 165.865234375 155.07890033721924 L 165.865234375 154.46705055236816 L 175.865234375 154.46705055236816 "/></g><g id="sprotty_ArchitectureBlockImpl$work.mux2(struct)/InstantiationBlockImpl$t0/BPortImpl$y_to_ArchitectureBlockImpl$work.mux2(struct)/GPortImpl$y" class="sprotty-edge thick edge" style="fill:none;stroke:rgb(112, 112, 112);stroke-linejoin:round;stroke-width:3px;"><path d="M 269.943359375 143.77630043029785 L 277.943359375 143.77630043029785 C 278.943359375 143.77630043029785 279.943359375 142.77630043029785 279.943359375 141.77630043029785 L 279.943359375 85.38815021514893 C 279.943359375 84.38815021514893 280.943359375 83.38815021514893 281.943359375 83.38815021514893 L 322.7263488769531 83.38815021514893 "/><circle r="3" id="sprotty_ArchitectureBlockImpl$work.mux2(struct)/InstantiationBlockImpl$t0/BPortImpl$y_to_ArchitectureBlockImpl$work.mux2(struct)/GPortImpl$y/junction0" transform="translate(279.943359375, 83.38815021514893)" class="sprotty-junction thick" style="fill:rgb(112, 112, 112);stroke:none;"/></g><g id="sprotty_ArchitectureBlockImpl$work.mux2(struct)/InstantiationBlockImpl$t1/BPortImpl$y_to_ArchitectureBlockImpl$work.mux2(struct)/GPortImpl$y" class="sprotty-edge thick edge" style="fill:none;stroke:rgb(112, 112, 112);stroke-linejoin:round;stroke-width:3px;"><path d="M 155.86522674560547 83.38815021514893 L 322.7263488769531 83.38815021514893 "/></g><g id="sprotty_ArchitectureBlockImpl$work.mux2(struct)/InstantiationBlockImpl$t1" transform="translate(61.78710174560547, 35)" class="instantiation"><g class="sprotty-block" style="fill:rgb(245, 245, 245);stroke:rgb(48, 48, 48);stroke-dasharray:0px;"><rect x="0" y="0" rx="1" ry="1" width="94.07999999999998" height="76.77630043029785"/><path d="M8.66 14.54L8.66 14.54Q9.02 14.54 9.38 14.47Q9.74 14.40 10.05 14.30L10.05 14.30L10.05 15.81Q9.73 15.95 9.22 16.06Q8.70 16.16 8.14 16.16L8.14 16.16Q7.41 16.16 6.80 15.91Q6.19 15.66 5.84 15.06Q5.49 14.45 5.49 13.36L5.49 13.36L5.49 8.85L4.32 8.85L4.32 7.97L5.60 7.26L6.24 5.42L7.50 5.42L7.50 7.33L9.97 7.33L9.97 8.85L7.50 8.85L7.50 13.34Q7.50 13.95 7.82 14.25Q8.14 14.54 8.66 14.54ZM16.75 4.58L16.75 16L14.74 16L14.74 8.88Q14.74 8.37 14.75 7.79Q14.77 7.22 14.80 6.72L14.80 6.72Q14.64 6.88 14.40 7.10Q14.16 7.31 13.90 7.54L13.90 7.54L12.62 8.56L11.62 7.31L15.07 4.58L16.75 4.58ZM24.82 8.38L24.82 8.38Q24.82 7.70 25.17 7.42Q25.52 7.14 26.03 7.14L26.03 7.14Q26.53 7.14 26.90 7.42Q27.26 7.70 27.26 8.38L27.26 8.38Q27.26 9.04 26.90 9.33Q26.53 9.62 26.03 9.62L26.03 9.62Q25.52 9.62 25.17 9.33Q24.82 9.04 24.82 8.38ZM24.82 14.98L24.82 14.98Q24.82 14.30 25.17 14.02Q25.52 13.74 26.03 13.74L26.03 13.74Q26.53 13.74 26.90 14.02Q27.26 14.30 27.26 14.98L27.26 14.98Q27.26 15.63 26.90 15.92Q26.53 16.21 26.03 16.21L26.03 16.21Q25.52 16.21 25.17 15.92Q24.82 15.63 24.82 14.98ZM37.09 14.54L37.09 14.54Q37.46 14.54 37.82 14.47Q38.18 14.40 38.48 14.30L38.48 14.30L38.48 15.81Q38.16 15.95 37.65 16.06Q37.14 16.16 36.58 16.16L36.58 16.16Q35.84 16.16 35.23 15.91Q34.62 15.66 34.27 15.06Q33.92 14.45 33.92 13.36L33.92 13.36L33.92 8.85L32.75 8.85L32.75 7.97L34.03 7.26L34.67 5.42L35.94 5.42L35.94 7.33L38.40 7.33L38.40 8.85L35.94 8.85L35.94 13.34Q35.94 13.95 36.26 14.25Q36.58 14.54 37.09 14.54ZM44.77 7.17L44.77 7.17Q44.98 7.17 45.22 7.18Q45.47 7.20 45.65 7.25L45.65 7.25L45.47 9.12Q45.31 9.09 45.09 9.06Q44.86 9.04 44.69 9.04L44.69 9.04Q44.05 9.04 43.49 9.30Q42.93 9.57 42.58 10.12Q42.24 10.67 42.24 11.50L42.24 11.50L42.24 16L40.22 16L40.22 7.33L41.78 7.33L42.06 8.83L42.16 8.83Q42.54 8.14 43.22 7.66Q43.89 7.17 44.77 7.17ZM48.26 3.98L48.26 3.98Q48.72 3.98 49.05 4.22Q49.38 4.45 49.38 5.04L49.38 5.04Q49.38 5.63 49.05 5.87Q48.72 6.11 48.26 6.11L48.26 6.11Q47.79 6.11 47.46 5.87Q47.14 5.63 47.14 5.04L47.14 5.04Q47.14 4.45 47.46 4.22Q47.79 3.98 48.26 3.98ZM47.25 7.33L49.26 7.33L49.26 16L47.25 16L47.25 7.33ZM57.74 13.49L57.74 13.49Q57.74 14.80 56.81 15.48Q55.87 16.16 54.13 16.16L54.13 16.16Q53.22 16.16 52.57 16.03Q51.92 15.90 51.31 15.63L51.31 15.63L51.31 13.92Q51.95 14.22 52.73 14.43Q53.50 14.64 54.19 14.64L54.19 14.64Q55.02 14.64 55.39 14.38Q55.76 14.13 55.76 13.70L55.76 13.70Q55.76 13.44 55.62 13.24Q55.47 13.04 55.05 12.80Q54.62 12.56 53.79 12.21L53.79 12.21Q52.96 11.89 52.41 11.54Q51.86 11.20 51.58 10.74Q51.30 10.27 51.30 9.54L51.30 9.54Q51.30 8.37 52.22 7.77Q53.14 7.17 54.67 7.17L54.67 7.17Q55.47 7.17 56.18 7.33Q56.90 7.49 57.62 7.81L57.62 7.81L56.98 9.30Q56.37 9.04 55.79 8.86Q55.22 8.69 54.61 8.69L54.61 8.69Q53.28 8.69 53.28 9.44L53.28 9.44Q53.28 9.71 53.45 9.90Q53.62 10.10 54.04 10.31Q54.46 10.53 55.25 10.83L55.25 10.83Q56.02 11.14 56.58 11.46Q57.14 11.79 57.44 12.27Q57.74 12.75 57.74 13.49ZM63.04 14.54L63.04 14.54Q63.41 14.54 63.77 14.47Q64.13 14.40 64.43 14.30L64.43 14.30L64.43 15.81Q64.11 15.95 63.60 16.06Q63.09 16.16 62.53 16.16L62.53 16.16Q61.79 16.16 61.18 15.91Q60.58 15.66 60.22 15.06Q59.87 14.45 59.87 13.36L59.87 13.36L59.87 8.85L58.70 8.85L58.70 7.97L59.98 7.26L60.62 5.42L61.89 5.42L61.89 7.33L64.35 7.33L64.35 8.85L61.89 8.85L61.89 13.34Q61.89 13.95 62.21 14.25Q62.53 14.54 63.04 14.54ZM69.63 7.17L69.63 7.17Q71.31 7.17 72.18 7.90Q73.06 8.64 73.06 10.18L73.06 10.18L73.06 16L71.63 16L71.23 14.80L71.17 14.80Q70.61 15.50 69.98 15.83Q69.36 16.16 68.29 16.16L68.29 16.16Q67.12 16.16 66.35 15.50Q65.58 14.85 65.58 13.47L65.58 13.47Q65.58 12.13 66.57 11.46Q67.55 10.78 69.55 10.70L69.55 10.70L71.06 10.66L71.06 10.22Q71.06 9.41 70.66 9.05Q70.26 8.69 69.54 8.69L69.54 8.69Q68.88 8.69 68.28 8.88Q67.68 9.07 67.09 9.33L67.09 9.33L66.45 7.92Q67.09 7.58 67.91 7.38Q68.74 7.17 69.63 7.17ZM71.06 12.64L71.06 11.90L70 11.94Q68.67 11.98 68.16 12.39Q67.65 12.80 67.65 13.49L67.65 13.49Q67.65 14.11 68.01 14.38Q68.37 14.64 68.96 14.64L68.96 14.64Q69.84 14.64 70.45 14.14Q71.06 13.63 71.06 12.64L71.06 12.64ZM78.94 14.54L78.94 14.54Q79.31 14.54 79.67 14.47Q80.03 14.40 80.34 14.30L80.34 14.30L80.34 15.81Q80.02 15.95 79.50 16.06Q78.99 16.16 78.43 16.16L78.43 16.16Q77.70 16.16 77.09 15.91Q76.48 15.66 76.13 15.06Q75.78 14.45 75.78 13.36L75.78 13.36L75.78 8.85L74.61 8.85L74.61 7.97L75.89 7.26L76.53 5.42L77.79 5.42L77.79 7.33L80.26 7.33L80.26 8.85L77.79 8.85L77.79 13.34Q77.79 13.95 78.11 14.25Q78.43 14.54 78.94 14.54ZM85.57 7.17L85.57 7.17Q87.31 7.17 88.33 8.21Q89.34 9.25 89.34 11.10L89.34 11.10L89.34 12.13L83.62 12.13Q83.65 13.31 84.27 13.96Q84.90 14.61 86.00 14.61L86.00 14.61Q86.83 14.61 87.50 14.44Q88.18 14.27 88.88 13.95L88.88 13.95L88.88 15.57Q88.24 15.87 87.55 16.02Q86.86 16.16 85.90 16.16L85.90 16.16Q84.64 16.16 83.66 15.67Q82.67 15.18 82.12 14.19Q81.57 13.20 81.57 11.73L81.57 11.73Q81.57 9.50 82.67 8.34Q83.78 7.17 85.57 7.17ZM85.57 8.66L85.57 8.66Q84.75 8.66 84.25 9.18Q83.74 9.70 83.66 10.72L83.66 10.72L87.39 10.72Q87.38 9.82 86.94 9.24Q86.50 8.66 85.57 8.66Z" class="sprotty-block-name" style="fill:rgb(48, 48, 48);stroke:rgba(0, 0, 0, 0);"/><line x1="0" y1="20" x2="94.07999999999998" y2="20"/></g><g id="sprotty_ArchitectureBlockImpl$work.mux2(struct)/InstantiationBlockImpl$t1/BPortImpl$en" transform="translate(0, 59.07890033721924)" class="triangle"><path d="M 0,0 L 5,2.5 L 0,5 Z" transform="translate(-1.67, -2.5)" class="sprotty-port" style="fill:rgb(48, 48, 48);stroke:rgb(48, 48, 48);"/><g class="port sprotty-label" id="sprotty_ArchitectureBlockImpl$work.mux2(struct)/InstantiationBlockImpl$t1/BPortImpl$en/label" transform="translate(3, -5.697400093078613) translate(0, -0.13300000131130219)" style="cursor:default;fill:rgb(48, 48, 48);font-family:Arial, Helvetica, sans-serif;text-anchor:middle;"><path d="M4.16 0.13L4.16 0.13Q3.15 0.13 2.37-0.28Q1.60-0.69 1.16-1.51Q0.73-2.33 0.73-3.51L0.73-3.51Q0.73-4.68 1.12-5.52Q1.52-6.36 2.23-6.81Q2.94-7.26 3.88-7.26L3.88-7.26Q4.80-7.26 5.46-6.86Q6.12-6.46 6.47-5.74Q6.82-5.01 6.82-4.04L6.82-4.04L6.82-3.34L1.94-3.34Q1.97-2.13 2.56-1.50Q3.15-0.86 4.22-0.86L4.22-0.86Q4.89-0.86 5.42-0.99Q5.95-1.12 6.50-1.36L6.50-1.36L6.50-0.33Q5.96-0.09 5.43 0.02Q4.89 0.13 4.16 0.13ZM1.97-4.27L1.97-4.27L5.60-4.27Q5.60-5.17 5.18-5.74Q4.76-6.30 3.87-6.30L3.87-6.30Q3.03-6.30 2.55-5.77Q2.06-5.23 1.97-4.27ZM9.80 0L8.63 0L8.63-7.13L9.58-7.13L9.75-6.16L9.82-6.16Q10.16-6.72 10.77-6.99Q11.38-7.26 12.06-7.26L12.06-7.26Q13.34-7.26 13.99-6.64Q14.64-6.02 14.64-4.64L14.64-4.64L14.64 0L13.49 0L13.49-4.56Q13.49-6.28 11.89-6.28L11.89-6.28Q10.71-6.28 10.25-5.61Q9.80-4.95 9.80-3.70L9.80-3.70L9.80 0Z" transform="translate(4, 9.3948)"/><rect x="0" y="0.133" width="23.7206" height="11.3948" class="clickable" style="cursor:pointer;fill:rgba(0, 0, 0, 0);fill-opacity:0;stroke-width:0px;"/></g></g><g id="sprotty_ArchitectureBlockImpl$work.mux2(struct)/InstantiationBlockImpl$t1/BPortImpl$a" transform="translate(0, 37.69075012207031)" class="triangle"><path d="M 0,0 L 5,2.5 L 0,5 Z" transform="translate(-1.67, -2.5)" class="sprotty-port" style="fill:rgb(48, 48, 48);stroke:rgb(48, 48, 48);"/><g class="port sprotty-label" id="sprotty_ArchitectureBlockImpl$work.mux2(struct)/InstantiationBlockImpl$t1/BPortImpl$a/label" transform="translate(3, -5.6907501220703125) translate(0, -0.13300000131130219)" style="cursor:default;fill:rgb(48, 48, 48);font-family:Arial, Helvetica, sans-serif;text-anchor:middle;"><path d="M2.86 0.13L2.86 0.13Q1.89 0.13 1.25-0.38Q0.61-0.89 0.61-1.98L0.61-1.98Q0.61-3.05 1.45-3.62Q2.29-4.20 4.03-4.26L4.03-4.26L5.24-4.30L5.24-4.72Q5.24-5.61 4.85-5.96Q4.47-6.30 3.76-6.30L3.76-6.30Q3.21-6.30 2.70-6.14Q2.19-5.97 1.76-5.76L1.76-5.76L1.40-6.64Q1.86-6.89 2.50-7.07Q3.14-7.25 3.83-7.25L3.83-7.25Q5.13-7.25 5.76-6.68Q6.38-6.10 6.38-4.85L6.38-4.85L6.38 0L5.53 0L5.31-1.01L5.25-1.01Q4.79-0.43 4.28-0.15Q3.76 0.13 2.86 0.13ZM3.13-0.81L3.13-0.81Q4.03-0.81 4.63-1.31Q5.23-1.81 5.23-2.85L5.23-2.85L5.23-3.48L4.18-3.44Q2.85-3.39 2.33-3.02Q1.82-2.65 1.82-1.97L1.82-1.97Q1.82-1.37 2.19-1.09Q2.55-0.81 3.13-0.81Z" transform="translate(4, 9.3815)"/><rect x="0" y="0.133" width="15.461300000000001" height="11.3815" class="clickable" style="cursor:pointer;fill:rgba(0, 0, 0, 0);fill-opacity:0;stroke-width:0px;"/></g></g><g id="sprotty_ArchitectureBlockImpl$work.mux2(struct)/InstantiationBlockImpl$t1/BPortImpl$y" transform="translate(94.078125, 48.388150215148926)" class="triangle"><path d="M 0,0 L 5,2.5 L 0,5 Z" transform="translate(-1.67, -2.5)" class="sprotty-port" style="fill:rgb(48, 48, 48);stroke:rgb(48, 48, 48);"/><g class="port sprotty-label" id="sprotty_ArchitectureBlockImpl$work.mux2(struct)/InstantiationBlockImpl$t1/BPortImpl$y/label" transform="translate(-17.782999992370605, -7.160400390625) translate(0, -3.191999912261963)" style="cursor:default;fill:rgb(48, 48, 48);font-family:Arial, Helvetica, sans-serif;text-anchor:middle;"><path d="M1.12 3.19L1.12 3.19Q0.80 3.19 0.56 3.16Q0.32 3.13 0.15 3.09L0.15 3.09L0.15 2.15Q0.29 2.18 0.50 2.21Q0.70 2.23 0.93 2.23L0.93 2.23Q1.54 2.23 1.92 1.89Q2.29 1.54 2.51 0.97L2.51 0.97L2.89 0.03L0.01-7.13L1.26-7.13L2.81-3.07Q3.01-2.54 3.17-2.05Q3.33-1.57 3.40-1.13L3.40-1.13L3.46-1.13Q3.54-1.46 3.70-2.00Q3.87-2.54 4.07-3.09L4.07-3.09L5.52-7.13L6.78-7.13L3.71 0.98Q3.34 2.00 2.75 2.59Q2.15 3.19 1.12 3.19Z" transform="translate(4, 12.320800000000002)"/><rect x="0" y="3.192" width="14.783000000000001" height="14.320800000000002" class="clickable" style="cursor:pointer;fill:rgba(0, 0, 0, 0);fill-opacity:0;stroke-width:0px;"/></g></g></g><g id="sprotty_ArchitectureBlockImpl$work.mux2(struct)/InstantiationBlockImpl$t0" transform="translate(175.865234375, 95.38815021514893)" class="instantiation"><g class="sprotty-block" style="fill:rgb(245, 245, 245);stroke:rgb(48, 48, 48);stroke-dasharray:0px;"><rect x="0" y="0" rx="1" ry="1" width="94.07999999999998" height="76.77630043029785"/><path d="M8.66 14.54L8.66 14.54Q9.02 14.54 9.38 14.47Q9.74 14.40 10.05 14.30L10.05 14.30L10.05 15.81Q9.73 15.95 9.22 16.06Q8.70 16.16 8.14 16.16L8.14 16.16Q7.41 16.16 6.80 15.91Q6.19 15.66 5.84 15.06Q5.49 14.45 5.49 13.36L5.49 13.36L5.49 8.85L4.32 8.85L4.32 7.97L5.60 7.26L6.24 5.42L7.50 5.42L7.50 7.33L9.97 7.33L9.97 8.85L7.50 8.85L7.50 13.34Q7.50 13.95 7.82 14.25Q8.14 14.54 8.66 14.54ZM18.98 10.29L18.98 10.29Q18.98 12.13 18.59 13.44Q18.21 14.75 17.34 15.46Q16.48 16.16 15.06 16.16L15.06 16.16Q13.04 16.16 12.10 14.60Q11.15 13.04 11.15 10.29L11.15 10.29Q11.15 8.43 11.54 7.12Q11.92 5.81 12.78 5.10Q13.63 4.40 15.06 4.40L15.06 4.40Q17.06 4.40 18.02 5.95Q18.98 7.50 18.98 10.29ZM13.18 10.29L13.18 10.29Q13.18 12.38 13.59 13.44Q14 14.50 15.06 14.50L15.06 14.50Q16.10 14.50 16.52 13.45Q16.94 12.40 16.94 10.29L16.94 10.29Q16.94 8.18 16.52 7.12Q16.10 6.06 15.06 6.06L15.06 6.06Q14 6.06 13.59 7.12Q13.18 8.18 13.18 10.29ZM24.82 8.38L24.82 8.38Q24.82 7.70 25.17 7.42Q25.52 7.14 26.03 7.14L26.03 7.14Q26.53 7.14 26.90 7.42Q27.26 7.70 27.26 8.38L27.26 8.38Q27.26 9.04 26.90 9.33Q26.53 9.62 26.03 9.62L26.03 9.62Q25.52 9.62 25.17 9.33Q24.82 9.04 24.82 8.38ZM24.82 14.98L24.82 14.98Q24.82 14.30 25.17 14.02Q25.52 13.74 26.03 13.74L26.03 13.74Q26.53 13.74 26.90 14.02Q27.26 14.30 27.26 14.98L27.26 14.98Q27.26 15.63 26.90 15.92Q26.53 16.21 26.03 16.21L26.03 16.21Q25.52 16.21 25.17 15.92Q24.82 15.63 24.82 14.98ZM37.09 14.54L37.09 14.54Q37.46 14.54 37.82 14.47Q38.18 14.40 38.48 14.30L38.48 14.30L38.48 15.81Q38.16 15.95 37.65 16.06Q37.14 16.16 36.58 16.16L36.58 16.16Q35.84 16.16 35.23 15.91Q34.62 15.66 34.27 15.06Q33.92 14.45 33.92 13.36L33.92 13.36L33.92 8.85L32.75 8.85L32.75 7.97L34.03 7.26L34.67 5.42L35.94 5.42L35.94 7.33L38.40 7.33L38.40 8.85L35.94 8.85L35.94 13.34Q35.94 13.95 36.26 14.25Q36.58 14.54 37.09 14.54ZM44.77 7.17L44.77 7.17Q44.98 7.17 45.22 7.18Q45.47 7.20 45.65 7.25L45.65 7.25L45.47 9.12Q45.31 9.09 45.09 9.06Q44.86 9.04 44.69 9.04L44.69 9.04Q44.05 9.04 43.49 9.30Q42.93 9.57 42.58 10.12Q42.24 10.67 42.24 11.50L42.24 11.50L42.24 16L40.22 16L40.22 7.33L41.78 7.33L42.06 8.83L42.16 8.83Q42.54 8.14 43.22 7.66Q43.89 7.17 44.77 7.17ZM48.26 3.98L48.26 3.98Q48.72 3.98 49.05 4.22Q49.38 4.45 49.38 5.04L49.38 5.04Q49.38 5.63 49.05 5.87Q48.72 6.11 48.26 6.11L48.26 6.11Q47.79 6.11 47.46 5.87Q47.14 5.63 47.14 5.04L47.14 5.04Q47.14 4.45 47.46 4.22Q47.79 3.98 48.26 3.98ZM47.25 7.33L49.26 7.33L49.26 16L47.25 16L47.25 7.33ZM57.74 13.49L57.74 13.49Q57.74 14.80 56.81 15.48Q55.87 16.16 54.13 16.16L54.13 16.16Q53.22 16.16 52.57 16.03Q51.92 15.90 51.31 15.63L51.31 15.63L51.31 13.92Q51.95 14.22 52.73 14.43Q53.50 14.64 54.19 14.64L54.19 14.64Q55.02 14.64 55.39 14.38Q55.76 14.13 55.76 13.70L55.76 13.70Q55.76 13.44 55.62 13.24Q55.47 13.04 55.05 12.80Q54.62 12.56 53.79 12.21L53.79 12.21Q52.96 11.89 52.41 11.54Q51.86 11.20 51.58 10.74Q51.30 10.27 51.30 9.54L51.30 9.54Q51.30 8.37 52.22 7.77Q53.14 7.17 54.67 7.17L54.67 7.17Q55.47 7.17 56.18 7.33Q56.90 7.49 57.62 7.81L57.62 7.81L56.98 9.30Q56.37 9.04 55.79 8.86Q55.22 8.69 54.61 8.69L54.61 8.69Q53.28 8.69 53.28 9.44L53.28 9.44Q53.28 9.71 53.45 9.90Q53.62 10.10 54.04 10.31Q54.46 10.53 55.25 10.83L55.25 10.83Q56.02 11.14 56.58 11.46Q57.14 11.79 57.44 12.27Q57.74 12.75 57.74 13.49ZM63.04 14.54L63.04 14.54Q63.41 14.54 63.77 14.47Q64.13 14.40 64.43 14.30L64.43 14.30L64.43 15.81Q64.11 15.95 63.60 16.06Q63.09 16.16 62.53 16.16L62.53 16.16Q61.79 16.16 61.18 15.91Q60.58 15.66 60.22 15.06Q59.87 14.45 59.87 13.36L59.87 13.36L59.87 8.85L58.70 8.85L58.70 7.97L59.98 7.26L60.62 5.42L61.89 5.42L61.89 7.33L64.35 7.33L64.35 8.85L61.89 8.85L61.89 13.34Q61.89 13.95 62.21 14.25Q62.53 14.54 63.04 14.54ZM69.63 7.17L69.63 7.17Q71.31 7.17 72.18 7.90Q73.06 8.64 73.06 10.18L73.06 10.18L73.06 16L71.63 16L71.23 14.80L71.17 14.80Q70.61 15.50 69.98 15.83Q69.36 16.16 68.29 16.16L68.29 16.16Q67.12 16.16 66.35 15.50Q65.58 14.85 65.58 13.47L65.58 13.47Q65.58 12.13 66.57 11.46Q67.55 10.78 69.55 10.70L69.55 10.70L71.06 10.66L71.06 10.22Q71.06 9.41 70.66 9.05Q70.26 8.69 69.54 8.69L69.54 8.69Q68.88 8.69 68.28 8.88Q67.68 9.07 67.09 9.33L67.09 9.33L66.45 7.92Q67.09 7.58 67.91 7.38Q68.74 7.17 69.63 7.17ZM71.06 12.64L71.06 11.90L70 11.94Q68.67 11.98 68.16 12.39Q67.65 12.80 67.65 13.49L67.65 13.49Q67.65 14.11 68.01 14.38Q68.37 14.64 68.96 14.64L68.96 14.64Q69.84 14.64 70.45 14.14Q71.06 13.63 71.06 12.64L71.06 12.64ZM78.94 14.54L78.94 14.54Q79.31 14.54 79.67 14.47Q80.03 14.40 80.34 14.30L80.34 14.30L80.34 15.81Q80.02 15.95 79.50 16.06Q78.99 16.16 78.43 16.16L78.43 16.16Q77.70 16.16 77.09 15.91Q76.48 15.66 76.13 15.06Q75.78 14.45 75.78 13.36L75.78 13.36L75.78 8.85L74.61 8.85L74.61 7.97L75.89 7.26L76.53 5.42L77.79 5.42L77.79 7.33L80.26 7.33L80.26 8.85L77.79 8.85L77.79 13.34Q77.79 13.95 78.11 14.25Q78.43 14.54 78.94 14.54ZM85.57 7.17L85.57 7.17Q87.31 7.17 88.33 8.21Q89.34 9.25 89.34 11.10L89.34 11.10L89.34 12.13L83.62 12.13Q83.65 13.31 84.27 13.96Q84.90 14.61 86.00 14.61L86.00 14.61Q86.83 14.61 87.50 14.44Q88.18 14.27 88.88 13.95L88.88 13.95L88.88 15.57Q88.24 15.87 87.55 16.02Q86.86 16.16 85.90 16.16L85.90 16.16Q84.64 16.16 83.66 15.67Q82.67 15.18 82.12 14.19Q81.57 13.20 81.57 11.73L81.57 11.73Q81.57 9.50 82.67 8.34Q83.78 7.17 85.57 7.17ZM85.57 8.66L85.57 8.66Q84.75 8.66 84.25 9.18Q83.74 9.70 83.66 10.72L83.66 10.72L87.39 10.72Q87.38 9.82 86.94 9.24Q86.50 8.66 85.57 8.66Z" class="sprotty-block-name" style="fill:rgb(48, 48, 48);stroke:rgba(0, 0, 0, 0);"/><line x1="0" y1="20" x2="94.07999999999998" y2="20"/></g><g id="sprotty_ArchitectureBlockImpl$work.mux2(struct)/InstantiationBlockImpl$t0/BPortImpl$en" transform="translate(0, 59.07890033721924)" class="triangle"><path d="M 0,0 L 5,2.5 L 0,5 Z" transform="translate(-1.67, -2.5)" class="sprotty-port" style="fill:rgb(48, 48, 48);stroke:rgb(48, 48, 48);"/><g class="port sprotty-label" id="sprotty_ArchitectureBlockImpl$work.mux2(struct)/InstantiationBlockImpl$t0/BPortImpl$en/label" transform="translate(3, -5.697400093078613) translate(0, -0.13300000131130219)" style="cursor:default;fill:rgb(48, 48, 48);font-family:Arial, Helvetica, sans-serif;text-anchor:middle;"><path d="M4.16 0.13L4.16 0.13Q3.15 0.13 2.37-0.28Q1.60-0.69 1.16-1.51Q0.73-2.33 0.73-3.51L0.73-3.51Q0.73-4.68 1.12-5.52Q1.52-6.36 2.23-6.81Q2.94-7.26 3.88-7.26L3.88-7.26Q4.80-7.26 5.46-6.86Q6.12-6.46 6.47-5.74Q6.82-5.01 6.82-4.04L6.82-4.04L6.82-3.34L1.94-3.34Q1.97-2.13 2.56-1.50Q3.15-0.86 4.22-0.86L4.22-0.86Q4.89-0.86 5.42-0.99Q5.95-1.12 6.50-1.36L6.50-1.36L6.50-0.33Q5.96-0.09 5.43 0.02Q4.89 0.13 4.16 0.13ZM1.97-4.27L1.97-4.27L5.60-4.27Q5.60-5.17 5.18-5.74Q4.76-6.30 3.87-6.30L3.87-6.30Q3.03-6.30 2.55-5.77Q2.06-5.23 1.97-4.27ZM9.80 0L8.63 0L8.63-7.13L9.58-7.13L9.75-6.16L9.82-6.16Q10.16-6.72 10.77-6.99Q11.38-7.26 12.06-7.26L12.06-7.26Q13.34-7.26 13.99-6.64Q14.64-6.02 14.64-4.64L14.64-4.64L14.64 0L13.49 0L13.49-4.56Q13.49-6.28 11.89-6.28L11.89-6.28Q10.71-6.28 10.25-5.61Q9.80-4.95 9.80-3.70L9.80-3.70L9.80 0Z" transform="translate(4, 9.3948)"/><rect x="0" y="0.133" width="23.7206" height="11.3948" class="clickable" style="cursor:pointer;fill:rgba(0, 0, 0, 0);fill-opacity:0;stroke-width:0px;"/></g></g><g id="sprotty_ArchitectureBlockImpl$work.mux2(struct)/InstantiationBlockImpl$t0/BPortImpl$a" transform="translate(0, 37.69075012207031)" class="triangle"><path d="M 0,0 L 5,2.5 L 0,5 Z" transform="translate(-1.67, -2.5)" class="sprotty-port" style="fill:rgb(48, 48, 48);stroke:rgb(48, 48, 48);"/><g class="port sprotty-label" id="sprotty_ArchitectureBlockImpl$work.mux2(struct)/InstantiationBlockImpl$t0/BPortImpl$a/label" transform="translate(3, -5.6907501220703125) translate(0, -0.13300000131130219)" style="cursor:default;fill:rgb(48, 48, 48);font-family:Arial, Helvetica, sans-serif;text-anchor:middle;"><path d="M2.86 0.13L2.86 0.13Q1.89 0.13 1.25-0.38Q0.61-0.89 0.61-1.98L0.61-1.98Q0.61-3.05 1.45-3.62Q2.29-4.20 4.03-4.26L4.03-4.26L5.24-4.30L5.24-4.72Q5.24-5.61 4.85-5.96Q4.47-6.30 3.76-6.30L3.76-6.30Q3.21-6.30 2.70-6.14Q2.19-5.97 1.76-5.76L1.76-5.76L1.40-6.64Q1.86-6.89 2.50-7.07Q3.14-7.25 3.83-7.25L3.83-7.25Q5.13-7.25 5.76-6.68Q6.38-6.10 6.38-4.85L6.38-4.85L6.38 0L5.53 0L5.31-1.01L5.25-1.01Q4.79-0.43 4.28-0.15Q3.76 0.13 2.86 0.13ZM3.13-0.81L3.13-0.81Q4.03-0.81 4.63-1.31Q5.23-1.81 5.23-2.85L5.23-2.85L5.23-3.48L4.18-3.44Q2.85-3.39 2.33-3.02Q1.82-2.65 1.82-1.97L1.82-1.97Q1.82-1.37 2.19-1.09Q2.55-0.81 3.13-0.81Z" transform="translate(4, 9.3815)"/><rect x="0" y="0.133" width="15.461300000000001" height="11.3815" class="clickable" style="cursor:pointer;fill:rgba(0, 0, 0, 0);fill-opacity:0;stroke-width:0px;"/></g></g><g id="sprotty_ArchitectureBlockImpl$work.mux2(struct)/InstantiationBlockImpl$t0/BPortImpl$y" transform="translate(94.078125, 48.388150215148926)" class="triangle"><path d="M 0,0 L 5,2.5 L 0,5 Z" transform="translate(-1.67, -2.5)" class="sprotty-port" style="fill:rgb(48, 48, 48);stroke:rgb(48, 48, 48);"/><g class="port sprotty-label" id="sprotty_ArchitectureBlockImpl$work.mux2(struct)/InstantiationBlockImpl$t0/BPortImpl$y/label" transform="translate(-17.782999992370605, -7.160400390625) translate(0, -3.191999912261963)" style="cursor:default;fill:rgb(48, 48, 48);font-family:Arial, Helvetica, sans-serif;text-anchor:middle;"><path d="M1.12 3.19L1.12 3.19Q0.80 3.19 0.56 3.16Q0.32 3.13 0.15 3.09L0.15 3.09L0.15 2.15Q0.29 2.18 0.50 2.21Q0.70 2.23 0.93 2.23L0.93 2.23Q1.54 2.23 1.92 1.89Q2.29 1.54 2.51 0.97L2.51 0.97L2.89 0.03L0.01-7.13L1.26-7.13L2.81-3.07Q3.01-2.54 3.17-2.05Q3.33-1.57 3.40-1.13L3.40-1.13L3.46-1.13Q3.54-1.46 3.70-2.00Q3.87-2.54 4.07-3.09L4.07-3.09L5.52-7.13L6.78-7.13L3.71 0.98Q3.34 2.00 2.75 2.59Q2.15 3.19 1.12 3.19Z" transform="translate(4, 12.320800000000002)"/><rect x="0" y="3.192" width="14.783000000000001" height="14.320800000000002" class="clickable" style="cursor:pointer;fill:rgba(0, 0, 0, 0);fill-opacity:0;stroke-width:0px;"/></g></g></g><g id="sprotty_ArchitectureBlockImpl$work.mux2(struct)/AssignmentBlockImpl$null6" transform="translate(100.01092433929443, 145.07890033721924)" class="statement"><rect x="0" y="0" rx="10" ry="5" width="17.63047981262207" height="20" class="sprotty-node" style="fill:rgb(245, 245, 245);stroke:rgb(112, 112, 112);"/><g id="sprotty_ArchitectureBlockImpl$work.mux2(struct)/AssignmentBlockImpl$null6/label" transform="translate(5, 8.28515625) translate(0, 0.700526237487793)" class="sprotty-label statement" style="cursor:default;fill:rgb(48, 48, 48);font-family:Arial, Helvetica, sans-serif;text-anchor:middle;"><path d="M3.50-1.39L3.50-0.70L0.31-2.11L0.31-2.53L3.50-4.13L3.50-3.44L1.17-2.35L3.50-1.39ZM7.30-2.68L4.14-2.68L4.14-3.30L7.30-3.30L7.30-2.68ZM7.30-1.39L4.14-1.39L4.14-2.01L7.30-2.01L7.30-1.39Z" transform="translate(0, 3.42838)"/><rect x="0" y="-0.7003499999999999" width="7.6304799999999995" height="3.42838" class="clickable" style="cursor:pointer;fill:rgba(0, 0, 0, 0);fill-opacity:0;stroke-width:0px;"/></g><g id="sprotty_ArchitectureBlockImpl$work.mux2(struct)/AssignmentBlockImpl$null6/GPortImpl$s" transform="translate(0, 10)" class="sprotty-hidden hidden" style="display:block;height:0px;width:0px;"/><g id="sprotty_ArchitectureBlockImpl$work.mux2(struct)/AssignmentBlockImpl$null6/GPortImpl$sbar" transform="translate(17.63047981262207, 10)" class="sprotty-hidden hidden" style="display:block;height:0px;width:0px;"/></g><g id="sprotty_ArchitectureBlockImpl$work.mux2(struct)/GPortImpl$s" transform="translate(0, 99.93175029754639)" class="triangle"><path d="M 0,0 L 5,2.5 L 0,5 Z" transform="translate(-1.67, -2.5)" class="sprotty-port" style="fill:rgb(48, 48, 48);stroke:rgb(48, 48, 48);"/><g class="port sprotty-label" id="sprotty_ArchitectureBlockImpl$work.mux2(struct)/GPortImpl$s/label" transform="translate(3, 3) translate(0, -0.13300000131130219)" style="cursor:default;fill:rgb(48, 48, 48);font-family:Arial, Helvetica, sans-serif;text-anchor:middle;"><path d="M2.93 0.13L2.93 0.13Q2.18 0.13 1.64 0.01Q1.10-0.11 0.69-0.32L0.69-0.32L0.69-1.38Q1.12-1.17 1.72-0.99Q2.33-0.81 2.95-0.81L2.95-0.81Q3.84-0.81 4.24-1.10Q4.64-1.38 4.64-1.86L4.64-1.86Q4.64-2.13 4.50-2.34Q4.35-2.55 3.97-2.77Q3.59-2.98 2.89-3.25L2.89-3.25Q2.19-3.51 1.70-3.78Q1.21-4.04 0.94-4.42Q0.68-4.79 0.68-5.37L0.68-5.37Q0.68-6.28 1.42-6.77Q2.15-7.26 3.35-7.26L3.35-7.26Q4.00-7.26 4.57-7.14Q5.13-7.01 5.63-6.78L5.63-6.78L5.23-5.85Q4.77-6.04 4.28-6.17Q3.79-6.30 3.27-6.30L3.27-6.30Q2.55-6.30 2.17-6.07Q1.80-5.84 1.80-5.44L1.80-5.44Q1.80-5.15 1.97-4.94Q2.14-4.73 2.55-4.54Q2.95-4.35 3.63-4.08L3.63-4.08Q4.31-3.83 4.79-3.56Q5.27-3.29 5.52-2.91Q5.77-2.54 5.77-1.97L5.77-1.97Q5.77-0.93 5.00-0.40Q4.23 0.13 2.93 0.13Z" transform="translate(4, 9.3948)"/><rect x="0" y="0.133" width="14.3707" height="11.3948" class="clickable" style="cursor:pointer;fill:rgba(0, 0, 0, 0);fill-opacity:0;stroke-width:0px;"/></g></g><g id="sprotty_ArchitectureBlockImpl$work.mux2(struct)/GPortImpl$d1" transform="translate(0, 72.69075012207031)" class="triangle"><path d="M 0,0 L 5,2.5 L 0,5 Z" transform="translate(-1.67, -2.5)" class="sprotty-port" style="fill:rgb(48, 48, 48);stroke:rgb(48, 48, 48);"/><g class="port sprotty-label" id="sprotty_ArchitectureBlockImpl$work.mux2(struct)/GPortImpl$d1/label" transform="translate(3, 3) translate(0, -0.13300000131130219)" style="cursor:default;fill:rgb(48, 48, 48);font-family:Arial, Helvetica, sans-serif;text-anchor:middle;"><path d="M3.66 0.13L3.66 0.13Q2.33 0.13 1.53-0.79Q0.73-1.72 0.73-3.55L0.73-3.55Q0.73-5.39 1.54-6.32Q2.34-7.26 3.67-7.26L3.67-7.26Q4.50-7.26 5.02-6.96Q5.55-6.65 5.88-6.21L5.88-6.21L5.96-6.21Q5.95-6.38 5.91-6.72Q5.88-7.06 5.88-7.26L5.88-7.26L5.88-10.11L7.05-10.11L7.05 0L6.10 0L5.93-0.96L5.88-0.96Q5.56-0.51 5.03-0.19Q4.50 0.13 3.66 0.13ZM3.84-0.84L3.84-0.84Q4.97-0.84 5.43-1.46Q5.89-2.07 5.89-3.33L5.89-3.33L5.89-3.54Q5.89-4.87 5.45-5.58Q5.01-6.29 3.83-6.29L3.83-6.29Q2.89-6.29 2.41-5.54Q1.94-4.79 1.94-3.52L1.94-3.52Q1.94-2.25 2.41-1.54Q2.89-0.84 3.84-0.84ZM12.90 0L11.76 0L11.76-6.64Q11.76-7.21 11.77-7.55Q11.78-7.90 11.81-8.27L11.81-8.27Q11.60-8.07 11.42-7.92Q11.25-7.77 10.99-7.54L10.99-7.54L9.98-6.72L9.36-7.50L11.93-9.50L12.90-9.50L12.90 0Z" transform="translate(4, 12.241)"/><rect x="0" y="0.133" width="23.787100000000002" height="14.241" class="clickable" style="cursor:pointer;fill:rgba(0, 0, 0, 0);fill-opacity:0;stroke-width:0px;"/></g></g><g id="sprotty_ArchitectureBlockImpl$work.mux2(struct)/GPortImpl$d0" transform="translate(0, 133.07890033721924)" class="triangle"><path d="M 0,0 L 5,2.5 L 0,5 Z" transform="translate(-1.67, -2.5)" class="sprotty-port" style="fill:rgb(48, 48, 48);stroke:rgb(48, 48, 48);"/><g class="port sprotty-label" id="sprotty_ArchitectureBlockImpl$work.mux2(struct)/GPortImpl$d0/label" transform="translate(3, 3) translate(0, -0.13300000131130219)" style="cursor:default;fill:rgb(48, 48, 48);font-family:Arial, Helvetica, sans-serif;text-anchor:middle;"><path d="M3.66 0.13L3.66 0.13Q2.33 0.13 1.53-0.79Q0.73-1.72 0.73-3.55L0.73-3.55Q0.73-5.39 1.54-6.32Q2.34-7.26 3.67-7.26L3.67-7.26Q4.50-7.26 5.02-6.96Q5.55-6.65 5.88-6.21L5.88-6.21L5.96-6.21Q5.95-6.38 5.91-6.72Q5.88-7.06 5.88-7.26L5.88-7.26L5.88-10.11L7.05-10.11L7.05 0L6.10 0L5.93-0.96L5.88-0.96Q5.56-0.51 5.03-0.19Q4.50 0.13 3.66 0.13ZM3.84-0.84L3.84-0.84Q4.97-0.84 5.43-1.46Q5.89-2.07 5.89-3.33L5.89-3.33L5.89-3.54Q5.89-4.87 5.45-5.58Q5.01-6.29 3.83-6.29L3.83-6.29Q2.89-6.29 2.41-5.54Q1.94-4.79 1.94-3.52L1.94-3.52Q1.94-2.25 2.41-1.54Q2.89-0.84 3.84-0.84ZM11.97 0.13L11.97 0.13Q10.36 0.13 9.60-1.16Q8.83-2.46 8.83-4.76L8.83-4.76Q8.83-6.30 9.14-7.39Q9.46-8.49 10.15-9.06Q10.84-9.64 11.97-9.64L11.97-9.64Q13.57-9.64 14.35-8.36Q15.14-7.08 15.14-4.76L15.14-4.76Q15.14-3.23 14.82-2.13Q14.50-1.04 13.81-0.45Q13.11 0.13 11.97 0.13ZM11.97-0.86L11.97-0.86Q13.03-0.86 13.49-1.83Q13.95-2.79 13.95-4.76L13.95-4.76Q13.95-6.70 13.49-7.67Q13.03-8.65 11.97-8.65L11.97-8.65Q10.89-8.65 10.45-7.67Q10.00-6.70 10.00-4.76L10.00-4.76Q10.00-2.81 10.45-1.84Q10.89-0.86 11.97-0.86Z" transform="translate(4, 12.241)"/><rect x="0" y="0.133" width="23.787100000000002" height="14.241" class="clickable" style="cursor:pointer;fill:rgba(0, 0, 0, 0);fill-opacity:0;stroke-width:0px;"/></g></g><g id="sprotty_ArchitectureBlockImpl$work.mux2(struct)/GPortImpl$y" transform="translate(322.7263488769531, 83.38815021514893)" class="triangle"><path d="M 0,0 L 5,2.5 L 0,5 Z" transform="translate(-1.67, -2.5)" class="sprotty-port" style="fill:rgb(48, 48, 48);stroke:rgb(48, 48, 48);"/><g class="port sprotty-label" id="sprotty_ArchitectureBlockImpl$work.mux2(struct)/GPortImpl$y/label" transform="translate(-17.782999992370605, 3) translate(0, -3.191999912261963)" style="cursor:default;fill:rgb(48, 48, 48);font-family:Arial, Helvetica, sans-serif;text-anchor:middle;"><path d="M1.12 3.19L1.12 3.19Q0.80 3.19 0.56 3.16Q0.32 3.13 0.15 3.09L0.15 3.09L0.15 2.15Q0.29 2.18 0.50 2.21Q0.70 2.23 0.93 2.23L0.93 2.23Q1.54 2.23 1.92 1.89Q2.29 1.54 2.51 0.97L2.51 0.97L2.89 0.03L0.01-7.13L1.26-7.13L2.81-3.07Q3.01-2.54 3.17-2.05Q3.33-1.57 3.40-1.13L3.40-1.13L3.46-1.13Q3.54-1.46 3.70-2.00Q3.87-2.54 4.07-3.09L4.07-3.09L5.52-7.13L6.78-7.13L3.71 0.98Q3.34 2.00 2.75 2.59Q2.15 3.19 1.12 3.19Z" transform="translate(4, 12.320800000000002)"/><rect x="0" y="3.192" width="14.783000000000001" height="14.320800000000002" class="clickable" style="cursor:pointer;fill:rgba(0, 0, 0, 0);fill-opacity:0;stroke-width:0px;"/></g></g></g></g></svg>