<svg xmlns="http://www.w3.org/2000/svg" id="sprotty_mux2" class="sprotty-graph sprotty-block-diagram blockdiagram" style="font-family:&quot;Helvetica Neue&quot;, Helvetica, Arial, sans-serif;line-height:18px;perspective-origin:0px 0px;transform-origin:0px 0px;z-index:0;" version="1.1" viewBox="9.5 12 159.1503125 103.87680053710938"><g transform="scale(1) translate(0,0)"><g id="sprotty_ArchitectureBlockImpl$work.mux2(struct)" transform="translate(12, 12)" class="architecture"><g class="sprotty-block" style="fill:rgb(245, 245, 245);stroke:rgb(48, 48, 48);stroke-dasharray:0px;"><rect x="0" y="0" rx="1" ry="1" width="152.3203125" height="103.87680053710938"/><path d="M14.64 16L12.40 16L11.44 12.27Q11.36 11.97 11.25 11.51Q11.14 11.06 11.02 10.56Q10.90 10.06 10.80 9.65Q10.70 9.23 10.66 9.01L10.66 9.01L10.59 9.01Q10.54 9.23 10.45 9.65Q10.35 10.06 10.24 10.57Q10.13 11.07 10.01 11.53Q9.89 11.98 9.81 12.29L9.81 12.29L8.80 16L6.59 16L4.16 7.31L6.19 7.31L7.26 11.46Q7.38 11.89 7.48 12.41Q7.58 12.93 7.66 13.42Q7.73 13.90 7.78 14.21L7.78 14.21L7.84 14.21Q7.87 13.92 7.96 13.42Q8.05 12.93 8.14 12.46Q8.24 11.98 8.30 11.74L8.30 11.74L9.55 7.31L11.76 7.31L12.96 11.74Q13.02 12.03 13.13 12.50Q13.23 12.96 13.31 13.43Q13.39 13.90 13.41 14.19L13.41 14.19L13.47 14.19Q13.50 13.94 13.58 13.46Q13.66 12.98 13.78 12.43Q13.89 11.89 14.02 11.46L14.02 11.46L15.10 7.31L17.10 7.31L14.64 16ZM26.32 11.65L26.32 11.65Q26.32 13.81 25.20 14.98Q24.08 16.16 22.16 16.16L22.16 16.16Q20.98 16.16 20.05 15.63Q19.12 15.10 18.59 14.10Q18.06 13.09 18.06 11.65L18.06 11.65Q18.06 9.49 19.18 8.33Q20.29 7.17 22.21 7.17L22.21 7.17Q23.41 7.17 24.34 7.69Q25.26 8.21 25.79 9.21Q26.32 10.21 26.32 11.65ZM20.13 11.65L20.13 11.65Q20.13 13.02 20.62 13.78Q21.10 14.53 22.19 14.53L22.19 14.53Q23.28 14.53 23.77 13.78Q24.26 13.02 24.26 11.65L24.26 11.65Q24.26 10.27 23.77 9.54Q23.28 8.80 22.18 8.80L22.18 8.80Q21.10 8.80 20.62 9.54Q20.13 10.27 20.13 11.65ZM32.94 7.17L32.94 7.17Q33.15 7.17 33.40 7.18Q33.65 7.20 33.82 7.25L33.82 7.25L33.65 9.12Q33.49 9.09 33.26 9.06Q33.04 9.04 32.86 9.04L32.86 9.04Q32.22 9.04 31.66 9.30Q31.10 9.57 30.76 10.12Q30.42 10.67 30.42 11.50L30.42 11.50L30.42 16L28.40 16L28.40 7.33L29.95 7.33L30.24 8.83L30.34 8.83Q30.72 8.14 31.39 7.66Q32.06 7.17 32.94 7.17ZM35.42 3.84L37.42 3.84L37.42 9.62Q37.42 10.03 37.39 10.50Q37.36 10.96 37.33 11.38L37.33 11.38L37.38 11.38Q37.57 11.09 37.86 10.72Q38.14 10.35 38.40 10.06L38.40 10.06L40.96 7.33L43.25 7.33L39.78 11.07L43.47 16L41.12 16L38.43 12.29L37.42 13.12L37.42 16L35.42 16L35.42 3.84ZM44.54 14.98L44.54 14.98Q44.54 14.30 44.90 14.02Q45.25 13.74 45.76 13.74L45.76 13.74Q46.26 13.74 46.62 14.02Q46.99 14.30 46.99 14.98L46.99 14.98Q46.99 15.63 46.62 15.92Q46.26 16.21 45.76 16.21L45.76 16.21Q45.25 16.21 44.90 15.92Q44.54 15.63 44.54 14.98ZM59.23 7.17L59.23 7.17Q60.70 7.17 61.45 7.92Q62.19 8.67 62.19 10.35L62.19 10.35L62.19 16L60.18 16L60.18 10.74Q60.18 8.80 58.70 8.80L58.70 8.80Q57.65 8.80 57.20 9.49Q56.75 10.18 56.75 11.49L56.75 11.49L56.75 16L54.74 16L54.74 10.74Q54.74 8.80 53.25 8.80L53.25 8.80Q52.14 8.80 51.73 9.57Q51.31 10.34 51.31 11.76L51.31 11.76L51.31 16L49.30 16L49.30 7.33L50.85 7.33L51.14 8.46L51.25 8.46Q51.63 7.79 52.33 7.48Q53.02 7.17 53.78 7.17L53.78 7.17Q54.75 7.17 55.42 7.50Q56.08 7.82 56.43 8.51L56.43 8.51L56.59 8.51Q56.99 7.81 57.71 7.49Q58.43 7.17 59.23 7.17ZM70.40 7.33L72.42 7.33L72.42 16L70.83 16L70.56 14.88L70.46 14.88Q70.03 15.55 69.30 15.86Q68.58 16.16 67.76 16.16L67.76 16.16Q66.30 16.16 65.48 15.41Q64.66 14.66 64.66 12.99L64.66 12.99L64.66 7.33L66.67 7.33L66.67 12.59Q66.67 14.53 68.27 14.53L68.27 14.53Q69.49 14.53 69.94 13.77Q70.40 13.01 70.40 11.57L70.40 11.57L70.40 7.33ZM73.86 16L76.86 11.57L74.00 7.33L76.29 7.33L78.18 10.27L80.06 7.33L82.35 7.33L79.46 11.57L82.50 16L80.21 16L78.18 12.85L76.14 16L73.86 16ZM91.17 14.26L91.17 16L83.34 16L83.34 14.51L86.26 11.57Q87.12 10.69 87.67 10.06Q88.22 9.44 88.49 8.89Q88.75 8.34 88.75 7.70L88.75 7.70Q88.75 6.91 88.30 6.52Q87.86 6.13 87.12 6.13L87.12 6.13Q86.40 6.13 85.78 6.42Q85.15 6.72 84.48 7.26L84.48 7.26L83.38 5.94Q84.08 5.33 84.98 4.87Q85.87 4.42 87.23 4.42L87.23 4.42Q88.34 4.42 89.14 4.81Q89.94 5.20 90.36 5.89Q90.78 6.58 90.78 7.49L90.78 7.49Q90.78 8.42 90.42 9.19Q90.05 9.97 89.35 10.74Q88.66 11.52 87.70 12.42L87.70 12.42L85.89 14.16L85.89 14.26L91.17 14.26ZM92.45 11.62L92.45 11.62Q92.45 9.66 93.02 7.85Q93.58 6.03 94.80 4.58L94.80 4.58L96.51 4.58Q95.41 6.08 94.85 7.89Q94.29 9.70 94.29 11.60L94.29 11.60Q94.29 13.46 94.85 15.25Q95.41 17.04 96.50 18.53L96.50 18.53L94.80 18.53Q93.58 17.12 93.02 15.34Q92.45 13.55 92.45 11.62ZM104.19 13.49L104.19 13.49Q104.19 14.80 103.26 15.48Q102.32 16.16 100.58 16.16L100.58 16.16Q99.66 16.16 99.02 16.03Q98.37 15.90 97.76 15.63L97.76 15.63L97.76 13.92Q98.40 14.22 99.18 14.43Q99.95 14.64 100.64 14.64L100.64 14.64Q101.47 14.64 101.84 14.38Q102.21 14.13 102.21 13.70L102.21 13.70Q102.21 13.44 102.06 13.24Q101.92 13.04 101.50 12.80Q101.07 12.56 100.24 12.21L100.24 12.21Q99.41 11.89 98.86 11.54Q98.30 11.20 98.02 10.74Q97.74 10.27 97.74 9.54L97.74 9.54Q97.74 8.37 98.66 7.77Q99.58 7.17 101.12 7.17L101.12 7.17Q101.92 7.17 102.63 7.33Q103.34 7.49 104.06 7.81L104.06 7.81L103.42 9.30Q102.82 9.04 102.24 8.86Q101.66 8.69 101.06 8.69L101.06 8.69Q99.73 8.69 99.73 9.44L99.73 9.44Q99.73 9.71 99.90 9.90Q100.06 10.10 100.49 10.31Q100.91 10.53 101.70 10.83L101.70 10.83Q102.46 11.14 103.02 11.46Q103.58 11.79 103.89 12.27Q104.19 12.75 104.19 13.49ZM109.49 14.54L109.49 14.54Q109.86 14.54 110.22 14.47Q110.58 14.40 110.88 14.30L110.88 14.30L110.88 15.81Q110.56 15.95 110.05 16.06Q109.54 16.16 108.98 16.16L108.98 16.16Q108.24 16.16 107.63 15.91Q107.02 15.66 106.67 15.06Q106.32 14.45 106.32 13.36L106.32 13.36L106.32 8.85L105.15 8.85L105.15 7.97L106.43 7.26L107.07 5.42L108.34 5.42L108.34 7.33L110.80 7.33L110.80 8.85L108.34 8.85L108.34 13.34Q108.34 13.95 108.66 14.25Q108.98 14.54 109.49 14.54ZM117.17 7.17L117.17 7.17Q117.38 7.17 117.62 7.18Q117.87 7.20 118.05 7.25L118.05 7.25L117.87 9.12Q117.71 9.09 117.49 9.06Q117.26 9.04 117.09 9.04L117.09 9.04Q116.45 9.04 115.89 9.30Q115.33 9.57 114.98 10.12Q114.64 10.67 114.64 11.50L114.64 11.50L114.64 16L112.62 16L112.62 7.33L114.18 7.33L114.46 8.83L114.56 8.83Q114.94 8.14 115.62 7.66Q116.29 7.17 117.17 7.17ZM125.33 7.33L127.34 7.33L127.34 16L125.76 16L125.49 14.88L125.39 14.88Q124.96 15.55 124.23 15.86Q123.50 16.16 122.69 16.16L122.69 16.16Q121.23 16.16 120.41 15.41Q119.58 14.66 119.58 12.99L119.58 12.99L119.58 7.33L121.60 7.33L121.60 12.59Q121.60 14.53 123.20 14.53L123.20 14.53Q124.42 14.53 124.87 13.77Q125.33 13.01 125.33 11.57L125.33 11.57L125.33 7.33ZM133.42 16.16L133.42 16.16Q131.55 16.16 130.48 15.09Q129.41 14.02 129.41 11.71L129.41 11.71Q129.41 10.11 129.94 9.11Q130.48 8.11 131.42 7.64Q132.37 7.17 133.58 7.17L133.58 7.17Q134.40 7.17 135.04 7.33Q135.68 7.49 136.13 7.71L136.13 7.71L135.54 9.30Q135.04 9.10 134.54 8.97Q134.05 8.83 133.58 8.83L133.58 8.83Q131.47 8.83 131.47 11.70L131.47 11.70Q131.47 13.09 132.01 13.79Q132.54 14.50 133.55 14.50L133.55 14.50Q134.27 14.50 134.83 14.32Q135.39 14.14 135.90 13.84L135.90 13.84L135.90 15.58Q135.41 15.87 134.84 16.02Q134.27 16.16 133.42 16.16ZM141.30 14.54L141.30 14.54Q141.66 14.54 142.02 14.47Q142.38 14.40 142.69 14.30L142.69 14.30L142.69 15.81Q142.37 15.95 141.86 16.06Q141.34 16.16 140.78 16.16L140.78 16.16Q140.05 16.16 139.44 15.91Q138.83 15.66 138.48 15.06Q138.13 14.45 138.13 13.36L138.13 13.36L138.13 8.85L136.96 8.85L136.96 7.97L138.24 7.26L138.88 5.42L140.14 5.42L140.14 7.33L142.61 7.33L142.61 8.85L140.14 8.85L140.14 13.34Q140.14 13.95 140.46 14.25Q140.78 14.54 141.30 14.54ZM147.68 11.62L147.68 11.62Q147.68 13.55 147.11 15.34Q146.54 17.12 145.33 18.53L145.33 18.53L143.63 18.53Q144.72 17.04 145.29 15.25Q145.86 13.46 145.86 11.60L145.86 11.60Q145.86 9.70 145.29 7.89Q144.72 6.08 143.62 4.58L143.62 4.58L145.33 4.58Q146.54 6.03 147.11 7.85Q147.68 9.66 147.68 11.62Z" class="sprotty-block-name" style="fill:rgb(48, 48, 48);stroke:rgba(0, 0, 0, 0);"/><line x1="0" y1="20" x2="152.3203125" y2="20"/></g><g id="sprotty_ArchitectureBlockImpl$work.mux2(struct)/GPortImpl$s" transform="translate(0, 86.17940044403076)" class="triangle"><path d="M 0,0 L 5,2.5 L 0,5 Z" transform="translate(-1.67, -2.5)" class="sprotty-port" style="fill:rgb(48, 48, 48);stroke:rgb(48, 48, 48);"/><g class="port sprotty-label" id="sprotty_ArchitectureBlockImpl$work.mux2(struct)/GPortImpl$s/label" transform="translate(3, -5.697400093078613) translate(0, -0.13300000131130219)" style="cursor:default;fill:rgb(48, 48, 48);font-family:Arial, Helvetica, sans-serif;text-anchor:middle;"><path d="M2.93 0.13L2.93 0.13Q2.18 0.13 1.64 0.01Q1.10-0.11 0.69-0.32L0.69-0.32L0.69-1.38Q1.12-1.17 1.72-0.99Q2.33-0.81 2.95-0.81L2.95-0.81Q3.84-0.81 4.24-1.10Q4.64-1.38 4.64-1.86L4.64-1.86Q4.64-2.13 4.50-2.34Q4.35-2.55 3.97-2.77Q3.59-2.98 2.89-3.25L2.89-3.25Q2.19-3.51 1.70-3.78Q1.21-4.04 0.94-4.42Q0.68-4.79 0.68-5.37L0.68-5.37Q0.68-6.28 1.42-6.77Q2.15-7.26 3.35-7.26L3.35-7.26Q4.00-7.26 4.57-7.14Q5.13-7.01 5.63-6.78L5.63-6.78L5.23-5.85Q4.77-6.04 4.28-6.17Q3.79-6.30 3.27-6.30L3.27-6.30Q2.55-6.30 2.17-6.07Q1.80-5.84 1.80-5.44L1.80-5.44Q1.80-5.15 1.97-4.94Q2.14-4.73 2.55-4.54Q2.95-4.35 3.63-4.08L3.63-4.08Q4.31-3.83 4.79-3.56Q5.27-3.29 5.52-2.91Q5.77-2.54 5.77-1.97L5.77-1.97Q5.77-0.93 5.00-0.40Q4.23 0.13 2.93 0.13Z" transform="translate(4, 9.3948)"/><rect x="0" y="0.133" width="14.3707" height="11.3948" class="clickable" style="cursor:pointer;fill:rgba(0, 0, 0, 0);fill-opacity:0;stroke-width:0px;"/></g></g><g id="sprotty_ArchitectureBlockImpl$work.mux2(struct)/GPortImpl$d1" transform="translate(0, 63.36150026321411)" class="triangle"><path d="M 0,0 L 5,2.5 L 0,5 Z" transform="translate(-1.67, -2.5)" class="sprotty-port" style="fill:rgb(48, 48, 48);stroke:rgb(48, 48, 48);"/><g class="port sprotty-label" id="sprotty_ArchitectureBlockImpl$work.mux2(struct)/GPortImpl$d1/label" transform="translate(3, -7.120500087738037) translate(0, -0.13300000131130219)" style="cursor:default;fill:rgb(48, 48, 48);font-family:Arial, Helvetica, sans-serif;text-anchor:middle;"><path d="M3.66 0.13L3.66 0.13Q2.33 0.13 1.53-0.79Q0.73-1.72 0.73-3.55L0.73-3.55Q0.73-5.39 1.54-6.32Q2.34-7.26 3.67-7.26L3.67-7.26Q4.50-7.26 5.02-6.96Q5.55-6.65 5.88-6.21L5.88-6.21L5.96-6.21Q5.95-6.38 5.91-6.72Q5.88-7.06 5.88-7.26L5.88-7.26L5.88-10.11L7.05-10.11L7.05 0L6.10 0L5.93-0.96L5.88-0.96Q5.56-0.51 5.03-0.19Q4.50 0.13 3.66 0.13ZM3.84-0.84L3.84-0.84Q4.97-0.84 5.43-1.46Q5.89-2.07 5.89-3.33L5.89-3.33L5.89-3.54Q5.89-4.87 5.45-5.58Q5.01-6.29 3.83-6.29L3.83-6.29Q2.89-6.29 2.41-5.54Q1.94-4.79 1.94-3.52L1.94-3.52Q1.94-2.25 2.41-1.54Q2.89-0.84 3.84-0.84ZM12.90 0L11.76 0L11.76-6.64Q11.76-7.21 11.77-7.55Q11.78-7.90 11.81-8.27L11.81-8.27Q11.60-8.07 11.42-7.92Q11.25-7.77 10.99-7.54L10.99-7.54L9.98-6.72L9.36-7.50L11.93-9.50L12.90-9.50L12.90 0Z" transform="translate(4, 12.241)"/><rect x="0" y="0.133" width="23.787100000000002" height="14.241" class="clickable" style="cursor:pointer;fill:rgba(0, 0, 0, 0);fill-opacity:0;stroke-width:0px;"/></g></g><g id="sprotty_ArchitectureBlockImpl$work.mux2(struct)/GPortImpl$d0" transform="translate(0, 39.12050008773804)" class="triangle"><path d="M 0,0 L 5,2.5 L 0,5 Z" transform="translate(-1.67, -2.5)" class="sprotty-port" style="fill:rgb(48, 48, 48);stroke:rgb(48, 48, 48);"/><g class="port sprotty-label" id="sprotty_ArchitectureBlockImpl$work.mux2(struct)/GPortImpl$d0/label" transform="translate(3, -7.120500087738037) translate(0, -0.13300000131130219)" style="cursor:default;fill:rgb(48, 48, 48);font-family:Arial, Helvetica, sans-serif;text-anchor:middle;"><path d="M3.66 0.13L3.66 0.13Q2.33 0.13 1.53-0.79Q0.73-1.72 0.73-3.55L0.73-3.55Q0.73-5.39 1.54-6.32Q2.34-7.26 3.67-7.26L3.67-7.26Q4.50-7.26 5.02-6.96Q5.55-6.65 5.88-6.21L5.88-6.21L5.96-6.21Q5.95-6.38 5.91-6.72Q5.88-7.06 5.88-7.26L5.88-7.26L5.88-10.11L7.05-10.11L7.05 0L6.10 0L5.93-0.96L5.88-0.96Q5.56-0.51 5.03-0.19Q4.50 0.13 3.66 0.13ZM3.84-0.84L3.84-0.84Q4.97-0.84 5.43-1.46Q5.89-2.07 5.89-3.33L5.89-3.33L5.89-3.54Q5.89-4.87 5.45-5.58Q5.01-6.29 3.83-6.29L3.83-6.29Q2.89-6.29 2.41-5.54Q1.94-4.79 1.94-3.52L1.94-3.52Q1.94-2.25 2.41-1.54Q2.89-0.84 3.84-0.84ZM11.97 0.13L11.97 0.13Q10.36 0.13 9.60-1.16Q8.83-2.46 8.83-4.76L8.83-4.76Q8.83-6.30 9.14-7.39Q9.46-8.49 10.15-9.06Q10.84-9.64 11.97-9.64L11.97-9.64Q13.57-9.64 14.35-8.36Q15.14-7.08 15.14-4.76L15.14-4.76Q15.14-3.23 14.82-2.13Q14.50-1.04 13.81-0.45Q13.11 0.13 11.97 0.13ZM11.97-0.86L11.97-0.86Q13.03-0.86 13.49-1.83Q13.95-2.79 13.95-4.76L13.95-4.76Q13.95-6.70 13.49-7.67Q13.03-8.65 11.97-8.65L11.97-8.65Q10.89-8.65 10.45-7.67Q10.00-6.70 10.00-4.76L10.00-4.76Q10.00-2.81 10.45-1.84Q10.89-0.86 11.97-0.86Z" transform="translate(4, 12.241)"/><rect x="0" y="0.133" width="23.787100000000002" height="14.241" class="clickable" style="cursor:pointer;fill:rgba(0, 0, 0, 0);fill-opacity:0;stroke-width:0px;"/></g></g><g id="sprotty_ArchitectureBlockImpl$work.mux2(struct)/GPortImpl$y" transform="translate(152.3203125, 61.93840026855469)" class="triangle"><path d="M 0,0 L 5,2.5 L 0,5 Z" transform="translate(-1.67, -2.5)" class="sprotty-port" style="fill:rgb(48, 48, 48);stroke:rgb(48, 48, 48);"/><g class="port sprotty-label" id="sprotty_ArchitectureBlockImpl$work.mux2(struct)/GPortImpl$y/label" transform="translate(-17.782999992370605, -7.160400390625) translate(0, -3.191999912261963)" style="cursor:default;fill:rgb(48, 48, 48);font-family:Arial, Helvetica, sans-serif;text-anchor:middle;"><path d="M1.12 3.19L1.12 3.19Q0.80 3.19 0.56 3.16Q0.32 3.13 0.15 3.09L0.15 3.09L0.15 2.15Q0.29 2.18 0.50 2.21Q0.70 2.23 0.93 2.23L0.93 2.23Q1.54 2.23 1.92 1.89Q2.29 1.54 2.51 0.97L2.51 0.97L2.89 0.03L0.01-7.13L1.26-7.13L2.81-3.07Q3.01-2.54 3.17-2.05Q3.33-1.57 3.40-1.13L3.40-1.13L3.46-1.13Q3.54-1.46 3.70-2.00Q3.87-2.54 4.07-3.09L4.07-3.09L5.52-7.13L6.78-7.13L3.71 0.98Q3.34 2.00 2.75 2.59Q2.15 3.19 1.12 3.19Z" transform="translate(4, 12.320800000000002)"/><rect x="0" y="3.192" width="14.783000000000001" height="14.320800000000002" class="clickable" style="cursor:pointer;fill:rgba(0, 0, 0, 0);fill-opacity:0;stroke-width:0px;"/></g></g></g></g></svg>