<svg xmlns="http://www.w3.org/2000/svg" id="sprotty_tristate" class="sprotty-graph sprotty-block-diagram blockdiagram" style="font-family:&quot;Helvetica Neue&quot;, Helvetica, Arial, sans-serif;line-height:18px;perspective-origin:0px 0px;transform-origin:0px 0px;z-index:0;" version="1.1" viewBox="9.5 12 170.4784375 88.77630043029785"><g transform="scale(1) translate(0,0)"><g id="sprotty_ArchitectureBlockImpl$work.tristate(synth)" transform="translate(12, 12)" class="architecture"><g class="sprotty-block" style="fill:rgb(245, 245, 245);stroke:rgb(48, 48, 48);stroke-dasharray:0px;"><rect x="0" y="0" rx="1" ry="1" width="163.6484375" height="88.77630043029785"/><path d="M14.64 16L12.40 16L11.44 12.27Q11.36 11.97 11.25 11.51Q11.14 11.06 11.02 10.56Q10.90 10.06 10.80 9.65Q10.70 9.23 10.66 9.01L10.66 9.01L10.59 9.01Q10.54 9.23 10.45 9.65Q10.35 10.06 10.24 10.57Q10.13 11.07 10.01 11.53Q9.89 11.98 9.81 12.29L9.81 12.29L8.80 16L6.59 16L4.16 7.31L6.19 7.31L7.26 11.46Q7.38 11.89 7.48 12.41Q7.58 12.93 7.66 13.42Q7.73 13.90 7.78 14.21L7.78 14.21L7.84 14.21Q7.87 13.92 7.96 13.42Q8.05 12.93 8.14 12.46Q8.24 11.98 8.30 11.74L8.30 11.74L9.55 7.31L11.76 7.31L12.96 11.74Q13.02 12.03 13.13 12.50Q13.23 12.96 13.31 13.43Q13.39 13.90 13.41 14.19L13.41 14.19L13.47 14.19Q13.50 13.94 13.58 13.46Q13.66 12.98 13.78 12.43Q13.89 11.89 14.02 11.46L14.02 11.46L15.10 7.31L17.10 7.31L14.64 16ZM26.32 11.65L26.32 11.65Q26.32 13.81 25.20 14.98Q24.08 16.16 22.16 16.16L22.16 16.16Q20.98 16.16 20.05 15.63Q19.12 15.10 18.59 14.10Q18.06 13.09 18.06 11.65L18.06 11.65Q18.06 9.49 19.18 8.33Q20.29 7.17 22.21 7.17L22.21 7.17Q23.41 7.17 24.34 7.69Q25.26 8.21 25.79 9.21Q26.32 10.21 26.32 11.65ZM20.13 11.65L20.13 11.65Q20.13 13.02 20.62 13.78Q21.10 14.53 22.19 14.53L22.19 14.53Q23.28 14.53 23.77 13.78Q24.26 13.02 24.26 11.65L24.26 11.65Q24.26 10.27 23.77 9.54Q23.28 8.80 22.18 8.80L22.18 8.80Q21.10 8.80 20.62 9.54Q20.13 10.27 20.13 11.65ZM32.94 7.17L32.94 7.17Q33.15 7.17 33.40 7.18Q33.65 7.20 33.82 7.25L33.82 7.25L33.65 9.12Q33.49 9.09 33.26 9.06Q33.04 9.04 32.86 9.04L32.86 9.04Q32.22 9.04 31.66 9.30Q31.10 9.57 30.76 10.12Q30.42 10.67 30.42 11.50L30.42 11.50L30.42 16L28.40 16L28.40 7.33L29.95 7.33L30.24 8.83L30.34 8.83Q30.72 8.14 31.39 7.66Q32.06 7.17 32.94 7.17ZM35.42 3.84L37.42 3.84L37.42 9.62Q37.42 10.03 37.39 10.50Q37.36 10.96 37.33 11.38L37.33 11.38L37.38 11.38Q37.57 11.09 37.86 10.72Q38.14 10.35 38.40 10.06L38.40 10.06L40.96 7.33L43.25 7.33L39.78 11.07L43.47 16L41.12 16L38.43 12.29L37.42 13.12L37.42 16L35.42 16L35.42 3.84ZM44.54 14.98L44.54 14.98Q44.54 14.30 44.90 14.02Q45.25 13.74 45.76 13.74L45.76 13.74Q46.26 13.74 46.62 14.02Q46.99 14.30 46.99 14.98L46.99 14.98Q46.99 15.63 46.62 15.92Q46.26 16.21 45.76 16.21L45.76 16.21Q45.25 16.21 44.90 15.92Q44.54 15.63 44.54 14.98ZM52.66 14.54L52.66 14.54Q53.02 14.54 53.38 14.47Q53.74 14.40 54.05 14.30L54.05 14.30L54.05 15.81Q53.73 15.95 53.22 16.06Q52.70 16.16 52.14 16.16L52.14 16.16Q51.41 16.16 50.80 15.91Q50.19 15.66 49.84 15.06Q49.49 14.45 49.49 13.36L49.49 13.36L49.49 8.85L48.32 8.85L48.32 7.97L49.60 7.26L50.24 5.42L51.50 5.42L51.50 7.33L53.97 7.33L53.97 8.85L51.50 8.85L51.50 13.34Q51.50 13.95 51.82 14.25Q52.14 14.54 52.66 14.54ZM60.34 7.17L60.34 7.17Q60.54 7.17 60.79 7.18Q61.04 7.20 61.22 7.25L61.22 7.25L61.04 9.12Q60.88 9.09 60.66 9.06Q60.43 9.04 60.26 9.04L60.26 9.04Q59.62 9.04 59.06 9.30Q58.50 9.57 58.15 10.12Q57.81 10.67 57.81 11.50L57.81 11.50L57.81 16L55.79 16L55.79 7.33L57.34 7.33L57.63 8.83L57.73 8.83Q58.11 8.14 58.78 7.66Q59.46 7.17 60.34 7.17ZM63.82 3.98L63.82 3.98Q64.29 3.98 64.62 4.22Q64.94 4.45 64.94 5.04L64.94 5.04Q64.94 5.63 64.62 5.87Q64.29 6.11 63.82 6.11L63.82 6.11Q63.36 6.11 63.03 5.87Q62.70 5.63 62.70 5.04L62.70 5.04Q62.70 4.45 63.03 4.22Q63.36 3.98 63.82 3.98ZM62.82 7.33L64.83 7.33L64.83 16L62.82 16L62.82 7.33ZM73.31 13.49L73.31 13.49Q73.31 14.80 72.38 15.48Q71.44 16.16 69.70 16.16L69.70 16.16Q68.78 16.16 68.14 16.03Q67.49 15.90 66.88 15.63L66.88 15.63L66.88 13.92Q67.52 14.22 68.30 14.43Q69.07 14.64 69.76 14.64L69.76 14.64Q70.59 14.64 70.96 14.38Q71.33 14.13 71.33 13.70L71.33 13.70Q71.33 13.44 71.18 13.24Q71.04 13.04 70.62 12.80Q70.19 12.56 69.36 12.21L69.36 12.21Q68.53 11.89 67.98 11.54Q67.42 11.20 67.14 10.74Q66.86 10.27 66.86 9.54L66.86 9.54Q66.86 8.37 67.78 7.77Q68.70 7.17 70.24 7.17L70.24 7.17Q71.04 7.17 71.75 7.33Q72.46 7.49 73.18 7.81L73.18 7.81L72.54 9.30Q71.94 9.04 71.36 8.86Q70.78 8.69 70.18 8.69L70.18 8.69Q68.85 8.69 68.85 9.44L68.85 9.44Q68.85 9.71 69.02 9.90Q69.18 10.10 69.61 10.31Q70.03 10.53 70.82 10.83L70.82 10.83Q71.58 11.14 72.14 11.46Q72.70 11.79 73.01 12.27Q73.31 12.75 73.31 13.49ZM78.61 14.54L78.61 14.54Q78.98 14.54 79.34 14.47Q79.70 14.40 80.00 14.30L80.00 14.30L80.00 15.81Q79.68 15.95 79.17 16.06Q78.66 16.16 78.10 16.16L78.10 16.16Q77.36 16.16 76.75 15.91Q76.14 15.66 75.79 15.06Q75.44 14.45 75.44 13.36L75.44 13.36L75.44 8.85L74.27 8.85L74.27 7.97L75.55 7.26L76.19 5.42L77.46 5.42L77.46 7.33L79.92 7.33L79.92 8.85L77.46 8.85L77.46 13.34Q77.46 13.95 77.78 14.25Q78.10 14.54 78.61 14.54ZM85.20 7.17L85.20 7.17Q86.88 7.17 87.75 7.90Q88.62 8.64 88.62 10.18L88.62 10.18L88.62 16L87.20 16L86.80 14.80L86.74 14.80Q86.18 15.50 85.55 15.83Q84.93 16.16 83.86 16.16L83.86 16.16Q82.69 16.16 81.92 15.50Q81.15 14.85 81.15 13.47L81.15 13.47Q81.15 12.13 82.14 11.46Q83.12 10.78 85.12 10.70L85.12 10.70L86.62 10.66L86.62 10.22Q86.62 9.41 86.22 9.05Q85.82 8.69 85.10 8.69L85.10 8.69Q84.45 8.69 83.85 8.88Q83.25 9.07 82.66 9.33L82.66 9.33L82.02 7.92Q82.66 7.58 83.48 7.38Q84.30 7.17 85.20 7.17ZM86.62 12.64L86.62 11.90L85.57 11.94Q84.24 11.98 83.73 12.39Q83.22 12.80 83.22 13.49L83.22 13.49Q83.22 14.11 83.58 14.38Q83.94 14.64 84.53 14.64L84.53 14.64Q85.41 14.64 86.02 14.14Q86.62 13.63 86.62 12.64L86.62 12.64ZM94.51 14.54L94.51 14.54Q94.88 14.54 95.24 14.47Q95.60 14.40 95.90 14.30L95.90 14.30L95.90 15.81Q95.58 15.95 95.07 16.06Q94.56 16.16 94.00 16.16L94.00 16.16Q93.26 16.16 92.66 15.91Q92.05 15.66 91.70 15.06Q91.34 14.45 91.34 13.36L91.34 13.36L91.34 8.85L90.18 8.85L90.18 7.97L91.46 7.26L92.10 5.42L93.36 5.42L93.36 7.33L95.82 7.33L95.82 8.85L93.36 8.85L93.36 13.34Q93.36 13.95 93.68 14.25Q94.00 14.54 94.51 14.54ZM101.14 7.17L101.14 7.17Q102.88 7.17 103.90 8.21Q104.91 9.25 104.91 11.10L104.91 11.10L104.91 12.13L99.18 12.13Q99.22 13.31 99.84 13.96Q100.46 14.61 101.57 14.61L101.57 14.61Q102.40 14.61 103.07 14.44Q103.74 14.27 104.45 13.95L104.45 13.95L104.45 15.57Q103.81 15.87 103.12 16.02Q102.43 16.16 101.47 16.16L101.47 16.16Q100.21 16.16 99.22 15.67Q98.24 15.18 97.69 14.19Q97.14 13.20 97.14 11.73L97.14 11.73Q97.14 9.50 98.24 8.34Q99.34 7.17 101.14 7.17ZM101.14 8.66L101.14 8.66Q100.32 8.66 99.82 9.18Q99.31 9.70 99.23 10.72L99.23 10.72L102.96 10.72Q102.94 9.82 102.50 9.24Q102.06 8.66 101.14 8.66ZM106.29 11.62L106.29 11.62Q106.29 9.66 106.86 7.85Q107.42 6.03 108.64 4.58L108.64 4.58L110.35 4.58Q109.25 6.08 108.69 7.89Q108.13 9.70 108.13 11.60L108.13 11.60Q108.13 13.46 108.69 15.25Q109.25 17.04 110.34 18.53L110.34 18.53L108.64 18.53Q107.42 17.12 106.86 15.34Q106.29 13.55 106.29 11.62ZM118.03 13.49L118.03 13.49Q118.03 14.80 117.10 15.48Q116.16 16.16 114.42 16.16L114.42 16.16Q113.50 16.16 112.86 16.03Q112.21 15.90 111.60 15.63L111.60 15.63L111.60 13.92Q112.24 14.22 113.02 14.43Q113.79 14.64 114.48 14.64L114.48 14.64Q115.31 14.64 115.68 14.38Q116.05 14.13 116.05 13.70L116.05 13.70Q116.05 13.44 115.90 13.24Q115.76 13.04 115.34 12.80Q114.91 12.56 114.08 12.21L114.08 12.21Q113.25 11.89 112.70 11.54Q112.14 11.20 111.86 10.74Q111.58 10.27 111.58 9.54L111.58 9.54Q111.58 8.37 112.50 7.77Q113.42 7.17 114.96 7.17L114.96 7.17Q115.76 7.17 116.47 7.33Q117.18 7.49 117.90 7.81L117.90 7.81L117.26 9.30Q116.66 9.04 116.08 8.86Q115.50 8.69 114.90 8.69L114.90 8.69Q113.57 8.69 113.57 9.44L113.57 9.44Q113.57 9.71 113.74 9.90Q113.90 10.10 114.33 10.31Q114.75 10.53 115.54 10.83L115.54 10.83Q116.30 11.14 116.86 11.46Q117.42 11.79 117.73 12.27Q118.03 12.75 118.03 13.49ZM122.14 15.97L118.67 7.33L120.86 7.33L122.59 12.22Q122.77 12.69 122.88 13.14Q122.99 13.58 123.04 14.05L123.04 14.05L123.10 14.05Q123.17 13.65 123.30 13.17Q123.42 12.69 123.58 12.22L123.58 12.22L125.25 7.33L127.42 7.33L123.73 17.15Q123.23 18.45 122.38 19.14Q121.52 19.84 120.27 19.84L120.27 19.84Q119.87 19.84 119.58 19.80Q119.30 19.76 119.07 19.71L119.07 19.71L119.07 18.11Q119.25 18.14 119.50 18.18Q119.74 18.21 120.02 18.21L120.02 18.21Q120.77 18.21 121.21 17.77Q121.65 17.33 121.89 16.67L121.89 16.67L122.14 15.97ZM133.36 7.17L133.36 7.17Q134.82 7.17 135.64 7.92Q136.46 8.67 136.46 10.35L136.46 10.35L136.46 16L134.45 16L134.45 10.75Q134.45 8.80 132.85 8.80L132.85 8.80Q131.63 8.80 131.18 9.57Q130.74 10.34 130.74 11.76L130.74 11.76L130.74 16L128.72 16L128.72 7.33L130.27 7.33L130.56 8.46L130.67 8.46Q131.09 7.79 131.82 7.48Q132.54 7.17 133.36 7.17ZM142.35 14.54L142.35 14.54Q142.72 14.54 143.08 14.47Q143.44 14.40 143.74 14.30L143.74 14.30L143.74 15.81Q143.42 15.95 142.91 16.06Q142.40 16.16 141.84 16.16L141.84 16.16Q141.10 16.16 140.50 15.91Q139.89 15.66 139.54 15.06Q139.18 14.45 139.18 13.36L139.18 13.36L139.18 8.85L138.02 8.85L138.02 7.97L139.30 7.26L139.94 5.42L141.20 5.42L141.20 7.33L143.66 7.33L143.66 8.85L141.20 8.85L141.20 13.34Q141.20 13.95 141.52 14.25Q141.84 14.54 142.35 14.54ZM145.49 3.84L147.50 3.84L147.50 6.74Q147.50 7.25 147.46 7.74Q147.42 8.22 147.39 8.46L147.39 8.46L147.52 8.46Q147.94 7.81 148.61 7.49Q149.28 7.17 150.10 7.17L150.10 7.17Q151.57 7.17 152.40 7.92Q153.23 8.67 153.23 10.35L153.23 10.35L153.23 16L151.22 16L151.22 10.75Q151.22 8.80 149.62 8.80L149.62 8.80Q148.40 8.80 147.95 9.57Q147.50 10.34 147.50 11.76L147.50 11.76L147.50 16L145.49 16L145.49 3.84ZM159.01 11.62L159.01 11.62Q159.01 13.55 158.44 15.34Q157.87 17.12 156.66 18.53L156.66 18.53L154.96 18.53Q156.05 17.04 156.62 15.25Q157.18 13.46 157.18 11.60L157.18 11.60Q157.18 9.70 156.62 7.89Q156.05 6.08 154.94 4.58L154.94 4.58L156.66 4.58Q157.87 6.03 158.44 7.85Q159.01 9.66 159.01 11.62Z" class="sprotty-block-name" style="fill:rgb(48, 48, 48);stroke:rgba(0, 0, 0, 0);"/><line x1="0" y1="20" x2="163.6484375" y2="20"/></g><g id="sprotty_ArchitectureBlockImpl$work.tristate(synth)/GPortImpl$a_to_ArchitectureBlockImpl$work.tristate(synth)/AssignmentBlockImpl$null3/GPortImpl$a" class="sprotty-edge thick edge" style="fill:none;stroke:rgb(112, 112, 112);stroke-linejoin:round;stroke-width:3px;"><path d="M 0 35 L 49.72060012817383 35 C 50.72060012817383 35 51.72060012817383 36 51.72060012817383 37 L 51.72060012817383 47.381500244140625 C 51.72060012817383 48.381500244140625 52.72060012817383 49.381500244140625 53.72060012817383 49.381500244140625 L 61.72060012817383 49.381500244140625 "/></g><g id="sprotty_ArchitectureBlockImpl$work.tristate(synth)/GPortImpl$en_to_ArchitectureBlockImpl$work.tristate(synth)/AssignmentBlockImpl$null3/GPortImpl$en" class="sprotty-edge edge" style="fill:none;stroke:rgb(112, 112, 112);stroke-linejoin:round;"><path d="M 0 59.381500244140625 L 61.72060012817383 59.381500244140625 "/></g><g id="sprotty_ArchitectureBlockImpl$work.tristate(synth)/AssignmentBlockImpl$null3/GPortImpl$y_to_ArchitectureBlockImpl$work.tristate(synth)/GPortImpl$y" class="sprotty-edge thick edge" style="fill:none;stroke:rgb(112, 112, 112);stroke-linejoin:round;stroke-width:3px;"><path d="M 79.3510799407959 54.381500244140625 L 163.6484375 54.381500244140625 "/></g><g id="sprotty_ArchitectureBlockImpl$work.tristate(synth)/AssignmentBlockImpl$null3" transform="translate(61.72060012817383, 39.381500244140625)" class="statement"><rect x="0" y="0" rx="10" ry="5" width="17.63047981262207" height="30" class="sprotty-node" style="fill:rgb(245, 245, 245);stroke:rgb(112, 112, 112);"/><g id="sprotty_ArchitectureBlockImpl$work.tristate(synth)/AssignmentBlockImpl$null3/label" transform="translate(5, 13.28515625) translate(0, 0.700526237487793)" class="sprotty-label statement" style="cursor:default;fill:rgb(48, 48, 48);font-family:Arial, Helvetica, sans-serif;text-anchor:middle;"><path d="M3.50-1.39L3.50-0.70L0.31-2.11L0.31-2.53L3.50-4.13L3.50-3.44L1.17-2.35L3.50-1.39ZM7.30-2.68L4.14-2.68L4.14-3.30L7.30-3.30L7.30-2.68ZM7.30-1.39L4.14-1.39L4.14-2.01L7.30-2.01L7.30-1.39Z" transform="translate(0, 3.42838)"/><rect x="0" y="-0.7003499999999999" width="7.6304799999999995" height="3.42838" class="clickable" style="cursor:pointer;fill:rgba(0, 0, 0, 0);fill-opacity:0;stroke-width:0px;"/></g><g id="sprotty_ArchitectureBlockImpl$work.tristate(synth)/AssignmentBlockImpl$null3/GPortImpl$en" transform="translate(0, 20)" class="sprotty-hidden hidden" style="display:block;height:0px;width:0px;"/><g id="sprotty_ArchitectureBlockImpl$work.tristate(synth)/AssignmentBlockImpl$null3/GPortImpl$a" transform="translate(0, 10)" class="sprotty-hidden hidden" style="display:block;height:0px;width:0px;"/><g id="sprotty_ArchitectureBlockImpl$work.tristate(synth)/AssignmentBlockImpl$null3/GPortImpl$y" transform="translate(17.63047981262207, 15)" class="sprotty-hidden hidden" style="display:block;height:0px;width:0px;"/></g><g id="sprotty_ArchitectureBlockImpl$work.tristate(synth)/GPortImpl$en" transform="translate(0, 59.381500244140625)" class="triangle"><path d="M 0,0 L 5,2.5 L 0,5 Z" transform="translate(-1.67, -2.5)" class="sprotty-port" style="fill:rgb(48, 48, 48);stroke:rgb(48, 48, 48);"/><g class="port sprotty-label" id="sprotty_ArchitectureBlockImpl$work.tristate(synth)/GPortImpl$en/label" transform="translate(3, 3) translate(0, -0.13300000131130219)" style="cursor:default;fill:rgb(48, 48, 48);font-family:Arial, Helvetica, sans-serif;text-anchor:middle;"><path d="M4.16 0.13L4.16 0.13Q3.15 0.13 2.37-0.28Q1.60-0.69 1.16-1.51Q0.73-2.33 0.73-3.51L0.73-3.51Q0.73-4.68 1.12-5.52Q1.52-6.36 2.23-6.81Q2.94-7.26 3.88-7.26L3.88-7.26Q4.80-7.26 5.46-6.86Q6.12-6.46 6.47-5.74Q6.82-5.01 6.82-4.04L6.82-4.04L6.82-3.34L1.94-3.34Q1.97-2.13 2.56-1.50Q3.15-0.86 4.22-0.86L4.22-0.86Q4.89-0.86 5.42-0.99Q5.95-1.12 6.50-1.36L6.50-1.36L6.50-0.33Q5.96-0.09 5.43 0.02Q4.89 0.13 4.16 0.13ZM1.97-4.27L1.97-4.27L5.60-4.27Q5.60-5.17 5.18-5.74Q4.76-6.30 3.87-6.30L3.87-6.30Q3.03-6.30 2.55-5.77Q2.06-5.23 1.97-4.27ZM9.80 0L8.63 0L8.63-7.13L9.58-7.13L9.75-6.16L9.82-6.16Q10.16-6.72 10.77-6.99Q11.38-7.26 12.06-7.26L12.06-7.26Q13.34-7.26 13.99-6.64Q14.64-6.02 14.64-4.64L14.64-4.64L14.64 0L13.49 0L13.49-4.56Q13.49-6.28 11.89-6.28L11.89-6.28Q10.71-6.28 10.25-5.61Q9.80-4.95 9.80-3.70L9.80-3.70L9.80 0Z" transform="translate(4, 9.3948)"/><rect x="0" y="0.133" width="23.7206" height="11.3948" class="clickable" style="cursor:pointer;fill:rgba(0, 0, 0, 0);fill-opacity:0;stroke-width:0px;"/></g></g><g id="sprotty_ArchitectureBlockImpl$work.tristate(synth)/GPortImpl$a" transform="translate(0, 35)" class="triangle"><path d="M 0,0 L 5,2.5 L 0,5 Z" transform="translate(-1.67, -2.5)" class="sprotty-port" style="fill:rgb(48, 48, 48);stroke:rgb(48, 48, 48);"/><g class="port sprotty-label" id="sprotty_ArchitectureBlockImpl$work.tristate(synth)/GPortImpl$a/label" transform="translate(3, 3) translate(0, -0.13300000131130219)" style="cursor:default;fill:rgb(48, 48, 48);font-family:Arial, Helvetica, sans-serif;text-anchor:middle;"><path d="M2.86 0.13L2.86 0.13Q1.89 0.13 1.25-0.38Q0.61-0.89 0.61-1.98L0.61-1.98Q0.61-3.05 1.45-3.62Q2.29-4.20 4.03-4.26L4.03-4.26L5.24-4.30L5.24-4.72Q5.24-5.61 4.85-5.96Q4.47-6.30 3.76-6.30L3.76-6.30Q3.21-6.30 2.70-6.14Q2.19-5.97 1.76-5.76L1.76-5.76L1.40-6.64Q1.86-6.89 2.50-7.07Q3.14-7.25 3.83-7.25L3.83-7.25Q5.13-7.25 5.76-6.68Q6.38-6.10 6.38-4.85L6.38-4.85L6.38 0L5.53 0L5.31-1.01L5.25-1.01Q4.79-0.43 4.28-0.15Q3.76 0.13 2.86 0.13ZM3.13-0.81L3.13-0.81Q4.03-0.81 4.63-1.31Q5.23-1.81 5.23-2.85L5.23-2.85L5.23-3.48L4.18-3.44Q2.85-3.39 2.33-3.02Q1.82-2.65 1.82-1.97L1.82-1.97Q1.82-1.37 2.19-1.09Q2.55-0.81 3.13-0.81Z" transform="translate(4, 9.3815)"/><rect x="0" y="0.133" width="15.461300000000001" height="11.3815" class="clickable" style="cursor:pointer;fill:rgba(0, 0, 0, 0);fill-opacity:0;stroke-width:0px;"/></g></g><g id="sprotty_ArchitectureBlockImpl$work.tristate(synth)/GPortImpl$y" transform="translate(163.6484375, 54.381500244140625)" class="triangle"><path d="M 0,0 L 5,2.5 L 0,5 Z" transform="translate(-1.67, -2.5)" class="sprotty-port" style="fill:rgb(48, 48, 48);stroke:rgb(48, 48, 48);"/><g class="port sprotty-label" id="sprotty_ArchitectureBlockImpl$work.tristate(synth)/GPortImpl$y/label" transform="translate(-17.782999992370605, 3) translate(0, -3.191999912261963)" style="cursor:default;fill:rgb(48, 48, 48);font-family:Arial, Helvetica, sans-serif;text-anchor:middle;"><path d="M1.12 3.19L1.12 3.19Q0.80 3.19 0.56 3.16Q0.32 3.13 0.15 3.09L0.15 3.09L0.15 2.15Q0.29 2.18 0.50 2.21Q0.70 2.23 0.93 2.23L0.93 2.23Q1.54 2.23 1.92 1.89Q2.29 1.54 2.51 0.97L2.51 0.97L2.89 0.03L0.01-7.13L1.26-7.13L2.81-3.07Q3.01-2.54 3.17-2.05Q3.33-1.57 3.40-1.13L3.40-1.13L3.46-1.13Q3.54-1.46 3.70-2.00Q3.87-2.54 4.07-3.09L4.07-3.09L5.52-7.13L6.78-7.13L3.71 0.98Q3.34 2.00 2.75 2.59Q2.15 3.19 1.12 3.19Z" transform="translate(4, 12.320800000000002)"/><rect x="0" y="3.192" width="14.783000000000001" height="14.320800000000002" class="clickable" style="cursor:pointer;fill:rgba(0, 0, 0, 0);fill-opacity:0;stroke-width:0px;"/></g></g></g></g></svg>