<svg xmlns="http://www.w3.org/2000/svg" id="sprotty_mux8_tb" class="sprotty-graph sprotty-block-diagram blockdiagram" style="font-family:&quot;Helvetica Neue&quot;, Helvetica, Arial, sans-serif;line-height:18px;perspective-origin:0px 0px;transform-origin:0px 0px;z-index:0;" version="1.1" viewBox="9.5 12 231.5994091796875 129.6358003616333"><g transform="scale(1) translate(0,0)"><g id="sprotty_ArchitectureBlockImpl$work.mux8_tb(RTL)" transform="translate(12, 12)" class="architecture"><g class="sprotty-block" style="fill:rgb(245, 245, 245);stroke:rgb(48, 48, 48);stroke-dasharray:0px;"><rect x="0" y="0" rx="1" ry="1" width="224.7694091796875" height="129.6358003616333"/><path d="M48.17 16L45.93 16L44.97 12.27Q44.89 11.97 44.78 11.51Q44.66 11.06 44.54 10.56Q44.42 10.06 44.33 9.65Q44.23 9.23 44.18 9.01L44.18 9.01L44.12 9.01Q44.07 9.23 43.98 9.65Q43.88 10.06 43.77 10.57Q43.66 11.07 43.54 11.53Q43.42 11.98 43.34 12.29L43.34 12.29L42.33 16L40.12 16L37.69 7.31L39.72 7.31L40.79 11.46Q40.90 11.89 41.01 12.41Q41.11 12.93 41.18 13.42Q41.26 13.90 41.30 14.21L41.30 14.21L41.37 14.21Q41.40 13.92 41.49 13.42Q41.58 12.93 41.67 12.46Q41.77 11.98 41.83 11.74L41.83 11.74L43.08 7.31L45.29 7.31L46.49 11.74Q46.55 12.03 46.66 12.50Q46.76 12.96 46.84 13.43Q46.92 13.90 46.94 14.19L46.94 14.19L47.00 14.19Q47.03 13.94 47.11 13.46Q47.19 12.98 47.30 12.43Q47.42 11.89 47.54 11.46L47.54 11.46L48.63 7.31L50.63 7.31L48.17 16ZM59.85 11.65L59.85 11.65Q59.85 13.81 58.73 14.98Q57.61 16.16 55.69 16.16L55.69 16.16Q54.50 16.16 53.58 15.63Q52.65 15.10 52.12 14.10Q51.59 13.09 51.59 11.65L51.59 11.65Q51.59 9.49 52.70 8.33Q53.82 7.17 55.74 7.17L55.74 7.17Q56.94 7.17 57.86 7.69Q58.79 8.21 59.32 9.21Q59.85 10.21 59.85 11.65ZM53.66 11.65L53.66 11.65Q53.66 13.02 54.14 13.78Q54.63 14.53 55.72 14.53L55.72 14.53Q56.81 14.53 57.30 13.78Q57.78 13.02 57.78 11.65L57.78 11.65Q57.78 10.27 57.30 9.54Q56.81 8.80 55.70 8.80L55.70 8.80Q54.63 8.80 54.14 9.54Q53.66 10.27 53.66 11.65ZM66.47 7.17L66.47 7.17Q66.68 7.17 66.93 7.18Q67.18 7.20 67.35 7.25L67.35 7.25L67.18 9.12Q67.02 9.09 66.79 9.06Q66.57 9.04 66.39 9.04L66.39 9.04Q65.75 9.04 65.19 9.30Q64.63 9.57 64.29 10.12Q63.94 10.67 63.94 11.50L63.94 11.50L63.94 16L61.93 16L61.93 7.33L63.48 7.33L63.77 8.83L63.86 8.83Q64.25 8.14 64.92 7.66Q65.59 7.17 66.47 7.17ZM68.95 3.84L70.95 3.84L70.95 9.62Q70.95 10.03 70.92 10.50Q70.89 10.96 70.86 11.38L70.86 11.38L70.90 11.38Q71.10 11.09 71.38 10.72Q71.67 10.35 71.93 10.06L71.93 10.06L74.49 7.33L76.78 7.33L73.30 11.07L77.00 16L74.65 16L71.96 12.29L70.95 13.12L70.95 16L68.95 16L68.95 3.84ZM78.07 14.98L78.07 14.98Q78.07 14.30 78.42 14.02Q78.78 13.74 79.29 13.74L79.29 13.74Q79.78 13.74 80.15 14.02Q80.52 14.30 80.52 14.98L80.52 14.98Q80.52 15.63 80.15 15.92Q79.78 16.21 79.29 16.21L79.29 16.21Q78.78 16.21 78.42 15.92Q78.07 15.63 78.07 14.98ZM92.76 7.17L92.76 7.17Q94.23 7.17 94.98 7.92Q95.72 8.67 95.72 10.35L95.72 10.35L95.72 16L93.70 16L93.70 10.74Q93.70 8.80 92.23 8.80L92.23 8.80Q91.18 8.80 90.73 9.49Q90.28 10.18 90.28 11.49L90.28 11.49L90.28 16L88.26 16L88.26 10.74Q88.26 8.80 86.78 8.80L86.78 8.80Q85.67 8.80 85.26 9.57Q84.84 10.34 84.84 11.76L84.84 11.76L84.84 16L82.82 16L82.82 7.33L84.38 7.33L84.66 8.46L84.78 8.46Q85.16 7.79 85.86 7.48Q86.55 7.17 87.30 7.17L87.30 7.17Q88.28 7.17 88.94 7.50Q89.61 7.82 89.96 8.51L89.96 8.51L90.12 8.51Q90.52 7.81 91.24 7.49Q91.96 7.17 92.76 7.17ZM103.93 7.33L105.94 7.33L105.94 16L104.36 16L104.09 14.88L103.99 14.88Q103.56 15.55 102.83 15.86Q102.10 16.16 101.29 16.16L101.29 16.16Q99.83 16.16 99.01 15.41Q98.18 14.66 98.18 12.99L98.18 12.99L98.18 7.33L100.20 7.33L100.20 12.59Q100.20 14.53 101.80 14.53L101.80 14.53Q103.02 14.53 103.47 13.77Q103.93 13.01 103.93 11.57L103.93 11.57L103.93 7.33ZM107.38 16L110.39 11.57L107.53 7.33L109.82 7.33L111.70 10.27L113.59 7.33L115.88 7.33L112.98 11.57L116.02 16L113.74 16L111.70 12.85L109.67 16L107.38 16ZM120.76 4.43L120.76 4.43Q121.75 4.43 122.56 4.74Q123.37 5.04 123.84 5.65Q124.31 6.26 124.31 7.17L124.31 7.17Q124.31 8.21 123.70 8.86Q123.10 9.52 122.22 9.97L122.22 9.97Q122.87 10.29 123.43 10.71Q123.99 11.14 124.34 11.70Q124.68 12.27 124.68 13.04L124.68 13.04Q124.68 14 124.18 14.70Q123.69 15.39 122.82 15.78Q121.94 16.16 120.78 16.16L120.78 16.16Q118.87 16.16 117.85 15.34Q116.82 14.53 116.82 13.10L116.82 13.10Q116.82 12.32 117.14 11.74Q117.45 11.15 117.96 10.74Q118.47 10.32 119.08 10.03L119.08 10.03Q118.30 9.55 117.74 8.87Q117.19 8.19 117.19 7.15L117.19 7.15Q117.19 6.26 117.68 5.65Q118.17 5.04 118.98 4.74Q119.78 4.43 120.76 4.43ZM120.74 5.95L120.74 5.95Q120.04 5.95 119.58 6.30Q119.13 6.66 119.13 7.30L119.13 7.30Q119.13 8 119.62 8.41Q120.10 8.82 120.78 9.14L120.78 9.14Q121.43 8.85 121.90 8.43Q122.38 8.02 122.38 7.30L122.38 7.30Q122.38 6.66 121.92 6.30Q121.46 5.95 120.74 5.95ZM118.74 13.01L118.74 13.01Q118.74 13.71 119.24 14.17Q119.74 14.62 120.74 14.62L120.74 14.62Q121.74 14.62 122.25 14.18Q122.76 13.73 122.76 13.01L122.76 13.01Q122.76 12.29 122.18 11.82Q121.59 11.34 120.82 10.98L120.82 10.98L120.60 10.86Q119.74 11.25 119.24 11.76Q118.74 12.27 118.74 13.01ZM132.14 17.44L132.14 18.50L125.30 18.50L125.30 17.44L132.14 17.44ZM136.76 14.54L136.76 14.54Q137.13 14.54 137.49 14.47Q137.85 14.40 138.15 14.30L138.15 14.30L138.15 15.81Q137.83 15.95 137.32 16.06Q136.81 16.16 136.25 16.16L136.25 16.16Q135.51 16.16 134.90 15.91Q134.30 15.66 133.94 15.06Q133.59 14.45 133.59 13.36L133.59 13.36L133.59 8.85L132.42 8.85L132.42 7.97L133.70 7.26L134.34 5.42L135.61 5.42L135.61 7.33L138.07 7.33L138.07 8.85L135.61 8.85L135.61 13.34Q135.61 13.95 135.93 14.25Q136.25 14.54 136.76 14.54ZM139.90 3.84L141.91 3.84L141.91 6.72Q141.91 7.23 141.88 7.71Q141.85 8.19 141.82 8.46L141.82 8.46L141.91 8.46Q142.26 7.92 142.87 7.54Q143.48 7.17 144.46 7.17L144.46 7.17Q145.96 7.17 146.90 8.30Q147.83 9.44 147.83 11.65L147.83 11.65Q147.83 13.89 146.89 15.02Q145.94 16.16 144.41 16.16L144.41 16.16Q143.43 16.16 142.85 15.81Q142.26 15.46 141.91 14.99L141.91 14.99L141.77 14.99L141.40 16L139.90 16L139.90 3.84ZM143.88 8.80L143.88 8.80Q142.79 8.80 142.36 9.46Q141.93 10.11 141.91 11.47L141.91 11.47L141.91 11.65Q141.91 13.04 142.34 13.78Q142.76 14.51 143.91 14.51L143.91 14.51Q144.81 14.51 145.29 13.77Q145.77 13.02 145.77 11.63L145.77 11.63Q145.77 10.21 145.28 9.50Q144.79 8.80 143.88 8.80ZM149.26 11.62L149.26 11.62Q149.26 9.66 149.82 7.85Q150.39 6.03 151.61 4.58L151.61 4.58L153.32 4.58Q152.22 6.08 151.66 7.89Q151.10 9.70 151.10 11.60L151.10 11.60Q151.10 13.46 151.66 15.25Q152.22 17.04 153.30 18.53L153.30 18.53L151.61 18.53Q150.39 17.12 149.82 15.34Q149.26 13.55 149.26 11.62ZM155.29 4.58L158.54 4.58Q160.79 4.58 161.87 5.41Q162.95 6.24 162.95 7.94L162.95 7.94Q162.95 8.77 162.64 9.36Q162.33 9.95 161.83 10.34Q161.34 10.74 160.76 10.98L160.76 10.98L164.04 16L161.74 16L159.00 11.49L157.34 11.49L157.34 16L155.29 16L155.29 4.58ZM158.41 6.29L158.41 6.29L157.34 6.29L157.34 9.81L158.47 9.81Q159.74 9.81 160.30 9.35Q160.87 8.90 160.87 8L160.87 8Q160.87 7.07 160.27 6.68Q159.67 6.29 158.41 6.29ZM169.72 6.30L169.72 16L167.67 16L167.67 6.30L164.39 6.30L164.39 4.58L173.00 4.58L173.00 6.30L169.72 6.30ZM181.56 16L174.74 16L174.74 4.58L176.79 4.58L176.79 14.27L181.56 14.27L181.56 16ZM186.60 11.62L186.60 11.62Q186.60 13.55 186.03 15.34Q185.46 17.12 184.25 18.53L184.25 18.53L182.55 18.53Q183.64 17.04 184.21 15.25Q184.78 13.46 184.78 11.60L184.78 11.60Q184.78 9.70 184.21 7.89Q183.64 6.08 182.54 4.58L182.54 4.58L184.25 4.58Q185.46 6.03 186.03 7.85Q186.60 9.66 186.60 11.62Z" class="sprotty-block-name" style="fill:rgb(48, 48, 48);stroke:rgba(0, 0, 0, 0);"/><line x1="0" y1="20" x2="224.7694091796875" y2="20"/></g><g id="sprotty_ArchitectureBlockImpl$work.mux8_tb(RTL)/ProcessBlockImpl$stimulus/GPortImpl$s_to_ArchitectureBlockImpl$work.mux8_tb(RTL)/InstantiationBlockImpl$DUT/BPortImpl$s" class="sprotty-edge thick edge" style="fill:none;stroke:rgb(112, 112, 112);stroke-linejoin:round;stroke-width:3px;"><path d="M 92.3280029296875 96.93840026855469 L 112.3280029296875 96.93840026855469 "/></g><g id="sprotty_ArchitectureBlockImpl$work.mux8_tb(RTL)/ProcessBlockImpl$stimulus" transform="translate(15, 85.77824401855469)" class="statement"><rect x="0" y="0" rx="10" ry="5" width="77.3280029296875" height="22.3203125" class="sprotty-node" style="fill:rgb(245, 245, 245);stroke:rgb(112, 112, 112);"/><g id="sprotty_ArchitectureBlockImpl$work.mux8_tb(RTL)/ProcessBlockImpl$stimulus/label" transform="translate(5, 5) translate(0, -0.15984344482421875)" class="sprotty-label process" style="cursor:default;fill:rgb(48, 48, 48);font-family:Arial, Helvetica, sans-serif;text-anchor:middle;"><path d="M7.20-2.51L7.20-2.51Q7.20-1.20 6.26-0.52Q5.33 0.16 3.58 0.16L3.58 0.16Q2.67 0.16 2.02 0.03Q1.38-0.10 0.77-0.37L0.77-0.37L0.77-2.08Q1.41-1.78 2.18-1.57Q2.96-1.36 3.65-1.36L3.65-1.36Q4.48-1.36 4.85-1.62Q5.22-1.87 5.22-2.30L5.22-2.30Q5.22-2.56 5.07-2.76Q4.93-2.96 4.50-3.20Q4.08-3.44 3.25-3.79L3.25-3.79Q2.42-4.11 1.86-4.46Q1.31-4.80 1.03-5.26Q0.75-5.73 0.75-6.46L0.75-6.46Q0.75-7.63 1.67-8.23Q2.59-8.83 4.13-8.83L4.13-8.83Q4.93-8.83 5.64-8.67Q6.35-8.51 7.07-8.19L7.07-8.19L6.43-6.70Q5.82-6.96 5.25-7.14Q4.67-7.31 4.06-7.31L4.06-7.31Q2.74-7.31 2.74-6.56L2.74-6.56Q2.74-6.29 2.90-6.10Q3.07-5.90 3.50-5.69Q3.92-5.47 4.70-5.17L4.70-5.17Q5.47-4.86 6.03-4.54Q6.59-4.21 6.90-3.73Q7.20-3.25 7.20-2.51ZM12.50-1.46L12.50-1.46Q12.86-1.46 13.22-1.53Q13.58-1.60 13.89-1.70L13.89-1.70L13.89-0.19Q13.57-0.05 13.06 0.06Q12.54 0.16 11.98 0.16L11.98 0.16Q11.25 0.16 10.64-0.09Q10.03-0.34 9.68-0.94Q9.33-1.55 9.33-2.64L9.33-2.64L9.33-7.15L8.16-7.15L8.16-8.03L9.44-8.74L10.08-10.58L11.34-10.58L11.34-8.67L13.81-8.67L13.81-7.15L11.34-7.15L11.34-2.66Q11.34-2.05 11.66-1.75Q11.98-1.46 12.50-1.46ZM16.64-12.02L16.64-12.02Q17.10-12.02 17.43-11.78Q17.76-11.55 17.76-10.96L17.76-10.96Q17.76-10.37 17.43-10.13Q17.10-9.89 16.64-9.89L16.64-9.89Q16.18-9.89 15.85-10.13Q15.52-10.37 15.52-10.96L15.52-10.96Q15.52-11.55 15.85-11.78Q16.18-12.02 16.64-12.02ZM15.63-8.67L17.65-8.67L17.65 0L15.63 0L15.63-8.67ZM30.16-8.83L30.16-8.83Q31.63-8.83 32.38-8.08Q33.12-7.33 33.12-5.65L33.12-5.65L33.12 0L31.10 0L31.10-5.26Q31.10-7.20 29.63-7.20L29.63-7.20Q28.58-7.20 28.13-6.51Q27.68-5.82 27.68-4.51L27.68-4.51L27.68 0L25.66 0L25.66-5.26Q25.66-7.20 24.18-7.20L24.18-7.20Q23.07-7.20 22.66-6.43Q22.24-5.66 22.24-4.24L22.24-4.24L22.24 0L20.22 0L20.22-8.67L21.78-8.67L22.06-7.54L22.18-7.54Q22.56-8.21 23.26-8.52Q23.95-8.83 24.70-8.83L24.70-8.83Q25.68-8.83 26.34-8.50Q27.01-8.18 27.36-7.49L27.36-7.49L27.52-7.49Q27.92-8.19 28.64-8.51Q29.36-8.83 30.16-8.83ZM41.33-8.67L43.34-8.67L43.34 0L41.76 0L41.49-1.12L41.39-1.12Q40.96-0.45 40.23-0.14Q39.50 0.16 38.69 0.16L38.69 0.16Q37.23 0.16 36.41-0.59Q35.58-1.34 35.58-3.01L35.58-3.01L35.58-8.67L37.60-8.67L37.60-3.41Q37.60-1.47 39.20-1.47L39.20-1.47Q40.42-1.47 40.87-2.23Q41.33-2.99 41.33-4.43L41.33-4.43L41.33-8.67ZM47.94-12.16L47.94 0L45.92 0L45.92-12.16L47.94-12.16ZM56.19-8.67L58.21-8.67L58.21 0L56.62 0L56.35-1.12L56.26-1.12Q55.82-0.45 55.10-0.14Q54.37 0.16 53.55 0.16L53.55 0.16Q52.10 0.16 51.27-0.59Q50.45-1.34 50.45-3.01L50.45-3.01L50.45-8.67L52.46-8.67L52.46-3.41Q52.46-1.47 54.06-1.47L54.06-1.47Q55.28-1.47 55.74-2.23Q56.19-2.99 56.19-4.43L56.19-4.43L56.19-8.67ZM66.69-2.51L66.69-2.51Q66.69-1.20 65.75-0.52Q64.82 0.16 63.07 0.16L63.07 0.16Q62.16 0.16 61.51 0.03Q60.86-0.10 60.26-0.37L60.26-0.37L60.26-2.08Q60.90-1.78 61.67-1.57Q62.45-1.36 63.14-1.36L63.14-1.36Q63.97-1.36 64.34-1.62Q64.70-1.87 64.70-2.30L64.70-2.30Q64.70-2.56 64.56-2.76Q64.42-2.96 63.99-3.20Q63.57-3.44 62.74-3.79L62.74-3.79Q61.90-4.11 61.35-4.46Q60.80-4.80 60.52-5.26Q60.24-5.73 60.24-6.46L60.24-6.46Q60.24-7.63 61.16-8.23Q62.08-8.83 63.62-8.83L63.62-8.83Q64.42-8.83 65.13-8.67Q65.84-8.51 66.56-8.19L66.56-8.19L65.92-6.70Q65.31-6.96 64.74-7.14Q64.16-7.31 63.55-7.31L63.55-7.31Q62.22-7.31 62.22-6.56L62.22-6.56Q62.22-6.29 62.39-6.10Q62.56-5.90 62.98-5.69Q63.41-5.47 64.19-5.17L64.19-5.17Q64.96-4.86 65.52-4.54Q66.08-4.21 66.38-3.73Q66.69-3.25 66.69-2.51Z" transform="translate(0, 12.32)"/><rect x="0" y="0.16" width="67.328" height="12.32" class="clickable" style="cursor:pointer;fill:rgba(0, 0, 0, 0);fill-opacity:0;stroke-width:0px;"/></g><g id="sprotty_ArchitectureBlockImpl$work.mux8_tb(RTL)/ProcessBlockImpl$stimulus/GPortImpl$s" transform="translate(77.3280029296875, 11.16015625)" class="sprotty-hidden hidden" style="display:block;height:0px;width:0px;"/></g><g id="sprotty_ArchitectureBlockImpl$work.mux8_tb(RTL)/InstantiationBlockImpl$DUT" transform="translate(112.3280029296875, 35)" class="instantiation"><g class="sprotty-block" style="fill:rgb(245, 245, 245);stroke:rgb(48, 48, 48);stroke-dasharray:0px;"><rect x="0" y="0" rx="1" ry="1" width="97.44140625" height="79.6358003616333"/><path d="M14.83 10.18L14.83 10.18Q14.83 13.07 13.22 14.54Q11.60 16 8.70 16L8.70 16L5.49 16L5.49 4.58L9.04 4.58Q10.80 4.58 12.10 5.22Q13.41 5.86 14.12 7.10Q14.83 8.34 14.83 10.18ZM12.69 10.24L12.69 10.24Q12.69 8.19 11.75 7.23Q10.82 6.27 9.04 6.27L9.04 6.27L7.54 6.27L7.54 14.29L8.77 14.29Q12.69 14.29 12.69 10.24ZM24.29 4.58L26.32 4.58L26.32 11.97Q26.32 13.15 25.82 14.10Q25.31 15.06 24.29 15.61Q23.26 16.16 21.70 16.16L21.70 16.16Q19.47 16.16 18.32 15Q17.17 13.84 17.17 11.94L17.17 11.94L17.17 4.58L19.22 4.58L19.22 11.73Q19.22 13.14 19.86 13.78Q20.50 14.42 21.76 14.42L21.76 14.42Q23.09 14.42 23.69 13.72Q24.29 13.02 24.29 11.71L24.29 11.71L24.29 4.58ZM33.31 6.30L33.31 16L31.26 16L31.26 6.30L27.98 6.30L27.98 4.58L36.59 4.58L36.59 6.30L33.31 6.30ZM42.02 8.38L42.02 8.38Q42.02 7.70 42.37 7.42Q42.72 7.14 43.23 7.14L43.23 7.14Q43.73 7.14 44.10 7.42Q44.46 7.70 44.46 8.38L44.46 8.38Q44.46 9.04 44.10 9.33Q43.73 9.62 43.23 9.62L43.23 9.62Q42.72 9.62 42.37 9.33Q42.02 9.04 42.02 8.38ZM42.02 14.98L42.02 14.98Q42.02 14.30 42.37 14.02Q42.72 13.74 43.23 13.74L43.23 13.74Q43.73 13.74 44.10 14.02Q44.46 14.30 44.46 14.98L44.46 14.98Q44.46 15.63 44.10 15.92Q43.73 16.21 43.23 16.21L43.23 16.21Q42.72 16.21 42.37 15.92Q42.02 15.63 42.02 14.98ZM60.86 7.17L60.86 7.17Q62.34 7.17 63.08 7.92Q63.82 8.67 63.82 10.35L63.82 10.35L63.82 16L61.81 16L61.81 10.74Q61.81 8.80 60.34 8.80L60.34 8.80Q59.28 8.80 58.83 9.49Q58.38 10.18 58.38 11.49L58.38 11.49L58.38 16L56.37 16L56.37 10.74Q56.37 8.80 54.88 8.80L54.88 8.80Q53.78 8.80 53.36 9.57Q52.94 10.34 52.94 11.76L52.94 11.76L52.94 16L50.93 16L50.93 7.33L52.48 7.33L52.77 8.46L52.88 8.46Q53.26 7.79 53.96 7.48Q54.66 7.17 55.41 7.17L55.41 7.17Q56.38 7.17 57.05 7.50Q57.71 7.82 58.06 8.51L58.06 8.51L58.22 8.51Q58.62 7.81 59.34 7.49Q60.06 7.17 60.86 7.17ZM72.03 7.33L74.05 7.33L74.05 16L72.46 16L72.19 14.88L72.10 14.88Q71.66 15.55 70.94 15.86Q70.21 16.16 69.39 16.16L69.39 16.16Q67.94 16.16 67.11 15.41Q66.29 14.66 66.29 12.99L66.29 12.99L66.29 7.33L68.30 7.33L68.30 12.59Q68.30 14.53 69.90 14.53L69.90 14.53Q71.12 14.53 71.58 13.77Q72.03 13.01 72.03 11.57L72.03 11.57L72.03 7.33ZM75.49 16L78.50 11.57L75.63 7.33L77.92 7.33L79.81 10.27L81.70 7.33L83.98 7.33L81.09 11.57L84.13 16L81.84 16L79.81 12.85L77.78 16L75.49 16ZM88.86 4.43L88.86 4.43Q89.86 4.43 90.66 4.74Q91.47 5.04 91.94 5.65Q92.42 6.26 92.42 7.17L92.42 7.17Q92.42 8.21 91.81 8.86Q91.20 9.52 90.32 9.97L90.32 9.97Q90.98 10.29 91.54 10.71Q92.10 11.14 92.44 11.70Q92.78 12.27 92.78 13.04L92.78 13.04Q92.78 14 92.29 14.70Q91.79 15.39 90.92 15.78Q90.05 16.16 88.88 16.16L88.88 16.16Q86.98 16.16 85.95 15.34Q84.93 14.53 84.93 13.10L84.93 13.10Q84.93 12.32 85.24 11.74Q85.55 11.15 86.06 10.74Q86.58 10.32 87.18 10.03L87.18 10.03Q86.40 9.55 85.85 8.87Q85.30 8.19 85.30 7.15L85.30 7.15Q85.30 6.26 85.78 5.65Q86.27 5.04 87.08 4.74Q87.89 4.43 88.86 4.43ZM88.85 5.95L88.85 5.95Q88.14 5.95 87.69 6.30Q87.23 6.66 87.23 7.30L87.23 7.30Q87.23 8 87.72 8.41Q88.21 8.82 88.88 9.14L88.88 9.14Q89.54 8.85 90.01 8.43Q90.48 8.02 90.48 7.30L90.48 7.30Q90.48 6.66 90.02 6.30Q89.57 5.95 88.85 5.95ZM86.85 13.01L86.85 13.01Q86.85 13.71 87.34 14.17Q87.84 14.62 88.85 14.62L88.85 14.62Q89.84 14.62 90.35 14.18Q90.86 13.73 90.86 13.01L90.86 13.01Q90.86 12.29 90.28 11.82Q89.70 11.34 88.93 10.98L88.93 10.98L88.70 10.86Q87.84 11.25 87.34 11.76Q86.85 12.27 86.85 13.01Z" class="sprotty-block-name" style="fill:rgb(48, 48, 48);stroke:rgba(0, 0, 0, 0);"/><line x1="0" y1="20" x2="97.44140625" y2="20"/></g><g id="sprotty_ArchitectureBlockImpl$work.mux8_tb(RTL)/InstantiationBlockImpl$DUT/BPortImpl$s" transform="translate(0, 61.93840026855469)" class="triangle"><path d="M 0,0 L 5,2.5 L 0,5 Z" transform="translate(-1.67, -2.5)" class="sprotty-port" style="fill:rgb(48, 48, 48);stroke:rgb(48, 48, 48);"/><g class="port sprotty-label" id="sprotty_ArchitectureBlockImpl$work.mux8_tb(RTL)/InstantiationBlockImpl$DUT/BPortImpl$s/label" transform="translate(3, -5.697400093078613) translate(0, -0.13300000131130219)" style="cursor:default;fill:rgb(48, 48, 48);font-family:Arial, Helvetica, sans-serif;text-anchor:middle;"><path d="M2.93 0.13L2.93 0.13Q2.18 0.13 1.64 0.01Q1.10-0.11 0.69-0.32L0.69-0.32L0.69-1.38Q1.12-1.17 1.72-0.99Q2.33-0.81 2.95-0.81L2.95-0.81Q3.84-0.81 4.24-1.10Q4.64-1.38 4.64-1.86L4.64-1.86Q4.64-2.13 4.50-2.34Q4.35-2.55 3.97-2.77Q3.59-2.98 2.89-3.25L2.89-3.25Q2.19-3.51 1.70-3.78Q1.21-4.04 0.94-4.42Q0.68-4.79 0.68-5.37L0.68-5.37Q0.68-6.28 1.42-6.77Q2.15-7.26 3.35-7.26L3.35-7.26Q4.00-7.26 4.57-7.14Q5.13-7.01 5.63-6.78L5.63-6.78L5.23-5.85Q4.77-6.04 4.28-6.17Q3.79-6.30 3.27-6.30L3.27-6.30Q2.55-6.30 2.17-6.07Q1.80-5.84 1.80-5.44L1.80-5.44Q1.80-5.15 1.97-4.94Q2.14-4.73 2.55-4.54Q2.95-4.35 3.63-4.08L3.63-4.08Q4.31-3.83 4.79-3.56Q5.27-3.29 5.52-2.91Q5.77-2.54 5.77-1.97L5.77-1.97Q5.77-0.93 5.00-0.40Q4.23 0.13 2.93 0.13Z" transform="translate(4, 9.3948)"/><rect x="0" y="0.133" width="14.3707" height="11.3948" class="clickable" style="cursor:pointer;fill:rgba(0, 0, 0, 0);fill-opacity:0;stroke-width:0px;"/></g></g><g id="sprotty_ArchitectureBlockImpl$work.mux8_tb(RTL)/InstantiationBlockImpl$DUT/BPortImpl$d" transform="translate(0, 39.12050008773804)" class="triangle"><path d="M 0,0 L 5,2.5 L 0,5 Z" transform="translate(-1.67, -2.5)" class="sprotty-port" style="fill:rgb(48, 48, 48);stroke:rgb(48, 48, 48);"/><g class="port sprotty-label" id="sprotty_ArchitectureBlockImpl$work.mux8_tb(RTL)/InstantiationBlockImpl$DUT/BPortImpl$d/label" transform="translate(3, -7.120500087738037) translate(0, -0.13300000131130219)" style="cursor:default;fill:rgb(48, 48, 48);font-family:Arial, Helvetica, sans-serif;text-anchor:middle;"><path d="M3.66 0.13L3.66 0.13Q2.33 0.13 1.53-0.79Q0.73-1.72 0.73-3.55L0.73-3.55Q0.73-5.39 1.54-6.32Q2.34-7.26 3.67-7.26L3.67-7.26Q4.50-7.26 5.02-6.96Q5.55-6.65 5.88-6.21L5.88-6.21L5.96-6.21Q5.95-6.38 5.91-6.72Q5.88-7.06 5.88-7.26L5.88-7.26L5.88-10.11L7.05-10.11L7.05 0L6.10 0L5.93-0.96L5.88-0.96Q5.56-0.51 5.03-0.19Q4.50 0.13 3.66 0.13ZM3.84-0.84L3.84-0.84Q4.97-0.84 5.43-1.46Q5.89-2.07 5.89-3.33L5.89-3.33L5.89-3.54Q5.89-4.87 5.45-5.58Q5.01-6.29 3.83-6.29L3.83-6.29Q2.89-6.29 2.41-5.54Q1.94-4.79 1.94-3.52L1.94-3.52Q1.94-2.25 2.41-1.54Q2.89-0.84 3.84-0.84Z" transform="translate(4, 12.241)"/><rect x="0" y="0.133" width="16.1795" height="14.241" class="clickable" style="cursor:pointer;fill:rgba(0, 0, 0, 0);fill-opacity:0;stroke-width:0px;"/></g></g><g id="sprotty_ArchitectureBlockImpl$work.mux8_tb(RTL)/InstantiationBlockImpl$DUT/BPortImpl$y" transform="translate(97.44140625, 49.81790018081665)" class="triangle"><path d="M 0,0 L 5,2.5 L 0,5 Z" transform="translate(-1.67, -2.5)" class="sprotty-port" style="fill:rgb(48, 48, 48);stroke:rgb(48, 48, 48);"/><g class="port sprotty-label" id="sprotty_ArchitectureBlockImpl$work.mux8_tb(RTL)/InstantiationBlockImpl$DUT/BPortImpl$y/label" transform="translate(-17.782999992370605, -7.160400390625) translate(0, -3.191999912261963)" style="cursor:default;fill:rgb(48, 48, 48);font-family:Arial, Helvetica, sans-serif;text-anchor:middle;"><path d="M1.12 3.19L1.12 3.19Q0.80 3.19 0.56 3.16Q0.32 3.13 0.15 3.09L0.15 3.09L0.15 2.15Q0.29 2.18 0.50 2.21Q0.70 2.23 0.93 2.23L0.93 2.23Q1.54 2.23 1.92 1.89Q2.29 1.54 2.51 0.97L2.51 0.97L2.89 0.03L0.01-7.13L1.26-7.13L2.81-3.07Q3.01-2.54 3.17-2.05Q3.33-1.57 3.40-1.13L3.40-1.13L3.46-1.13Q3.54-1.46 3.70-2.00Q3.87-2.54 4.07-3.09L4.07-3.09L5.52-7.13L6.78-7.13L3.71 0.98Q3.34 2.00 2.75 2.59Q2.15 3.19 1.12 3.19Z" transform="translate(4, 12.320800000000002)"/><rect x="0" y="3.192" width="14.783000000000001" height="14.320800000000002" class="clickable" style="cursor:pointer;fill:rgba(0, 0, 0, 0);fill-opacity:0;stroke-width:0px;"/></g></g></g></g></g></svg>