<svg xmlns="http://www.w3.org/2000/svg" id="sprotty_mux8" class="sprotty-graph sprotty-block-diagram blockdiagram" style="font-family:&quot;Helvetica Neue&quot;, Helvetica, Arial, sans-serif;line-height:18px;perspective-origin:0px 0px;transform-origin:0px 0px;z-index:0;" version="1.1" viewBox="9.5 12 156.63859375 91.6358003616333"><g transform="scale(1) translate(0,0)"><g id="sprotty_ArchitectureBlockImpl$work.mux8(synth)" transform="translate(12, 12)" class="architecture"><g class="sprotty-block" style="fill:rgb(245, 245, 245);stroke:rgb(48, 48, 48);stroke-dasharray:0px;"><rect x="0" y="0" rx="1" ry="1" width="149.80859375" height="91.6358003616333"/><path d="M14.64 16L12.40 16L11.44 12.27Q11.36 11.97 11.25 11.51Q11.14 11.06 11.02 10.56Q10.90 10.06 10.80 9.65Q10.70 9.23 10.66 9.01L10.66 9.01L10.59 9.01Q10.54 9.23 10.45 9.65Q10.35 10.06 10.24 10.57Q10.13 11.07 10.01 11.53Q9.89 11.98 9.81 12.29L9.81 12.29L8.80 16L6.59 16L4.16 7.31L6.19 7.31L7.26 11.46Q7.38 11.89 7.48 12.41Q7.58 12.93 7.66 13.42Q7.73 13.90 7.78 14.21L7.78 14.21L7.84 14.21Q7.87 13.92 7.96 13.42Q8.05 12.93 8.14 12.46Q8.24 11.98 8.30 11.74L8.30 11.74L9.55 7.31L11.76 7.31L12.96 11.74Q13.02 12.03 13.13 12.50Q13.23 12.96 13.31 13.43Q13.39 13.90 13.41 14.19L13.41 14.19L13.47 14.19Q13.50 13.94 13.58 13.46Q13.66 12.98 13.78 12.43Q13.89 11.89 14.02 11.46L14.02 11.46L15.10 7.31L17.10 7.31L14.64 16ZM26.32 11.65L26.32 11.65Q26.32 13.81 25.20 14.98Q24.08 16.16 22.16 16.16L22.16 16.16Q20.98 16.16 20.05 15.63Q19.12 15.10 18.59 14.10Q18.06 13.09 18.06 11.65L18.06 11.65Q18.06 9.49 19.18 8.33Q20.29 7.17 22.21 7.17L22.21 7.17Q23.41 7.17 24.34 7.69Q25.26 8.21 25.79 9.21Q26.32 10.21 26.32 11.65ZM20.13 11.65L20.13 11.65Q20.13 13.02 20.62 13.78Q21.10 14.53 22.19 14.53L22.19 14.53Q23.28 14.53 23.77 13.78Q24.26 13.02 24.26 11.65L24.26 11.65Q24.26 10.27 23.77 9.54Q23.28 8.80 22.18 8.80L22.18 8.80Q21.10 8.80 20.62 9.54Q20.13 10.27 20.13 11.65ZM32.94 7.17L32.94 7.17Q33.15 7.17 33.40 7.18Q33.65 7.20 33.82 7.25L33.82 7.25L33.65 9.12Q33.49 9.09 33.26 9.06Q33.04 9.04 32.86 9.04L32.86 9.04Q32.22 9.04 31.66 9.30Q31.10 9.57 30.76 10.12Q30.42 10.67 30.42 11.50L30.42 11.50L30.42 16L28.40 16L28.40 7.33L29.95 7.33L30.24 8.83L30.34 8.83Q30.72 8.14 31.39 7.66Q32.06 7.17 32.94 7.17ZM35.42 3.84L37.42 3.84L37.42 9.62Q37.42 10.03 37.39 10.50Q37.36 10.96 37.33 11.38L37.33 11.38L37.38 11.38Q37.57 11.09 37.86 10.72Q38.14 10.35 38.40 10.06L38.40 10.06L40.96 7.33L43.25 7.33L39.78 11.07L43.47 16L41.12 16L38.43 12.29L37.42 13.12L37.42 16L35.42 16L35.42 3.84ZM44.54 14.98L44.54 14.98Q44.54 14.30 44.90 14.02Q45.25 13.74 45.76 13.74L45.76 13.74Q46.26 13.74 46.62 14.02Q46.99 14.30 46.99 14.98L46.99 14.98Q46.99 15.63 46.62 15.92Q46.26 16.21 45.76 16.21L45.76 16.21Q45.25 16.21 44.90 15.92Q44.54 15.63 44.54 14.98ZM59.23 7.17L59.23 7.17Q60.70 7.17 61.45 7.92Q62.19 8.67 62.19 10.35L62.19 10.35L62.19 16L60.18 16L60.18 10.74Q60.18 8.80 58.70 8.80L58.70 8.80Q57.65 8.80 57.20 9.49Q56.75 10.18 56.75 11.49L56.75 11.49L56.75 16L54.74 16L54.74 10.74Q54.74 8.80 53.25 8.80L53.25 8.80Q52.14 8.80 51.73 9.57Q51.31 10.34 51.31 11.76L51.31 11.76L51.31 16L49.30 16L49.30 7.33L50.85 7.33L51.14 8.46L51.25 8.46Q51.63 7.79 52.33 7.48Q53.02 7.17 53.78 7.17L53.78 7.17Q54.75 7.17 55.42 7.50Q56.08 7.82 56.43 8.51L56.43 8.51L56.59 8.51Q56.99 7.81 57.71 7.49Q58.43 7.17 59.23 7.17ZM70.40 7.33L72.42 7.33L72.42 16L70.83 16L70.56 14.88L70.46 14.88Q70.03 15.55 69.30 15.86Q68.58 16.16 67.76 16.16L67.76 16.16Q66.30 16.16 65.48 15.41Q64.66 14.66 64.66 12.99L64.66 12.99L64.66 7.33L66.67 7.33L66.67 12.59Q66.67 14.53 68.27 14.53L68.27 14.53Q69.49 14.53 69.94 13.77Q70.40 13.01 70.40 11.57L70.40 11.57L70.40 7.33ZM73.86 16L76.86 11.57L74.00 7.33L76.29 7.33L78.18 10.27L80.06 7.33L82.35 7.33L79.46 11.57L82.50 16L80.21 16L78.18 12.85L76.14 16L73.86 16ZM87.23 4.43L87.23 4.43Q88.22 4.43 89.03 4.74Q89.84 5.04 90.31 5.65Q90.78 6.26 90.78 7.17L90.78 7.17Q90.78 8.21 90.18 8.86Q89.57 9.52 88.69 9.97L88.69 9.97Q89.34 10.29 89.90 10.71Q90.46 11.14 90.81 11.70Q91.15 12.27 91.15 13.04L91.15 13.04Q91.15 14 90.66 14.70Q90.16 15.39 89.29 15.78Q88.42 16.16 87.25 16.16L87.25 16.16Q85.34 16.16 84.32 15.34Q83.30 14.53 83.30 13.10L83.30 13.10Q83.30 12.32 83.61 11.74Q83.92 11.15 84.43 10.74Q84.94 10.32 85.55 10.03L85.55 10.03Q84.77 9.55 84.22 8.87Q83.66 8.19 83.66 7.15L83.66 7.15Q83.66 6.26 84.15 5.65Q84.64 5.04 85.45 4.74Q86.26 4.43 87.23 4.43ZM87.22 5.95L87.22 5.95Q86.51 5.95 86.06 6.30Q85.60 6.66 85.60 7.30L85.60 7.30Q85.60 8 86.09 8.41Q86.58 8.82 87.25 9.14L87.25 9.14Q87.90 8.85 88.38 8.43Q88.85 8.02 88.85 7.30L88.85 7.30Q88.85 6.66 88.39 6.30Q87.94 5.95 87.22 5.95ZM85.22 13.01L85.22 13.01Q85.22 13.71 85.71 14.17Q86.21 14.62 87.22 14.62L87.22 14.62Q88.21 14.62 88.72 14.18Q89.23 13.73 89.23 13.01L89.23 13.01Q89.23 12.29 88.65 11.82Q88.06 11.34 87.30 10.98L87.30 10.98L87.07 10.86Q86.21 11.25 85.71 11.76Q85.22 12.27 85.22 13.01ZM92.45 11.62L92.45 11.62Q92.45 9.66 93.02 7.85Q93.58 6.03 94.80 4.58L94.80 4.58L96.51 4.58Q95.41 6.08 94.85 7.89Q94.29 9.70 94.29 11.60L94.29 11.60Q94.29 13.46 94.85 15.25Q95.41 17.04 96.50 18.53L96.50 18.53L94.80 18.53Q93.58 17.12 93.02 15.34Q92.45 13.55 92.45 11.62ZM104.19 13.49L104.19 13.49Q104.19 14.80 103.26 15.48Q102.32 16.16 100.58 16.16L100.58 16.16Q99.66 16.16 99.02 16.03Q98.37 15.90 97.76 15.63L97.76 15.63L97.76 13.92Q98.40 14.22 99.18 14.43Q99.95 14.64 100.64 14.64L100.64 14.64Q101.47 14.64 101.84 14.38Q102.21 14.13 102.21 13.70L102.21 13.70Q102.21 13.44 102.06 13.24Q101.92 13.04 101.50 12.80Q101.07 12.56 100.24 12.21L100.24 12.21Q99.41 11.89 98.86 11.54Q98.30 11.20 98.02 10.74Q97.74 10.27 97.74 9.54L97.74 9.54Q97.74 8.37 98.66 7.77Q99.58 7.17 101.12 7.17L101.12 7.17Q101.92 7.17 102.63 7.33Q103.34 7.49 104.06 7.81L104.06 7.81L103.42 9.30Q102.82 9.04 102.24 8.86Q101.66 8.69 101.06 8.69L101.06 8.69Q99.73 8.69 99.73 9.44L99.73 9.44Q99.73 9.71 99.90 9.90Q100.06 10.10 100.49 10.31Q100.91 10.53 101.70 10.83L101.70 10.83Q102.46 11.14 103.02 11.46Q103.58 11.79 103.89 12.27Q104.19 12.75 104.19 13.49ZM108.30 15.97L104.83 7.33L107.02 7.33L108.75 12.22Q108.93 12.69 109.04 13.14Q109.15 13.58 109.20 14.05L109.20 14.05L109.26 14.05Q109.33 13.65 109.46 13.17Q109.58 12.69 109.74 12.22L109.74 12.22L111.41 7.33L113.58 7.33L109.89 17.15Q109.39 18.45 108.54 19.14Q107.68 19.84 106.43 19.84L106.43 19.84Q106.03 19.84 105.74 19.80Q105.46 19.76 105.23 19.71L105.23 19.71L105.23 18.11Q105.41 18.14 105.66 18.18Q105.90 18.21 106.18 18.21L106.18 18.21Q106.93 18.21 107.37 17.77Q107.81 17.33 108.05 16.67L108.05 16.67L108.30 15.97ZM119.52 7.17L119.52 7.17Q120.98 7.17 121.80 7.92Q122.62 8.67 122.62 10.35L122.62 10.35L122.62 16L120.61 16L120.61 10.75Q120.61 8.80 119.01 8.80L119.01 8.80Q117.79 8.80 117.34 9.57Q116.90 10.34 116.90 11.76L116.90 11.76L116.90 16L114.88 16L114.88 7.33L116.43 7.33L116.72 8.46L116.83 8.46Q117.25 7.79 117.98 7.48Q118.70 7.17 119.52 7.17ZM128.51 14.54L128.51 14.54Q128.88 14.54 129.24 14.47Q129.60 14.40 129.90 14.30L129.90 14.30L129.90 15.81Q129.58 15.95 129.07 16.06Q128.56 16.16 128.00 16.16L128.00 16.16Q127.26 16.16 126.66 15.91Q126.05 15.66 125.70 15.06Q125.34 14.45 125.34 13.36L125.34 13.36L125.34 8.85L124.18 8.85L124.18 7.97L125.46 7.26L126.10 5.42L127.36 5.42L127.36 7.33L129.82 7.33L129.82 8.85L127.36 8.85L127.36 13.34Q127.36 13.95 127.68 14.25Q128.00 14.54 128.51 14.54ZM131.65 3.84L133.66 3.84L133.66 6.74Q133.66 7.25 133.62 7.74Q133.58 8.22 133.55 8.46L133.55 8.46L133.68 8.46Q134.10 7.81 134.77 7.49Q135.44 7.17 136.26 7.17L136.26 7.17Q137.73 7.17 138.56 7.92Q139.39 8.67 139.39 10.35L139.39 10.35L139.39 16L137.38 16L137.38 10.75Q137.38 8.80 135.78 8.80L135.78 8.80Q134.56 8.80 134.11 9.57Q133.66 10.34 133.66 11.76L133.66 11.76L133.66 16L131.65 16L131.65 3.84ZM145.17 11.62L145.17 11.62Q145.17 13.55 144.60 15.34Q144.03 17.12 142.82 18.53L142.82 18.53L141.12 18.53Q142.21 17.04 142.78 15.25Q143.34 13.46 143.34 11.60L143.34 11.60Q143.34 9.70 142.78 7.89Q142.21 6.08 141.10 4.58L141.10 4.58L142.82 4.58Q144.03 6.03 144.60 7.85Q145.17 9.66 145.17 11.62Z" class="sprotty-block-name" style="fill:rgb(48, 48, 48);stroke:rgba(0, 0, 0, 0);"/><line x1="0" y1="20" x2="149.80859375" y2="20"/></g><g id="sprotty_ArchitectureBlockImpl$work.mux8(synth)/GPortImpl$d_to_ArchitectureBlockImpl$work.mux8(synth)/AssignmentBlockImpl$null3/GPortImpl$d" class="sprotty-edge thick edge" style="fill:none;stroke:rgb(112, 112, 112);stroke-linejoin:round;stroke-width:3px;"><path d="M 0 35 L 42.179500579833984 35 C 43.179500579833984 35 44.179500579833984 36 44.179500579833984 37 L 44.179500579833984 50.241000175476074 C 44.179500579833984 51.241000175476074 45.179500579833984 52.241000175476074 46.179500579833984 52.241000175476074 L 54.179500579833984 52.241000175476074 "/></g><g id="sprotty_ArchitectureBlockImpl$work.mux8(synth)/GPortImpl$s_to_ArchitectureBlockImpl$work.mux8(synth)/AssignmentBlockImpl$null3/GPortImpl$s" class="sprotty-edge thick edge" style="fill:none;stroke:rgb(112, 112, 112);stroke-linejoin:round;stroke-width:3px;"><path d="M 0 62.241000175476074 L 54.179500579833984 62.241000175476074 "/></g><g id="sprotty_ArchitectureBlockImpl$work.mux8(synth)/AssignmentBlockImpl$null3/GPortImpl$y_to_ArchitectureBlockImpl$work.mux8(synth)/GPortImpl$y" class="sprotty-edge edge" style="fill:none;stroke:rgb(112, 112, 112);stroke-linejoin:round;"><path d="M 71.80998039245605 57.241000175476074 L 149.80859375 57.241000175476074 "/></g><g id="sprotty_ArchitectureBlockImpl$work.mux8(synth)/GPortImpl$s" transform="translate(0, 62.241000175476074)" class="triangle"><path d="M 0,0 L 5,2.5 L 0,5 Z" transform="translate(-1.67, -2.5)" class="sprotty-port" style="fill:rgb(48, 48, 48);stroke:rgb(48, 48, 48);"/><g class="port sprotty-label" id="sprotty_ArchitectureBlockImpl$work.mux8(synth)/GPortImpl$s/label" transform="translate(3, 3) translate(0, -0.13300000131130219)" style="cursor:default;fill:rgb(48, 48, 48);font-family:Arial, Helvetica, sans-serif;text-anchor:middle;"><path d="M2.93 0.13L2.93 0.13Q2.18 0.13 1.64 0.01Q1.10-0.11 0.69-0.32L0.69-0.32L0.69-1.38Q1.12-1.17 1.72-0.99Q2.33-0.81 2.95-0.81L2.95-0.81Q3.84-0.81 4.24-1.10Q4.64-1.38 4.64-1.86L4.64-1.86Q4.64-2.13 4.50-2.34Q4.35-2.55 3.97-2.77Q3.59-2.98 2.89-3.25L2.89-3.25Q2.19-3.51 1.70-3.78Q1.21-4.04 0.94-4.42Q0.68-4.79 0.68-5.37L0.68-5.37Q0.68-6.28 1.42-6.77Q2.15-7.26 3.35-7.26L3.35-7.26Q4.00-7.26 4.57-7.14Q5.13-7.01 5.63-6.78L5.63-6.78L5.23-5.85Q4.77-6.04 4.28-6.17Q3.79-6.30 3.27-6.30L3.27-6.30Q2.55-6.30 2.17-6.07Q1.80-5.84 1.80-5.44L1.80-5.44Q1.80-5.15 1.97-4.94Q2.14-4.73 2.55-4.54Q2.95-4.35 3.63-4.08L3.63-4.08Q4.31-3.83 4.79-3.56Q5.27-3.29 5.52-2.91Q5.77-2.54 5.77-1.97L5.77-1.97Q5.77-0.93 5.00-0.40Q4.23 0.13 2.93 0.13Z" transform="translate(4, 9.3948)"/><rect x="0" y="0.133" width="14.3707" height="11.3948" class="clickable" style="cursor:pointer;fill:rgba(0, 0, 0, 0);fill-opacity:0;stroke-width:0px;"/></g></g><g id="sprotty_ArchitectureBlockImpl$work.mux8(synth)/GPortImpl$d" transform="translate(0, 35)" class="triangle"><path d="M 0,0 L 5,2.5 L 0,5 Z" transform="translate(-1.67, -2.5)" class="sprotty-port" style="fill:rgb(48, 48, 48);stroke:rgb(48, 48, 48);"/><g class="port sprotty-label" id="sprotty_ArchitectureBlockImpl$work.mux8(synth)/GPortImpl$d/label" transform="translate(3, 3) translate(0, -0.13300000131130219)" style="cursor:default;fill:rgb(48, 48, 48);font-family:Arial, Helvetica, sans-serif;text-anchor:middle;"><path d="M3.66 0.13L3.66 0.13Q2.33 0.13 1.53-0.79Q0.73-1.72 0.73-3.55L0.73-3.55Q0.73-5.39 1.54-6.32Q2.34-7.26 3.67-7.26L3.67-7.26Q4.50-7.26 5.02-6.96Q5.55-6.65 5.88-6.21L5.88-6.21L5.96-6.21Q5.95-6.38 5.91-6.72Q5.88-7.06 5.88-7.26L5.88-7.26L5.88-10.11L7.05-10.11L7.05 0L6.10 0L5.93-0.96L5.88-0.96Q5.56-0.51 5.03-0.19Q4.50 0.13 3.66 0.13ZM3.84-0.84L3.84-0.84Q4.97-0.84 5.43-1.46Q5.89-2.07 5.89-3.33L5.89-3.33L5.89-3.54Q5.89-4.87 5.45-5.58Q5.01-6.29 3.83-6.29L3.83-6.29Q2.89-6.29 2.41-5.54Q1.94-4.79 1.94-3.52L1.94-3.52Q1.94-2.25 2.41-1.54Q2.89-0.84 3.84-0.84Z" transform="translate(4, 12.241)"/><rect x="0" y="0.133" width="16.1795" height="14.241" class="clickable" style="cursor:pointer;fill:rgba(0, 0, 0, 0);fill-opacity:0;stroke-width:0px;"/></g></g><g id="sprotty_ArchitectureBlockImpl$work.mux8(synth)/GPortImpl$y" transform="translate(149.80859375, 57.241000175476074)" class="triangle"><path d="M 0,0 L 5,2.5 L 0,5 Z" transform="translate(-1.67, -2.5)" class="sprotty-port" style="fill:rgb(48, 48, 48);stroke:rgb(48, 48, 48);"/><g class="port sprotty-label" id="sprotty_ArchitectureBlockImpl$work.mux8(synth)/GPortImpl$y/label" transform="translate(-17.782999992370605, 3) translate(0, -3.191999912261963)" style="cursor:default;fill:rgb(48, 48, 48);font-family:Arial, Helvetica, sans-serif;text-anchor:middle;"><path d="M1.12 3.19L1.12 3.19Q0.80 3.19 0.56 3.16Q0.32 3.13 0.15 3.09L0.15 3.09L0.15 2.15Q0.29 2.18 0.50 2.21Q0.70 2.23 0.93 2.23L0.93 2.23Q1.54 2.23 1.92 1.89Q2.29 1.54 2.51 0.97L2.51 0.97L2.89 0.03L0.01-7.13L1.26-7.13L2.81-3.07Q3.01-2.54 3.17-2.05Q3.33-1.57 3.40-1.13L3.40-1.13L3.46-1.13Q3.54-1.46 3.70-2.00Q3.87-2.54 4.07-3.09L4.07-3.09L5.52-7.13L6.78-7.13L3.71 0.98Q3.34 2.00 2.75 2.59Q2.15 3.19 1.12 3.19Z" transform="translate(4, 12.320800000000002)"/><rect x="0" y="3.192" width="14.783000000000001" height="14.320800000000002" class="clickable" style="cursor:pointer;fill:rgba(0, 0, 0, 0);fill-opacity:0;stroke-width:0px;"/></g></g><g id="sprotty_ArchitectureBlockImpl$work.mux8(synth)/AssignmentBlockImpl$null3" transform="translate(54.179500579833984, 42.241000175476074)" class="statement"><rect x="0" y="0" rx="10" ry="5" width="17.63047981262207" height="30" class="sprotty-node" style="fill:rgb(245, 245, 245);stroke:rgb(112, 112, 112);"/><g id="sprotty_ArchitectureBlockImpl$work.mux8(synth)/AssignmentBlockImpl$null3/label" transform="translate(5, 13.28515625) translate(0, 0.700526237487793)" class="sprotty-label statement" style="cursor:default;fill:rgb(48, 48, 48);font-family:Arial, Helvetica, sans-serif;text-anchor:middle;"><path d="M3.50-1.39L3.50-0.70L0.31-2.11L0.31-2.53L3.50-4.13L3.50-3.44L1.17-2.35L3.50-1.39ZM7.30-2.68L4.14-2.68L4.14-3.30L7.30-3.30L7.30-2.68ZM7.30-1.39L4.14-1.39L4.14-2.01L7.30-2.01L7.30-1.39Z" transform="translate(0, 3.42838)"/><rect x="0" y="-0.7003499999999999" width="7.6304799999999995" height="3.42838" class="clickable" style="cursor:pointer;fill:rgba(0, 0, 0, 0);fill-opacity:0;stroke-width:0px;"/></g><g id="sprotty_ArchitectureBlockImpl$work.mux8(synth)/AssignmentBlockImpl$null3/GPortImpl$s" transform="translate(0, 20)" class="sprotty-hidden hidden" style="display:block;height:0px;width:0px;"/><g id="sprotty_ArchitectureBlockImpl$work.mux8(synth)/AssignmentBlockImpl$null3/GPortImpl$d" transform="translate(0, 10)" class="sprotty-hidden hidden" style="display:block;height:0px;width:0px;"/><g id="sprotty_ArchitectureBlockImpl$work.mux8(synth)/AssignmentBlockImpl$null3/GPortImpl$y" transform="translate(17.63047981262207, 15)" class="sprotty-hidden hidden" style="display:block;height:0px;width:0px;"/></g></g></g></svg>